<?xml version="1.0" encoding="UTF-8"?>
<svg id="Layer_1" data-name="Layer 1" xmlns="http://www.w3.org/2000/svg" xmlns:xlink="http://www.w3.org/1999/xlink" viewBox="0 0 1080 1080">
  <defs>
    <style>
      .cls-1 {
        fill: #d86561;
      }

      .cls-1, .cls-2, .cls-3, .cls-4 {
        stroke-width: 0px;
      }

      .cls-2 {
        fill: #faf4e5;
      }

      .cls-5 {
        clip-path: url(#clippath-2);
      }

      .cls-3 {
        fill: none;
      }

      .cls-4 {
        fill: #e58b24;
      }

      .cls-6 {
        clip-path: url(#clippath-1);
      }

      .cls-7 {
        clip-path: url(#clippath-4);
      }

      .cls-8 {
        clip-path: url(#clippath);
      }

      .cls-9 {
        clip-path: url(#clippath-3);
      }
    </style>
    <clipPath id="clippath">
      <rect class="cls-3" x="910" y="794" width="170.67" height="286.97"/>
    </clipPath>
    <clipPath id="clippath-1">
      <rect class="cls-3" x="1.67" y="890" width="201.33" height="190.67"/>
    </clipPath>
    <clipPath id="clippath-2">
      <rect class="cls-3" x="-210.53" y="878.22" width="428" height="432" transform="translate(-1029.77 734.04) rotate(-70.6)"/>
    </clipPath>
    <clipPath id="clippath-3">
      <rect class="cls-3" x="-210.53" y="878.22" width="428" height="432" transform="translate(-1029.77 734.04) rotate(-70.6)"/>
    </clipPath>
    <clipPath id="clippath-4">
      <rect class="cls-3" x="502.66" y="561.73" width="85.68" height="296.17"/>
    </clipPath>
  </defs>
  <g class="cls-8">
    <path class="cls-1" d="m1337.49,996.17c-44.74,5.69-89.32,11.84-134.36,14.14,6.3,33.82,14.45,67.18,24.14,100.24-38.74-3.23-78.71-8.61-116.69-16.45-5.22,43.82-13.07,88.09-18.45,131.91-62.88-67.64-123.6-137.44-181.87-209.08,43.05-1.23,87.94-2.61,130.98-3.84-7.99-35.67-17.07-71.95-25.06-107.77,39.51,4.61,78.71,11.84,117.46,21.21,2.3-42.89,3.99-89.63,6.3-132.52,63.65,67.49,130.37,138.06,197.55,202.17h0Z"/>
  </g>
  <g class="cls-6">
    <g class="cls-5">
      <g class="cls-9">
        <path class="cls-1" d="m-54.47,1300.35c9.5-44.09,18.51-88.18,31.3-131.43-33.99-5.29-68.17-8.69-102.56-10.54,15.92-35.47,34.27-71.39,54.29-104.59-39.59-19.49-78.74-41.59-118.29-61.22,84.69-36.83,170.7-70.92,257.63-102.07-13.14,41.01-26.75,83.81-39.89,124.82,36.3,4.31,73.53,7.81,109.97,12.17-17.47,35.73-37.32,70.31-59.03,103.73,39.69,16.43,83.21,33.55,122.9,49.97-84.8,37.61-173.53,77.09-256.31,119.16h-.01Z"/>
      </g>
    </g>
  </g>
  <path class="cls-4" d="m282.81,151.18h-18.86v49.92h-18.03v-49.92h-18.94v-15.7h55.82v15.7h0Z"/>
  <path class="cls-4" d="m336.13,185.38v15.7h-46.76v-65.62h45.93v15.7h-27.9v9.25h23.83v14.6h-23.83v10.35h28.73v.02Z"/>
  <path class="cls-4" d="m344.52,201.09v-65.62h30.12c3.22,0,6.17.67,8.87,2.01,2.71,1.32,5.04,3.05,6.97,5.18,1.95,2.12,3.48,4.55,4.58,7.29,1.12,2.74,1.68,5.5,1.68,8.26,0,3.81-.83,7.37-2.5,10.67-1.66,3.3-3.96,6-6.91,8.09l14.79,24.12h-20.34l-12.48-20.15h-6.75v20.15h-18.03v-.02.02Zm18.03-35.86h11.36c1.12,0,2.14-.61,3.09-1.83.96-1.24,1.44-2.97,1.44-5.18s-.56-4.02-1.68-5.22c-1.1-1.21-2.2-1.82-3.32-1.82h-10.9v14.05h.01Z"/>
  <path class="cls-4" d="m401.53,201.09l24.47-65.62h14.6l24.41,65.62h-19.05l-3.97-12.84h-17.48l-3.86,12.84h-19.13.02-.01Zm31.78-46.84l-6.09,22h11.93l-5.82-22h-.02Z"/>
  <path class="cls-4" d="m466.75,187.68l30.69-36.5h-29.31v-15.7h50.08v13.4l-28.83,36.5h29.39v15.7h-52.04v-13.4h.02Z"/>
  <path class="cls-4" d="m545.5,201.09c0-3.08.24-5.79.73-8.12.48-2.35,1.29-4.45,2.41-6.33s2.55-3.56,4.31-5.03c1.75-1.48,3.92-2.95,6.51-4.37,3.32-1.79,5.95-3.21,7.9-4.28,1.95-1.08,3.41-1.96,4.39-2.63.99-.69,1.61-1.26,1.9-1.71.27-.46.41-.99.41-1.53,0-1.55-.49-2.68-1.48-3.43-.99-.73-2.35-1.1-4.07-1.1-2.04,0-3.96.53-5.79,1.56-1.82,1.04-3.7,2.73-5.66,5.07l-11.09-13.03c1.16-1.28,2.68-2.46,4.51-3.53,1.85-1.08,3.89-2.01,6.14-2.78,2.25-.78,4.64-1.39,7.16-1.82,2.54-.43,5.12-.65,7.77-.65,7.08,0,12.46,1.47,16.13,4.39s5.52,7.02,5.52,12.25c0,1.91-.26,3.61-.75,5.07-.49,1.48-1.15,2.82-1.98,4.04-.83,1.2-1.83,2.3-3.02,3.29-1.16.97-2.39,1.9-3.67,2.76-1.55,1.04-3.17,2.04-4.87,3.02-1.69.96-3.37,2.03-5.03,3.19h20.34v15.7h-48.74.02Z"/>
  <path class="cls-4" d="m624.4,201.09v-65.62h18.03v49.92h29.77v15.7h-47.8Z"/>
  <path class="cls-4" d="m706.56,201.65c-4.67,0-8.95-.96-12.79-2.86-3.86-1.91-7.16-4.43-9.91-7.55-2.73-3.11-4.85-6.67-6.37-10.67-1.5-4-2.25-8.14-2.25-12.38s.78-8.47,2.35-12.48c1.58-4,3.78-7.55,6.62-10.59s6.19-5.47,10.02-7.29c3.86-1.82,8.09-2.73,12.71-2.73s8.93.96,12.78,2.86c3.86,1.91,7.15,4.43,9.91,7.58,2.74,3.13,4.85,6.7,6.33,10.72,1.47,4,2.22,8.09,2.22,12.28s-.78,8.47-2.36,12.44c-1.56,3.97-3.73,7.48-6.51,10.53s-6.09,5.5-9.99,7.35c-3.88,1.85-8.12,2.78-12.75,2.78h-.02,0Zm-13.03-33.26c0,2.22.26,4.36.77,6.41.53,2.06,1.34,3.89,2.44,5.49,1.12,1.6,2.49,2.9,4.16,3.88,1.68.99,3.62,1.48,5.85,1.48s4.23-.51,5.89-1.53c1.68-1.01,3.03-2.35,4.07-3.97,1.05-1.64,1.85-3.51,2.36-5.6.53-2.09.8-4.21.8-6.37s-.29-4.37-.83-6.43c-.56-2.06-1.37-3.88-2.44-5.46s-2.44-2.82-4.12-3.78c-1.66-.96-3.61-1.44-5.82-1.44s-4.23.49-5.87,1.48c-1.63.99-2.98,2.3-4.07,3.92-1.07,1.63-1.87,3.48-2.41,5.55-.51,2.06-.77,4.16-.77,6.33l-.02.02v.02Z"/>
  <path class="cls-4" d="m786.76,195.72c-4.13,3.88-8.92,5.82-14.33,5.82-4.07,0-7.91-.91-11.55-2.71-3.64-1.82-6.83-4.28-9.57-7.35-2.74-3.08-4.91-6.67-6.51-10.75-1.6-4.1-2.41-8.44-2.41-12.99s.81-8.92,2.44-12.89,3.88-7.43,6.75-10.35c2.87-2.94,6.24-5.25,10.11-6.94,3.88-1.69,8.04-2.55,12.49-2.55,2.76,0,5.41.34,7.93.99,2.54.64,4.88,1.6,7.04,2.86s4.08,2.76,5.76,4.53c1.69,1.75,3.09,3.73,4.21,5.95l-13.4,10.26c-1.12-2.58-2.79-4.66-5.06-6.22-2.25-1.58-4.63-2.36-7.15-2.36-1.85,0-3.57.43-5.14,1.29s-2.92,2.07-4.05,3.61c-1.15,1.53-2.04,3.37-2.7,5.49-.64,2.12-.96,4.45-.96,6.97s.32,4.91.96,7.02c.65,2.09,1.56,3.89,2.73,5.41,1.16,1.5,2.57,2.68,4.2,3.51,1.64.83,3.45,1.26,5.41,1.26,2.22,0,4.36-.56,6.41-1.68,2.07-1.12,4-2.71,5.79-4.8h-11.55v-12.95h26.98v34.94h-14.87v-5.36l.03.02v-.03Z"/>
  <path class="cls-4" d="m838.32,201.65c-4.67,0-8.95-.96-12.79-2.86-3.86-1.91-7.16-4.43-9.91-7.55-2.73-3.11-4.85-6.67-6.37-10.67-1.5-4-2.25-8.14-2.25-12.38s.78-8.47,2.35-12.48c1.58-4,3.78-7.55,6.62-10.59s6.19-5.47,10.02-7.29c3.86-1.82,8.09-2.73,12.71-2.73s8.93.96,12.78,2.86c3.86,1.91,7.15,4.43,9.91,7.58,2.74,3.13,4.85,6.7,6.33,10.72,1.47,4,2.22,8.09,2.22,12.28s-.78,8.47-2.36,12.44c-1.56,3.97-3.73,7.48-6.51,10.53s-6.09,5.5-9.99,7.35c-3.88,1.85-8.12,2.78-12.75,2.78h-.02,0Zm-13.03-33.26c0,2.22.26,4.36.77,6.41.53,2.06,1.34,3.89,2.44,5.49,1.12,1.6,2.49,2.9,4.16,3.88,1.68.99,3.62,1.48,5.85,1.48s4.23-.51,5.89-1.53c1.68-1.01,3.03-2.35,4.07-3.97,1.05-1.64,1.85-3.51,2.36-5.6.53-2.09.8-4.21.8-6.37s-.29-4.37-.83-6.43c-.56-2.06-1.37-3.88-2.44-5.46s-2.44-2.82-4.12-3.78c-1.66-.96-3.61-1.44-5.82-1.44s-4.23.49-5.87,1.48c-1.63.99-2.98,2.3-4.07,3.92-1.07,1.63-1.87,3.48-2.41,5.55-.51,2.06-.77,4.16-.77,6.33l-.02.02v.02Z"/>
  <path class="cls-4" d="m345.76,236.72h16.54l5.74,20.24,5.82-20.24h16.54l-10.82,31.33,4.72,13.67,14.13-45h19.59l-25.68,65.62h-14.98l-9.33-23.47-9.25,23.47h-14.98l-25.68-65.62h19.51l14.23,45,4.53-13.67-10.62-31.33h-.02,0Z"/>
  <path class="cls-4" d="m439.82,268.99c0-4,.72-7.96,2.14-11.84s3.49-7.35,6.24-10.45c2.74-3.08,6.06-5.57,9.99-7.48,3.91-1.9,8.36-2.86,13.35-2.86,5.85,0,10.98,1.31,15.35,3.92s7.61,6.08,9.68,10.39l-13.77,9.8c-.56-1.6-1.29-2.92-2.17-3.97-.89-1.04-1.87-1.87-2.92-2.49-1.04-.62-2.15-1.05-3.32-1.29-1.16-.26-2.25-.38-3.24-.38-2.27,0-4.23.51-5.87,1.53-1.63,1.02-2.98,2.35-4.07,3.99-1.07,1.63-1.85,3.48-2.35,5.54-.49,2.06-.73,4.12-.73,6.14,0,2.28.29,4.48.88,6.57s1.44,3.94,2.57,5.54,2.52,2.89,4.16,3.84c1.64.96,3.51,1.42,5.6,1.42,1.05,0,2.14-.14,3.24-.41,1.12-.27,2.17-.73,3.19-1.37,1.01-.65,1.93-1.48,2.76-2.5.83-1.01,1.5-2.27,2.01-3.73l14.68,8.77c-.93,2.41-2.31,4.56-4.2,6.48s-4.02,3.51-6.43,4.8c-2.39,1.29-4.95,2.28-7.66,2.97s-5.36,1.02-7.93,1.02c-4.56,0-8.77-.97-12.59-2.9-3.81-1.95-7.1-4.51-9.84-7.72-2.73-3.21-4.87-6.83-6.41-10.9-1.55-4.08-2.31-8.2-2.31-12.38l-.03-.03v-.02Z"/>
  <path class="cls-4" d="m550.71,286.64v15.7h-46.76v-65.62h45.93v15.7h-27.9v9.25h23.83v14.6h-23.83v10.35h28.73v.02h0Z"/>
  <path class="cls-4" d="m577.15,270.09v32.24h-18.03v-65.62h14.05l26.34,33.37v-33.37h18.03v65.62h-14.33l-26.07-32.24h.01Z"/>
  <path class="cls-4" d="m628.79,302.33v-65.62h18.03v65.62h-18.03Z"/>
  <path class="cls-4" d="m704.84,286.64v15.7h-46.76v-65.62h45.93v15.7h-27.9v9.25h23.83v14.6h-23.83v10.35h28.73v.02h0Z"/>
  <path class="cls-4" d="m776.72,286.64v15.7h-42.77v-15.7h13.11v-18.39c-.56.73-1.42,1.47-2.58,2.17s-2.47,1.37-3.92,2.01c-1.45.62-2.92,1.1-4.39,1.48-1.48.37-2.81.54-3.99.54v-16.08c.86,0,2.07-.32,3.61-.96,1.55-.65,3.08-1.42,4.61-2.31,1.55-.91,2.95-1.87,4.2-2.89,1.26-1.01,2.09-1.88,2.46-2.63h17.92v37.08h11.74l.02-.02h-.02Z"/>
  <g class="cls-7">
    <path class="cls-2" d="m585.51,758.33c-3.3-2.27-7.82-1.4-10.08,1.9l-.56.83-.57.83-.57.83-.57.86-.57.86-.56.83-.56.83-.57.86-.57.86-1.1,1.68-.57.86-.56.86-.54.85-.54.85-.57.88-.56.88-.54.85-.53.85-.56.88-.54.89-.53.85-.53.85-.54.88-.53.88-.53.88-1.04,1.75-.51.88-.51.88-.51.88-.51.89-1.01,1.79-.49.89-.49.89-.97,1.79-.97,1.8-.48.91-.48.91-.46.91-.4.77v-.53l.05-.72.03-.72.03-.73.03-.73.16-4.36.05-1.48.08-2.17v-.72l.08-1.45.03-.73v-.73l.16-4.36.05-1.5v-.73l.26-9.43v-.72l.03-.73v-.72l.03-.73v-.72l.05-1.45.16-6.52v-.75l.03-.75.08-4.36v-.72l.02-.72v-.73l.02-.72.08-5.07v-.72l.03-.72v-.73l.02-.72v-.72l.02-.73v-.72l.02-.72v-.72l.02-.72v-.72l.02-.72v-.72l.03-1.5v-1.45l.03-2.17v-.73l.03-1.45v-.72l.02-1.45v-.72l.02-1.45v-.72l.02-1.45v-.72l.02-1.45v-.73l.03-2.17v-.72l.03-2.17v-.73l.02-.72v-3.64l.02-1.45v-.72l.03-3.64v-.72l.05-3.64v-.72l.05-3.64v-1.45l.02-.73v-2.17l.03-2.17v-2.17l.03-.72.06-5.81v-4.34l.05-2.17v-.73l.02-.72v-.72l.03-2.17v-1.45l.02-.72v-1.44l.03-.72v-1.45l.03-.72v-.72l.02-.73v-.72l.02-.72.03-2.17v-.72l.02-.73v-.72l.02-.72v-.72l.02-.72v-.73l.05-2.17v-.73l.02-.72.05-2.17v-.72l.03-.72v-.72l.02-.73v-.72l.03-.72v-.72l.03-.72v-.73l.03-.72.03-1.45v-.72l.03-.72v-.72l.06-2.19v-.72l.03-.72.03-1.44.11-4.36.03-1.44.05-1.45.05-1.45v-.73l.05-.72v-.72l.05-.72v-.72l.05-.72v-.73l.05-.72v-.73l.05-.72.05-1.44.16-4.36v-.72l.05-.72.18-4.36v-.72l.05-.72.06-1.45.03-.72.06-1.45.03-.72.06-1.42.03-.72.03-.73.03-.72.06-1.45.03-.73.03-.72.03-.72.22-4.36.03-.72.05-.7.08-1.45.05-.72.13-2.17.03-.72.05-.7.05-.72.05-.72.08-1.45.05-.72.08-1.45c.24-4-2.81-7.43-6.8-7.67-4-.24-7.43,2.81-7.67,6.8l-.05.72-.05.72-.05.72-.05.72-.05.72-.05.72-.05.72-.05.75-.03.75-.05.72-.13,2.17-.05.72-.03.72-.05.75-.03.73-.05.72-.03.73-.03.72-.03.72-.03.73-.03.72-.03.73-.03.73-.03.72-.06,1.45-.03.72-.03.72-.03.72-.03.75-.03.73-.03.72-.03.72-.13,2.9-.03.73-.03.73-.03.73-.11,2.9-.03.72-.03.73-.03.75-.1,2.9-.03.72v.72l-.05.73v.73l-.16,4.36v.73l-.05.73-.06,2.19v.72l-.05.72v.72l-.05.73v.73l-.03.72-.1,3.62-.03,1.47-.06,2.9v.72l-.03.72-.03,1.47v.72l-.03.72v.72l-.03.72v.73l-.03.72v.73l-.03.73-.06,3.62v.72l-.02.72v.73l-.06,2.9v.73l-.02.72v.75l-.02.73v.72l-.03,1.45v.72l-.02.72v.73l-.02.72v.72l-.03,1.45v1.45l-.03.72v.73l-.02.73v.73l-.02,1.45-.03,2.9v1.45l-.02.72-.03,2.17v2.17l-.02.73v1.45l-.02.73v.72l-.06,5.81v2.17l-.02.72v.72l-.03,3.64v.72l-.03,2.9v6.49l-.03,2.19v.72l-.03,2.9v3.62l-.02,1.45v.72l-.02,1.45v.72l-.02,1.45v.72l-.03,2.17v2.17l-.03,2.17v.72l-.02,1.45v.72l-.02,1.45v.72l-.02,1.45v1.45l-.02.7v.7l-.03,1.45v.72l-.02.72v.73l-.02.72-.08,5.07v.72l-.06,3.62v.72l-.06,3.64v.72l-.05,2.9-.03,1.39-.16,6.52v.73l-.03.72v.73l-.03.72-.05,1.45v.72l-.05,1.45v.72l-.03.72-.13,5.07-.03,1.45v.72l-.05,1.4-.08,2.17v.72l-.06,1.45v.72l-.05.72-.08,2.17v.72l-.08,1.45v.72l-.05.72-.06,1.45-.11,2.9-.05,1.42-.03.73-.03.72-.1,2.19-.03.72-.06,1.42-.06,1.45-.03.72-.03.72-.03.72-.03.73-.03.7-.03.72-.14,2.9-.03.72-.03.72-.08,1.42-.05.72-.03.72v.4l-.06-.3-.08-.57-.1-.59-.08-.57-.08-.56-.08-.56-.08-.57-.08-.59-.08-.57-.08-.57-.16-1.16-.08-.57-.08-.57-.08-.57-.24-1.75-.08-.57-.08-.57-.08-.59-.49-3.49-.08-.57-.08-.59-.1-.59-.08-.57-.26-1.75-.08-.57-.08-.59-.1-.61-.1-.61-.1-.57-.08-.57-.35-2.33-.1-.61-.1-.61-.1-.57-.1-.57-.1-.61-.1-.61-.1-.57-.1-.57-.1-.61-.1-.61-.19-1.15-.1-.61-.11-.61-.21-1.15-.11-.61-.11-.61-.21-1.15-.11-.61-.11-.61-.22-1.15-.13-.61-.13-.61-.24-1.15-.13-.61-.13-.61-.24-1.15-.13-.61-.14-.61-.13-.57-.13-.57-.29-1.21-.27-1.13-.14-.61-.16-.61-.29-1.13-.16-.62-.16-.61-.48-1.74-.18-.61-.16-.56-.16-.56-.18-.61-.19-.61-.16-.56-.18-.56-.19-.62-.19-.61-.18-.56-.18-.56-.21-.61-.21-.61-.19-.54-.19-.56-.21-.61-.22-.61-.19-.54-.21-.54-.22-.61-.24-.61-.21-.54-.21-.54-.24-.61-.24-.61-.22-.54-.22-.54-.26-.61-.26-.61-.24-.54-.24-.54-.27-.61-.27-.61-.49-1.07-.27-.59-.27-.59-.27-.57-.27-.57-.27-.57-.29-.56-.29-.56-.29-.56-.29-.56-.3-.56-.3-.57-.3-.56-.29-.53c-1.93-3.51-6.33-4.8-9.84-2.87s-4.8,6.33-2.87,9.84l.29.53.27.48.26.48.26.49.26.49.26.49.49.99.48.99.24.49.22.48.22.48.24.54.24.54.21.46.21.46.24.54.24.54.21.46.19.48.22.54.22.54.19.48.4,1.02.21.54.19.48.18.48.21.54.19.54.18.48.16.49.38,1.1.18.49.16.49.18.56.18.56.16.49.14.49.35,1.12.14.49.14.51.16.56.16.56.29,1.02.14.56.29,1.07.13.51.29,1.13.13.53.13.51.14.57.13.57.13.53.13.53.26,1.13.13.53.11.53.13.57.13.57.11.54.11.53.11.57.11.57.11.54.1.54.11.57.11.57.11.54.1.54.21,1.15.1.54.1.54.1.57.1.57.1.56.1.56.1.57.1.57.1.56.1.56.1.57.1.57.1.56.1.56.1.57.1.57.1.56.08.56.18,1.16.08.57.18,1.16.08.57.08.56.08.56.16,1.16.08.57.26,1.75.08.57.08.57.08.57.4,2.92.16,1.16.16,1.16.08.57.24,1.75.08.59.1.59.08.57.26,1.74.08.59.08.57.08.61.1.61.51,3.48.1.61.1.61.1.57.1.57.27,1.74.1.57.1.62.1.62.19,1.15.1.57.1.57.1.57.1.57.11.64.13.64.21,1.15.21,1.15.21,1.15.11.62.24,1.2.11.57.13.61.13.61.24,1.13.13.61.13.61.13.57.13.57.13.61.14.61.13.56.13.57.14.61.16.61.27,1.13.16.61.16.61.3,1.12.14.56c.81,3.05,3.45,5.12,6.41,5.36.72,2.65,2.89,4.75,5.76,5.26,3.94.69,7.71-1.96,8.38-5.9l.18-1.01.16-.96.35-1.9.19-.94.19-.94.21-.94.21-.94.22-.94.21-.94.22-.93.22-.94.48-1.85.49-1.83.27-.91.26-.91.27-.91.27-.91.57-1.82.29-.91.3-.91.61-1.8.32-.89.32-.89.34-.89.34-.89.34-.89.34-.89.7-1.77.35-.88.37-.89.37-.88.37-.88.38-.88.38-.88.38-.86.38-.88.8-1.74.4-.86.4-.86.41-.86.41-.86.41-.86.43-.86.43-.86.43-.86.88-1.71.45-.85.45-.85.46-.85.46-.85.46-.85.46-.85.46-.85.46-.85.48-.83.48-.85.48-.85.97-1.68.49-.83.99-1.68.49-.83.49-.83.51-.83.53-.85.53-.86.49-.81.51-.81.53-.85.54-.85.51-.81.53-.81.54-.83.54-.85.53-.81.53-.81.56-.83.56-.85.54-.81.54-.81.56-.83.56-.83,1.1-1.61.57-.83.57-.83.57-.83c2.27-3.3,1.4-7.82-1.9-10.08"/>
  </g>
  <path class="cls-4" d="m376.36,441.22c-1.64-.99-3.35-1.87-5.12-2.65-1.48-.65-3.14-1.28-4.98-1.83-1.83-.57-3.62-.88-5.38-.88-1.42,0-2.57.22-3.41.67-.85.43-1.26,1.16-1.26,2.22,0,.77.24,1.4.72,1.9.49.49,1.21.94,2.14,1.36.94.41,2.09.81,3.41,1.2,1.34.38,2.87.85,4.58,1.39,2.68.83,5.11,1.74,7.27,2.73,2.17.97,4.02,2.15,5.57,3.49,1.53,1.34,2.71,2.97,3.53,4.9.83,1.93,1.24,4.26,1.24,6.99,0,3.51-.65,6.46-1.93,8.85-1.29,2.38-3,4.29-5.12,5.71-2.11,1.42-4.5,2.46-7.16,3.08-2.65.64-5.33.94-8.01.94-2.15,0-4.34-.16-6.6-.49-2.25-.32-4.48-.78-6.7-1.39s-4.36-1.32-6.41-2.14c-2.06-.81-3.96-1.75-5.71-2.79l6.89-14.07c1.91,1.2,3.92,2.27,6,3.19,1.75.83,3.75,1.58,5.97,2.23s4.48.99,6.78.99c1.75,0,2.98-.22,3.67-.69.69-.46,1.02-1.08,1.02-1.87,0-.83-.35-1.53-1.02-2.11-.69-.57-1.63-1.07-2.84-1.5-1.2-.45-2.58-.88-4.15-1.32s-3.22-.97-4.98-1.58c-2.58-.88-4.8-1.82-6.67-2.82-1.87-1.02-3.4-2.17-4.59-3.46-1.2-1.29-2.09-2.76-2.68-4.4-.57-1.64-.86-3.54-.86-5.68,0-3.24.59-6.08,1.77-8.55s2.78-4.53,4.8-6.17,4.36-2.89,6.96-3.73c2.62-.86,5.38-1.28,8.28-1.28,2.14,0,4.23.21,6.25.61,2.03.41,4,.93,5.89,1.56s3.67,1.32,5.3,2.06c1.64.73,3.13,1.42,4.45,2.09l-6.89,13.26h0l-.02-.02Z"/>
  <path class="cls-4" d="m391.74,480.55v-58.42h25.17c2.86,0,5.47.59,7.88,1.79,2.42,1.18,4.48,2.71,6.21,4.61,1.74,1.88,3.09,4.05,4.08,6.49s1.48,4.9,1.48,7.37-.48,5.09-1.42,7.53c-.93,2.44-2.23,4.61-3.91,6.51-1.68,1.88-3.72,3.4-6.09,4.51-2.38,1.12-4.99,1.68-7.85,1.68h-9.54v17.95h-16.05l.03-.02h.01Zm16.05-31.92h8.49c.97,0,1.88-.45,2.73-1.36.86-.91,1.28-2.54,1.28-4.9s-.49-4.07-1.48-4.95c-.97-.88-1.96-1.32-2.95-1.32h-8.06v12.52h0Z"/>
  <path class="cls-4" d="m442.74,480.55v-58.42h26.82c2.87,0,5.49.59,7.9,1.79,2.42,1.18,4.48,2.71,6.21,4.61,1.74,1.88,3.09,4.05,4.07,6.49.99,2.44,1.48,4.9,1.48,7.37,0,3.4-.75,6.56-2.23,9.51-1.48,2.94-3.53,5.34-6.16,7.19l13.16,21.47h-18.11l-11.1-17.95h-6v17.95h-16.05l.02-.02h-.01Zm16.05-31.92h10.11c.99,0,1.9-.54,2.76-1.64s1.28-2.65,1.28-4.61-.49-3.57-1.48-4.64c-.97-1.08-1.96-1.61-2.95-1.61h-9.7v12.51h-.02,0Z"/>
  <path class="cls-4" d="m493.5,480.55l21.79-58.42h13l21.74,58.42h-16.96l-3.53-11.44h-15.57l-3.45,11.44h-17.04.02Zm28.3-41.7l-5.42,19.57h10.62l-5.18-19.57h-.02Z"/>
  <path class="cls-4" d="m573.05,422.13h14.72l5.12,18.01,5.18-18.01h14.72l-9.64,27.89,4.2,12.17,12.59-40.07h17.44l-22.88,58.42h-13.34l-8.31-20.9-8.23,20.9h-13.34l-22.88-58.42h17.37l12.67,40.07,4.04-12.17-9.46-27.89h.03Z"/>
  <path class="cls-4" d="m641.5,480.55v-58.42h22.46c4.82,0,9.06.77,12.73,2.31,3.69,1.53,6.75,3.62,9.22,6.27,2.47,2.63,4.34,5.71,5.6,9.25,1.26,3.53,1.9,7.31,1.9,11.31,0,4.43-.7,8.46-2.11,12.04-1.4,3.61-3.4,6.67-5.97,9.22-2.58,2.54-5.68,4.51-9.3,5.92-3.62,1.4-7.66,2.11-12.09,2.11h-22.46l.02-.02h0Zm35.62-29.29c0-2.25-.3-4.31-.91-6.17-.59-1.87-1.45-3.46-2.58-4.79-1.13-1.31-2.52-2.35-4.16-3.08-1.64-.75-3.48-1.12-5.5-1.12h-6.41v30.45h6.41c2.09,0,3.94-.38,5.6-1.15,1.64-.77,3.03-1.83,4.15-3.19,1.13-1.37,1.98-3,2.55-4.85.57-1.87.88-3.91.88-6.09l-.02-.02h-.01Z"/>
  <path class="cls-4" d="m697.67,468.61l27.33-32.5h-26.08v-13.99h44.59v11.93l-25.67,32.5h26.16v13.99h-46.34v-11.93h.02-.01Zm28.89-48.96l-9.87-2.62,4.12-11.68h13.91l-8.15,14.29h0Z"/>
</svg>