<?xml version="1.0" encoding="UTF-8"?>
<svg id="Layer_1" data-name="Layer 1" xmlns="http://www.w3.org/2000/svg" xmlns:xlink="http://www.w3.org/1999/xlink" viewBox="0 0 1080 1080">
  <defs>
    <style>
      .cls-1 {
        fill: #d86561;
      }

      .cls-1, .cls-2, .cls-3, .cls-4, .cls-5, .cls-6 {
        stroke-width: 0px;
      }

      .cls-2 {
        fill: #8bc4c3;
      }

      .cls-7 {
        clip-path: url(#clippath-20);
      }

      .cls-8 {
        clip-path: url(#clippath-11);
      }

      .cls-9 {
        clip-path: url(#clippath-16);
      }

      .cls-3 {
        fill: #faf4e5;
      }

      .cls-10 {
        clip-path: url(#clippath-2);
      }

      .cls-11 {
        clip-path: url(#clippath-13);
      }

      .cls-12 {
        clip-path: url(#clippath-15);
      }

      .cls-13 {
        clip-path: url(#clippath-6);
      }

      .cls-4 {
        fill: none;
      }

      .cls-14 {
        clip-path: url(#clippath-7);
      }

      .cls-15 {
        clip-path: url(#clippath-21);
      }

      .cls-5 {
        fill: #e58b24;
      }

      .cls-16 {
        clip-path: url(#clippath-1);
      }

      .cls-17 {
        clip-path: url(#clippath-4);
      }

      .cls-18 {
        clip-path: url(#clippath-12);
      }

      .cls-19 {
        clip-path: url(#clippath-22);
      }

      .cls-6 {
        fill: #202637;
      }

      .cls-20 {
        clip-path: url(#clippath-9);
      }

      .cls-21 {
        clip-path: url(#clippath);
      }

      .cls-22 {
        clip-path: url(#clippath-19);
      }

      .cls-23 {
        clip-path: url(#clippath-3);
      }

      .cls-24 {
        clip-path: url(#clippath-8);
      }

      .cls-25 {
        clip-path: url(#clippath-18);
      }

      .cls-26 {
        clip-path: url(#clippath-14);
      }

      .cls-27 {
        clip-path: url(#clippath-17);
      }

      .cls-28 {
        clip-path: url(#clippath-5);
      }

      .cls-29 {
        clip-path: url(#clippath-10);
      }

      .cls-30 {
        clip-path: url(#clippath-23);
      }
    </style>
    <clipPath id="clippath">
      <rect class="cls-4" x="11.44" y="339.04" width="357.9" height="140.96"/>
    </clipPath>
    <clipPath id="clippath-1">
      <rect class="cls-4" x="706.01" y="339.04" width="357.99" height="140.96"/>
    </clipPath>
    <clipPath id="clippath-2">
      <rect class="cls-4" x="149.33" y="874.67" width="82.67" height="70.67"/>
    </clipPath>
    <clipPath id="clippath-3">
      <rect class="cls-4" x="150.14" y="874.39" width="81" height="70" transform="translate(-93.36 24.7) rotate(-5.96)"/>
    </clipPath>
    <clipPath id="clippath-4">
      <rect class="cls-4" x="150.14" y="874.39" width="81" height="70" transform="translate(-93.36 24.7) rotate(-5.96)"/>
    </clipPath>
    <clipPath id="clippath-5">
      <rect class="cls-4" x="825.33" y="745.33" width="76" height="80"/>
    </clipPath>
    <clipPath id="clippath-6">
      <rect class="cls-4" x="822.15" y="747.53" width="81" height="70" transform="translate(-301.79 807.15) rotate(-43.42)"/>
    </clipPath>
    <clipPath id="clippath-7">
      <rect class="cls-4" x="822.15" y="747.53" width="81" height="70" transform="translate(-301.79 807.15) rotate(-43.42)"/>
    </clipPath>
    <clipPath id="clippath-8">
      <rect class="cls-4" width="170.67" height="286.97"/>
    </clipPath>
    <clipPath id="clippath-9">
      <rect class="cls-4" x="878.67" width="201.33" height="190.67"/>
    </clipPath>
    <clipPath id="clippath-10">
      <rect class="cls-4" x="864.22" y="-229.63" width="428" height="432" transform="translate(732.85 1007.87) rotate(-70.6)"/>
    </clipPath>
    <clipPath id="clippath-11">
      <rect class="cls-4" x="864.22" y="-229.63" width="428" height="432" transform="translate(732.85 1007.87) rotate(-70.6)"/>
    </clipPath>
    <clipPath id="clippath-12">
      <rect class="cls-4" x="304" y="492" width="106.67" height="85.33"/>
    </clipPath>
    <clipPath id="clippath-13">
      <rect class="cls-4" x="333.97" y="474.62" width="37" height="131" transform="translate(-291.92 566.9) rotate(-59.25)"/>
    </clipPath>
    <clipPath id="clippath-14">
      <rect class="cls-4" x="333.97" y="474.62" width="37" height="131" transform="translate(-291.92 566.9) rotate(-59.25)"/>
    </clipPath>
    <clipPath id="clippath-15">
      <rect class="cls-4" x="313.33" y="514.67" width="1.33" height="1.33"/>
    </clipPath>
    <clipPath id="clippath-16">
      <rect class="cls-4" x="333.97" y="474.62" width="37" height="131" transform="translate(-291.92 566.9) rotate(-59.25)"/>
    </clipPath>
    <clipPath id="clippath-17">
      <rect class="cls-4" x="333.97" y="474.62" width="37" height="131" transform="translate(-291.92 566.9) rotate(-59.25)"/>
    </clipPath>
    <clipPath id="clippath-18">
      <rect class="cls-4" x="680" y="490.67" width="105.33" height="88"/>
    </clipPath>
    <clipPath id="clippath-19">
      <rect class="cls-4" x="673.03" y="521.44" width="131" height="37" transform="translate(-174.54 482.71) rotate(-32.58)"/>
    </clipPath>
    <clipPath id="clippath-20">
      <rect class="cls-4" x="672.76" y="521.62" width="131" height="37" transform="translate(-174.68 482.59) rotate(-32.58)"/>
    </clipPath>
    <clipPath id="clippath-21">
      <rect class="cls-4" x="774.67" y="513.33" width="1.33" height="1.33"/>
    </clipPath>
    <clipPath id="clippath-22">
      <rect class="cls-4" x="673.03" y="521.44" width="131" height="37" transform="translate(-174.54 482.71) rotate(-32.58)"/>
    </clipPath>
    <clipPath id="clippath-23">
      <rect class="cls-4" x="672.76" y="521.62" width="131" height="37" transform="translate(-174.68 482.59) rotate(-32.58)"/>
    </clipPath>
  </defs>
  <rect class="cls-4" x="-108" y="-108" width="1296" height="1296"/>
  <path class="cls-2" d="m118.32,1700.88s48.24,24.46,285.79,28.35c237.55,3.89,398.51-8,458.87-14.18,60.36-6.17,84.59-14.17,84.59-14.17,0,0,24.23-581.19,0-699.16s-88.48-312.08-293.8-376.1c-205.31-64.02-249.67-9.38-354.15,76.13-104.48,85.51-197.31,628.29-193.19,793.59s11.89,205.54,11.89,205.54Z"/>
  <path class="cls-1" d="m695.02,954.3l-153.52,25.08s-142.16,51.24-192.12-26.37c-62.61-97.35,5.58-168.75,39.45-200.27,28.73-26.8,28.73-75.05,28.95-80.63,0-74.4,12.65-119,54.24-143.44,45.46-26.8,82.77-21.23,82.77-21.23,0,0,51.68-2.14,81.69,44.81,20.37,31.95,25.73,75.05,29.81,119.86,6.86,76.76,78.69,89.2,80.19,166.82,1.71,79.12-51.46,115.36-51.46,115.36Zm0,0l-153.52,25.08s-142.16,51.24-192.12-26.37c-62.61-97.35,5.58-168.75,39.45-200.27,28.73-26.8,28.73-75.05,28.95-80.63,0-74.4,12.65-119,54.24-143.44,45.46-26.8,82.77-21.23,82.77-21.23,0,0,51.68-2.14,81.69,44.81,20.37,31.95,25.73,75.05,29.81,119.86,6.86,76.76,78.69,89.2,80.19,166.82,1.71,79.12-51.46,115.36-51.46,115.36Z"/>
  <path class="cls-5" d="m534.85,832.3c54.46,15.01,101.63-19.73,101.63-19.73,0,0,61.32,22.94,74.83,43.53,22.3,34.3,55.75,238.21-6.22,271.02-56.39,29.8-156.09-10.72-202.19-30.66-34.52,42.45-78.27,73.11-138.52,38.38-67.97-39.45-20.16-255.16-5.79-277.67,23.59-36.88,86.84-44.38,86.84-44.38,0,0,34.73,4.5,89.41,19.51Zm0,0c54.46,15.01,101.63-19.73,101.63-19.73,0,0,61.32,22.94,74.83,43.53,22.3,34.3,55.75,238.21-6.22,271.02-56.39,29.8-156.09-10.72-202.19-30.66-34.52,42.45-78.27,73.11-138.52,38.38-67.97-39.45-20.16-255.16-5.79-277.67,23.59-36.88,86.84-44.38,86.84-44.38,0,0,34.73,4.5,89.41,19.51Z"/>
  <path class="cls-3" d="m618.69,806.99c9.65,3.22,17.8,5.57,17.8,5.57,0,0-11.79,44.6-63.25,58.54-37.74-20.37-71.19-27.88-71.19-27.88l-12.22,20.37c-36.45-17.8-44.17-51.03-44.17-51.03,0,0,40.74-11.79,50.39-19.94,8.58-7.29,6.65-46.96,6.22-55.32-24.44-10.51-36.02-30.88-41.38-49.31-13.51,1.07-24.66-22.94-18.44-33.88,6.65-11.79,13.94-3.86,13.94-3.86,36.02,9.01,92.42-44.17,109.99-88.77.43-.86,1.51-.65,1.72.21,6,29.59,33.88,72.47,56.6,88.55,0,0,7.29-7.93,13.94,3.86s-6.65,39.24-21.87,33.02c0-.64,0-1.29.21-1.93-7.29,22.72-18.87,40.52-37.31,50.6h.43s-.21,4.51-.43,10.72c3.43.21,12.22,1.5,14.15,9.65,10.51.43,15.01,7.51,14.36,11.79,7.08-.43,10.94,15.87,6.65,19.52,6.43-.65,6.01,12.65,3.86,19.51Zm0,0c9.65,3.22,17.8,5.57,17.8,5.57,0,0-11.79,44.6-63.25,58.54-37.74-20.37-71.19-27.88-71.19-27.88l-12.22,20.37c-36.45-17.8-44.17-51.03-44.17-51.03,0,0,40.74-11.79,50.39-19.94,8.58-7.29,6.65-46.96,6.22-55.32-24.44-10.51-36.02-30.88-41.38-49.31-13.51,1.07-24.66-22.94-18.44-33.88,6.65-11.79,13.94-3.86,13.94-3.86,36.02,9.01,92.42-44.17,109.99-88.77.43-.86,1.51-.65,1.72.21,6,29.59,33.88,72.47,56.6,88.55,0,0,7.29-7.93,13.94,3.86s-6.65,39.24-21.87,33.02c0-.64,0-1.29.21-1.93-7.29,22.72-18.87,40.52-37.31,50.6h.43s-.21,4.51-.43,10.72c3.43.21,12.22,1.5,14.15,9.65,10.51.43,15.01,7.51,14.36,11.79,7.08-.43,10.94,15.87,6.65,19.52,6.43-.65,6.01,12.65,3.86,19.51Z"/>
  <path class="cls-6" d="m507.83,650.9c0-4.72,2.57-8.79,5.58-8.79s5.57,3.86,5.57,8.79-2.57,8.79-5.57,8.79-5.58-3.86-5.58-8.79Zm62.4,8.79c3.22,0,5.58-3.86,5.58-8.79s-2.57-8.79-5.58-8.79-5.57,3.86-5.57,8.79c-.21,4.93,2.36,8.79,5.57,8.79Zm-28.94,19.3c.64-16.72.85-33.67.43-50.39,0-2.14-3.22-2.14-3.22,0,.43,16.72.43,33.67-.43,50.39-.21,1.93,3,1.93,3.22,0Zm-17.58,17.58c3.65.43,7.07,1.29,10.08,3.43,3,2.15,5.15,5.15,7.51,7.93.64.65,1.71.65,2.36,0s.64-1.5,0-2.35c-2.58-3.22-4.93-6.43-8.36-8.58-3.43-2.36-7.29-3.43-11.36-3.86-.86,0-1.71.85-1.71,1.71-.21,1.07.64,1.71,1.5,1.71Zm9.01,54.04c11.36,1.5,22.73-.65,33.45-4.51,5.15-1.93,10.29-4.07,14.8-7.51,1.71-1.29,0-4.07-1.72-2.79-3.64,2.79-7.93,4.72-12.22,6.43-5.15,1.93-10.51,3.65-15.87,4.51-10.93,1.93-21.87.64-32.38-2.57-5.15-1.5-10.51-3.43-15.01-6.65-1.71-1.07-3.43,1.71-1.71,2.79,4.07,2.79,8.79,4.71,13.29,6.22,5.79,2.14,11.58,3.43,17.37,4.07Zm-27.23,90.27c5.57-17.37,10.93-34.74,16.51-52.1,1.29-4.29,2.57-8.58,4.07-12.86,1.07-3.65,2.36-7.08,4.5-10.29,4.29-6.22,11.8-8.15,18.66-9.44,10.08-2.14,20.16-4.29,30.23-6.22,1.93-.43,1.07-3.43-.86-3-9.22,1.93-18.44,3.86-27.66,5.79-7.29,1.5-15.22,2.79-20.58,8.36-5.57,5.79-7.29,14.36-9.65,21.87-2.79,9.01-5.58,18.01-8.58,27.02-3.22,10.08-6.43,20.16-9.44,30.23-1.07,1.93,2.15,2.79,2.79.65Zm57.24-74.41c9.86-4.71,20.59-7.51,31.52-8.36,2.15-.21,2.15-3.43,0-3.22-11.58.86-22.73,3.86-33.23,8.79-1.71.86,0,3.65,1.71,2.79Zm44.6.43c-12.01.43-24.01,2.14-35.81,4.93-1.93.43-1.07,3.65.86,3.01,11.36-2.79,23.16-4.51,34.95-4.72,1.93,0,1.93-3.21,0-3.21Zm-26.37,17.36c-2.15.21-2.15,3.43,0,3.22,11.79-.86,23.58-2.15,35.16-.65,2.15.21,1.93-3,0-3.21-11.58-1.5-23.58-.21-35.16.64Zm22.3,43.1c4.29-.21,7.51-4.51,9.65-7.72,2.57-3.65,4.29-7.72,5.15-12.22.43-1.93-2.79-2.79-3.01-.85-.64,3.43-1.93,6.86-3.86,9.86-1.71,2.57-4.07,6.22-7.07,7.51-1.5.65-3-.21-3.65-1.5-.86-1.71-.64-3.86-.43-5.57.64-4.07,1.29-8.15,2.36-12.22.21-.85-.43-2.14-1.51-1.93-7.07.64-13.94,1.29-21.01,1.93-.43,0-.65.21-.86.43l-.21.21c-.21.21-.43.64-.43,1.07-.43,7.72-.65,15.44-1.93,23.16-.64,4.93-1.93,10.08-5.36,13.72-1.93,1.93-4.29,3.22-6.86,3.86-.43.22-.86.43-1.07.86-.21.21-.65.43-.65.86-1.93,4.72-3.86,9.43-6,14.15-.43.86.43,1.71,1.07,1.93.86.22,1.72-.21,1.93-1.07,1.93-4.51,3.86-9.22,5.79-13.72,4.93-1.72,9.01-4.93,11.36-9.65,2.79-5.79,3.22-12.65,3.65-19.08.43-4.5.65-9.01.86-13.51,5.79-.43,11.58-1.07,17.37-1.5-1.07,4.29-1.93,8.57-2.15,12.86,0,3.43,2.15,8.36,6.86,8.15Zm-228.35,15.65c10.29,5.15,18.01,14.58,21.44,25.52.65,1.93,3.65,1.07,3-.85-3.64-11.8-12.01-21.88-22.94-27.45-1.71-1.07-3.43,1.71-1.5,2.79Zm112.79,20.37c-14.8,21.66-29.16,43.74-43.1,66.04-6.65,10.72-13.3,21.23-19.73,31.95-3-18.01-6.21-36.23-10.07-54.03-1.07-5.36-2.36-10.94-3.65-16.3-.43-1.93-3.65-1.07-3.01.86,4.29,19.08,8.15,38.17,11.36,57.24.86,5.36,1.93,10.94,2.79,16.51-6.86,11.15-13.72,22.52-20.58,33.67-7.51,12.22-14.79,24.44-22.3,36.67-1.07,1.71,1.71,3.43,2.79,1.71,13.72-22.52,27.23-45.03,40.95-67.33,14.36-23.37,28.73-46.53,43.53-69.47,7.72-12.01,15.65-24.02,23.8-35.81,1.29-1.93-1.5-3.43-2.79-1.72Zm-93.06,132.72c-12.44.65-24.44,4.93-34.52,12.01-1.72,1.07,0,4.07,1.71,2.79,9.65-6.86,21.23-10.72,33.02-11.58,1.93-.21,1.93-3.43-.21-3.22Zm293.1,47.17c-15.65-4.93-31.73-9.22-47.6-12.86,6.65-3,13.72-4.72,21.23-4.5,7.93.43,15.65,2.79,23.16,4.71,1.93.43,2.79-2.57.86-3-7.94-2.15-16.08-4.51-24.45-4.93-2.79-.21-5.79,0-8.36.43.21-.21.43-.64.43-.85,1.5-23.16,7.51-45.67,12.22-68.4,1.07-5.15,2.14-10.29,3-15.65.43-1.93-2.79-3-3-.86-1.72,10.08-4.07,20.16-6.22,30.02-2.57,11.79-5.15,23.58-6.86,35.38-1.07,6.43-1.93,12.86-2.36,19.3,0,.64.21,1.07.64,1.29-5.36,1.07-10.29,3-15.22,5.57-1.29-.21-2.36-.64-3.65-.86-18.86-4.29-37.73-7.93-56.82-10.72-10.08-1.5-20.37-2.79-30.45-3.86.43-1.07.86-2.15,1.5-3.43,6.43-15.44,12.65-30.88,18.66-46.53,5.57-14.15,10.72-28.3,15.86-42.67,4.07-11.36,7.93-22.73,11.58-34.09.43-1.07.65-2.36,1.07-3.43.21-.43,0-1.29-.43-1.5-2.15-1.93-4.51-3.65-6.65-5.36-3.43-2.58-7.08-5.58-10.94-7.29-1.93-.86-3.43,1.93-1.71,2.79,3.86,1.71,7.29,4.51,10.51,7.08,1.93,1.5,3.86,3,5.79,4.71-3.43,10.51-6.86,21.02-10.72,31.52-4.93,13.94-10.08,27.88-15.44,41.81-6.01,15.44-12.01,30.88-18.44,46.1-6.44,15.44-13.08,30.66-19.94,45.89-6.43,13.94-13.08,27.66-20.37,41.17-.86,1.5-1.5,3-2.36,4.51-1.07,1.71,1.71,3.43,2.79,1.71,7.29-13.08,13.94-26.59,20.16-40.31,6.01-13.08,11.79-26.16,17.37-39.23,18.86,2.14,37.73,4.71,56.39,8.36,18.87,3.43,37.52,7.72,56.18,12.44,10.51,2.79,21.01,5.79,31.3,8.79,2.36.43,3.22-2.79,1.29-3.22Zm18.02-174.75c-9.01,8.58-17.37,17.8-24.66,27.88-1.29,1.71,1.5,3.22,2.79,1.71,7.08-9.86,15.22-19.08,24.23-27.23,1.29-1.5-.85-3.86-2.35-2.36Zm-134.87-256.01c6.65-.86,13.29,1.93,17.36,7.29.65.65,1.72.65,2.36,0,.65-.64.65-1.5,0-2.36-4.5-5.79-12.22-9.01-19.72-8.15-.86,0-1.71.65-1.71,1.71.21.65.85,1.72,1.71,1.51Zm-121.15,47.81c3,3,5.36,6.86,6.43,10.94-.86-.65-1.93-1.07-3-1.29-1.93-.43-2.79,2.57-.86,3,1.93.43,3.65,1.71,4.72,3.43.85,1.29,3,.85,3-.86-.43-6.65-3.22-12.86-7.93-17.58-1.72-1.5-3.86.86-2.36,2.36Zm179.25,1.71c.65-.43,1.07-1.5.65-2.14-.43-.65-1.5-1.07-2.15-.65-4.71,3.43-8.15,8.58-9.01,14.15-.21.86.21,1.51.86,1.93.64.21,1.71,0,1.93-.65.43-.64.65-.85,1.29-1.29.43-.21,1.07-.43,1.51-.21.85.21,1.71-.21,1.93-1.07.21-.85-.21-1.93-1.07-1.93-.85-.21-1.5,0-2.36,0,1.51-3.22,3.65-6.22,6.43-8.15Zm-140.44-109.78c-19.94,12.65-33.88,33.67-38.59,56.61-1.29,6.43-1.93,13.08-1.71,19.72,0,2.15,3.21,2.15,3.21,0-.85-22.51,8.15-45.03,23.8-61.32,4.5-4.5,9.43-8.58,14.79-12.01,1.72-1.29.22-4.07-1.5-3.01Zm-26.16,87.48c6.65-9.01,13.94-17.58,21.66-25.73,1.5-1.5-.86-3.86-2.36-2.36-7.93,8.36-15.22,17.15-22.08,26.38-1.29,1.71,1.5,3.43,2.79,1.71Zm173.03-24.23c.43,6.43,0,13.08-1.07,19.51-.43,1.93,2.79,2.79,3,.86,4.29-23.8-1.93-48.89-16.3-68.19-4.07-5.36-8.58-10.51-13.94-14.79-1.5-1.29-3.86.86-2.36,2.36,18.23,14.79,29.38,37.09,30.66,60.25Zm-81.69-96.92c.22,0,.43.21.65.21h.64s.22,0,.22.21c.21,0,.43.21.64.21.65.43,1.5.86,2.15,1.29,0,0,.21,0,.21.22l.43.43.86.86c.21.21.64.64.86.85.21.22.21.43.43.43l.21.21c-.21-.21,0,0,0,0,.43.64,1.5,1.07,2.15.64.64-.43,1.07-1.5.64-2.14-2.36-3.22-5.57-5.58-9.22-6.86-.86-.21-1.71.21-1.93,1.07-.22,1.29.21,2.15,1.07,2.36Zm21.66,10.72q.22-.21.43-.43s.21-.21.43-.21c.43-.21.65-.43,1.07-.65.21-.21.64-.43.86-.43,0,0,.64-.21.21-.21.21,0,.43-.21.64-.21,1.72-.65,2.79-.86,4.51-.86.85,0,1.71-.64,1.71-1.71,0-.86-.64-1.5-1.71-1.72-3.86,0-7.51,1.29-10.29,3.86-.65.65-.65,1.72,0,2.36.64.86,1.5.86,2.14.21Zm-16.29,3.86h-3.43c-.43,0-.86.22-1.07.43s-.43.64-.43,1.07c0,.85.64,1.71,1.71,1.71h3.43c.43,0,.85-.21,1.07-.43.21-.22.43-.65.43-1.07,0-.86-.65-1.72-1.71-1.72Z"/>
  <path class="cls-6" d="m735.12,719.94c.21,1.71-.65,3.65-2.15,4.72-.65.43-1.5.85-2.15.85-.85,0-1.71,0-2.57-.43-1.71-.65-2.57-2.15-2.79-3.86-.21-1.72.65-3.65,2.15-4.72s3.21-1.07,4.71-.43c1.51.64,2.57,2.14,2.79,3.86Zm-28.09-16.94c-1.72-.65-3.43-.65-4.72.43-1.5,1.07-2.36,2.79-2.15,4.72.21,1.71,1.29,3.21,2.79,3.86.86.43,1.72.43,2.57.43s1.51-.43,2.15-.86c1.5-1.07,2.36-2.79,2.15-4.71,0-1.72-1.07-3.22-2.79-3.86Zm84.05-46.1c-1.71-5.57-5.57-9.65-11.15-11.58-7.51-2.57-16.08.43-23.38,7.94-.21.43-.64.64-.85,1.07l6.43,6.65c.64-.22,1.07-.65,1.5-1.07,3.43-3.43,7.72-5.58,11.15-5.58,1.93,0,3.65.86,4.93,2.36,3.86,4.51,2.14,12.01-1.07,16.94-1.29,2.14-3.65,4.71-6.86,6-1.93.65-3.86.86-6.22,1.07-1.5.21-3,.43-4.71.65-8.36,1.71-15.44,8.15-18.66,17.15-.21.43-.21.86-.21,1.29l9.22,2.79c0-.21.21-.21.21-.43,1.29-3.43,3.22-6.43,5.79-8.58,2.15-1.71,4.72-2.79,8.79-3.21h.64c3.43-.43,6.86-.86,10.29-2.36,3.01-1.5,5.79-3.65,8.15-6.65,5.79-6.43,8.15-16.73,6-24.45Zm-52.74-22.94c-3.43-6.21-10.72-9.22-18.22-7.72-8.15,1.72-15.44,8.15-19.94,18.01-.21.65-.43,1.07-.43,1.72l8.58,3.65c.21-.43.64-.86.85-1.29,3.01-6.43,9.01-13.72,16.08-12.44,1.93.21,3.21,1.07,4.07,2.57,1.5,2.57,1.93,6.65.86,10.72-.86,3.43-2.79,6.43-5.36,8.79-1.51,1.29-3.43,2.57-5.36,3.86-1.5,1.07-3.21,2.15-4.71,3.22-7.29,5.79-11.36,14.15-11.36,23.37,0,.43,0,.86.21,1.29l9.43-.21c.21-.43.21-1.07.21-1.5,0-8.36,5.58-13.94,10.51-17.16,6.65-4.5,12.22-8.79,15.22-16.29,2.79-7.51,2.57-15.01-.65-20.59Z"/>
  <g class="cls-21">
    <path class="cls-5" d="m365.71,421.44c-.97,2.22-2.03,4.37-2.85,6.64-5.9,15.81-16.4,26.27-29.47,33.61-3.32,1.88-6.71,3.67-10.19,4.88-29.23,10.19-58.59,15.85-88.18,10.62-18.46-3.28-36.81-7.38-55.51-8.98-18.11-1.56-36.61-.67-54.96-.43-19.6.28-39.23,1.25-58.01-4.45-17.33-5.27-35.48-8.39-46.73-24.4-4.37-6.21-8.11-18.54-8.16-26.43-.04-8.51,4.57-22.45,10.5-37.24,6.71-11.56,11.83-15.66,21.2-20.45,30.21-15.5,61.52-15.69,93.41-14.68,21.31.66,42.86-1.09,64.21-.51,20.69.55,41.18,2.85,61.83,4.06,5.07.31,10.27-.7,15.42-.82,11.71-.23,23.7-1.83,35.06-.08,13.46,2.07,26.15,7.93,37.08,16.79,14.01,11.32,19.52,27.99,18.07,48.36-.08,1.21-.08,2.42-.12,3.63-.9,3.32-1.76,6.6-2.61,9.88Z"/>
  </g>
  <g class="cls-16">
    <path class="cls-5" d="m1060.28,421.44c-.97,2.22-2.03,4.37-2.85,6.64-5.9,15.81-16.4,26.27-29.47,33.61-3.32,1.88-6.72,3.67-10.19,4.88-29.23,10.19-58.59,15.85-88.18,10.62-18.46-3.28-36.81-7.38-55.51-8.98-18.11-1.56-36.61-.67-54.96-.43-19.59.28-39.23,1.25-58.01-4.45-17.33-5.27-35.48-8.39-46.72-24.4-4.38-6.21-8.12-18.54-8.16-26.43-.04-8.51,4.57-22.45,10.5-37.24,6.71-11.56,11.83-15.66,21.2-20.45,30.21-15.5,61.52-15.69,93.41-14.68,21.31.66,42.86-1.09,64.21-.51,20.69.55,41.18,2.85,61.83,4.06,5.07.31,10.27-.7,15.42-.82,11.71-.23,23.69-1.83,35.05-.08,13.46,2.07,26.15,7.93,37.08,16.79,14.01,11.32,19.52,27.99,18.07,48.36-.08,1.21-.08,2.42-.12,3.63-.9,3.32-1.76,6.6-2.61,9.88Z"/>
  </g>
  <g class="cls-10">
    <g class="cls-23">
      <g class="cls-17">
        <path class="cls-6" d="m230.67,901.67c.55,5.29-.32,10.54-2.65,15.95-3.34,7.77-6.88,12.75-11.83,16.65-5.74,4.52-13.54,7.57-24.52,9.6-7.51,1.39-16.69-1.26-24.57-7.09-8.46-6.24-14.21-15.04-16.17-24.76-1.35-6.69.06-13.08,4.18-18.96,4.09-5.84,9.97-9.83,14.19-12.15,4.99-2.75,10.44-4.71,14.95-5.39,7.67-1.17,14.46.41,19.6,4.51,5.49,4.38,8.76,11.43,9.44,20.41.65,8.59-.81,15.14-4.46,20.03-2.91,3.88-7.16,6.6-13.04,8.34-4.63,1.37-13.65.42-20.77-3.54-5.79-3.22-9.69-7.99-11.29-13.79-1.2-4.37-.74-8.41,1.38-12.01,1.84-3.13,4.9-5.83,9.08-8.02,2.93-1.51,5.99-2.65,9.19-3.43,6.23-1.51,11.72-.7,15.47,2.28,2.26,1.8,4.94,5.29,4.87,11.71-.06,5.54-2.33,9.4-6.78,11.49-3.51,1.64-7.76,1.84-11.16,2.01l-.68.03-.24-4.83.68-.04c3.14-.15,6.69-.32,9.33-1.55,3.5-1.65,3.97-4.69,4-7.17.04-3.58-.98-6.23-3.05-7.87-2.52-2-6.64-2.5-11.32-1.36-8.44,2.05-13.41,6.1-15.24,9.21-1.45,2.46-1.74,5.17-.89,8.26,1.26,4.59,4.28,8.23,8.98,10.85,4.02,2.23,12.18,4.56,17.05,3.13,4.91-1.45,8.26-3.55,10.54-6.6,2.93-3.91,4.07-9.4,3.52-16.78-.57-7.59-3.21-13.47-7.63-16.99-4.08-3.25-9.57-4.46-15.88-3.52-6.96,1.06-19.6,6.57-25.9,15.55-3.34,4.76-4.49,9.88-3.41,15.22,1.73,8.55,6.81,16.31,14.31,21.85,6.82,5.03,14.61,7.35,20.83,6.21,10.18-1.89,17.3-4.63,22.41-8.65,4.29-3.36,7.38-7.78,10.38-14.77,2.43-5.66,3.02-11.08,1.78-16.58-1.11-4.91-3.72-10.05-7.98-15.72l3.86-2.91c4.69,6.22,7.57,11.96,8.83,17.56.27,1.19.46,2.4.59,3.61Z"/>
      </g>
    </g>
  </g>
  <g class="cls-28">
    <g class="cls-13">
      <g class="cls-14">
        <path class="cls-6" d="m835.57,813.01c-3.66-3.86-6.15-8.56-7.6-14.27-2.08-8.2-2.3-14.31-.74-20.42,1.81-7.07,6.14-14.23,13.63-22.53,5.11-5.67,14.01-9.16,23.81-9.33,10.51-.19,20.42,3.3,27.9,9.82,5.15,4.49,7.91,10.42,8.21,17.59.3,7.13-1.94,13.87-3.87,18.28-2.29,5.22-5.42,10.09-8.59,13.38-5.38,5.58-11.72,8.47-18.3,8.34-7.03-.14-13.91-3.74-19.9-10.45-5.74-6.42-8.57-12.51-8.65-18.61-.05-4.85,1.67-9.6,5.28-14.55,2.84-3.9,10.58-8.63,18.64-9.82,6.55-.96,12.55.45,17.34,4.08,3.61,2.73,5.7,6.22,6.21,10.36.44,3.6-.34,7.6-2.33,11.89-1.41,2.98-3.14,5.75-5.21,8.31-4.03,4.99-8.88,7.69-13.67,7.61-2.89-.05-7.14-1.19-10.98-6.33-3.33-4.43-3.87-8.88-1.61-13.24,1.78-3.44,5.04-6.18,7.64-8.38l.52-.44,3.13,3.69-.52.44c-2.4,2.03-5.12,4.33-6.46,6.91-1.78,3.43-.3,6.15,1.18,8.13,2.16,2.87,4.58,4.35,7.21,4.4,3.21.06,6.79-2.06,9.81-5.81,5.46-6.76,6.94-12.99,6.49-16.58-.34-2.83-1.76-5.16-4.32-7.09-3.79-2.88-8.41-3.93-13.72-3.15-4.55.67-12.44,3.78-15.44,7.89-3.01,4.14-4.39,7.83-4.34,11.65.06,4.88,2.48,9.94,7.41,15.45,5.07,5.68,10.74,8.73,16.4,8.84,5.21.1,10.3-2.28,14.73-6.87,4.89-5.07,11.57-17.14,11.1-28.1-.25-5.81-2.45-10.57-6.56-14.16-6.57-5.73-15.32-8.8-24.65-8.63-8.47.16-16.07,3.05-20.31,7.73-6.94,7.69-10.92,14.2-12.52,20.49-1.35,5.28-1.13,10.67.74,18.04,1.52,5.97,4.35,10.63,8.67,14.23,3.88,3.22,9.07,5.72,15.9,7.63l-1.29,4.66c-7.51-2.08-13.29-4.89-17.7-8.56-.94-.79-1.82-1.62-2.67-2.51Z"/>
      </g>
    </g>
  </g>
  <g class="cls-24">
    <path class="cls-1" d="m-256.82,84.81c44.74-5.69,89.32-11.84,134.36-14.14-6.3-33.82-14.45-67.18-24.14-100.24,38.74,3.23,78.71,8.61,116.69,16.45,5.22-43.82,13.07-88.09,18.45-131.91C51.42-77.39,112.15-7.59,170.41,64.05c-43.05,1.23-87.94,2.61-130.98,3.84,7.99,35.67,17.07,71.95,25.06,107.77-39.51-4.61-78.71-11.84-117.46-21.21-2.3,42.89-3.99,89.63-6.3,132.52-63.65-67.49-130.37-138.06-197.55-202.17Z"/>
  </g>
  <g class="cls-20">
    <g class="cls-29">
      <g class="cls-8">
        <path class="cls-1" d="m1136.14-219.68c-9.5,44.09-18.51,88.18-31.3,131.43,33.99,5.29,68.17,8.69,102.56,10.54-15.92,35.47-34.27,71.39-54.29,104.59,39.59,19.49,78.74,41.59,118.29,61.22-84.69,36.83-170.7,70.92-257.63,102.07,13.14-41.01,26.75-83.81,39.89-124.82-36.3-4.31-73.53-7.81-109.97-12.17,17.47-35.73,37.32-70.31,59.03-103.73-39.69-16.43-83.21-33.55-122.9-49.97,84.8-37.61,173.53-77.09,256.31-119.16Z"/>
      </g>
    </g>
  </g>
  <g class="cls-18">
    <g class="cls-11">
      <g class="cls-26">
        <path class="cls-6" d="m306.89,492.72c-.1.05-.16.13-.18.24-.38.12-.77-.39-1.14.04-1.2.3-1.38,1.24-1.38,2.27,0,2.88.46,5.7,1.1,8.49,2.3,10.01,6.58,19.07,12.52,27.47,10.35,14.67,24.38,24.19,41.12,29.99,7.76,2.69,15.84,3.98,23.98,4.89,4.79.53,9.59.78,14.39,1.14.18-.06.35-.13.53-.19.19.1.43.16.54.32h0c.08.13-.09.24-.27.23-1.59,1.03-3.33,1.69-5.12,2.25-1.22.39-2.38.85-3.38,1.67-2.64.82-3.81,2.67-3.37,5.15,5.42.92,10.19-.97,14.89-3.3,1.74-.86,3.54-1.61,5.33-2.38,4.28-1.84,3.56-1.82,4.04-5.58.1-.84.02-1.7-.16-2.53-.06-.31-.15-.59-.44-.76.07-.96-.63-1.39-1.32-1.77-2.07-1.13-4.15-2.23-6.22-3.34-.29-.48-.77-.68-1.27-.84-.27-.5-.76-.68-1.23-.89-.13-.38-.52-.49-.79-.72-3.77-3.02-7.14-6.43-9.93-10.4-.21-.3-.44-.58-.66-.86-.27-.35-.56-.74-1.03-.58-.35.13-.56.6-.49.92.27,1.39-.36,2.71-.22,4.07.06.6.36,1.14.69,1.67,2.44,4.13,5.54,7.7,9.01,10.97.31.29.67.54.91.89.28.41-.02.67-.38.84-.39-.3-.78-.31-1.19-.06-.41-.2-.81-.37-1.25-.08-.07-.1-.15-.11-.23-.03-.38-.2-.77-.33-1.18-.09-.29-.08-.57-.2-.86-.23-3.26-.35-6.52-.64-9.77-1.03-2.95-.35-5.88-.79-8.82-1.19-.77-.2-1.52-.43-2.28-.6-7.45-1.69-14.58-4.25-21.31-7.88-2.41-1.29-4.77-2.66-7.15-3.99-.3-.52-.81-.69-1.33-.87-.28-.5-.76-.67-1.25-.85-.22-.49-.71-.63-1.15-.83-.12-.34-.39-.48-.71-.55-.05-.12-.14-.18-.28-.17-.14-.38-.51-.49-.78-.72-1.33-1.14-2.85-2.03-4.05-3.32-.2.04-.67-.15-.27.39.26.35.22.47.07.5-.13.03-.33-.01-.49-.03-4.08-3.71-7.67-7.87-10.98-12.27-.27-.43-.55-.87-.82-1.31-1.61-2.61-3.22-5.22-4.84-7.82.02-.13-.02-.23-.07-.32-.05-.06-.1-.11-.17-.15.02-.21-.06-.36-.24-.46.03-.21-.06-.36-.24-.46.04-.21-.05-.36-.23-.46.03-.21-.04-.37-.23-.46.04-.21-.04-.36-.22-.46h0c.05-.21-.03-.36-.21-.46h-.01c-.06-.17-.13-.32-.21-.47v-.02c.04-.2-.03-.36-.22-.46v-.02c.04-.2-.03-.36-.22-.46v-.02s-.01,0-.01,0h0c.05-.2-.02-.35-.21-.46h0c.05-.21-.02-.37-.21-.47h0c.05-.22-.02-.38-.21-.48-.55-1.49-1.1-2.98-1.65-4.48-.53-.69-.67-1.53-.93-2.33.07-.07.15-.12.23-.15.13-.05.26-.06.4-.02-.13-.63-.21-1.26-.61-1.78-.14-.15-.25-.31-.29-.52.09.17.19.34.29.52,0-.21-.03-.41-.23-.49.11-.3.04-.56-.16-.81.08-.19.05-.35-.14-.47.03-.21,0-.4-.18-.54.03-.1.02-.2-.05-.29-.02-.63-.16-1.22-.44-1.78-.04-.44-.06-.89-.32-1.27.08-.29-.04-.55-.15-.8-.13-1.74-.58-3.45-.38-5.31-.62.22-1.18-.22-1.61.29Zm87.26,69.52s0,0-.01,0c0,0,0,.01,0,.01,0,0,0-.01,0-.01,0,0,0,0,0-.01,0,0,0,.01,0,.02Zm-81.51-47.84s.02.08.03.12c0-.01-.01-.02-.02-.03-.02-.03-.03-.06-.04-.1,0,0,.02,0,.03,0Zm3.36,4.61s0,0-.01,0c-.01,0-.02.02-.04.02l-.05.02.09-.04h0s0,0,0,0Zm-3.56-4.65c.05,0,.1.02.15.03.02.03.03.06.04.09-.04-.06-.1-.11-.19-.12Zm.29.34l.05.11s0,0,0,.01c-.02-.04-.03-.08-.05-.12Zm-6.67-18.78s0,0-.01-.01h0v-.02s0,.02.01.03Zm.06.78s-.01.02,0,.03c0-.01,0-.02,0-.03Zm3.87,6.79s-.08,0-.12,0c.01-.03.02-.05.03-.07.03.03.06.05.09.07Zm-.2-1.36c-.03-.06-.03-.13-.01-.2-.01.07-.01.14.01.2Z"/>
      </g>
    </g>
  </g>
  <g class="cls-12">
    <g class="cls-9">
      <g class="cls-27">
        <path class="cls-3" d="m314.15,515.3c.07.16.15.31.21.46.04-.21-.03-.36-.21-.46Z"/>
      </g>
    </g>
  </g>
  <g class="cls-25">
    <g class="cls-22">
      <g class="cls-7">
        <path class="cls-6" d="m782.31,491.29c.1.04.17.12.19.23.38.11.76-.41,1.15,0,1.21.27,1.41,1.2,1.45,2.22.09,2.88-.28,5.71-.83,8.53-1.98,10.07-5.97,19.27-11.63,27.85-9.88,14.99-23.59,24.95-40.14,31.29-7.67,2.94-15.71,4.48-23.82,5.65-4.77.69-9.56,1.08-14.34,1.6-.18-.06-.35-.11-.54-.17-.18.1-.42.17-.53.33h0c-.08.13.1.24.28.22,1.61.98,3.39,1.58,5.18,2.09,1.23.35,2.41.78,3.43,1.56,2.66.73,3.89,2.54,3.53,5.03-5.39,1.1-10.22-.65-14.98-2.82-1.78-.81-3.59-1.49-5.41-2.2-4.34-1.71-3.61-1.7-4.21-5.45-.13-.84-.07-1.7.08-2.54.06-.31.14-.59.42-.77-.1-.96.58-1.41,1.27-1.81,2.03-1.2,4.07-2.36,6.11-3.54.27-.49.74-.7,1.23-.89.26-.51.74-.7,1.21-.92.12-.39.49-.52.77-.74,3.67-3.15,6.93-6.65,9.58-10.71.2-.31.43-.59.64-.89.25-.35.53-.76,1.01-.61.36.11.58.58.53.9-.22,1.39.44,2.69.35,4.06-.04.6-.33,1.15-.63,1.69-2.31,4.2-5.29,7.88-8.66,11.26-.3.3-.66.56-.89.92-.27.41.04.66.41.82.38-.31.77-.33,1.18-.1.4-.21.8-.39,1.24-.12.06-.1.15-.11.23-.03.38-.22.76-.36,1.18-.13.29-.09.56-.22.86-.26,3.24-.45,6.49-.85,9.72-1.34,2.94-.44,5.86-.98,8.78-1.47.76-.23,1.51-.48,2.27-.67,7.39-1.93,14.44-4.72,21.05-8.55,2.36-1.37,4.68-2.81,7.02-4.22.28-.53.79-.71,1.3-.91.26-.51.73-.7,1.22-.89.21-.5.69-.65,1.11-.87.11-.34.38-.49.7-.57.05-.13.14-.19.27-.19.13-.38.49-.51.76-.74,1.29-1.18,2.79-2.11,3.94-3.45.2.04.66-.17.28.38-.24.36-.2.48-.05.51.13.02.33-.02.49-.04,3.96-3.84,7.42-8.11,10.59-12.61.26-.44.52-.89.77-1.33,1.53-2.66,3.06-5.32,4.59-7.97-.02-.13,0-.23.06-.32.04-.06.09-.11.17-.16-.03-.21.05-.36.22-.47-.04-.2.04-.36.22-.46-.04-.21.04-.36.22-.47-.04-.21.03-.37.21-.47-.05-.21.03-.37.21-.47h0c-.05-.21.02-.37.2-.47h0c.06-.17.12-.32.2-.47v-.02c-.04-.21.02-.36.2-.47v-.02c-.04-.2.02-.35.2-.46v-.02s.01,0,.01,0h0c-.06-.2,0-.35.19-.46h0c-.06-.21.01-.37.19-.48h0c-.06-.21.01-.38.19-.48.5-1.51,1-3.02,1.51-4.53.51-.7.63-1.55.85-2.35-.07-.07-.15-.11-.23-.14-.13-.05-.26-.05-.4,0,.11-.63.17-1.26.55-1.8.13-.15.24-.32.27-.52-.09.17-.18.35-.27.52,0-.21.01-.4.22-.49-.12-.3-.05-.56.13-.82-.08-.19-.06-.35.12-.48-.03-.21-.02-.4.16-.54-.03-.1-.03-.19.04-.29,0-.63.12-1.22.39-1.79.02-.44.03-.89.28-1.29-.09-.29.03-.54.12-.8.07-1.75.47-3.47.21-5.32.63.2,1.17-.26,1.61.24Zm-84.99,72.28s0,0,.01,0c0,0,0,0,0,0,0,0,0-.01,0-.01h0s0,0,0-.01c0,.01,0,.02,0,.02Zm79.94-50.43s-.02.08-.03.13l.02-.03s.03-.06.04-.1c0,0-.02,0-.03,0Zm-3.22,4.72s.01,0,.01,0c.02,0,.03.01.04.02h.05s-.09-.02-.09-.02c0,0,0,0,0-.01,0,0,0,0-.01.01Zm3.41-4.76c-.05.01-.1.02-.15.03-.02.03-.03.06-.04.09.04-.06.1-.11.19-.13Zm-.27.34s-.03.08-.04.11c0,0,0,0,0,.01.01-.04.03-.08.04-.13Zm6.07-18.98s0-.01.01-.01h0s0-.02,0-.02c0,.01,0,.02,0,.03Zm-.04.78s.01.02,0,.03c0,0,0-.02,0-.03Zm-3.65,6.91s.07-.01.12,0c-.01-.02-.02-.05-.03-.07-.03.03-.06.05-.09.07Zm.15-1.37c.03-.06.03-.13,0-.2.01.07.01.14,0,.2Z"/>
      </g>
    </g>
  </g>
  <g class="cls-15">
    <g class="cls-19">
      <g class="cls-30">
        <path class="cls-3" d="m775.77,514.09c-.07.16-.14.31-.2.46-.05-.21.02-.36.2-.46Z"/>
      </g>
    </g>
  </g>
  <path class="cls-5" d="m230.62,150.44v32.17h-17.98v-65.46h14.02l26.27,33.29v-33.29h17.98v65.46h-14.29l-26-32.17Z"/>
  <path class="cls-5" d="m282.14,182.61v-65.46h17.98v65.46h-17.98Z"/>
  <path class="cls-5" d="m358,166.94v15.67h-46.65v-65.46h45.81v15.67h-27.83v9.23h23.77v14.56h-23.77v10.33h28.67Z"/>
  <path class="cls-5" d="m436.62,182.61v-34.48l-10.96,24.25h-9.6l-10.96-24.25v34.48h-17.98v-65.46h19.63l14.1,30.79,14.21-30.79h19.54v65.46h-17.98Z"/>
  <path class="cls-5" d="m494.32,167.21c2.09,0,3.88-.46,5.35-1.38,1.47-.93,2.67-2.15,3.58-3.65.93-1.51,1.61-3.25,2.04-5.21.43-1.97.65-4.03.65-6.19v-33.65h17.98v33.65c0,4.56-.58,8.82-1.75,12.79-1.17,3.96-2.98,7.39-5.44,10.27-2.46,2.89-5.55,5.17-9.27,6.83-3.72,1.66-8.1,2.48-13.15,2.48s-9.7-.88-13.42-2.63c-3.71-1.76-6.77-4.11-9.17-7.06-2.39-2.94-4.14-6.36-5.25-10.27-1.11-3.9-1.67-8.04-1.67-12.42v-33.65h17.98v33.65c0,2.16.21,4.23.65,6.23.43,2,1.1,3.76,2.02,5.27.93,1.5,2.11,2.7,3.56,3.58,1.44.89,3.21,1.33,5.29,1.33Z"/>
  <path class="cls-5" d="m573.78,138.55c-1.85-1.11-3.76-2.09-5.73-2.96-1.66-.73-3.52-1.42-5.58-2.06-2.06-.65-4.06-.98-6.02-.98-1.6,0-2.88.25-3.83.75-.95.49-1.42,1.31-1.42,2.48,0,.86.27,1.57.81,2.13.55.56,1.35,1.06,2.4,1.52,1.05.46,2.33.91,3.83,1.33,1.5.43,3.21.95,5.13,1.56,3,.93,5.71,1.95,8.15,3.06,2.43,1.1,4.51,2.41,6.23,3.92,1.72,1.5,3.04,3.33,3.96,5.48.93,2.16,1.4,4.77,1.4,7.83,0,3.93-.72,7.24-2.17,9.92-1.45,2.67-3.35,4.8-5.73,6.4-2.36,1.6-5.04,2.75-8.02,3.46-2.97.71-5.97,1.06-8.98,1.06-2.41,0-4.87-.19-7.4-.56-2.52-.36-5.02-.88-7.5-1.56-2.49-.68-4.89-1.48-7.19-2.4-2.31-.92-4.44-1.96-6.4-3.13l7.73-15.77c2.15,1.35,4.4,2.54,6.73,3.58,1.97.93,4.2,1.77,6.69,2.5,2.48.74,5.02,1.1,7.6,1.1,1.97,0,3.34-.26,4.1-.77.76-.53,1.15-1.22,1.15-2.08,0-.93-.39-1.71-1.15-2.35-.77-.64-1.83-1.2-3.19-1.69-1.35-.5-2.9-.99-4.65-1.48-1.75-.5-3.61-1.09-5.58-1.77-2.89-.98-5.39-2.04-7.48-3.17-2.08-1.14-3.8-2.43-5.15-3.88-1.35-1.44-2.35-3.09-3-4.94-.64-1.84-.96-3.96-.96-6.35,0-3.63.66-6.82,1.98-9.58,1.32-2.78,3.11-5.08,5.38-6.92,2.28-1.84,4.88-3.24,7.79-4.19,2.93-.96,6.02-1.44,9.27-1.44,2.4,0,4.73.23,7,.69,2.28.46,4.48,1.04,6.6,1.75s4.1,1.48,5.94,2.31c1.84.82,3.51,1.6,4.98,2.33l-7.73,14.85Z"/>
  <path class="cls-5" d="m591.01,182.61v-65.46h17.98v65.46h-17.98Z"/>
  <path class="cls-5" d="m659.87,138.55c-1.85-1.11-3.76-2.09-5.73-2.96-1.66-.73-3.52-1.42-5.58-2.06-2.06-.65-4.06-.98-6.02-.98-1.6,0-2.88.25-3.83.75-.95.49-1.42,1.31-1.42,2.48,0,.86.27,1.57.81,2.13.55.56,1.35,1.06,2.4,1.52,1.05.46,2.33.91,3.83,1.33,1.5.43,3.21.95,5.13,1.56,3,.93,5.71,1.95,8.15,3.06,2.43,1.1,4.51,2.41,6.23,3.92,1.72,1.5,3.04,3.33,3.96,5.48.93,2.16,1.4,4.77,1.4,7.83,0,3.93-.72,7.24-2.17,9.92-1.45,2.67-3.35,4.8-5.73,6.4-2.36,1.6-5.04,2.75-8.02,3.46-2.97.71-5.97,1.06-8.98,1.06-2.41,0-4.87-.19-7.4-.56-2.52-.36-5.02-.88-7.5-1.56-2.49-.68-4.89-1.48-7.19-2.4-2.31-.92-4.44-1.96-6.4-3.13l7.73-15.77c2.15,1.35,4.4,2.54,6.73,3.58,1.97.93,4.2,1.77,6.69,2.5,2.48.74,5.02,1.1,7.6,1.1,1.97,0,3.34-.26,4.1-.77.76-.53,1.15-1.22,1.15-2.08,0-.93-.39-1.71-1.15-2.35-.77-.64-1.83-1.2-3.19-1.69-1.35-.5-2.9-.99-4.65-1.48-1.75-.5-3.61-1.09-5.58-1.77-2.89-.98-5.39-2.04-7.48-3.17-2.08-1.14-3.8-2.43-5.15-3.88-1.35-1.44-2.35-3.09-3-4.94-.64-1.84-.96-3.96-.96-6.35,0-3.63.66-6.82,1.98-9.58,1.32-2.78,3.11-5.08,5.38-6.92,2.28-1.84,4.88-3.24,7.79-4.19,2.93-.96,6.02-1.44,9.27-1.44,2.4,0,4.73.23,7,.69,2.28.46,4.48,1.04,6.6,1.75s4.1,1.48,5.94,2.31c1.84.82,3.51,1.6,4.98,2.33l-7.73,14.85Z"/>
  <path class="cls-5" d="m673.95,169.23l30.63-36.42h-29.23v-15.67h49.96v13.38l-28.75,36.42h29.31v15.67h-51.92v-13.38Z"/>
  <path class="cls-5" d="m794.81,138.55c-1.85-1.11-3.76-2.09-5.73-2.96-1.66-.73-3.52-1.42-5.58-2.06-2.06-.65-4.06-.98-6.02-.98-1.6,0-2.88.25-3.83.75-.95.49-1.42,1.31-1.42,2.48,0,.86.27,1.57.81,2.13.55.56,1.35,1.06,2.4,1.52,1.05.46,2.33.91,3.83,1.33,1.5.43,3.21.95,5.13,1.56,3,.93,5.71,1.95,8.15,3.06,2.43,1.1,4.51,2.41,6.23,3.92,1.72,1.5,3.04,3.33,3.96,5.48.93,2.16,1.4,4.77,1.4,7.83,0,3.93-.72,7.24-2.17,9.92-1.45,2.67-3.35,4.8-5.73,6.4-2.36,1.6-5.04,2.75-8.02,3.46-2.97.71-5.97,1.06-8.98,1.06-2.41,0-4.87-.19-7.4-.56-2.52-.36-5.02-.88-7.5-1.56-2.49-.68-4.89-1.48-7.19-2.4-2.31-.92-4.44-1.96-6.4-3.13l7.73-15.77c2.15,1.35,4.4,2.54,6.73,3.58,1.97.93,4.2,1.77,6.69,2.5,2.48.74,5.02,1.1,7.6,1.1,1.97,0,3.34-.26,4.1-.77.76-.53,1.15-1.22,1.15-2.08,0-.93-.39-1.71-1.15-2.35-.77-.64-1.83-1.2-3.19-1.69-1.35-.5-2.9-.99-4.65-1.48-1.75-.5-3.61-1.09-5.58-1.77-2.89-.98-5.39-2.04-7.48-3.17-2.08-1.14-3.8-2.43-5.15-3.88-1.35-1.44-2.35-3.09-3-4.94-.64-1.84-.96-3.96-.96-6.35,0-3.63.66-6.82,1.98-9.58,1.32-2.78,3.11-5.08,5.38-6.92,2.28-1.84,4.88-3.24,7.79-4.19,2.93-.96,6.02-1.44,9.27-1.44,2.4,0,4.73.23,7,.69,2.28.46,4.48,1.04,6.6,1.75s4.1,1.48,5.94,2.31c1.84.82,3.51,1.6,4.98,2.33l-7.73,14.85Z"/>
  <path class="cls-5" d="m812.03,182.61v-65.46h17.98v65.46h-17.98Z"/>
  <path class="cls-5" d="m864.21,202.34c-4.13-.56-7.19-1.7-9.19-3.42-1.99-1.72-2.98-3.66-2.98-5.81,0-1.78.65-3.58,1.94-5.4,1.29-1.81,3.22-3.51,5.79-5.1h-18.52v-65.46h45.81v15.67h-27.83v9.23h23.77v14.56h-23.77v10.33h28.67v15.67h-19.54c-2.41,1.34-4.24,2.71-5.5,4.08-1.25,1.39-1.88,2.7-1.88,3.94,0,1.04.52,1.86,1.56,2.48,1.04.63,2.67.94,4.9.94l-3.23,8.29Z"/>
  <path class="cls-5" d="m187.93,270.23l30.63-36.42h-29.23v-15.67h49.96v13.38l-28.75,36.42h29.31v15.67h-51.92v-13.38Z"/>
  <path class="cls-5" d="m242.05,283.61l24.42-65.46h14.56l24.35,65.46h-19l-3.96-12.81h-17.44l-3.85,12.81h-19.08Zm31.71-46.73l-6.08,21.94h11.9l-5.81-21.94Z"/>
  <path class="cls-5" d="m349.9,239.55c-1.85-1.11-3.76-2.09-5.73-2.96-1.66-.73-3.52-1.42-5.58-2.06-2.06-.65-4.06-.98-6.02-.98-1.6,0-2.88.25-3.83.75-.95.49-1.42,1.31-1.42,2.48,0,.86.27,1.57.81,2.13.55.56,1.35,1.06,2.4,1.52,1.05.46,2.33.91,3.83,1.33,1.5.43,3.21.95,5.13,1.56,3,.93,5.71,1.95,8.15,3.06,2.43,1.1,4.51,2.41,6.23,3.92,1.72,1.5,3.04,3.33,3.96,5.48.93,2.16,1.4,4.77,1.4,7.83,0,3.93-.72,7.24-2.17,9.92-1.45,2.67-3.35,4.8-5.73,6.4-2.36,1.6-5.04,2.75-8.02,3.46-2.97.71-5.97,1.06-8.98,1.06-2.41,0-4.87-.19-7.4-.56-2.52-.36-5.02-.88-7.5-1.56-2.49-.68-4.89-1.48-7.19-2.4-2.31-.92-4.44-1.96-6.4-3.13l7.73-15.77c2.15,1.35,4.4,2.54,6.73,3.58,1.97.93,4.2,1.77,6.69,2.5,2.48.74,5.02,1.1,7.6,1.1,1.97,0,3.34-.26,4.1-.77.76-.53,1.15-1.22,1.15-2.08,0-.93-.39-1.71-1.15-2.35-.77-.64-1.83-1.2-3.19-1.69-1.35-.5-2.9-.99-4.65-1.48-1.75-.5-3.61-1.09-5.58-1.77-2.89-.98-5.39-2.04-7.48-3.17-2.08-1.14-3.8-2.43-5.15-3.88-1.35-1.44-2.35-3.09-3-4.94-.64-1.84-.96-3.96-.96-6.35,0-3.63.66-6.82,1.98-9.58,1.32-2.78,3.11-5.08,5.38-6.92,2.28-1.84,4.88-3.24,7.79-4.19,2.93-.96,6.02-1.44,9.27-1.44,2.4,0,4.73.23,7,.69,2.28.46,4.48,1.04,6.6,1.75s4.1,1.48,5.94,2.31c1.84.82,3.51,1.6,4.98,2.33l-7.73,14.85Z"/>
  <path class="cls-5" d="m418.1,233.82h-18.81v49.79h-17.98v-49.79h-18.9v-15.67h55.69v15.67Z"/>
  <path class="cls-5" d="m418.29,283.61l24.42-65.46h14.56l24.35,65.46h-19l-3.96-12.81h-17.44l-3.85,12.81h-19.08Zm31.71-46.73l-6.08,21.94h11.9l-5.81-21.94Z"/>
  <path class="cls-5" d="m504.47,251.44v32.17h-17.98v-65.46h14.02l26.27,33.29v-33.29h17.98v65.46h-14.29l-26-32.17Z"/>
  <path class="cls-5" d="m549.63,283.61l24.42-65.46h14.56l24.35,65.46h-19l-3.96-12.81h-17.44l-3.85,12.81h-19.08Zm31.71-46.73l-6.08,21.94h11.9l-5.81-21.94Z"/>
  <path class="cls-5" d="m638.75,218.15h16.5l5.73,20.19,5.81-20.19h16.5l-10.79,31.25,4.71,13.65,14.1-44.9h19.54l-25.63,65.46h-14.94l-9.31-23.42-9.23,23.42h-14.94l-25.63-65.46h19.46l14.19,44.9,4.52-13.65-10.6-31.25Z"/>
  <path class="cls-5" d="m715.44,283.61v-65.46h17.98v65.46h-17.98Z"/>
  <path class="cls-5" d="m738.31,283.61l24.42-65.46h14.56l24.35,65.46h-19l-3.96-12.81h-17.44l-3.85,12.81h-19.08Zm31.71-46.73l-6.08,21.94h11.9l-5.81-21.94Z"/>
  <path class="cls-5" d="m802.9,250.34c0-4,.71-7.94,2.13-11.81s3.49-7.34,6.23-10.42c2.73-3.07,6.05-5.55,9.96-7.46,3.9-1.9,8.34-2.85,13.31-2.85,5.84,0,10.95,1.31,15.31,3.92,4.36,2.61,7.58,6.06,9.67,10.35l-13.73,9.77c-.56-1.59-1.28-2.92-2.17-3.96-.89-1.04-1.86-1.86-2.92-2.48-1.04-.63-2.15-1.05-3.31-1.29-1.17-.25-2.24-.38-3.23-.38-2.27,0-4.22.51-5.85,1.52-1.63,1.02-2.98,2.34-4.06,3.98-1.07,1.63-1.85,3.47-2.33,5.52-.49,2.06-.73,4.1-.73,6.13,0,2.28.29,4.47.88,6.56.58,2.08,1.44,3.93,2.56,5.52,1.14,1.6,2.52,2.88,4.15,3.83,1.64.95,3.5,1.42,5.58,1.42,1.05,0,2.13-.14,3.23-.42,1.11-.28,2.17-.73,3.19-1.38,1.01-.65,1.93-1.48,2.75-2.5.83-1.01,1.5-2.26,2-3.73l14.65,8.75c-.92,2.41-2.31,4.56-4.19,6.46-1.88,1.91-4.02,3.5-6.42,4.79-2.39,1.29-4.94,2.28-7.65,2.96-2.71.68-5.35,1.02-7.92,1.02-4.56,0-8.74-.96-12.56-2.9-3.81-1.94-7.08-4.51-9.81-7.71-2.72-3.19-4.85-6.82-6.4-10.88-1.54-4.07-2.31-8.19-2.31-12.35Zm36.98-34.96l-11.06-2.94,4.6-13.08h15.58l-9.13,16.02Z"/>
  <path class="cls-5" d="m888.35,255.94v-38.44h17.52v38.44h-17.52Zm0,27.67v-16.96h17.52v16.96h-17.52Z"/>
  <path class="cls-6" d="m30.43,417.57v-30.29h11.65c2.5,0,4.7.41,6.6,1.21,1.92.79,3.51,1.87,4.79,3.23,1.28,1.36,2.24,2.96,2.9,4.79.65,1.83.98,3.79.98,5.88,0,2.31-.36,4.39-1.08,6.25-.72,1.86-1.76,3.46-3.1,4.79-1.33,1.32-2.94,2.34-4.81,3.06-1.88.72-3.97,1.08-6.27,1.08h-11.65Zm18.48-15.19c0-1.17-.16-2.23-.48-3.19-.31-.97-.75-1.8-1.33-2.48-.58-.69-1.31-1.23-2.17-1.6-.85-.39-1.8-.58-2.85-.58h-3.33v15.79h3.33c1.08,0,2.05-.2,2.9-.6.86-.4,1.58-.96,2.17-1.67s1.02-1.54,1.31-2.5c.3-.97.46-2.03.46-3.17Z"/>
  <path class="cls-6" d="m61.02,417.57v-30.29h13.92c1.47,0,2.83.31,4.08.92,1.25.61,2.32,1.41,3.21,2.4.9.97,1.61,2.1,2.13,3.38.51,1.27.77,2.54.77,3.81,0,1.77-.39,3.41-1.17,4.94-.77,1.52-1.83,2.75-3.19,3.71l6.83,11.15h-9.4l-5.75-9.29h-3.13v9.29h-8.31Zm8.31-16.56h5.25c.51,0,.99-.28,1.44-.85.44-.57.67-1.36.67-2.38s-.26-1.86-.77-2.42c-.52-.55-1.03-.83-1.54-.83h-5.04v6.48Z"/>
  <path class="cls-6" d="m87.34,417.57l11.29-30.29h6.75l11.27,30.29h-8.79l-1.83-5.94h-8.06l-1.79,5.94h-8.83Zm14.67-21.63l-2.81,10.15h5.5l-2.69-10.15Z"/>
  <path class="cls-6" d="m137.76,415.09c-1.91,1.79-4.1,2.69-6.6,2.69-1.88,0-3.66-.42-5.33-1.25-1.68-.84-3.16-1.98-4.42-3.4-1.27-1.42-2.27-3.07-3.02-4.96-.74-1.9-1.1-3.9-1.1-6s.38-4.13,1.13-5.96c.76-1.83,1.8-3.42,3.13-4.77,1.32-1.36,2.88-2.43,4.67-3.21,1.79-.78,3.71-1.17,5.77-1.17,1.28,0,2.5.16,3.67.46,1.17.29,2.24.73,3.23,1.31,1,.58,1.89,1.28,2.67,2.08.79.81,1.44,1.72,1.96,2.75l-6.19,4.73c-.52-1.19-1.29-2.15-2.33-2.88-1.04-.72-2.15-1.08-3.31-1.08-.85,0-1.64.2-2.38.6-.72.39-1.35.95-1.88,1.67-.52.71-.93,1.56-1.23,2.54-.29.97-.44,2.04-.44,3.21s.15,2.28.44,3.25c.3.96.72,1.79,1.25,2.5.54.7,1.19,1.24,1.94,1.63.76.38,1.6.56,2.52.56,1.01,0,1.99-.26,2.94-.77.96-.51,1.85-1.25,2.69-2.21h-5.33v-5.98h12.46v16.13h-6.88v-2.48Z"/>
  <path class="cls-6" d="m161.55,417.82c-2.16,0-4.12-.44-5.9-1.31-1.78-.89-3.31-2.05-4.58-3.48-1.27-1.44-2.24-3.09-2.94-4.94-.7-1.84-1.04-3.75-1.04-5.71s.36-3.9,1.08-5.75c.73-1.86,1.76-3.49,3.06-4.9,1.3-1.4,2.84-2.52,4.63-3.35,1.78-.84,3.73-1.27,5.88-1.27s4.11.45,5.9,1.33c1.78.88,3.3,2.04,4.56,3.5,1.26,1.45,2.23,3.09,2.92,4.94.69,1.85,1.04,3.74,1.04,5.67s-.37,3.91-1.1,5.75c-.72,1.83-1.72,3.45-3,4.85-1.28,1.41-2.81,2.54-4.6,3.4-1.79.85-3.76,1.27-5.9,1.27Zm-6-15.35c0,1.03.11,2.02.35,2.98.23.95.61,1.79,1.13,2.52.51.74,1.15,1.33,1.92,1.79.78.46,1.67.69,2.69.69s1.96-.23,2.73-.71c.78-.47,1.4-1.08,1.88-1.83.48-.75.84-1.6,1.08-2.56.25-.97.38-1.96.38-2.96s-.14-2.01-.4-2.96c-.25-.96-.63-1.8-1.13-2.52-.49-.72-1.12-1.3-1.9-1.75-.77-.44-1.66-.67-2.69-.67s-1.95.23-2.71.69c-.75.46-1.38,1.06-1.88,1.81s-.87,1.6-1.1,2.56c-.24.95-.35,1.92-.35,2.92Z"/>
  <path class="cls-6" d="m188.04,402.67v14.9h-8.31v-30.29h6.48l12.17,15.4v-15.4h8.31v30.29h-6.6l-12.04-14.9Z"/>
  <path class="cls-6" d="m239.85,397.17c-.86-.51-1.74-.96-2.65-1.35-.78-.34-1.65-.67-2.6-.96-.95-.3-1.87-.46-2.77-.46-.75,0-1.35.12-1.79.35-.43.22-.65.6-.65,1.15,0,.39.13.72.38.98.26.25.63.49,1.1.71.48.21,1.07.42,1.77.63.71.2,1.5.43,2.38.71,1.39.43,2.65.91,3.77,1.42,1.13.5,2.08,1.1,2.88,1.81.8.7,1.42,1.54,1.83,2.54.43.99.65,2.2.65,3.63,0,1.82-.33,3.35-1,4.58-.67,1.24-1.55,2.22-2.65,2.96-1.1.74-2.33,1.27-3.71,1.6-1.38.32-2.77.48-4.17.48-1.1,0-2.23-.08-3.4-.25s-2.33-.4-3.48-.71c-1.16-.32-2.27-.69-3.33-1.13-1.07-.43-2.06-.92-2.96-1.46l3.58-7.29c.98.63,2.02,1.18,3.1,1.67.92.43,1.95.82,3.1,1.17,1.15.33,2.32.5,3.52.5.9,0,1.53-.11,1.88-.35.36-.25.54-.57.54-.98s-.18-.77-.54-1.06c-.35-.3-.83-.57-1.46-.79-.63-.23-1.35-.46-2.17-.69-.81-.23-1.66-.51-2.56-.81-1.35-.46-2.51-.95-3.48-1.48-.96-.53-1.75-1.13-2.38-1.79s-1.09-1.42-1.4-2.27c-.29-.86-.44-1.84-.44-2.96,0-1.68.3-3.16.92-4.44.61-1.28,1.44-2.34,2.5-3.19,1.05-.86,2.26-1.51,3.6-1.94,1.34-.44,2.78-.67,4.29-.67,1.11,0,2.19.1,3.23.31,1.05.21,2.07.48,3.06.81.98.32,1.9.68,2.75,1.06.84.39,1.61.75,2.31,1.08l-3.58,6.88Z"/>
  <path class="cls-6" d="m246.14,402.17c0-1.84.32-3.67.98-5.46.65-1.79,1.61-3.4,2.88-4.81,1.28-1.43,2.82-2.58,4.63-3.46,1.8-.89,3.86-1.33,6.17-1.33,2.69,0,5.05.6,7.06,1.81,2.03,1.21,3.53,2.81,4.5,4.79l-6.38,4.52c-.25-.73-.58-1.34-1-1.83-.41-.48-.85-.86-1.33-1.15-.49-.29-1-.49-1.54-.6-.54-.11-1.04-.17-1.5-.17-1.04,0-1.95.24-2.71.71-.75.47-1.38,1.08-1.88,1.83s-.86,1.6-1.08,2.56c-.22.95-.33,1.89-.33,2.83,0,1.06.13,2.07.4,3.04.26.96.66,1.81,1.19,2.54.53.74,1.17,1.33,1.92,1.77.76.45,1.63.67,2.58.67.48,0,.98-.06,1.5-.19.51-.13,1.01-.33,1.48-.63.47-.3.9-.69,1.27-1.17.39-.47.69-1.05.92-1.73l6.79,4.04c-.43,1.11-1.08,2.11-1.96,3-.86.88-1.85,1.61-2.96,2.21-1.11.6-2.29,1.06-3.54,1.38-1.25.3-2.47.46-3.67.46-2.1,0-4.03-.44-5.79-1.33-1.77-.9-3.29-2.09-4.56-3.56-1.27-1.48-2.25-3.17-2.96-5.04s-1.06-3.78-1.06-5.71Z"/>
  <path class="cls-6" d="m272.81,417.57l11.29-30.29h6.75l11.27,30.29h-8.79l-1.83-5.94h-8.06l-1.79,5.94h-8.83Zm14.67-21.63l-2.81,10.15h5.5l-2.69-10.15Z"/>
  <path class="cls-6" d="m304.37,417.57v-30.29h13.06c1.47,0,2.83.31,4.08.92,1.25.61,2.32,1.41,3.21,2.4.9.97,1.61,2.1,2.13,3.38.51,1.27.77,2.54.77,3.81s-.24,2.64-.73,3.9c-.49,1.27-1.16,2.39-2.02,3.38-.86.99-1.92,1.77-3.17,2.35-1.24.58-2.59.88-4.06.88h-4.96v9.29h-8.31Zm8.31-16.56h4.4c.51,0,.99-.23,1.44-.69.44-.47.67-1.32.67-2.54s-.26-2.1-.77-2.56c-.52-.46-1.03-.69-1.54-.69h-4.19v6.48Z"/>
  <path class="cls-6" d="m352.4,410.32v7.25h-21.58v-30.29h21.21v7.25h-12.9v4.27h11.02v6.73h-11.02v4.79h13.27Z"/>
  <path class="cls-6" d="m725,417.57v-30.29h11.65c2.5,0,4.7.41,6.6,1.21,1.92.79,3.51,1.87,4.79,3.23,1.28,1.36,2.24,2.96,2.9,4.79.65,1.83.98,3.79.98,5.88,0,2.31-.36,4.39-1.08,6.25-.72,1.86-1.76,3.46-3.1,4.79-1.33,1.32-2.94,2.34-4.81,3.06-1.88.72-3.97,1.08-6.27,1.08h-11.65Zm18.48-15.19c0-1.17-.16-2.23-.48-3.19-.31-.97-.75-1.8-1.33-2.48-.58-.69-1.31-1.23-2.17-1.6-.85-.39-1.8-.58-2.85-.58h-3.33v15.79h3.33c1.08,0,2.05-.2,2.9-.6.86-.4,1.58-.96,2.17-1.67s1.02-1.54,1.31-2.5c.3-.97.46-2.03.46-3.17Z"/>
  <path class="cls-6" d="m755.59,417.57v-30.29h13.92c1.47,0,2.83.31,4.08.92,1.25.61,2.32,1.41,3.21,2.4.9.97,1.61,2.1,2.13,3.38.51,1.27.77,2.54.77,3.81,0,1.77-.39,3.41-1.17,4.94-.77,1.52-1.83,2.75-3.19,3.71l6.83,11.15h-9.4l-5.75-9.29h-3.13v9.29h-8.31Zm8.31-16.56h5.25c.51,0,.99-.28,1.44-.85.44-.57.67-1.36.67-2.38s-.26-1.86-.77-2.42c-.52-.55-1.03-.83-1.54-.83h-5.04v6.48Z"/>
  <path class="cls-6" d="m781.91,417.57l11.29-30.29h6.75l11.27,30.29h-8.79l-1.83-5.94h-8.06l-1.79,5.94h-8.83Zm14.67-21.63l-2.81,10.15h5.5l-2.69-10.15Z"/>
  <path class="cls-6" d="m832.33,415.09c-1.91,1.79-4.1,2.69-6.6,2.69-1.88,0-3.66-.42-5.33-1.25-1.68-.84-3.16-1.98-4.42-3.4-1.27-1.42-2.27-3.07-3.02-4.96-.74-1.9-1.1-3.9-1.1-6s.38-4.13,1.13-5.96c.76-1.83,1.8-3.42,3.13-4.77,1.32-1.36,2.88-2.43,4.67-3.21,1.79-.78,3.71-1.17,5.77-1.17,1.28,0,2.5.16,3.67.46,1.17.29,2.24.73,3.23,1.31,1,.58,1.89,1.28,2.67,2.08.79.81,1.44,1.72,1.96,2.75l-6.19,4.73c-.52-1.19-1.29-2.15-2.33-2.88-1.04-.72-2.15-1.08-3.31-1.08-.85,0-1.64.2-2.38.6-.72.39-1.35.95-1.88,1.67-.52.71-.93,1.56-1.23,2.54-.29.97-.44,2.04-.44,3.21s.15,2.28.44,3.25c.3.96.72,1.79,1.25,2.5.54.7,1.19,1.24,1.94,1.63.76.38,1.6.56,2.52.56,1.01,0,1.99-.26,2.94-.77.96-.51,1.85-1.25,2.69-2.21h-5.33v-5.98h12.46v16.13h-6.88v-2.48Z"/>
  <path class="cls-6" d="m856.12,417.82c-2.16,0-4.12-.44-5.9-1.31-1.78-.89-3.31-2.05-4.58-3.48-1.27-1.44-2.24-3.09-2.94-4.94-.7-1.84-1.04-3.75-1.04-5.71s.36-3.9,1.08-5.75c.73-1.86,1.76-3.49,3.06-4.9,1.3-1.4,2.84-2.52,4.63-3.35,1.78-.84,3.73-1.27,5.88-1.27s4.11.45,5.9,1.33c1.78.88,3.3,2.04,4.56,3.5,1.26,1.45,2.23,3.09,2.92,4.94.69,1.85,1.04,3.74,1.04,5.67s-.37,3.91-1.1,5.75c-.72,1.83-1.72,3.45-3,4.85-1.28,1.41-2.81,2.54-4.6,3.4-1.79.85-3.76,1.27-5.9,1.27Zm-6-15.35c0,1.03.11,2.02.35,2.98.23.95.61,1.79,1.13,2.52.51.74,1.15,1.33,1.92,1.79.78.46,1.67.69,2.69.69s1.96-.23,2.73-.71c.78-.47,1.4-1.08,1.88-1.83.48-.75.84-1.6,1.08-2.56.25-.97.38-1.96.38-2.96s-.14-2.01-.4-2.96c-.25-.96-.63-1.8-1.13-2.52-.49-.72-1.12-1.3-1.9-1.75-.77-.44-1.66-.67-2.69-.67s-1.95.23-2.71.69c-.75.46-1.38,1.06-1.88,1.81s-.87,1.6-1.1,2.56c-.24.95-.35,1.92-.35,2.92Z"/>
  <path class="cls-6" d="m882.61,402.67v14.9h-8.31v-30.29h6.48l12.17,15.4v-15.4h8.31v30.29h-6.6l-12.04-14.9Z"/>
  <path class="cls-6" d="m924.82,397.17c-.86-.51-1.74-.96-2.65-1.35-.78-.34-1.65-.67-2.6-.96-.95-.3-1.87-.46-2.77-.46-.75,0-1.35.12-1.79.35-.43.22-.65.6-.65,1.15,0,.39.13.72.38.98.26.25.63.49,1.1.71.48.21,1.07.42,1.77.63.71.2,1.5.43,2.38.71,1.39.43,2.65.91,3.77,1.42,1.13.5,2.08,1.1,2.88,1.81.8.7,1.42,1.54,1.83,2.54.43.99.65,2.2.65,3.63,0,1.82-.33,3.35-1,4.58-.67,1.24-1.55,2.22-2.65,2.96-1.1.74-2.33,1.27-3.71,1.6-1.38.32-2.77.48-4.17.48-1.1,0-2.23-.08-3.4-.25s-2.33-.4-3.48-.71c-1.16-.32-2.27-.69-3.33-1.13-1.07-.43-2.06-.92-2.96-1.46l3.58-7.29c.98.63,2.02,1.18,3.1,1.67.92.43,1.95.82,3.1,1.17,1.15.33,2.32.5,3.52.5.9,0,1.53-.11,1.88-.35.36-.25.54-.57.54-.98s-.18-.77-.54-1.06c-.35-.3-.83-.57-1.46-.79-.63-.23-1.35-.46-2.17-.69-.81-.23-1.66-.51-2.56-.81-1.35-.46-2.51-.95-3.48-1.48-.96-.53-1.75-1.13-2.38-1.79s-1.09-1.42-1.4-2.27c-.29-.86-.44-1.84-.44-2.96,0-1.68.3-3.16.92-4.44.61-1.28,1.44-2.34,2.5-3.19,1.05-.86,2.26-1.51,3.6-1.94,1.34-.44,2.78-.67,4.29-.67,1.11,0,2.19.1,3.23.31,1.05.21,2.07.48,3.06.81.98.32,1.9.68,2.75,1.06.84.39,1.61.75,2.31,1.08l-3.58,6.88Z"/>
  <path class="cls-6" d="m940.71,402.17c0-1.84.32-3.67.98-5.46.65-1.79,1.61-3.4,2.88-4.81,1.28-1.43,2.82-2.58,4.63-3.46,1.8-.89,3.86-1.33,6.17-1.33,2.69,0,5.05.6,7.06,1.81,2.03,1.21,3.53,2.81,4.5,4.79l-6.38,4.52c-.25-.73-.58-1.34-1-1.83-.41-.48-.85-.86-1.33-1.15-.49-.29-1-.49-1.54-.6-.54-.11-1.04-.17-1.5-.17-1.04,0-1.95.24-2.71.71-.75.47-1.38,1.08-1.88,1.83s-.86,1.6-1.08,2.56c-.22.95-.33,1.89-.33,2.83,0,1.06.13,2.07.4,3.04.26.96.66,1.81,1.19,2.54.53.74,1.17,1.33,1.92,1.77.76.45,1.63.67,2.58.67.48,0,.98-.06,1.5-.19.51-.13,1.01-.33,1.48-.63.47-.3.9-.69,1.27-1.17.39-.47.69-1.05.92-1.73l6.79,4.04c-.43,1.11-1.08,2.11-1.96,3-.86.88-1.85,1.61-2.96,2.21-1.11.6-2.29,1.06-3.54,1.38-1.25.3-2.47.46-3.67.46-2.1,0-4.03-.44-5.79-1.33-1.77-.9-3.29-2.09-4.56-3.56-1.27-1.48-2.25-3.17-2.96-5.04s-1.06-3.78-1.06-5.71Z"/>
  <path class="cls-6" d="m967.38,417.57l11.29-30.29h6.75l11.27,30.29h-8.79l-1.83-5.94h-8.06l-1.79,5.94h-8.83Zm14.67-21.63l-2.81,10.15h5.5l-2.69-10.15Z"/>
  <path class="cls-6" d="m998.94,417.57v-30.29h13.06c1.47,0,2.83.31,4.08.92,1.25.61,2.32,1.41,3.21,2.4.9.97,1.61,2.1,2.13,3.38.51,1.27.77,2.54.77,3.81s-.24,2.64-.73,3.9c-.49,1.27-1.16,2.39-2.02,3.38-.86.99-1.92,1.77-3.17,2.35-1.24.58-2.59.88-4.06.88h-4.96v9.29h-8.31Zm8.31-16.56h4.4c.51,0,.99-.23,1.44-.69.44-.47.67-1.32.67-2.54s-.26-2.1-.77-2.56c-.52-.46-1.03-.69-1.54-.69h-4.19v6.48Z"/>
  <path class="cls-6" d="m1046.97,410.32v7.25h-21.58v-30.29h21.21v7.25h-12.9v4.27h11.02v6.73h-11.02v4.79h13.27Z"/>
  <path class="cls-5" d="m450.19,401.8c0-4,.71-7.94,2.13-11.81s3.49-7.34,6.23-10.42c2.73-3.07,6.05-5.55,9.96-7.46,3.9-1.9,8.34-2.85,13.31-2.85,5.84,0,10.95,1.31,15.31,3.92,4.36,2.61,7.58,6.06,9.67,10.35l-13.73,9.77c-.56-1.59-1.28-2.92-2.17-3.96-.89-1.04-1.86-1.86-2.92-2.48-1.04-.63-2.15-1.05-3.31-1.29-1.17-.25-2.24-.38-3.23-.38-2.27,0-4.22.51-5.85,1.52-1.63,1.02-2.98,2.34-4.06,3.98-1.07,1.63-1.85,3.47-2.33,5.52-.49,2.06-.73,4.1-.73,6.13,0,2.28.29,4.47.88,6.56.58,2.08,1.44,3.93,2.56,5.52,1.14,1.6,2.52,2.88,4.15,3.83,1.64.95,3.5,1.42,5.58,1.42,1.05,0,2.13-.14,3.23-.42,1.11-.28,2.17-.73,3.19-1.38,1.01-.65,1.93-1.48,2.75-2.5.83-1.01,1.5-2.26,2-3.73l14.65,8.75c-.92,2.41-2.31,4.56-4.19,6.46-1.88,1.91-4.02,3.5-6.42,4.79-2.39,1.29-4.94,2.28-7.65,2.96-2.71.68-5.35,1.02-7.92,1.02-4.56,0-8.74-.96-12.56-2.9-3.81-1.94-7.08-4.51-9.81-7.71-2.72-3.19-4.85-6.82-6.4-10.88-1.54-4.07-2.31-8.19-2.31-12.35Z"/>
  <path class="cls-5" d="m511.02,421.69l30.63-36.42h-29.23v-15.67h49.96v13.38l-28.75,36.42h29.31v15.67h-51.92v-13.38Z"/>
  <path class="cls-5" d="m584.12,369.61l11.71,28.31,11.98-28.31h19.54l-22.58,43.79v21.67h-17.88v-21.85l-22.23-43.6h19.46Z"/>
</svg>