<?xml version="1.0" encoding="UTF-8"?>
<svg id="Layer_1" data-name="Layer 1" xmlns="http://www.w3.org/2000/svg" xmlns:xlink="http://www.w3.org/1999/xlink" viewBox="0 0 1215.91 687.17">
  <defs>
    <style>
      .cls-1 {
        fill: #d86561;
      }

      .cls-1, .cls-2, .cls-3, .cls-4, .cls-5, .cls-6, .cls-7 {
        stroke-width: 0px;
      }

      .cls-2 {
        fill: #8bc4c3;
      }

      .cls-8 {
        clip-path: url(#clippath-20);
      }

      .cls-9 {
        clip-path: url(#clippath-11);
      }

      .cls-10 {
        clip-path: url(#clippath-16);
      }

      .cls-3 {
        fill: #faf4e5;
      }

      .cls-11 {
        clip-path: url(#clippath-2);
      }

      .cls-12 {
        clip-path: url(#clippath-13);
      }

      .cls-13 {
        clip-path: url(#clippath-15);
      }

      .cls-14 {
        clip-path: url(#clippath-6);
      }

      .cls-4 {
        fill: none;
      }

      .cls-15 {
        clip-path: url(#clippath-7);
      }

      .cls-16 {
        clip-path: url(#clippath-21);
      }

      .cls-5 {
        fill: #e58b24;
      }

      .cls-17 {
        clip-path: url(#clippath-1);
      }

      .cls-18 {
        clip-path: url(#clippath-4);
      }

      .cls-19 {
        clip-path: url(#clippath-12);
      }

      .cls-20 {
        clip-path: url(#clippath-24);
      }

      .cls-6 {
        fill: #fbf3e3;
      }

      .cls-21 {
        clip-path: url(#clippath-22);
      }

      .cls-7 {
        fill: #202637;
      }

      .cls-22 {
        clip-path: url(#clippath-9);
      }

      .cls-23 {
        clip-path: url(#clippath);
      }

      .cls-24 {
        clip-path: url(#clippath-19);
      }

      .cls-25 {
        clip-path: url(#clippath-3);
      }

      .cls-26 {
        clip-path: url(#clippath-8);
      }

      .cls-27 {
        clip-path: url(#clippath-18);
      }

      .cls-28 {
        clip-path: url(#clippath-14);
      }

      .cls-29 {
        clip-path: url(#clippath-17);
      }

      .cls-30 {
        clip-path: url(#clippath-5);
      }

      .cls-31 {
        clip-path: url(#clippath-10);
      }

      .cls-32 {
        clip-path: url(#clippath-23);
      }
    </style>
    <clipPath id="clippath">
      <rect class="cls-4" x="7.75" y="197.76" width="205.95" height="81.11"/>
    </clipPath>
    <clipPath id="clippath-1">
      <rect class="cls-4" x="407.43" y="197.76" width="206" height="81.11"/>
    </clipPath>
    <clipPath id="clippath-2">
      <rect class="cls-4" x="87.1" y="505.98" width="47.57" height="40.66"/>
    </clipPath>
    <clipPath id="clippath-3">
      <rect class="cls-4" x="87.58" y="505.82" width="46.61" height="40.28" transform="translate(-54.01 14.36) rotate(-5.96)"/>
    </clipPath>
    <clipPath id="clippath-4">
      <rect class="cls-4" x="87.58" y="505.82" width="46.61" height="40.28" transform="translate(-54.01 14.36) rotate(-5.96)"/>
    </clipPath>
    <clipPath id="clippath-5">
      <rect class="cls-4" x="476.09" y="431.55" width="43.73" height="46.04"/>
    </clipPath>
    <clipPath id="clippath-6">
      <rect class="cls-4" x="474.26" y="432.86" width="46.61" height="40.28" transform="translate(-175.2 465.97) rotate(-43.42)"/>
    </clipPath>
    <clipPath id="clippath-7">
      <rect class="cls-4" x="474.26" y="432.86" width="46.61" height="40.28" transform="translate(-175.2 465.97) rotate(-43.42)"/>
    </clipPath>
    <clipPath id="clippath-8">
      <rect class="cls-4" x="1.17" y="2.66" width="98.21" height="165.14"/>
    </clipPath>
    <clipPath id="clippath-9">
      <rect class="cls-4" x="1100.06" y="2.66" width="115.85" height="109.72"/>
    </clipPath>
    <clipPath id="clippath-10">
      <rect class="cls-4" x="1091.65" y="-129.5" width="246.29" height="248.59" transform="translate(816.19 1142.35) rotate(-70.6)"/>
    </clipPath>
    <clipPath id="clippath-11">
      <rect class="cls-4" x="1091.65" y="-129.5" width="246.29" height="248.59" transform="translate(816.19 1142.35) rotate(-70.6)"/>
    </clipPath>
    <clipPath id="clippath-12">
      <rect class="cls-4" x="176.1" y="285.78" width="61.38" height="49.1"/>
    </clipPath>
    <clipPath id="clippath-13">
      <rect class="cls-4" x="193.35" y="275.79" width="21.29" height="75.38" transform="translate(-169.71 328.51) rotate(-59.25)"/>
    </clipPath>
    <clipPath id="clippath-14">
      <rect class="cls-4" x="193.35" y="275.79" width="21.29" height="75.38" transform="translate(-169.71 328.51) rotate(-59.25)"/>
    </clipPath>
    <clipPath id="clippath-15">
      <rect class="cls-4" x="181.47" y="298.82" width=".77" height=".77"/>
    </clipPath>
    <clipPath id="clippath-16">
      <rect class="cls-4" x="193.35" y="275.79" width="21.29" height="75.38" transform="translate(-169.71 328.51) rotate(-59.25)"/>
    </clipPath>
    <clipPath id="clippath-17">
      <rect class="cls-4" x="193.35" y="275.79" width="21.29" height="75.38" transform="translate(-169.71 328.51) rotate(-59.25)"/>
    </clipPath>
    <clipPath id="clippath-18">
      <rect class="cls-4" x="392.46" y="285.01" width="60.61" height="50.64"/>
    </clipPath>
    <clipPath id="clippath-19">
      <rect class="cls-4" x="388.46" y="302.76" width="75.38" height="21.29" transform="translate(-101.7 278.79) rotate(-32.58)"/>
    </clipPath>
    <clipPath id="clippath-20">
      <rect class="cls-4" x="388.3" y="302.86" width="75.38" height="21.29" transform="translate(-101.78 278.72) rotate(-32.58)"/>
    </clipPath>
    <clipPath id="clippath-21">
      <rect class="cls-4" x="446.94" y="298.05" width=".77" height=".77"/>
    </clipPath>
    <clipPath id="clippath-22">
      <rect class="cls-4" x="388.46" y="302.76" width="75.38" height="21.29" transform="translate(-101.7 278.79) rotate(-32.58)"/>
    </clipPath>
    <clipPath id="clippath-23">
      <rect class="cls-4" x="388.3" y="302.86" width="75.38" height="21.29" transform="translate(-101.78 278.72) rotate(-32.58)"/>
    </clipPath>
    <clipPath id="clippath-24">
      <rect class="cls-4" x="930.16" y="433.78" width="53.71" height="185.65"/>
    </clipPath>
  </defs>
  <path class="cls-2" d="m69.25,981.41s27.76,14.08,164.46,16.31c136.7,2.24,229.32-4.6,264.05-8.16,34.73-3.55,48.68-8.16,48.68-8.16,0,0,13.95-334.44,0-402.32-13.95-67.89-50.92-179.58-169.06-216.42-118.14-36.84-143.67-5.39-203.79,43.81-60.12,49.21-113.54,361.54-111.17,456.66s6.84,118.28,6.84,118.28h-.01Z"/>
  <path class="cls-1" d="m401.11,551.8l-88.34,14.43s-81.81,29.49-110.55-15.17c-36.03-56.02,3.21-97.11,22.7-115.24,16.53-15.42,16.53-43.18,16.66-46.39,0-42.81,7.28-68.48,31.21-82.54,26.16-15.42,47.63-12.22,47.63-12.22,0,0,29.74-1.23,47.01,25.79,11.72,18.38,14.81,43.18,17.15,68.97,3.95,44.17,45.28,51.33,46.15,95.99.99,45.53-29.61,66.38-29.61,66.38h-.01Zm0,0l-88.34,14.43s-81.81,29.49-110.55-15.17c-36.03-56.02,3.21-97.11,22.7-115.24,16.53-15.42,16.53-43.18,16.66-46.39,0-42.81,7.28-68.48,31.21-82.54,26.16-15.42,47.63-12.22,47.63-12.22,0,0,29.74-1.23,47.01,25.79,11.72,18.38,14.81,43.18,17.15,68.97,3.95,44.17,45.28,51.33,46.15,95.99.99,45.53-29.61,66.38-29.61,66.38h-.01Z"/>
  <path class="cls-5" d="m308.94,481.6c31.34,8.64,58.48-11.35,58.48-11.35,0,0,35.29,13.2,43.06,25.05,12.83,19.74,32.08,137.08-3.58,155.96-32.45,17.15-89.82-6.17-116.35-17.64-19.86,24.43-45.04,42.07-79.71,22.09-39.11-22.7-11.6-146.83-3.33-159.78,13.57-21.22,49.97-25.54,49.97-25.54,0,0,19.99,2.59,51.45,11.23v-.02h0Zm0,0c31.34,8.64,58.48-11.35,58.48-11.35,0,0,35.29,13.2,43.06,25.05,12.83,19.74,32.08,137.08-3.58,155.96-32.45,17.15-89.82-6.17-116.35-17.64-19.86,24.43-45.04,42.07-79.71,22.09-39.11-22.7-11.6-146.83-3.33-159.78,13.57-21.22,49.97-25.54,49.97-25.54,0,0,19.99,2.59,51.45,11.23v-.02h0Z"/>
  <path class="cls-3" d="m357.18,467.04c5.55,1.85,10.24,3.21,10.24,3.21,0,0-6.79,25.66-36.4,33.68-21.72-11.72-40.96-16.04-40.96-16.04l-7.03,11.72c-20.97-10.24-25.42-29.37-25.42-29.37,0,0,23.44-6.79,28.99-11.47,4.94-4.2,3.82-27.02,3.58-31.83-14.07-6.05-20.73-17.77-23.81-28.38-7.77.62-14.19-13.2-10.61-19.5,3.82-6.79,8.02-2.22,8.02-2.22,20.73,5.18,53.18-25.42,63.3-51.08.25-.49.87-.37.99.12,3.45,17.03,19.49,41.7,32.57,50.96,0,0,4.2-4.56,8.02,2.22s-3.82,22.58-12.58,19c0-.37,0-.74.12-1.11-4.2,13.08-10.86,23.32-21.47,29.12h.25s-.12,2.59-.25,6.17c1.97.12,7.03.86,8.14,5.55,6.05.25,8.64,4.32,8.27,6.79,4.07-.25,6.29,9.13,3.82,11.23,3.7-.37,3.46,7.28,2.22,11.23h0Zm0,0c5.55,1.85,10.24,3.21,10.24,3.21,0,0-6.79,25.66-36.4,33.68-21.72-11.72-40.96-16.04-40.96-16.04l-7.03,11.72c-20.97-10.24-25.42-29.37-25.42-29.37,0,0,23.44-6.79,28.99-11.47,4.94-4.2,3.82-27.02,3.58-31.83-14.07-6.05-20.73-17.77-23.81-28.38-7.77.62-14.19-13.2-10.61-19.5,3.82-6.79,8.02-2.22,8.02-2.22,20.73,5.18,53.18-25.42,63.3-51.08.25-.49.87-.37.99.12,3.45,17.03,19.49,41.7,32.57,50.96,0,0,4.2-4.56,8.02,2.22s-3.82,22.58-12.58,19c0-.37,0-.74.12-1.11-4.2,13.08-10.86,23.32-21.47,29.12h.25s-.12,2.59-.25,6.17c1.97.12,7.03.86,8.14,5.55,6.05.25,8.64,4.32,8.27,6.79,4.07-.25,6.29,9.13,3.82,11.23,3.7-.37,3.46,7.28,2.22,11.23h0Z"/>
  <path class="cls-7" d="m293.39,377.21c0-2.72,1.48-5.06,3.21-5.06s3.21,2.22,3.21,5.06-1.48,5.06-3.21,5.06-3.21-2.22-3.21-5.06Zm35.9,5.06c1.85,0,3.21-2.22,3.21-5.06s-1.48-5.06-3.21-5.06-3.21,2.22-3.21,5.06c-.12,2.84,1.36,5.06,3.21,5.06Zm-16.65,11.1c.37-9.62.49-19.37.25-29,0-1.23-1.85-1.23-1.85,0,.25,9.62.25,19.37-.25,29-.12,1.11,1.73,1.11,1.85,0Zm-10.12,10.12c2.1.25,4.07.74,5.8,1.98,1.73,1.23,2.96,2.96,4.32,4.56.37.37.99.37,1.36,0s.37-.86,0-1.35c-1.48-1.85-2.84-3.7-4.81-4.94-1.98-1.36-4.2-1.98-6.54-2.22-.49,0-.99.49-.99.99-.12.62.37.99.86.99h0Zm5.18,31.09c6.54.86,13.08-.37,19.25-2.59,2.96-1.11,5.92-2.34,8.51-4.32.99-.74,0-2.34-.99-1.6-2.09,1.6-4.56,2.72-7.03,3.7-2.96,1.11-6.05,2.1-9.13,2.59-6.29,1.11-12.58.37-18.63-1.48-2.96-.86-6.05-1.98-8.64-3.82-.99-.62-1.97.99-.99,1.6,2.34,1.6,5.06,2.71,7.65,3.58,3.33,1.23,6.66,1.97,10,2.34h0Zm-15.67,51.95c3.21-10,6.29-19.99,9.5-29.98.74-2.47,1.48-4.94,2.34-7.4.62-2.1,1.36-4.07,2.59-5.92,2.47-3.58,6.79-4.69,10.74-5.43,5.8-1.23,11.6-2.47,17.4-3.58,1.11-.25.61-1.97-.49-1.73-5.3,1.11-10.61,2.22-15.92,3.33-4.19.86-8.76,1.6-11.84,4.81-3.21,3.33-4.2,8.27-5.55,12.58-1.61,5.18-3.21,10.36-4.94,15.55-1.85,5.8-3.7,11.6-5.43,17.4-.61,1.11,1.23,1.6,1.61.37h0Zm32.94-42.82c5.68-2.71,11.85-4.32,18.14-4.81,1.23-.12,1.23-1.98,0-1.85-6.66.49-13.08,2.22-19.12,5.06-.99.49,0,2.1.99,1.6h0Zm25.66.25c-6.91.25-13.82,1.23-20.6,2.84-1.11.25-.61,2.1.49,1.73,6.54-1.6,13.32-2.59,20.11-2.72,1.11,0,1.11-1.85,0-1.85Zm-15.17,9.99c-1.23.12-1.23,1.98,0,1.85,6.79-.49,13.57-1.23,20.23-.37,1.23.12,1.11-1.73,0-1.85-6.66-.86-13.57-.12-20.23.37Zm12.83,24.8c2.47-.12,4.32-2.59,5.55-4.44,1.48-2.1,2.47-4.44,2.96-7.03.25-1.11-1.6-1.6-1.73-.49-.37,1.97-1.11,3.95-2.22,5.67-.99,1.48-2.34,3.58-4.07,4.32-.86.37-1.73-.12-2.1-.86-.49-.99-.37-2.22-.25-3.21.37-2.34.74-4.69,1.36-7.03.12-.49-.25-1.23-.87-1.11-4.07.37-8.02.74-12.09,1.11-.25,0-.37.12-.49.25l-.12.12c-.12.12-.25.37-.25.62-.25,4.44-.37,8.88-1.11,13.32-.37,2.84-1.11,5.8-3.08,7.89-1.11,1.11-2.47,1.85-3.95,2.22-.25.13-.49.25-.62.49-.12.12-.37.25-.37.49-1.11,2.72-2.22,5.43-3.45,8.14-.25.49.25.99.61,1.11.49.13.99-.12,1.11-.61,1.11-2.59,2.22-5.31,3.33-7.9,2.84-.99,5.18-2.84,6.54-5.55,1.61-3.33,1.85-7.28,2.1-10.98.25-2.59.37-5.18.49-7.77,3.33-.25,6.66-.62,10-.86-.62,2.47-1.11,4.93-1.23,7.4,0,1.97,1.23,4.81,3.95,4.69h0Zm-131.4,9.01c5.92,2.96,10.36,8.39,12.34,14.68.37,1.11,2.1.62,1.73-.49-2.09-6.79-6.91-12.59-13.2-15.79-.99-.62-1.97.99-.86,1.6h0Zm64.9,11.72c-8.51,12.46-16.78,25.17-24.8,38-3.82,6.17-7.65,12.22-11.35,18.38-1.73-10.36-3.58-20.85-5.8-31.09-.62-3.08-1.36-6.29-2.1-9.38-.25-1.11-2.1-.62-1.73.49,2.47,10.98,4.69,21.96,6.54,32.94.49,3.09,1.11,6.29,1.6,9.5-3.95,6.42-7.89,12.96-11.84,19.37-4.32,7.03-8.51,14.07-12.83,21.1-.62.99.99,1.97,1.6.99,7.9-12.96,15.67-25.91,23.57-38.74,8.27-13.45,16.53-26.77,25.05-39.97,4.44-6.91,9.01-13.82,13.7-20.6.74-1.11-.86-1.98-1.6-.99h-.01Zm-53.55,76.37c-7.16.37-14.07,2.84-19.86,6.91-.99.62,0,2.34.99,1.6,5.55-3.95,12.22-6.17,19-6.66,1.11-.12,1.11-1.98-.12-1.85h-.01Zm168.66,27.14c-9.01-2.84-18.26-5.3-27.39-7.4,3.82-1.73,7.9-2.72,12.22-2.59,4.56.25,9.01,1.6,13.32,2.71,1.11.25,1.6-1.48.49-1.73-4.57-1.23-9.25-2.59-14.07-2.84-1.6-.12-3.33,0-4.81.25.12-.12.25-.37.25-.49.86-13.32,4.32-26.28,7.03-39.36.62-2.96,1.23-5.92,1.73-9.01.25-1.11-1.6-1.73-1.73-.49-.99,5.8-2.34,11.6-3.58,17.28-1.48,6.79-2.96,13.57-3.95,20.36-.62,3.7-1.11,7.4-1.36,11.1,0,.37.12.61.37.74-3.08.61-5.92,1.73-8.76,3.21-.74-.12-1.36-.37-2.1-.49-10.86-2.47-21.71-4.56-32.7-6.17-5.8-.86-11.72-1.6-17.52-2.22.25-.62.49-1.23.86-1.98,3.7-8.88,7.28-17.77,10.74-26.77,3.21-8.14,6.17-16.29,9.13-24.56,2.34-6.54,4.56-13.08,6.66-19.62.25-.62.37-1.36.62-1.98.12-.25,0-.74-.25-.86-1.23-1.11-2.59-2.1-3.82-3.08-1.98-1.48-4.07-3.21-6.29-4.2-1.11-.49-1.98,1.11-.99,1.6,2.22.99,4.19,2.59,6.05,4.07,1.11.86,2.22,1.73,3.33,2.71-1.97,6.05-3.95,12.09-6.17,18.14-2.84,8.02-5.8,16.04-8.88,24.06-3.46,8.88-6.91,17.77-10.61,26.53-3.7,8.88-7.53,17.64-11.48,26.4-3.7,8.02-7.53,15.92-11.72,23.69-.49.86-.86,1.73-1.36,2.59-.62.99.99,1.97,1.6.99,4.2-7.53,8.02-15.3,11.6-23.2,3.46-7.53,6.79-15.05,10-22.58,10.86,1.23,21.71,2.71,32.45,4.81,10.86,1.98,21.59,4.44,32.33,7.16,6.05,1.6,12.09,3.33,18.01,5.06,1.36.25,1.85-1.6.74-1.85h.01Zm10.37-100.56c-5.18,4.94-10,10.24-14.19,16.04-.74.99.86,1.85,1.6.99,4.07-5.67,8.76-10.98,13.94-15.67.74-.86-.49-2.22-1.35-1.36h0Zm-77.61-147.32c3.82-.49,7.65,1.11,9.99,4.19.37.37.99.37,1.36,0s.37-.86,0-1.36c-2.59-3.33-7.03-5.18-11.35-4.69-.49,0-.99.37-.99.99.12.37.49.99.99.87h0Zm-69.71,27.51c1.73,1.73,3.08,3.95,3.7,6.29-.49-.37-1.11-.62-1.73-.74-1.11-.25-1.61,1.48-.49,1.73,1.11.25,2.1.99,2.72,1.98.49.74,1.73.49,1.73-.49-.25-3.82-1.85-7.4-4.56-10.12-.99-.86-2.22.49-1.36,1.36h-.01Zm103.15.99c.37-.25.62-.86.37-1.23-.25-.37-.86-.62-1.23-.37-2.71,1.98-4.69,4.94-5.18,8.14-.12.49.12.87.49,1.11.37.12.99,0,1.11-.37.25-.37.37-.49.74-.74.25-.12.62-.25.87-.12.49.12.99-.12,1.11-.62.12-.49-.12-1.11-.62-1.11-.49-.12-.86,0-1.36,0,.87-1.85,2.1-3.58,3.7-4.69h0Zm-80.82-63.17c-11.47,7.28-19.49,19.37-22.21,32.58-.74,3.7-1.11,7.53-.99,11.35,0,1.23,1.85,1.23,1.85,0-.49-12.95,4.69-25.91,13.7-35.29,2.59-2.59,5.43-4.94,8.51-6.91.99-.74.13-2.34-.86-1.73h0Zm-15.05,50.34c3.82-5.18,8.02-10.12,12.46-14.81.86-.86-.49-2.22-1.36-1.36-4.56,4.81-8.76,9.87-12.71,15.18-.74.99.86,1.97,1.6.99h0Zm99.57-13.94c.25,3.7,0,7.53-.61,11.23-.25,1.11,1.6,1.6,1.73.49,2.47-13.7-1.11-28.13-9.38-39.24-2.34-3.08-4.94-6.05-8.02-8.51-.86-.74-2.22.49-1.36,1.36,10.49,8.51,16.9,21.35,17.64,34.67h0Zm-47.01-55.77c.13,0,.25.12.37.12h.37s.13,0,.13.12c.12,0,.25.12.37.12.37.25.86.49,1.23.74,0,0,.12,0,.12.13l.25.25.49.49.49.49c.12.13.12.25.25.25l.12.12c-.12-.12,0,0,0,0,.25.37.86.62,1.23.37.37-.25.62-.86.37-1.23-1.36-1.85-3.21-3.21-5.3-3.95-.49-.12-.99.12-1.11.62-.13.74.12,1.23.61,1.36h.01Zm12.46,6.17c.09-.08.17-.16.25-.25.12-.13.12-.12.25-.12.25-.12.37-.25.62-.37.12-.12.37-.25.49-.25,0,0,.37-.12.12-.12.12,0,.25-.12.37-.12.99-.37,1.6-.49,2.59-.49.49,0,.99-.37.99-.99,0-.49-.37-.86-.99-.99-2.22,0-4.32.74-5.92,2.22-.37.37-.37.99,0,1.36.37.49.86.49,1.23.12h0Zm-9.37,2.22h-1.98c-.25,0-.49.13-.62.25s-.25.37-.25.62c0,.49.37.99.99.99h1.98c.25,0,.49-.12.62-.25.12-.13.25-.37.25-.62,0-.49-.37-.99-.99-.99Z"/>
  <path class="cls-6" d="m424.18,416.94c.12.99-.37,2.1-1.23,2.72-.37.25-.86.49-1.23.49-.49,0-.99,0-1.48-.25-.99-.37-1.48-1.23-1.6-2.22s.37-2.1,1.23-2.72,1.85-.62,2.71-.25c.87.37,1.48,1.23,1.61,2.22h0Zm-16.16-9.75c-.99-.37-1.98-.37-2.72.25-.86.62-1.36,1.6-1.23,2.72.12.99.74,1.85,1.6,2.22.49.25.99.25,1.48.25s.87-.25,1.23-.49c.86-.62,1.36-1.6,1.23-2.71,0-.99-.62-1.85-1.6-2.22v-.02h0Zm48.36-26.53c-.99-3.21-3.21-5.55-6.41-6.66-4.32-1.48-9.25.25-13.45,4.57-.12.25-.37.37-.49.61l3.7,3.83c.37-.13.62-.37.86-.62,1.98-1.98,4.44-3.21,6.42-3.21,1.11,0,2.1.49,2.84,1.36,2.22,2.59,1.23,6.91-.62,9.75-.74,1.23-2.1,2.71-3.95,3.45-1.11.37-2.22.49-3.58.62-.86.12-1.73.25-2.71.37-4.81.99-8.88,4.69-10.74,9.87-.12.25-.12.49-.12.74l5.3,1.6c0-.12.12-.12.12-.25.74-1.98,1.85-3.7,3.33-4.94,1.23-.99,2.72-1.6,5.06-1.85h.37c1.98-.25,3.95-.49,5.92-1.36,1.73-.86,3.33-2.1,4.69-3.82,3.33-3.7,4.69-9.63,3.45-14.07h0Zm-30.35-13.2c-1.98-3.58-6.17-5.3-10.49-4.44-4.69.99-8.88,4.69-11.48,10.36-.12.37-.25.62-.25.99l4.94,2.1c.12-.25.37-.49.49-.74,1.73-3.7,5.18-7.9,9.25-7.16,1.11.12,1.85.62,2.34,1.48.86,1.48,1.11,3.82.49,6.17-.49,1.98-1.6,3.7-3.08,5.06-.87.74-1.98,1.48-3.09,2.22-.86.62-1.85,1.23-2.71,1.85-4.2,3.33-6.54,8.14-6.54,13.45,0,.25,0,.49.12.74l5.43-.12c.12-.25.12-.62.12-.86,0-4.81,3.21-8.02,6.05-9.87,3.82-2.59,7.03-5.06,8.76-9.37,1.6-4.32,1.48-8.64-.37-11.85h.02Z"/>
  <g class="cls-23">
    <path class="cls-5" d="m211.61,245.17c-.56,1.28-1.17,2.51-1.64,3.82-3.39,9.1-9.43,15.12-16.96,19.34-1.91,1.08-3.86,2.11-5.86,2.81-16.82,5.86-33.71,9.12-50.74,6.11-10.62-1.89-21.18-4.25-31.94-5.17-10.42-.9-21.07-.38-31.63-.25-11.28.16-22.57.72-33.38-2.56-9.97-3.03-20.42-4.83-26.89-14.04-2.51-3.57-4.67-10.67-4.69-15.21-.02-4.9,2.63-12.92,6.04-21.43,3.86-6.65,6.81-9.01,12.2-11.77,17.39-8.92,35.4-9.03,53.75-8.45,12.26.38,24.66-.63,36.95-.29,11.91.31,23.7,1.64,35.58,2.34,2.92.18,5.91-.4,8.87-.47,6.74-.13,13.64-1.05,20.17-.04,7.75,1.19,15.05,4.56,21.34,9.66,8.06,6.51,11.23,16.11,10.4,27.83-.04.7-.04,1.39-.07,2.09-.52,1.91-1.01,3.8-1.5,5.68h0Z"/>
  </g>
  <g class="cls-17">
    <path class="cls-5" d="m611.29,245.17c-.56,1.28-1.17,2.51-1.64,3.82-3.39,9.1-9.43,15.12-16.96,19.34-1.91,1.08-3.87,2.11-5.87,2.81-16.82,5.86-33.71,9.12-50.74,6.11-10.62-1.89-21.18-4.25-31.94-5.17-10.42-.9-21.07-.38-31.63-.25-11.27.16-22.57.72-33.38-2.56-9.97-3.03-20.42-4.83-26.89-14.04-2.52-3.57-4.67-10.67-4.7-15.21-.02-4.9,2.63-12.92,6.04-21.43,3.86-6.65,6.81-9.01,12.2-11.77,17.39-8.92,35.4-9.03,53.75-8.45,12.26.38,24.66-.63,36.95-.29,11.9.31,23.69,1.64,35.58,2.34,2.92.18,5.91-.4,8.87-.47,6.74-.13,13.63-1.05,20.17-.04,7.75,1.19,15.05,4.56,21.34,9.66,8.06,6.51,11.23,16.11,10.4,27.83-.04.7-.04,1.39-.07,2.09-.52,1.91-1.01,3.8-1.5,5.68h.02Z"/>
  </g>
  <g class="cls-11">
    <g class="cls-25">
      <g class="cls-18">
        <path class="cls-6" d="m133.9,521.52c.32,3.05-.19,6.06-1.52,9.18-1.92,4.47-3.96,7.34-6.81,9.58-3.31,2.6-7.79,4.35-14.11,5.52-4.32.8-9.6-.72-14.14-4.08-4.87-3.59-8.18-8.65-9.3-14.25-.78-3.85.04-7.53,2.41-10.91,2.35-3.36,5.74-5.66,8.16-6.99,2.87-1.58,6.01-2.71,8.6-3.1,4.41-.67,8.32.23,11.28,2.6,3.16,2.52,5.04,6.58,5.43,11.74.37,4.94-.46,8.71-2.57,11.53-1.67,2.23-4.12,3.8-7.5,4.8-2.66.79-7.85.24-11.95-2.04-3.33-1.85-5.57-4.6-6.49-7.93-.69-2.51-.43-4.84.79-6.91,1.06-1.8,2.82-3.35,5.22-4.61,1.68-.87,3.45-1.53,5.29-1.98,3.58-.87,6.75-.4,8.9,1.31,1.3,1.03,2.84,3.04,2.8,6.74-.03,3.19-1.34,5.41-3.9,6.61-2.02.94-4.46,1.06-6.42,1.16l-.39.02-.14-2.78.39-.02c1.8-.08,3.85-.18,5.37-.89,2.01-.95,2.29-2.7,2.3-4.13.02-2.06-.57-3.59-1.75-4.53-1.45-1.15-3.82-1.44-6.52-.79-4.86,1.18-7.72,3.51-8.77,5.3-.84,1.41-1,2.97-.51,4.75.73,2.64,2.46,4.74,5.17,6.24,2.31,1.28,7.01,2.63,9.81,1.8,2.82-.83,4.75-2.04,6.06-3.8,1.68-2.25,2.34-5.41,2.02-9.65-.33-4.37-1.85-7.75-4.39-9.78-2.35-1.87-5.51-2.57-9.14-2.02-4.01.61-11.28,3.78-14.9,8.95-1.92,2.74-2.58,5.69-1.96,8.76,1,4.92,3.92,9.38,8.24,12.57,3.93,2.89,8.41,4.23,11.99,3.58,5.86-1.08,9.96-2.66,12.89-4.98,2.47-1.94,4.25-4.48,5.97-8.5,1.4-3.26,1.74-6.38,1.02-9.54-.64-2.83-2.14-5.78-4.59-9.05l2.22-1.67c2.7,3.58,4.36,6.88,5.08,10.11.15.69.27,1.38.34,2.08h.02,0Z"/>
      </g>
    </g>
  </g>
  <g class="cls-30">
    <g class="cls-14">
      <g class="cls-15">
        <path class="cls-6" d="m481.99,470.49c-2.1-2.22-3.54-4.93-4.38-8.21-1.2-4.72-1.32-8.23-.43-11.75,1.04-4.07,3.53-8.19,7.84-12.96,2.94-3.26,8.06-5.27,13.7-5.37,6.05-.11,11.75,1.9,16.05,5.65,2.96,2.58,4.55,5.99,4.73,10.12.17,4.1-1.11,7.98-2.23,10.52-1.32,3-3.12,5.81-4.95,7.7-3.09,3.21-6.74,4.87-10.53,4.8-4.04-.08-8-2.15-11.45-6.02-3.31-3.7-4.93-7.2-4.98-10.71-.03-2.79.96-5.53,3.04-8.37,1.63-2.24,6.09-4.97,10.72-5.65,3.77-.55,7.22.26,9.98,2.35,2.08,1.57,3.28,3.58,3.57,5.96.25,2.07-.19,4.38-1.34,6.84-.81,1.71-1.81,3.31-3,4.78-2.32,2.87-5.11,4.42-7.86,4.38-1.66-.03-4.11-.69-6.32-3.64-1.92-2.55-2.23-5.11-.93-7.62,1.02-1.98,2.9-3.56,4.39-4.82l.3-.25,1.8,2.12-.3.25c-1.38,1.17-2.95,2.49-3.72,3.98-1.02,1.98-.17,3.54.68,4.68,1.24,1.65,2.63,2.5,4.15,2.53,1.85.03,3.91-1.18,5.65-3.34,3.14-3.89,3.99-7.48,3.74-9.54-.2-1.63-1.01-2.97-2.49-4.08-2.18-1.65-4.84-2.26-7.9-1.81-2.62.39-7.16,2.18-8.88,4.54-1.73,2.38-2.53,4.51-2.5,6.7.03,2.81,1.43,5.72,4.26,8.89,2.92,3.27,6.18,5.03,9.43,5.09,3,.06,5.93-1.31,8.48-3.95,2.81-2.92,6.66-9.86,6.39-16.17-.14-3.34-1.41-6.08-3.78-8.15-3.78-3.3-8.82-5.06-14.18-4.97-4.88.09-9.25,1.75-11.69,4.45-3.99,4.42-6.28,8.17-7.2,11.79-.78,3.04-.65,6.14.43,10.38.87,3.43,2.5,6.11,4.99,8.19,2.23,1.86,5.22,3.29,9.15,4.39l-.74,2.68c-4.32-1.2-7.65-2.81-10.18-4.93-.54-.45-1.05-.93-1.53-1.44h.02Z"/>
      </g>
    </g>
  </g>
  <g class="cls-26">
    <path class="cls-1" d="m-146.62,51.46c25.74-3.27,51.4-6.81,77.32-8.14-3.63-19.46-8.31-38.66-13.89-57.68,22.3,1.86,45.29,4.95,67.15,9.47,3.01-25.21,7.52-50.69,10.62-75.9C30.76-41.87,65.7-1.71,99.23,39.52c-24.77.71-50.6,1.5-75.37,2.21,4.6,20.52,9.82,41.4,14.42,62.02-22.74-2.65-45.29-6.81-67.59-12.21-1.32,24.68-2.3,51.57-3.63,76.26-36.62-38.84-75.02-79.44-113.68-116.33h0Z"/>
  </g>
  <g class="cls-22">
    <g class="cls-31">
      <g class="cls-9">
        <path class="cls-1" d="m1234.58-127.63c-5.47,25.37-10.65,50.74-18.01,75.63,19.56,3.05,39.23,5,59.02,6.06-9.16,20.41-19.72,41.08-31.24,60.19,22.78,11.22,45.31,23.93,68.07,35.23-48.74,21.2-98.23,40.81-148.25,58.74,7.56-23.6,15.39-48.23,22.95-71.82-20.89-2.48-42.31-4.5-63.28-7,10.06-20.56,21.47-40.46,33.97-59.69-22.84-9.45-47.88-19.3-70.72-28.76,48.8-21.64,99.85-44.36,147.49-68.57h0Z"/>
      </g>
    </g>
  </g>
  <g class="cls-19">
    <g class="cls-12">
      <g class="cls-28">
        <path class="cls-6" d="m177.76,286.19c-.06.03-.09.07-.1.14-.22.07-.44-.22-.66.02-.69.17-.79.72-.79,1.31,0,1.66.27,3.28.64,4.89,1.32,5.76,3.79,10.98,7.2,15.81,5.96,8.44,14.03,13.92,23.66,17.26,4.46,1.55,9.11,2.29,13.8,2.81,2.75.31,5.52.45,8.28.66.1-.04.2-.07.31-.11.11.06.25.09.31.18h0c.05.07-.05.14-.15.13-.91.59-1.92.97-2.95,1.29-.7.22-1.37.49-1.94.96-1.52.47-2.19,1.53-1.94,2.96,3.12.53,5.87-.56,8.57-1.9,1-.5,2.04-.93,3.07-1.37,2.46-1.06,2.05-1.05,2.32-3.21.06-.49,0-.98-.09-1.46-.04-.18-.09-.34-.25-.44.04-.55-.36-.8-.76-1.02-1.19-.65-2.39-1.28-3.58-1.92-.16-.28-.44-.39-.73-.49-.15-.29-.44-.39-.71-.51-.07-.22-.3-.28-.46-.41-2.17-1.74-4.11-3.7-5.71-5.98-.12-.17-.25-.33-.38-.5-.15-.2-.32-.43-.59-.34-.2.07-.32.35-.28.53.15.8-.21,1.56-.13,2.34.04.35.21.65.4.96,1.4,2.37,3.19,4.43,5.18,6.31.18.17.39.31.52.51.16.23,0,.38-.22.48-.22-.17-.45-.18-.68-.03-.23-.12-.47-.21-.72-.04-.04-.06-.08-.07-.13-.02-.22-.12-.44-.19-.68-.05-.16-.05-.33-.12-.5-.13-1.87-.2-3.75-.37-5.62-.59-1.7-.2-3.38-.46-5.08-.69-.44-.12-.87-.25-1.31-.34-4.29-.97-8.39-2.45-12.26-4.53-1.38-.74-2.75-1.53-4.11-2.3-.17-.3-.47-.4-.76-.5-.16-.29-.44-.39-.72-.49-.13-.28-.41-.36-.66-.48-.07-.2-.22-.28-.41-.32-.03-.07-.08-.1-.16-.1-.08-.22-.29-.28-.45-.42-.77-.65-1.64-1.17-2.33-1.91-.12.02-.38-.09-.16.22.15.2.13.27.04.29-.07.01-.19,0-.28-.01-2.35-2.13-4.41-4.53-6.32-7.06-.16-.25-.31-.5-.47-.75-.93-1.5-1.86-3-2.78-4.5,0-.07,0-.13-.04-.18-.03-.04-.06-.06-.1-.09,0-.12-.04-.21-.14-.26.02-.12-.03-.21-.14-.26.02-.12-.03-.21-.13-.27.02-.12-.02-.21-.13-.27.02-.12-.02-.21-.13-.27h0c.03-.12-.02-.21-.12-.26h0c-.03-.1-.07-.18-.12-.27h0c.03-.13,0-.22-.12-.27h0c.03-.13,0-.22-.12-.27h0c.03-.12,0-.21-.12-.27h0c.03-.12,0-.21-.12-.27h0c.03-.13,0-.22-.12-.28-.32-.86-.63-1.72-.95-2.58-.31-.4-.39-.88-.53-1.34.04-.04.08-.07.13-.09.07-.03.15-.03.23,0-.07-.36-.12-.72-.35-1.02-.08-.09-.14-.18-.16-.3.05.1.11.2.16.3,0-.12,0-.23-.13-.28.06-.17.02-.32-.09-.47.04-.11.03-.2-.08-.27,0-.12,0-.23-.1-.31.02-.06,0-.11-.03-.16,0-.36-.09-.7-.25-1.02-.02-.25-.03-.51-.18-.73.05-.17-.02-.31-.08-.46-.07-1-.34-1.99-.22-3.05-.36.13-.68-.13-.93.16l-.08-.03h0Zm50.21,40h0Zm-46.9-27.53v.07h0s-.02-.05-.02-.07h.02Zm1.94,2.66h-.05.05Zm-2.05-2.67s.06,0,.09.01c0,.02.02.04.02.05-.02-.04-.06-.06-.11-.07h0Zm.16.19l.03.06h0s-.02-.05-.03-.07h0Zm-3.84-10.81h0Zm.04.45h0Zm2.23,3.91h-.07v-.04s.04.03.05.04h.02Zm-.11-.78s-.02-.07,0-.12v.12Z"/>
      </g>
    </g>
  </g>
  <g class="cls-13">
    <g class="cls-10">
      <g class="cls-29">
        <path class="cls-6" d="m181.94,299.18c.04.09.08.18.12.26.02-.12-.02-.21-.12-.26Z"/>
      </g>
    </g>
  </g>
  <g class="cls-27">
    <g class="cls-24">
      <g class="cls-8">
        <path class="cls-6" d="m451.34,285.37c.06.02.1.07.11.13.22.06.44-.24.66,0,.7.15.81.69.83,1.28.05,1.66-.16,3.29-.48,4.91-1.14,5.8-3.43,11.09-6.69,16.03-5.69,8.63-13.58,14.36-23.1,18.01-4.41,1.69-9.04,2.58-13.71,3.25-2.74.4-5.5.62-8.25.92-.1-.03-.2-.07-.31-.1-.1.06-.24.1-.3.19h0c-.04.07.06.14.16.13.93.56,1.95.91,2.98,1.2.71.2,1.38.45,1.98.9,1.53.42,2.24,1.46,2.03,2.9-3.1.63-5.88-.37-8.62-1.62-1.02-.46-2.07-.86-3.11-1.27-2.5-.98-2.08-.98-2.42-3.13-.07-.48-.04-.98.04-1.46.03-.18.08-.34.24-.44-.06-.55.33-.81.73-1.04,1.17-.69,2.34-1.36,3.52-2.04.16-.28.43-.4.71-.51.15-.29.43-.4.7-.53.07-.22.28-.3.44-.43,2.11-1.81,3.99-3.83,5.51-6.16.12-.18.25-.34.37-.51.14-.2.31-.43.58-.35.21.06.33.33.3.52-.13.8.25,1.55.2,2.34-.02.35-.19.66-.36.97-1.33,2.42-3.05,4.53-4.98,6.48-.17.17-.38.32-.51.53-.15.24.02.38.24.47.22-.18.44-.19.68-.06.23-.12.46-.22.72-.07.04-.06.08-.07.13-.02.22-.13.43-.21.68-.07.16-.05.32-.13.49-.15,1.86-.26,3.73-.49,5.6-.77,1.69-.25,3.37-.56,5.05-.85.44-.13.87-.28,1.3-.39,4.25-1.11,8.31-2.72,12.11-4.92,1.36-.79,2.69-1.62,4.04-2.43.16-.3.46-.41.75-.52.15-.29.42-.4.7-.51.12-.29.4-.37.64-.5.06-.2.22-.28.4-.33.03-.07.08-.11.16-.11.07-.22.28-.29.43-.43.74-.68,1.6-1.22,2.27-1.99.11.02.38-.1.16.22-.14.21-.12.28-.03.29.07.01.19-.01.28-.02,2.28-2.21,4.27-4.67,6.09-7.26.15-.25.3-.51.44-.77l2.64-4.59c-.01-.07,0-.13.04-.19.02-.04.05-.07.1-.09-.02-.12.03-.21.13-.27-.02-.12.02-.21.13-.27-.02-.12.02-.21.13-.27-.02-.12.01-.21.12-.27-.03-.12.01-.21.12-.27h0c-.03-.12.01-.21.12-.27h0c.03-.1.07-.19.11-.27h0c-.03-.13,0-.22.11-.28h0c-.03-.13,0-.21.11-.28h0c-.03-.12,0-.21.11-.27h0c-.03-.12,0-.21.11-.28h0c-.03-.12,0-.22.11-.28.29-.87.58-1.74.87-2.61.29-.4.36-.89.49-1.35-.04-.04-.09-.07-.13-.08-.07-.03-.15-.03-.23,0,.06-.36.1-.73.32-1.04.07-.09.14-.18.16-.3-.05.1-.1.2-.16.3,0-.12,0-.23.13-.28-.07-.17-.03-.32.07-.47-.05-.11-.04-.2.07-.28-.02-.12,0-.23.09-.31-.02-.06-.01-.11.02-.16,0-.36.07-.7.22-1.03.01-.25.02-.51.16-.74-.05-.16.01-.31.07-.46.04-1.01.27-2,.12-3.06.36.11.67-.15.93.14l.03-.03h0Zm-48.91,41.59h0Zm46-29.02s0,.05-.01.07v-.02s.03-.04.03-.06h-.02Zm-1.85,2.72h.05-.05Zm1.96-2.74s-.06.01-.08.02c0,.02-.01.04-.02.05.02-.04.06-.06.11-.07h-.01Zm-.16.2s-.02.04-.02.07h0s.01-.05.02-.07Zm3.49-10.92h0Zm-.02.45h0Zm-2.1,3.98h.07s-.01-.03-.02-.04c-.01.01-.04.03-.05.04h0Zm.09-.79s.01-.07,0-.12v.12Z"/>
      </g>
    </g>
  </g>
  <g class="cls-16">
    <g class="cls-21">
      <g class="cls-32">
        <path class="cls-6" d="m447.57,298.49c-.04.09-.08.18-.11.27-.03-.12,0-.21.11-.27Z"/>
      </g>
    </g>
  </g>
  <path class="cls-5" d="m133.87,89.23v18.51h-10.35v-37.67h8.07l15.12,19.16v-19.16h10.35v37.67h-8.22l-14.96-18.51h0Z"/>
  <path class="cls-5" d="m163.52,107.74v-37.67h10.35v37.67h-10.35Z"/>
  <path class="cls-5" d="m207.17,98.73v9.02h-26.84v-37.67h26.36v9.02h-16.02v5.31h13.68v8.38h-13.68v5.95h16.5,0Z"/>
  <path class="cls-5" d="m252.41,107.74v-19.84l-6.31,13.95h-5.53l-6.31-13.95v19.84h-10.35v-37.67h11.29l8.12,17.72,8.18-17.72h11.25v37.67h-10.35.01Z"/>
  <path class="cls-5" d="m285.61,98.88c1.2,0,2.23-.26,3.08-.79.85-.53,1.53-1.23,2.06-2.1.53-.87.93-1.87,1.17-3,.25-1.13.37-2.32.37-3.56v-19.36h10.35v19.36c0,2.62-.34,5.08-1.01,7.36s-1.71,4.25-3.13,5.91c-1.41,1.66-3.19,2.97-5.33,3.93-2.14.95-4.66,1.43-7.56,1.43s-5.58-.5-7.72-1.51c-2.13-1.01-3.89-2.37-5.27-4.06-1.38-1.69-2.38-3.66-3.02-5.91-.64-2.24-.96-4.63-.96-7.15v-19.36h10.35v19.36c0,1.24.12,2.43.37,3.58s.64,2.16,1.16,3.03c.53.86,1.22,1.55,2.05,2.06.83.51,1.85.77,3.05.77h-.01Z"/>
  <path class="cls-5" d="m331.34,82.39c-1.06-.64-2.16-1.2-3.3-1.7-.95-.42-2.02-.82-3.21-1.19-1.18-.37-2.34-.56-3.46-.56-.92,0-1.65.14-2.21.43-.55.28-.82.76-.82,1.43,0,.5.16.91.47,1.22.32.32.78.61,1.38.88.61.26,1.34.52,2.21.77.86.25,1.85.55,2.95.9,1.73.54,3.29,1.12,4.69,1.76,1.4.63,2.59,1.38,3.58,2.25.99.86,1.75,1.92,2.28,3.15.53,1.24.8,2.74.8,4.51,0,2.26-.42,4.17-1.25,5.71-.83,1.53-1.93,2.76-3.3,3.68-1.36.92-2.9,1.58-4.62,1.99-1.71.41-3.43.61-5.17.61-1.38,0-2.8-.11-4.26-.32-1.45-.21-2.89-.51-4.32-.9s-2.81-.85-4.14-1.38c-1.33-.53-2.55-1.13-3.68-1.8l4.45-9.08c1.24.78,2.53,1.46,3.87,2.06,1.13.54,2.42,1.02,3.85,1.44,1.43.43,2.89.64,4.38.64,1.13,0,1.92-.15,2.36-.44.44-.3.66-.7.66-1.2,0-.53-.22-.99-.66-1.35-.44-.37-1.05-.69-1.83-.97-.78-.29-1.67-.57-2.67-.85-1.01-.29-2.08-.63-3.21-1.02-1.66-.57-3.1-1.17-4.3-1.82-1.2-.65-2.19-1.4-2.96-2.23-.78-.83-1.35-1.78-1.73-2.84-.37-1.06-.55-2.28-.55-3.66,0-2.09.38-3.92,1.14-5.51.76-1.6,1.79-2.93,3.09-3.98,1.31-1.06,2.81-1.86,4.48-2.41,1.68-.55,3.46-.83,5.33-.83,1.38,0,2.72.13,4.03.4,1.31.26,2.58.6,3.8,1.01s2.36.85,3.42,1.33c1.06.47,2.02.92,2.87,1.34l-4.45,8.55v-.02h0Z"/>
  <path class="cls-5" d="m341.25,107.74v-37.67h10.35v37.67h-10.35Z"/>
  <path class="cls-5" d="m380.88,82.39c-1.06-.64-2.16-1.2-3.3-1.7-.95-.42-2.02-.82-3.21-1.19-1.18-.37-2.34-.56-3.46-.56-.92,0-1.65.14-2.21.43-.55.28-.82.76-.82,1.43,0,.5.16.91.47,1.22.32.32.78.61,1.38.88.61.26,1.34.52,2.21.77.86.25,1.85.55,2.95.9,1.73.54,3.29,1.12,4.69,1.76,1.4.63,2.59,1.38,3.58,2.25.99.86,1.75,1.92,2.28,3.15.53,1.24.8,2.74.8,4.51,0,2.26-.42,4.17-1.25,5.71-.83,1.53-1.93,2.76-3.3,3.68-1.36.92-2.9,1.58-4.62,1.99-1.71.41-3.43.61-5.17.61-1.38,0-2.8-.11-4.26-.32-1.45-.21-2.89-.51-4.32-.9s-2.81-.85-4.14-1.38c-1.33-.53-2.55-1.13-3.68-1.8l4.45-9.08c1.24.78,2.53,1.46,3.87,2.06,1.13.54,2.42,1.02,3.85,1.44,1.43.43,2.89.64,4.38.64,1.13,0,1.92-.15,2.36-.44.44-.3.66-.7.66-1.2,0-.53-.22-.99-.66-1.35-.44-.37-1.05-.69-1.83-.97-.78-.29-1.67-.57-2.67-.85-1.01-.29-2.08-.63-3.21-1.02-1.66-.57-3.1-1.17-4.3-1.82-1.2-.65-2.19-1.4-2.96-2.23-.78-.83-1.35-1.78-1.73-2.84-.37-1.06-.55-2.28-.55-3.66,0-2.09.38-3.92,1.14-5.51.76-1.6,1.79-2.93,3.09-3.98,1.31-1.06,2.81-1.86,4.48-2.41,1.68-.55,3.46-.83,5.33-.83,1.38,0,2.72.13,4.03.4,1.31.26,2.58.6,3.8,1.01s2.36.85,3.42,1.33c1.06.47,2.02.92,2.87,1.34l-4.45,8.55v-.02h0Z"/>
  <path class="cls-5" d="m388.98,100.04l17.62-20.96h-16.82v-9.02h28.75v7.7l-16.54,20.96h16.87v9.02h-29.87v-7.7h0Z"/>
  <path class="cls-5" d="m458.53,82.39c-1.06-.64-2.16-1.2-3.3-1.7-.95-.42-2.02-.82-3.21-1.19-1.18-.37-2.34-.56-3.46-.56-.92,0-1.65.14-2.21.43-.55.28-.82.76-.82,1.43,0,.5.16.91.47,1.22.32.32.78.61,1.38.88.61.26,1.34.52,2.21.77.86.25,1.85.55,2.95.9,1.73.54,3.29,1.12,4.69,1.76,1.4.63,2.59,1.38,3.58,2.25.99.86,1.75,1.92,2.28,3.15.53,1.24.8,2.74.8,4.51,0,2.26-.42,4.17-1.25,5.71-.83,1.53-1.93,2.76-3.3,3.68-1.36.92-2.9,1.58-4.62,1.99-1.71.41-3.43.61-5.17.61-1.38,0-2.8-.11-4.26-.32-1.45-.21-2.89-.51-4.32-.9s-2.81-.85-4.14-1.38c-1.33-.53-2.55-1.13-3.68-1.8l4.45-9.08c1.24.78,2.53,1.46,3.87,2.06,1.13.54,2.42,1.02,3.85,1.44,1.43.43,2.89.64,4.38.64,1.13,0,1.92-.15,2.36-.44.44-.3.66-.7.66-1.2,0-.53-.22-.99-.66-1.35-.44-.37-1.05-.69-1.83-.97-.78-.29-1.67-.57-2.67-.85-1.01-.29-2.08-.63-3.21-1.02-1.66-.57-3.1-1.17-4.3-1.82-1.2-.65-2.19-1.4-2.96-2.23-.78-.83-1.35-1.78-1.73-2.84-.37-1.06-.55-2.28-.55-3.66,0-2.09.38-3.92,1.14-5.51.76-1.6,1.79-2.93,3.09-3.98,1.31-1.06,2.81-1.86,4.48-2.41,1.68-.55,3.46-.83,5.33-.83,1.38,0,2.72.13,4.03.4,1.31.26,2.58.6,3.8,1.01s2.36.85,3.42,1.33c1.06.47,2.02.92,2.87,1.34l-4.45,8.55v-.02h0Z"/>
  <path class="cls-5" d="m468.44,107.74v-37.67h10.35v37.67h-10.35Z"/>
  <path class="cls-5" d="m498.47,119.09c-2.37-.32-4.14-.98-5.29-1.97-1.14-.99-1.71-2.11-1.71-3.34,0-1.02.37-2.06,1.11-3.1s1.85-2.02,3.33-2.94h-10.66v-37.67h26.36v9.02h-16.02v5.31h13.68v8.38h-13.68v5.95h16.5v9.02h-11.25c-1.38.77-2.44,1.56-3.16,2.35-.72.8-1.08,1.55-1.08,2.27,0,.6.3,1.07.9,1.43s1.54.54,2.82.54l-1.86,4.77v-.02h.01Z"/>
  <path class="cls-5" d="m109.31,158.16l17.62-20.96h-16.82v-9.02h28.75v7.7l-16.54,20.96h16.87v9.02h-29.87v-7.7h-.01Z"/>
  <path class="cls-5" d="m140.45,165.86l14.05-37.67h8.38l14.01,37.67h-10.93l-2.28-7.37h-10.03l-2.22,7.37h-10.98Zm18.25-26.89l-3.5,12.62h6.85l-3.34-12.62h-.01Z"/>
  <path class="cls-5" d="m202.51,140.51c-1.06-.64-2.16-1.2-3.3-1.7-.95-.42-2.02-.82-3.21-1.19-1.18-.37-2.34-.56-3.46-.56-.92,0-1.65.14-2.21.43-.55.28-.82.76-.82,1.43,0,.5.16.91.47,1.22s.78.61,1.38.88c.61.26,1.34.52,2.21.77.86.25,1.85.55,2.95.9,1.73.54,3.29,1.12,4.69,1.76,1.4.63,2.59,1.38,3.58,2.25.99.86,1.75,1.92,2.28,3.15.53,1.24.8,2.74.8,4.51,0,2.26-.42,4.17-1.25,5.71-.83,1.53-1.93,2.76-3.3,3.68-1.36.92-2.9,1.58-4.62,1.99-1.71.41-3.43.61-5.17.61-1.38,0-2.8-.11-4.26-.32-1.45-.21-2.89-.51-4.32-.9-1.43-.39-2.81-.85-4.14-1.38s-2.55-1.13-3.68-1.8l4.45-9.08c1.24.78,2.53,1.46,3.87,2.06,1.13.54,2.42,1.02,3.85,1.44,1.43.43,2.89.64,4.38.64,1.13,0,1.92-.15,2.36-.44.44-.3.66-.7.66-1.2,0-.53-.22-.99-.66-1.35-.44-.37-1.05-.69-1.83-.97-.78-.29-1.67-.57-2.67-.85-1.01-.29-2.08-.63-3.21-1.02-1.66-.57-3.1-1.17-4.3-1.82-1.2-.65-2.19-1.4-2.96-2.23-.78-.83-1.35-1.78-1.73-2.84-.37-1.06-.55-2.28-.55-3.66,0-2.09.38-3.92,1.14-5.51.76-1.6,1.79-2.93,3.09-3.98,1.31-1.06,2.81-1.86,4.48-2.41,1.68-.55,3.46-.83,5.33-.83,1.38,0,2.72.13,4.03.4,1.31.26,2.58.6,3.8,1.01s2.36.85,3.42,1.33c1.06.47,2.02.92,2.87,1.34l-4.45,8.55v-.02h.01Z"/>
  <path class="cls-5" d="m241.76,137.21h-10.83v28.65h-10.35v-28.65h-10.87v-9.02h32.04v9.02h0Z"/>
  <path class="cls-5" d="m241.86,165.86l14.05-37.67h8.38l14.01,37.67h-10.93l-2.28-7.37h-10.03l-2.22,7.37h-10.98Zm18.25-26.89l-3.5,12.62h6.85l-3.34-12.62h-.01Z"/>
  <path class="cls-5" d="m291.46,147.35v18.51h-10.35v-37.67h8.07l15.12,19.16v-19.16h10.35v37.67h-8.22l-14.96-18.51h-.01Z"/>
  <path class="cls-5" d="m317.44,165.86l14.05-37.67h8.38l14.01,37.67h-10.93l-2.28-7.37h-10.03l-2.22,7.37h-10.98Zm18.25-26.89l-3.5,12.62h6.85l-3.34-12.62h-.01Z"/>
  <path class="cls-5" d="m368.73,128.19h9.49l3.3,11.62,3.34-11.62h9.49l-6.21,17.98,2.71,7.85,8.12-25.83h11.25l-14.75,37.67h-8.6l-5.36-13.47-5.31,13.47h-8.6l-14.75-37.67h11.2l8.16,25.83,2.6-7.85-6.1-17.98h.02Z"/>
  <path class="cls-5" d="m412.86,165.86v-37.67h10.35v37.67h-10.35Z"/>
  <path class="cls-5" d="m426.02,165.86l14.05-37.67h8.38l14.01,37.67h-10.93l-2.28-7.37h-10.03l-2.22,7.37h-10.98Zm18.25-26.89l-3.5,12.62h6.85l-3.34-12.62h-.01Z"/>
  <path class="cls-5" d="m463.19,146.72c0-2.3.41-4.57,1.22-6.8s2.01-4.23,3.58-5.99c1.57-1.77,3.48-3.19,5.73-4.29,2.24-1.09,4.8-1.64,7.66-1.64,3.36,0,6.3.75,8.81,2.25s4.36,3.49,5.56,5.96l-7.9,5.62c-.32-.92-.74-1.68-1.25-2.28s-1.07-1.07-1.68-1.43c-.6-.36-1.23-.61-1.91-.74-.67-.14-1.29-.22-1.86-.22-1.3,0-2.43.29-3.37.88-.94.58-1.71,1.35-2.34,2.29-.62.94-1.06,2-1.34,3.18s-.42,2.36-.42,3.52c0,1.31.17,2.57.5,3.78.34,1.2.83,2.26,1.47,3.18.65.92,1.45,1.65,2.39,2.21.94.55,2.01.82,3.21.82.61,0,1.23-.08,1.86-.24.64-.16,1.25-.42,1.83-.79s1.11-.85,1.58-1.44c.48-.58.86-1.3,1.15-2.15l8.43,5.04c-.53,1.38-1.33,2.62-2.41,3.72-1.08,1.1-2.31,2.01-3.69,2.76-1.38.74-2.84,1.31-4.4,1.7s-3.08.59-4.56.59c-2.62,0-5.03-.55-7.23-1.67-2.19-1.12-4.07-2.6-5.65-4.44-1.57-1.84-2.79-3.92-3.68-6.26-.89-2.34-1.33-4.71-1.33-7.11h.04Zm21.28-20.12l-6.37-1.69,2.65-7.53h8.97l-5.25,9.22Z"/>
  <path class="cls-5" d="m512.36,149.94v-22.12h10.08v22.12h-10.08Zm0,15.92v-9.76h10.08v9.76h-10.08Z"/>
  <path class="cls-6" d="m18.68,242.95v-17.43h6.7c1.44,0,2.7.23,3.8.7,1.1.46,2.02,1.08,2.76,1.86.73.79,1.29,1.7,1.67,2.76.37,1.05.56,2.18.56,3.38,0,1.33-.21,2.53-.62,3.6-.42,1.07-1.01,1.99-1.79,2.76-.77.76-1.69,1.35-2.77,1.76-1.08.42-2.28.62-3.61.62h-6.7Zm10.63-8.74c0-.67-.09-1.28-.28-1.83-.18-.56-.43-1.03-.77-1.43s-.75-.71-1.25-.92c-.49-.22-1.04-.34-1.64-.34h-1.92v9.09h1.92c.62,0,1.18-.11,1.67-.35.49-.23.91-.55,1.25-.96s.59-.89.76-1.44c.17-.56.26-1.17.26-1.82h0Z"/>
  <path class="cls-6" d="m36.28,242.95v-17.43h8.01c.85,0,1.63.18,2.35.53.72.35,1.33.81,1.85,1.38.52.56.93,1.21,1.22,1.94s.44,1.46.44,2.19c0,1.02-.22,1.96-.67,2.84-.44.87-1.05,1.58-1.83,2.13l3.93,6.41h-5.41l-3.31-5.35h-1.8v5.35h-4.78Zm4.78-9.53h3.02c.29,0,.57-.16.83-.49.25-.33.38-.78.38-1.37s-.15-1.07-.44-1.39c-.3-.32-.59-.48-.89-.48h-2.9s0,3.73,0,3.73Z"/>
  <path class="cls-6" d="m51.43,242.95l6.5-17.43h3.88l6.49,17.43h-5.06l-1.05-3.42h-4.64l-1.03,3.42h-5.09Zm8.44-12.44l-1.62,5.84h3.16l-1.55-5.84h0Z"/>
  <path class="cls-6" d="m80.44,241.52c-1.1,1.03-2.36,1.55-3.8,1.55-1.08,0-2.1-.24-3.07-.72-.97-.49-1.82-1.14-2.54-1.95-.73-.82-1.31-1.77-1.74-2.85-.43-1.09-.64-2.24-.64-3.45s.22-2.37.65-3.43c.44-1.05,1.04-1.97,1.8-2.75s1.65-1.4,2.69-1.85c1.03-.45,2.14-.67,3.32-.67.73,0,1.44.09,2.11.26s1.29.42,1.86.76c.58.34,1.08.74,1.53,1.2.46.46.83.99,1.13,1.58l-3.56,2.72c-.3-.69-.74-1.24-1.34-1.65-.6-.41-1.23-.62-1.91-.62-.49,0-.94.12-1.37.35-.42.22-.78.55-1.08.96s-.53.9-.71,1.46c-.17.56-.25,1.17-.25,1.85s.08,1.31.25,1.87c.17.55.41,1.03.72,1.44.31.4.68.71,1.11.94.44.22.92.32,1.45.32.58,0,1.14-.15,1.69-.44.55-.29,1.07-.72,1.55-1.27h-3.07v-3.44h7.17v9.28h-3.96v-1.45h0Z"/>
  <path class="cls-6" d="m94.13,243.09c-1.24,0-2.37-.25-3.39-.76s-1.9-1.18-2.64-2c-.73-.83-1.29-1.78-1.69-2.84s-.6-2.16-.6-3.28.21-2.24.62-3.31c.42-1.07,1.01-2.01,1.76-2.82.75-.81,1.64-1.45,2.66-1.93,1.02-.49,2.15-.73,3.38-.73s2.37.26,3.39.77c1.02.5,1.9,1.17,2.63,2.01.73.83,1.29,1.78,1.68,2.84.4,1.06.6,2.15.6,3.26s-.21,2.25-.64,3.31c-.42,1.05-.99,1.99-1.73,2.79-.74.81-1.62,1.46-2.65,1.95-1.03.49-2.16.73-3.39.73h.01Zm-3.45-8.84c0,.59.07,1.16.2,1.71s.35,1.03.65,1.45c.29.43.66.77,1.1,1.03.45.26.96.4,1.55.4s1.13-.13,1.57-.41c.45-.27.81-.62,1.08-1.05.28-.43.49-.92.62-1.47.14-.56.22-1.13.22-1.7s-.08-1.16-.23-1.7c-.14-.55-.36-1.03-.65-1.45-.28-.41-.64-.75-1.09-1.01-.44-.25-.96-.38-1.55-.38s-1.12.13-1.56.4c-.43.26-.79.61-1.08,1.04s-.5.92-.64,1.47-.2,1.1-.2,1.68h0Z"/>
  <path class="cls-6" d="m109.37,234.37v8.57h-4.78v-17.43h3.73l7,8.86v-8.86h4.78v17.43h-3.8l-6.93-8.57Z"/>
  <path class="cls-6" d="m139.18,231.21c-.5-.29-1-.55-1.52-.78-.45-.2-.95-.38-1.5-.55s-1.08-.26-1.59-.26c-.43,0-.78.07-1.03.2-.25.13-.37.35-.37.66,0,.22.07.41.22.56.15.14.36.28.64.41.28.12.62.24,1.02.36.41.11.86.25,1.37.41.8.25,1.52.52,2.17.82.65.29,1.2.64,1.65,1.04.46.4.82.89,1.05,1.46.25.57.37,1.26.37,2.09,0,1.05-.19,1.93-.58,2.64-.38.71-.89,1.28-1.52,1.7-.63.43-1.34.73-2.13.92-.79.18-1.59.28-2.4.28-.63,0-1.28-.05-1.95-.14s-1.34-.23-2-.41c-.67-.18-1.3-.4-1.92-.65s-1.18-.53-1.7-.84l2.06-4.2c.57.36,1.16.68,1.79.96.53.25,1.12.47,1.79.67.66.19,1.34.29,2.03.29.52,0,.88-.07,1.08-.2.21-.14.31-.33.31-.56s-.1-.44-.31-.61c-.2-.17-.48-.33-.84-.46s-.78-.27-1.25-.4c-.46-.13-.96-.29-1.47-.47-.78-.26-1.44-.55-2-.85-.55-.3-1.01-.65-1.37-1.03s-.63-.82-.8-1.31c-.17-.49-.25-1.06-.25-1.7,0-.97.17-1.82.53-2.55.35-.73.83-1.35,1.44-1.83.61-.49,1.3-.87,2.07-1.11.77-.25,1.6-.38,2.47-.38.64,0,1.26.06,1.86.18.61.12,1.19.28,1.76.47.57.19,1.09.39,1.58.61s.93.43,1.33.62l-2.06,3.96-.03-.02Z"/>
  <path class="cls-6" d="m142.81,234.09c0-1.06.19-2.11.56-3.14s.93-1.95,1.65-2.77c.73-.82,1.62-1.49,2.66-1.99,1.04-.51,2.22-.77,3.55-.77,1.55,0,2.9.35,4.06,1.04,1.17.7,2.03,1.62,2.59,2.76l-3.67,2.6c-.14-.42-.34-.77-.58-1.05-.23-.28-.49-.5-.77-.66-.28-.17-.58-.28-.89-.35-.31-.06-.6-.1-.86-.1-.6,0-1.12.14-1.56.41-.43.27-.79.62-1.08,1.05s-.5.92-.62,1.47c-.13.55-.19,1.09-.19,1.63,0,.61.07,1.19.23,1.75.15.55.38,1.04.68,1.46.3.43.67.76,1.1,1.02.44.26.94.38,1.49.38.28,0,.57-.04.86-.11s.58-.19.85-.36.52-.4.73-.67c.22-.27.4-.6.53-1l3.91,2.33c-.25.64-.62,1.22-1.13,1.73-.5.5-1.06.93-1.7,1.27-.64.34-1.32.61-2.04.79-.72.17-1.42.26-2.11.26-1.21,0-2.32-.25-3.33-.77-1.02-.52-1.89-1.2-2.63-2.05-.73-.85-1.29-1.82-1.7-2.9s-.61-2.17-.61-3.28l.02.02h0Z"/>
  <path class="cls-6" d="m158.15,242.95l6.5-17.43h3.88l6.49,17.43h-5.06l-1.05-3.42h-4.64l-1.03,3.42h-5.09Zm8.44-12.44l-1.62,5.84h3.16l-1.55-5.84h0Z"/>
  <path class="cls-6" d="m176.31,242.95v-17.43h7.52c.85,0,1.63.18,2.35.53s1.33.81,1.85,1.38c.52.56.93,1.21,1.22,1.94.29.73.44,1.46.44,2.19s-.14,1.52-.42,2.24c-.28.73-.67,1.38-1.16,1.94-.5.57-1.1,1.02-1.82,1.35-.71.34-1.49.5-2.34.5h-2.85v5.35h-4.79Zm4.78-9.53h2.53c.29,0,.57-.13.83-.4.25-.27.38-.76.38-1.46s-.15-1.21-.44-1.47c-.3-.26-.59-.4-.89-.4h-2.41v3.73Z"/>
  <path class="cls-6" d="m203.95,238.77v4.17h-12.42v-17.43h12.2v4.17h-7.42v2.46h6.34v3.87h-6.34v2.76h7.64Z"/>
  <path class="cls-6" d="m418.36,242.95v-17.43h6.7c1.44,0,2.7.23,3.8.7,1.1.46,2.02,1.08,2.76,1.86.73.79,1.29,1.7,1.67,2.76.37,1.05.56,2.18.56,3.38,0,1.33-.21,2.53-.62,3.6-.42,1.07-1.01,1.99-1.79,2.76-.77.76-1.69,1.35-2.77,1.76-1.08.42-2.28.62-3.61.62h-6.7Zm10.63-8.74c0-.67-.09-1.28-.28-1.83-.18-.56-.43-1.03-.77-1.43s-.75-.71-1.25-.92c-.49-.22-1.04-.34-1.64-.34h-1.92v9.09h1.92c.62,0,1.18-.11,1.67-.35.49-.23.91-.55,1.25-.96s.59-.89.76-1.44c.17-.56.26-1.17.26-1.82h0Z"/>
  <path class="cls-6" d="m435.96,242.95v-17.43h8.01c.85,0,1.63.18,2.35.53s1.33.81,1.85,1.38c.52.56.93,1.21,1.22,1.94s.44,1.46.44,2.19c0,1.02-.22,1.96-.67,2.84-.44.87-1.05,1.58-1.83,2.13l3.93,6.41h-5.41l-3.31-5.35h-1.8v5.35h-4.78Zm4.78-9.53h3.02c.29,0,.57-.16.83-.49.25-.33.38-.78.38-1.37s-.15-1.07-.44-1.39c-.3-.32-.59-.48-.89-.48h-2.9v3.73h0Z"/>
  <path class="cls-6" d="m451.11,242.95l6.5-17.43h3.88l6.49,17.43h-5.06l-1.05-3.42h-4.64l-1.03,3.42h-5.09Zm8.44-12.44l-1.62,5.84h3.16l-1.55-5.84h0Z"/>
  <path class="cls-6" d="m480.12,241.52c-1.1,1.03-2.36,1.55-3.8,1.55-1.08,0-2.1-.24-3.07-.72-.97-.49-1.82-1.14-2.54-1.95-.73-.82-1.31-1.77-1.74-2.85-.43-1.09-.64-2.24-.64-3.45s.22-2.37.65-3.43c.44-1.05,1.04-1.97,1.8-2.75.76-.78,1.65-1.4,2.69-1.85,1.03-.45,2.14-.67,3.32-.67.73,0,1.44.09,2.11.26.67.17,1.29.42,1.86.76.58.34,1.08.74,1.53,1.2.46.46.83.99,1.13,1.58l-3.56,2.72c-.3-.69-.74-1.24-1.34-1.65-.6-.41-1.23-.62-1.91-.62-.49,0-.94.12-1.37.35-.42.22-.78.55-1.08.96s-.53.9-.71,1.46c-.17.56-.25,1.17-.25,1.85s.08,1.31.25,1.87c.17.55.41,1.03.72,1.44.31.4.68.71,1.11.94.44.22.92.32,1.45.32.58,0,1.14-.15,1.69-.44.55-.29,1.07-.72,1.55-1.27h-3.07v-3.44h7.17v9.28h-3.96v-1.45h.01Z"/>
  <path class="cls-6" d="m493.81,243.09c-1.24,0-2.37-.25-3.39-.76-1.02-.51-1.9-1.18-2.64-2-.73-.83-1.29-1.78-1.69-2.84s-.6-2.16-.6-3.28.21-2.24.62-3.31c.42-1.07,1.01-2.01,1.76-2.82.75-.81,1.64-1.45,2.66-1.93,1.02-.49,2.15-.73,3.38-.73s2.37.26,3.39.77c1.02.5,1.9,1.17,2.63,2.01.73.83,1.29,1.78,1.68,2.84.4,1.06.6,2.15.6,3.26s-.21,2.25-.64,3.31c-.42,1.05-.99,1.99-1.73,2.79-.74.81-1.62,1.46-2.65,1.95-1.03.49-2.16.73-3.39.73h.01Zm-3.45-8.84c0,.59.07,1.16.2,1.71s.35,1.03.65,1.45c.29.43.66.77,1.1,1.03.45.26.96.4,1.55.4s1.13-.13,1.57-.41c.45-.27.81-.62,1.08-1.05.28-.43.49-.92.62-1.47.14-.56.22-1.13.22-1.7s-.08-1.16-.23-1.7c-.14-.55-.36-1.03-.65-1.45-.28-.41-.64-.75-1.09-1.01-.44-.25-.96-.38-1.55-.38s-1.12.13-1.56.4c-.43.26-.79.61-1.08,1.04s-.5.92-.64,1.47-.2,1.1-.2,1.68h.01Z"/>
  <path class="cls-6" d="m509.05,234.37v8.57h-4.78v-17.43h3.73l7,8.86v-8.86h4.78v17.43h-3.8l-6.93-8.57h0Z"/>
  <path class="cls-6" d="m533.34,231.21c-.5-.29-1-.55-1.52-.78-.45-.2-.95-.38-1.5-.55s-1.08-.26-1.59-.26c-.43,0-.78.07-1.03.2-.25.13-.37.35-.37.66,0,.22.07.41.22.56.15.14.36.28.64.41.28.12.62.24,1.02.36.41.11.86.25,1.37.41.8.25,1.52.52,2.17.82.65.29,1.2.64,1.65,1.04.46.4.82.89,1.05,1.46.25.57.37,1.26.37,2.09,0,1.05-.19,1.93-.58,2.64-.38.71-.89,1.28-1.52,1.7-.63.43-1.34.73-2.13.92-.79.18-1.59.28-2.4.28-.63,0-1.28-.05-1.95-.14s-1.34-.23-2-.41c-.67-.18-1.3-.4-1.92-.65s-1.18-.53-1.7-.84l2.06-4.2c.57.36,1.16.68,1.79.96.53.25,1.12.47,1.79.67.66.19,1.34.29,2.03.29.52,0,.88-.07,1.08-.2.21-.14.31-.33.31-.56s-.1-.44-.31-.61c-.2-.17-.48-.33-.84-.46-.36-.13-.78-.27-1.25-.4-.46-.13-.96-.29-1.47-.47-.78-.26-1.44-.55-2-.85-.55-.3-1.01-.65-1.37-1.03s-.63-.82-.8-1.31c-.17-.49-.25-1.06-.25-1.7,0-.97.17-1.82.53-2.55.35-.73.83-1.35,1.44-1.83.61-.49,1.3-.87,2.07-1.11.77-.25,1.6-.38,2.47-.38.64,0,1.26.06,1.86.18.61.12,1.19.28,1.76.47s1.09.39,1.58.61.93.43,1.33.62l-2.06,3.96-.03-.02h0Z"/>
  <path class="cls-6" d="m542.49,234.09c0-1.06.19-2.11.56-3.14s.93-1.95,1.65-2.77c.73-.82,1.62-1.49,2.66-1.99,1.04-.51,2.22-.77,3.55-.77,1.55,0,2.9.35,4.06,1.04,1.17.7,2.03,1.62,2.59,2.76l-3.67,2.6c-.14-.42-.34-.77-.58-1.05-.23-.28-.49-.5-.77-.66-.28-.17-.58-.28-.89-.35-.31-.06-.6-.1-.86-.1-.6,0-1.12.14-1.56.41-.43.27-.79.62-1.08,1.05s-.5.92-.62,1.47c-.13.55-.19,1.09-.19,1.63,0,.61.07,1.19.23,1.75.15.55.38,1.04.68,1.46.3.43.67.76,1.1,1.02.44.26.94.38,1.49.38.28,0,.57-.04.86-.11s.58-.19.85-.36c.27-.17.52-.4.73-.67.22-.27.4-.6.53-1l3.91,2.33c-.25.64-.62,1.22-1.13,1.73-.5.5-1.06.93-1.7,1.27-.64.34-1.32.61-2.04.79-.72.17-1.42.26-2.11.26-1.21,0-2.32-.25-3.33-.77-1.02-.52-1.89-1.2-2.63-2.05-.73-.85-1.29-1.82-1.7-2.9s-.61-2.17-.61-3.28l.02.02h0Z"/>
  <path class="cls-6" d="m557.83,242.95l6.5-17.43h3.88l6.49,17.43h-5.06l-1.05-3.42h-4.64l-1.03,3.42h-5.09,0Zm8.44-12.44l-1.62,5.84h3.16l-1.55-5.84h.01Z"/>
  <path class="cls-6" d="m575.99,242.95v-17.43h7.52c.85,0,1.63.18,2.35.53s1.33.81,1.85,1.38c.52.56.93,1.21,1.22,1.94s.44,1.46.44,2.19-.14,1.52-.42,2.24c-.28.73-.67,1.38-1.16,1.94-.5.57-1.1,1.02-1.82,1.35-.71.34-1.49.5-2.34.5h-2.85v5.35h-4.79Zm4.78-9.53h2.53c.29,0,.57-.13.83-.4.25-.27.38-.76.38-1.46s-.15-1.21-.44-1.47c-.3-.26-.59-.4-.89-.4h-2.41v3.73h0Z"/>
  <path class="cls-6" d="m603.63,238.77v4.17h-12.42v-17.43h12.2v4.17h-7.42v2.46h6.34v3.87h-6.34v2.76h7.64,0Z"/>
  <path class="cls-5" d="m260.22,233.87c0-2.3.41-4.57,1.22-6.8s2.01-4.23,3.58-5.99c1.57-1.77,3.48-3.19,5.73-4.29,2.24-1.09,4.8-1.64,7.66-1.64,3.36,0,6.3.75,8.81,2.25s4.36,3.49,5.56,5.96l-7.9,5.62c-.32-.92-.74-1.68-1.25-2.28s-1.07-1.07-1.68-1.43c-.6-.36-1.23-.61-1.91-.74-.67-.14-1.29-.22-1.86-.22-1.3,0-2.43.29-3.37.88-.94.58-1.71,1.35-2.34,2.29-.62.94-1.06,2-1.34,3.18s-.42,2.36-.42,3.52c0,1.31.17,2.57.5,3.78.34,1.2.83,2.26,1.47,3.18.65.92,1.45,1.65,2.39,2.21.94.55,2.01.82,3.21.82.61,0,1.23-.08,1.86-.24.64-.16,1.25-.42,1.83-.79s1.11-.85,1.58-1.44c.48-.58.86-1.3,1.15-2.15l8.43,5.04c-.53,1.38-1.33,2.62-2.41,3.72-1.08,1.1-2.31,2.01-3.69,2.76-1.38.74-2.84,1.31-4.4,1.7s-3.08.59-4.56.59c-2.62,0-5.03-.55-7.23-1.67-2.19-1.12-4.07-2.6-5.65-4.44-1.57-1.84-2.79-3.92-3.68-6.26-.89-2.34-1.33-4.71-1.33-7.11h.04Z"/>
  <path class="cls-5" d="m295.22,245.32l17.62-20.96h-16.82v-9.02h28.75v7.7l-16.54,20.96h16.87v9.02h-29.87v-7.7h0Z"/>
  <path class="cls-5" d="m337.29,215.35l6.74,16.29,6.89-16.29h11.25l-13,25.2v12.47h-10.29v-12.58l-12.79-25.09h11.2Z"/>
  <path class="cls-5" d="m792.35,176.43h-11.82v31.29h-11.3v-31.29h-11.87v-9.84h34.99v9.84Z"/>
  <path class="cls-5" d="m825.77,197.87v9.84h-29.31v-41.13h28.79v9.84h-17.49v5.8h14.94v9.15h-14.94v6.49h18.01Z"/>
  <path class="cls-5" d="m831.03,207.72v-41.13h18.88c2.02,0,3.87.42,5.56,1.26,1.7.83,3.16,1.91,4.37,3.25,1.22,1.33,2.18,2.85,2.87,4.57.7,1.72,1.05,3.45,1.05,5.18,0,2.39-.52,4.62-1.57,6.69-1.04,2.07-2.48,3.76-4.33,5.07l9.27,15.12h-12.75l-7.82-12.63h-4.23v12.63h-11.3Zm11.3-22.48h7.12c.7,0,1.34-.38,1.94-1.15.6-.78.9-1.86.9-3.25s-.35-2.52-1.05-3.27c-.69-.76-1.38-1.14-2.08-1.14h-6.83v8.81Z"/>
  <path class="cls-5" d="m866.77,207.72l15.34-41.13h9.15l15.3,41.13h-11.94l-2.49-8.05h-10.96l-2.42,8.05h-11.99,0Zm19.92-29.36l-3.82,13.79h7.48l-3.65-13.79h0Z"/>
  <path class="cls-5" d="m907.65,199.31l19.24-22.88h-18.37v-9.84h31.39v8.4l-18.07,22.88h18.42v9.84h-32.62v-8.4h.01Z"/>
  <path class="cls-5" d="m957.01,207.72c0-1.93.15-3.63.46-5.09.3-1.47.81-2.79,1.51-3.97.7-1.18,1.6-2.23,2.7-3.15,1.1-.93,2.46-1.85,4.08-2.74,2.08-1.12,3.73-2.01,4.95-2.68,1.22-.68,2.14-1.23,2.75-1.65.62-.43,1.01-.79,1.19-1.07.17-.29.26-.62.26-.96,0-.97-.31-1.68-.93-2.15-.62-.46-1.47-.69-2.55-.69-1.28,0-2.48.33-3.63.98-1.14.65-2.32,1.71-3.55,3.18l-6.95-8.17c.73-.8,1.68-1.54,2.83-2.21,1.16-.68,2.44-1.26,3.85-1.74,1.41-.49,2.91-.87,4.49-1.14,1.59-.27,3.21-.41,4.87-.41,4.44,0,7.81.92,10.11,2.75s3.46,4.4,3.46,7.68c0,1.2-.16,2.26-.47,3.18-.31.93-.72,1.77-1.24,2.53-.52.75-1.15,1.44-1.89,2.06-.73.61-1.5,1.19-2.3,1.73-.97.65-1.99,1.28-3.05,1.89-1.06.6-2.11,1.27-3.15,2h12.75v9.84h-30.55Z"/>
  <path class="cls-5" d="m1006.47,207.72v-41.13h11.3v31.29h18.66v9.84h-29.96,0Z"/>
  <path class="cls-5" d="m1057.97,208.07c-2.93,0-5.61-.6-8.02-1.79-2.42-1.2-4.49-2.78-6.21-4.73-1.71-1.95-3.04-4.18-3.99-6.69-.94-2.51-1.41-5.1-1.41-7.76s.49-5.31,1.47-7.82c.99-2.51,2.37-4.73,4.15-6.64s3.88-3.43,6.28-4.57c2.42-1.14,5.07-1.71,7.97-1.71s5.6.6,8.01,1.79c2.42,1.2,4.48,2.78,6.21,4.75,1.72,1.96,3.04,4.2,3.97,6.72.92,2.51,1.39,5.07,1.39,7.7s-.49,5.31-1.48,7.8c-.98,2.49-2.34,4.69-4.08,6.6s-3.82,3.45-6.26,4.61c-2.43,1.16-5.09,1.74-7.99,1.74h-.01Zm-8.17-20.85c0,1.39.16,2.73.48,4.02.33,1.29.84,2.44,1.53,3.44.7,1,1.56,1.82,2.61,2.43,1.05.62,2.27.93,3.67.93s2.65-.32,3.69-.96c1.05-.63,1.9-1.47,2.55-2.49.66-1.03,1.16-2.2,1.48-3.51.33-1.31.5-2.64.5-3.99s-.18-2.74-.52-4.03c-.35-1.29-.86-2.43-1.53-3.42s-1.53-1.77-2.58-2.37c-1.04-.6-2.26-.9-3.65-.9s-2.65.31-3.68.93c-1.02.62-1.87,1.44-2.55,2.46-.67,1.02-1.17,2.18-1.51,3.48-.32,1.29-.48,2.61-.48,3.97h0Z"/>
  <path class="cls-5" d="m1108.24,204.35c-2.59,2.43-5.59,3.65-8.98,3.65-2.55,0-4.96-.57-7.24-1.7-2.28-1.14-4.28-2.68-6-4.61-1.72-1.93-3.08-4.18-4.08-6.74-1-2.57-1.51-5.29-1.51-8.14s.51-5.59,1.53-8.08,2.43-4.66,4.23-6.49c1.8-1.84,3.91-3.29,6.34-4.35,2.43-1.06,5.04-1.6,7.83-1.6,1.73,0,3.39.21,4.97.62,1.59.4,3.06,1,4.41,1.79s2.56,1.73,3.61,2.84c1.06,1.1,1.94,2.34,2.64,3.73l-8.4,6.43c-.7-1.62-1.75-2.92-3.17-3.9-1.41-.99-2.9-1.48-4.48-1.48-1.16,0-2.24.27-3.22.81s-1.83,1.3-2.54,2.26c-.72.96-1.28,2.11-1.69,3.44-.4,1.33-.6,2.79-.6,4.37s.2,3.08.6,4.4c.41,1.31.98,2.44,1.71,3.39.73.94,1.61,1.68,2.63,2.2,1.03.52,2.16.79,3.39.79,1.39,0,2.73-.35,4.02-1.05,1.3-.7,2.51-1.7,3.63-3.01h-7.24v-8.12h16.91v21.9h-9.32v-3.36h.02,0Z"/>
  <path class="cls-5" d="m1140.56,208.07c-2.93,0-5.61-.6-8.02-1.79-2.42-1.2-4.49-2.78-6.21-4.73-1.71-1.95-3.04-4.18-3.99-6.69-.94-2.51-1.41-5.1-1.41-7.76s.49-5.31,1.47-7.82c.99-2.51,2.37-4.73,4.15-6.64s3.88-3.43,6.28-4.57c2.42-1.14,5.07-1.71,7.97-1.71s5.6.6,8.01,1.79c2.42,1.2,4.48,2.78,6.21,4.75,1.72,1.96,3.04,4.2,3.97,6.72.92,2.51,1.39,5.07,1.39,7.7s-.49,5.31-1.48,7.8c-.98,2.49-2.34,4.69-4.08,6.6s-3.82,3.45-6.26,4.61c-2.43,1.16-5.09,1.74-7.99,1.74h-.01Zm-8.17-20.85c0,1.39.16,2.73.48,4.02.33,1.29.84,2.44,1.53,3.44.7,1,1.56,1.82,2.61,2.43,1.05.62,2.27.93,3.67.93s2.65-.32,3.69-.96c1.05-.63,1.9-1.47,2.55-2.49.66-1.03,1.16-2.2,1.48-3.51.33-1.31.5-2.64.5-3.99s-.18-2.74-.52-4.03c-.35-1.29-.86-2.43-1.53-3.42s-1.53-1.77-2.58-2.37c-1.04-.6-2.26-.9-3.65-.9s-2.65.31-3.68.93c-1.02.62-1.87,1.44-2.55,2.46-.67,1.02-1.17,2.18-1.51,3.48-.32,1.29-.48,2.61-.48,3.97h0Z"/>
  <path class="cls-5" d="m831.81,230.05h10.37l3.6,12.69,3.65-12.69h10.37l-6.78,19.64,2.96,8.57,8.86-28.21h12.28l-16.1,41.13h-9.39l-5.85-14.71-5.8,14.71h-9.39l-16.1-41.13h12.23l8.92,28.21,2.84-8.57-6.66-19.64h-.01Z"/>
  <path class="cls-5" d="m890.77,250.28c0-2.51.45-4.99,1.34-7.42s2.19-4.61,3.91-6.55c1.72-1.93,3.8-3.49,6.26-4.69,2.45-1.19,5.24-1.79,8.37-1.79,3.67,0,6.88.82,9.62,2.46s4.77,3.81,6.07,6.51l-8.63,6.14c-.35-1-.81-1.83-1.36-2.49-.56-.65-1.17-1.17-1.83-1.56-.65-.39-1.35-.66-2.08-.81-.73-.16-1.41-.24-2.03-.24-1.42,0-2.65.32-3.68.96-1.02.64-1.87,1.47-2.55,2.5-.67,1.02-1.16,2.18-1.47,3.47-.31,1.29-.46,2.58-.46,3.85,0,1.43.18,2.81.55,4.12.37,1.31.9,2.47,1.61,3.47.71,1,1.58,1.81,2.61,2.41,1.03.6,2.2.89,3.51.89.66,0,1.34-.09,2.03-.26.7-.17,1.36-.46,2-.86.63-.41,1.21-.93,1.73-1.57.52-.63.94-1.42,1.26-2.34l9.2,5.5c-.58,1.51-1.45,2.86-2.63,4.06s-2.52,2.2-4.03,3.01c-1.5.81-3.1,1.43-4.8,1.86s-3.36.64-4.97.64c-2.86,0-5.5-.61-7.89-1.82-2.39-1.22-4.45-2.83-6.17-4.84-1.71-2.01-3.05-4.28-4.02-6.83-.97-2.56-1.45-5.14-1.45-7.76l-.02-.02h0Z"/>
  <path class="cls-5" d="m960.28,261.34v9.84h-29.31v-41.13h28.79v9.84h-17.49v5.8h14.94v9.15h-14.94v6.49h18.01Z"/>
  <path class="cls-5" d="m976.85,250.97v20.21h-11.3v-41.13h8.81l16.51,20.92v-20.92h11.3v41.13h-8.98l-16.34-20.21Z"/>
  <path class="cls-5" d="m1009.22,271.18v-41.13h11.3v41.13h-11.3Z"/>
  <path class="cls-5" d="m1056.89,261.34v9.84h-29.31v-41.13h28.79v9.84h-17.49v5.8h14.94v9.15h-14.94v6.49h18.01Z"/>
  <path class="cls-5" d="m1101.95,261.34v9.84h-26.81v-9.84h8.22v-11.53c-.35.46-.89.92-1.62,1.36s-1.55.86-2.46,1.26c-.91.39-1.83.69-2.75.93-.93.23-1.76.34-2.5.34v-10.08c.54,0,1.3-.2,2.26-.6.97-.41,1.93-.89,2.89-1.45.97-.57,1.85-1.17,2.63-1.81.79-.63,1.31-1.18,1.54-1.65h11.23v23.24h7.37Z"/>
  <g class="cls-20">
    <path class="cls-6" d="m982.09,557.01c-2.07-1.42-4.9-.88-6.32,1.19l-.35.52-.36.52-.36.52-.36.54-.36.54-.35.52-.35.52-.36.54-.36.54-.69,1.05-.36.54-.35.54-.34.53-.34.53-.36.55-.35.55-.34.53-.33.53-.35.55-.34.56-.33.53-.33.53-.34.55-.33.55-.33.55-.65,1.1-.32.55-.32.55-.32.55-.32.56-.63,1.12-.31.56-.31.56-.61,1.12-.61,1.13-.3.57-.3.57-.29.57-.25.48v-.33l.03-.45.02-.45.02-.46.02-.46.1-2.73.03-.93.05-1.36v-.45l.05-.91.02-.46v-.46l.1-2.73.03-.94v-.46l.16-5.91v-.45l.02-.46v-.45l.02-.46v-.45l.03-.91.1-4.09v-.47l.02-.47.05-2.73v-1.36s.01-.45.01-.45l.06-3.18v-.45l.02-.45v-1.36s.01-.46.01-.46v-.45s.01-.45.01-.45v-.45s.01-.45.01-.45v-.45s.01-.45.01-.45v-.45s.03-.94.03-.94v-.91l.02-1.36v-.46l.02-.91v-1.81s.01-.91.01-.91v-.45s.01-.91.01-.91v-.45s.01-.91.01-.91v-.46s.03-1.36.03-1.36v-.45l.02-1.36v-1.37s.01-2.73.01-2.73v-.45s.03-2.28.03-2.28v-.45l.03-2.28v-.45l.03-2.28v-1.82s.01-.91.01-.91l.02-1.36v-1.36l.02-.45.04-3.64v-2.72l.03-1.36v-1.36s.03-1.36.03-1.36v-2.26s.03-.45.03-.45v-.91l.02-.45v-1.36s.01-.45.01-.45l.03-1.36v-1.36s.01-.45.01-.45v-.45s.01-.45.01-.45v-.46s.04-1.36.04-1.36v-.91l.04-1.36v-.45l.02-.45v-1.36s.03-.45.03-.45v-.45l.02-.45v-.46l.02-.45.02-.91v-.45l.02-.45v-.45l.04-1.37v-.45l.02-.45.02-.9.07-2.73.02-.9.03-.91.03-.91v-.46l.03-.45v-.45l.03-.45v-.45l.03-.45v-.46l.03-.45v-.46l.03-.45.03-.9.1-2.73v-.45l.03-.45.11-2.73v-.45l.03-.45.04-.91.02-.45.04-.91.02-.45.04-.89.02-.45.02-.46.02-.45.04-.91.02-.46.02-.45.02-.45.14-2.73.02-.45.03-.44.05-.91.03-.45.08-1.36.02-.45.03-.44.03-.45.03-.45.05-.91.03-.45.05-.91c.15-2.51-1.76-4.66-4.26-4.81-2.51-.15-4.66,1.76-4.81,4.26l-.03.45-.03.45-.03.45-.03.45-.03.45-.03.45-.03.45-.03.47-.02.47-.03.45-.08,1.36-.03.45-.02.45-.03.47-.02.46-.03.45-.02.46-.02.45-.02.45-.02.46-.02.45-.02.46-.02.46-.02.45-.04.91-.02.45-.02.45-.02.45-.02.47-.02.46-.02.45-.02.45-.08,1.82-.02.46-.02.46-.02.46-.07,1.82-.02.45-.02.46-.02.47-.06,1.82-.02.45v.45l-.03.46v.46l-.1,2.73v.46l-.03.46-.04,1.37v.45l-.03.45v.45l-.03.46v.46l-.02.45-.06,2.27-.02.92-.04,1.82v.45l-.02.45-.02.92v.45l-.02.45v.45l-.02.45v.46l-.02.45v.46l-.02.46-.04,2.27v1.36s-.05,1.82-.05,1.82v1.38s-.01.46-.01.46v.45s-.03.91-.03.91v1.36s-.01.45-.01.45v.45s-.03.91-.03.91v.91l-.02.45v1.38s-.01.91-.01.91l-.03,1.82v1.36l-.03,1.36v2.73s-.01.46-.01.46v.45s-.05,3.64-.05,3.64v2.26s-.03,2.28-.03,2.28v.45l-.02,1.82v4.07l-.02,1.37v.45l-.02,1.82v3.63s-.01.91-.01.91v.45s-.01.91-.01.91v.45s-.03,1.36-.03,1.36v1.36l-.02,1.36v1.81s-.01.91-.01.91v.45s-.01.91-.01.91v.91s-.01.44-.01.44v.44s-.03.91-.03.91v1.36s-.01.45-.01.45l-.06,3.18v.45l-.04,2.27v.45l-.04,2.28v.45l-.03,1.82-.02.87-.1,4.09v.46l-.02.45v.46l-.02.45-.03.91v.45l-.03.91v.45l-.02.45-.08,3.18-.02.91v.45l-.03.88-.05,1.36v.45l-.04.91v.45l-.03.45-.05,1.36v.45l-.05.91v.45l-.03.45-.04.91-.07,1.82-.03.89-.02.46-.02.45-.06,1.37-.02.45-.04.89-.04.91-.02.45-.02.45-.02.45-.02.46-.02.44-.02.45-.09,1.82-.02.45-.02.45-.05.89-.03.45-.02.45v.25l-.04-.19-.05-.36-.06-.37-.05-.36-.05-.35-.05-.35-.05-.36-.05-.37-.05-.36-.05-.36-.1-.73-.05-.36-.05-.36-.05-.36-.15-1.1-.05-.36-.05-.36-.05-.37-.31-2.19-.05-.36-.05-.37-.06-.37-.05-.36-.16-1.1-.05-.36-.05-.37-.06-.38-.06-.38-.06-.36-.05-.36-.22-1.46-.06-.38-.06-.38-.06-.36-.06-.36-.06-.38-.06-.38-.06-.36-.06-.36-.06-.38-.06-.38-.12-.72-.06-.38-.07-.38-.13-.72-.07-.38-.07-.38-.13-.72-.07-.38-.07-.38-.14-.72-.08-.38-.08-.38-.15-.72-.08-.38-.08-.38-.15-.72-.08-.38-.09-.38-.08-.36-.08-.36-.18-.76-.17-.71-.09-.38-.1-.38-.18-.71-.1-.39-.1-.38-.3-1.09-.11-.38-.1-.35-.1-.35-.11-.38-.12-.38-.1-.35-.11-.35-.12-.39-.12-.38-.11-.35-.11-.35-.13-.38-.13-.38-.12-.34-.12-.35-.13-.38-.14-.38-.12-.34-.13-.34-.14-.38-.15-.38-.13-.34-.13-.34-.15-.38-.15-.38-.14-.34-.14-.34-.16-.38-.16-.38-.15-.34-.15-.34-.17-.38-.17-.38-.31-.67-.17-.37-.17-.37-.17-.36-.17-.36-.17-.36-.18-.35-.18-.35-.18-.35-.18-.35-.19-.35-.19-.36-.19-.35-.18-.33c-1.21-2.2-3.97-3.01-6.17-1.8s-3.01,3.97-1.8,6.17l.18.33.17.3.16.3.16.31.16.31.16.31.31.62.3.62.15.31.14.3.14.3.15.34.15.34.13.29.13.29.15.34.15.34.13.29.12.3.14.34.14.34.12.3.25.64.13.34.12.3.11.3.13.34.12.34.11.3.1.31.24.69.11.31.1.31.11.35.11.35.1.31.09.31.22.7.09.31.09.32.1.35.1.35.18.64.09.35.18.67.08.32.18.71.08.33.08.32.09.36.08.36.08.33.08.33.16.71.08.33.07.33.08.36.08.36.07.34.07.33.07.36.07.36.07.34.06.34.07.36.07.36.07.34.06.34.13.72.06.34.06.34.06.36.06.36.06.35.06.35.06.36.06.36.06.35.06.35.06.36.06.36.06.35.06.35.06.36.06.36.06.35.05.35.11.73.05.36.11.73.05.36.05.35.05.35.1.73.05.36.16,1.1.05.36.05.36.05.36.25,1.83.1.73.1.73.05.36.15,1.1.05.37.06.37.05.36.16,1.09.05.37.05.36.05.38.06.38.32,2.18.06.38.06.38.06.36.06.36.17,1.09.06.36.06.39.06.39.12.72.06.36.06.36.06.36.06.36.07.4.08.4.13.72.13.72.13.72.07.39.15.75.07.36.08.38.08.38.15.71.08.38.08.38.08.36.08.36.08.38.09.38.08.35.08.36.09.38.1.38.17.71.1.38.1.38.19.7.09.35c.51,1.91,2.16,3.21,4.02,3.36.45,1.66,1.81,2.98,3.61,3.3,2.47.43,4.83-1.23,5.25-3.7l.11-.63.1-.6.22-1.19.12-.59.12-.59.13-.59.13-.59.14-.59.13-.59.14-.58.14-.59.3-1.16.31-1.15.17-.57.16-.57.17-.57.17-.57.36-1.14.18-.57.19-.57.38-1.13.2-.56.2-.56.21-.56.21-.56.21-.56.21-.56.44-1.11.22-.55.23-.56.23-.55.23-.55.24-.55.24-.55.24-.54.24-.55.5-1.09.25-.54.25-.54.26-.54.26-.54.26-.54.27-.54.27-.54.27-.54.55-1.07.28-.53.28-.53.29-.53.29-.53.29-.53.29-.53.29-.53.29-.53.3-.52.3-.53.3-.53.61-1.05.31-.52.62-1.05.31-.52.31-.52.32-.52.33-.53.33-.54.31-.51.32-.51.33-.53.34-.53.32-.51.33-.51.34-.52.34-.53.33-.51.33-.51.35-.52.35-.53.34-.51.34-.51.35-.52.35-.52.69-1.01.36-.52.36-.52.36-.52c1.42-2.07.88-4.9-1.19-6.32"/>
  </g>
  <path class="cls-5" d="m850.99,358.24c-1.03-.62-2.1-1.17-3.21-1.66-.93-.41-1.97-.8-3.12-1.15-1.15-.36-2.27-.55-3.37-.55-.89,0-1.61.14-2.14.42-.53.27-.79.73-.79,1.39,0,.48.15.88.45,1.19.31.31.76.59,1.34.85.59.26,1.31.51,2.14.75.84.24,1.8.53,2.87.87,1.68.52,3.2,1.09,4.56,1.71,1.36.61,2.52,1.35,3.49,2.19.96.84,1.7,1.86,2.21,3.07.52,1.21.78,2.67.78,4.38,0,2.2-.41,4.05-1.21,5.55-.81,1.49-1.88,2.69-3.21,3.58-1.32.89-2.82,1.54-4.49,1.93-1.66.4-3.34.59-5.02.59-1.35,0-2.72-.1-4.14-.31-1.41-.2-2.81-.49-4.2-.87s-2.73-.83-4.02-1.34c-1.29-.51-2.48-1.1-3.58-1.75l4.32-8.82c1.2.75,2.46,1.42,3.76,2,1.1.52,2.35.99,3.74,1.4s2.81.62,4.25.62c1.1,0,1.87-.14,2.3-.43.43-.29.64-.68.64-1.17,0-.52-.22-.96-.64-1.32-.43-.36-1.02-.67-1.78-.94-.75-.28-1.62-.55-2.6-.83s-2.02-.61-3.12-.99c-1.62-.55-3.01-1.14-4.18-1.77-1.17-.64-2.13-1.36-2.88-2.17-.75-.81-1.31-1.73-1.68-2.76-.36-1.03-.54-2.22-.54-3.56,0-2.03.37-3.81,1.11-5.36s1.74-2.84,3.01-3.87,2.73-1.81,4.36-2.34c1.64-.54,3.37-.8,5.19-.8,1.34,0,2.65.13,3.92.38,1.27.26,2.51.58,3.69.98s2.3.83,3.32,1.29c1.03.46,1.96.89,2.79,1.31l-4.32,8.31h0Z"/>
  <path class="cls-5" d="m860.63,382.89v-36.62h15.78c1.79,0,3.43.37,4.94,1.12,1.52.74,2.81,1.7,3.89,2.89,1.09,1.18,1.94,2.54,2.56,4.07s.93,3.07.93,4.62-.3,3.19-.89,4.72c-.58,1.53-1.4,2.89-2.45,4.08-1.05,1.18-2.33,2.13-3.82,2.83-1.49.7-3.13,1.05-4.92,1.05h-5.98v11.25h-10.06.02,0Zm10.06-20.01h5.32c.61,0,1.18-.28,1.71-.85.54-.57.8-1.59.8-3.07s-.31-2.55-.93-3.1c-.61-.55-1.23-.83-1.85-.83h-5.05v7.84h0Z"/>
  <path class="cls-5" d="m892.6,382.89v-36.62h16.81c1.8,0,3.44.37,4.95,1.12,1.52.74,2.81,1.7,3.89,2.89,1.09,1.18,1.94,2.54,2.55,4.07.62,1.53.93,3.07.93,4.62,0,2.13-.47,4.11-1.4,5.96-.93,1.84-2.21,3.35-3.86,4.51l8.25,13.46h-11.35l-6.96-11.25h-3.76v11.25h-10.06.01Zm10.06-20.01h6.34c.62,0,1.19-.34,1.73-1.03s.8-1.66.8-2.89-.31-2.24-.93-2.91c-.61-.68-1.23-1.01-1.85-1.01h-6.08v7.84h-.01Z"/>
  <path class="cls-5" d="m924.42,382.89l13.66-36.62h8.15l13.63,36.62h-10.63l-2.21-7.17h-9.76l-2.16,7.17h-10.68Zm17.74-26.14l-3.4,12.27h6.66l-3.25-12.27h0Z"/>
  <path class="cls-5" d="m974.28,346.27h9.23l3.21,11.29,3.25-11.29h9.23l-6.04,17.48,2.63,7.63,7.89-25.12h10.93l-14.34,36.62h-8.36l-5.21-13.1-5.16,13.1h-8.36l-14.34-36.62h10.89l7.94,25.12,2.53-7.63-5.93-17.48h0Z"/>
  <path class="cls-5" d="m1017.19,382.89v-36.62h14.08c3.02,0,5.68.48,7.98,1.45,2.31.96,4.23,2.27,5.78,3.93,1.55,1.65,2.72,3.58,3.51,5.8.79,2.21,1.19,4.58,1.19,7.09,0,2.78-.44,5.3-1.32,7.55-.88,2.26-2.13,4.18-3.74,5.78-1.62,1.59-3.56,2.83-5.83,3.71-2.27.88-4.8,1.32-7.58,1.32h-14.08,0Zm22.33-18.36c0-1.41-.19-2.7-.57-3.87-.37-1.17-.91-2.17-1.62-3-.71-.82-1.58-1.47-2.61-1.93-1.03-.47-2.18-.7-3.45-.7h-4.02v19.09h4.02c1.31,0,2.47-.24,3.51-.72,1.03-.48,1.9-1.15,2.6-2,.71-.86,1.24-1.88,1.6-3.04.36-1.17.55-2.45.55-3.82h-.01Z"/>
  <path class="cls-5" d="m1052.4,375.41l17.13-20.37h-16.35v-8.77h27.95v7.48l-16.09,20.37h16.4v8.77h-29.05v-7.48h.01Zm18.11-30.69l-6.19-1.64,2.58-7.32h8.72l-5.11,8.96h0Z"/>
</svg>