<?xml version="1.0" encoding="utf-8"?>
<!-- Generator: Adobe Illustrator 27.8.1, SVG Export Plug-In . SVG Version: 6.00 Build 0)  -->
<svg version="1.1" id="Layer_1" xmlns="http://www.w3.org/2000/svg" xmlns:xlink="http://www.w3.org/1999/xlink" x="0px" y="0px"
	 viewBox="0 0 1215.9 687.2" style="enable-background:new 0 0 1215.9 687.2;" xml:space="preserve">
<style type="text/css">
	.st0{fill:#8BC4C3;}
	.st1{fill:#D86561;}
	.st2{fill:#E58B24;}
	.st3{fill:#FAF4E5;}
	.st4{fill:#202637;}
	.st5{clip-path:url(#SVGID_00000148633311191979435060000002802574983733931193_);}
	.st6{clip-path:url(#SVGID_00000111175657850653530100000011545176965886526607_);}
	.st7{clip-path:url(#SVGID_00000108299104251742306550000013340286856437311654_);}
	.st8{clip-path:url(#SVGID_00000181070128354204838220000013958265598685426304_);}
	.st9{clip-path:url(#SVGID_00000170278087174898536250000006623896002823148973_);}
	.st10{clip-path:url(#SVGID_00000034795957703691940510000008405632697252286884_);}
	.st11{clip-path:url(#SVGID_00000181774531393754163790000008216928615066752186_);}
	.st12{clip-path:url(#SVGID_00000082350638033623646700000008740621716165827765_);}
	.st13{clip-path:url(#SVGID_00000005982191698726847300000011252986620437845948_);}
	.st14{clip-path:url(#SVGID_00000088837978083702231180000014560830990294898348_);}
	.st15{clip-path:url(#SVGID_00000115473184640516455820000013140075330643130020_);}
	.st16{clip-path:url(#SVGID_00000056386790857515821940000009924922746388979080_);}
	.st17{clip-path:url(#SVGID_00000150077240895627188700000014458478092330681997_);}
	.st18{clip-path:url(#SVGID_00000104671041044924248270000016206559148585891231_);}
	.st19{clip-path:url(#SVGID_00000008839144602712536080000008865298702568247459_);}
	.st20{clip-path:url(#SVGID_00000178183209332097102200000000752327856880542642_);}
	.st21{clip-path:url(#SVGID_00000147934807256311436620000006593144687147681184_);}
	.st22{clip-path:url(#SVGID_00000020374707405016432710000002662096080538217660_);}
	.st23{clip-path:url(#SVGID_00000151504700036062095820000013194060055806751653_);}
	.st24{clip-path:url(#SVGID_00000173150355702725785020000004094352615762825357_);}
	.st25{clip-path:url(#SVGID_00000141447225627370005770000004044107439746178719_);}
	.st26{clip-path:url(#SVGID_00000063610747332806371330000018188369619532003004_);}
	.st27{clip-path:url(#SVGID_00000024715358933002315340000013878925587389767596_);}
	.st28{clip-path:url(#SVGID_00000061459646609513161360000013750789982174313627_);}
	.st29{clip-path:url(#SVGID_00000116919286621299254210000001285940077029112729_);}
</style>
<path class="st0" d="M69.2,981.4c0,0,27.8,14.1,164.5,16.3c136.7,2.2,229.3-4.6,264-8.2c34.7-3.5,48.7-8.2,48.7-8.2
	s14-334.4,0-402.3c-14-67.9-50.9-179.6-169.1-216.4s-143.7-5.4-203.8,43.8C113.5,455.7,60.1,768,62.4,863.1S69.3,981.4,69.2,981.4
	L69.2,981.4z"/>
<path class="st1" d="M401.1,551.8l-88.3,14.4c0,0-81.8,29.5-110.6-15.2c-36-56,3.2-97.1,22.7-115.2c16.5-15.4,16.5-43.2,16.7-46.4
	c0-42.8,7.3-68.5,31.2-82.5c26.2-15.4,47.6-12.2,47.6-12.2s29.7-1.2,47,25.8c11.7,18.4,14.8,43.2,17.1,69c4,44.2,45.3,51.3,46.1,96
	C431.7,530.9,401.1,551.8,401.1,551.8L401.1,551.8z M401.1,551.8l-88.3,14.4c0,0-81.8,29.5-110.6-15.2c-36-56,3.2-97.1,22.7-115.2
	c16.5-15.4,16.5-43.2,16.7-46.4c0-42.8,7.3-68.5,31.2-82.5c26.2-15.4,47.6-12.2,47.6-12.2s29.7-1.2,47,25.8
	c11.7,18.4,14.8,43.2,17.1,69c4,44.2,45.3,51.3,46.1,96C431.7,530.9,401.1,551.8,401.1,551.8L401.1,551.8z"/>
<path class="st2" d="M308.9,481.6c31.3,8.6,58.5-11.4,58.5-11.4s35.3,13.2,43.1,25c12.8,19.7,32.1,137.1-3.6,156
	c-32.5,17.2-89.8-6.2-116.4-17.6c-19.9,24.4-45,42.1-79.7,22.1c-39.1-22.7-11.6-146.8-3.3-159.8c13.6-21.2,50-25.5,50-25.5
	S277.5,473,308.9,481.6L308.9,481.6z M308.9,481.6c31.3,8.6,58.5-11.4,58.5-11.4s35.3,13.2,43.1,25c12.8,19.7,32.1,137.1-3.6,156
	c-32.5,17.2-89.8-6.2-116.4-17.6c-19.9,24.4-45,42.1-79.7,22.1c-39.1-22.7-11.6-146.8-3.3-159.8c13.6-21.2,50-25.5,50-25.5
	S277.5,473,308.9,481.6L308.9,481.6z"/>
<path class="st3" d="M357.2,467c5.5,1.9,10.2,3.2,10.2,3.2s-6.8,25.7-36.4,33.7c-21.7-11.7-41-16-41-16l-7,11.7
	c-21-10.2-25.4-29.4-25.4-29.4s23.4-6.8,29-11.5c4.9-4.2,3.8-27,3.6-31.8c-14.1-6-20.7-17.8-23.8-28.4c-7.8,0.6-14.2-13.2-10.6-19.5
	c3.8-6.8,8-2.2,8-2.2c20.7,5.2,53.2-25.4,63.3-51.1c0.2-0.5,0.9-0.4,1,0.1c3.5,17,19.5,41.7,32.6,51c0,0,4.2-4.6,8,2.2
	s-3.8,22.6-12.6,19c0-0.4,0-0.7,0.1-1.1c-4.2,13.1-10.9,23.3-21.5,29.1h0.2c0,0-0.1,2.6-0.2,6.2c2,0.1,7,0.9,8.1,5.5
	c6,0.2,8.6,4.3,8.3,6.8c4.1-0.2,6.3,9.1,3.8,11.2C358.7,455.4,358.4,463.1,357.2,467L357.2,467z M357.2,467
	c5.5,1.9,10.2,3.2,10.2,3.2s-6.8,25.7-36.4,33.7c-21.7-11.7-41-16-41-16l-7,11.7c-21-10.2-25.4-29.4-25.4-29.4s23.4-6.8,29-11.5
	c4.9-4.2,3.8-27,3.6-31.8c-14.1-6-20.7-17.8-23.8-28.4c-7.8,0.6-14.2-13.2-10.6-19.5c3.8-6.8,8-2.2,8-2.2
	c20.7,5.2,53.2-25.4,63.3-51.1c0.2-0.5,0.9-0.4,1,0.1c3.5,17,19.5,41.7,32.6,51c0,0,4.2-4.6,8,2.2s-3.8,22.6-12.6,19
	c0-0.4,0-0.7,0.1-1.1c-4.2,13.1-10.9,23.3-21.5,29.1h0.2c0,0-0.1,2.6-0.2,6.2c2,0.1,7,0.9,8.1,5.5c6,0.2,8.6,4.3,8.3,6.8
	c4.1-0.2,6.3,9.1,3.8,11.2C358.7,455.4,358.4,463.1,357.2,467L357.2,467z"/>
<path class="st4" d="M293.4,377.2c0-2.7,1.5-5.1,3.2-5.1s3.2,2.2,3.2,5.1s-1.5,5.1-3.2,5.1S293.4,380,293.4,377.2z M329.3,382.3
	c1.9,0,3.2-2.2,3.2-5.1s-1.5-5.1-3.2-5.1s-3.2,2.2-3.2,5.1C326,380,327.4,382.3,329.3,382.3z M312.6,393.4c0.4-9.6,0.5-19.4,0.2-29
	c0-1.2-1.9-1.2-1.9,0c0.2,9.6,0.2,19.4-0.2,29C310.7,394.5,312.5,394.5,312.6,393.4z M302.5,403.5c2.1,0.2,4.1,0.7,5.8,2
	c1.7,1.2,3,3,4.3,4.6c0.4,0.4,1,0.4,1.4,0s0.4-0.9,0-1.4c-1.5-1.9-2.8-3.7-4.8-4.9c-2-1.4-4.2-2-6.5-2.2c-0.5,0-1,0.5-1,1
	C301.5,403.1,302,403.5,302.5,403.5L302.5,403.5z M307.7,434.6c6.5,0.9,13.1-0.4,19.2-2.6c3-1.1,5.9-2.3,8.5-4.3c1-0.7,0-2.3-1-1.6
	c-2.1,1.6-4.6,2.7-7,3.7c-3,1.1-6,2.1-9.1,2.6c-6.3,1.1-12.6,0.4-18.6-1.5c-3-0.9-6-2-8.6-3.8c-1-0.6-2,1-1,1.6
	c2.3,1.6,5.1,2.7,7.6,3.6C301,433.5,304.4,434.2,307.7,434.6L307.7,434.6z M292,486.5c3.2-10,6.3-20,9.5-30c0.7-2.5,1.5-4.9,2.3-7.4
	c0.6-2.1,1.4-4.1,2.6-5.9c2.5-3.6,6.8-4.7,10.7-5.4c5.8-1.2,11.6-2.5,17.4-3.6c1.1-0.2,0.6-2-0.5-1.7c-5.3,1.1-10.6,2.2-15.9,3.3
	c-4.2,0.9-8.8,1.6-11.8,4.8c-3.2,3.3-4.2,8.3-5.5,12.6c-1.6,5.2-3.2,10.4-4.9,15.5c-1.9,5.8-3.7,11.6-5.4,17.4
	C289.8,487.3,291.7,487.8,292,486.5L292,486.5z M325,443.7c5.7-2.7,11.9-4.3,18.1-4.8c1.2-0.1,1.2-2,0-1.9
	c-6.7,0.5-13.1,2.2-19.1,5.1C323,442.6,324,444.2,325,443.7L325,443.7z M350.6,444c-6.9,0.2-13.8,1.2-20.6,2.8
	c-1.1,0.2-0.6,2.1,0.5,1.7c6.5-1.6,13.3-2.6,20.1-2.7C351.7,445.8,351.7,444,350.6,444z M335.5,453.9c-1.2,0.1-1.2,2,0,1.9
	c6.8-0.5,13.6-1.2,20.2-0.4c1.2,0.1,1.1-1.7,0-1.9C349,452.7,342.1,453.5,335.5,453.9z M348.3,478.7c2.5-0.1,4.3-2.6,5.5-4.4
	c1.5-2.1,2.5-4.4,3-7c0.2-1.1-1.6-1.6-1.7-0.5c-0.4,2-1.1,4-2.2,5.7c-1,1.5-2.3,3.6-4.1,4.3c-0.9,0.4-1.7-0.1-2.1-0.9
	c-0.5-1-0.4-2.2-0.2-3.2c0.4-2.3,0.7-4.7,1.4-7c0.1-0.5-0.2-1.2-0.9-1.1c-4.1,0.4-8,0.7-12.1,1.1c-0.2,0-0.4,0.1-0.5,0.2l-0.1,0.1
	c-0.1,0.1-0.2,0.4-0.2,0.6c-0.2,4.4-0.4,8.9-1.1,13.3c-0.4,2.8-1.1,5.8-3.1,7.9c-1.1,1.1-2.5,1.9-4,2.2c-0.2,0.1-0.5,0.2-0.6,0.5
	c-0.1,0.1-0.4,0.2-0.4,0.5c-1.1,2.7-2.2,5.4-3.5,8.1c-0.2,0.5,0.2,1,0.6,1.1c0.5,0.1,1-0.1,1.1-0.6c1.1-2.6,2.2-5.3,3.3-7.9
	c2.8-1,5.2-2.8,6.5-5.5c1.6-3.3,1.9-7.3,2.1-11c0.2-2.6,0.4-5.2,0.5-7.8c3.3-0.2,6.7-0.6,10-0.9c-0.6,2.5-1.1,4.9-1.2,7.4
	C344.3,476,345.6,478.9,348.3,478.7L348.3,478.7z M216.9,487.8c5.9,3,10.4,8.4,12.3,14.7c0.4,1.1,2.1,0.6,1.7-0.5
	c-2.1-6.8-6.9-12.6-13.2-15.8C216.8,485.5,215.8,487.1,216.9,487.8L216.9,487.8z M281.8,499.5c-8.5,12.5-16.8,25.2-24.8,38
	c-3.8,6.2-7.6,12.2-11.4,18.4c-1.7-10.4-3.6-20.8-5.8-31.1c-0.6-3.1-1.4-6.3-2.1-9.4c-0.2-1.1-2.1-0.6-1.7,0.5
	c2.5,11,4.7,22,6.5,32.9c0.5,3.1,1.1,6.3,1.6,9.5c-3.9,6.4-7.9,13-11.8,19.4c-4.3,7-8.5,14.1-12.8,21.1c-0.6,1,1,2,1.6,1
	c7.9-13,15.7-25.9,23.6-38.7c8.3-13.5,16.5-26.8,25-40c4.4-6.9,9-13.8,13.7-20.6C284.1,499.4,282.5,498.5,281.8,499.5L281.8,499.5z
	 M228.2,575.8c-7.2,0.4-14.1,2.8-19.9,6.9c-1,0.6,0,2.3,1,1.6c5.6-4,12.2-6.2,19-6.7C229.5,577.6,229.5,575.7,228.2,575.8
	L228.2,575.8z M396.9,603c-9-2.8-18.3-5.3-27.4-7.4c3.8-1.7,7.9-2.7,12.2-2.6c4.6,0.2,9,1.6,13.3,2.7c1.1,0.2,1.6-1.5,0.5-1.7
	c-4.6-1.2-9.2-2.6-14.1-2.8c-1.6-0.1-3.3,0-4.8,0.2c0.1-0.1,0.2-0.4,0.2-0.5c0.9-13.3,4.3-26.3,7-39.4c0.6-3,1.2-5.9,1.7-9
	c0.2-1.1-1.6-1.7-1.7-0.5c-1,5.8-2.3,11.6-3.6,17.3c-1.5,6.8-3,13.6-4,20.4c-0.6,3.7-1.1,7.4-1.4,11.1c0,0.4,0.1,0.6,0.4,0.7
	c-3.1,0.6-5.9,1.7-8.8,3.2c-0.7-0.1-1.4-0.4-2.1-0.5c-10.9-2.5-21.7-4.6-32.7-6.2c-5.8-0.9-11.7-1.6-17.5-2.2c0.2-0.6,0.5-1.2,0.9-2
	c3.7-8.9,7.3-17.8,10.7-26.8c3.2-8.1,6.2-16.3,9.1-24.6c2.3-6.5,4.6-13.1,6.7-19.6c0.2-0.6,0.4-1.4,0.6-2c0.1-0.2,0-0.7-0.2-0.9
	c-1.2-1.1-2.6-2.1-3.8-3.1c-2-1.5-4.1-3.2-6.3-4.2c-1.1-0.5-2,1.1-1,1.6c2.2,1,4.2,2.6,6,4.1c1.1,0.9,2.2,1.7,3.3,2.7
	c-2,6-4,12.1-6.2,18.1c-2.8,8-5.8,16-8.9,24.1c-3.5,8.9-6.9,17.8-10.6,26.5c-3.7,8.9-7.5,17.6-11.5,26.4c-3.7,8-7.5,15.9-11.7,23.7
	c-0.5,0.9-0.9,1.7-1.4,2.6c-0.6,1,1,2,1.6,1c4.2-7.5,8-15.3,11.6-23.2c3.5-7.5,6.8-15,10-22.6c10.9,1.2,21.7,2.7,32.5,4.8
	c10.9,2,21.6,4.4,32.3,7.2c6,1.6,12.1,3.3,18,5.1C397.5,605.1,398,603.2,396.9,603L396.9,603z M407.3,502.4
	c-5.2,4.9-10,10.2-14.2,16c-0.7,1,0.9,1.8,1.6,1c4.1-5.7,8.8-11,13.9-15.7C409.4,502.9,408.1,501.6,407.3,502.4L407.3,502.4z
	 M329.7,355.1c3.8-0.5,7.6,1.1,10,4.2c0.4,0.4,1,0.4,1.4,0s0.4-0.9,0-1.4c-2.6-3.3-7-5.2-11.4-4.7c-0.5,0-1,0.4-1,1
	C328.8,354.6,329.2,355.2,329.7,355.1L329.7,355.1z M259.9,382.6c1.7,1.7,3.1,4,3.7,6.3c-0.5-0.4-1.1-0.6-1.7-0.7
	c-1.1-0.2-1.6,1.5-0.5,1.7c1.1,0.2,2.1,1,2.7,2c0.5,0.7,1.7,0.5,1.7-0.5c-0.2-3.8-1.9-7.4-4.6-10.1
	C260.3,380.4,259.1,381.8,259.9,382.6L259.9,382.6z M363.1,383.6c0.4-0.2,0.6-0.9,0.4-1.2c-0.2-0.4-0.9-0.6-1.2-0.4
	c-2.7,2-4.7,4.9-5.2,8.1c-0.1,0.5,0.1,0.9,0.5,1.1c0.4,0.1,1,0,1.1-0.4c0.2-0.4,0.4-0.5,0.7-0.7c0.2-0.1,0.6-0.2,0.9-0.1
	c0.5,0.1,1-0.1,1.1-0.6c0.1-0.5-0.1-1.1-0.6-1.1c-0.5-0.1-0.9,0-1.4,0C360.3,386.5,361.5,384.7,363.1,383.6L363.1,383.6z
	 M282.3,320.4c-11.5,7.3-19.5,19.4-22.2,32.6c-0.7,3.7-1.1,7.5-1,11.4c0,1.2,1.9,1.2,1.9,0c-0.5-13,4.7-25.9,13.7-35.3
	c2.6-2.6,5.4-4.9,8.5-6.9C284.1,321.4,283.3,319.8,282.3,320.4L282.3,320.4z M267.2,370.8c3.8-5.2,8-10.1,12.5-14.8
	c0.9-0.9-0.5-2.2-1.4-1.4c-4.6,4.8-8.8,9.9-12.7,15.2C264.9,370.8,266.5,371.8,267.2,370.8L267.2,370.8z M366.8,356.8
	c0.2,3.7,0,7.5-0.6,11.2c-0.2,1.1,1.6,1.6,1.7,0.5c2.5-13.7-1.1-28.1-9.4-39.2c-2.3-3.1-4.9-6-8-8.5c-0.9-0.7-2.2,0.5-1.4,1.4
	C359.7,330.7,366.1,343.5,366.8,356.8L366.8,356.8z M319.8,301.1c0.1,0,0.2,0.1,0.4,0.1h0.4c0,0,0.1,0,0.1,0.1
	c0.1,0,0.2,0.1,0.4,0.1c0.4,0.2,0.9,0.5,1.2,0.7c0,0,0.1,0,0.1,0.1l0.2,0.2l0.5,0.5c0.1,0.1,0.4,0.4,0.5,0.5
	c0.1,0.1,0.1,0.2,0.2,0.2l0.1,0.1c-0.1-0.1,0,0,0,0c0.2,0.4,0.9,0.6,1.2,0.4c0.4-0.2,0.6-0.9,0.4-1.2c-1.4-1.9-3.2-3.2-5.3-4
	c-0.5-0.1-1,0.1-1.1,0.6C319,300.4,319.3,300.9,319.8,301.1L319.8,301.1z M332.2,307.2c0.1-0.1,0.2-0.2,0.2-0.2
	c0.1-0.1,0.1-0.1,0.2-0.1c0.2-0.1,0.4-0.2,0.6-0.4c0.1-0.1,0.4-0.2,0.5-0.2c0,0,0.4-0.1,0.1-0.1c0.1,0,0.2-0.1,0.4-0.1
	c1-0.4,1.6-0.5,2.6-0.5c0.5,0,1-0.4,1-1c0-0.5-0.4-0.9-1-1c-2.2,0-4.3,0.7-5.9,2.2c-0.4,0.4-0.4,1,0,1.4
	C331.4,307.6,331.9,307.6,332.2,307.2L332.2,307.2z M322.9,309.5h-2c-0.2,0-0.5,0.1-0.6,0.2s-0.2,0.4-0.2,0.6c0,0.5,0.4,1,1,1h2
	c0.2,0,0.5-0.1,0.6-0.2c0.1-0.1,0.2-0.4,0.2-0.6C323.9,310,323.5,309.5,322.9,309.5z"/>
<path class="st4" d="M424.2,416.9c0.1,1-0.4,2.1-1.2,2.7c-0.4,0.2-0.9,0.5-1.2,0.5c-0.5,0-1,0-1.5-0.2c-1-0.4-1.5-1.2-1.6-2.2
	s0.4-2.1,1.2-2.7s1.9-0.6,2.7-0.2C423.4,415.1,424.1,415.9,424.2,416.9L424.2,416.9z M408,407.2c-1-0.4-2-0.4-2.7,0.2
	c-0.9,0.6-1.4,1.6-1.2,2.7c0.1,1,0.7,1.9,1.6,2.2c0.5,0.2,1,0.2,1.5,0.2s0.9-0.2,1.2-0.5c0.9-0.6,1.4-1.6,1.2-2.7
	C409.6,408.4,409,407.6,408,407.2L408,407.2z M456.4,380.7c-1-3.2-3.2-5.5-6.4-6.7c-4.3-1.5-9.2,0.2-13.5,4.6
	c-0.1,0.2-0.4,0.4-0.5,0.6l3.7,3.8c0.4-0.1,0.6-0.4,0.9-0.6c2-2,4.4-3.2,6.4-3.2c1.1,0,2.1,0.5,2.8,1.4c2.2,2.6,1.2,6.9-0.6,9.8
	c-0.7,1.2-2.1,2.7-4,3.5c-1.1,0.4-2.2,0.5-3.6,0.6c-0.9,0.1-1.7,0.2-2.7,0.4c-4.8,1-8.9,4.7-10.7,9.9c-0.1,0.2-0.1,0.5-0.1,0.7
	l5.3,1.6c0-0.1,0.1-0.1,0.1-0.2c0.7-2,1.9-3.7,3.3-4.9c1.2-1,2.7-1.6,5.1-1.9h0.4c2-0.2,4-0.5,5.9-1.4c1.7-0.9,3.3-2.1,4.7-3.8
	C456.2,391,457.6,385.1,456.4,380.7L456.4,380.7z M426,367.5c-2-3.6-6.2-5.3-10.5-4.4c-4.7,1-8.9,4.7-11.5,10.4
	c-0.1,0.4-0.2,0.6-0.2,1l4.9,2.1c0.1-0.2,0.4-0.5,0.5-0.7c1.7-3.7,5.2-7.9,9.2-7.2c1.1,0.1,1.9,0.6,2.3,1.5c0.9,1.5,1.1,3.8,0.5,6.2
	c-0.5,2-1.6,3.7-3.1,5.1c-0.9,0.7-2,1.5-3.1,2.2c-0.9,0.6-1.9,1.2-2.7,1.9c-4.2,3.3-6.5,8.1-6.5,13.5c0,0.2,0,0.5,0.1,0.7l5.4-0.1
	c0.1-0.2,0.1-0.6,0.1-0.9c0-4.8,3.2-8,6-9.9c3.8-2.6,7-5.1,8.8-9.4C428,375,427.9,370.7,426,367.5L426,367.5z"/>
<g>
	<defs>
		<rect id="SVGID_1_" x="7.8" y="197.8" width="205.9" height="81.1"/>
	</defs>
	<clipPath id="SVGID_00000063623412451985700960000011170306902072289927_">
		<use xlink:href="#SVGID_1_"  style="overflow:visible;"/>
	</clipPath>
	<g style="clip-path:url(#SVGID_00000063623412451985700960000011170306902072289927_);">
		<path class="st2" d="M211.6,245.2c-0.6,1.3-1.2,2.5-1.6,3.8c-3.4,9.1-9.4,15.1-17,19.3c-1.9,1.1-3.9,2.1-5.9,2.8
			c-16.8,5.9-33.7,9.1-50.7,6.1c-10.6-1.9-21.2-4.2-31.9-5.2c-10.4-0.9-21.1-0.4-31.6-0.2c-11.3,0.2-22.6,0.7-33.4-2.6
			c-10-3-20.4-4.8-26.9-14c-2.5-3.6-4.7-10.7-4.7-15.2c0-4.9,2.6-12.9,6-21.4c3.9-6.6,6.8-9,12.2-11.8c17.4-8.9,35.4-9,53.8-8.4
			c12.3,0.4,24.7-0.6,37-0.3c11.9,0.3,23.7,1.6,35.6,2.3c2.9,0.2,5.9-0.4,8.9-0.5c6.7-0.1,13.6-1.1,20.2,0
			c7.8,1.2,15.1,4.6,21.3,9.7c8.1,6.5,11.2,16.1,10.4,27.8c0,0.7,0,1.4-0.1,2.1C212.6,241.4,212.1,243.3,211.6,245.2L211.6,245.2z"
			/>
	</g>
</g>
<g>
	<defs>
		<rect id="SVGID_00000065795958348711587860000005106113704373637005_" x="407.4" y="197.8" width="206" height="81.1"/>
	</defs>
	<clipPath id="SVGID_00000166644286111779601830000011002425740662067622_">
		<use xlink:href="#SVGID_00000065795958348711587860000005106113704373637005_"  style="overflow:visible;"/>
	</clipPath>
	<g style="clip-path:url(#SVGID_00000166644286111779601830000011002425740662067622_);">
		<path class="st2" d="M611.3,245.2c-0.6,1.3-1.2,2.5-1.6,3.8c-3.4,9.1-9.4,15.1-17,19.3c-1.9,1.1-3.9,2.1-5.9,2.8
			c-16.8,5.9-33.7,9.1-50.7,6.1c-10.6-1.9-21.2-4.2-31.9-5.2c-10.4-0.9-21.1-0.4-31.6-0.2c-11.3,0.2-22.6,0.7-33.4-2.6
			c-10-3-20.4-4.8-26.9-14c-2.5-3.6-4.7-10.7-4.7-15.2c0-4.9,2.6-12.9,6-21.4c3.9-6.6,6.8-9,12.2-11.8c17.4-8.9,35.4-9,53.8-8.4
			c12.3,0.4,24.7-0.6,36.9-0.3c11.9,0.3,23.7,1.6,35.6,2.3c2.9,0.2,5.9-0.4,8.9-0.5c6.7-0.1,13.6-1.1,20.2,0
			c7.8,1.2,15,4.6,21.3,9.7c8.1,6.5,11.2,16.1,10.4,27.8c0,0.7,0,1.4-0.1,2.1C612.2,241.4,611.8,243.3,611.3,245.2L611.3,245.2z"/>
	</g>
</g>
<g>
	<defs>
		<rect id="SVGID_00000147915738997416637810000008069192468404227236_" x="87.1" y="506" width="47.6" height="40.7"/>
	</defs>
	<clipPath id="SVGID_00000182503372422917945360000016965896077975015808_">
		<use xlink:href="#SVGID_00000147915738997416637810000008069192468404227236_"  style="overflow:visible;"/>
	</clipPath>
	<g style="clip-path:url(#SVGID_00000182503372422917945360000016965896077975015808_);">
		<g>
			<defs>
				
					<rect id="SVGID_00000119821787669859006040000009153564602802050468_" x="87.6" y="505.8" transform="matrix(0.9946 -0.1038 0.1038 0.9946 -54.0127 14.357)" width="46.6" height="40.3"/>
			</defs>
			<clipPath id="SVGID_00000140012128676927714720000004153262553551301020_">
				<use xlink:href="#SVGID_00000119821787669859006040000009153564602802050468_"  style="overflow:visible;"/>
			</clipPath>
			<g style="clip-path:url(#SVGID_00000140012128676927714720000004153262553551301020_);">
				<g>
					<defs>
						
							<rect id="SVGID_00000125603508958986912240000014868934255202591621_" x="87.6" y="505.8" transform="matrix(0.9946 -0.1038 0.1038 0.9946 -54.0127 14.357)" width="46.6" height="40.3"/>
					</defs>
					<clipPath id="SVGID_00000050647620348556299150000001235447378848342181_">
						<use xlink:href="#SVGID_00000125603508958986912240000014868934255202591621_"  style="overflow:visible;"/>
					</clipPath>
					<g style="clip-path:url(#SVGID_00000050647620348556299150000001235447378848342181_);">
						<path class="st4" d="M133.9,521.5c0.3,3-0.2,6.1-1.5,9.2c-1.9,4.5-4,7.3-6.8,9.6c-3.3,2.6-7.8,4.3-14.1,5.5
							c-4.3,0.8-9.6-0.7-14.1-4.1c-4.9-3.6-8.2-8.7-9.3-14.2c-0.8-3.8,0-7.5,2.4-10.9c2.3-3.4,5.7-5.7,8.2-7c2.9-1.6,6-2.7,8.6-3.1
							c4.4-0.7,8.3,0.2,11.3,2.6c3.2,2.5,5,6.6,5.4,11.7c0.4,4.9-0.5,8.7-2.6,11.5c-1.7,2.2-4.1,3.8-7.5,4.8
							c-2.7,0.8-7.8,0.2-11.9-2c-3.3-1.8-5.6-4.6-6.5-7.9c-0.7-2.5-0.4-4.8,0.8-6.9c1.1-1.8,2.8-3.3,5.2-4.6c1.7-0.9,3.4-1.5,5.3-2
							c3.6-0.9,6.8-0.4,8.9,1.3c1.3,1,2.8,3,2.8,6.7c0,3.2-1.3,5.4-3.9,6.6c-2,0.9-4.5,1.1-6.4,1.2l-0.4,0l-0.1-2.8l0.4,0
							c1.8-0.1,3.8-0.2,5.4-0.9c2-1,2.3-2.7,2.3-4.1c0-2.1-0.6-3.6-1.8-4.5c-1.4-1.2-3.8-1.4-6.5-0.8c-4.9,1.2-7.7,3.5-8.8,5.3
							c-0.8,1.4-1,3-0.5,4.8c0.7,2.6,2.5,4.7,5.2,6.2c2.3,1.3,7,2.6,9.8,1.8c2.8-0.8,4.8-2,6.1-3.8c1.7-2.2,2.3-5.4,2-9.7
							c-0.3-4.4-1.8-7.8-4.4-9.8c-2.3-1.9-5.5-2.6-9.1-2c-4,0.6-11.3,3.8-14.9,9c-1.9,2.7-2.6,5.7-2,8.8c1,4.9,3.9,9.4,8.2,12.6
							c3.9,2.9,8.4,4.2,12,3.6c5.9-1.1,10-2.7,12.9-5c2.5-1.9,4.2-4.5,6-8.5c1.4-3.3,1.7-6.4,1-9.5c-0.6-2.8-2.1-5.8-4.6-9l2.2-1.7
							c2.7,3.6,4.4,6.9,5.1,10.1C133.7,520.1,133.8,520.8,133.9,521.5L133.9,521.5z"/>
					</g>
				</g>
			</g>
		</g>
	</g>
</g>
<g>
	<defs>
		<rect id="SVGID_00000023266951380068959880000013551184572008481165_" x="476.1" y="431.5" width="43.7" height="46"/>
	</defs>
	<clipPath id="SVGID_00000162344871116197722340000003807981550261272729_">
		<use xlink:href="#SVGID_00000023266951380068959880000013551184572008481165_"  style="overflow:visible;"/>
	</clipPath>
	<g style="clip-path:url(#SVGID_00000162344871116197722340000003807981550261272729_);">
		<g>
			<defs>
				
					<rect id="SVGID_00000062880995990040213440000002497631679607787947_" x="474.3" y="432.9" transform="matrix(0.7263 -0.6873 0.6873 0.7263 -175.2014 465.9695)" width="46.6" height="40.3"/>
			</defs>
			<clipPath id="SVGID_00000098928011242932058700000003797192748518483088_">
				<use xlink:href="#SVGID_00000062880995990040213440000002497631679607787947_"  style="overflow:visible;"/>
			</clipPath>
			<g style="clip-path:url(#SVGID_00000098928011242932058700000003797192748518483088_);">
				<g>
					<defs>
						
							<rect id="SVGID_00000123422925516913204830000010559982605441506715_" x="474.3" y="432.9" transform="matrix(0.7263 -0.6873 0.6873 0.7263 -175.2014 465.9695)" width="46.6" height="40.3"/>
					</defs>
					<clipPath id="SVGID_00000072282768823371027720000015379940696736803001_">
						<use xlink:href="#SVGID_00000123422925516913204830000010559982605441506715_"  style="overflow:visible;"/>
					</clipPath>
					<g style="clip-path:url(#SVGID_00000072282768823371027720000015379940696736803001_);">
						<path class="st4" d="M482,470.5c-2.1-2.2-3.5-4.9-4.4-8.2c-1.2-4.7-1.3-8.2-0.4-11.8c1-4.1,3.5-8.2,7.8-13
							c2.9-3.3,8.1-5.3,13.7-5.4c6-0.1,11.8,1.9,16,5.6c3,2.6,4.5,6,4.7,10.1c0.2,4.1-1.1,8-2.2,10.5c-1.3,3-3.1,5.8-5,7.7
							c-3.1,3.2-6.7,4.9-10.5,4.8c-4-0.1-8-2.1-11.5-6c-3.3-3.7-4.9-7.2-5-10.7c0-2.8,1-5.5,3-8.4c1.6-2.2,6.1-5,10.7-5.6
							c3.8-0.5,7.2,0.3,10,2.4c2.1,1.6,3.3,3.6,3.6,6c0.2,2.1-0.2,4.4-1.3,6.8c-0.8,1.7-1.8,3.3-3,4.8c-2.3,2.9-5.1,4.4-7.9,4.4
							c-1.7,0-4.1-0.7-6.3-3.6c-1.9-2.5-2.2-5.1-0.9-7.6c1-2,2.9-3.6,4.4-4.8l0.3-0.2l1.8,2.1l-0.3,0.2c-1.4,1.2-3,2.5-3.7,4
							c-1,2-0.2,3.5,0.7,4.7c1.2,1.6,2.6,2.5,4.1,2.5c1.9,0,3.9-1.2,5.6-3.3c3.1-3.9,4-7.5,3.7-9.5c-0.2-1.6-1-3-2.5-4.1
							c-2.2-1.6-4.8-2.3-7.9-1.8c-2.6,0.4-7.2,2.2-8.9,4.5c-1.7,2.4-2.5,4.5-2.5,6.7c0,2.8,1.4,5.7,4.3,8.9c2.9,3.3,6.2,5,9.4,5.1
							c3,0.1,5.9-1.3,8.5-4c2.8-2.9,6.7-9.9,6.4-16.2c-0.1-3.3-1.4-6.1-3.8-8.1c-3.8-3.3-8.8-5.1-14.2-5c-4.9,0.1-9.2,1.8-11.7,4.5
							c-4,4.4-6.3,8.2-7.2,11.8c-0.8,3-0.6,6.1,0.4,10.4c0.9,3.4,2.5,6.1,5,8.2c2.2,1.9,5.2,3.3,9.1,4.4l-0.7,2.7
							c-4.3-1.2-7.6-2.8-10.2-4.9C483,471.5,482.5,471,482,470.5L482,470.5z"/>
					</g>
				</g>
			</g>
		</g>
	</g>
</g>
<g>
	<defs>
		<rect id="SVGID_00000000203759592615139090000000088102037377202061_" x="1.2" y="2.7" width="98.2" height="165.1"/>
	</defs>
	<clipPath id="SVGID_00000092414908089226769950000010736350314377054864_">
		<use xlink:href="#SVGID_00000000203759592615139090000000088102037377202061_"  style="overflow:visible;"/>
	</clipPath>
	<g style="clip-path:url(#SVGID_00000092414908089226769950000010736350314377054864_);">
		<path class="st1" d="M-146.6,51.5c25.7-3.3,51.4-6.8,77.3-8.1c-3.6-19.5-8.3-38.7-13.9-57.7c22.3,1.9,45.3,4.9,67.2,9.5
			c3-25.2,7.5-50.7,10.6-75.9C30.8-41.9,65.7-1.7,99.2,39.5c-24.8,0.7-50.6,1.5-75.4,2.2c4.6,20.5,9.8,41.4,14.4,62
			C15.5,101.1-7,96.9-29.3,91.5c-1.3,24.7-2.3,51.6-3.6,76.3C-69.6,129-108,88.4-146.6,51.5L-146.6,51.5z"/>
	</g>
</g>
<g>
	<defs>
		<rect id="SVGID_00000005228588927461863070000013849771316730253243_" x="1100.1" y="2.7" width="115.8" height="109.7"/>
	</defs>
	<clipPath id="SVGID_00000016792836734638625430000010592406600533131649_">
		<use xlink:href="#SVGID_00000005228588927461863070000013849771316730253243_"  style="overflow:visible;"/>
	</clipPath>
	<g style="clip-path:url(#SVGID_00000016792836734638625430000010592406600533131649_);">
		<g>
			<defs>
				
					<rect id="SVGID_00000162337779901262864540000002491692726145141893_" x="1091.6" y="-129.5" transform="matrix(0.3322 -0.9432 0.9432 0.3322 816.1954 1142.3357)" width="246.3" height="248.6"/>
			</defs>
			<clipPath id="SVGID_00000058551001682819638830000005771424111890981034_">
				<use xlink:href="#SVGID_00000162337779901262864540000002491692726145141893_"  style="overflow:visible;"/>
			</clipPath>
			<g style="clip-path:url(#SVGID_00000058551001682819638830000005771424111890981034_);">
				<g>
					<defs>
						
							<rect id="SVGID_00000094593079428327887370000006879345894226630294_" x="1091.6" y="-129.5" transform="matrix(0.3322 -0.9432 0.9432 0.3322 816.1954 1142.3357)" width="246.3" height="248.6"/>
					</defs>
					<clipPath id="SVGID_00000174595671905456124820000013539449974479255182_">
						<use xlink:href="#SVGID_00000094593079428327887370000006879345894226630294_"  style="overflow:visible;"/>
					</clipPath>
					<g style="clip-path:url(#SVGID_00000174595671905456124820000013539449974479255182_);">
						<path class="st1" d="M1234.6-127.6c-5.5,25.4-10.7,50.7-18,75.6c19.6,3,39.2,5,59,6.1c-9.2,20.4-19.7,41.1-31.2,60.2
							c22.8,11.2,45.3,23.9,68.1,35.2c-48.7,21.2-98.2,40.8-148.2,58.7c7.6-23.6,15.4-48.2,22.9-71.8c-20.9-2.5-42.3-4.5-63.3-7
							c10.1-20.6,21.5-40.5,34-59.7c-22.8-9.5-47.9-19.3-70.7-28.8C1135.9-80.7,1186.9-103.4,1234.6-127.6L1234.6-127.6z"/>
					</g>
				</g>
			</g>
		</g>
	</g>
</g>
<g>
	<defs>
		<rect id="SVGID_00000142174912678718837410000007239160483096727436_" x="176.1" y="285.8" width="61.4" height="49.1"/>
	</defs>
	<clipPath id="SVGID_00000003803482581436382630000015875255821285281417_">
		<use xlink:href="#SVGID_00000142174912678718837410000007239160483096727436_"  style="overflow:visible;"/>
	</clipPath>
	<g style="clip-path:url(#SVGID_00000003803482581436382630000015875255821285281417_);">
		<g>
			<defs>
				
					<rect id="SVGID_00000070109416238423930080000001939011061919388071_" x="193.3" y="275.8" transform="matrix(0.5113 -0.8594 0.8594 0.5113 -169.711 328.5085)" width="21.3" height="75.4"/>
			</defs>
			<clipPath id="SVGID_00000165198130137456591310000001186154564193291425_">
				<use xlink:href="#SVGID_00000070109416238423930080000001939011061919388071_"  style="overflow:visible;"/>
			</clipPath>
			<g style="clip-path:url(#SVGID_00000165198130137456591310000001186154564193291425_);">
				<g>
					<defs>
						
							<rect id="SVGID_00000075846110621542965780000004865044031806074269_" x="193.3" y="275.8" transform="matrix(0.5113 -0.8594 0.8594 0.5113 -169.711 328.5085)" width="21.3" height="75.4"/>
					</defs>
					<clipPath id="SVGID_00000080925436217450687640000013087907488318883979_">
						<use xlink:href="#SVGID_00000075846110621542965780000004865044031806074269_"  style="overflow:visible;"/>
					</clipPath>
					<g style="clip-path:url(#SVGID_00000080925436217450687640000013087907488318883979_);">
						<path class="st4" d="M177.8,286.2c-0.1,0-0.1,0.1-0.1,0.1c-0.2,0.1-0.4-0.2-0.7,0c-0.7,0.2-0.8,0.7-0.8,1.3
							c0,1.7,0.3,3.3,0.6,4.9c1.3,5.8,3.8,11,7.2,15.8c6,8.4,14,13.9,23.7,17.3c4.5,1.5,9.1,2.3,13.8,2.8c2.8,0.3,5.5,0.5,8.3,0.7
							c0.1,0,0.2-0.1,0.3-0.1c0.1,0.1,0.2,0.1,0.3,0.2l0,0c0.1,0.1-0.1,0.1-0.1,0.1c-0.9,0.6-1.9,1-2.9,1.3c-0.7,0.2-1.4,0.5-1.9,1
							c-1.5,0.5-2.2,1.5-1.9,3c3.1,0.5,5.9-0.6,8.6-1.9c1-0.5,2-0.9,3.1-1.4c2.5-1.1,2.1-1,2.3-3.2c0.1-0.5,0-1-0.1-1.5
							c0-0.2-0.1-0.3-0.2-0.4c0-0.5-0.4-0.8-0.8-1c-1.2-0.6-2.4-1.3-3.6-1.9c-0.2-0.3-0.4-0.4-0.7-0.5c-0.1-0.3-0.4-0.4-0.7-0.5
							c-0.1-0.2-0.3-0.3-0.5-0.4c-2.2-1.7-4.1-3.7-5.7-6c-0.1-0.2-0.2-0.3-0.4-0.5c-0.1-0.2-0.3-0.4-0.6-0.3
							c-0.2,0.1-0.3,0.4-0.3,0.5c0.1,0.8-0.2,1.6-0.1,2.3c0,0.4,0.2,0.6,0.4,1c1.4,2.4,3.2,4.4,5.2,6.3c0.2,0.2,0.4,0.3,0.5,0.5
							c0.2,0.2,0,0.4-0.2,0.5c-0.2-0.2-0.4-0.2-0.7,0c-0.2-0.1-0.5-0.2-0.7,0c0-0.1-0.1-0.1-0.1,0c-0.2-0.1-0.4-0.2-0.7,0
							c-0.2,0-0.3-0.1-0.5-0.1c-1.9-0.2-3.8-0.4-5.6-0.6c-1.7-0.2-3.4-0.5-5.1-0.7c-0.4-0.1-0.9-0.2-1.3-0.3
							c-4.3-1-8.4-2.5-12.3-4.5c-1.4-0.7-2.8-1.5-4.1-2.3c-0.2-0.3-0.5-0.4-0.8-0.5c-0.2-0.3-0.4-0.4-0.7-0.5
							c-0.1-0.3-0.4-0.4-0.7-0.5c-0.1-0.2-0.2-0.3-0.4-0.3c0-0.1-0.1-0.1-0.2-0.1c-0.1-0.2-0.3-0.3-0.4-0.4
							c-0.8-0.6-1.6-1.2-2.3-1.9c-0.1,0-0.4-0.1-0.2,0.2c0.1,0.2,0.1,0.3,0,0.3c-0.1,0-0.2,0-0.3,0c-2.4-2.1-4.4-4.5-6.3-7.1
							c-0.2-0.2-0.3-0.5-0.5-0.8c-0.9-1.5-1.9-3-2.8-4.5c0-0.1,0-0.1,0-0.2c0,0-0.1-0.1-0.1-0.1c0-0.1,0-0.2-0.1-0.3
							c0-0.1,0-0.2-0.1-0.3c0-0.1,0-0.2-0.1-0.3c0-0.1,0-0.2-0.1-0.3c0-0.1,0-0.2-0.1-0.3l0,0c0-0.1,0-0.2-0.1-0.3l0,0
							c0-0.1-0.1-0.2-0.1-0.3l0,0c0-0.1,0-0.2-0.1-0.3l0,0c0-0.1,0-0.2-0.1-0.3l0,0l0,0c0-0.1,0-0.2-0.1-0.3l0,0
							c0-0.1,0-0.2-0.1-0.3l0,0c0-0.1,0-0.2-0.1-0.3c-0.3-0.9-0.6-1.7-0.9-2.6c-0.3-0.4-0.4-0.9-0.5-1.3c0,0,0.1-0.1,0.1-0.1
							c0.1,0,0.1,0,0.2,0c-0.1-0.4-0.1-0.7-0.4-1c-0.1-0.1-0.1-0.2-0.2-0.3c0.1,0.1,0.1,0.2,0.2,0.3c0-0.1,0-0.2-0.1-0.3
							c0.1-0.2,0-0.3-0.1-0.5c0-0.1,0-0.2-0.1-0.3c0-0.1,0-0.2-0.1-0.3c0-0.1,0-0.1,0-0.2c0-0.4-0.1-0.7-0.2-1c0-0.2,0-0.5-0.2-0.7
							c0.1-0.2,0-0.3-0.1-0.5c-0.1-1-0.3-2-0.2-3C178.4,286.2,178.1,285.9,177.8,286.2L177.8,286.2z M228,326.2L228,326.2L228,326.2
							L228,326.2L228,326.2L228,326.2z M181.1,298.7C181.1,298.7,181.1,298.7,181.1,298.7C181.1,298.7,181.1,298.7,181.1,298.7
							C181.1,298.7,181.1,298.7,181.1,298.7C181.1,298.7,181.1,298.7,181.1,298.7L181.1,298.7z M183,301.3L183,301.3
							C183,301.3,183,301.3,183,301.3L183,301.3L183,301.3L183,301.3L183,301.3L183,301.3z M181,298.6
							C181,298.6,181,298.6,181,298.6c0.1,0,0.1,0.1,0.1,0.1C181.1,298.7,181,298.6,181,298.6L181,298.6z M181.1,298.8L181.1,298.8
							L181.1,298.8C181.2,298.9,181.1,298.8,181.1,298.8L181.1,298.8z M177.3,288L177.3,288L177.3,288L177.3,288z M177.3,288.5
							C177.3,288.5,177.3,288.5,177.3,288.5L177.3,288.5z M179.6,292.4C179.6,292.4,179.5,292.4,179.6,292.4
							C179.5,292.4,179.5,292.4,179.6,292.4C179.5,292.4,179.5,292.4,179.6,292.4L179.6,292.4z M179.4,291.6c0,0,0-0.1,0-0.1
							C179.4,291.5,179.4,291.6,179.4,291.6z"/>
					</g>
				</g>
			</g>
		</g>
	</g>
</g>
<g>
	<defs>
		<rect id="SVGID_00000055709040743065492040000006663649420837937064_" x="181.5" y="298.8" width="0.8" height="0.8"/>
	</defs>
	<clipPath id="SVGID_00000146499482771375271020000016815525127627213743_">
		<use xlink:href="#SVGID_00000055709040743065492040000006663649420837937064_"  style="overflow:visible;"/>
	</clipPath>
	<g style="clip-path:url(#SVGID_00000146499482771375271020000016815525127627213743_);">
		<g>
			<defs>
				
					<rect id="SVGID_00000055682154873919442790000004675374589509025200_" x="193.3" y="275.8" transform="matrix(0.5113 -0.8594 0.8594 0.5113 -169.711 328.5085)" width="21.3" height="75.4"/>
			</defs>
			<clipPath id="SVGID_00000119111855043072247850000013966673506624967584_">
				<use xlink:href="#SVGID_00000055682154873919442790000004675374589509025200_"  style="overflow:visible;"/>
			</clipPath>
			<g style="clip-path:url(#SVGID_00000119111855043072247850000013966673506624967584_);">
				<g>
					<defs>
						
							<rect id="SVGID_00000078018627157042377050000011512948397536433594_" x="193.3" y="275.8" transform="matrix(0.5113 -0.8594 0.8594 0.5113 -169.711 328.5085)" width="21.3" height="75.4"/>
					</defs>
					<clipPath id="SVGID_00000115512375989864025450000017715067005155423153_">
						<use xlink:href="#SVGID_00000078018627157042377050000011512948397536433594_"  style="overflow:visible;"/>
					</clipPath>
					<g style="clip-path:url(#SVGID_00000115512375989864025450000017715067005155423153_);">
						<path class="st4" d="M181.9,299.2c0,0.1,0.1,0.2,0.1,0.3C182.1,299.3,182,299.2,181.9,299.2z"/>
					</g>
				</g>
			</g>
		</g>
	</g>
</g>
<g>
	<defs>
		<rect id="SVGID_00000049933848392777022780000011569785068700760448_" x="392.5" y="285" width="60.6" height="50.6"/>
	</defs>
	<clipPath id="SVGID_00000133495910737153607950000014894796391183151804_">
		<use xlink:href="#SVGID_00000049933848392777022780000011569785068700760448_"  style="overflow:visible;"/>
	</clipPath>
	<g style="clip-path:url(#SVGID_00000133495910737153607950000014894796391183151804_);">
		<g>
			<defs>
				
					<rect id="SVGID_00000077304784441835903030000008792345610637922749_" x="388.5" y="302.8" transform="matrix(0.8426 -0.5385 0.5385 0.8426 -101.7008 278.7892)" width="75.4" height="21.3"/>
			</defs>
			<clipPath id="SVGID_00000050661373107649248230000013068237564462030240_">
				<use xlink:href="#SVGID_00000077304784441835903030000008792345610637922749_"  style="overflow:visible;"/>
			</clipPath>
			<g style="clip-path:url(#SVGID_00000050661373107649248230000013068237564462030240_);">
				<g>
					<defs>
						
							<rect id="SVGID_00000114757868598086229340000001424298281094424723_" x="388.3" y="302.9" transform="matrix(0.8426 -0.5385 0.5385 0.8426 -101.7802 278.7183)" width="75.4" height="21.3"/>
					</defs>
					<clipPath id="SVGID_00000158009357522561649980000002726494962193685940_">
						<use xlink:href="#SVGID_00000114757868598086229340000001424298281094424723_"  style="overflow:visible;"/>
					</clipPath>
					<g style="clip-path:url(#SVGID_00000158009357522561649980000002726494962193685940_);">
						<path class="st4" d="M451.3,285.4c0.1,0,0.1,0.1,0.1,0.1c0.2,0.1,0.4-0.2,0.7,0c0.7,0.1,0.8,0.7,0.8,1.3
							c0,1.7-0.2,3.3-0.5,4.9c-1.1,5.8-3.4,11.1-6.7,16c-5.7,8.6-13.6,14.4-23.1,18c-4.4,1.7-9,2.6-13.7,3.2
							c-2.7,0.4-5.5,0.6-8.2,0.9c-0.1,0-0.2-0.1-0.3-0.1c-0.1,0.1-0.2,0.1-0.3,0.2l0,0c0,0.1,0.1,0.1,0.2,0.1c0.9,0.6,2,0.9,3,1.2
							c0.7,0.2,1.4,0.5,2,0.9c1.5,0.4,2.2,1.5,2,2.9c-3.1,0.6-5.9-0.4-8.6-1.6c-1-0.5-2.1-0.9-3.1-1.3c-2.5-1-2.1-1-2.4-3.1
							c-0.1-0.5,0-1,0-1.5c0-0.2,0.1-0.3,0.2-0.4c-0.1-0.5,0.3-0.8,0.7-1c1.2-0.7,2.3-1.4,3.5-2c0.2-0.3,0.4-0.4,0.7-0.5
							c0.1-0.3,0.4-0.4,0.7-0.5c0.1-0.2,0.3-0.3,0.4-0.4c2.1-1.8,4-3.8,5.5-6.2c0.1-0.2,0.2-0.3,0.4-0.5c0.1-0.2,0.3-0.4,0.6-0.4
							c0.2,0.1,0.3,0.3,0.3,0.5c-0.1,0.8,0.2,1.5,0.2,2.3c0,0.4-0.2,0.7-0.4,1c-1.3,2.4-3,4.5-5,6.5c-0.2,0.2-0.4,0.3-0.5,0.5
							c-0.1,0.2,0,0.4,0.2,0.5c0.2-0.2,0.4-0.2,0.7-0.1c0.2-0.1,0.5-0.2,0.7-0.1c0-0.1,0.1-0.1,0.1,0c0.2-0.1,0.4-0.2,0.7-0.1
							c0.2,0,0.3-0.1,0.5-0.1c1.9-0.3,3.7-0.5,5.6-0.8c1.7-0.2,3.4-0.6,5-0.9c0.4-0.1,0.9-0.3,1.3-0.4c4.2-1.1,8.3-2.7,12.1-4.9
							c1.4-0.8,2.7-1.6,4-2.4c0.2-0.3,0.5-0.4,0.8-0.5c0.1-0.3,0.4-0.4,0.7-0.5c0.1-0.3,0.4-0.4,0.6-0.5c0.1-0.2,0.2-0.3,0.4-0.3
							c0-0.1,0.1-0.1,0.2-0.1c0.1-0.2,0.3-0.3,0.4-0.4c0.7-0.7,1.6-1.2,2.3-2c0.1,0,0.4-0.1,0.2,0.2c-0.1,0.2-0.1,0.3,0,0.3
							c0.1,0,0.2,0,0.3,0c2.3-2.2,4.3-4.7,6.1-7.3c0.1-0.2,0.3-0.5,0.4-0.8c0.9-1.5,1.8-3.1,2.6-4.6c0-0.1,0-0.1,0-0.2
							c0,0,0-0.1,0.1-0.1c0-0.1,0-0.2,0.1-0.3c0-0.1,0-0.2,0.1-0.3c0-0.1,0-0.2,0.1-0.3c0-0.1,0-0.2,0.1-0.3c0-0.1,0-0.2,0.1-0.3
							l0,0c0-0.1,0-0.2,0.1-0.3l0,0c0-0.1,0.1-0.2,0.1-0.3l0,0c0-0.1,0-0.2,0.1-0.3l0,0c0-0.1,0-0.2,0.1-0.3l0,0l0,0
							c0-0.1,0-0.2,0.1-0.3l0,0c0-0.1,0-0.2,0.1-0.3l0,0c0-0.1,0-0.2,0.1-0.3c0.3-0.9,0.6-1.7,0.9-2.6c0.3-0.4,0.4-0.9,0.5-1.4
							c0,0-0.1-0.1-0.1-0.1c-0.1,0-0.1,0-0.2,0c0.1-0.4,0.1-0.7,0.3-1c0.1-0.1,0.1-0.2,0.2-0.3c0,0.1-0.1,0.2-0.2,0.3
							c0-0.1,0-0.2,0.1-0.3c-0.1-0.2,0-0.3,0.1-0.5c0-0.1,0-0.2,0.1-0.3c0-0.1,0-0.2,0.1-0.3c0-0.1,0-0.1,0-0.2c0-0.4,0.1-0.7,0.2-1
							c0-0.2,0-0.5,0.2-0.7c0-0.2,0-0.3,0.1-0.5c0-1,0.3-2,0.1-3.1C450.7,285.4,451,285.1,451.3,285.4L451.3,285.4z M402.4,327
							L402.4,327L402.4,327L402.4,327L402.4,327L402.4,327C402.4,327,402.4,327,402.4,327L402.4,327z M448.4,297.9
							C448.4,297.9,448.4,298,448.4,297.9L448.4,297.9C448.4,298,448.4,298,448.4,297.9C448.4,297.9,448.4,297.9,448.4,297.9
							L448.4,297.9z M446.6,300.7L446.6,300.7C446.6,300.7,446.6,300.7,446.6,300.7L446.6,300.7L446.6,300.7L446.6,300.7
							L446.6,300.7L446.6,300.7z M448.5,297.9C448.5,297.9,448.5,297.9,448.5,297.9C448.5,298,448.4,298,448.5,297.9
							C448.5,297.9,448.5,297.9,448.5,297.9L448.5,297.9z M448.4,298.1C448.4,298.1,448.4,298.2,448.4,298.1L448.4,298.1
							C448.4,298.2,448.4,298.1,448.4,298.1z M451.9,287.2L451.9,287.2L451.9,287.2C451.9,287.2,451.9,287.2,451.9,287.2
							C451.9,287.2,451.9,287.2,451.9,287.2L451.9,287.2z M451.8,287.7C451.8,287.7,451.8,287.7,451.8,287.7L451.8,287.7z
							 M449.7,291.6C449.7,291.6,449.8,291.6,449.7,291.6C449.8,291.6,449.8,291.6,449.7,291.6C449.8,291.6,449.8,291.6,449.7,291.6
							L449.7,291.6z M449.8,290.8c0,0,0-0.1,0-0.1C449.8,290.8,449.8,290.8,449.8,290.8z"/>
					</g>
				</g>
			</g>
		</g>
	</g>
</g>
<g>
	<defs>
		<rect id="SVGID_00000088116531663550737630000015565815479639890086_" x="446.9" y="298" width="0.8" height="0.8"/>
	</defs>
	<clipPath id="SVGID_00000113320304432140241820000017706205421377516455_">
		<use xlink:href="#SVGID_00000088116531663550737630000015565815479639890086_"  style="overflow:visible;"/>
	</clipPath>
	<g style="clip-path:url(#SVGID_00000113320304432140241820000017706205421377516455_);">
		<g>
			<defs>
				
					<rect id="SVGID_00000062892442957839934940000012790585182391528343_" x="388.5" y="302.8" transform="matrix(0.8426 -0.5385 0.5385 0.8426 -101.7008 278.7892)" width="75.4" height="21.3"/>
			</defs>
			<clipPath id="SVGID_00000079444410864239386950000007335275237399878293_">
				<use xlink:href="#SVGID_00000062892442957839934940000012790585182391528343_"  style="overflow:visible;"/>
			</clipPath>
			<g style="clip-path:url(#SVGID_00000079444410864239386950000007335275237399878293_);">
				<g>
					<defs>
						
							<rect id="SVGID_00000003086473569226380270000018130695363292043703_" x="388.3" y="302.9" transform="matrix(0.8426 -0.5385 0.5385 0.8426 -101.7802 278.7183)" width="75.4" height="21.3"/>
					</defs>
					<clipPath id="SVGID_00000057840388354038511840000005289739102774887609_">
						<use xlink:href="#SVGID_00000003086473569226380270000018130695363292043703_"  style="overflow:visible;"/>
					</clipPath>
					<g style="clip-path:url(#SVGID_00000057840388354038511840000005289739102774887609_);">
						<path class="st4" d="M447.6,298.5c0,0.1-0.1,0.2-0.1,0.3C447.4,298.6,447.5,298.5,447.6,298.5z"/>
					</g>
				</g>
			</g>
		</g>
	</g>
</g>
<path class="st2" d="M133.9,89.2v18.5h-10.3V70.1h8.1l15.1,19.2V70.1h10.4v37.7h-8.2L133.9,89.2L133.9,89.2z"/>
<path class="st2" d="M163.5,107.7V70.1h10.4v37.7H163.5z"/>
<path class="st2" d="M207.2,98.7v9h-26.8V70.1h26.4v9h-16v5.3h13.7v8.4h-13.7v5.9L207.2,98.7L207.2,98.7z"/>
<path class="st2" d="M252.4,107.7V87.9l-6.3,13.9h-5.5l-6.3-13.9v19.8h-10.4V70.1h11.3l8.1,17.7l8.2-17.7h11.2v37.7L252.4,107.7
	L252.4,107.7z"/>
<path class="st2" d="M285.6,98.9c1.2,0,2.2-0.3,3.1-0.8c0.9-0.5,1.5-1.2,2.1-2.1c0.5-0.9,0.9-1.9,1.2-3c0.2-1.1,0.4-2.3,0.4-3.6
	V70.1h10.4v19.4c0,2.6-0.3,5.1-1,7.4s-1.7,4.2-3.1,5.9c-1.4,1.7-3.2,3-5.3,3.9c-2.1,0.9-4.7,1.4-7.6,1.4s-5.6-0.5-7.7-1.5
	c-2.1-1-3.9-2.4-5.3-4.1c-1.4-1.7-2.4-3.7-3-5.9c-0.6-2.2-1-4.6-1-7.2V70.1H279v19.4c0,1.2,0.1,2.4,0.4,3.6s0.6,2.2,1.2,3
	c0.5,0.9,1.2,1.6,2,2.1C283.4,98.6,284.4,98.9,285.6,98.9L285.6,98.9z"/>
<path class="st2" d="M331.3,82.4c-1.1-0.6-2.2-1.2-3.3-1.7c-1-0.4-2-0.8-3.2-1.2c-1.2-0.4-2.3-0.6-3.5-0.6c-0.9,0-1.6,0.1-2.2,0.4
	c-0.5,0.3-0.8,0.8-0.8,1.4c0,0.5,0.2,0.9,0.5,1.2c0.3,0.3,0.8,0.6,1.4,0.9c0.6,0.3,1.3,0.5,2.2,0.8c0.9,0.2,1.9,0.6,3,0.9
	c1.7,0.5,3.3,1.1,4.7,1.8c1.4,0.6,2.6,1.4,3.6,2.2c1,0.9,1.8,1.9,2.3,3.2c0.5,1.2,0.8,2.7,0.8,4.5c0,2.3-0.4,4.2-1.2,5.7
	c-0.8,1.5-1.9,2.8-3.3,3.7c-1.4,0.9-2.9,1.6-4.6,2c-1.7,0.4-3.4,0.6-5.2,0.6c-1.4,0-2.8-0.1-4.3-0.3c-1.5-0.2-2.9-0.5-4.3-0.9
	s-2.8-0.8-4.1-1.4c-1.3-0.5-2.5-1.1-3.7-1.8l4.5-9.1c1.2,0.8,2.5,1.5,3.9,2.1c1.1,0.5,2.4,1,3.9,1.4c1.4,0.4,2.9,0.6,4.4,0.6
	c1.1,0,1.9-0.2,2.4-0.4c0.4-0.3,0.7-0.7,0.7-1.2c0-0.5-0.2-1-0.7-1.3c-0.4-0.4-1-0.7-1.8-1c-0.8-0.3-1.7-0.6-2.7-0.8
	c-1-0.3-2.1-0.6-3.2-1c-1.7-0.6-3.1-1.2-4.3-1.8c-1.2-0.7-2.2-1.4-3-2.2c-0.8-0.8-1.4-1.8-1.7-2.8c-0.4-1.1-0.5-2.3-0.5-3.7
	c0-2.1,0.4-3.9,1.1-5.5c0.8-1.6,1.8-2.9,3.1-4c1.3-1.1,2.8-1.9,4.5-2.4c1.7-0.6,3.5-0.8,5.3-0.8c1.4,0,2.7,0.1,4,0.4
	c1.3,0.3,2.6,0.6,3.8,1s2.4,0.8,3.4,1.3c1.1,0.5,2,0.9,2.9,1.3L331.3,82.4L331.3,82.4z"/>
<path class="st2" d="M341.2,107.7V70.1h10.4v37.7H341.2z"/>
<path class="st2" d="M380.9,82.4c-1.1-0.6-2.2-1.2-3.3-1.7c-1-0.4-2-0.8-3.2-1.2c-1.2-0.4-2.3-0.6-3.5-0.6c-0.9,0-1.6,0.1-2.2,0.4
	c-0.5,0.3-0.8,0.8-0.8,1.4c0,0.5,0.2,0.9,0.5,1.2c0.3,0.3,0.8,0.6,1.4,0.9c0.6,0.3,1.3,0.5,2.2,0.8c0.9,0.2,1.9,0.6,3,0.9
	c1.7,0.5,3.3,1.1,4.7,1.8c1.4,0.6,2.6,1.4,3.6,2.2c1,0.9,1.8,1.9,2.3,3.2c0.5,1.2,0.8,2.7,0.8,4.5c0,2.3-0.4,4.2-1.2,5.7
	c-0.8,1.5-1.9,2.8-3.3,3.7c-1.4,0.9-2.9,1.6-4.6,2c-1.7,0.4-3.4,0.6-5.2,0.6c-1.4,0-2.8-0.1-4.3-0.3c-1.5-0.2-2.9-0.5-4.3-0.9
	s-2.8-0.8-4.1-1.4c-1.3-0.5-2.5-1.1-3.7-1.8l4.5-9.1c1.2,0.8,2.5,1.5,3.9,2.1c1.1,0.5,2.4,1,3.9,1.4c1.4,0.4,2.9,0.6,4.4,0.6
	c1.1,0,1.9-0.2,2.4-0.4c0.4-0.3,0.7-0.7,0.7-1.2c0-0.5-0.2-1-0.7-1.3c-0.4-0.4-1-0.7-1.8-1c-0.8-0.3-1.7-0.6-2.7-0.8
	c-1-0.3-2.1-0.6-3.2-1c-1.7-0.6-3.1-1.2-4.3-1.8c-1.2-0.7-2.2-1.4-3-2.2c-0.8-0.8-1.4-1.8-1.7-2.8c-0.4-1.1-0.5-2.3-0.5-3.7
	c0-2.1,0.4-3.9,1.1-5.5c0.8-1.6,1.8-2.9,3.1-4c1.3-1.1,2.8-1.9,4.5-2.4c1.7-0.6,3.5-0.8,5.3-0.8c1.4,0,2.7,0.1,4,0.4
	c1.3,0.3,2.6,0.6,3.8,1s2.4,0.8,3.4,1.3c1.1,0.5,2,0.9,2.9,1.3L380.9,82.4L380.9,82.4z"/>
<path class="st2" d="M389,100l17.6-21h-16.8v-9h28.8v7.7l-16.5,21h16.9v9H389L389,100L389,100z"/>
<path class="st2" d="M458.5,82.4c-1.1-0.6-2.2-1.2-3.3-1.7c-1-0.4-2-0.8-3.2-1.2c-1.2-0.4-2.3-0.6-3.5-0.6c-0.9,0-1.6,0.1-2.2,0.4
	c-0.5,0.3-0.8,0.8-0.8,1.4c0,0.5,0.2,0.9,0.5,1.2c0.3,0.3,0.8,0.6,1.4,0.9c0.6,0.3,1.3,0.5,2.2,0.8c0.9,0.2,1.9,0.6,3,0.9
	c1.7,0.5,3.3,1.1,4.7,1.8c1.4,0.6,2.6,1.4,3.6,2.2c1,0.9,1.8,1.9,2.3,3.2c0.5,1.2,0.8,2.7,0.8,4.5c0,2.3-0.4,4.2-1.2,5.7
	c-0.8,1.5-1.9,2.8-3.3,3.7c-1.4,0.9-2.9,1.6-4.6,2c-1.7,0.4-3.4,0.6-5.2,0.6c-1.4,0-2.8-0.1-4.3-0.3c-1.5-0.2-2.9-0.5-4.3-0.9
	s-2.8-0.8-4.1-1.4c-1.3-0.5-2.5-1.1-3.7-1.8l4.5-9.1c1.2,0.8,2.5,1.5,3.9,2.1c1.1,0.5,2.4,1,3.9,1.4c1.4,0.4,2.9,0.6,4.4,0.6
	c1.1,0,1.9-0.2,2.4-0.4c0.4-0.3,0.7-0.7,0.7-1.2c0-0.5-0.2-1-0.7-1.3c-0.4-0.4-1-0.7-1.8-1c-0.8-0.3-1.7-0.6-2.7-0.8
	c-1-0.3-2.1-0.6-3.2-1c-1.7-0.6-3.1-1.2-4.3-1.8c-1.2-0.7-2.2-1.4-3-2.2c-0.8-0.8-1.4-1.8-1.7-2.8c-0.4-1.1-0.5-2.3-0.5-3.7
	c0-2.1,0.4-3.9,1.1-5.5c0.8-1.6,1.8-2.9,3.1-4c1.3-1.1,2.8-1.9,4.5-2.4c1.7-0.6,3.5-0.8,5.3-0.8c1.4,0,2.7,0.1,4,0.4
	c1.3,0.3,2.6,0.6,3.8,1s2.4,0.8,3.4,1.3c1.1,0.5,2,0.9,2.9,1.3L458.5,82.4L458.5,82.4z"/>
<path class="st2" d="M468.4,107.7V70.1h10.4v37.7H468.4z"/>
<path class="st2" d="M498.5,119.1c-2.4-0.3-4.1-1-5.3-2c-1.1-1-1.7-2.1-1.7-3.3c0-1,0.4-2.1,1.1-3.1s1.9-2,3.3-2.9h-10.7V70.1h26.4
	v9h-16v5.3h13.7v8.4h-13.7v5.9h16.5v9h-11.2c-1.4,0.8-2.4,1.6-3.2,2.3c-0.7,0.8-1.1,1.6-1.1,2.3c0,0.6,0.3,1.1,0.9,1.4
	s1.5,0.5,2.8,0.5L498.5,119.1L498.5,119.1z"/>
<path class="st2" d="M109.3,158.2l17.6-21h-16.8v-9h28.8v7.7l-16.5,21h16.9v9h-29.9L109.3,158.2L109.3,158.2z"/>
<path class="st2" d="M140.4,165.9l14.1-37.7h8.4l14,37.7H166l-2.3-7.4h-10l-2.2,7.4H140.4z M158.7,139l-3.5,12.6h6.9L158.7,139
	L158.7,139z"/>
<path class="st2" d="M202.5,140.5c-1.1-0.6-2.2-1.2-3.3-1.7c-0.9-0.4-2-0.8-3.2-1.2c-1.2-0.4-2.3-0.6-3.5-0.6
	c-0.9,0-1.6,0.1-2.2,0.4c-0.6,0.3-0.8,0.8-0.8,1.4c0,0.5,0.2,0.9,0.5,1.2c0.3,0.3,0.8,0.6,1.4,0.9c0.6,0.3,1.3,0.5,2.2,0.8
	c0.9,0.2,1.9,0.6,2.9,0.9c1.7,0.5,3.3,1.1,4.7,1.8c1.4,0.6,2.6,1.4,3.6,2.2c1,0.9,1.8,1.9,2.3,3.1c0.5,1.2,0.8,2.7,0.8,4.5
	c0,2.3-0.4,4.2-1.2,5.7c-0.8,1.5-1.9,2.8-3.3,3.7c-1.4,0.9-2.9,1.6-4.6,2c-1.7,0.4-3.4,0.6-5.2,0.6c-1.4,0-2.8-0.1-4.3-0.3
	c-1.4-0.2-2.9-0.5-4.3-0.9c-1.4-0.4-2.8-0.9-4.1-1.4s-2.6-1.1-3.7-1.8l4.4-9.1c1.2,0.8,2.5,1.5,3.9,2.1c1.1,0.5,2.4,1,3.9,1.4
	c1.4,0.4,2.9,0.6,4.4,0.6c1.1,0,1.9-0.1,2.4-0.4c0.4-0.3,0.7-0.7,0.7-1.2c0-0.5-0.2-1-0.7-1.4c-0.4-0.4-1.1-0.7-1.8-1
	c-0.8-0.3-1.7-0.6-2.7-0.9c-1-0.3-2.1-0.6-3.2-1c-1.7-0.6-3.1-1.2-4.3-1.8c-1.2-0.6-2.2-1.4-3-2.2c-0.8-0.8-1.4-1.8-1.7-2.8
	c-0.4-1.1-0.6-2.3-0.6-3.7c0-2.1,0.4-3.9,1.1-5.5c0.8-1.6,1.8-2.9,3.1-4c1.3-1.1,2.8-1.9,4.5-2.4c1.7-0.6,3.5-0.8,5.3-0.8
	c1.4,0,2.7,0.1,4,0.4c1.3,0.3,2.6,0.6,3.8,1s2.4,0.9,3.4,1.3c1.1,0.5,2,0.9,2.9,1.3L202.5,140.5L202.5,140.5z"/>
<path class="st2" d="M241.8,137.2h-10.8v28.6h-10.4v-28.6h-10.9v-9h32L241.8,137.2L241.8,137.2z"/>
<path class="st2" d="M241.9,165.9l14.1-37.7h8.4l14,37.7h-10.9l-2.3-7.4h-10l-2.2,7.4H241.9L241.9,165.9z M260.1,139l-3.5,12.6h6.9
	L260.1,139L260.1,139z"/>
<path class="st2" d="M291.5,147.4v18.5h-10.4v-37.7h8.1l15.1,19.2v-19.2h10.4v37.7h-8.2L291.5,147.4L291.5,147.4z"/>
<path class="st2" d="M317.4,165.9l14-37.7h8.4l14,37.7H343l-2.3-7.4h-10l-2.2,7.4H317.4z M335.7,139l-3.5,12.6h6.9L335.7,139
	L335.7,139z"/>
<path class="st2" d="M368.7,128.2h9.5l3.3,11.6l3.3-11.6h9.5l-6.2,18l2.7,7.9l8.1-25.8h11.2l-14.8,37.7h-8.6l-5.4-13.5l-5.3,13.5
	h-8.6l-14.8-37.7H364l8.2,25.8l2.6-7.9L368.7,128.2L368.7,128.2z"/>
<path class="st2" d="M412.9,165.9v-37.7h10.4v37.7H412.9z"/>
<path class="st2" d="M426,165.9l14-37.7h8.4l14,37.7h-10.9l-2.3-7.4h-10l-2.2,7.4H426z M444.3,139l-3.5,12.6h6.9L444.3,139
	L444.3,139z"/>
<path class="st2" d="M463.2,146.7c0-2.3,0.4-4.6,1.2-6.8s2-4.2,3.6-6c1.6-1.8,3.5-3.2,5.7-4.3c2.2-1.1,4.8-1.6,7.7-1.6
	c3.4,0,6.3,0.8,8.8,2.2s4.4,3.5,5.6,6l-7.9,5.6c-0.3-0.9-0.7-1.7-1.2-2.3s-1.1-1.1-1.7-1.4c-0.6-0.4-1.2-0.6-1.9-0.7
	c-0.7-0.1-1.3-0.2-1.9-0.2c-1.3,0-2.4,0.3-3.4,0.9c-0.9,0.6-1.7,1.4-2.3,2.3c-0.6,0.9-1.1,2-1.3,3.2s-0.4,2.4-0.4,3.5
	c0,1.3,0.2,2.6,0.5,3.8c0.3,1.2,0.8,2.3,1.5,3.2c0.6,0.9,1.5,1.6,2.4,2.2c0.9,0.6,2,0.8,3.2,0.8c0.6,0,1.2-0.1,1.9-0.2
	c0.6-0.2,1.2-0.4,1.8-0.8s1.1-0.9,1.6-1.4c0.5-0.6,0.9-1.3,1.1-2.1l8.4,5c-0.5,1.4-1.3,2.6-2.4,3.7c-1.1,1.1-2.3,2-3.7,2.8
	c-1.4,0.7-2.8,1.3-4.4,1.7s-3.1,0.6-4.6,0.6c-2.6,0-5-0.6-7.2-1.7c-2.2-1.1-4.1-2.6-5.6-4.4c-1.6-1.8-2.8-3.9-3.7-6.3
	C463.6,151.5,463.1,149.1,463.2,146.7L463.2,146.7z M484.5,126.6l-6.4-1.7l2.6-7.5h9L484.5,126.6z"/>
<path class="st2" d="M512.4,149.9v-22.1h10.1v22.1H512.4z M512.4,165.9v-9.8h10.1v9.8H512.4z"/>
<path class="st4" d="M18.7,242.9v-17.4h6.7c1.4,0,2.7,0.2,3.8,0.7c1.1,0.5,2,1.1,2.8,1.9c0.7,0.8,1.3,1.7,1.7,2.8
	c0.4,1.1,0.6,2.2,0.6,3.4c0,1.3-0.2,2.5-0.6,3.6c-0.4,1.1-1,2-1.8,2.8c-0.8,0.8-1.7,1.4-2.8,1.8c-1.1,0.4-2.3,0.6-3.6,0.6
	L18.7,242.9L18.7,242.9z M29.3,234.2c0-0.7-0.1-1.3-0.3-1.8c-0.2-0.6-0.4-1-0.8-1.4s-0.8-0.7-1.2-0.9c-0.5-0.2-1-0.3-1.6-0.3h-1.9
	v9.1h1.9c0.6,0,1.2-0.1,1.7-0.4c0.5-0.2,0.9-0.6,1.2-1s0.6-0.9,0.8-1.4C29.2,235.5,29.3,234.9,29.3,234.2L29.3,234.2z"/>
<path class="st4" d="M36.3,242.9v-17.4h8c0.8,0,1.6,0.2,2.3,0.5c0.7,0.4,1.3,0.8,1.8,1.4c0.5,0.6,0.9,1.2,1.2,1.9s0.4,1.5,0.4,2.2
	c0,1-0.2,2-0.7,2.8c-0.4,0.9-1,1.6-1.8,2.1l3.9,6.4h-5.4l-3.3-5.4h-1.8v5.4L36.3,242.9L36.3,242.9z M41.1,233.4h3
	c0.3,0,0.6-0.2,0.8-0.5c0.2-0.3,0.4-0.8,0.4-1.4s-0.2-1.1-0.4-1.4c-0.3-0.3-0.6-0.5-0.9-0.5h-2.9C41.1,229.7,41.1,233.4,41.1,233.4z
	"/>
<path class="st4" d="M51.4,242.9l6.5-17.4h3.9l6.5,17.4h-5.1l-1-3.4h-4.6l-1,3.4L51.4,242.9L51.4,242.9z M59.9,230.5l-1.6,5.8h3.2
	L59.9,230.5L59.9,230.5z"/>
<path class="st4" d="M80.4,241.5c-1.1,1-2.4,1.6-3.8,1.6c-1.1,0-2.1-0.2-3.1-0.7c-1-0.5-1.8-1.1-2.5-1.9c-0.7-0.8-1.3-1.8-1.7-2.9
	c-0.4-1.1-0.6-2.2-0.6-3.4s0.2-2.4,0.7-3.4c0.4-1.1,1-2,1.8-2.8s1.7-1.4,2.7-1.9c1-0.4,2.1-0.7,3.3-0.7c0.7,0,1.4,0.1,2.1,0.3
	s1.3,0.4,1.9,0.8c0.6,0.3,1.1,0.7,1.5,1.2c0.5,0.5,0.8,1,1.1,1.6l-3.6,2.7c-0.3-0.7-0.7-1.2-1.3-1.6c-0.6-0.4-1.2-0.6-1.9-0.6
	c-0.5,0-0.9,0.1-1.4,0.4c-0.4,0.2-0.8,0.6-1.1,1s-0.5,0.9-0.7,1.5c-0.2,0.6-0.2,1.2-0.2,1.9s0.1,1.3,0.2,1.9c0.2,0.6,0.4,1,0.7,1.4
	c0.3,0.4,0.7,0.7,1.1,0.9c0.4,0.2,0.9,0.3,1.4,0.3c0.6,0,1.1-0.1,1.7-0.4c0.6-0.3,1.1-0.7,1.6-1.3h-3.1v-3.4h7.2v9.3h-4L80.4,241.5
	L80.4,241.5z"/>
<path class="st4" d="M94.1,243.1c-1.2,0-2.4-0.2-3.4-0.8s-1.9-1.2-2.6-2c-0.7-0.8-1.3-1.8-1.7-2.8s-0.6-2.2-0.6-3.3s0.2-2.2,0.6-3.3
	c0.4-1.1,1-2,1.8-2.8c0.8-0.8,1.6-1.4,2.7-1.9c1-0.5,2.2-0.7,3.4-0.7s2.4,0.3,3.4,0.8c1,0.5,1.9,1.2,2.6,2c0.7,0.8,1.3,1.8,1.7,2.8
	c0.4,1.1,0.6,2.1,0.6,3.3s-0.2,2.2-0.6,3.3c-0.4,1.1-1,2-1.7,2.8c-0.7,0.8-1.6,1.5-2.7,1.9C96.5,242.8,95.3,243.1,94.1,243.1
	L94.1,243.1z M90.7,234.2c0,0.6,0.1,1.2,0.2,1.7s0.3,1,0.7,1.4c0.3,0.4,0.7,0.8,1.1,1c0.4,0.3,1,0.4,1.6,0.4s1.1-0.1,1.6-0.4
	c0.4-0.3,0.8-0.6,1.1-1.1c0.3-0.4,0.5-0.9,0.6-1.5c0.1-0.6,0.2-1.1,0.2-1.7s-0.1-1.2-0.2-1.7c-0.1-0.6-0.4-1-0.7-1.4
	c-0.3-0.4-0.6-0.8-1.1-1c-0.4-0.2-1-0.4-1.6-0.4s-1.1,0.1-1.6,0.4c-0.4,0.3-0.8,0.6-1.1,1s-0.5,0.9-0.6,1.5S90.7,233.7,90.7,234.2
	L90.7,234.2z"/>
<path class="st4" d="M109.4,234.4v8.6h-4.8v-17.4h3.7l7,8.9v-8.9h4.8v17.4h-3.8L109.4,234.4z"/>
<path class="st4" d="M139.2,231.2c-0.5-0.3-1-0.6-1.5-0.8c-0.4-0.2-0.9-0.4-1.5-0.6s-1.1-0.3-1.6-0.3c-0.4,0-0.8,0.1-1,0.2
	c-0.2,0.1-0.4,0.4-0.4,0.7c0,0.2,0.1,0.4,0.2,0.6c0.1,0.1,0.4,0.3,0.6,0.4c0.3,0.1,0.6,0.2,1,0.4c0.4,0.1,0.9,0.2,1.4,0.4
	c0.8,0.2,1.5,0.5,2.2,0.8c0.6,0.3,1.2,0.6,1.6,1c0.5,0.4,0.8,0.9,1.1,1.5c0.2,0.6,0.4,1.3,0.4,2.1c0,1.1-0.2,1.9-0.6,2.6
	c-0.4,0.7-0.9,1.3-1.5,1.7c-0.6,0.4-1.3,0.7-2.1,0.9c-0.8,0.2-1.6,0.3-2.4,0.3c-0.6,0-1.3-0.1-1.9-0.1s-1.3-0.2-2-0.4
	c-0.7-0.2-1.3-0.4-1.9-0.6s-1.2-0.5-1.7-0.8l2.1-4.2c0.6,0.4,1.2,0.7,1.8,1c0.5,0.2,1.1,0.5,1.8,0.7c0.7,0.2,1.3,0.3,2,0.3
	c0.5,0,0.9-0.1,1.1-0.2c0.2-0.1,0.3-0.3,0.3-0.6s-0.1-0.4-0.3-0.6c-0.2-0.2-0.5-0.3-0.8-0.5s-0.8-0.3-1.2-0.4
	c-0.5-0.1-1-0.3-1.5-0.5c-0.8-0.3-1.4-0.6-2-0.9c-0.6-0.3-1-0.6-1.4-1s-0.6-0.8-0.8-1.3c-0.2-0.5-0.2-1.1-0.2-1.7
	c0-1,0.2-1.8,0.5-2.6c0.4-0.7,0.8-1.4,1.4-1.8c0.6-0.5,1.3-0.9,2.1-1.1c0.8-0.2,1.6-0.4,2.5-0.4c0.6,0,1.3,0.1,1.9,0.2
	c0.6,0.1,1.2,0.3,1.8,0.5c0.6,0.2,1.1,0.4,1.6,0.6s0.9,0.4,1.3,0.6L139.2,231.2L139.2,231.2z"/>
<path class="st4" d="M142.8,234.1c0-1.1,0.2-2.1,0.6-3.1s0.9-1.9,1.6-2.8c0.7-0.8,1.6-1.5,2.7-2c1-0.5,2.2-0.8,3.6-0.8
	c1.6,0,2.9,0.4,4.1,1c1.2,0.7,2,1.6,2.6,2.8l-3.7,2.6c-0.1-0.4-0.3-0.8-0.6-1.1c-0.2-0.3-0.5-0.5-0.8-0.7c-0.3-0.2-0.6-0.3-0.9-0.4
	c-0.3-0.1-0.6-0.1-0.9-0.1c-0.6,0-1.1,0.1-1.6,0.4c-0.4,0.3-0.8,0.6-1.1,1.1s-0.5,0.9-0.6,1.5c-0.1,0.6-0.2,1.1-0.2,1.6
	c0,0.6,0.1,1.2,0.2,1.8c0.1,0.6,0.4,1,0.7,1.5c0.3,0.4,0.7,0.8,1.1,1c0.4,0.3,0.9,0.4,1.5,0.4c0.3,0,0.6,0,0.9-0.1s0.6-0.2,0.9-0.4
	s0.5-0.4,0.7-0.7c0.2-0.3,0.4-0.6,0.5-1l3.9,2.3c-0.2,0.6-0.6,1.2-1.1,1.7c-0.5,0.5-1.1,0.9-1.7,1.3c-0.6,0.3-1.3,0.6-2,0.8
	c-0.7,0.2-1.4,0.3-2.1,0.3c-1.2,0-2.3-0.2-3.3-0.8c-1-0.5-1.9-1.2-2.6-2.1c-0.7-0.9-1.3-1.8-1.7-2.9S142.8,235.2,142.8,234.1
	L142.8,234.1z"/>
<path class="st4" d="M158.1,242.9l6.5-17.4h3.9l6.5,17.4H170l-1.1-3.4h-4.6l-1,3.4L158.1,242.9L158.1,242.9z M166.6,230.5l-1.6,5.8
	h3.2L166.6,230.5L166.6,230.5z"/>
<path class="st4" d="M176.3,242.9v-17.4h7.5c0.9,0,1.6,0.2,2.4,0.5s1.3,0.8,1.9,1.4c0.5,0.6,0.9,1.2,1.2,1.9
	c0.3,0.7,0.4,1.5,0.4,2.2s-0.1,1.5-0.4,2.2c-0.3,0.7-0.7,1.4-1.2,1.9c-0.5,0.6-1.1,1-1.8,1.4c-0.7,0.3-1.5,0.5-2.3,0.5h-2.9v5.4
	L176.3,242.9L176.3,242.9z M181.1,233.4h2.5c0.3,0,0.6-0.1,0.8-0.4c0.2-0.3,0.4-0.8,0.4-1.5s-0.1-1.2-0.4-1.5
	c-0.3-0.3-0.6-0.4-0.9-0.4h-2.4V233.4z"/>
<path class="st4" d="M203.9,238.8v4.2h-12.4v-17.4h12.2v4.2h-7.4v2.5h6.3v3.9h-6.3v2.8H203.9z"/>
<path class="st4" d="M418.4,242.9v-17.4h6.7c1.4,0,2.7,0.2,3.8,0.7c1.1,0.5,2,1.1,2.8,1.9c0.7,0.8,1.3,1.7,1.7,2.8
	c0.4,1.1,0.6,2.2,0.6,3.4c0,1.3-0.2,2.5-0.6,3.6c-0.4,1.1-1,2-1.8,2.8c-0.8,0.8-1.7,1.4-2.8,1.8c-1.1,0.4-2.3,0.6-3.6,0.6
	L418.4,242.9L418.4,242.9z M429,234.2c0-0.7-0.1-1.3-0.3-1.8c-0.2-0.6-0.4-1-0.8-1.4s-0.8-0.7-1.2-0.9c-0.5-0.2-1-0.3-1.6-0.3h-1.9
	v9.1h1.9c0.6,0,1.2-0.1,1.7-0.4c0.5-0.2,0.9-0.6,1.2-1s0.6-0.9,0.8-1.4C428.9,235.5,429,234.9,429,234.2L429,234.2z"/>
<path class="st4" d="M436,242.9v-17.4h8c0.9,0,1.6,0.2,2.4,0.5s1.3,0.8,1.9,1.4c0.5,0.6,0.9,1.2,1.2,1.9s0.4,1.5,0.4,2.2
	c0,1-0.2,2-0.7,2.8c-0.4,0.9-1,1.6-1.8,2.1l3.9,6.4h-5.4l-3.3-5.4h-1.8v5.4L436,242.9L436,242.9z M440.7,233.4h3
	c0.3,0,0.6-0.2,0.8-0.5c0.2-0.3,0.4-0.8,0.4-1.4s-0.1-1.1-0.4-1.4c-0.3-0.3-0.6-0.5-0.9-0.5h-2.9L440.7,233.4L440.7,233.4z"/>
<path class="st4" d="M451.1,242.9l6.5-17.4h3.9l6.5,17.4h-5.1l-1-3.4h-4.6l-1,3.4L451.1,242.9L451.1,242.9z M459.5,230.5l-1.6,5.8
	h3.2L459.5,230.5L459.5,230.5z"/>
<path class="st4" d="M480.1,241.5c-1.1,1-2.4,1.6-3.8,1.6c-1.1,0-2.1-0.2-3.1-0.7c-1-0.5-1.8-1.1-2.5-1.9c-0.7-0.8-1.3-1.8-1.7-2.9
	c-0.4-1.1-0.6-2.2-0.6-3.4s0.2-2.4,0.6-3.4c0.4-1.1,1-2,1.8-2.8c0.8-0.8,1.6-1.4,2.7-1.9c1-0.4,2.1-0.7,3.3-0.7
	c0.7,0,1.4,0.1,2.1,0.3c0.7,0.2,1.3,0.4,1.9,0.8c0.6,0.3,1.1,0.7,1.5,1.2c0.5,0.5,0.8,1,1.1,1.6l-3.6,2.7c-0.3-0.7-0.7-1.2-1.3-1.6
	c-0.6-0.4-1.2-0.6-1.9-0.6c-0.5,0-0.9,0.1-1.4,0.4c-0.4,0.2-0.8,0.6-1.1,1s-0.5,0.9-0.7,1.5c-0.2,0.6-0.2,1.2-0.2,1.9
	s0.1,1.3,0.2,1.9c0.2,0.6,0.4,1,0.7,1.4c0.3,0.4,0.7,0.7,1.1,0.9c0.4,0.2,0.9,0.3,1.5,0.3c0.6,0,1.1-0.1,1.7-0.4
	c0.5-0.3,1.1-0.7,1.5-1.3h-3.1v-3.4h7.2v9.3h-4L480.1,241.5L480.1,241.5z"/>
<path class="st4" d="M493.8,243.1c-1.2,0-2.4-0.2-3.4-0.8c-1-0.5-1.9-1.2-2.6-2c-0.7-0.8-1.3-1.8-1.7-2.8s-0.6-2.2-0.6-3.3
	s0.2-2.2,0.6-3.3c0.4-1.1,1-2,1.8-2.8c0.8-0.8,1.6-1.4,2.7-1.9c1-0.5,2.1-0.7,3.4-0.7s2.4,0.3,3.4,0.8c1,0.5,1.9,1.2,2.6,2
	c0.7,0.8,1.3,1.8,1.7,2.8c0.4,1.1,0.6,2.1,0.6,3.3s-0.2,2.2-0.6,3.3c-0.4,1.1-1,2-1.7,2.8c-0.7,0.8-1.6,1.5-2.6,1.9
	C496.2,242.8,495,243.1,493.8,243.1L493.8,243.1z M490.4,234.2c0,0.6,0.1,1.2,0.2,1.7s0.4,1,0.6,1.4c0.3,0.4,0.7,0.8,1.1,1
	c0.5,0.3,1,0.4,1.5,0.4s1.1-0.1,1.6-0.4c0.5-0.3,0.8-0.6,1.1-1.1c0.3-0.4,0.5-0.9,0.6-1.5c0.1-0.6,0.2-1.1,0.2-1.7s-0.1-1.2-0.2-1.7
	c-0.1-0.6-0.4-1-0.6-1.4c-0.3-0.4-0.6-0.8-1.1-1c-0.4-0.2-1-0.4-1.5-0.4s-1.1,0.1-1.6,0.4c-0.4,0.3-0.8,0.6-1.1,1s-0.5,0.9-0.6,1.5
	S490.3,233.7,490.4,234.2L490.4,234.2z"/>
<path class="st4" d="M509,234.4v8.6h-4.8v-17.4h3.7l7,8.9v-8.9h4.8v17.4H516L509,234.4L509,234.4z"/>
<path class="st4" d="M533.3,231.2c-0.5-0.3-1-0.6-1.5-0.8c-0.5-0.2-1-0.4-1.5-0.6s-1.1-0.3-1.6-0.3c-0.4,0-0.8,0.1-1,0.2
	c-0.2,0.1-0.4,0.4-0.4,0.7c0,0.2,0.1,0.4,0.2,0.6c0.2,0.1,0.4,0.3,0.6,0.4c0.3,0.1,0.6,0.2,1,0.4c0.4,0.1,0.9,0.2,1.4,0.4
	c0.8,0.2,1.5,0.5,2.2,0.8c0.7,0.3,1.2,0.6,1.7,1c0.5,0.4,0.8,0.9,1,1.5c0.2,0.6,0.4,1.3,0.4,2.1c0,1.1-0.2,1.9-0.6,2.6
	c-0.4,0.7-0.9,1.3-1.5,1.7c-0.6,0.4-1.3,0.7-2.1,0.9c-0.8,0.2-1.6,0.3-2.4,0.3c-0.6,0-1.3-0.1-2-0.1s-1.3-0.2-2-0.4
	c-0.7-0.2-1.3-0.4-1.9-0.6s-1.2-0.5-1.7-0.8l2.1-4.2c0.6,0.4,1.2,0.7,1.8,1c0.5,0.2,1.1,0.5,1.8,0.7c0.7,0.2,1.3,0.3,2,0.3
	c0.5,0,0.9-0.1,1.1-0.2c0.2-0.1,0.3-0.3,0.3-0.6s-0.1-0.4-0.3-0.6c-0.2-0.2-0.5-0.3-0.8-0.5c-0.4-0.1-0.8-0.3-1.2-0.4
	c-0.5-0.1-1-0.3-1.5-0.5c-0.8-0.3-1.4-0.6-2-0.9c-0.5-0.3-1-0.6-1.4-1s-0.6-0.8-0.8-1.3c-0.2-0.5-0.2-1.1-0.2-1.7
	c0-1,0.2-1.8,0.5-2.6c0.3-0.7,0.8-1.4,1.4-1.8c0.6-0.5,1.3-0.9,2.1-1.1c0.8-0.2,1.6-0.4,2.5-0.4c0.6,0,1.3,0.1,1.9,0.2
	c0.6,0.1,1.2,0.3,1.8,0.5s1.1,0.4,1.6,0.6s0.9,0.4,1.3,0.6L533.3,231.2L533.3,231.2z"/>
<path class="st4" d="M542.5,234.1c0-1.1,0.2-2.1,0.6-3.1s0.9-1.9,1.7-2.8c0.7-0.8,1.6-1.5,2.7-2c1-0.5,2.2-0.8,3.5-0.8
	c1.5,0,2.9,0.4,4.1,1c1.2,0.7,2,1.6,2.6,2.8l-3.7,2.6c-0.1-0.4-0.3-0.8-0.6-1.1c-0.2-0.3-0.5-0.5-0.8-0.7c-0.3-0.2-0.6-0.3-0.9-0.4
	c-0.3-0.1-0.6-0.1-0.9-0.1c-0.6,0-1.1,0.1-1.6,0.4c-0.4,0.3-0.8,0.6-1.1,1.1s-0.5,0.9-0.6,1.5c-0.1,0.6-0.2,1.1-0.2,1.6
	c0,0.6,0.1,1.2,0.2,1.8c0.2,0.6,0.4,1,0.7,1.5c0.3,0.4,0.7,0.8,1.1,1c0.4,0.3,0.9,0.4,1.5,0.4c0.3,0,0.6,0,0.9-0.1s0.6-0.2,0.8-0.4
	c0.3-0.2,0.5-0.4,0.7-0.7c0.2-0.3,0.4-0.6,0.5-1l3.9,2.3c-0.2,0.6-0.6,1.2-1.1,1.7c-0.5,0.5-1.1,0.9-1.7,1.3c-0.6,0.3-1.3,0.6-2,0.8
	c-0.7,0.2-1.4,0.3-2.1,0.3c-1.2,0-2.3-0.2-3.3-0.8c-1-0.5-1.9-1.2-2.6-2.1c-0.7-0.9-1.3-1.8-1.7-2.9S542.5,235.2,542.5,234.1
	L542.5,234.1z"/>
<path class="st4" d="M557.8,242.9l6.5-17.4h3.9l6.5,17.4h-5.1l-1-3.4H564l-1,3.4L557.8,242.9L557.8,242.9z M566.3,230.5l-1.6,5.8
	h3.2L566.3,230.5L566.3,230.5z"/>
<path class="st4" d="M576,242.9v-17.4h7.5c0.8,0,1.6,0.2,2.3,0.5s1.3,0.8,1.8,1.4c0.5,0.6,0.9,1.2,1.2,1.9s0.4,1.5,0.4,2.2
	s-0.1,1.5-0.4,2.2c-0.3,0.7-0.7,1.4-1.2,1.9c-0.5,0.6-1.1,1-1.8,1.4c-0.7,0.3-1.5,0.5-2.3,0.5h-2.8v5.4L576,242.9L576,242.9z
	 M580.8,233.4h2.5c0.3,0,0.6-0.1,0.8-0.4c0.2-0.3,0.4-0.8,0.4-1.5s-0.2-1.2-0.4-1.5c-0.3-0.3-0.6-0.4-0.9-0.4h-2.4L580.8,233.4
	L580.8,233.4z"/>
<path class="st4" d="M603.6,238.8v4.2h-12.4v-17.4h12.2v4.2H596v2.5h6.3v3.9H596v2.8H603.6L603.6,238.8z"/>
<path class="st2" d="M260.2,233.9c0-2.3,0.4-4.6,1.2-6.8s2-4.2,3.6-6c1.6-1.8,3.5-3.2,5.7-4.3c2.2-1.1,4.8-1.6,7.7-1.6
	c3.4,0,6.3,0.8,8.8,2.2s4.4,3.5,5.6,6l-7.9,5.6c-0.3-0.9-0.7-1.7-1.2-2.3s-1.1-1.1-1.7-1.4c-0.6-0.4-1.2-0.6-1.9-0.7
	c-0.7-0.1-1.3-0.2-1.9-0.2c-1.3,0-2.4,0.3-3.4,0.9c-0.9,0.6-1.7,1.4-2.3,2.3c-0.6,0.9-1.1,2-1.3,3.2s-0.4,2.4-0.4,3.5
	c0,1.3,0.2,2.6,0.5,3.8c0.3,1.2,0.8,2.3,1.5,3.2c0.6,0.9,1.5,1.6,2.4,2.2c0.9,0.6,2,0.8,3.2,0.8c0.6,0,1.2-0.1,1.9-0.2
	c0.6-0.2,1.2-0.4,1.8-0.8s1.1-0.9,1.6-1.4c0.5-0.6,0.9-1.3,1.1-2.1l8.4,5c-0.5,1.4-1.3,2.6-2.4,3.7c-1.1,1.1-2.3,2-3.7,2.8
	c-1.4,0.7-2.8,1.3-4.4,1.7s-3.1,0.6-4.6,0.6c-2.6,0-5-0.6-7.2-1.7c-2.2-1.1-4.1-2.6-5.6-4.4c-1.6-1.8-2.8-3.9-3.7-6.3
	C260.6,238.6,260.2,236.3,260.2,233.9L260.2,233.9z"/>
<path class="st2" d="M295.2,245.3l17.6-21H296v-9h28.8v7.7l-16.5,21h16.9v9h-29.9L295.2,245.3L295.2,245.3z"/>
<path class="st2" d="M337.3,215.4l6.7,16.3l6.9-16.3h11.2l-13,25.2V253h-10.3v-12.6l-12.8-25.1H337.3z"/>
<path class="st2" d="M792.3,176.4h-11.8v31.3h-11.3v-31.3h-11.9v-9.8h35V176.4z"/>
<path class="st2" d="M825.8,197.9v9.8h-29.3v-41.1h28.8v9.8h-17.5v5.8h14.9v9.1h-14.9v6.5L825.8,197.9L825.8,197.9z"/>
<path class="st2" d="M831,207.7v-41.1h18.9c2,0,3.9,0.4,5.6,1.3c1.7,0.8,3.2,1.9,4.4,3.2c1.2,1.3,2.2,2.9,2.9,4.6
	c0.7,1.7,1,3.4,1,5.2c0,2.4-0.5,4.6-1.6,6.7c-1,2.1-2.5,3.8-4.3,5.1l9.3,15.1h-12.8l-7.8-12.6h-4.2v12.6L831,207.7L831,207.7z
	 M842.3,185.2h7.1c0.7,0,1.3-0.4,1.9-1.1c0.6-0.8,0.9-1.9,0.9-3.2s-0.3-2.5-1-3.3c-0.7-0.8-1.4-1.1-2.1-1.1h-6.8V185.2z"/>
<path class="st2" d="M866.8,207.7l15.3-41.1h9.2l15.3,41.1h-11.9l-2.5-8.1h-11l-2.4,8.1H866.8L866.8,207.7z M886.7,178.4l-3.8,13.8
	h7.5L886.7,178.4L886.7,178.4z"/>
<path class="st2" d="M907.7,199.3l19.2-22.9h-18.4v-9.8h31.4v8.4l-18.1,22.9h18.4v9.8h-32.6L907.7,199.3L907.7,199.3z"/>
<path class="st2" d="M957,207.7c0-1.9,0.2-3.6,0.5-5.1c0.3-1.5,0.8-2.8,1.5-4c0.7-1.2,1.6-2.2,2.7-3.1c1.1-0.9,2.5-1.9,4.1-2.7
	c2.1-1.1,3.7-2,5-2.7c1.2-0.7,2.1-1.2,2.8-1.6c0.6-0.4,1-0.8,1.2-1.1c0.2-0.3,0.3-0.6,0.3-1c0-1-0.3-1.7-0.9-2.1
	c-0.6-0.5-1.5-0.7-2.5-0.7c-1.3,0-2.5,0.3-3.6,1c-1.1,0.6-2.3,1.7-3.5,3.2l-7-8.2c0.7-0.8,1.7-1.5,2.8-2.2c1.2-0.7,2.4-1.3,3.8-1.7
	c1.4-0.5,2.9-0.9,4.5-1.1c1.6-0.3,3.2-0.4,4.9-0.4c4.4,0,7.8,0.9,10.1,2.8s3.5,4.4,3.5,7.7c0,1.2-0.2,2.3-0.5,3.2
	c-0.3,0.9-0.7,1.8-1.2,2.5c-0.5,0.8-1.2,1.4-1.9,2.1c-0.7,0.6-1.5,1.2-2.3,1.7c-1,0.6-2,1.3-3,1.9c-1.1,0.6-2.1,1.3-3.2,2h12.8v9.8
	L957,207.7L957,207.7z"/>
<path class="st2" d="M1006.5,207.7v-41.1h11.3v31.3h18.7v9.8H1006.5L1006.5,207.7z"/>
<path class="st2" d="M1058,208.1c-2.9,0-5.6-0.6-8-1.8c-2.4-1.2-4.5-2.8-6.2-4.7c-1.7-1.9-3-4.2-4-6.7c-0.9-2.5-1.4-5.1-1.4-7.8
	s0.5-5.3,1.5-7.8c1-2.5,2.4-4.7,4.2-6.6s3.9-3.4,6.3-4.6c2.4-1.1,5.1-1.7,8-1.7s5.6,0.6,8,1.8c2.4,1.2,4.5,2.8,6.2,4.8
	c1.7,2,3,4.2,4,6.7c0.9,2.5,1.4,5.1,1.4,7.7s-0.5,5.3-1.5,7.8c-1,2.5-2.3,4.7-4.1,6.6s-3.8,3.4-6.3,4.6
	C1063.5,207.5,1060.9,208.1,1058,208.1L1058,208.1z M1049.8,187.2c0,1.4,0.2,2.7,0.5,4c0.3,1.3,0.8,2.4,1.5,3.4
	c0.7,1,1.6,1.8,2.6,2.4c1.1,0.6,2.3,0.9,3.7,0.9s2.7-0.3,3.7-1c1.1-0.6,1.9-1.5,2.6-2.5c0.7-1,1.2-2.2,1.5-3.5
	c0.3-1.3,0.5-2.6,0.5-4s-0.2-2.7-0.5-4c-0.3-1.3-0.9-2.4-1.5-3.4s-1.5-1.8-2.6-2.4c-1-0.6-2.3-0.9-3.7-0.9s-2.7,0.3-3.7,0.9
	c-1,0.6-1.9,1.4-2.6,2.5c-0.7,1-1.2,2.2-1.5,3.5C1050,184.5,1049.8,185.8,1049.8,187.2L1049.8,187.2z"/>
<path class="st2" d="M1108.2,204.4c-2.6,2.4-5.6,3.6-9,3.6c-2.6,0-5-0.6-7.2-1.7c-2.3-1.1-4.3-2.7-6-4.6c-1.7-1.9-3.1-4.2-4.1-6.7
	c-1-2.6-1.5-5.3-1.5-8.1s0.5-5.6,1.5-8.1s2.4-4.7,4.2-6.5c1.8-1.8,3.9-3.3,6.3-4.4c2.4-1.1,5-1.6,7.8-1.6c1.7,0,3.4,0.2,5,0.6
	c1.6,0.4,3.1,1,4.4,1.8s2.6,1.7,3.6,2.8c1.1,1.1,1.9,2.3,2.6,3.7l-8.4,6.4c-0.7-1.6-1.8-2.9-3.2-3.9c-1.4-1-2.9-1.5-4.5-1.5
	c-1.2,0-2.2,0.3-3.2,0.8s-1.8,1.3-2.5,2.3c-0.7,1-1.3,2.1-1.7,3.4c-0.4,1.3-0.6,2.8-0.6,4.4s0.2,3.1,0.6,4.4c0.4,1.3,1,2.4,1.7,3.4
	c0.7,0.9,1.6,1.7,2.6,2.2c1,0.5,2.2,0.8,3.4,0.8c1.4,0,2.7-0.4,4-1.1c1.3-0.7,2.5-1.7,3.6-3h-7.2v-8.1h16.9v21.9h-9.3L1108.2,204.4
	L1108.2,204.4z"/>
<path class="st2" d="M1140.6,208.1c-2.9,0-5.6-0.6-8-1.8c-2.4-1.2-4.5-2.8-6.2-4.7c-1.7-1.9-3-4.2-4-6.7c-0.9-2.5-1.4-5.1-1.4-7.8
	s0.5-5.3,1.5-7.8c1-2.5,2.4-4.7,4.2-6.6s3.9-3.4,6.3-4.6c2.4-1.1,5.1-1.7,8-1.7s5.6,0.6,8,1.8c2.4,1.2,4.5,2.8,6.2,4.8
	c1.7,2,3,4.2,4,6.7c0.9,2.5,1.4,5.1,1.4,7.7s-0.5,5.3-1.5,7.8c-1,2.5-2.3,4.7-4.1,6.6s-3.8,3.4-6.3,4.6
	C1146.1,207.5,1143.5,208.1,1140.6,208.1L1140.6,208.1z M1132.4,187.2c0,1.4,0.2,2.7,0.5,4c0.3,1.3,0.8,2.4,1.5,3.4
	c0.7,1,1.6,1.8,2.6,2.4c1.1,0.6,2.3,0.9,3.7,0.9s2.7-0.3,3.7-1c1.1-0.6,1.9-1.5,2.6-2.5c0.7-1,1.2-2.2,1.5-3.5
	c0.3-1.3,0.5-2.6,0.5-4s-0.2-2.7-0.5-4c-0.3-1.3-0.9-2.4-1.5-3.4s-1.5-1.8-2.6-2.4c-1-0.6-2.3-0.9-3.7-0.9s-2.7,0.3-3.7,0.9
	c-1,0.6-1.9,1.4-2.6,2.5c-0.7,1-1.2,2.2-1.5,3.5C1132.6,184.5,1132.4,185.8,1132.4,187.2L1132.4,187.2z"/>
<path class="st2" d="M831.8,230.1h10.4l3.6,12.7l3.7-12.7h10.4l-6.8,19.6l3,8.6l8.9-28.2h12.3L861,271.2h-9.4l-5.8-14.7l-5.8,14.7
	h-9.4l-16.1-41.1h12.2l8.9,28.2l2.8-8.6L831.8,230.1L831.8,230.1z"/>
<path class="st2" d="M890.8,250.3c0-2.5,0.5-5,1.3-7.4s2.2-4.6,3.9-6.6c1.7-1.9,3.8-3.5,6.3-4.7c2.5-1.2,5.2-1.8,8.4-1.8
	c3.7,0,6.9,0.8,9.6,2.5s4.8,3.8,6.1,6.5l-8.6,6.1c-0.3-1-0.8-1.8-1.4-2.5c-0.6-0.6-1.2-1.2-1.8-1.6c-0.7-0.4-1.3-0.7-2.1-0.8
	c-0.7-0.2-1.4-0.2-2-0.2c-1.4,0-2.7,0.3-3.7,1c-1,0.6-1.9,1.5-2.5,2.5c-0.7,1-1.2,2.2-1.5,3.5c-0.3,1.3-0.5,2.6-0.5,3.9
	c0,1.4,0.2,2.8,0.5,4.1c0.4,1.3,0.9,2.5,1.6,3.5c0.7,1,1.6,1.8,2.6,2.4c1,0.6,2.2,0.9,3.5,0.9c0.7,0,1.3-0.1,2-0.3
	c0.7-0.2,1.4-0.5,2-0.9c0.6-0.4,1.2-0.9,1.7-1.6c0.5-0.6,0.9-1.4,1.3-2.3l9.2,5.5c-0.6,1.5-1.5,2.9-2.6,4.1s-2.5,2.2-4,3
	c-1.5,0.8-3.1,1.4-4.8,1.9s-3.4,0.6-5,0.6c-2.9,0-5.5-0.6-7.9-1.8c-2.4-1.2-4.5-2.8-6.2-4.8c-1.7-2-3-4.3-4-6.8
	C891.3,255.5,890.8,252.9,890.8,250.3L890.8,250.3z"/>
<path class="st2" d="M960.3,261.3v9.8H931V230h28.8v9.8h-17.5v5.8h14.9v9.1h-14.9v6.5L960.3,261.3L960.3,261.3z"/>
<path class="st2" d="M976.8,251v20.2h-11.3V230h8.8l16.5,20.9V230h11.3v41.1h-9L976.8,251z"/>
<path class="st2" d="M1009.2,271.2V230h11.3v41.1H1009.2z"/>
<path class="st2" d="M1056.9,261.3v9.8h-29.3V230h28.8v9.8h-17.5v5.8h14.9v9.1h-14.9v6.5L1056.9,261.3L1056.9,261.3z"/>
<path class="st2" d="M1101.9,261.3v9.8h-26.8v-9.8h8.2v-11.5c-0.3,0.5-0.9,0.9-1.6,1.4s-1.6,0.9-2.5,1.3c-0.9,0.4-1.8,0.7-2.8,0.9
	c-0.9,0.2-1.8,0.3-2.5,0.3v-10.1c0.5,0,1.3-0.2,2.3-0.6c1-0.4,1.9-0.9,2.9-1.4c1-0.6,1.8-1.2,2.6-1.8c0.8-0.6,1.3-1.2,1.5-1.6h11.2
	v23.2L1101.9,261.3L1101.9,261.3z"/>
<g>
	<defs>
		<rect id="SVGID_00000082329934354775453010000011093755158875545770_" x="930.2" y="433.8" width="53.7" height="185.6"/>
	</defs>
	<clipPath id="SVGID_00000154415547188095760920000007223491811512190872_">
		<use xlink:href="#SVGID_00000082329934354775453010000011093755158875545770_"  style="overflow:visible;"/>
	</clipPath>
	<g style="clip-path:url(#SVGID_00000154415547188095760920000007223491811512190872_);">
		<path class="st4" d="M982.1,557c-2.1-1.4-4.9-0.9-6.3,1.2l-0.3,0.5l-0.4,0.5l-0.4,0.5l-0.4,0.5l-0.4,0.5l-0.3,0.5l-0.3,0.5
			l-0.4,0.5l-0.4,0.5l-0.7,1l-0.4,0.5l-0.3,0.5l-0.3,0.5l-0.3,0.5l-0.4,0.5l-0.3,0.5l-0.3,0.5l-0.3,0.5l-0.3,0.5l-0.3,0.6l-0.3,0.5
			l-0.3,0.5l-0.3,0.5l-0.3,0.5l-0.3,0.5l-0.7,1.1l-0.3,0.5l-0.3,0.5l-0.3,0.5l-0.3,0.6l-0.6,1.1l-0.3,0.6l-0.3,0.6l-0.6,1.1
			l-0.6,1.1l-0.3,0.6l-0.3,0.6l-0.3,0.6l-0.2,0.5v-0.3l0-0.5l0-0.5l0-0.5l0-0.5l0.1-2.7l0-0.9l0-1.4v-0.5l0-0.9l0-0.5v-0.5l0.1-2.7
			l0-0.9v-0.5l0.2-5.9v-0.5l0-0.5v-0.5l0-0.5v-0.5l0-0.9l0.1-4.1v-0.5l0-0.5l0-2.7v-0.5l0-0.5v-0.5l0-0.5l0-3.2v-0.5l0-0.5v-0.5
			l0-0.5v-0.5l0-0.5v-0.5l0-0.5v-0.5l0-0.5v-0.5l0-0.5v-0.5l0-0.9V539l0-1.4v-0.5l0-0.9v-0.5l0-0.9v-0.5l0-0.9v-0.5l0-0.9v-0.5
			l0-0.9v-0.5l0-1.4v-0.5l0-1.4v-0.5l0-0.5v-0.5v-0.5v-0.5v-0.5V524l0-0.9v-0.5l0-2.3v-0.5l0-2.3v-0.5l0-2.3V514l0-0.5v-0.5v-0.5
			v-0.5l0-1.4v-1.4l0-0.5l0-3.6v-0.5v-0.5V504v-0.5v-0.9l0-1.4v-0.5l0-0.5v-0.5l0-1.4v-0.9l0-0.5v-0.9l0-0.5v-0.9l0-0.5V494l0-0.5
			v-0.5l0-0.5l0-1.4v-0.5l0-0.5v-0.5l0-0.5V489l0-0.5v-0.5l0-1.4v-0.5l0-0.5l0-1.4v-0.5l0-0.5v-0.5l0-0.5v-0.5l0-0.5v-0.5l0-0.5
			v-0.5l0-0.5l0-0.9v-0.5l0-0.5v-0.5l0-1.4v-0.5l0-0.5l0-0.9l0.1-2.7l0-0.9l0-0.9l0-0.9v-0.5l0-0.5v-0.5l0-0.5v-0.5l0-0.5v-0.5
			l0-0.5V465l0-0.5l0-0.9l0.1-2.7v-0.5l0-0.5l0.1-2.7v-0.5l0-0.5l0-0.9l0-0.5l0-0.9l0-0.5l0-0.9l0-0.5l0-0.5l0-0.5l0-0.9l0-0.5
			l0-0.5l0-0.5l0.1-2.7l0-0.5l0-0.4l0-0.9l0-0.5l0.1-1.4l0-0.5l0-0.4l0-0.5l0-0.5l0-0.9l0-0.5l0-0.9c0.2-2.5-1.8-4.7-4.3-4.8
			c-2.5-0.1-4.7,1.8-4.8,4.3l0,0.5l0,0.5l0,0.5l0,0.5l0,0.5l0,0.5l0,0.5l0,0.5l0,0.5l0,0.5l-0.1,1.4l0,0.5l0,0.5l0,0.5l0,0.5l0,0.5
			l0,0.5l0,0.5l0,0.5l0,0.5l0,0.5l0,0.5l0,0.5l0,0.5l0,0.9l0,0.5l0,0.5l0,0.5l0,0.5l0,0.5l0,0.5l0,0.5l-0.1,1.8l0,0.5l0,0.5l0,0.5
			l-0.1,1.8l0,0.5l0,0.5l0,0.5l-0.1,1.8l0,0.5v0.5l0,0.5v0.5l-0.1,2.7v0.5l0,0.5l0,1.4v0.5l0,0.5v0.5l0,0.5v0.5l0,0.5l-0.1,2.3
			l0,0.9l0,1.8v0.5l0,0.5l0,0.9v0.5l0,0.5v0.5l0,0.5v0.5l0,0.5v0.5l0,0.5l0,2.3v0.5l0,0.5v0.5l0,1.8v0.5l0,0.5v0.5l0,0.5v0.5l0,0.9
			v0.5l0,0.5v0.5l0,0.5v0.5l0,0.9v0.9l0,0.5v0.5l0,0.5v0.5l0,0.9l0,1.8v0.9l0,0.5l0,1.4v0.5v0.5v0.5l0,0.5v0.9l0,0.5v0.5l0,3.6v0.5
			v0.5v0.5l0,0.5v0.5l0,2.3v0.5l0,1.8v0.5v0.5v0.5v0.5v0.5v0.5v0.5v0.5v0.5l0,1.4v0.5l0,1.8v0.5v0.5v0.5v0.5v0.5l0,0.9v0.5l0,0.9
			v0.5l0,0.9v0.5l0,1.4v0.5v0.5v0.5l0,1.4v0.5l0,0.9v0.5l0,0.9v0.5l0,0.9v0.9l0,0.4v0.4l0,0.9v0.5l0,0.5v0.5l0,0.5l0,3.2v0.5l0,2.3
			v0.5l0,2.3v0.5l0,1.8l0,0.9l-0.1,4.1v0.5l0,0.5v0.5l0,0.5l0,0.9v0.5l0,0.9v0.5l0,0.5l-0.1,3.2l0,0.9v0.5l0,0.9l0,1.4v0.5l0,0.9
			v0.5l0,0.5l0,1.4v0.5l0,0.9v0.5l0,0.5l0,0.9l-0.1,1.8l0,0.9l0,0.5l0,0.5l-0.1,1.4l0,0.5l0,0.9l0,0.9l0,0.5l0,0.5l0,0.5l0,0.5
			l0,0.4l0,0.5l-0.1,1.8l0,0.5l0,0.5l0,0.9l0,0.5l0,0.5v0.2l0-0.2l0-0.4l-0.1-0.4l0-0.4l0-0.3l0-0.3l0-0.4l0-0.4l0-0.4l0-0.4
			l-0.1-0.7l0-0.4l0-0.4l0-0.4l-0.2-1.1l0-0.4l0-0.4l0-0.4l-0.3-2.2l0-0.4l0-0.4l-0.1-0.4l0-0.4l-0.2-1.1l0-0.4l0-0.4l-0.1-0.4
			l-0.1-0.4l-0.1-0.4l0-0.4l-0.2-1.5l-0.1-0.4l-0.1-0.4l-0.1-0.4l-0.1-0.4l-0.1-0.4l-0.1-0.4l-0.1-0.4l-0.1-0.4l-0.1-0.4l-0.1-0.4
			l-0.1-0.7l-0.1-0.4l-0.1-0.4l-0.1-0.7l-0.1-0.4l-0.1-0.4l-0.1-0.7l-0.1-0.4l-0.1-0.4l-0.1-0.7l-0.1-0.4l-0.1-0.4l-0.2-0.7
			l-0.1-0.4l-0.1-0.4l-0.2-0.7l-0.1-0.4l-0.1-0.4l-0.1-0.4l-0.1-0.4l-0.2-0.8l-0.2-0.7l-0.1-0.4l-0.1-0.4l-0.2-0.7l-0.1-0.4
			l-0.1-0.4l-0.3-1.1l-0.1-0.4l-0.1-0.3l-0.1-0.3l-0.1-0.4l-0.1-0.4l-0.1-0.3l-0.1-0.3l-0.1-0.4l-0.1-0.4l-0.1-0.3l-0.1-0.3
			l-0.1-0.4l-0.1-0.4l-0.1-0.3l-0.1-0.3l-0.1-0.4l-0.1-0.4l-0.1-0.3l-0.1-0.3l-0.1-0.4l-0.2-0.4l-0.1-0.3l-0.1-0.3l-0.2-0.4
			l-0.2-0.4l-0.1-0.3l-0.1-0.3l-0.2-0.4l-0.2-0.4l-0.2-0.3l-0.2-0.3l-0.2-0.4l-0.2-0.4l-0.3-0.7l-0.2-0.4l-0.2-0.4l-0.2-0.4
			l-0.2-0.4l-0.2-0.4l-0.2-0.3l-0.2-0.3l-0.2-0.3l-0.2-0.3l-0.2-0.3l-0.2-0.4l-0.2-0.3l-0.2-0.3c-1.2-2.2-4-3-6.2-1.8s-3,4-1.8,6.2
			l0.2,0.3l0.2,0.3l0.2,0.3l0.2,0.3l0.2,0.3l0.2,0.3l0.3,0.6l0.3,0.6l0.2,0.3l0.1,0.3l0.1,0.3l0.2,0.3l0.2,0.3l0.1,0.3l0.1,0.3
			l0.2,0.3l0.2,0.3l0.1,0.3l0.1,0.3l0.1,0.3l0.1,0.3l0.1,0.3l0.2,0.6l0.1,0.3l0.1,0.3l0.1,0.3l0.1,0.3l0.1,0.3l0.1,0.3l0.1,0.3
			l0.2,0.7l0.1,0.3l0.1,0.3l0.1,0.3l0.1,0.3l0.1,0.3l0.1,0.3l0.2,0.7l0.1,0.3l0.1,0.3l0.1,0.3l0.1,0.3l0.2,0.6l0.1,0.3l0.2,0.7
			l0.1,0.3l0.2,0.7l0.1,0.3l0.1,0.3l0.1,0.4l0.1,0.4l0.1,0.3l0.1,0.3l0.2,0.7l0.1,0.3l0.1,0.3l0.1,0.4l0.1,0.4l0.1,0.3l0.1,0.3
			l0.1,0.4l0.1,0.4l0.1,0.3l0.1,0.3l0.1,0.4l0.1,0.4l0.1,0.3l0.1,0.3l0.1,0.7l0.1,0.3l0.1,0.3l0.1,0.4l0.1,0.4l0.1,0.3l0.1,0.3
			l0.1,0.4l0.1,0.4l0.1,0.3l0.1,0.3l0.1,0.4l0.1,0.4l0.1,0.3l0.1,0.3l0.1,0.4l0.1,0.4l0.1,0.3l0,0.3l0.1,0.7l0,0.4l0.1,0.7l0,0.4
			l0,0.3l0,0.3l0.1,0.7l0,0.4l0.2,1.1l0,0.4l0,0.4l0,0.4l0.2,1.8l0.1,0.7l0.1,0.7l0,0.4l0.2,1.1l0,0.4l0.1,0.4l0,0.4l0.2,1.1l0,0.4
			l0,0.4l0,0.4l0.1,0.4l0.3,2.2l0.1,0.4l0.1,0.4l0.1,0.4l0.1,0.4l0.2,1.1l0.1,0.4l0.1,0.4l0.1,0.4l0.1,0.7l0.1,0.4l0.1,0.4l0.1,0.4
			l0.1,0.4l0.1,0.4l0.1,0.4l0.1,0.7l0.1,0.7l0.1,0.7l0.1,0.4l0.2,0.8l0.1,0.4l0.1,0.4l0.1,0.4l0.2,0.7l0.1,0.4l0.1,0.4l0.1,0.4
			l0.1,0.4l0.1,0.4l0.1,0.4l0.1,0.3l0.1,0.4l0.1,0.4l0.1,0.4l0.2,0.7l0.1,0.4l0.1,0.4l0.2,0.7l0.1,0.3c0.5,1.9,2.2,3.2,4,3.4
			c0.5,1.7,1.8,3,3.6,3.3c2.5,0.4,4.8-1.2,5.2-3.7l0.1-0.6l0.1-0.6l0.2-1.2l0.1-0.6l0.1-0.6l0.1-0.6l0.1-0.6l0.1-0.6l0.1-0.6
			l0.1-0.6l0.1-0.6l0.3-1.2l0.3-1.2l0.2-0.6l0.2-0.6l0.2-0.6l0.2-0.6l0.4-1.1l0.2-0.6l0.2-0.6l0.4-1.1l0.2-0.6l0.2-0.6l0.2-0.6
			l0.2-0.6l0.2-0.6l0.2-0.6l0.4-1.1l0.2-0.5l0.2-0.6l0.2-0.5l0.2-0.5l0.2-0.5l0.2-0.5l0.2-0.5l0.2-0.5l0.5-1.1l0.2-0.5l0.2-0.5
			l0.3-0.5l0.3-0.5l0.3-0.5l0.3-0.5l0.3-0.5l0.3-0.5l0.5-1.1l0.3-0.5l0.3-0.5l0.3-0.5l0.3-0.5l0.3-0.5l0.3-0.5l0.3-0.5l0.3-0.5
			l0.3-0.5l0.3-0.5l0.3-0.5l0.6-1l0.3-0.5l0.6-1l0.3-0.5l0.3-0.5l0.3-0.5l0.3-0.5l0.3-0.5l0.3-0.5l0.3-0.5l0.3-0.5l0.3-0.5l0.3-0.5
			l0.3-0.5l0.3-0.5l0.3-0.5l0.3-0.5l0.3-0.5l0.3-0.5l0.3-0.5l0.3-0.5l0.3-0.5l0.3-0.5l0.3-0.5l0.7-1l0.4-0.5l0.4-0.5l0.4-0.5
			c1.4-2.1,0.9-4.9-1.2-6.3"/>
	</g>
</g>
<path class="st2" d="M851,358.2c-1-0.6-2.1-1.2-3.2-1.7c-0.9-0.4-2-0.8-3.1-1.1c-1.2-0.4-2.3-0.5-3.4-0.5c-0.9,0-1.6,0.1-2.1,0.4
	c-0.5,0.3-0.8,0.7-0.8,1.4c0,0.5,0.2,0.9,0.5,1.2c0.3,0.3,0.8,0.6,1.3,0.9c0.6,0.3,1.3,0.5,2.1,0.8c0.8,0.2,1.8,0.5,2.9,0.9
	c1.7,0.5,3.2,1.1,4.6,1.7c1.4,0.6,2.5,1.4,3.5,2.2c1,0.8,1.7,1.9,2.2,3.1c0.5,1.2,0.8,2.7,0.8,4.4c0,2.2-0.4,4-1.2,5.5
	c-0.8,1.5-1.9,2.7-3.2,3.6c-1.3,0.9-2.8,1.5-4.5,1.9c-1.7,0.4-3.3,0.6-5,0.6c-1.3,0-2.7-0.1-4.1-0.3c-1.4-0.2-2.8-0.5-4.2-0.9
	s-2.7-0.8-4-1.3c-1.3-0.5-2.5-1.1-3.6-1.8l4.3-8.8c1.2,0.8,2.5,1.4,3.8,2c1.1,0.5,2.3,1,3.7,1.4s2.8,0.6,4.2,0.6
	c1.1,0,1.9-0.1,2.3-0.4c0.4-0.3,0.6-0.7,0.6-1.2c0-0.5-0.2-1-0.6-1.3c-0.4-0.4-1-0.7-1.8-0.9c-0.8-0.3-1.6-0.5-2.6-0.8s-2-0.6-3.1-1
	c-1.6-0.5-3-1.1-4.2-1.8c-1.2-0.6-2.1-1.4-2.9-2.2c-0.8-0.8-1.3-1.7-1.7-2.8c-0.4-1-0.5-2.2-0.5-3.6c0-2,0.4-3.8,1.1-5.4
	s1.7-2.8,3-3.9s2.7-1.8,4.4-2.3c1.6-0.5,3.4-0.8,5.2-0.8c1.3,0,2.7,0.1,3.9,0.4c1.3,0.3,2.5,0.6,3.7,1s2.3,0.8,3.3,1.3
	c1,0.5,2,0.9,2.8,1.3L851,358.2L851,358.2z"/>
<path class="st2" d="M860.6,382.9v-36.6h15.8c1.8,0,3.4,0.4,4.9,1.1c1.5,0.7,2.8,1.7,3.9,2.9c1.1,1.2,1.9,2.5,2.6,4.1
	s0.9,3.1,0.9,4.6s-0.3,3.2-0.9,4.7c-0.6,1.5-1.4,2.9-2.5,4.1c-1,1.2-2.3,2.1-3.8,2.8c-1.5,0.7-3.1,1-4.9,1h-6v11.2L860.6,382.9
	L860.6,382.9z M870.7,362.9h5.3c0.6,0,1.2-0.3,1.7-0.9c0.5-0.6,0.8-1.6,0.8-3.1s-0.3-2.5-0.9-3.1c-0.6-0.5-1.2-0.8-1.8-0.8h-5
	L870.7,362.9L870.7,362.9z"/>
<path class="st2" d="M892.6,382.9v-36.6h16.8c1.8,0,3.4,0.4,5,1.1c1.5,0.7,2.8,1.7,3.9,2.9c1.1,1.2,1.9,2.5,2.5,4.1
	c0.6,1.5,0.9,3.1,0.9,4.6c0,2.1-0.5,4.1-1.4,6c-0.9,1.8-2.2,3.4-3.9,4.5l8.2,13.5h-11.3l-7-11.2h-3.8v11.2L892.6,382.9L892.6,382.9z
	 M902.7,362.9h6.3c0.6,0,1.2-0.3,1.7-1s0.8-1.7,0.8-2.9s-0.3-2.2-0.9-2.9c-0.6-0.7-1.2-1-1.8-1h-6.1L902.7,362.9L902.7,362.9z"/>
<path class="st2" d="M924.4,382.9l13.7-36.6h8.2l13.6,36.6h-10.6l-2.2-7.2h-9.8l-2.2,7.2H924.4z M942.2,356.8l-3.4,12.3h6.7
	L942.2,356.8L942.2,356.8z"/>
<path class="st2" d="M974.3,346.3h9.2l3.2,11.3l3.2-11.3h9.2l-6,17.5l2.6,7.6l7.9-25.1h10.9l-14.3,36.6h-8.4l-5.2-13.1l-5.2,13.1
	h-8.4l-14.3-36.6h10.9l7.9,25.1l2.5-7.6L974.3,346.3L974.3,346.3z"/>
<path class="st2" d="M1017.2,382.9v-36.6h14.1c3,0,5.7,0.5,8,1.5c2.3,1,4.2,2.3,5.8,3.9c1.6,1.6,2.7,3.6,3.5,5.8
	c0.8,2.2,1.2,4.6,1.2,7.1c0,2.8-0.4,5.3-1.3,7.5c-0.9,2.3-2.1,4.2-3.7,5.8c-1.6,1.6-3.6,2.8-5.8,3.7c-2.3,0.9-4.8,1.3-7.6,1.3
	L1017.2,382.9L1017.2,382.9z M1039.5,364.5c0-1.4-0.2-2.7-0.6-3.9c-0.4-1.2-0.9-2.2-1.6-3c-0.7-0.8-1.6-1.5-2.6-1.9
	c-1-0.5-2.2-0.7-3.4-0.7h-4v19.1h4c1.3,0,2.5-0.2,3.5-0.7c1-0.5,1.9-1.1,2.6-2c0.7-0.9,1.2-1.9,1.6-3
	C1039.3,367.2,1039.5,365.9,1039.5,364.5L1039.5,364.5z"/>
<path class="st2" d="M1052.4,375.4l17.1-20.4h-16.3v-8.8h27.9v7.5l-16.1,20.4h16.4v8.8h-29.1L1052.4,375.4L1052.4,375.4z
	 M1070.5,344.7l-6.2-1.6l2.6-7.3h8.7L1070.5,344.7L1070.5,344.7z"/>
</svg>
