<?xml version="1.0" encoding="UTF-8"?>
<svg id="Layer_1" data-name="Layer 1" xmlns="http://www.w3.org/2000/svg" viewBox="0 0 3840 2160">
  <defs>
    <style>
      .cls-1 {
        fill: none;
      }

      .cls-1, .cls-2, .cls-3, .cls-4 {
        stroke-width: 0px;
      }

      .cls-2 {
        fill: #8bc3c2;
      }

      .cls-3 {
        fill: #fbf3e3;
      }

      .cls-4 {
        fill: #fbf4e4;
      }
    </style>
  </defs>
  <polygon class="cls-2" points="6024.81 1130.32 -2029.21 1130.32 -2037.76 -115.78 6016.26 -115.78 6024.81 1130.32"/>
  <rect class="cls-3" x="-504.19" y="977.76" width="4901.7" height="1201.9"/>
  <path class="cls-3" d="m1698.65,935.35c-7.51-.09-14.99,1.76-21.39,5.81,1.98-11,3.11-24.12-5.19-31.61-6.52-5.89-16.84-5.73-24.79-1.96s-14.06,10.44-19.96,16.96c3.06-19.8-4.83-41.11-20.53-53.56-15.7-12.44-38.72-15.16-56.57-6.06s-29.23,29.84-26.62,49.71c-22.65-4.2-46.98,13.31-50.21,36.12-12.72-15.96-40.09-16.86-53.83-1.78-3.52-16.34-15.44-30.64-30.89-37.04-15.44-6.4-49.38-7.83-61.73,18.31,1.43-16.06-18.26-22.05-33.27-16.16-1.09-14.16,1.66-31.28-12.12-34.69s-14.88-5.6-22.46,6.42c.75-1.19-8.45,2.97-15.74,8.02-3.48,2.41-7.38,3.21-7.96,7.13-2.27,15.42-25.41,20.98-26.55,21.21-9.14,1.82-8.43-28.19-16.4-23.52-21.36,12.51-30.71,14.89-46.18,33.21-3,3.55-7.88,8.14-7.88,8.14,0,0-6.98-10.65-10.23-17.13-5.91-11.81-10.49-24.5-19.18-34.68-18.96-22.21-48.34,16.06-83.17,7.48-5.76-15.2-20.78-27.77-38-27.77-9.42,0-18.09,3.23-24.95,8.64-2.66,2.08-5.04,4.48-7.07,7.17-1.95-3.38-4.21-6.56-6.76-9.47-11.02-12.63-27.26-20.59-45.32-20.59-27.96,0-51.43,19.04-58.2,44.87-.3,1.08-.55,2.2-.8,3.31-2.38-.7-4.91-1.08-7.54-1.08-14.86,0-26.91,12.05-26.91,26.91,0,2.56.35,5.01,1,7.34-1.45-.15-2.96-.23-4.46-.23-3.51,0-6.94.35-10.22,1.05-9.38,1.93-17.81,6.47-24.5,12.81-5.15-20.71-23.87-36.06-46.17-36.06-3.32,0-6.56.34-9.69.99-.32-34.2-28.15-61.83-62.43-61.83s-59.63,25.23-62.22,57.32c-3.88-2.04-8.31-3.2-13.01-3.2-15.46,0-27.99,12.53-27.99,27.99,0,2.65.37,5.22,1.06,7.66-.35,0-.71-.01-1.06-.01-20.82,0-37.7,16.88-37.7,37.7s16.88,37.7,37.7,37.7h507.01c.65-.34,1.28-.72,1.91-1.09,8.09,21.66,28.95,37.09,53.43,37.09,15.6,0,30.78-6.53,41.48-17.89,2.57-2.73,4.08-6.27,7.57-6.67,2.52-.29,8.08,3.22,11.12,3.58,8.21.96,16.9-1.39,23.2-6.81,2.85-2.45,5.3-5.49,8.71-7.07,3.21-1.49,6.88-1.5,10.42-1.49,154.79.59,309.57,1.18,464.36,1.78,12.94.05,26.45-.03,37.99-5.88,19.73-10.01,28.03-37.62,17.09-56.85-7.2-12.65-21.77-20-36.22-20.18Z"/>
  <path class="cls-3" d="m1712.13,943.54c0,25.49-22.09,43.84-47.58,43.84s-48.3-18.71-48.3-44.2,22.8-48.12,48.3-48.12,47.58,22.98,47.58,48.48Z"/>
  <circle class="cls-3" cx="2091.62" cy="994.87" r="83.41"/>
  <ellipse class="cls-3" cx="1845.99" cy="976.43" rx="19.01" ry="14.18"/>
  <path class="cls-3" d="m2022.76,1021.33c-11.52,17.47-21.55,19.91-35.14,30.3-14.24,10.89-30.23-12.25-30.23-30.3s14.63-32.69,32.69-32.69,42.62,17.62,32.69,32.69Z"/>
  <path class="cls-1" d="m1899.82,934.79c0,.53-10.38.95-23.2.95"/>
  <path class="cls-1" d="m1876.62,935.74c0-2.45,5.53-4.43,12.36-4.43"/>
  <ellipse class="cls-3" cx="1911.2" cy="1027.43" rx="45.77" ry="42.14"/>
  <path class="cls-4" d="m1708.02,961.44c-13.11-6.18-27.31-7.75-41.47-3.91l.16-62.48c10.37.24,18.98,4.01,26.37,10.35.16.14,2.91,2.89,3.11,2.83s-.78.23-.77.91c.02,1.34.62,1.94.73,3.04.43,4.43-.72,6.13,0,10.51,1.08,6.59,5.57,17.22,8.12,23.38,2.28,5.52-1.6,10.01,1.52,15.06.48.77,7.69.9,7.09,1.67-.75.96-1.52.17-2.23-.15-.88-.38-1.72-.88-2.63-1.21Z"/>
  <path class="cls-3" d="m705.24,933.57c-8.1,0-15.66,2.32-22.05,6.33,1.53-3.77,2.37-7.9,2.37-12.22,0-17.97-14.56-32.52-32.52-32.52-7.7,0-14.78,2.68-20.35,7.15-3.49-25.21-25.13-44.63-51.3-44.63-28.62,0-51.81,23.2-51.81,51.81,0,1.44.05,2.87.18,4.28-2.71-.57-5.54-.87-8.43-.87-21.06,0-38.4,15.89-40.7,36.33-1-.4-2.03-.76-3.07-1.07-6.09-7.41-15.32-12.14-25.66-12.14s-19.64,4.76-25.72,12.21c-4.76-23.64-25.63-41.43-50.68-41.43-10.52,0-20.32,3.14-28.48,8.55.11-.89.16-1.8.16-2.73,0-12.92-10.47-23.41-23.39-23.41-3.23,0-6.32.65-9.14,1.85-1.04-17.75-15.77-31.83-33.78-31.83-12.05,0-22.63,6.31-28.63,15.82-6.29-2.93-13.31-4.55-20.71-4.55-13.98,0-26.59,5.82-35.56,15.15-10.63-22.91-33.82-38.81-60.74-38.81-22.48,0-42.36,11.1-54.5,28.1-5.15-3.71-11.45-5.92-18.28-5.92-14.65,0-26.95,10.06-30.38,23.64-5.76-15.2-20.46-25.98-37.68-25.98-9.42,0-18.09,3.23-24.95,8.64-2.66,2.08-5.04,4.48-7.07,7.17-1.95-3.38-4.21-6.56-6.76-9.47-11.02-12.63-27.26-20.59-45.32-20.59-27.96,0-51.43,19.04-58.2,44.87-.3,1.08-.55,2.2-.8,3.31-2.38-.7-4.91-1.08-7.54-1.08-14.86,0-26.91,12.05-26.91,26.91,0,2.56.35,5.01,1,7.34-1.45-.15-2.96-.23-4.46-.23-3.51,0-6.94.35-10.22,1.05-9.38,1.93-17.81,6.47-24.5,12.81-5.15-20.71-23.87-36.06-46.17-36.06-3.32,0-6.56.34-9.69.99-.32-34.2-28.15-61.83-62.43-61.83s-59.63,25.23-62.22,57.32c-3.88-2.04-8.31-3.2-13.01-3.2-15.46,0-27.99,12.53-27.99,27.99,0,2.65.37,5.22,1.06,7.66-.35,0-.71-.01-1.06-.01-20.82,0-37.7,16.88-37.7,37.7s16.88,37.7,37.7,37.7H64.17c.65-.34,1.28-.72,1.91-1.09,8.09,21.66,28.95,37.09,53.43,37.09,19.79,0,37.22-10.08,47.45-25.38,4.8,2.99,10.45,4.74,16.52,4.74,11.47,0,21.49-6.17,26.95-15.37h248.89c2.66.65,5.44,1,8.3,1h237.62c22.94,0,41.54-18.61,41.54-41.54s-18.61-41.54-41.54-41.54Z"/>
  <path class="cls-3" d="m3248.17,952.7c-8.1,0-15.66,2.32-22.05,6.33,1.53-3.77,2.37-7.9,2.37-12.22,0-17.97-14.56-32.52-32.52-32.52-7.7,0-14.78,2.68-20.35,7.15-3.49-25.21-25.13-44.63-51.3-44.63-28.62,0-51.81,23.2-51.81,51.81,0,1.44.05,2.87.18,4.28-2.71-.57-5.54-.87-8.43-.87-21.06,0-38.4,15.89-40.7,36.33-1-.4-2.03-.76-3.07-1.07-6.09-7.41-15.32-12.14-25.66-12.14s-19.64,4.76-25.72,12.21c-4.76-23.64-25.63-41.43-50.68-41.43-10.52,0-20.32,3.14-28.48,8.55.11-.89.16-1.8.16-2.73,0-12.92-10.47-23.41-23.39-23.41-3.23,0-6.32.65-9.14,1.85-1.04-17.75-15.77-31.83-33.78-31.83-12.05,0-22.63,6.31-28.63,15.82-6.29-2.93-13.31-4.55-20.71-4.55-13.98,0-26.59,5.82-35.56,15.15-10.63-22.91-33.82-38.81-60.74-38.81-22.48,0-42.36,11.1-54.5,28.1-5.15-3.71-11.45-5.92-18.28-5.92-14.65,0-26.95,10.06-30.38,23.64-5.76-15.2-20.46-25.98-37.68-25.98-9.42,0-18.09,3.23-24.95,8.64-2.66,2.08-5.04,4.48-7.07,7.17-1.95-3.38-4.21-6.56-6.76-9.47-11.02-12.63-27.26-20.59-45.32-20.59-27.96,0-51.43,19.04-58.2,44.87-.3,1.08-.55,2.2-.8,3.31-2.38-.7-4.91-1.08-7.54-1.08-14.86,0-26.91,12.05-26.91,26.91,0,2.56.35,5.01,1,7.34-1.45-.15-2.96-.23-4.46-.23-3.51,0-6.94.35-10.22,1.05-9.38,1.93-17.81,6.47-24.5,12.81-5.15-20.71-23.87-36.06-46.17-36.06-3.32,0-6.56.34-9.69.99-.32-34.2-28.15-61.83-62.43-61.83s-59.63,25.23-62.22,57.32c-3.88-2.04-8.31-3.2-13.01-3.2-15.46,0-27.99,12.53-27.99,27.99,0,2.65.37,5.22,1.06,7.66-.35,0-.71-.01-1.06-.01-20.82,0-37.7,16.88-37.7,37.7s16.88,37.7,37.7,37.7h507.01c.65-.34,1.28-.72,1.91-1.09,8.09,21.66,28.95,37.09,53.43,37.09,19.79,0,37.22-10.08,47.45-25.38,4.8,2.99,10.45,4.74,16.52,4.74,11.47,0,21.49-6.17,26.95-15.37h248.89c2.66.65,5.44,1,8.3,1h237.62c22.94,0,41.54-18.61,41.54-41.54s-18.61-41.54-41.54-41.54Z"/>
  <path class="cls-3" d="m4271.38,956.32c-8.1,0-15.66,2.32-22.05,6.33,1.53-3.77,2.37-7.9,2.37-12.22,0-17.97-14.56-32.52-32.52-32.52-7.7,0-14.78,2.68-20.35,7.15-3.49-25.21-25.13-44.63-51.3-44.63-28.62,0-51.81,23.2-51.81,51.81,0,1.44.05,2.87.18,4.28-2.71-.57-5.54-.87-8.43-.87-21.06,0-38.4,15.89-40.7,36.33-1-.4-2.03-.76-3.07-1.07-6.09-7.41-15.32-12.14-25.66-12.14s-19.64,4.76-25.72,12.21c-4.76-23.64-25.63-41.43-50.68-41.43-10.52,0-20.32,3.14-28.48,8.55.11-.89.16-1.8.16-2.73,0-12.92-10.47-23.41-23.39-23.41-3.23,0-6.32.65-9.14,1.85-1.04-17.75-15.77-31.83-33.78-31.83-12.05,0-22.63,6.31-28.63,15.82-6.29-2.93-13.31-4.55-20.71-4.55-13.98,0-26.59,5.82-35.56,15.15-10.63-22.91-33.82-38.81-60.74-38.81-22.48,0-42.36,11.1-54.5,28.1-5.15-3.71-11.45-5.92-18.28-5.92-14.65,0-26.95,10.06-30.38,23.64-5.76-15.2-20.46-25.98-37.68-25.98-9.42,0-18.09,3.23-24.95,8.64-2.66,2.08-5.04,4.48-7.07,7.17-1.95-3.38-4.21-6.56-6.76-9.47-11.02-12.63-27.26-20.59-45.32-20.59-27.96,0-51.43,19.04-58.2,44.87-.3,1.08-.55,2.2-.8,3.31-2.38-.7-4.91-1.08-7.54-1.08-14.86,0-26.91,12.05-26.91,26.91,0,2.56.35,5.01,1,7.34-1.45-.15-2.96-.23-4.46-.23-3.51,0-6.94.35-10.22,1.05-9.38,1.93-17.81,6.47-24.5,12.81-5.15-20.71-23.87-36.06-46.17-36.06-3.32,0-6.56.34-9.69.99-.32-34.2-28.15-61.83-62.43-61.83s-59.63,25.23-62.22,57.32c-3.88-2.04-8.31-3.2-13.01-3.2-15.46,0-27.99,12.53-27.99,27.99,0,2.65.37,5.22,1.06,7.66-.35,0-.71-.01-1.06-.01-20.82,0-37.7,16.88-37.7,37.7s16.88,37.7,37.7,37.7h507.01c.65-.34,1.28-.72,1.91-1.09,8.09,21.66,28.95,37.09,53.43,37.09,19.79,0,37.22-10.08,47.45-25.38,4.8,2.99,10.45,4.74,16.52,4.74,11.47,0,21.49-6.17,26.95-15.37h248.89c2.66.65,5.44,1,8.3,1h237.62c22.94,0,41.54-18.61,41.54-41.54s-18.61-41.54-41.54-41.54Z"/>
  <circle class="cls-3" cx="1754.19" cy="979.9" r="60.59"/>
  <circle class="cls-3" cx="1845.08" cy="972.42" r="63.09"/>
  <circle class="cls-3" cx="1972.26" cy="999.34" r="70.57"/>
  <rect class="cls-3" x="-2032.06" y="981.94" width="8054.02" height="1269.01"/>
  <circle class="cls-3" cx="1214.72" cy="959.05" r="71.11"/>
  <circle class="cls-3" cx="1083.73" cy="936.59" r="71.11"/>
  <circle class="cls-3" cx="2309.52" cy="917.17" r="66.3"/>
  <circle class="cls-3" cx="2377.48" cy="941.64" r="46.34"/>
  <circle class="cls-3" cx="1274.07" cy="903.98" r="33.15"/>
  <circle class="cls-3" cx="1309.83" cy="927.39" r="26.14"/>
  <circle class="cls-3" cx="2204.9" cy="928.04" r="65.76"/>
</svg>