<?xml version="1.0" encoding="UTF-8"?>
<svg id="Layer_1" data-name="Layer 1" xmlns="http://www.w3.org/2000/svg" viewBox="0 0 768 768">
  <defs>
    <style>
      .cls-1 {
        fill: #fa907d;
      }

      .cls-1, .cls-2, .cls-3, .cls-4, .cls-5, .cls-6, .cls-7, .cls-8, .cls-9, .cls-10, .cls-11, .cls-12, .cls-13, .cls-14, .cls-15, .cls-16 {
        stroke-width: 0px;
      }

      .cls-2 {
        fill: #112d3c;
      }

      .cls-3 {
        fill: #c22727;
      }

      .cls-4 {
        fill: #6aa89f;
      }

      .cls-5 {
        fill: #20414f;
      }

      .cls-6 {
        fill: #fbf5e5;
      }

      .cls-7 {
        fill: #508a84;
      }

      .cls-8 {
        fill: #417774;
      }

      .cls-9 {
        fill: #f67a63;
      }

      .cls-10 {
        fill: #3b646f;
      }

      .cls-11 {
        fill: #183442;
      }

      .cls-12 {
        fill: #fc5641;
      }

      .cls-13 {
        fill: #fcc1a9;
      }

      .cls-14 {
        fill: #e0392e;
      }

      .cls-15 {
        fill: #e2382d;
      }

      .cls-16 {
        fill: #6baaa0;
      }
    </style>
  </defs>
  <path class="cls-6" d="m383.63,767.93c-126.73,0-253.45-.01-380.18.07-2.81,0-3.45-.63-3.44-3.44C.08,510.85.08,257.15,0,3.44,0,.63.63,0,3.44,0c253.7.08,507.41.08,761.11,0,2.81,0,3.45.63,3.44,3.44-.08,253.7-.08,507.41,0,761.11,0,2.81-.63,3.45-3.44,3.44-126.98-.08-253.95-.07-380.93-.07Zm-214.69-156.75c.18.19.36.37.55.56,2.78,2.67,5.59,5.3,9.15,6.94.43.61,1.05.89,1.77.96,2.44,1.53,4.91,3.01,7.77,3.63.54.21,1.08.43,1.63.64l.32.13.35-.03.03.06c10.23,3.92,20.78,4.44,31.51,2.85,1.38.12,2.75.13,3.99-.64,3.41.16,6.13-2.46,9.53-2.35,4.14-.07,7.5-2.41,11.14-3.9,7.05-2.9,9.34-2.48,14.49,3.08.83.9,1.5,2.01,2.75,2.45,0,0,.01.02.01.02,6.34,8.16,14,14.76,23.13,19.63l.04-.04c.75,1.28,2.12,1.66,3.32,2.28,12.37,6.42,25.57,9.43,39.48,9.45-.4,5.78-.79,11.57-1.19,17.35-4.66,3.57-9.14,7.26-9.93,13.64-1.12-.08-2.23-.23-3.35-.24-25.39-.29-50.76.75-76.15.91-3.03.06-6.11-.74-9.07.54-1.47,0-2.94-.01-4.41-.02-5.6-1.33-11.07-.07-16.56.8-.99.02-1.98.03-2.97.05-7.55-.27-15.04.31-22.48,1.6,9.24,1.12,18.48,1.73,27.75,1.44,1.24,0,2.48.01,3.71.02.26.15.52.3.79.45,2,.05,4.01.1,6.01.15,1.99.03,3.98.07,5.97.1,5.23.1,10.46.46,15.68.56,24.81.48,49.64-.02,74.45.87,3.47.12,6.98-.75,10.43-.49,10.19.78,20.39-.29,30.58.38.82.05,1.66-.38,2.5-.58.85-.02,1.71-.05,2.56-.07,4.09,1.05,8.29.77,12.42.77,42.46,0,84.93.47,127.39-.66,4.09-.11,8.21.6,12.31.57,9.86-.05,19.71,0,29.58-.38,18.46-.7,36.95-.15,55.44-.74,13.72-.44,27.44-1.08,41.18-1.16,4.32-.02,8.64-.65,12.96-1-14.84-1.62-29.63-2.53-44.42-3.14-12.85-.53-25.71-.24-38.57-.66-17.6-.57-35.23-.26-52.85-.34-1.51,0-3.02-.08-4.25,1.03-.5-4.56-2.56-8.3-5.97-11.31-1.4-1.23-3.15-2.07-4.09-3.78.04-5.35-.96-10.6-1.52-15.9-.11-1.36-.06-2.76-.35-4.08-.61-2.81.5-3.64,3.17-3.21,6.4,1.02,12.85,1.58,19.31,1.77,14.84.44,29.65.25,44.04-4.17,2.34-.23,4.61-.77,6.78-1.67,12.87-3.4,24.87-8.78,36.1-15.88,8.1-5.12,15.97-10.58,22.49-17.71,1.96-1.52,3.76-3.19,5.27-5.17.74-.65,1.54-1.24,2.2-1.96,16.18-17.92,28-38.2,33.54-61.89.3-1.48.61-2.96.91-4.44.13-.49.25-.98.38-1.46.11-.78.21-1.56.32-2.34,2.15-7.34,2.91-14.86,3.07-22.47.17-.59.46-1.18.5-1.78.53-9.24.26-18.47-.99-27.62-.79-5.75-1.48-11.6-3.97-16.99-.23-1.92-.62-3.8-1.65-5.48-1.43-7.93-4.75-15.17-8.26-22.31-2.01-4.09-3.34-8.6-6.69-11.95-1.51-2.52-2.7-5.26-5.26-6.99-.17-1.28-.91-2.25-1.65-3.26-3.1-4.31-6.46-8.4-10.13-12.22-5.56-5.79-11.07-11.65-17.95-15.97-1.17-1.52-2.75-2.54-4.31-3.58-6.9-5.45-14.66-9.54-22.27-13.84-3.28-1.85-6.25-4.53-10.25-4.96-1.73-1.82-3.87-2.94-6.25-3.67-7.72-4.24-15.43-8.49-23.15-12.73-1.82-1.49-3.9-2.51-6.04-3.44-.18-1.4-1.37-2.03-2.26-2.81-9.3-8.12-15.08-17.97-15.21-30.64.09-1.73.18-3.46.26-5.19,1.6-5.13,3.69-10.05,6.16-14.81,1.67-2.34,3.34-4.68,5-7.02,2.25-1.7,4.23-3.65,5.93-5.91,2.53-1.6,5.07-3.2,7.6-4.81,3.51-1.55,7.03-3.11,10.54-4.66l9.72-1.99c6.84,2.27,13.14,5.98,20.19,7.7,7.04,3.16,14.48,4.84,22.05,6.01,4.44.69,8.93,1.84,13.19-.75,2.71.26,5.19-.53,7.59-1.66,14.73-6.9,18.74-25.55,7.83-38.55-7.81-9.29-15.42-18.56-19.27-30.31,3.19-6.04,1.26-10.97-3.31-15.33.43-5.21-2.63-9.19-5.58-12.65-4.68-5.47-5.82-10.02-2.24-17.05,4.6-9.03,4.28-19.43,2.75-29.39-1.08-7.01-3-13.96-7.46-19.74-2.8-3.63-4.77-3.56-7.24.28-7.38,11.49-9.92,24.04-7.62,37.53.1,2.01.21,4.02.31,6.02-2.71-1.34-5.61-2.38-7.75-4.67-2.45-8.75-6.13-16.86-12.58-23.45-6.25-6.39-14.63-7.91-22.86-9.14-13.13-1.97-20.66-9.53-23.85-22.01-.96-3.76-1.18-7.63-1.42-11.48-.1-1.68-.84-2.84-2.55-3.25-1.56-.38-2.71.33-3.54,1.52-1.23,1.76-2.05,3.7-1.97,5.91-.03.71-.05,1.43-.08,2.14-.04.26-.08.51-.12.77-1.59,7.31-.63,14.48,1.06,21.64,1.15,4.88,4,9.01,5.73,13.62-9.41-.98-18.81-2.04-28.22-2.9-7.87-.72-14.32-4.07-19.5-9.94-4.02-4.56-6.61-9.94-8.64-15.62.16-2.59-1.07-4.85-1.89-7.16-1.17-3.31-4.06-3.44-6.42-.52-2.39,4.07-2.36,8.41-1.47,12.85.33,3.26.66,6.53,1,9.79-4.53-.17-8.91-.06-10.61,5.37-1.95,4.73-1.69,9.61-1.13,14.55.19,1.61,1.25,3.2.35,4.9-.49,1.34-1.17.42-1.61.04-12.24-10.41-26.87-12.93-42.28-12.68-13.06.22-25.63,3.6-38.34,6.13-15.35,3.04-30.66,3.98-45.77-1.5-6.05-2.2-8.62-.05-7.88,6.52.9,8.06,4.74,14.6,10.68,20.02,2.85,2.6,6.16,4.52,9.68,6.62-1.09.44-1.9.76-2.7,1.09-14.58,5.95-27.29,14.47-37.14,26.93-5.93,7.49-11.04,15.51-12.58,25.1-1.27,7.89.95,9.34,8.27,6.2,3.7-1.59,7.12-3.87,11.08-4.84.52,1.34-.25,1.98-.7,2.64-10.07,14.88-11.75,31.18-8.32,48.39.25,1.27.46,2.4,1.69,3.07.02,1.15.04,2.3.07,3.45,1.03,3.04,2.26,5.98,4,8.7.08,1.36-.74,2-1.9,2.35-6.23,1.9-12.46,3.79-18.69,5.68-.25,0-.5-.02-.75-.03l-1.56-.08c-4.19-1.56-8.66-2.39-12.61-4.59-2.24-1.24-3.59-2.38-2.45-5.8,4.26-12.86,1.04-27.67-11.8-35.82-4.2-2.67-8.33-5.45-12.41-8.29-2.35-1.63-3.7-1.37-4.6,1.53-2.86,9.15-3.79,18.4-.65,27.56,3.03,8.82,8.3,16.63,17.61,18.93,6.49,1.61,12.34,4.03,18.18,6.93.66.33,1.4.48,2.11.7.88.28,2.25-.03,2.2,1.43-.04,1.23-1.29,1.31-2.16,1.75-1.99,1.01-4.3,1.35-6.03,2.9-2.63.43-4.87,1.79-7.11,3.1-1.32.77-3.16,1.57-2.21,3.65.83,1.8,2.54,1.78,4.19,1.37,2.87-.71,5.71-1.5,8.57-2.25.22.23.44.47.66.7-.17,1.09-.34,2.18-.51,3.27l.06-.02c-.27-.04-.49.05-.66.26-6.79,1.81-12.16,5.48-15.67,11.72-6.38,11.35-4.25,22.53.52,33.69.61,1.44,1.51,1.87,2.94,1.12,4.51-2.38,9.12-4.59,13.53-7.13,11.28-6.5,17.53-25.33,9.12-36.11-.77-.99-.41-1.85-.21-2.79,4.65-6.14,10.14-11.06,18.02-12.64,2.05-.41,4.04-1.12,6.06-1.7,5.47,11.54,13.17,15.17,24.08,11.36h1.44c1.91,2.09,4.75,3.79,5.11,6.67.39,3.16.14,6.03,4.63,5.58.89-.09,1.46.92,1.77,1.75.63,1.63,1.92,2.6,3.35,3.38,2.74,1.5,4.92,3.94,7.64,5.26,3.34,1.62,6.78,2.7,9.55,5.51,1.42,1.44,4.31,1.34,6.06,2.6,1.8,1.29,4.98.71,5.44,3.83-5.79,1.25-11.58,2.5-17.14,4.61-.93.31-1.89.57-2.8.95-12.45,5.23-23.26,13.07-33.65,21.5-15.82,12.85-29.76,27.71-44.18,42.05-2.05,2.04-3.74,2.37-6.25,1.36-13.61-5.44-25.63-13.36-36.44-23.17-15.4-13.97-26.78-31.17-38.47-48.11-8.62-12.49-17.57-24.65-30.92-32.6-14.93-8.9-30.65-11.52-47.36-5.49-2.47.89-3.14,2-1.63,4.33,7.36,11.36,9.94,24.19,10.53,37.37,1.26,28.38-4.48,55.36-17.99,80.45-6.17,11.46-14.06,21.1-26.67,26.7-18.1,8.04-30.59,32.11-27.96,51.52.73,5.41,1.7,5.91,6.19,2.73,12.99-9.17,27.66-14.21,43-17.64,1.15-.26,2.21-.3,3.28.21,8.73,14.93,19.44,28.4,30.62,41.52l-.05-.08c.1.5.21,1,.31,1.49.17.27.35.53.52.8.49,1.7,1.26,3.26,2.3,4.69-.08.2-.04.36.13.49.44,1.42.45,3.05,1.98,3.92v-.18c-.25,2.23.22,4.26,1.62,6.04l-.03-.06c-.21,1.43.04,2.76.78,4,1.24,8.53,3.39,16.86,6.03,25.04,2.38,7.37,5.48,14.45,10.5,20.5.03.22.14.3.36.26l.11.11c1.28,3.03,3.62,5.2,6.01,7.32.38.41.76.82,1.14,1.23.23.22.46.44.68.66l.1.09Zm57.98-280.52c7.68-.27,14.47-2.32,18.32-9.77.88-1.7,1.58-3.69.24-5.27-2.65-3.12-6.21-4.4-10.32-4.09-4.1.31-7.02,2.19-8.44,6.18-1.24,3.48-2.07,7.12-4.49,10.13-1.12,1.39-.57,2.62,1.34,2.81,1.11.11,2.23.02,3.35.02Z"/>
  <path class="cls-10" d="m503.8,657.68c.56,5.29,1.56,10.55,1.52,15.9-1.45-.29-2.92-.51-4.35-.87-5.21-1.31-10.41-2.08-15.69-.35-4.4,1.44-8.28,3.82-12.06,6.42-2.69-11-5.43-21.98-8.06-32.99-5.43-22.76-10.52-45.6-15.24-68.51-2.48-12.06-8.39-21.69-20.26-26.32-9.4-3.67-19.25-3.71-29.04-1.33-11.82,2.88-19.52,10.3-23.63,21.66-3.73,10.31-6.1,20.96-8.38,31.65-2.75,12.89-5.87,25.7-8.81,38.55-2.44,10.66-4.86,21.34-7.28,32-8.06-3.52-15.97-2.38-23.82.76.4-5.78.79-11.57,1.19-17.35.02-.98.04-1.96.05-2.94-.18-4.44,1.78-8.58,1.64-13.08-.13-4.15.79-8.41.92-12.47.29-9.53,2.45-18.89,2.05-28.43,1.7-.52,1.21-1.96,1.25-3.13.11-3.23.15-6.47.21-9.71.15-7.94,1.97-15.76,1.82-23.72-.02-1.37.07-2.74.22-4.1,1.06-9.93,2.25-19.86,2.41-29.87.7-2.46-.24-5.1.79-7.53.16.72.11,1.6.52,2.13,2.57,3.32,10.3,4.33,13.83,1.79,4.25-3.06,8.42-6.21,11.46-10.61,5.43-7.86,12.12-15.06,13.59-25.05,1.05-7.08.5-13.88-3.49-20.17-3.2-5.03-8.1-6.14-13.46-6.5l.07.03c-.9-1.19-2.29-1.28-3.58-1.57-2.07.1-3.83-1.04-5.62-1.73-2.63-1.01-3.61-.39-5.1,2.03-5.44,8.84-11.67,17.13-19.06,24.48-1.9-.07-3.18-1.37-4.55-2.41-8.77-6.69-16.38-14.62-24.02-22.51-2.7-2.79-4.64-6.19-4.72-10.3,3.55-6.62,9.85-10.04,16.02-13.53,4.45-2.52,9.15-4.47,14.44-4.26-.97,3.1-.25,5.77,2.48,7.53,4.39,2.83,7.71,6.66,10.89,10.69.88,1.12,2.37,1.94,3.84,1.53,1.07-.3,1.63-1.47,1.58-2.72-.39-10.08,2.45-19.98,1.65-30.08-.09-1.18.44-2.7-1.04-3.3-1.28-.51-1.97.8-2.8,1.47-4.2,3.38-8.36,6.8-12.54,10.2-2.34-2.24-4.89-4.31-6.97-6.76-2.94-3.47-2.41-6.93,1.32-9.6,4.36-3.12,8.96-5.91,13.87-8.08,11.33-5.01,23.14-8.68,35.02-12.1,4.17-1.2,8.42-2.32,12.82-2.52,1.46-.07,2.9-.13,2.42,2.07-3.71,4.53-6.1,9.34-3.25,15.26-.25.27-.73.57-.7.81.71,5.39,6.13,9.06,11.53,7.87,5.03-1.11,8.5-4.04,10.32-8.85,1.33-3.5,3.98-3.32,6.78-2.48,2.12.64,2.73,2.73,3.78,4.41,1.79,2.85,3.69,5.97,7.36,6.29,6.24.55,11.05.85,13.48-8.29,1.05-6.12-.72-11.41-4.71-16.05,2.59-1.98,5.55-1.03,8.3-.84,11.67.81,23.32,2.03,34.99,2.69,10.2.58,20.32,1.85,30.48,2.83,4.77.46,9.6.31,14.4.44,3.04,1.93,4.84,5.11,7.51,7.42,3.67,5.21,7.04,10.61,9.72,16.41-.13,2.47,1.99,4.51,1.39,7.08.51,1.83-.67,4.07,1.33,5.54.01.56.02,1.12.04,1.68-1.03.3-1.39,1.11-1.21,2.03,1.55,7.95-2.2,13.96-7.19,19.44-7.57,8.3-16.16,15.52-24.57,22.93-3.88,3.42-8.28,6.37-11.24,10.78-.27-.17-.54-.33-.81-.5-.01-.12.02-.28-.05-.37-7.47-9.14-15.47-17.89-21.26-28.28-.84-1.51-1.86-.95-2.84-.58-3.7,1.4-7.36,2.89-11.04,4.35-5.62-.92-9.91,1.34-13.11,5.76-5.94,8.2-5.24,17.04-2.02,25.96,3.59,9.95,10.32,17.88,17.35,25.43,6.44,6.92,12.3,8.68,20.92,3.56.63,1.87-.3,4.07,1.23,5.74.09,3.6.65,7.14,1.51,10.63,0,.74-.06,1.49.04,2.22,1.67,12.29,3.32,24.57,5.05,36.85,1.42,10.06,2.94,20.11,4.42,30.17.12.73.09,1.52.39,2.16.44.94-.07,2.59,1.38,2.73,1.43.13,1-1.4,1.3-2.23.37-1.02,1.19-1.09,2.09-1.15,5.94-.42,7.6,1.14,7.59,7.12,0,.86.01,1.73.02,2.59-.38,7.91.69,15.86-.57,23.74-.72,4.44-1.35,4.78-5.79,3.6-.93-.25-1.86-.78-1.84.57.03,2.74-1.11,5.71,1.24,8.11Zm-8.84-227.09c.05-.9-.11-1.74-.66-2.48-3.3-4.38-8.36-6.73-12.2-10.55-1.46-1.46-3.33-.47-3.53,2.31-.24,3.45,1.56,6.52,1.4,9.89-.35,7.49,2.18,14.73,1.83,22.22-.12,2.59,1.82,3.08,3.52,1.92,2.38-1.62,4.37-3.8,6.53-5.75,3.42-1.91,5.58-5.16,8.28-7.83.75-.74,1.02-2.09.41-2.76-2.02-2.21-2.56-5.59-5.57-6.99Z"/>
  <path class="cls-12" d="m530.37,403.59c-2.67-2.3-4.47-5.49-7.52-7.42-.3-.27-.6-.54-.89-.81.42-1.07.98-2.42-.58-2.8-4.66-1.13-8.47-4.18-13.07-5.49-10.56-3.01-21.29-5.36-32.21-5.85-8.32-.38-16.69-1.43-24.98-.73-8.31.7-16.66-.05-24.92,1.04-2.59.34-6.1-.12-5.97,4.32.03.93-.28,2.14-.9,2.78-2.36,2.43-.52,5.17-.49,7.65.02,1.35,1.01.14,1.25-.64.96,1.01,1.91,2.02,2.87,3.02-.08,2.23,1.96,2.98,3.1,4.32,1.71,2.03,3.89,3.26,6.34,1.17,1.88-1.6,1.09-4.35-1.71-6.66-.27-1.59-1.48-2.29-2.66-3.2-2.11-1.63-4.86-2.19-6.67-4.25.61-1.78.04-4.35,3.05-4.51h.06c.63.82,1.57.74,2.43.88l7.78,4.63c4,4.64,5.76,9.93,4.71,16.05-.79.17-1.2.78-1.71,1.34-4.94,5.42-11.2,5.67-16.23.42-3.81-3.97-5.84-8.85-6.09-14.41-.37-1.3-.37-1.41-1.97-1.38-4.08.09-6.71-1.92-8.14-5.57-.53-1.35-.69-2.85-1.02-4.28.51-1.33-.31-1.38-1.3-1.48-9.81-.94-19.6-1.18-29.43-.1-21.87,2.4-41.13,11.02-58.75,23.89-8.4,6.14-15.21,14.02-23.24,20.51-11.77,9.52-23.34,19.34-36.38,27.17-1.07.64-2.22,1.2-2.47,2.62-.45.07-.89.15-1.34.22-1.43.13-2.67.53-3.08,2.14-.37.06-.78.04-1.1.2-17.33,9.06-35.74,15.25-54.61,20.06-25.39,6.47-51.44,9.14-77.3,12.88-3.14.45-6.72-.59-9.43,2-1.06-.51-2.13-.47-3.28-.21-15.34,3.43-30,8.47-43,17.64-4.5,3.17-5.46,2.68-6.19-2.73-2.64-19.41,9.86-43.48,27.96-51.52,12.61-5.6,20.49-15.24,26.67-26.7,13.51-25.09,19.25-52.07,17.99-80.45-.58-13.18-3.16-26.01-10.53-37.37-1.51-2.34-.85-3.44,1.63-4.33,16.72-6.03,32.43-3.41,47.36,5.49,13.34,7.95,22.3,20.11,30.92,32.6,11.69,16.94,23.07,34.13,38.47,48.11,10.81,9.81,22.83,17.73,36.44,23.17,2.51,1,4.2.68,6.25-1.36,14.42-14.33,28.36-29.2,44.18-42.05,10.38-8.43,21.19-16.27,33.65-21.5.91-.38,1.86-.64,2.8-.95.59.17,1.18.51,1.76.5,12.47-.31,22.85,4.89,32.57,12.06,2.47,1.82,4.62,4.17,7.6,5.27,2.59,2.22,5.22,4.4,7.01,7.38.6,1,1.23,1.8,2.65,1.2,2.52-1.06,5.06-.83,7.64.02,1.56.52,2.6.2,3.98-1.39,2.66-3.08,5.02-6.6,8.63-8.8,1.51.02,2.44-1.13,3.57-1.83,4.42-2.74,8.64-5.85,13.22-8.29,8.06-4.3,16.76-6.32,25.93-6.15,1.27.5,2.55.97,3.8,1.51,9.58,4.15,17.82,10.45,26.36,16.29,10.34,8.62,20.23,17.67,28.16,28.66.38,1.98,2.74,3.83.39,5.98Zm-328.59,41.89c8.95,1.45,17.76.85,26.59-1.2,10.22-2.37,19.1-7.58,28.08-12.63.78-.44,1.51-.9,1.56-1.92l.22-.16-.19.19c-9.07,3.25-18.47,5.03-28.02,5.8-8.41.67-16.86.46-25.25-.74-.5-.18-1-.37-1.5-.55-.78-.06-1.55-.13-2.33-.19-.71-.71-1.49-1.26-2.5-1.55-10.03-2.9-18.56-8.25-25.78-15.75-.47-.49-.94-1.25-2.18-.51,3.05,12.07,9.91,21.07,21.42,26.25,3.13,1.41,6.21,3.28,9.89,2.96Z"/>
  <path class="cls-13" d="m414.44,239.6c5.04.64,2.19-1.68,5.44-5.44.49-.56,7.82-2.38,8.47-2.67,5.3-2.41-3.97-10.76-4.72-15.33-.18-1.1,13.33,2.95,13.01,1.87-.64-2.16,2.11-.22,3.56-2.06,1.87,5.67,4.04,14.49,7.11,19.7,5.82,9.88,14.64,15.82,25.33,19.1,2.32.71,2.7,1.72,2.98,3.74.56,3.94,1.36,7.86,2.32,11.72.44,1.78,1.31,3.53,2.31,5.08,3.45,5.35,7.64,5.86,12.43,1.72,1.93-1.67,3.26-3.75,4.34-6.01,3.74-7.81,13.01-10.05,19.88-4.35,4.06,3.37,7.89,7.3,8.22,13.19,0,1.48,0,2.97.01,4.45-.48,2.12-.42,4.58-1.52,6.3-6.5,10.19-15.5,15.68-28,13.77-1.68-.26-2.84.09-3.58,1.64-.05-1.23.19-2.92-1.34-3.14-3.39-.49-5.39-2.93-7.77-4.87-1.28-1.05-2.01-.8-2.9.66-7.08,11.58-15.9,21.38-27.22,29.22-16.19,11.22-33.89,16.81-53.4,18.07-6.4.41-12.83-.52-19.18.73-1.59.31-4.16-.28-5.85-.21-.49-1.71-2.4-2.51-4.06-3.16-9.7-3.74-17.72-9.66-26.18-15.51-2.81-1.95-5.56-4.07-7.77-6.7-2.35-2.79-3.17-6.41-5.65-9.13-.33-2.89-2.48-5.05-3.19-7.8-.25-.96-1.06-1.27-2.04-1.2-5.54.38-9.64-2.47-13.44-6-3.95-5.43-7.28-10.99-3.84-17.99l.89-1.48.79-1.03c.83-.71,1.67-1.42,2.5-2.12.2.07.32,0,.37-.21l.09-.08c.62-.28,1.23-.56,1.85-.83,3.19-.32,5.2-1.07,5.01-5.3-.23-5.05.91-10.15,1.37-15.24.24-2.65.74-3.91,4.1-3.09,12.11,2.96,23.52.03,34.45-5.17,8.19-3.89,15.5-9.14,22.16-15.29.53-.49.98-1.19,1.96-1.04.74,1.6-.65,2.43-1.39,3.45-3.65,5.03-7.51,9.92-10.65,15.31-3.14,5.39-1.01,9.39,5.21,9.6,9.29.31,18.04-2.04,26.54-5.59.57-.24,1.94-4.25,2.53-4.43,1.23.15,1.68-.87,2.04-2.5,0,0,.23,4.93.23,4.93-.23-2.7,1.02-1.74,1.3-3.42,0,0,1.51.23,1.52.24,1.26.14-1.73-2.62-1.78-4.6,0,0,3.53.1,4.1,1.51m31.59,21.53c-.34-1.18.16-2.57-.92-3.56-1.23-3.13-3.86-3.68-6.69-3.24-2.65.41-4.69,2.07-4.89,4.87-.45,6.18-.66,12.38.07,18.56.36,3.05,2.15,5.19,5.2,5.46,2.84.25,5.26-.97,6.36-3.94.81-.48.67-1.35.86-2.08.98-5.35.82-10.71.02-16.07Zm5.83,25.43c-.75,0-1.51-.08-2.25.01-4.85.58-8.76,3.89-10.02,8.38-1.07,3.79.67,6.84,3.31,8.93,4.19,3.3,9.2,3.6,14.24,1.95,5.11-1.67,7.57-5.81,6.69-11.04-.76-4.48-6.3-8.32-11.98-8.23Zm-100.15-.04c-9.22-.12-14.74,6.51-11.61,13.93,1.72,4.07,6.95,6.7,12.52,6.31,5.29-.38,9.7-3.78,10.77-8.3,1.36-5.77-4.59-11.84-11.69-11.93Zm3.49-18.64s-.06,0-.09,0c0-2.86.24-5.75-.06-8.57-.36-3.38-2.83-4.86-6-4.98-3.04-.11-5.55,1.25-6.05,4.37-1,6.27-.97,12.65-.32,18.95.36,3.5,3.43,5.8,6.4,5.63,2.95-.16,5.75-2.73,6.05-6.1.28-3.08.06-6.2.06-9.31Zm44.1,33.4v.16c-3.24,0-6.48-.07-9.72.03-1.75.05-4.04-.56-4.43,2.19-.39,2.73,1.54,4.1,3.7,4.29,6.95.62,13.94.55,20.9-.04,1.97-.17,4.04-1.39,3.57-3.94-.45-2.43-2.52-2.74-4.67-2.7-3.11.05-6.23.01-9.34.01Z"/>
  <path class="cls-14" d="m160.53,601.51c-5.02-6.05-8.13-13.14-10.5-20.5-2.64-8.18-4.79-16.51-6.03-25.04-.14-1.36.5-2.87-.78-4,0,0,.03.06.03.06-.03-2.15-.2-4.27-1.64-6.04,0,0,.01.18.01.18.05-1.66-.6-2.98-1.99-3.91-.17-.13-.22-.29-.14-.49.31-2.94-.26-5.48-3.13-6.99,0,0,.05.08.05.08-.04-.86.07-1.77-.16-2.57-.75-2.6-.74-4.33,2.76-3.01.4.15,1.05.06,1.43-.17,3.77-2.38,7.96-3.87,11.96-5.76,9.25-4.37,18.42-8.89,27.62-13.35.18,2.68-1.67,2.87-3.64,3.18-1.12.18-2.23.99-1.94,2.32.27,1.21,1.4,1.25,2.46.91,2.06-.68,2.43.55,2.35,2.14-.07,1.48-.21,2.98-.46,4.44-.22,1.26-.65,2.75.4,3.55,3.48,2.64,2.32,5.91,1.55,9.17-1.01,4.3-.31,5.5,4.1,5.7,4.99.22,9.99.06,14.99.06,1.05,0,2.2-.24,2.62-1.17,2.59-5.78,8.43-.72,11.88-3.61.34-.28.66.54.92.95,1.59,2.43,9.98,3.39,12.01,1.42.71-.69.89-1.58.73-2.41-1.26-6.35,3.97-9.72,6.54-14.29.44-.79,1.51-1.3,2.39-1.76,4.34-2.3,8.64-4.69,13.1-6.73,2.04-.93,2.74-1.75,2.45-4.15-.54-4.51,1.05-5.85,5.59-5.28,1.49.19,2.4-.03,2.89-1.52.75-2.25,1.93-2.68,3.03-.34.86,1.84,2.27,2.12,3.95,2.16,6.78.19,7.9-.82,8.06-7.52.05-2.2.45-4.11,3.01-4.38,1.85-.19,3.75-.12,5.61.04,1.7.15,2.69,1.16,2.64,3-.04,1.62.05,3.25,0,4.87-.05,1.6.6,2.75,2.17,3.03,3.99.72,3.16,2.6,1.78,5.32-2,3.95-4,7.86-4.08,12.64-.08,5.05,2.4,9.68,1.74,14.75-.25,1.93,1.48,1.9,2.9,1.98q9.06.5,9.76,9.32c.07.82-.24,2.06.9,2.15,1.19.1,2.53-.13,3.6-.64,1.06-.5.4-1.48-.03-2.25-1.34-2.4-.06-3.15,2.12-3.33,3.49-.28,4.46,1.13,3.14,4.52-.68,1.75-1.46,3.32-3.13,4.48-3.89,2.72-6.84,6.16-8.69,10.7-.73,1.78-3.17,3.17-5.32,1.14-2.85-2.69-1.88-6.84,1.86-8.09,1.33-.45,2.37-1.34,1.28-2.25-1.94-1.62-4.54-.75-6.84-.63-1.99.1-1.77,1.93-1.6,3.2.58,4.47-1.51,8.54-1.85,12.9-.19,2.35-1.41,4.97-3.39,6.89-1.17,1.14-2.52,2.1-3.97,1.35-3.21-1.64-6.58-1.18-9.92-1.21-4.82-.05-4.82,0-4.91,4.92-.08,4.4-1.87,6.64-5.6,7.04q-6.52.69-6.41,7.22c.02,1.38,0,2.74.9,3.93.39.53.43,1.16-.11,1.69-.55.53-1.14.4-1.71.06-2.68-1.63-5.61-.63-8.43-.83-1.06-.07-2.14.31-2.37,1.43-.52,2.58-.73,5.32,0,7.79.69,2.37,2.8.02,4.24.5,1.06.35,2.53.36,2.61,1.67.1,1.74-1.53,1.23-2.53,1.28-1.24.05-2.84.35-3.66-.28-2.55-1.94-4.63-.79-6.95.29-8.32,3.87-8.33,3.78-13.99,3.8-2.13,0-3.93.02-4.38-2.77-.26-1.63-1.79-2.39-3.4-2.45-5.85-.2-11.72.19-17.54-.77-1.77-.29-2.84.47-3.54,2.43-1.72,4.82-5.09,5.5-8.98,2.12-.36-.31-.83-.73-1.25-.72-2.74.05-4.59-1.45-4.48-3.93.13-2.88-2.13-6.67,2.34-8.48,1.22-.49,1.18-1.5.31-2.41-.82-.86-1.6-1.01-2.5.02-2.38,2.7-7.07,3.88-10.06,2.05-2.22-1.36-4.13-1.41-6.31-.44,0,0-.11-.11-.1-.11.17-.51.03-.57-.36-.26Z"/>
  <path class="cls-4" d="m517.42,184.45c.07-3.97,1.54-7.63,2.47-11.41.71-1.14,1.33-2.35,2.14-3.41,1.6-2.1,2.11-5.03,4.79-6.3,1.82.25,3.63.58,5.44.9,6.65,1.18,12.95,3.88,19.71,4.54,3.07,2.56,7.15,2.01,10.64,3.37,1.91.75,4.16-1.68,3.46-3.79-.53-1.59-.74-3.26-1.57-4.86-2.69-5.22-6.85-9.44-9.58-14.6,7.59-1.18,15.07-.04,22.55,1.11,1.83,1.67,4.36,1.82,6.51,2.32,3.49.81,6.27,3.4,9.94,3.48,2.14,2.3,5.03,3.33,7.75,4.68,4.31,3.96,8.61,7.93,12.92,11.88.63.57,1.3,1.5,2.2.98.84-.49.61-1.6.41-2.41-.63-2.52-1.38-5.01-2.08-7.52.39-10.3-.24-20.55-1.61-30.76-1.35,9.74,1.32,19.58-.95,29.27-3.22-4.13-6.46-8.24-10.59-11.69-.92,1.52-.25,2.94-.62,4.23-2.3-13.49.24-26.04,7.62-37.53,2.46-3.84,4.43-3.91,7.24-.28,4.46,5.78,6.38,12.72,7.46,19.74,1.54,9.97,1.86,20.36-2.75,29.39-3.59,7.03-2.44,11.58,2.24,17.05,2.96,3.46,6.02,7.43,5.58,12.65-.82-.3-1.61-.71-2.45-.88-4.25-.86-7.92.24-10.71,3.61-2.66,3.2-2.98,8.73-.9,12.32,2.04,3.52,5.93,5.28,10.21,4.67,3.03-.43,5.13-2.36,7.17-4.38,3.85,11.74,11.46,21.01,19.27,30.31,10.92,13,6.91,31.65-7.83,38.55-2.4,1.13-4.88,1.92-7.59,1.66-.03-.26-.07-.52-.1-.77.09-2.24-1.68-2.12-3.09-2.4-6.24-1.22-12.48-2.28-18.6-4.16-16.27-4.99-31.77-11.84-47.16-18.99-1.85-1.03-3.71-2.04-5.55-3.09-8.46-4.84-16.8-9.81-23.55-17.04-5.68-6.08-9.71-13.25-14.05-20.23-2.26-4.96-3.78-10.18-5.5-15.34-.04-.68-.09-1.36-.13-2.04-.25-4.26-.51-8.52-.76-12.79Zm70.17,9.87c-5.78-.06-10.19,4.48-10.24,10.55-.05,5.88,3.94,10.29,9.42,10.43,5.82.15,10.79-4.44,10.88-10.04.09-5.76-4.61-10.87-10.06-10.93Zm52.13,66.59c2.03-.49,3.4-1.74,3.39-3.82,0-1.97-1.38-3.31-3.31-3.34-2.23-.03-3.3,1.59-3.26,3.69.03,1.96,1.13,3.19,3.18,3.46Z"/>
  <path class="cls-15" d="m161,601.88c2.18-.97,4.09-.92,6.31.44,2.99,1.83,7.68.65,10.06-2.05.9-1.03,1.68-.89,2.5-.02.87.92.9,1.92-.31,2.41-4.47,1.81-2.21,5.6-2.34,8.48-.11,2.48,1.74,3.98,4.48,3.93.41,0,.88.41,1.25.72,3.89,3.38,7.26,2.7,8.98-2.12.7-1.97,1.76-2.72,3.54-2.43,5.82.96,11.69.58,17.54.77,1.61.05,3.14.82,3.4,2.45.45,2.79,2.25,2.78,4.38,2.77,5.66-.02,5.67.07,13.99-3.8,2.32-1.08,4.4-2.23,6.95-.29.82.63,2.42.33,3.66.28,1-.04,2.62.47,2.53-1.28-.07-1.31-1.54-1.32-2.61-1.67-1.44-.47-3.55,1.88-4.24-.5-.72-2.47-.52-5.21,0-7.79.23-1.12,1.31-1.51,2.37-1.43,2.82.2,5.75-.8,8.43.83.56.34,1.16.47,1.71-.06.54-.53.51-1.16.11-1.69-.89-1.2-.87-2.55-.9-3.93q-.1-6.53,6.41-7.22c3.73-.39,5.51-2.64,5.6-7.04.09-4.93.09-4.97,4.91-4.92,3.34.03,6.71-.43,9.92,1.21,1.45.74,2.8-.22,3.97-1.35,1.98-1.92,3.2-4.54,3.39-6.89.34-4.36,2.43-8.43,1.85-12.9-.16-1.27-.39-3.1,1.6-3.2,2.3-.12,4.91-1,6.84.63,1.09.91.05,1.81-1.28,2.25-3.74,1.25-4.71,5.4-1.86,8.09,2.15,2.03,4.59.64,5.32-1.14,1.86-4.54,4.8-7.99,8.69-10.7,1.66-1.16,2.45-2.72,3.13-4.48,1.32-3.39.35-4.8-3.14-4.52-2.18.17-3.46.92-2.12,3.33.43.77,1.1,1.75.03,2.25-1.07.51-2.41.73-3.6.64-1.14-.09-.83-1.33-.9-2.15q-.71-8.81-9.76-9.32c-1.42-.08-3.15-.05-2.9-1.98.66-5.08-1.82-9.7-1.74-14.75.08-4.78,2.08-8.69,4.08-12.64,1.38-2.73,2.21-4.6-1.78-5.32-1.57-.28-2.22-1.43-2.17-3.03.05-1.62-.04-3.25,0-4.87.04-1.85-.94-2.85-2.64-3-1.86-.17-3.76-.24-5.61-.04-2.56.27-2.96,2.18-3.01,4.38-.17,6.7-1.29,7.7-8.06,7.52-1.68-.05-3.09-.33-3.95-2.16-1.1-2.34-2.28-1.92-3.03.34-.49,1.48-1.4,1.71-2.89,1.52-4.54-.57-6.13.77-5.59,5.28.29,2.41-.41,3.22-2.45,4.15-4.46,2.04-8.76,4.43-13.1,6.73-.87.46-1.94.97-2.39,1.76-2.57,4.57-7.81,7.95-6.54,14.29.17.84-.02,1.72-.73,2.41-2.02,1.97-10.41,1.01-12.01-1.42-.27-.41-.59-1.23-.92-.95-3.46,2.89-9.29-2.17-11.88,3.61-.42.93-1.57,1.17-2.62,1.17-5,0-10,.16-14.99-.06-4.41-.2-5.11-1.4-4.1-5.7.77-3.26,1.94-6.53-1.55-9.17-1.05-.8-.61-2.29-.4-3.55.25-1.46.39-2.96.46-4.44.08-1.59-.29-2.82-2.35-2.14-1.05.35-2.19.3-2.46-.91-.29-1.33.82-2.14,1.94-2.32,1.97-.31,3.83-.5,3.64-3.18.57-.75,1.4-.77,2.23-.8,4.02.96,8.92-1.65,9.77-5.2,8.51-4.37,17-8.78,25.53-13.11,11.97-6.07,24.01-11.99,35.93-18.14,7.88-4.07,16.14-7.22,24.38-10.44,1.16-.45,2.7-.8,3.52.22.8.99-.35,2.06-.97,2.96-4.19,6.04-9.58,11.06-14.85,16.02-12.35,11.63-26.29,21.24-40.97,29.72-7.85,4.53-15.48,9.59-24.28,12.28-3.28.18-6.74.04-7.54,4.44-.5.01-1,.03-1.5.04-2.6-.25-3.09,1.7-3.5,3.53-.41,1.8.92,3.11,2.25,3.45,2.82.72,5.96,1.68,8-1.72,1.24-.26,2.48-.52,3.72-.78,1.09.03,2.08-.09,2.29-1.45.58-.76,1.41-.77,2.25-.77,2.01,1.36,3.21.73,3.74-1.53,2.85-.99,4.95-3.65,8.21-3.75,2.83.07,5.05-.86,6.04-3.76.25-.24.49-.49.74-.73,1.22-.07,2.67.32,3.02-1.5,1.61-1.23,3.24-2.44,5.23-3,3.28.21,5.31-1.26,6.03-4.49.46-.93,1.18-1.46,2.24-1.51,3.72,1.15,7.25-1.59,6.75-5.24.49-.26.97-.51,1.46-.77,4.11-1.11,7.64-3.28,10.5-6.37,1.43-1.55,4.16-2.61,3.04-5.61.49-.5.99-1.01,1.48-1.51,1.1.02,2.1-.11,2.25-1.51h0c.46-.07,1.03-.12,1.06-.71.03-.6-.54-.67-.99-.77,2.79-3.43,6.49-6.03,8.95-9.76,1.13.98,1.32.12,1.49-.76h0c.9-.17,1.75-.37.75-1.49.16-1.44,1.07-2.31,2.24-3,1.33-.19,2.22-1.11,2.71-2.17.53-1.13-.36-1.08-1.14-.83.08-.91.59-1.38,1.48-1.48,1.07-.38,3.11.95,3.05-1.37-.05-1.9.94-2.18,2.37-2.6,1.76-.51,2.86.48,3.21,1.7.54,1.88,1.86,2.03,3.29,2.3,0,0,.04.04.04.04-.28,1.79.67,3.12,1.86,4.17,1.97,1.74,3.14,3.93,4.18,6.26h-.01c-.79.41-3.27.27-2.12,1.08,2.22,1.56,3.11,5.56,6.97,4.52,2.32-.62,2.89,1.48,3.79,2.7.7.94.8,2.59-.48,3.32-1.4.81-2.84.4-4.07-.79-1.81-1.76-3.68-3.46-5.11-5.67-.41,2.95.15,5.42,2.97,6.97,2.32,1.28,4.52,2.64,3.33,5.9-.25.49-.5.98-.74,1.47-3.72,1.86-6.19,4.56-6,9.03-.25.49-.5.98-.75,1.47-1.79-.06-3.35.63-3.55,2.43-.19,1.72-1.34,3.96,1.3,5.06,1.23,0,2.46,0,3.69-.01,3.73-2.1,7.51-4.15,8.29-8.98h0c2.47-.08,3.18-1.56,2.99-3.76.24-.25.48-.5.73-.76,1.88-.14,2.33-1.38,2.27-3h0c2.64-.4,3.12-2.25,3.02-4.49,3.07.03,6.25-.54,8.99,1.49.64,1.82,1.71,3.06,3.83,2.94h.03c-.16,1.95-3.62,3.5-1.39,5.43,1.73,1.5,3.47-.93,5.14-1.79.46.32.92.64,1.39.96.13.91.65,1.39,1.58,1.42v-.03c-.34,2.23.53,3.33,2.86,3.08-3.67,4.59-6.88,9.44-8.92,14.99-1.38.19-1.51,1.18-1.48,2.28.18,1.34-.7,2.14-1.52,2.96-.93.11-1.42.62-1.47,1.56,0,.82-.05,1.63-.79,2.19-2.25-.09-2.3,1.42-2.22,3.03.26,2.97-2.49,4.17-3.81,6.15-5.12,7.7-9.98,15.61-16.46,22.31-3.03.02-3.87,1.85-3.74,4.5-.1.89-.59,1.41-1.49,1.52-.49-.56-1.11-.67-1.62-.17-2.77,2.64-5.92,5.03-6.61,9.18,0,0,0,0,0,0-1.37-.01-2.75-.05-4.12-.03-3.77.07-4.32.84-3.41,4.58.27,1.12.6,2.16,1.51,2.92-.49.5-.98,1.01-1.48,1.51-1.68-.08-2.87.26-3.99,1.93-1.29,1.92-2.85,3.75-5.64,4.3-3.49.7-5.49,4.51-5.34,8.79-1.02,1.23-2.04,2.47-3.06,3.7-3.13,1.9-4.67,6.14-9.36,5.91,2.6.84,5.01,1.1,7.05,2.61,1.05.77,2.11.24,3.01-.6.99-.93,2.05-1.79,3.07-2.69.99-.04,2.12.22,2.89-.52,3.58-3.45,7.98-5.88,11.34-9.61,8.74-9.72,17.92-19.05,26.19-29.18,9.59-11.75,18.73-23.83,26.85-36.67,1.42-2.25,3.09-4.35,4.65-6.52-.16,10.01-1.35,19.93-2.41,29.87-.15,1.36-.24,2.74-.22,4.1.14,7.97-1.67,15.78-1.82,23.72-2.31.43-3.53,2.34-4.86,3.9-6.24,7.26-12.36,14.62-18.48,21.97-2.61,3.13-5.19,6.3-7.67,9.54-1,1.3-1.76,2.82-.62,4.47.88,1.28,2.28,1.88,3.59,1.21,2.27-1.16,4.93-1.76,6.47-4.14,3.84-5.94,8.13-11.57,11.51-17.84,2.19-4.06,4.57-8.2,8.6-11.96v5.7c.4,9.54-1.76,18.9-2.05,28.43-.12,4.07-1.04,8.32-.92,12.47.14,4.5-1.82,8.64-1.64,13.08-1.4.38-2.39,1.64-4.08,1.53-6.5-.43-12.97-1.03-18.99-3.75-.93-.42-1.79-.79-2.8-.77-3.59.07-6.93-1.77-9.27-3.66-2.63-2.11-4.85-2.46-7.71-2.14,0,0-.04.04-.04.04.08-.65-.15-1.14-.56-1.68-1.78-2.37-6.65-2.22-5.7-6.89.02-.11-1.01-.58-1.58-.63-4.2-.42-7.12-3.22-9.46-6.12-.93-1.15-1.12-3.32-2.75-4.42.85-.2,2.04.47,2.47-.97-1.31-.83-2.09-.44-2.48.96-1.03.04-2.07.08-3.1.12,0,0-.01-.02,0-.02.65-1.86-.93-3.05-1.38-4.59.04-.08.08-.15.12-.23l-.14.22c-.82-.13-1.15-.74-1.61-1.37-1.83-2.5-4.61-4.07-7.39-2.89-2.99,1.27-6.38.79-9.13,2.71-.97.67-2.72,1.47-3.44,1.06-4.34-2.53-4.18,1.47-5.41,3.47-3.39-.11-6.12,2.51-9.53,2.35-.88-.08-1.81-.04-2.47-.81,1.3-.25,2.86.54,4.66-1.55-2.23.37-3.89-.83-4.68,1.53h-4.17c1.29.72,1.97,1.1,2.66,1.47-10.73,1.59-21.27,1.08-31.51-2.85,1.79-.05,3.28-.4,3-2.74-.11-.96-.62-2.12-1.49-1.54-1.41.94-4.49.28-3.85,3.49-2.86-.63-5.33-2.1-7.77-3.63.73-.28,1.84.13,2.1-1.12-1.35-1.2-2.59.17-3.87.15-3.57-1.63-6.38-4.26-9.15-6.94-.18-.19-.36-.37-.55-.56,0,0-.1-.09-.1-.09-.02-.2-.05-.4-.07-.61,0,0,.05-.05.05-.05.69.21,1.42.32,2.06.63,1.93.96,2.25-.42,2.03-1.63-.28-1.49-1.79-1.83-3.1-2.24-1.62-.51-2.29.23-2.46,1.73-.11.09-.22.18-.33.28-2.4-2.12-4.73-4.29-6.01-7.32Zm41.9,22.03c2.6-.77,6.08-.76,9.56-.72,1.56.01,2.67-.58,2.75-2.34.1-2-1.26-2.13-2.73-2.13-3.49,0-6.97.06-10.46-.02-2.05-.05-3.34.4-3.25,2.86.08,2.42,1.59,2.46,4.13,2.35Zm88.12-147.38c-.38,1.31-.62,1.97.04,2.37.6.36,1.16-.02,1.71-.33,1.87-1.06,2.36-2.31.93-4.18-.96-1.26-1.73-2.68-2.47-4.08-.43-.83-.25-2.06-1.61-2.16-.67-.05-1.21.23-1.41.92-.33,1.15-.23,2.33.72,3.06,1.75,1.35,2.6,2.91,2.09,4.39Zm-69.77,54.5c-.03-1.03-.1-2.09-1.46-2.14-1.58-.06-2.17.94-2.2,2.37-.03,1.17.49,1.88,1.74,1.91,1.46.03,1.95-.82,1.92-2.13Zm56.25,51.64c-.14-.92.36-2.52-.92-2.41-1.64.15-1.83,2.1-2.42,3.4-.36.79.07,1.65.89,1.67,1.7.05,2.17-1.28,2.45-2.66Zm42.14-84.06c1.16,1.05,2.53,1.09,3.34,2.04.48.55,1.23,2.13,2.22.74.68-.95-.38-1.82-1.12-2.5-1.24-1.15-2.59-1.1-4.45-.28Zm-35.42-18.64c1.01-.05,2.06-.09,2.11-1.46.04-1.13-.76-1.46-1.71-1.46-1.19,0-2.34.29-2.34,1.73,0,1.16,1.07,1.13,1.93,1.18Zm18.35,13.2c.05-.63-.21-.99-.8-1.05-.84-.08-1.48.2-1.62,1.12-.1.68.09,1.35.87,1.31.79-.04,1.29-.67,1.55-1.38Zm15.61,10.09c1.53.91,2.61.91,4.14-.03-1.55-.9-2.63-.93-4.14.03Zm-108.64,123.26c.12-.59-.15-.8-.54-.83-.2-.02-.6.16-.6.22.03.28.11.73.28.78.26.08.61-.11.86-.17Zm-11.89-2.13c-.33-.08-.64-.19-.95-.21-.07,0-.24.52-.21.53.28.16.59.26.88.38.08-.2.16-.4.27-.71Zm-22.75-9.79c.08-.18.17-.35.22-.53,0-.04-.2-.19-.24-.17-.16.09-.29.23-.43.35.15.11.3.23.45.34Zm30.15,11.48l.47-.3c-.09-.06-.2-.2-.26-.18-.17.06-.32.18-.48.28.09.06.18.13.27.19Zm-39.33-20.36l.26-.13-.26-.13v.26Z"/>
  <path class="cls-3" d="m276.01,477.72c-2.46,3.73-6.15,6.33-8.95,9.76-.02.49-.04.99-.06,1.48,0,0,0,0,0,0-1.05.05-1.79.58-2.25,1.51-.49.5-.99,1.01-1.48,1.51-4.51,3.99-9.02,7.99-13.54,11.98-.49.26-.97.51-1.46.77-2.11,1.93-4.88,3.01-6.75,5.24-1.05.05-1.78.57-2.24,1.51-2.2,1.24-4.57,2.25-6.03,4.49-2,.56-3.62,1.76-5.23,3-1.27-.03-2.38.25-3.02,1.5-.25.24-.49.49-.74.73-2.6.31-4.47,1.79-6.04,3.76-3.26.1-5.36,2.76-8.21,3.75-1.44.03-2.95-.09-3.74,1.53-.84,0-1.67.01-2.25.77-1.05.03-1.8.54-2.29,1.45-1.24.26-2.48.52-3.72.78-.76-1.42-1.57-1.4-2.92-.52-2.34,1.53-3.51.83-3.32-1.95.07-1.05-.12-1.91-.51-2.8.5-.01,1-.03,1.5-.04,2.43-1.61,5.67-1.86,7.54-4.44,8.8-2.69,16.43-7.74,24.28-12.28,14.68-8.48,28.62-18.09,40.97-29.72,5.27-4.96,10.66-9.98,14.85-16.02.62-.89,1.76-1.97.97-2.96-.82-1.02-2.36-.67-3.52-.22-8.24,3.22-16.49,6.37-24.38,10.44-11.92,6.16-23.97,12.08-35.93,18.14-8.53,4.33-17.02,8.74-25.53,13.11-3.3,1.66-6.97,2.62-9.77,5.2-.83.03-1.66.05-2.23.8-9.2,4.46-18.37,8.98-27.62,13.35-4,1.89-8.19,3.38-11.96,5.76-.37.23-1.02.32-1.43.17-3.5-1.31-3.51.41-2.76,3.01.23.81.12,1.71.16,2.57-11.18-13.12-21.89-26.59-30.63-41.52,2.72-2.59,6.29-1.55,9.43-2,25.86-3.73,51.91-6.41,77.3-12.88,18.87-4.81,37.28-10.99,54.61-20.06.32-.17.73-.14,1.1-.2,1.39-.19,2.66-.55,3.08-2.14.45-.07.89-.15,1.34-.22,1.32.28,2.45-.22,3.52-.89,9.71-6.15,19.26-12.54,28.62-19.22-.42,8.39.62,16.49,4.65,24.02-.66-.22-1.68-.9-1.88.07-.65,3.1-3.43,5.09-4.04,8.16-.89.1-1.4.58-1.48,1.48-.52,1-1.5,1.76-1.57,3-1.17.69-2.08,1.56-2.24,3-.25.5-.5,1-.75,1.49,0,0,0,0,0,0-.5.25-.99.51-1.49.76Z"/>
  <path class="cls-4" d="m558.76,349.63c7.72,4.24,15.43,8.49,23.15,12.73-1.09,2.77-2.21,5.51-3.82,8.05-1.6,2.52-2.98,5.19-3.92,8.06-.5,1.53-.25,2.77,1.1,3.58,1.57.94,2.65-.13,3.46-1.27,1.16-1.62,2.11-3.38,3.22-5.04,2.13-3.2,3.27-7.03,6.2-9.71,4,.44,6.97,3.11,10.25,4.96,7.61,4.3,15.37,8.38,22.27,13.84-9.31,9.47-17.24,20.08-25.37,30.53-1.2,1.33-2.39,2.66-3.59,3.99-3.62-.97-5.95-3.9-8.9-5.89-6.14-4.14-11.69-9.12-18.02-13.01-.07-.45-.15-.89-.22-1.34,1.65-4.02,3.34-8.02,4.95-12.06.69-1.74.13-3.35-1.45-4.18-1.6-.84-2.55.58-3.25,1.73-2.19,3.6-4.66,7.08-5.36,11.38-.41.18-.83.35-1.24.53-6.5-5.26-13-10.51-19.5-15.77-.49-2.63-2.03-3.85-4.73-3.52-5.02-5.99-10.04-11.97-15.07-17.96-.7-2.12-.2-5.02-3.56-5.39-4.41-8.38-7.96-17.12-11.19-26.02-.57-1.58-.98-3.04-.91-4.67.89-.23,1.32.45,1.88.92,5.82,4.86,10.65,4.28,15.12-1.81,2.61-3.55,3.89-7.73,5.47-11.77,3.17.73,6.34,1.47,9.51,2.2.14,12.66,5.92,22.51,15.21,30.63.89.78,2.08,1.42,2.26,2.82.56,3.9-2.4,6.1-4.36,8.71-2.03,2.71-3.88,5.49-5.13,8.63-.52,1.32-.49,2.81.97,3.63,1.3.73,2.49.16,3.26-.95,3.8-5.5,7.54-11.04,11.3-16.57Zm-36.93-12.66c-.49-1.61-1.54-2.49-3.24-2.42-1.56.06-2.68.79-2.47,2.5.2,1.58,1.48,2.34,2.89,2.3,1.37-.04,2.63-.68,2.81-2.38Zm6.94,14.84c.04-1.5-.63-2.3-2.19-2.28-1.61.02-2.98.36-3.1,2.33-.12,1.89,1.14,2.22,2.63,2.22,1.52,0,2.68-.45,2.66-2.27Zm20.05,26.97c1.07-.24,2.77.47,2.83-1.44.05-1.64-1.1-2.32-2.71-2.31-1.65,0-2.65.87-2.66,2.43,0,1.72,1.51,1.16,2.53,1.32Zm42.17,16.48c-1.22.1-2.21.59-2.08,1.98.13,1.37,1.1,2.23,2.44,2.31,1.15.07,1.77-.77,1.82-1.88.07-1.46-.69-2.27-2.18-2.41Zm-11.38,1.47c-1.05.04-2.13.17-1.91,1.59.21,1.35.99,2.25,2.53,2.15,1.25-.08,1.71-.84,1.68-1.99-.04-1.52-1.08-1.76-2.31-1.76Zm-.79-6.57c-1.14.04-1.66.79-1.67,1.68-.03,1.51,1.29,1.62,2.35,1.77,1,.15,1.72-.32,1.59-1.45-.16-1.33-1.2-1.74-2.26-2Z"/>
  <path class="cls-16" d="m624.98,388.4c6.87,4.32,12.38,10.19,17.95,15.97,3.67,3.82,7.03,7.91,10.13,12.22.73,1.02,1.47,1.98,1.65,3.26-.54.88-1.48.75-2.31.96-4.7,1.2-9.55,1.8-14.12,3.53-1.73.66-3.44,1.43-2.94,3.63.46,2.05,2.35,2.68,4.13,2.4,6.85-1.07,13.67-2.34,20.5-3.53,3.35,3.35,4.68,7.86,6.69,11.95,3.51,7.14,6.83,14.38,8.26,22.31-9.74-3-19.58-4.44-29.83-3.02-12.53,1.73-23.71,7.57-35.63,11.15-.27.08-.41.6-.61.91-2.6-7.52-4.98-15.08-9.21-21.96-3.41-5.55-7.94-10.2-11.48-15.61,3.07-3.55,6.46-6.82,8.97-10.83,2.23-.73,3.02-2.89,4.34-4.48,7.94-9.54,16.22-18.8,23.52-28.86Zm-4.14,41.82c.84-.03,1.37-.58,1.77-1.22,1.18-1.9-.13-3.3-1.05-4.75-.95-1.5-2.25-2.33-4.09-1.89-.78.18-1.33.65-1.54,1.45-.46,1.76,3.15,6.46,4.92,6.41Zm.45,15.32c1.84-.02,3.74-.37,3.9-2.51.14-1.93-1.46-2.68-3.26-2.71-2.07-.04-3.82.6-3.83,2.98-.01,1.97,1.62,2.21,3.2,2.24Zm11.3-11.95c-1.28.21-2.01,1-1.8,2.26.3,1.84,1.44,3.18,3.31,3.43,1.1.15,1.87-.78,1.62-1.93-.36-1.73-1.18-3.21-3.13-3.76Z"/>
  <path class="cls-8" d="m635.34,612.71c-6.52,7.14-14.39,12.6-22.49,17.71-11.23,7.09-23.23,12.48-36.1,15.88.58-1,.69-2.03.51-3.2-1.24-7.88-1.54-15.91-3.53-23.68,2.36-1.21,4.62-2.99,7.12-3.44,1.84-.33,3.43-.71,4.5-2.04,2.16-2.66,5.16-1.94,7.89-2.25.59-.07,1.58.15,1.69,1.12.08.68-1.34,1.65.34,1.99,1.13.23,1.68-.57,2.38-1.38,1.39-1.61,2.6-2.94.97-5.22-.46-.65-.97-2.19.15-3.88,1.57,5.29,3.86,3.4,6.15,1.17.67-.65,1.32-1.18,2.26-.53.67.46,1.36.9,1.59-.34.16-.86-.34-1.38-1.18-1.6-1.08-.27-2.41.28-3.35-.71.52-.91,1.22-.93,1.77-.81,5.23,1.1,8.29-.79,10.17-5.96.69-1.92,2.2-6.05,6.34-3.24.45.3,1.6-.43,2.43-.68.79,1.09,1.79,2.08,2.35,3.27,2.74,5.9,5.36,11.86,8.03,17.8Zm-54.44,5.2c-.22-.14-.39-.26-.57-.33-.03-.01-.22.19-.2.23.08.18.21.33.32.49.15-.13.3-.26.46-.4Z"/>
  <path class="cls-9" d="m515.38,688.66c1.23-1.11,2.74-1.03,4.25-1.03,17.62.08,35.25-.24,52.85.34,12.86.42,25.73.13,38.57.66,14.79.61,29.57,1.53,44.42,3.14-4.32.35-8.63.97-12.96,1-13.73.08-27.46.72-41.18,1.16-18.49.59-36.97.04-55.44.74-9.87.38-19.72.33-29.58.38-4.1.02-8.21-.68-12.31-.57-42.46,1.13-84.93.67-127.39.66-4.13,0-8.33.27-12.42-.77,2.06-2.2,4.8-3.96,4.81-7.47.13-.02.26,0,.38.07,1.29,1.16,2.86.66,4.3.64,10.35-.16,20.72-.48,31.04-.32,17.33.27,34.67.05,52,.37,2.62.05,5.24-.12,7.81.56.39.6.77,1.21,1.16,1.81.51,2.95,2.64,3.56,5.18,3.56,12.73,0,25.47-.06,38.2.08,3.69.04,5.54-1.64,6.3-4.99Z"/>
  <path class="cls-12" d="m554.91,148.89c2.73,5.16,6.89,9.38,9.58,14.6.82,1.6,1.04,3.27,1.57,4.86.7,2.12-1.55,4.54-3.46,3.79-3.48-1.37-7.56-.81-10.63-3.37-.15-.47-.18-1.02-.46-1.39-7.57-9.83-16.59-17.84-28.26-22.53-7.69-3.09-15.96-3.85-23.86-6.08-17.32-4.88-28.82-15.61-33.45-33.2-.1.99-.2,2.09-.31,3.2-.89-4.44-.92-8.78,1.47-12.85,3.15-.25,5.65.14,6.06,4.21.1,1,.43,3.02,2.24,3.47,2.02,5.68,4.62,11.06,8.64,15.62,5.17,5.87,11.63,9.22,19.5,9.94,9.42.86,18.82,1.93,28.22,2.9,0,0-.04-.05-.04-.05.11.52.35.53.69.18,4.29,3.14,9.29,5.15,13.45,8.51,3.18,2.56,5.4,6.17,9.06,8.19Z"/>
  <path class="cls-8" d="m503.8,657.68c-2.35-2.4-1.2-5.37-1.24-8.11-.02-1.35.92-.82,1.84-.57,4.44,1.19,5.08.85,5.79-3.6,1.27-7.88.19-15.83.57-23.74,2.97.3,5.55.87,7.78,3.5,1.24,1.46,3.89,4.09,6.68.65,1.58-1.95,4.05-1.06,4.57,1.35.39,1.8,1.46,1.91,2.98,1.73.05-1.28-3.17-2.93.45-3.43h-.01c1.54,2.72,4.45-.72,6.12,1.32.34,1.35-2.06.36-1.44,2.18,1.34-.88,3.97,1.73,4.23-1.61.29-3.63,2.42-2.1,3.87-1.56,4.04,1.52,5.8,1.07,7.87-2.52.32-.55.68-1.39,1.27-1.18,2.62.93,5.75-.39,8.06,1.82,1.25,7.02,2.66,14.01,3.67,21.06.31,2.19.91,3.18,3.1,3-14.39,4.42-29.19,4.62-44.04,4.17-6.46-.19-12.92-.75-19.31-1.77-2.67-.43-3.78.4-3.17,3.21.29,1.32.24,2.72.35,4.08Z"/>
  <path class="cls-4" d="m267.85,304.39c1.73-1.55,4.04-1.89,6.03-2.9.87-.44,2.12-.51,2.16-1.75.05-1.46-1.32-1.16-2.2-1.43-.71-.22-1.45-.38-2.11-.7-5.84-2.9-11.69-5.32-18.18-6.93-9.31-2.31-14.58-10.11-17.61-18.93-3.14-9.17-2.22-18.42.65-27.56.91-2.9,2.25-3.17,4.6-1.53,4.09,2.84,8.22,5.62,12.41,8.29,12.83,8.15,16.06,22.96,11.8,35.82-1.13,3.42.21,4.56,2.45,5.8,3.95,2.19,8.42,3.02,12.61,4.59-2.99,4.54-7.11,7.09-12.62,7.25Z"/>
  <path class="cls-16" d="m281.09,314.96c-.2.95-.57,1.8.21,2.79,8.41,10.78,2.16,29.61-9.12,36.11-4.41,2.54-9.02,4.76-13.53,7.13-1.43.75-2.32.31-2.94-1.12-4.77-11.16-6.9-22.34-.52-33.69,3.51-6.24,8.88-9.91,15.67-11.72.22-.09.44-.18.66-.26,0,0-.06.02-.06.02,1.1.09,2.1-.17,2.99-.82.17,1.93.4,3.76,3.09,2.32,1.18-.25,2.37-.51,3.55-.76Z"/>
  <path class="cls-3" d="m465.62,108.76c.11-1.1.21-2.21.31-3.2,4.62,17.6,16.13,28.32,33.45,33.2,7.9,2.23,16.17,2.99,23.86,6.08,11.67,4.69,20.69,12.71,28.26,22.53.28.36.31.92.46,1.39-6.76-.66-13.06-3.35-19.71-4.54-1.81-.32-3.61-.65-5.43-.9-.53-.3-1.03-.74-1.6-.88-12.24-3.12-24.32-6.68-35.26-13.26-4.53-3.82-9.25-7.38-13.18-11.91-4.8-5.52-7.36-12.17-10.16-18.72-.33-3.26-.66-6.53-.99-9.79Z"/>
  <path class="cls-8" d="m676.35,543.69c-5.55,23.68-17.36,43.97-33.54,61.89-.65.72-1.46,1.31-2.2,1.96-.56-1.25-1.16-2.49-1.66-3.76-2.21-5.63-6.64-9.95-9.04-15.47.37-2.23,2.34-2.58,3.9-3.56,2.05-1.29,5.33-1.2,6.17-3.53,1.06-2.95,2.49-4.84,5.42-5.95,2.65-1.01,4.47-2.84,5.91-5.63,2.27-4.38,3.76-9.31,8.04-12.61,2.08-1.6,4.77-4.47,4.59-6.54-.47-5.44,4.04-7.71,5.83-11.59.57-1.24,1.84-1.04,2.94-.41h-.01c.26.49.53,1,.79,1.5,2.16.31,1.71,2.63,2.86,3.71Zm-4.51-2.3c-.06-.5-.3-1.12-.79-.9-.45.2-.8.85-.96,1.38-.15.51.29.93.83.85.7-.1.91-.68.92-1.33Z"/>
  <path class="cls-2" d="m515.38,688.66c-.77,3.35-2.62,5.04-6.3,4.99-12.73-.14-25.47-.07-38.2-.08-2.54,0-4.67-.6-5.18-3.56.35-1.38.89-2.78-.65-3.84,3.81-1.27,5.36-5.04,8.17-7.41,3.78-2.59,7.66-4.98,12.06-6.42,5.28-1.73,10.48-.96,15.69.35,1.43.36,2.9.58,4.35.87.95,1.72,2.7,2.55,4.09,3.78,3.42,3.01,5.48,6.75,5.97,11.31Z"/>
  <path class="cls-2" d="m369.01,686.89c0,3.52-2.74,5.28-4.81,7.47-.86.02-1.71.05-2.56.07-1.05-1.36-2.54-.71-3.81-.71-10.31-.05-20.62,0-30.93,0-6,0-6.42-.31-8.14-5.83.8-6.38,5.27-10.07,9.93-13.64,7.85-3.13,15.76-4.27,23.82-.76,3.99,2.48,7.76,5.19,10.88,8.77,1.43,1.64,2.9,3.48,5.52,3.17.03.49.06.97.09,1.46Z"/>
  <path class="cls-12" d="m593.91,155.79c-3.67-.08-6.45-2.67-9.94-3.48-2.15-.5-4.68-.65-6.51-2.32-.59-2.85-1.96-5.28-3.54-7.71-4.7-7.23-11.95-10.49-19.65-13.15-2.2-.86-4.36-1.88-6.61-2.56-7.88-2.35-12-9.65-18.28-14.12-.91-.64-1.25-1.91-2.79-1.5l-.03-1.36c1.68-.5,1.74-1.83,1.02-2.91-2.22-3.32-1.75-7.06-1.99-10.7.11-.76.1-1.48-.44-2.11-.08-2.21.74-4.15,1.97-5.91.84-1.19,1.98-1.9,3.54-1.52,1.7.42,2.44,1.57,2.55,3.25.24,3.86.45,7.72,1.42,11.48,3.19,12.48,10.72,20.04,23.85,22.01,8.23,1.23,16.61,2.76,22.86,9.14,6.45,6.59,10.12,14.7,12.58,23.45Z"/>
  <path class="cls-9" d="m318.76,687.88c1.72,5.53,2.14,5.83,8.14,5.83,10.31,0,20.62-.04,30.93,0,1.27,0,2.75-.65,3.81.71-.83.21-1.68.64-2.49.58-10.18-.68-20.38.4-30.58-.38-3.44-.26-6.96.61-10.43.49-24.81-.89-49.64-.39-74.45-.87-5.22-.1-10.45-.46-15.68-.56-1.97-1.14-3.97-1.04-5.97-.1-2-.05-4.01-.1-6.01-.15-.26-.15-.52-.3-.79-.45-1.24,0-2.48-.01-3.71-.02-1.06-2.22-4.47-.35-5.27-3.03.99-.02,1.98-.03,2.97-.05,1.87.02,3.75.19,5.59.02,3.65-.33,7.43.98,10.96-.83,1.47,0,2.94.01,4.41.02,3.03-.09,6.11.74,9.07-.54,25.38-.16,50.76-1.2,76.15-.91,1.12.01,2.23.16,3.35.24Z"/>
  <path class="cls-3" d="m526.56,109.6c.01.45.02.9.03,1.36.33,3.16,1.69,6.1,1.82,9.35.04.94.86,2.25,2.23,3.09,4.43,2.72,8.79,5.38,13.73,7.24,3.91,1.47,6.77.02,9.91-1.51,7.7,2.66,14.95,5.92,19.65,13.15,1.58,2.43,2.95,4.87,3.54,7.71-7.48-1.15-14.96-2.29-22.55-1.11-3.66-2.02-5.88-5.63-9.06-8.19-4.17-3.36-9.16-5.38-13.45-8.51-.23-.07-.46-.13-.69-.18,0,0,.04.05.04.05-1.73-4.61-4.59-8.74-5.73-13.62-1.69-7.16-2.65-14.33-1.06-21.64.42,4.28-1.17,8.82,1.6,12.81Z"/>
  <path class="cls-4" d="m676.57,466.58c2.49,5.39,3.18,11.24,3.97,16.99,1.26,9.15,1.52,18.39.99,27.62-.03.6-.33,1.19-.5,1.78,0-6.15,0-12.3,0-19.35-1.84,3.59-1.81,7.01-4.97,8.88-.65.38-1.36,2.11-1.76,3.54-.97,3.5-1.04,7.8-5.39,9.68-1.23.53-1.99,2.14-2.96,3.25-2.19-1.24-4.2-2.72-5.93-4.56.7-.82-.22-1.29-.37-1.93-.61-2.6-1.29-4.59,1.01-7.57,2.68-3.49,7.71-7.35,3.83-13.64,5.8,2.59,2.84-1.77,3.53-3.3,2.01.79,3.39.93,2.62-2.06-.97-3.77,2.06-7.08,1.55-10.91-.18-1.31,1.88.05,2.22-.97-1.5-3.14-5.26-4.27-6.17-7.74,1.52.18,3.11.07,4.48.96.28.23.56.46.84.68.22,0,.43.01.64.06.23,1.02.31,2.13,1.56,2.56.85-.83-.14-1.56-.06-2.33.68-.35.71-1.04.86-1.66Zm-8.01,44.23c.17.11.34.23.53.31.03.01.23-.19.21-.24-.08-.18-.21-.34-.33-.5-.14.14-.27.29-.41.43Z"/>
  <path class="cls-11" d="m308.19,278.99c-3.44,7.01-.1,12.56,3.84,17.99.52,3.82,4.24,7.38,7.88,7.53,6.68.28,7.65,1.06,9.35,7.47-10.91,3.81-18.62.18-24.08-11.36-.72-3.92.14-8.03-1.5-11.83-.22-1.06-.3-2.17-.69-3.16-.78-1.97-.71-4.61-3.61-5.1-.02-1.15-.04-2.3-.07-3.45-.21-.59-.6-1.17-.6-1.76.01-10.01-.87-20.04-.02-30.04.41-.02.83-.05,1.24-.07,0,3.89.27,7.8-.07,11.65-.49,5.51-.4,5.98,4.88,6.38,2.25.17,3.68,1.68,5.11,2.85,2.68,2.18,4.92,3.13,7.45-.5,1.14,3.15,1.7,5.46-2.28,5.97-1.34.17-1.35.89-.34,1.69-.62.28-1.23.56-1.85.83-.1-.06-.2-.11-.3-.17.07.08.14.16.21.25-.05.2-.17.27-.37.2-2.31-1.03-2.58.34-2.5,2.13-.26.34-.53.68-.79,1.03-.81.18-1.78.27-.89,1.48Z"/>
  <path class="cls-7" d="m303.67,288.79c1.65,3.8.78,7.92,1.5,11.83-2.02.57-4.01,1.29-6.06,1.7-7.88,1.58-13.37,6.5-18.02,12.64-1.18.25-2.37.51-3.55.76.97-3.57,4.85-5.12,6.01-8.59-3.87.03-6.38,1.77-9.1,6.27-.89.65-1.9.91-2.99.82.17-1.09.34-2.18.51-3.27.46-.17.96-.45.52-.96-.36-.42-.86-.15-1.19.27-2.86.75-5.7,1.54-8.57,2.25-1.66.41-3.37.43-4.19-1.37-.96-2.08.89-2.88,2.21-3.65,2.24-1.31,4.48-2.67,7.11-3.1,5.51-.16,9.64-2.71,12.62-7.25.52.03,1.04.05,1.56.08.25,0,.5.02.75.03,6.23-1.89,12.46-3.78,18.69-5.68,1.15-.35,1.98-.99,1.9-2.35.1-.15.2-.29.3-.43Z"/>
  <path class="cls-10" d="m676.57,466.58c-.15.63-.18,1.31-.86,1.66-.5-.08-1-.15-1.51-.22-.21-.05-.43-.07-.64-.06-.28-.23-.56-.46-.84-.68-1.37-.89-2.96-.78-4.48-.96-11.71-3.41-23.2-2.52-34.73,1.21-7.76,2.51-15.33,5.82-23.61,6.47-.35-1.28-.7-2.57-1.05-3.85.2-.31.34-.83.61-.91,11.91-3.58,23.09-9.42,35.63-11.15,10.25-1.42,20.09.02,29.83,3.02,1.03,1.68,1.42,3.56,1.65,5.48Z"/>
  <path class="cls-5" d="m523.81,214.62c4.34,6.98,8.37,14.16,14.05,20.23,6.76,7.23,15.1,12.2,23.55,17.04,1.84,1.05,3.7,2.06,5.55,3.09,0,1.17.12,2.34,1.36,2.83,1.29.52,1.75,1.26,1.23,2.6-.79,2.06.57,2.67,2.09,3.63,2.81,1.76,6.85.95,8.83,4.31-3.24.66-6.48,1.33-9.72,1.99-2.53-4.36-4.84-8.94-9.82-11.13-5.26-2.31-9.7-6.4-15.64-7.24-3.06-5.12-6.07-10.28-9.75-15-1.68-1.81-2.65-4.29-5.09-5.38-.31-.89-.83-1.59-1.71-1.99-.35-.7-.98-.72-1.63-.69-2.18-3.75-6-5.83-8.93-8.82.01-1.2,1.12-2.02,1.24-3.05.36-3.03,2-3.3,4.39-2.42Z"/>
  <path class="cls-10" d="m569.97,647.98c-2.19.18-2.79-.81-3.1-3-1.01-7.05-2.42-14.04-3.67-21.06.02-3.59-1.03-7.02-1.56-10.53.07-.46.15-.93.22-1.39,3.23.41,6.06-1.28,9.13-1.71.18,0,.36.04.53.11.74,3.01,1.47,6.02,2.21,9.02,1.99,7.77,2.29,15.8,3.53,23.68.18,1.17.07,2.2-.51,3.2-2.17.9-4.44,1.45-6.78,1.67Z"/>
  <path class="cls-11" d="m580.47,268.34c-1.98-3.36-6.02-2.54-8.83-4.31-1.52-.95-2.88-1.56-2.09-3.63.51-1.34.06-2.08-1.23-2.6-1.24-.49-1.36-1.67-1.36-2.83,15.39,7.16,30.88,14,47.16,18.99,6.12,1.88,12.36,2.94,18.6,4.16,1.41.28,3.18.16,3.09,2.4-3.64,1.08-7.26,2.56-11,.22-.47-.3-1.22-.12-1.83-.24-5.43-1.08-10.95-1.85-16.23-3.45-2.07-.63-4-.99-6.08-1.03-7.05-1.72-13.35-5.42-20.19-7.7Z"/>
  <path class="cls-2" d="m632.05,210.79c-2.04,2.03-4.14,3.95-7.17,4.38-4.28.62-8.17-1.15-10.21-4.67-2.08-3.59-1.76-9.12.9-12.32,2.79-3.36,6.46-4.47,10.71-3.61.84.17,1.64.58,2.45.88,4.57,4.36,6.51,9.29,3.32,15.33Z"/>
  <path class="cls-16" d="m226.91,330.66c-1.12,0-2.24.09-3.35-.02-1.91-.19-2.46-1.42-1.34-2.81,2.42-3.01,3.25-6.64,4.49-10.13,1.42-3.99,4.34-5.87,8.44-6.18,4.11-.31,7.67.97,10.32,4.09,1.34,1.58.64,3.57-.24,5.27-3.85,7.45-10.64,9.51-18.32,9.77Z"/>
  <path class="cls-7" d="m665.95,518.99c.97-1.11,1.74-2.72,2.96-3.25,4.35-1.88,4.42-6.18,5.39-9.68.4-1.43,1.11-3.16,1.76-3.54,3.16-1.87,3.13-5.29,4.97-8.88,0,7.05,0,13.2,0,19.35-.16,7.61-.93,15.13-3.07,22.47-4-5.49-8.01-10.97-12.01-16.46Z"/>
  <path class="cls-8" d="m545.29,251.96c5.94.85,10.38,4.93,15.64,7.24,4.98,2.19,7.29,6.77,9.82,11.13-3.52,1.56-7.03,3.11-10.55,4.67-4.25-3.67-8.5-7.33-12.75-11,.74-4.27-1.25-8.06-2.16-12.04Z"/>
  <path class="cls-8" d="m624.98,388.4c-7.3,10.06-15.58,19.33-23.52,28.86-1.32,1.59-2.11,3.75-4.34,4.48-.61-2.13-1.22-4.26-1.82-6.39,8.13-10.45,16.07-21.06,25.37-30.53,1.56,1.04,3.14,2.06,4.31,3.58Z"/>
  <path class="cls-3" d="m378.74,346.35c.49.11.98.22,1.47.33,3.59,2.06,7.84,2.19,11.52,3.99-.35,1.07-.7,2.13-1.04,3.2-1.56,4.91-1.23,6.07,3.03,8.97,1.05.72,2.1,1.3,2.65,2.49.78,1.3,2.58,1.86,2.67,3.67-2.98-1.11-5.13-3.45-7.6-5.27-9.73-7.17-20.1-12.37-32.57-12.06-.58.01-1.17-.32-1.76-.5,5.56-2.12,11.35-3.37,17.14-4.61,1.25-.06,2.51-.12,3.76-.17.24-.01.49-.02.73-.04Z"/>
  <path class="cls-8" d="m525.13,284.31c0-1.48,0-2.97-.01-4.45.44,1.73,1.41,2.7,3.11,3.62,4.79,2.58,9.35,5.61,13.44,9.26-2.47,4.77-4.56,9.69-6.16,14.81-2.77-1.75-6.13-.05-8.94-1.56,1.62-7.37.02-14.52-1.44-21.68Z"/>
  <path class="cls-2" d="m410.99,247.02c-.11.07-.22.15-.33.22-5.53,3.62-11.89,5.62-18.21,7.36-2.67.74-5.35,1.36-8.12,1.58-2.48.19-4.93.38-7.43.3-6.22-.21-8.34-4.21-5.21-9.6,3.13-5.39,7-10.28,10.65-15.31.74-1.02,2.12-1.85,1.39-3.45-.98-.14-1.43.56-1.96,1.04-6.66,6.15-13.97,11.39-22.16,15.29-10.94,5.2-22.35,8.13-34.45,5.17-3.36-.82-3.86.44-4.1,3.09-.46,5.09-1.6,10.19-1.37,15.24.19,4.23-1.81,4.98-5.01,5.3-1.01-.79-1-1.52.34-1.69,3.99-.51,3.42-2.82,2.28-5.97-2.54,3.62-4.78,2.68-7.45.5-1.43-1.17-2.87-2.68-5.11-2.85-5.28-.41-5.37-.88-4.88-6.38.34-3.86.07-7.77.07-11.65-.41.02-.83.05-1.24.07-.86,10.01.03,20.03.02,30.04,0,.59.39,1.17.6,1.76-1.23-.66-1.44-1.79-1.69-3.06-3.43-17.21-1.75-33.51,8.32-48.39.45-.66,1.22-1.3.7-2.64-3.96.97-7.38,3.25-11.08,4.84-7.32,3.14-9.54,1.69-8.27-6.2,1.55-9.6,6.66-17.61,12.58-25.1,9.85-12.46,22.57-20.98,37.14-26.93.8-.33,1.6-.65,2.7-1.09-3.53-2.09-6.83-4.02-9.68-6.62-5.94-5.42-9.78-11.95-10.68-20.02-.73-6.56,1.83-8.71,7.88-6.52,15.11,5.49,30.42,4.55,45.77,1.5,12.71-2.52,25.28-5.91,38.34-6.13,15.41-.26,30.04,2.26,42.28,12.68.45.38,1.12,1.3,1.61-.04,0,0-.01-.05-.01-.05-.55.15-.84.48-.49,1,.15.21.62.42.82.34.74-.3.26-1.06.48-1.57.55-6.04-1.46-12.24,1.26-18.16.35-.75-.92-.56-1.28-1.01,1.69-5.43,6.08-5.54,10.6-5.37,2.8,6.55,5.36,13.2,10.16,18.72,3.93,4.52,8.65,8.09,13.18,11.91-.32,2.09-.49,4.21-.99,6.25-.49,2-.14,2.59,2.1,2.88,11.3,1.49,21.33,5.66,28.81,14.72-.93,3.78-2.4,7.45-2.47,11.41-1.57-.9-3-2.1-4.85-2.44-1.34-1.39-3.06-2.11-4.81-2.77-9.79-3.64-19.72-3.88-29.74-1.14-2.24.61-5.16.88-5.76,3.51-.58,2.57,1.86,4.15,3.58,5.67,8.28,7.3,17.87,11.69,28.94,12.64,4.57.97,9.03-.26,13.54-.65,1.71,5.16,3.24,10.38,5.5,15.34-2.39-.88-4.03-.61-4.39,2.42-.12,1.03-1.23,1.86-1.24,3.05-.93-.63-1.86-1.26-2.8-1.88-12.01-7.95-24.93-12.41-39.58-10.43-5.69.77-6.7,2.31-4.22,7.12.68,1.33,1.43,2.63,2.27,3.86,16.59,24.02,38.62,39.99,67.6,45.65.3,2.19,1.13,4.11,2.84,5.59,1.44,5.14,1.71,10.46,2.39,15.72-1.67,2.34-3.34,4.68-5,7.02-4.09-3.65-8.65-6.68-13.44-9.26-1.7-.92-2.68-1.89-3.11-3.62-.33-5.89-4.16-9.82-8.22-13.19-6.87-5.7-16.13-3.46-19.88,4.35-1.09,2.27-2.41,4.34-4.34,6.01-4.79,4.14-8.99,3.63-12.43-1.72-1-1.55-1.87-3.3-2.31-5.08-.96-3.86-1.76-7.78-2.32-11.72-.29-2.03-.66-3.03-2.98-3.74-10.69-3.28-19.51-9.22-25.33-19.1-3.07-5.21-4.68-10.96-6.55-16.63.02-.37.19-.88.02-1.08-.59-.69-.78.17-.95.43-1.14,1.77-2.01,3.76-3.36,5.34-4.54,5.3-9.34,10.36-14.67,14.86-2.17,1.83-4.39,3.6-6.63,5.34-1.36,1.06-2.73,2.12-4.17,3.08Zm-110.18-4.25c.83-1.32.93-2.21-.09-3.14-.87,1.08-.88,1.94.09,3.14Zm2.18,11.26c-1.01.8-.86,1.66-.28,2.55.06.1.41.01.66.01.4-.93.72-1.81-.38-2.56Z"/>
  <path class="cls-5" d="m629.91,588.31c2.4,5.51,6.83,9.84,9.04,15.46.5,1.28,1.1,2.51,1.66,3.76-1.51,1.98-3.31,3.65-5.27,5.17-2.66-5.94-5.29-11.9-8.03-17.8-.56-1.2-1.55-2.19-2.35-3.27-1.68-2.98-2.89-6.23-5.08-8.92.02-1.78-2.41-5.31,2.54-3.57,2.31,3.2,4.63,6.4,7.48,9.16Z"/>
  <path class="cls-10" d="m665.95,518.99c4,5.49,8.01,10.97,12.01,16.46-.11.78-.21,1.56-.32,2.34-.13.49-.25.98-.38,1.46-.3,1.48-.61,2.96-.91,4.44-1.16-1.08-.7-3.4-2.86-3.71-.26-.51-.53-1.01-.79-1.52,0,0,.01.01.01.01-3.13-7.97-8.73-13.89-15.59-18.76-.43-1.82-2.76-3.36-1.23-5.41,1.16-1.56,2.72.29,4.12.13,1.73,1.84,3.74,3.31,5.93,4.56Z"/>
  <path class="cls-8" d="m659.96,426.85c-6.83,1.19-13.65,2.46-20.5,3.53-1.78.28-3.66-.35-4.13-2.4-.5-2.2,1.21-2.97,2.94-3.63,4.57-1.74,9.42-2.34,14.12-3.53.83-.21,1.77-.09,2.31-.96,2.55,1.73,3.75,4.47,5.26,6.99Z"/>
  <path class="cls-10" d="m601.34,154.44c.37-1.29-.3-2.71.62-4.23,4.13,3.45,7.37,7.56,10.59,11.69,1.23,2.34,1.42,2.45,2.56,1.49.7,2.5,1.45,5,2.08,7.52.2.81.43,1.92-.41,2.41-.91.53-1.58-.4-2.2-.98-4.31-3.95-8.62-7.92-12.92-11.88-.1-2.01-.21-4.02-.31-6.02Z"/>
  <path class="cls-8" d="m558.76,349.63c-3.76,5.53-7.5,11.07-11.3,16.57-.77,1.11-1.96,1.68-3.26.95-1.46-.82-1.49-2.31-.97-3.63,1.25-3.13,3.1-5.92,5.13-8.63,1.96-2.61,4.92-4.81,4.36-8.71,2.13.93,4.22,1.95,6.04,3.44Z"/>
  <path class="cls-8" d="m588.16,366.02c-2.94,2.68-4.07,6.52-6.2,9.71-1.11,1.66-2.06,3.42-3.22,5.04-.81,1.14-1.89,2.2-3.46,1.27-1.36-.81-1.6-2.04-1.1-3.58.94-2.88,2.31-5.54,3.92-8.06,1.61-2.54,2.73-5.28,3.82-8.05,2.38.72,4.52,1.84,6.25,3.67Z"/>
  <path class="cls-5" d="m547.45,264c4.25,3.67,8.5,7.33,12.75,11-2.53,1.6-5.07,3.2-7.6,4.81-1.2-.97,1.19-2.19-.33-3.28-2.79-2.01-4.54-5.31-7.99-6.53-1.71-1.48-2.53-3.4-2.84-5.59,2-.13,4-.27,6-.4Z"/>
  <path class="cls-14" d="m287.09,645.16c2.86-.32,5.08.03,7.71,2.14,2.34,1.88,5.68,3.72,9.27,3.66,1.01-.02,1.87.35,2.8.77,6.03,2.72,12.49,3.32,18.99,3.75,1.69.11,2.68-1.15,4.08-1.53-.02.98-.04,1.96-.05,2.94-13.91-.01-27.1-3.03-39.48-9.45-1.19-.62-2.57-1.01-3.32-2.28Z"/>
  <path class="cls-14" d="m235.53,623.93c1.23-2,1.07-6,5.41-3.47.72.42,2.47-.38,3.44-1.06,2.76-1.92,6.15-1.44,9.13-2.71,2.78-1.18,5.55.38,7.39,2.89.46.63.79,1.24,1.61,1.37l.02.02c.45,1.53,2.03,2.73,1.38,4.59-1.25-.44-1.92-1.55-2.75-2.45-5.15-5.55-7.44-5.98-14.49-3.08-3.63,1.49-6.99,3.84-11.14,3.9Z"/>
  <path class="cls-8" d="m544.29,269.99c3.45,1.22,5.2,4.52,7.99,6.53,1.52,1.1-.87,2.32.33,3.28-1.69,2.25-3.68,4.21-5.93,5.91-.68-5.26-.95-10.58-2.39-15.72Z"/>
  <path class="cls-14" d="m267.02,625.46c1.62,1.1,1.82,3.27,2.75,4.42,2.33,2.89,5.26,5.7,9.46,6.12.57.06,1.6.53,1.58.63-.95,4.68,3.91,4.52,5.7,6.89.41.54.63,1.03.56,1.68-9.13-4.87-16.8-11.47-23.13-19.63,1.03-.04,2.07-.08,3.1-.11h0Z"/>
  <path class="cls-1" d="m206.26,689.93c.79,2.68,4.21.81,5.27,3.03-9.27.3-18.5-.31-27.75-1.44,7.44-1.29,14.93-1.86,22.48-1.6Z"/>
  <path class="cls-2" d="m600.66,276.04c2.08.04,4.01.41,6.08,1.03,5.28,1.59,10.8,2.36,16.23,3.45.61.12,1.36-.06,1.83.24,3.74,2.34,7.36.86,11-.22.03.26.07.52.1.77-4.27,2.58-8.76,1.43-13.2.75-7.57-1.17-15.02-2.86-22.05-6.01Z"/>
  <path class="cls-10" d="m526.57,305.99c2.81,1.51,6.17-.19,8.94,1.56-.09,1.73-.18,3.46-.26,5.19-3.17-.73-6.34-1.47-9.51-2.2.28-1.51.56-3.03.83-4.54Z"/>
  <path class="cls-2" d="m329.25,311.98c-1.69-6.41-2.67-7.19-9.35-7.47-3.64-.15-7.36-3.71-7.88-7.53,3.8,3.53,7.9,6.38,13.44,6,.97-.07,1.79.24,2.04,1.2.7,2.75,2.85,4.9,3.19,7.8-.48,0-.96,0-1.44,0Z"/>
  <path class="cls-11" d="m456.01,123.93c.36.45,1.62.26,1.28,1.01-2.72,5.91-.71,12.12-1.26,18.16-.38-.3-.65-.22-.81.23,0,0,.01.04.01.05.91-1.7-.16-3.28-.35-4.89-.57-4.94-.82-9.82,1.13-14.55Z"/>
  <path class="cls-9" d="m475.39,103.6c-1.81-.45-2.14-2.47-2.24-3.47-.42-4.07-2.91-4.46-6.06-4.21,2.35-2.92,5.24-2.78,6.42.52.82,2.3,2.05,4.57,1.89,7.16Z"/>
  <path class="cls-14" d="m188.17,623.28c-.64-3.21,2.44-2.55,3.85-3.49.87-.58,1.37.58,1.49,1.54.28,2.34-1.22,2.69-3,2.74,0,0-.03-.06-.03-.06-.18-.36-.4-.41-.67-.1-.54-.21-1.08-.43-1.63-.64Z"/>
  <path class="cls-1" d="m225.79,689.07c-3.53,1.81-7.31.49-10.96.83-1.85.17-3.73,0-5.59-.02,5.49-.87,10.96-2.13,16.56-.8Z"/>
  <path class="cls-14" d="m526.56,109.6c-2.77-3.99-1.18-8.53-1.6-12.81.04-.26.08-.51.12-.77.17-.01.34-.02.51-.03.24,3.64-.22,7.38,1.99,10.7.72,1.08.65,2.41-1.02,2.91Z"/>
  <path class="cls-2" d="m303.67,288.79c-.11.14-.21.29-.3.43-1.74-2.71-2.96-5.66-4-8.7,2.89.5,2.83,3.13,3.61,5.1.39.99.47,2.1.69,3.16Z"/>
  <path class="cls-3" d="m136.38,534.77c2.87,1.51,3.44,4.05,3.13,6.99-1.03-1.43-1.81-2.99-2.3-4.69-.17-.27-.35-.53-.52-.8-.1-.5-.21-1-.31-1.49Z"/>
  <path class="cls-1" d="m239.27,688.55c-2.96,1.28-6.04.45-9.07.54,2.96-1.28,6.04-.47,9.07-.54Z"/>
  <path class="cls-14" d="m222.01,626.92c-.68-.38-1.37-.76-2.66-1.47h4.17l.02.02c.66.77,1.58.73,2.47.81-1.24.77-2.61.76-3.99.64Z"/>
  <path class="cls-14" d="m178.63,618.68c1.28.02,2.52-1.35,3.87-.15-.26,1.25-1.36.83-2.1,1.12-.73-.07-1.34-.35-1.77-.96Z"/>
  <path class="cls-3" d="m141.61,545.98c1.44,1.77,1.6,3.89,1.64,6.04-1.41-1.78-1.88-3.81-1.64-6.04Z"/>
  <path class="cls-3" d="m139.64,542.25c1.39.93,2.03,2.25,1.99,3.91-1.53-.86-1.55-2.49-1.99-3.91Z"/>
  <path class="cls-1" d="m222.04,693.58c2.01-.94,4-1.04,5.97.1-1.99-.03-3.98-.07-5.97-.1Z"/>
  <path class="cls-3" d="m143.22,551.97c1.28,1.13.64,2.64.78,4-.74-1.24-.99-2.57-.78-4Z"/>
  <path class="cls-15" d="m168.15,610.43c-.38-.41-.76-.82-1.14-1.23.11-.09.22-.18.32-.28.86.14,1.36.64,1.48,1.51,0,0-.05.05-.05.05-.2-.02-.41-.04-.61-.06Z"/>
  <path class="cls-3" d="m525.58,95.99c-.17,0-.34.02-.51.03.03-.71.05-1.43.08-2.14.53.62.55,1.35.44,2.1Z"/>
  <path class="cls-7" d="m677.26,539.25c.13-.49.25-.98.38-1.46-.13.49-.25.98-.38,1.46Z"/>
  <path class="cls-14" d="m168.15,610.43c.2.01.41.03.61.06.02.2.05.4.07.61-.23-.22-.46-.44-.68-.66Z"/>
  <path class="cls-14" d="m136.69,536.27c.17.27.35.54.52.8-.17-.27-.35-.54-.52-.8Z"/>
  <path class="cls-14" d="m168.93,611.18c.18.19.37.37.55.56-.18-.19-.36-.37-.55-.56Z"/>
  <path class="cls-4" d="m282.78,297.25c-.25,0-.5-.02-.75-.03.25,0,.5.02.75.03Z"/>
  <path class="cls-7" d="m271.51,314.2c-.22.09-.44.17-.66.26.17-.22.39-.3.66-.26Z"/>
  <path class="cls-15" d="m160.53,601.51c.4-.31.54-.25.36.26-.22.05-.34-.04-.36-.26Z"/>
  <path class="cls-1" d="m215.24,692.98c.26.15.53.3.79.45-.26-.15-.52-.3-.79-.45Z"/>
  <path class="cls-15" d="m189.8,623.92c.28-.31.5-.26.67.1,0,0-.35.03-.35.03l-.32-.13Z"/>
  <path class="cls-6" d="m608.84,470.15c.35,1.28.7,2.57,1.05,3.85.36,2.97.82,5.92,1.06,8.9,1.36,16.86-1.99,32.46-12.37,46.2-12.79,16.92-30.14,25.61-50.86,28.02-14.79,1.72-28.99-.56-42.67-6.6-5.85-2.59-10.94-6.38-16.54-9.32-.86-3.49-1.41-7.03-1.51-10.63,7.91-11.01,13.55-22.99,15.48-36.54,1.24.07,2.29,0,3.42-.9,4.86-3.87,9.15-8.33,13.66-12.57,5.6-5.26,10.43-11.24,15.54-16.96.24.54.2,1.43.98,1.38.71-.04.8-.84.94-1.44,2.86-1.76,2.21-5.3,3.85-7.65,2.64-3.79,4.07-7.84,3.64-12.56-.27-2.97-.36-6.03.02-8.98.56-4.36-2.1-8.15-1.74-12.45.13-1.52-1.35-1.9-2.71-1.9-2.69-5.8-6.05-11.2-9.72-16.41,2.35-2.15,0-4-.38-5.98,1.8-1.82.8-2.76-1.08-3.43-1.5-.53-1.26-1.75-.87-2.76.58-1.53,1.33.16,2.06.06,1.34-.18,2.23.75,3.21,1.55,1.79,1.47,3.73,2.76,6.19,2.82,5.09,2.72,9.43,6.67,14.75,9.02,2.49,1.68,4.97,3.35,7.46,5.03,7.58,6.05,15.24,11.99,22.41,18.53,1,1.72,2.33,3.12,4.05,4.15,3.54,5.41,8.07,10.06,11.48,15.61,4.23,6.89,6.61,14.45,9.21,21.96Z"/>
  <path class="cls-16" d="m488.5,541.2c5.6,2.94,10.69,6.73,16.54,9.32,13.68,6.04,27.88,8.33,42.67,6.6,20.72-2.41,38.07-11.1,50.86-28.02,10.38-13.73,13.73-29.34,12.37-46.2-.24-2.98-.7-5.93-1.06-8.9,8.28-.65,15.86-3.96,23.61-6.47,11.53-3.73,23.02-4.62,34.73-1.21.91,3.47,4.67,4.6,6.17,7.74-.34,1.02-2.4-.34-2.22.97.52,3.84-2.51,7.14-1.55,10.91.77,2.99-.61,2.85-2.62,2.06-.69,1.53,2.27,5.89-3.53,3.3,3.88,6.29-1.15,10.15-3.83,13.64-2.3,2.98-1.62,4.97-1.01,7.57.15.64,1.08,1.11.37,1.93-1.4.16-2.96-1.69-4.12-.13-1.53,2.05.8,3.59,1.23,5.41-3.07,1.23-1.95,4.2-2.66,6.41-3.59,11.27-9.01,21.69-15.59,31.42-5.07,7.48-10.93,14.43-16.44,21.62-4.96-1.74-2.52,1.79-2.55,3.57-1.56-.06-2.5.96-3.47,1.95-4.27,4.38-9.23,8.04-14.26,11.34-9.47,6.21-19.67,11.2-30.63,14.39-.17-.07-.34-.11-.53-.11-.46-3.21-1.21-6.33-3.21-8.98-.91-1.2-2-2.41-3.71-1.89-1.78.54-2.99,1.83-3.06,3.78-.09,2.96-.31,5.95.85,8.8-.07.46-.15.93-.22,1.39-5.55.67-11.08,1.58-16.65,1.96-10.08.7-20.17.89-30.21-.66-2.54-.39-3.54-1.62-3.36-4.3.18-2.7.42-5.47-.51-8.17-.61-1.77-1.79-2.67-3.5-2.94-1.76-.28-2.82.91-3.61,2.2-1,1.62-1.27,3.47-1.4,5.37-.18,2.67-1.46,4.17-4.38,3.59-1.48-10.06-3-20.11-4.42-30.17-1.73-12.28-3.38-24.56-5.05-36.85-.1-.73-.03-1.48-.04-2.22Zm154.19-44.52c-.1-1.68-.3-2.93-1.44-3.68-.8-.53-1.63-.28-2.41.26-2.23,1.56-3.62,6.65-2.47,9.13.49,1.06,1.2,1.95,2.43,2.03,1.16.08,1.81-.81,2.12-1.76.7-2.1,1.25-4.24,1.76-5.99Zm-11.4,34.92c.12-1.55-.64-1.95-1.76-2.13-2.37-.38-8.95,2.49-10.22,4.58-.84,1.4-.39,2.74,1.2,2.61,3.73-.32,7.12-1.85,10.19-4,.35-.25.47-.83.59-1.05Zm-25.38,12.91c-.05-.67-1.18-1.3-2.7-1.32-2.18-.02-6.07,3.63-6.2,5.76-.09,1.49.23,2.73,2.06,2.97,2.28.3,7.02-4.02,6.85-7.41Zm-104.63,27.76c-1.9-.08-3.29.32-3.28,2.31.01,3.08,2.41,4.24,4.76,4.84,1.54.39,3.42-.58,3.31-2.58-.16-2.96-2.52-3.94-4.78-4.56Zm69.68,11.28c1.85-.98,5.41-.06,6.17-3.51.38-1.73-1.61-1.9-2.98-1.82-2.66.15-5.43.58-6.27,3.56-.49,1.73,1.34,1.65,3.08,1.78Zm1.88-17.08c-.04-1.78-1.26-2.34-2.47-2.24-1.65.13-3.59.32-4.07,2.44-.29,1.27.39,2.37,1.71,2.25,1.88-.18,3.95-.36,4.84-2.45Zm39.45-6.27c1.86-.01,4.1-2.05,4-3.62-.08-1.33-.96-1.66-2.04-1.48-2.12.35-3.65,1.64-4.07,3.69-.25,1.21,1.07,1.4,2.1,1.42Zm-70.92,29.16c1.53-.12,2.72-.8,2.82-2.4.09-1.41-1.04-1.86-2.26-1.9-1.5-.05-2.89.47-3.04,2.08-.14,1.49,1.15,2.03,2.49,2.23Zm1.38-18.63c-1.03.02-1.88.24-1.9,1.4-.03,1.39.96,1.6,2.04,1.54.91-.04,1.87-.29,1.89-1.38.03-1.34-1.09-1.46-2.03-1.56Z"/>
  <path class="cls-5" d="m368.92,685.43c-2.62.31-4.09-1.54-5.52-3.17-3.12-3.58-6.9-6.29-10.88-8.77,2.43-10.67,4.84-21.34,7.28-32,2.94-12.85,6.06-25.66,8.81-38.55,2.28-10.69,4.65-21.34,8.38-31.65,4.11-11.36,11.81-18.78,23.63-21.66,9.79-2.39,19.64-2.34,29.04,1.33,11.87,4.63,17.77,14.26,20.26,26.32,4.72,22.92,9.81,45.76,15.24,68.51,2.63,11.01,5.37,21.99,8.06,32.99-2.81,2.38-4.36,6.14-8.17,7.41-.11-2.21-.55-4.33-1.05-6.5-.65-2.85-1.96-5.58-2.01-8.57-.1-5.35-2.47-10.26-3.87-15.23-1.43-5.07-1.93-10.3-3.51-15.32-1.08-3.4-1.58-6.95-3.89-9.85-2.6-7.41-3.92-15.16-6.03-22.69-1.65-5.89-2.33-12.05-4.85-18.29-2.34,5.87-4.27,11.25-6.63,16.45-1.84,4.06-1.22,8.55-2.74,12.62-3.27-2.01-6.26-4.36-9.04-7,.18-.72.16-1.58.57-2.14,4.83-6.66,8.85-13.75,12.33-21.24,2.27-4.88,4.71-9.22,2.28-14.93-2.43-5.71-3.32-12.15-7.88-16.81-9.38-9.58-25.22-7.31-31.29,4.79-3.3,6.57-4,13.99-5.86,21.02-1.48,5.58-1.96,11.43-3.48,17-1.73,6.32-3.01,12.72-3.91,19.15-.8,5.75-2.65,11.21-3.64,16.9-.99,5.68-3.02,11.18-2.61,17.08-1.1.8-1.26,2-1.54,3.23-1.45,6.38-3,12.74-4.51,19.11-3.34,2.82-3.07,6.67-2.96,10.47Z"/>
  <path class="cls-11" d="m289.45,459.75c-4.03-7.53-5.07-15.63-4.65-24.02.14-.1.22-.24.22-.41l.24-.02v-.24c.18-.05.34-.16.47-.32.99.25,1.48-.29,1.78-1.12,6.23-5.02,12.61-9.88,18.66-15.1,11.55-9.97,23.49-19.07,38-24.69,12.92-5,25.98-8.76,39.77-10.02,5.02,0,10.04.02,15.05.02.53.04,1.06.07,1.6.11-.03.52-.06,1.04-.08,1.56-.65.12-1.35.15-1.48,1.02-3.35,1.25-6,3.63-8.94,5.55.48-2.2-.96-2.14-2.42-2.07-4.4.2-8.65,1.32-12.82,2.52-11.88,3.42-23.69,7.1-35.02,12.1-4.91,2.17-9.5,4.96-13.87,8.08-3.73,2.67-4.26,6.13-1.32,9.6,2.09,2.46,4.63,4.52,6.97,6.76-.89,1.96-2.45,3.35-4.06,4.69-5.29-.21-9.99,1.74-14.44,4.26-6.17,3.49-12.47,6.9-16.02,13.53-3.18.74-3.2,4.69-5.93,5.93-.12.05.15,1.15.37,1.71.4,1.03.98,2.01.79,3.18-1.4-.39-1.79-1.89-2.89-2.62Z"/>
  <path class="cls-13" d="m462.64,464.11c3.68-1.46,7.34-2.95,11.04-4.35.98-.37,2-.93,2.84.58,5.8,10.39,13.79,19.14,21.26,28.28.07.08.04.24.05.37-1.07.02-1.75.63-2.53,1.34-4.3,3.9-7.77,8.61-12.86,11.78-5.85,3.65-13.52,4.17-19.3.37-3.39-2.22-6.2-4.95-7.83-8.76-.52-1.22-.6-1.18-1.69-.53-2.1-3.15-2.12-6.79-1.98-10.29.31-8.14,3.49-14.77,11-18.78Z"/>
  <path class="cls-13" d="m330.39,486.76c7.39-7.35,13.62-15.64,19.06-24.48,1.49-2.41,2.46-3.04,5.1-2.03,1.8.69,3.55,1.83,5.62,1.73,1.08.78,2.11,1.68,3.58,1.57,0,0-.07-.03-.07-.03,8.21,6.22,12.77,14.09,11.2,24.74-1.78.32-1.65,2.04-2.21,3.18-6.56,13.37-19.92,18.96-32.76,8.26-3.92-3.27-6.78-7.73-11.5-10.05.66-.96,1.31-1.92,1.97-2.89Z"/>
  <path class="cls-3" d="m264.77,606.71c1.02-1.23,2.04-2.47,3.06-3.7,5.8-4.21,10.66-9.34,14.97-15.03.49-.5.98-1.01,1.48-1.51,2.67-1.96,4.7-4.43,6.02-7.47,0,0,0,0,0,0,3.18-2.6,6.22-5.33,8.23-9,.9-.12,1.39-.63,1.49-1.52,1.86-.99,2.58-2.92,3.74-4.5,6.48-6.7,11.34-14.62,16.46-22.31,1.32-1.98,4.07-3.18,3.81-6.15,1.62-.37,1.98-1.65,2.22-3.03.74-.56.79-1.36.79-2.19.87-.17,1.38-.66,1.47-1.56.82-.83,1.7-1.62,1.52-2.96.91-.49,1.42-1.24,1.48-2.28,2.04-5.55,5.26-10.41,8.92-14.99.03-.35.07-.7.1-1.05.61.38,1.22.76,1.83,1.14-.89,4.41.17,8.98-1.11,13.36-1.03,2.43-.09,5.06-.79,7.53-1.55,2.17-3.22,4.27-4.65,6.52-8.12,12.83-17.26,24.92-26.85,36.67-8.28,10.13-17.45,19.46-26.19,29.18-3.36,3.74-7.76,6.16-11.34,9.61-.76.74-1.9.48-2.89.52-.74-2.12-2.39-3.58-3.78-5.23Z"/>
  <path class="cls-11" d="m462.64,464.11c-7.51,4.01-10.68,10.64-11,18.78-.14,3.5-.11,7.14,1.98,10.29,0,0,.03-.1.03-.1-.58.71-.01,1.28.23,1.89,2.22,6.5,6.48,11.15,12.7,14.03,5.97,2.77,11.84,1.78,17.68-.48,1.14,5.37,1.83,10.79,1.51,16.3-8.62,5.12-14.48,3.36-20.92-3.56-7.03-7.56-13.76-15.49-17.35-25.43-3.22-8.92-3.92-17.76,2.02-25.96,3.2-4.42,7.5-6.68,13.11-5.76Z"/>
  <path class="cls-11" d="m341.25,521.92c1.29-4.38.22-8.95,1.11-13.36,15.88,5.79,31.72-4.1,32.54-20.31,1.57-10.65-2.99-18.52-11.2-24.74,5.36.36,10.26,1.47,13.46,6.5,3.99,6.28,4.53,13.09,3.49,20.17-1.48,9.99-8.16,17.18-13.59,25.05-3.04,4.4-7.21,7.55-11.46,10.61-3.53,2.54-11.25,1.53-13.83-1.79-.41-.53-.35-1.41-.52-2.13Z"/>
  <path class="cls-11" d="m521.96,395.37c.3.27.59.54.89.81-4.8-.13-9.63.02-14.4-.44-10.16-.98-20.28-2.25-30.48-2.83-11.68-.66-23.32-1.88-34.99-2.69-2.76-.19-5.71-1.14-8.3.84-2.59-1.54-5.19-3.09-7.78-4.63-.46-1.26-1.49-.93-2.43-.87,0,0-.06-.01-.06-.01.75-1.85,2.45-1.42,3.86-1.53,15.43-1.25,30.86-1.31,46.31-.17,16.45,1.21,32.49,3.96,47.38,11.53Z"/>
  <path class="cls-7" d="m498.01,610.43c2.92.59,4.2-.92,4.38-3.59.13-1.9.4-3.75,1.4-5.37.79-1.29,1.85-2.47,3.61-2.2,1.71.27,2.89,1.17,3.5,2.94.93,2.7.69,5.46.51,8.17-.18,2.68.82,3.91,3.36,4.3,10.04,1.55,20.14,1.36,30.21.66,5.57-.39,11.1-1.29,16.65-1.96.52,3.51,1.57,6.94,1.56,10.53-2.31-2.21-5.44-.89-8.06-1.82-.59-.21-.95.63-1.27,1.18-2.07,3.59-3.83,4.04-7.87,2.52-1.44-.54-3.58-2.07-3.87,1.56-.26,3.34-2.89.74-4.23,1.61-.62-1.83,1.78-.84,1.44-2.18-1.67-2.03-4.58,1.41-6.12-1.33.35-.22.7-.43,1.05-.65-.13-.13-.26-.26-.39-.38-.22.35-.44.7-.65,1.05-3.63.5-.4,2.15-.45,3.43-1.52.18-2.59.07-2.98-1.73-.52-2.42-2.99-3.31-4.57-1.35-2.79,3.45-5.44.81-6.68-.65-2.23-2.63-4.8-3.2-7.78-3.5,0-.86-.02-1.73-.02-2.59.01-5.99-1.65-7.54-7.59-7.12-.9.06-1.72.14-2.09,1.15-.3.83.13,2.36-1.3,2.23-1.45-.14-.94-1.79-1.38-2.73-.3-.64-.27-1.44-.39-2.16Z"/>
  <path class="cls-3" d="m327.57,433.76c1.61-1.34,3.17-2.73,4.06-4.69,4.18-3.4,8.34-6.82,12.54-10.2.83-.67,1.52-1.98,2.8-1.47,1.48.6.94,2.12,1.04,3.3.8,10.1-2.03,20-1.65,30.08.05,1.26-.51,2.42-1.58,2.72-1.48.42-2.96-.41-3.84-1.53-3.18-4.03-6.5-7.86-10.89-10.69-2.72-1.76-3.45-4.43-2.48-7.53Z"/>
  <path class="cls-5" d="m330.39,486.76c-.66.96-1.31,1.92-1.97,2.89-1.55.3-1.94,1.61-2.48,2.81-3.22,2.18-5.63.57-8.12-1.53-1.53-1.3-2.39-3.55-4.82-3.68-5.36-6.83-11.6-12.86-17.52-19.19,0,0-.04-.04-.04-.04-.32-2.28-3.09-3.2-3.11-5.64.19-1.17-.39-2.15-.79-3.18-.22-.56-.49-1.66-.37-1.71,2.74-1.24,2.76-5.19,5.93-5.93.09,4.11,2.03,7.51,4.72,10.3,7.63,7.89,15.25,15.82,24.02,22.51,1.36,1.04,2.65,2.33,4.55,2.41Z"/>
  <path class="cls-11" d="m535.1,463.61c-5.12,5.71-9.94,11.69-15.54,16.96-4.51,4.24-8.8,8.7-13.66,12.57-1.13.9-2.18.97-3.42.9.11-1.49-.89-2.06-2.05-2.49-.41-.84-.92-1.6-1.78-2.05,2.96-4.41,7.35-7.36,11.24-10.78,8.41-7.41,17-14.63,24.57-22.93,5-5.48,8.74-11.49,7.19-19.44-.18-.93.17-1.73,1.21-2.03.23,4.7.08,9.27-1.09,13.97-1.11,4.5-3.6,8.34-4.73,12.74-.3.4-.61.8-.91,1.19l-.27.11-.03.29c-.22.32-.44.64-.67.96l-.04.04Z"/>
  <path class="cls-3" d="m491.85,448.17c-2.16,1.94-4.15,4.13-6.53,5.75-1.7,1.16-3.64.67-3.52-1.92.35-7.5-2.18-14.74-1.83-22.22.16-3.37-1.64-6.44-1.4-9.89.19-2.78,2.06-3.77,3.53-2.31,3.84,3.82,8.91,6.16,12.2,10.55.55.73.71,1.58.66,2.48-.3.81-.39,1.81-.94,2.4-4.23,4.59-2.91,9.92-2.18,15.18Z"/>
  <path class="cls-12" d="m390.1,392.07c2.93-1.92,5.59-4.29,8.94-5.55-.78,2.21-3.77,4.5.21,6.56-1.58,2.04-4.27,2.88-5.59,5.23-1.19,2.1-1.72,4.62,0,6.15,1.75,1.56,4.13.9,5.95-.93,2.56-2.57,4.23-5.65,5.5-8.99,1.95-1.99,3.91-.81,5.87-.02-.35,5.57-2.8,10.36-6.52,14.2-5.77,5.95-14.56,5.24-17.62-1.39-2.85-5.93-.46-10.73,3.25-15.26Z"/>
  <path class="cls-3" d="m334.55,599.97v-5.7c-4.02,3.76-6.41,7.91-8.6,11.96-3.39,6.27-7.67,11.9-11.51,17.84-1.54,2.38-4.2,2.98-6.47,4.14-1.32.67-2.71.07-3.59-1.21-1.14-1.65-.38-3.18.62-4.47,2.49-3.23,5.06-6.4,7.67-9.54,6.13-7.35,12.24-14.71,18.48-21.97,1.34-1.56,2.55-3.47,4.86-3.9-.07,3.24-.1,6.47-.21,9.71-.04,1.16.45,2.6-1.25,3.13Z"/>
  <path class="cls-14" d="m500.42,491.54c1.16.44,2.17,1,2.05,2.49-1.93,13.55-7.57,25.53-15.48,36.54-1.53-1.68-.6-3.87-1.23-5.74.32-5.51-.38-10.93-1.51-16.3.92-.81,1.75-1.77,2.77-2.42,5.79-3.65,10.26-8.49,13.39-14.57Z"/>
  <path class="cls-1" d="m500.42,491.54c-3.13,6.08-7.6,10.92-13.39,14.57-1.03.65-1.85,1.61-2.77,2.42-5.84,2.26-11.71,3.25-17.68.48-6.22-2.88-10.48-7.53-12.7-14.03.68-.72.13-1.29-.23-1.89,0,0-.03.1-.03.1,1.1-.65,1.18-.68,1.69.53,1.63,3.81,4.44,6.54,7.83,8.76,5.78,3.79,13.45,3.27,19.3-.37,5.09-3.17,8.56-7.88,12.86-11.78.78-.71,1.46-1.31,2.53-1.34.27.17.54.33.81.5.86.45,1.37,1.21,1.78,2.05Z"/>
  <path class="cls-11" d="m386.84,407.33c3.05,6.63,11.85,7.34,17.62,1.39,3.73-3.84,6.17-8.63,6.52-14.2,1.46-.02,2.92-.04,4.38-.06.24,5.56,2.28,10.44,6.09,14.41,5.04,5.25,11.29,5,16.23-.42.51-.56.91-1.18,1.71-1.34-2.43,9.14-7.25,8.84-13.48,8.29-3.67-.32-5.57-3.45-7.36-6.29-1.05-1.68-1.66-3.77-3.78-4.41-2.8-.85-5.45-1.02-6.78,2.48-1.82,4.81-5.3,7.74-10.32,8.85-5.4,1.19-10.82-2.49-11.53-7.87-.03-.23.46-.54.7-.81Z"/>
  <path class="cls-14" d="m491.85,448.17c-.73-5.26-2.05-10.59,2.18-15.18.54-.59.63-1.59.94-2.4,3,1.4,3.55,4.78,5.57,6.99.62.67.35,2.02-.41,2.76-2.7,2.67-4.86,5.92-8.28,7.83Z"/>
  <path class="cls-13" d="m537.03,461.02c1.14-4.4,3.62-8.25,4.73-12.74,1.16-4.7,1.32-9.27,1.09-13.97-.01-.56-.02-1.12-.04-1.68-.23-1.9-.45-3.8-1.33-5.55.61-2.57-1.51-4.6-1.39-7.08,1.36,0,2.84.38,2.71,1.9-.37,4.3,2.3,8.09,1.74,12.45-.38,2.95-.29,6.01-.02,8.98.43,4.72-1,8.77-3.64,12.56-1.64,2.36-.99,5.89-3.85,7.65l-.11-.1c.04-.81.07-1.62.11-2.43Z"/>
  <path class="cls-11" d="m541.48,427.08c.88,1.74,1.1,3.65,1.33,5.55-2-1.48-.82-3.71-1.33-5.55Z"/>
  <path class="cls-11" d="m363.76,463.55c-1.47.11-2.5-.79-3.58-1.57,1.3.29,2.68.38,3.58,1.57Z"/>
  <path class="cls-14" d="m383.95,383.81c-13.78,1.25-26.85,5.02-39.77,10.02-14.51,5.62-26.45,14.71-38,24.69-6.05,5.23-12.43,10.08-18.66,15.1-.92-.14-1.55.18-1.78,1.12-.12.16-.28.26-.47.32,0,0-.24.26-.24.26,0,.17-.08.31-.22.41-9.36,6.68-18.9,13.08-28.62,19.22-1.07.68-2.2,1.17-3.52.89.24-1.42,1.4-1.99,2.46-2.63,13.04-7.83,24.61-17.64,36.38-27.17,8.04-6.5,14.84-14.38,23.24-20.51,17.63-12.88,36.88-21.49,58.75-23.89,9.83-1.08,19.62-.85,29.43.1.99.1,1.81.15,1.3,1.48-1.21.24-2.43.48-3.64.72-.53-.04-1.06-.07-1.6-.11-1.4-.42-2.83-1.27-4.19-1.16-3.62.28-7.5-1.58-10.86,1.14Z"/>
  <path class="cls-3" d="m258.01,429.73c-.05,1.02-.78,1.49-1.56,1.92-8.98,5.05-17.85,10.26-28.08,12.63-8.82,2.05-17.64,2.65-26.59,1.2,1.52-2.99-1.35-4.24-2.75-5.93,1.28-1.16,2.12,1.21,3.14-.1-.42-1.81-.83-3.6-1.24-5.39.78.06,1.55.13,2.33.19.1.6.13,1.34.8,1.51.69.18.62-.51.7-.96,8.39,1.21,16.84,1.42,25.25.74,9.55-.76,18.95-2.55,28.02-5.8l-.03-.03Zm-53.22,9c.11.47.1,1.04.8,1.05.08,0,.25-.16.24-.25-.01-.69-.58-.69-1.05-.79-.11-.47-.1-1.04-.79-1.05-.08,0-.25.16-.25.24.01.69.58.68,1.05.8Z"/>
  <path class="cls-6" d="m501.82,368.95c-8.54-5.83-16.78-12.14-26.36-16.29-1.25-.54-2.54-1.01-3.8-1.51-7-2.74-14.29-4.32-21.71-5.38.13-1.18,1.02-1.67,1.95-2.06,3.72-1.53,7.36-3.24,10.82-5.29.49,1.79,2.15,2.39,3.48,3.19,5.58,3.34,11.69,4.01,18.04,3.3,2.15-.03,4.29-.06,6.44-.09,0,0,.05,0,.05,0-.2.98-.24,1.91.25,2.88,2.93,5.78,5.87,11.56,8.64,17.42.64,1.35,2.98,1.7,2.19,3.82Z"/>
  <path class="cls-14" d="m200.94,434.07c.41,1.79.82,3.57,1.24,5.39-1.03,1.31-1.87-1.06-3.14.1,1.4,1.69,4.26,2.93,2.75,5.93-3.68.31-6.76-1.55-9.89-2.96-11.51-5.19-18.37-14.19-21.42-26.25,1.24-.74,1.71.02,2.18.51,7.22,7.5,15.76,12.85,25.78,15.75,1.01.29,1.79.84,2.5,1.55Zm-4.4,6.17c.35-.22.7-.44,1.05-.66-.13-.13-.26-.26-.39-.39-.22.35-.44.7-.65,1.05-.35.22-.71.44-1.06.66.13.13.26.26.39.4.22-.35.44-.7.66-1.06Z"/>
  <path class="cls-14" d="m521.96,395.37c-14.89-7.56-30.93-10.31-47.38-11.53-15.45-1.14-30.88-1.08-46.31.17-1.41.11-3.11-.31-3.86,1.53-3.01.16-2.43,2.74-3.05,4.52-2.66,1.35-.86,3.72-1.27,5.59-.24.78-1.23,1.99-1.25.64-.03-2.48-1.88-5.22.49-7.65.62-.63.92-1.84.9-2.78-.12-4.44,3.38-3.98,5.97-4.32,8.26-1.09,16.61-.34,24.92-1.04,8.29-.7,16.67.36,24.98.73,10.93.49,21.65,2.84,32.21,5.85,4.6,1.31,8.4,4.36,13.07,5.49,1.56.38,1,1.73.58,2.8Z"/>
  <path class="cls-10" d="m399.04,369c-.09-1.81-1.89-2.37-2.67-3.67,11.26-.08,22.51-.16,33.77-.24-.07.95-1.42,1.23-1.19,2.33-3.61,2.2-5.97,5.72-8.63,8.8-1.38,1.59-2.42,1.9-3.98,1.39-2.58-.85-5.11-1.08-7.64-.02-1.42.6-2.04-.2-2.65-1.2-1.79-2.98-4.42-5.16-7.01-7.38Z"/>
  <path class="cls-3" d="m428.94,367.42c-.23-1.1,1.12-1.39,1.19-2.33.97-.72,1.93-1.46,2.91-2.16,4.26-3.05,4.95-8.01,1.74-12.55,5.1-1.39,9.9-3.78,15.17-4.6,7.42,1.05,14.71,2.64,21.71,5.38-9.17-.17-17.88,1.85-25.93,6.15-4.58,2.44-8.8,5.55-13.22,8.29-1.13.7-2.06,1.85-3.57,1.83Z"/>
  <path class="cls-13" d="m501.82,368.95c.79-2.12-1.55-2.47-2.19-3.82-2.77-5.86-5.72-11.64-8.64-17.42-.49-.97-.44-1.9-.25-2.88,3.38,6.24,6.09,12.87,10.96,18.21,2.05,2.8,3.83,5.87,7.41,7.06-.26,1.17.56,1.57,1.39,1.96,2,2.54,4.36,4.7,6.88,6.71.28.23.56.47.84.7.98,1.14,1.84,2.44,3.53,2.61l-.03-.18c-.06.63.26.87.85.85l-.23.1c-.04.23.06.37.29.41,1.39,1.39,2.82,2.75,4.64,3.59,1.94,1.79,4.2,3.1,6.54,4.31,1.9,1.56,3.79,3.12,5.69,4.69-2.46-.06-4.4-1.35-6.19-2.82-.97-.8-1.87-1.73-3.21-1.55-.73.1-1.48-1.59-2.06-.06-.39,1.01-.63,2.23.87,2.76,1.87.67,2.88,1.61,1.08,3.43-7.93-10.99-17.83-20.04-28.16-28.66Z"/>
  <path class="cls-10" d="m430.69,397.5c2.81,2.31,3.6,5.05,1.71,6.66-2.45,2.09-4.62.86-6.34-1.17-1.13-1.34-3.18-2.09-3.1-4.32,0-1.56.32-2.9,1.98-3.61,1.96-.83,2.17.83,2.96,1.84.68.86,1.82.53,2.78.6Z"/>
  <path class="cls-3" d="m400.59,383.94c1.21-.24,2.43-.48,3.64-.72.33,1.43.49,2.93,1.02,4.28,1.43,3.65,4.06,5.65,8.14,5.57,1.6-.03,1.6.08,1.97,1.38-1.46.02-2.92.04-4.38.06-1.96-.79-3.92-1.97-5.87.02-.21-1.21.32-2.82-1.67-3.04,1.45-3.18.08-4.99-2.93-5.99.03-.52.06-1.04.08-1.56Z"/>
  <path class="cls-5" d="m430.69,397.5c-.96-.07-2.1.26-2.78-.6-.79-1.01-1-2.67-2.96-1.84-1.66.7-1.98,2.04-1.98,3.61-.96-1.01-1.91-2.01-2.87-3.02.42-1.86-1.39-4.23,1.27-5.59,1.8,2.06,4.56,2.62,6.67,4.25,1.18.91,2.39,1.61,2.66,3.2Z"/>
  <path class="cls-14" d="m251.32,456.06c-.42,1.59-1.69,1.95-3.08,2.14.41-1.6,1.65-2.01,3.08-2.14Z"/>
  <path class="cls-14" d="m204.77,434.81c-.08.45,0,1.14-.7.96-.67-.17-.7-.91-.8-1.51.5.18,1,.37,1.5.55Z"/>
  <path class="cls-14" d="m424.47,385.56c.94-.06,1.97-.39,2.43.87-.87-.14-1.8-.06-2.43-.87Z"/>
  <polygon class="cls-3" points="258.03 429.76 258.22 429.57 258.01 429.73 258.03 429.76"/>
  <path class="cls-4" d="m547.45,264c-2,.13-4,.27-6,.4-28.98-5.67-51.02-21.63-67.6-45.65-.85-1.23-1.59-2.53-2.27-3.86-2.47-4.81-1.47-6.35,4.22-7.12,14.65-1.97,27.57,2.48,39.58,10.43.94.62,1.86,1.25,2.8,1.88,2.93,2.99,6.75,5.07,8.93,8.82.14.98.45,1.84,1.52,2.17h.08c.61,5.38,3.43,10.28,3.95,17.01-7.09-5.67-14.73-8.55-20.57-14.34-5.95-5.9-6.38-14.57-11.05-21.09.17,5.01,2.33,9.49,3.69,15.36-4.64-3.84-8.26-7.19-12.24-10.03-3.91-2.79-7.96-5.54-12.9-6.48,12.27,7.06,22.19,16.94,33.36,26.31-4.78,1.17-9.2.93-13.77,3.3,2.78.66,4.69.48,6.6-.03,6.46-1.73,12.45-1.56,17.74,3.4,2.25,2.11,5.15,3.5,7.66,5.34,1.49,1.09,3.38,2.19,3.52,4.17.2,2.85,2.22,3.01,4.71,4.04-2.45-7.17-4.69-13.71-6.93-20.24,1.03-.27,2.05-.54,3.08-.81,3.68,4.72,6.69,9.88,9.75,15,.91,3.98,2.9,7.76,2.16,12.04Z"/>
  <path class="cls-4" d="m504.78,199.93c-11.07-.95-20.66-5.34-28.94-12.64-1.73-1.52-4.17-3.1-3.58-5.67.6-2.63,3.52-2.9,5.76-3.51,10.02-2.74,19.95-2.5,29.74,1.14,1.76.65,3.47,1.38,4.81,2.77-.11,2.84-.23,5.67-.34,8.51-5.09-1.54-10.04-3.36-14.28-6.7.18-.69.1-1.28-.66-1.58-.08-.32-.16-.63-.25-.95-.13.09-.27.19-.4.28.19.24.38.49.57.73,0,.63.15,1.19.8,1.47-.17,2.69-2.07,1.57-3.32,1.37-4.35-.68-8.67-1.51-13-2.28-.08.36-.16.72-.24,1.08,10.56,1.69,20.82,4.44,30.77,8.24-.05.69-.09,1.38-.14,2.08-2.79,1.43-5.62,2.81-7.29,5.67Z"/>
  <path class="cls-6" d="m489.96,149.18c10.94,6.59,23.01,10.14,35.26,13.26.57.15,1.07.58,1.6.88-2.68,1.27-3.2,4.2-4.8,6.3-.81,1.06-1.43,2.27-2.14,3.41-7.48-9.06-17.51-13.23-28.81-14.72-2.24-.3-2.6-.89-2.1-2.88.5-2.04.68-4.16.99-6.25Z"/>
  <path class="cls-8" d="m512.22,190.52c.11-2.84.23-5.67.34-8.51,1.86.34,3.28,1.53,4.85,2.44.25,4.26.51,8.52.76,12.79-1.9-1.26-3.49-3.17-6.11-2.98.05-.69.09-1.38.14-2.08,0-.56,0-1.11,0-1.66Z"/>
  <path class="cls-7" d="m512.07,194.26c2.61-.19,4.2,1.72,6.11,2.98.04.68.09,1.36.13,2.04-4.5.39-8.97,1.62-13.54.65,1.67-2.86,4.51-4.24,7.29-5.67Z"/>
  <path class="cls-11" d="m300.82,242.78c-.98-1.2-.96-2.06-.09-3.14,1.02.93.92,1.83.09,3.14Z"/>
  <path class="cls-11" d="m303,254.04c1.1.75.78,1.63.38,2.56-.25,0-.6.09-.66-.01-.58-.88-.73-1.75.28-2.55Z"/>
  <path class="cls-6" d="m455.22,143.33c.16-.46.43-.53.81-.23-.22.51.26,1.27-.48,1.57-.21.08-.68-.12-.82-.34-.36-.52-.06-.85.49-1Z"/>
  <path class="cls-2" d="m484.25,344.92c-6.35.71-12.46.03-18.04-3.3-1.33-.8-2.99-1.4-3.48-3.19,8.2-4.82,15.24-10.99,21.1-18.44,3.35-4.26,6.64-8.61,8.19-13.96.74-1.55,1.91-1.89,3.58-1.64,12.51,1.91,21.5-3.59,28-13.77,1.1-1.72,1.04-4.18,1.52-6.3,1.46,7.16,3.06,14.31,1.44,21.68-.28,1.51-.55,3.03-.83,4.54-1.58,4.03-2.87,8.21-5.47,11.77-4.47,6.09-9.29,6.66-15.12,1.81-.56-.47-.99-1.15-1.88-.92,0,0,0,.07,0,.07.39-.91-.31-1.37-.79-1.92.11-.58-.14-.96-.65-1.2-.17-.07-.34-.14-.51-.21.05.19.1.39.14.58-1.8,8.52-3.25,17.23-11.8,22.15-1.81.75-3.61,1.51-5.42,2.26Z"/>
  <path class="cls-1" d="m492.03,306.02c-1.55,5.34-4.85,9.7-8.19,13.96-5.86,7.46-12.9,13.63-21.1,18.44-3.47,2.05-7.1,3.76-10.83,5.29-.93.38-1.82.88-1.95,2.06-5.27.82-10.07,3.21-15.17,4.61-14.32,3.91-28.68,3.87-43.05.3-3.68-1.8-7.93-1.93-11.52-3.99,6.34-1.25,12.77-.31,19.18-.73,19.51-1.26,37.21-6.85,53.4-18.07,11.32-7.84,20.14-17.64,27.22-29.22.89-1.46,1.61-1.71,2.9-.66,2.38,1.94,4.38,4.38,7.77,4.87,1.52.22,1.29,1.91,1.34,3.14Z"/>
  <path class="cls-9" d="m450.78,289.59c5.68-.09,11.22,3.75,11.98,8.23.88,5.23-1.57,9.37-6.69,11.04-5.04,1.65-10.05,1.36-14.24-1.95-2.65-2.09-4.38-5.14-3.31-8.93,1.26-4.49,5.17-7.8,10.02-8.38.74-.09,1.5-.01,2.25-.01Z"/>
  <path class="cls-9" d="m350.64,289.55c7.1.09,13.05,6.17,11.69,11.93-1.07,4.52-5.48,7.92-10.77,8.3-5.57.4-10.8-2.23-12.52-6.31-3.13-7.42,2.39-14.04,11.61-13.93Z"/>
  <path class="cls-2" d="m354.13,270.91c0,3.1.22,6.23-.06,9.31-.3,3.36-3.1,5.93-6.05,6.1-2.97.17-6.04-2.13-6.4-5.63-.66-6.3-.69-12.68.32-18.95.5-3.12,3.01-4.48,6.05-4.37,3.17.12,5.63,1.6,6,4.98.3,2.83.06,5.71.06,8.57.03,0,.06,0,.09,0Z"/>
  <path class="cls-11" d="m444.08,282.32c-1.09,2.97-3.52,4.19-6.36,3.94-3.05-.27-4.84-2.41-5.2-5.46-.73-6.18-.52-12.38-.07-18.56.21-2.8,2.24-4.46,4.89-4.87,2.83-.44,5.46.11,6.69,3.24.01,7.24.03,14.47.04,21.71Z"/>
  <path class="cls-9" d="m398.23,304.31c3.11,0,6.23.04,9.34-.01,2.14-.04,4.22.28,4.67,2.7.47,2.55-1.59,3.78-3.57,3.94-6.95.58-13.95.65-20.9.04-2.15-.19-4.08-1.56-3.7-4.29.39-2.75,2.68-2.13,4.43-2.19,3.24-.1,6.48-.03,9.72-.03v-.16Z"/>
  <path class="cls-2" d="m444.08,282.32c-.01-7.24-.03-14.47-.04-21.71,1.08.99.58,2.38.92,3.56,0,5.35-.01,10.71-.02,16.07-.19.73-.05,1.61-.86,2.08Z"/>
  <path class="cls-4" d="m444.93,280.23c0-5.36.01-10.71.02-16.07.81,5.36.96,10.71-.02,16.07Z"/>
  <path class="cls-2" d="m309.87,276.49c-.08-1.78.19-3.15,2.5-2.13-.83.71-1.67,1.42-2.5,2.13Z"/>
  <path class="cls-2" d="m308.19,278.99c-.89-1.21.08-1.3.89-1.48-.3.49-.6.99-.89,1.48Z"/>
  <path class="cls-2" d="m312.74,274.16c-.07-.08-.14-.16-.21-.25.1.06.2.11.3.17,0,0-.09.08-.09.08Z"/>
  <path class="cls-1" d="m378.74,346.35c-.24.01-.49.02-.73.04.23-.31.47-.34.73-.04Z"/>
  <path class="cls-2" d="m587.59,194.32c5.45.06,10.15,5.17,10.06,10.93-.09,5.6-5.07,10.19-10.88,10.04-5.48-.14-9.46-4.55-9.42-10.43.05-6.07,4.46-10.61,10.24-10.55Z"/>
  <path class="cls-5" d="m615.12,163.4c-1.14.96-1.33.84-2.56-1.49,2.28-9.69-.4-19.53.95-29.27,1.37,10.22,2,20.46,1.61,30.76Z"/>
  <path class="cls-5" d="m639.72,260.91c-2.05-.27-3.14-1.51-3.18-3.46-.03-2.11,1.03-3.72,3.26-3.69,1.92.02,3.3,1.36,3.31,3.34,0,2.08-1.36,3.33-3.39,3.82Z"/>
  <path class="cls-1" d="m325.95,492.45c.53-1.19.93-2.51,2.48-2.81,4.72,2.32,7.58,6.79,11.5,10.05,12.84,10.7,26.2,5.11,32.76-8.26.56-1.14.43-2.86,2.21-3.18-.82,16.21-16.66,26.1-32.54,20.31-.61-.38-1.21-.76-1.82-1.14-.82-.92-1.63-1.86-2.96-2.04,0,0,0,.03,0,.03-.3-.72-.82-1.2-1.58-1.42-.46-.32-.93-.64-1.39-.96-1.25-1.22-2.49-2.43-3.74-3.65,0,0-.03,0-.03,0-.57-1.15-1.08-2.34-2.34-2.94-.85-1.34-1.7-2.68-2.55-4.02Z"/>
  <path class="cls-3" d="m325.95,492.45c.85,1.34,1.7,2.68,2.55,4.02-.5,0-.99,0-1.49,0-2.74-2.03-5.92-1.46-8.99-1.49-1.54,1.14-2.48,2.68-3.02,4.49,0,0,0,0,0,0-1.18.68-2.07,1.57-2.27,3-.24.25-.48.5-.73.76-1.39.94-2.74,1.91-2.99,3.76,0,0,0,0,0,0-3,2.77-6.42,5.16-8.29,8.98-1.23,0-2.46,0-3.69.01-.38-2.83.4-5.32,2.25-7.49.25-.49.5-.98.75-1.47,2.65-2.58,5.02-5.34,6-9.03.25-.49.5-.98.74-1.47,3.09-2.41,4.53-5.93,6.23-9.28,2.43.13,3.29,2.38,4.82,3.68,2.49,2.1,4.9,3.72,8.12,1.53Z"/>
  <path class="cls-14" d="m313.01,487.24c-1.7,3.34-3.13,6.87-6.23,9.28,1.19-3.26-1.01-4.62-3.33-5.9-2.81-1.55-3.37-4.02-2.97-6.97,1.44,2.2,3.3,3.9,5.11,5.67,1.23,1.19,2.67,1.6,4.07.79,1.28-.74,1.18-2.38.48-3.32-.9-1.22-1.46-3.32-3.79-2.7-3.86,1.04-4.75-2.96-6.97-4.52-1.15-.81,1.34-.67,2.12-1.06.11.47.12,1.03.81,1.04.08,0,.25-.16.24-.24,0-.69-.57-.69-1.04-.81-1.03-2.32-2.21-4.52-4.18-6.26-1.19-1.05-2.13-2.38-1.86-4.17,5.92,6.33,12.16,12.35,17.52,19.19Z"/>
  <path class="cls-14" d="m202.9,623.9c-2.54.1-4.05.07-4.13-2.35-.08-2.47,1.2-2.91,3.25-2.86,3.49.08,6.97.03,10.46.02,1.47,0,2.83.14,2.73,2.13-.08,1.76-1.2,2.35-2.75,2.34-3.48-.03-6.96-.04-9.56.72Z"/>
  <path class="cls-14" d="m264.77,606.71c1.38,1.65,3.04,3.11,3.78,5.23-1.03.89-2.08,1.76-3.07,2.69-.9.84-1.96,1.37-3.01.6-2.04-1.51-4.46-1.77-7.05-2.61,4.69.23,6.23-4.01,9.36-5.91Z"/>
  <path class="cls-14" d="m282.8,587.98c-4.31,5.68-9.18,10.82-14.97,15.03-.15-4.28,1.84-8.1,5.34-8.79,2.79-.56,4.35-2.38,5.64-4.3,1.12-1.67,2.31-2.01,3.99-1.93Z"/>
  <path class="cls-14" d="m191.28,527.97c.4.89.58,1.75.51,2.8-.19,2.77.97,3.48,3.32,1.95,1.35-.88,2.16-.9,2.92.52-2.04,3.4-5.18,2.44-8,1.72-1.32-.34-2.66-1.65-2.25-3.45.41-1.84.9-3.78,3.5-3.53Z"/>
  <path class="cls-14" d="m292.33,462.37c.02,2.44,2.79,3.37,3.11,5.64-1.44-.27-2.76-.41-3.29-2.3-.34-1.21-1.45-2.2-3.21-1.7-1.43.41-2.42.7-2.37,2.6.06,2.32-1.97,1-3.05,1.37.6-3.08,3.39-5.06,4.04-8.16.2-.97,1.23-.3,1.88-.07,1.09.73,1.49,2.22,2.89,2.62Z"/>
  <path class="cls-14" d="m290.29,579c-1.32,3.04-3.35,5.51-6.02,7.47-.91-.77-1.24-1.81-1.51-2.92-.9-3.74-.36-4.51,3.41-4.58,1.37-.03,2.74.02,4.12.03Z"/>
  <path class="cls-14" d="m249.74,503.96c4.51-3.99,9.02-7.99,13.54-11.98,1.12,3-1.61,4.07-3.04,5.61-2.86,3.09-6.39,5.25-10.5,6.37Z"/>
  <path class="cls-14" d="m291.02,476.52c.51-1.48-.34-3.04-2.09-4.39-.95-.73-1.05-1.91-.72-3.06.2-.69.74-.97,1.41-.92,1.36.1,1.18,1.34,1.61,2.16.74,1.41,1.51,2.83,2.47,4.08,1.42,1.86.94,3.12-.93,4.18-.55.31-1.11.69-1.71.33-.66-.4-.42-1.06-.04-2.37Z"/>
  <path class="cls-14" d="m298.53,569.99c-2.01,3.67-5.05,6.4-8.23,9,.69-4.15,3.84-6.53,6.61-9.18.51-.49,1.13-.39,1.62.17Z"/>
  <path class="cls-14" d="m182.26,509.19c2.8-2.58,6.47-3.55,9.77-5.2-.85,3.55-5.75,6.16-9.77,5.2Z"/>
  <path class="cls-14" d="m330.87,499.41c1.25,1.22,2.49,2.43,3.74,3.65-1.67.86-3.41,3.29-5.13,1.79-2.22-1.93,1.24-3.49,1.39-5.44Z"/>
  <path class="cls-14" d="m300.72,515.96c1.87-3.82,5.29-6.21,8.29-8.98-.78,4.83-4.56,6.88-8.29,8.98Z"/>
  <path class="cls-14" d="m306.04,497.99c-.98,3.69-3.35,6.45-6,9.03-.19-4.46,2.28-7.16,6-9.03Z"/>
  <path class="cls-14" d="m241.52,509.97c1.87-2.23,4.64-3.32,6.75-5.24.5,3.66-3.03,6.4-6.75,5.24Z"/>
  <path class="cls-14" d="m168.81,610.43c-.12-.87-.62-1.37-1.48-1.51.17-1.5.84-2.24,2.46-1.73,1.31.41,2.82.76,3.1,2.24.23,1.21-.1,2.59-2.03,1.63-.63-.31-1.37-.43-2.06-.63Z"/>
  <path class="cls-14" d="m221.25,531.02c.03,1.31-.46,2.16-1.92,2.13-1.25-.02-1.77-.73-1.74-1.91.03-1.43.62-2.43,2.2-2.37,1.36.05,1.43,1.11,1.46,2.14Z"/>
  <path class="cls-14" d="m200.32,523.49c-1.86,2.58-5.1,2.83-7.54,4.44.79-4.4,4.26-4.26,7.54-4.44Z"/>
  <path class="cls-14" d="m277.51,582.66c-.28,1.38-.75,2.71-2.45,2.66-.82-.02-1.24-.88-.89-1.67.59-1.3.77-3.25,2.42-3.4,1.28-.12.78,1.48.92,2.41Z"/>
  <path class="cls-14" d="m299.28,508.48c-1.85,2.16-2.63,4.65-2.25,7.49-2.63-1.1-1.49-3.34-1.3-5.06.2-1.8,1.76-2.49,3.55-2.43Z"/>
  <path class="cls-14" d="m319.65,498.61c1.86-.82,3.21-.87,4.45.28.73.68,1.8,1.54,1.12,2.5-.99,1.39-1.75-.19-2.22-.74-.82-.94-2.18-.98-3.34-2.04Z"/>
  <path class="cls-14" d="m284.23,479.96c-.86-.05-1.93-.02-1.93-1.18,0-1.44,1.15-1.74,2.34-1.73.94,0,1.75.33,1.71,1.46-.05,1.37-1.1,1.41-2.12,1.46Z"/>
  <path class="cls-14" d="m233.26,515.97c1.45-2.24,3.82-3.25,6.03-4.49-.72,3.23-2.75,4.7-6.03,4.49Z"/>
  <path class="cls-14" d="m218.23,524.95c1.57-1.97,3.44-3.45,6.04-3.76-.99,2.9-3.2,3.82-6.04,3.76Z"/>
  <path class="cls-14" d="m303.75,563.96c-1.15,1.58-1.88,3.51-3.74,4.5-.14-2.65.71-4.48,3.74-4.5Z"/>
  <path class="cls-14" d="m206.29,530.23c.79-1.62,2.29-1.5,3.74-1.53-.53,2.26-1.73,2.89-3.74,1.53Z"/>
  <path class="cls-14" d="m337.57,505.4c1.33.18,2.15,1.11,2.96,2.04-.03.35-.06.7-.1,1.05-2.33.24-3.2-.86-2.87-3.08Z"/>
  <path class="cls-14" d="m302.58,493.16c-.26.71-.76,1.33-1.55,1.38-.78.04-.98-.63-.87-1.31.14-.92.78-1.2,1.62-1.12.59.06.85.42.8,1.05Z"/>
  <path class="cls-14" d="m314.99,499.46c.54-1.81,1.48-3.35,3.02-4.49.1,2.24-.38,4.09-3.02,4.49Z"/>
  <path class="cls-14" d="m309.01,506.98c.25-1.84,1.6-2.82,2.99-3.76.19,2.2-.52,3.68-2.99,3.76Z"/>
  <path class="cls-14" d="m318.18,503.25c1.51-.96,2.59-.93,4.14-.03-1.54.94-2.62.94-4.14.03Z"/>
  <path class="cls-14" d="m223.52,625.45c.79-2.36,2.45-1.16,4.68-1.53-1.8,2.09-3.36,1.29-4.66,1.55,0,0-.02-.02-.02-.02Z"/>
  <path class="cls-14" d="m327.01,496.46c.5,0,.99,0,1.49,0,1.26.6,1.77,1.79,2.34,2.94-2.12.11-3.2-1.13-3.83-2.95Z"/>
  <path class="cls-14" d="m280.49,472.47c.07-1.24,1.04-2,1.57-3,.78-.25,1.67-.3,1.14.83-.49,1.06-1.38,1.98-2.71,2.17Z"/>
  <path class="cls-14" d="m326.25,532.47c-.24,1.38-.61,2.66-2.22,3.03-.07-1.61-.02-3.13,2.22-3.03Z"/>
  <path class="cls-14" d="m267.02,625.45c.38-1.41,1.16-1.79,2.48-.96-.43,1.44-1.62.77-2.47.97,0,0,0,0,0,0Z"/>
  <path class="cls-14" d="m312.73,502.46c.19-1.42,1.09-2.32,2.27-3,.07,1.62-.38,2.85-2.27,3Z"/>
  <path class="cls-14" d="m225.01,520.47c.63-1.25,1.75-1.53,3.02-1.5-.35,1.82-1.8,1.43-3.02,1.5Z"/>
  <path class="cls-14" d="m209.54,626.5c-.25.06-.6.25-.86.17-.17-.05-.25-.5-.28-.78,0-.06.39-.24.6-.22.39.03.66.24.54.83Z"/>
  <path class="cls-14" d="m331.51,523.47c-.07,1.04-.57,1.79-1.48,2.28-.03-1.1.1-2.1,1.48-2.28Z"/>
  <path class="cls-14" d="m264.75,490.47c.46-.93,1.2-1.46,2.25-1.51-.15,1.4-1.15,1.53-2.25,1.51Z"/>
  <path class="cls-14" d="m201.74,532.45c.49-.92,1.24-1.42,2.29-1.45-.21,1.36-1.2,1.49-2.29,1.45Z"/>
  <path class="cls-14" d="m197.64,624.38c-.12.31-.2.51-.27.71-.3-.12-.61-.22-.88-.38-.03-.02.14-.53.21-.53.31.01.62.12.95.21Z"/>
  <path class="cls-14" d="m174.89,614.59c-.15-.11-.3-.23-.45-.34.14-.12.27-.26.43-.35.04-.02.25.13.24.17-.05.18-.14.35-.22.53Z"/>
  <path class="cls-14" d="m328.51,528.72c-.09.9-.61,1.39-1.47,1.56.05-.94.55-1.45,1.47-1.56Z"/>
  <path class="cls-14" d="m267,488.96c.02-.49.04-.99.06-1.48.46.1,1.02.18.99.77-.03.58-.59.63-1.06.71Z"/>
  <path class="cls-14" d="m277.5,476.96c.25-.5.5-1,.75-1.49,1,1.12.14,1.32-.75,1.49Z"/>
  <path class="cls-14" d="m276.01,477.72c.5-.25.99-.51,1.49-.76-.17.89-.36,1.75-1.49.76Z"/>
  <path class="cls-14" d="m336,504.01c.76.21,1.28.69,1.58,1.42-.93-.02-1.45-.5-1.58-1.42Z"/>
  <path class="cls-14" d="m205.05,626.07c-.09-.06-.18-.13-.27-.19.16-.1.31-.22.48-.28.06-.02.17.11.26.18-.16.1-.31.2-.47.3Z"/>
  <polygon class="cls-14" points="165.71 605.72 165.72 605.46 165.98 605.59 165.71 605.72"/>
  <path class="cls-14" d="m262.52,620.95l.14-.22c-.04.08-.08.15-.12.23,0,0-.02-.02-.02-.02Z"/>
  <path class="cls-8" d="m489.67,342.66c8.55-4.93,10-13.63,11.8-22.15.13-.12.25-.24.37-.36.51.24.76.62.65,1.2.04.73.03,1.48.79,1.92,0,0,0-.07,0-.07-.07,1.63.34,3.1.91,4.67,3.23,8.89,6.78,17.64,11.19,26.02-4.56,3.06-9.11,6.11-13.67,9.17-4.86-5.34-7.58-11.97-10.96-18.21,0,0-.05,0-.05,0-.06-.85-.18-1.68-1.02-2.17Z"/>
  <path class="cls-8" d="m527.27,386.86c-1.83-.83-3.25-2.19-4.64-3.59.07-.09.18-.18.21-.28.02-.06-.09-.2-.15-.21-.11-.01-.23.05-.34.08,0,0,.23-.1.23-.1-.28-.28-.57-.56-.85-.84,0,0,.03.18.03.17-2.02-3.5-5.52-5.64-8.02-8.71-.74-.91-1.86-1.61-3.24-1.31-.84-.39-1.65-.79-1.39-1.96,1.9-4.86,5.41-8.25,9.82-10.84,5.02,5.99,10.04,11.97,15.07,17.96-1.72,3.57-3.26,7.27-6.72,9.63Z"/>
  <path class="cls-8" d="m584.11,428.43c-7.17-6.54-14.83-12.48-22.41-18.53-.14-3.54,1.14-6.61,3.1-9.46,6.33,3.89,11.88,8.87,18.02,13.01,2.95,1.99,5.28,4.92,8.9,5.89-2.54,3.03-5.07,6.06-7.61,9.09Z"/>
  <path class="cls-8" d="m539.5,395.85c-1.9-1.56-3.79-3.12-5.69-4.69,1.64-3.47,3.28-6.95,4.91-10.42,6.5,5.26,13,10.51,19.5,15.76-1.02,2.93-2.14,5.82-3.97,8.37-5.32-2.35-9.66-6.3-14.75-9.02Z"/>
  <path class="cls-10" d="m518.92,359.26c-4.4,2.59-7.92,5.98-9.82,10.84-3.58-1.19-5.36-4.27-7.41-7.06,4.56-3.06,9.11-6.11,13.67-9.17,3.36.36,2.86,3.27,3.56,5.39Z"/>
  <path class="cls-10" d="m584.11,428.43c2.54-3.03,5.07-6.06,7.61-9.09,1.2-1.33,2.39-2.66,3.59-3.99.61,2.13,1.21,4.26,1.82,6.39-2.51,4.01-5.9,7.29-8.97,10.83-1.72-1.02-3.05-2.43-4.05-4.15Z"/>
  <path class="cls-8" d="m559.46,395.98c.7-4.31,3.17-7.79,5.36-11.38.7-1.15,1.65-2.57,3.25-1.73,1.58.83,2.14,2.44,1.45,4.18-1.61,4.04-3.29,8.04-4.95,12.06-1.75-.96-3.88-1.31-5.11-3.12Z"/>
  <path class="cls-10" d="m538.72,380.74c-1.64,3.47-3.28,6.95-4.91,10.42-2.33-1.2-4.59-2.52-6.54-4.31,3.46-2.36,5-6.06,6.72-9.63,2.7-.33,4.24.88,4.73,3.52Z"/>
  <path class="cls-5" d="m559.46,395.98c1.23,1.81,3.36,2.17,5.11,3.12.07.45.15.89.22,1.34-1.96,2.85-3.24,5.92-3.1,9.46-2.48-1.68-4.97-3.35-7.46-5.03,1.84-2.55,2.96-5.43,3.97-8.37.42-.17.83-.35,1.24-.53Z"/>
  <path class="cls-8" d="m521.83,336.97c-.19,1.69-1.45,2.33-2.81,2.38-1.42.04-2.7-.72-2.89-2.3-.21-1.71.9-2.44,2.47-2.5,1.7-.07,2.76.81,3.24,2.42Z"/>
  <path class="cls-10" d="m528.77,351.81c.03,1.82-1.13,2.27-2.65,2.27-1.49,0-2.75-.33-2.63-2.22.12-1.96,1.49-2.3,3.1-2.33,1.55-.02,2.23.78,2.18,2.27Z"/>
  <path class="cls-8" d="m548.82,378.78c-1.02-.16-2.54.4-2.53-1.32,0-1.55,1-2.42,2.66-2.43,1.61,0,2.76.68,2.71,2.31-.06,1.91-1.76,1.2-2.83,1.44Z"/>
  <path class="cls-7" d="m590.99,395.26c1.49.14,2.25.95,2.18,2.41-.05,1.11-.68,1.95-1.82,1.88-1.34-.09-2.31-.94-2.44-2.31-.13-1.39.86-1.88,2.08-1.98Z"/>
  <path class="cls-7" d="m579.6,396.73c1.22,0,2.26.24,2.31,1.76.03,1.15-.43,1.91-1.68,1.99-1.54.1-2.32-.8-2.53-2.15-.22-1.42.86-1.55,1.91-1.59Z"/>
  <path class="cls-8" d="m578.82,390.16c1.06.26,2.1.67,2.26,2,.13,1.14-.59,1.6-1.59,1.45-1.06-.16-2.37-.27-2.35-1.77.02-.89.54-1.64,1.67-1.68Z"/>
  <path class="cls-8" d="m620.84,430.21c-1.77.05-5.38-4.64-4.92-6.41.21-.8.76-1.27,1.54-1.45,1.85-.43,3.14.4,4.09,1.89.92,1.45,2.23,2.85,1.05,4.75-.4.64-.92,1.19-1.77,1.21Z"/>
  <path class="cls-8" d="m621.29,445.54c-1.58-.03-3.21-.27-3.19-2.24.01-2.38,1.76-3.03,3.83-2.98,1.8.04,3.41.78,3.26,2.71-.16,2.14-2.06,2.49-3.9,2.51Z"/>
  <path class="cls-7" d="m632.6,433.59c1.95.55,2.77,2.04,3.13,3.76.24,1.15-.52,2.08-1.62,1.93-1.87-.25-3.01-1.59-3.31-3.43-.2-1.26.53-2.06,1.8-2.26Z"/>
  <path class="cls-7" d="m571.52,610.4c10.96-3.19,21.16-8.18,30.63-14.39,5.03-3.3,9.99-6.96,14.26-11.34.96-.99,1.91-2.01,3.47-1.95,2.2,2.69,3.41,5.94,5.09,8.92-.83.25-1.98.99-2.43.68-4.14-2.81-5.65,1.32-6.34,3.24-1.87,5.17-4.94,7.06-10.17,5.96-.55-.12-1.25-.1-1.77.81.94.99,2.27.44,3.35.71.84.21,1.34.73,1.18,1.6-.23,1.24-.93.8-1.59.34-.94-.65-1.59-.13-2.26.53-2.29,2.23-4.59,4.12-6.15-1.17-1.13,1.69-.61,3.24-.15,3.88,1.63,2.28.41,3.61-.97,5.22-.7.81-1.25,1.62-2.38,1.38-1.68-.35-.26-1.31-.34-1.99-.11-.97-1.11-1.19-1.69-1.12-2.73.31-5.73-.42-7.89,2.25-1.08,1.33-2.66,1.7-4.5,2.04-2.5.46-4.76,2.23-7.12,3.44-.74-3.01-1.47-6.02-2.21-9.03Z"/>
  <path class="cls-7" d="m580.9,617.91c-.16.14-.31.27-.46.4-.11-.16-.24-.32-.32-.49-.02-.04.17-.25.2-.23.18.07.35.2.57.33Z"/>
  <path class="cls-6" d="m421.42,611.8c2.78,2.64,5.77,5,9.03,7,6.26,4.95,12.74,9.57,20.05,12.9.35.93.8,1.83,1.04,2.78,4.35,17.9,8.68,35.81,13.01,53.72-2.57-.68-5.2-.51-7.81-.56-17.33-.32-34.66-.09-52-.37-10.32-.16-20.69.16-31.04.32-1.44.02-3.01.52-4.3-.64.83-4,1.66-7.99,2.48-11.99,1.51-6.37,3.06-12.73,4.51-19.11.28-1.23.44-2.43,1.54-3.23.95.19,1.65-.39,2.41-.79,16.86-8.99,29.24-22.57,39.35-38.46.46-.72.59-1.67,1.74-1.57Z"/>
  <path class="cls-11" d="m464.54,688.21c-4.33-17.91-8.65-35.82-13.01-53.72-.23-.96-.69-1.86-1.04-2.78.07-.33.14-.66.21-.99,2.31,2.89,2.81,6.44,3.89,9.85,1.59,5.01,2.09,10.25,3.51,15.32,1.4,4.97,3.77,9.88,3.87,15.23.06,2.99,1.37,5.72,2.01,8.57.49,2.17.94,4.29,1.05,6.5,1.54,1.05,1,2.46.65,3.84-.39-.6-.77-1.21-1.16-1.81Z"/>
  <path class="cls-11" d="m371.87,674.97c-.83,4-1.65,7.99-2.48,11.99-.12-.06-.25-.08-.38-.07-.03-.49-.06-.97-.09-1.46-.11-3.8-.39-7.64,2.95-10.47Z"/>
  <path class="cls-6" d="m531.71,132c.23.05.46.11.69.18-.34.34-.58.34-.69-.18Z"/>
  <path class="cls-6" d="m274.44,313.41c2.72-4.51,5.23-6.25,9.1-6.27-1.16,3.47-5.03,5.03-6.01,8.59-2.69,1.45-2.93-.39-3.09-2.32Z"/>
  <path class="cls-7" d="m622.43,579.15c5.51-7.19,11.37-14.13,16.44-21.62,6.59-9.73,12-20.15,15.59-31.42.7-2.21-.41-5.18,2.66-6.41,6.86,4.87,12.46,10.79,15.59,18.76-1.09-.62-2.36-.83-2.94.41-1.79,3.88-6.31,6.15-5.83,11.59.18,2.07-2.51,4.94-4.59,6.54-4.28,3.3-5.77,8.23-8.04,12.61-1.45,2.79-3.26,4.62-5.91,5.63-2.93,1.12-4.36,3.01-5.42,5.95-.84,2.33-4.12,2.24-6.17,3.53-1.56.98-3.53,1.33-3.9,3.56-2.85-2.76-5.17-5.96-7.48-9.16Z"/>
  <path class="cls-7" d="m671.85,541.39c-.01.65-.22,1.22-.92,1.33-.54.08-.98-.34-.83-.85.15-.52.51-1.18.96-1.38.49-.22.73.4.79.9Z"/>
  <path class="cls-7" d="m672.7,538.46c.26.51.53,1.01.79,1.52-.26-.51-.53-1.01-.79-1.52Z"/>
  <path class="cls-14" d="m554.27,129.13c-3.14,1.53-6,2.98-9.91,1.51-4.94-1.86-9.3-4.52-13.73-7.24-1.37-.84-2.2-2.16-2.23-3.09-.12-3.25-1.49-6.19-1.82-9.35,1.54-.42,1.89.85,2.79,1.49,6.28,4.47,10.4,11.77,18.28,14.12,2.26.67,4.41,1.69,6.61,2.56Zm-21.88-7.06l.29-.14-.29-.14v.28Z"/>
  <path class="cls-16" d="m674.2,468.02c.5.07,1,.15,1.51.22-.08.77.91,1.5.06,2.33-1.25-.42-1.34-1.53-1.56-2.56Z"/>
  <path class="cls-7" d="m668.56,510.81c.14-.14.27-.29.41-.43.11.17.25.32.33.5.02.04-.17.25-.21.24-.19-.08-.36-.2-.53-.31Z"/>
  <path class="cls-16" d="m672.71,467.28c.28.23.56.46.84.68-.28-.23-.56-.46-.84-.68Z"/>
  <path class="cls-6" d="m271.29,310.26c.33-.41.82-.69,1.19-.27.44.51-.07.79-.52.96-.22-.23-.44-.46-.66-.7Z"/>
  <path class="cls-7" d="m535.54,236.97c-1.03.27-2.05.54-3.08.81-1.49-1.72-1.95-3.83-2.25-6l.24-.2c2.44,1.09,3.42,3.57,5.09,5.39Z"/>
  <path class="cls-10" d="m528.63,231.07c-1.07-.33-1.38-1.19-1.52-2.17.65-.03,1.28,0,1.63.69-.04.5-.07.99-.11,1.49Z"/>
  <path class="cls-7" d="m528.63,231.07c.04-.5.07-.99.11-1.49.88.4,1.4,1.11,1.71,1.99,0,0-.23.2-.23.2-.5-.24-1.01-.48-1.51-.72,0,0-.08.01-.08.01Z"/>
  <path class="cls-8" d="m561.86,612c-1.17-2.85-.95-5.84-.85-8.8.06-1.94,1.28-3.23,3.06-3.78,1.71-.52,2.8.69,3.71,1.89,2,2.65,2.76,5.77,3.21,8.98-3.07.42-5.9,2.12-9.13,1.71Z"/>
  <path class="cls-11" d="m391.73,350.68c14.38,3.57,28.73,3.62,43.05-.3,3.21,4.54,2.51,9.5-1.75,12.55-.98.7-1.94,1.44-2.91,2.16-11.26.08-22.51.16-33.77.24-.55-1.19-1.6-1.77-2.65-2.49-4.26-2.9-4.58-4.06-3.03-8.97.34-1.07.69-2.13,1.04-3.2Z"/>
  <path class="cls-13" d="m537.02,463.54c-.14.6-.23,1.4-.94,1.44-.78.05-.74-.84-.98-1.38,0,0,.04-.04.04-.04.63.49,1.2.15,1.77-.12l.11.1Z"/>
  <path class="cls-8" d="m642.69,496.68c-.51,1.75-1.06,3.89-1.76,5.99-.31.95-.96,1.84-2.12,1.76-1.22-.08-1.93-.97-2.43-2.03-1.16-2.49.24-7.57,2.47-9.13.78-.55,1.61-.79,2.41-.26,1.14.75,1.33,2,1.44,3.68Z"/>
  <path class="cls-8" d="m631.3,531.6c-.11.21-.23.8-.59,1.05-3.07,2.16-6.46,3.68-10.19,4-1.59.14-2.05-1.21-1.2-2.61,1.26-2.09,7.85-4.96,10.22-4.58,1.12.18,1.88.58,1.76,2.13Z"/>
  <path class="cls-8" d="m605.92,544.51c.17,3.39-4.56,7.71-6.85,7.41-1.83-.24-2.15-1.48-2.06-2.97.13-2.13,4.03-5.78,6.2-5.76,1.52.02,2.65.65,2.7,1.32Z"/>
  <path class="cls-8" d="m501.29,572.27c2.26.62,4.62,1.6,4.78,4.56.11,2.01-1.77,2.97-3.31,2.58-2.35-.6-4.74-1.75-4.76-4.84,0-1.99,1.38-2.39,3.28-2.31Z"/>
  <path class="cls-8" d="m570.97,583.55c-1.74-.13-3.56-.05-3.08-1.78.83-2.98,3.61-3.41,6.27-3.56,1.37-.08,3.36.09,2.98,1.82-.76,3.46-4.32,2.53-6.17,3.51Z"/>
  <path class="cls-8" d="m572.85,566.46c-.88,2.09-2.95,2.28-4.84,2.45-1.32.12-2-.98-1.71-2.25.49-2.12,2.42-2.31,4.07-2.44,1.21-.1,2.44.46,2.47,2.24Z"/>
  <path class="cls-8" d="m612.3,560.19c-1.03-.02-2.35-.21-2.1-1.42.42-2.05,1.95-3.34,4.07-3.69,1.08-.18,1.96.15,2.04,1.48.1,1.58-2.14,3.61-4,3.62Z"/>
  <path class="cls-8" d="m541.38,589.36c-1.34-.2-2.63-.74-2.49-2.23.15-1.61,1.54-2.12,3.04-2.08,1.22.04,2.35.49,2.26,1.9-.1,1.61-1.29,2.28-2.82,2.4Z"/>
  <path class="cls-7" d="m542.76,570.72c.94.1,2.06.22,2.03,1.56-.02,1.09-.98,1.34-1.89,1.38-1.08.05-2.07-.16-2.04-1.54.02-1.16.87-1.37,1.9-1.4Z"/>
  <path class="cls-3" d="m421.42,611.8c-1.15-.1-1.28.85-1.74,1.57-10.11,15.89-22.49,29.48-39.35,38.46-.75.4-1.46.98-2.41.79-.41-5.9,1.63-11.4,2.61-17.08.99-5.69,2.84-11.15,3.64-16.9.89-6.43,2.18-12.84,3.91-19.15,1.52-5.57,2-11.41,3.48-17,1.86-7.03,2.56-14.45,5.86-21.02,6.08-12.1,21.92-14.37,31.29-4.79,4.57,4.67,5.45,11.1,7.88,16.81,2.43,5.71-.02,10.05-2.28,14.93-3.47,7.48-7.49,14.57-12.33,21.24-.4.56-.39,1.42-.57,2.14Z"/>
  <path class="cls-8" d="m450.7,630.73c-.07.33-.14.66-.21.99-7.3-3.34-13.78-7.95-20.05-12.9,1.52-4.07.9-8.55,2.74-12.62,2.35-5.19,4.29-10.58,6.63-16.45,2.52,6.24,3.2,12.4,4.85,18.29,2.11,7.54,3.43,15.28,6.03,22.69Z"/>
  <path class="cls-14" d="m400.51,385.5c3.01,1,4.38,2.81,2.93,5.99-1.5.26-2.48,1.91-4.2,1.59-3.98-2.06-.99-4.35-.21-6.56.13-.87.83-.9,1.48-1.02Z"/>
  <path class="cls-3" d="m383.95,383.81c3.36-2.72,7.24-.86,10.86-1.14,1.36-.11,2.79.75,4.19,1.16-5.02,0-10.04-.02-15.05-.02Z"/>
  <path class="cls-3" d="m285.73,434.74c.23-.95.86-1.27,1.78-1.12-.3.84-.79,1.38-1.78,1.12Z"/>
  <path class="cls-3" d="m285.02,435.32s.24-.26.24-.26c0,0,0,.24,0,.24l-.24.02Z"/>
  <path class="cls-13" d="m453.65,493.09c.35.6.91,1.17.23,1.89-.24-.61-.81-1.18-.23-1.89Z"/>
  <path class="cls-8" d="m533.23,625.46c.22-.35.44-.7.65-1.05.13.13.26.26.39.38-.35.22-.7.43-1.05.65,0,0,.01.01.01.01Z"/>
  <path class="cls-6" d="m536.92,463.45c-.57.27-1.14.62-1.77.12.22-.32.45-.64.67-.96.17-.08.27-.21.3-.39.3-.4.61-.8.91-1.19-.04.81-.07,1.62-.11,2.43Z"/>
  <path class="cls-13" d="m536.12,462.21c-.03.18-.13.31-.3.39,0,0,.03-.29.03-.29l.27-.11Z"/>
  <path class="cls-10" d="m399.25,393.08c1.72.32,2.7-1.32,4.2-1.59,2,.22,1.47,1.84,1.67,3.04-1.27,3.34-2.94,6.42-5.5,8.99-1.83,1.83-4.2,2.49-5.95.93-1.73-1.54-1.19-4.05,0-6.15,1.32-2.34,4-3.19,5.59-5.23Z"/>
  <path class="cls-14" d="m204.79,438.73c-.47-.11-1.04-.1-1.05-.8,0-.08.16-.24.25-.24.69.02.68.58.79,1.05h.01Z"/>
  <path class="cls-14" d="m204.78,438.75c.47.11,1.04.1,1.05.79,0,.08-.16.25-.24.25-.7-.01-.68-.58-.8-1.05,0,0-.01.01-.01.01Z"/>
  <path class="cls-13" d="m489.67,342.66c.84.49.96,1.32,1.02,2.17-2.15.03-4.29.06-6.44.09,1.81-.75,3.61-1.51,5.42-2.26Z"/>
  <path class="cls-3" d="m196.53,440.24c.22-.35.44-.7.65-1.05.13.13.26.26.39.39-.35.22-.7.44-1.05.66h0Z"/>
  <path class="cls-3" d="m196.53,440.24c-.22.35-.44.7-.66,1.06-.13-.13-.26-.26-.39-.4.35-.22.71-.44,1.06-.66h0Z"/>
  <path class="cls-10" d="m510.5,372.07c1.38-.3,2.5.4,3.24,1.31,2.5,3.07,5.99,5.22,8.02,8.71-1.7-.17-2.56-1.47-3.53-2.61-.28-.23-.56-.47-.84-.7-2.52-2.01-4.88-4.17-6.88-6.71Z"/>
  <path class="cls-10" d="m522.34,382.86c.11-.03.23-.09.34-.08.06,0,.17.15.15.21-.03.1-.13.19-.21.28-.23-.04-.33-.18-.29-.41Z"/>
  <path class="cls-10" d="m521.72,381.92c.28.28.57.56.85.84-.59.03-.91-.21-.85-.84Z"/>
  <path class="cls-8" d="m517.38,378.78c.28.23.56.47.84.7-.28-.23-.56-.47-.84-.7Z"/>
  <path class="cls-10" d="m528.7,231.06c.5.24,1.01.48,1.51.72.29,2.17.76,4.27,2.25,6,2.24,6.54,4.47,13.07,6.92,20.24-2.49-1.02-4.51-1.18-4.71-4.04-.14-1.98-2.03-3.08-3.52-4.17-2.51-1.85-5.42-3.24-7.66-5.34-5.29-4.96-11.28-5.13-17.74-3.4-1.91.51-3.82.69-6.6.03,4.57-2.38,8.99-2.14,13.77-3.3-11.18-9.37-21.1-19.25-33.36-26.31,4.94.94,8.98,3.7,12.9,6.48,3.99,2.84,7.61,6.19,12.24,10.03-1.36-5.87-3.52-10.35-3.69-15.36,4.67,6.52,5.11,15.2,11.05,21.09,5.85,5.79,13.48,8.67,20.57,14.34-.51-6.72-3.34-11.62-3.95-17.02Z"/>
  <path class="cls-5" d="m512.22,190.52c0,.55,0,1.11,0,1.66-9.95-3.8-20.21-6.55-30.77-8.24.08-.36.16-.72.24-1.08,4.33.77,8.65,1.61,13,2.28,1.25.19,3.15,1.31,3.32-1.37l-.06.05c4.24,3.33,9.2,5.16,14.28,6.7Z"/>
  <path class="cls-5" d="m498,183.78c-.65-.28-.79-.84-.8-1.47l.08-.07c.76.3.84.89.66,1.58,0,0,.06-.05.06-.05Z"/>
  <path class="cls-5" d="m497.2,182.31c-.19-.24-.38-.49-.57-.73.13-.09.27-.19.4-.28.08.32.16.63.25.95,0,0-.08.07-.08.07Z"/>
  <path class="cls-4" d="m503.28,323.26c-.76-.44-.75-1.19-.79-1.92.48.55,1.17,1.01.79,1.92Z"/>
  <path class="cls-8" d="m501.47,320.5c-.05-.19-.1-.39-.14-.58.17.07.34.14.51.21-.12.12-.24.25-.37.36Z"/>
  <path class="cls-15" d="m301.52,478.48c.47.11,1.03.12,1.04.81,0,.08-.16.25-.24.24-.69,0-.69-.57-.81-1.04,0,0,.01-.01.01-.01Z"/>
  <polygon class="cls-3" points="532.39 122.07 532.39 121.79 532.68 121.93 532.39 122.07"/>
</svg>