<?xml version="1.0" encoding="UTF-8"?>
<svg id="Layer_1" data-name="Layer 1" xmlns="http://www.w3.org/2000/svg" viewBox="0 0 154 49">
  <defs>
    <style>
      .cls-1 {
        stroke: #fbf4e4;
        stroke-linecap: round;
        stroke-linejoin: round;
        stroke-width: 2px;
      }

      .cls-1, .cls-2 {
        fill: none;
      }

      .cls-2 {
        stroke: rgba(209, 213, 218, .3);
      }

      .cls-3 {
        fill: #d76460;
        stroke-width: 0px;
      }

      .cls-4 {
        fill: #fbf4e4;
        font-family: Inter-Medium, Inter;
        font-size: 15px;
        font-variation-settings: 'wght' 500, 'slnt' 0;
        font-weight: 500;
        isolation: isolate;
      }
    </style>
  </defs>
  <path class="cls-3" d="m4,0h146c2.2,0,4,1.8,4,4v41c0,2.2-1.8,4-4,4H4c-2.2,0-4-1.8-4-4V4C0,1.8,1.8,0,4,0Z"/>
  <path class="cls-1" d="m33.3,21.6l-4.3,3.4c-.8.6-1.9.6-2.7,0l-4.3-3.4"/>
  <path class="cls-1" d="m22.9,16h9.4c1.4,0,2.7.6,3.6,1.6.9,1,1.4,2.3,1.3,3.7v6.5c.1,1.4-.4,2.7-1.3,3.7-.9,1-2.2,1.6-3.6,1.6h-9.4c-2.9,0-4.9-2.4-4.9-5.3v-6.5c0-2.9,2-5.3,4.9-5.3Z"/>
  <path class="cls-2" d="m4,.5h146c1.9,0,3.5,1.6,3.5,3.5v41c0,1.9-1.6,3.5-3.5,3.5H4c-1.9,0-3.5-1.6-3.5-3.5V4C.5,2.1,2.1.5,4,.5Z"/>
  <text class="cls-4" transform="translate(48.97 30.62)"><tspan x="0" y="0">Contact Us !</tspan></text>
</svg>