<?xml version="1.0" encoding="utf-8"?>
<!-- Generator: Adobe Illustrator 27.8.1, SVG Export Plug-In . SVG Version: 6.00 Build 0)  -->
<svg version="1.1" id="Layer_1" xmlns="http://www.w3.org/2000/svg" xmlns:xlink="http://www.w3.org/1999/xlink" x="0px" y="0px"
	 viewBox="0 0 154 49" style="enable-background:new 0 0 154 49;" xml:space="preserve">
<style type="text/css">
	.st0{fill:#D76460;}
	.st1{fill:none;stroke:#FBF4E4;stroke-width:2;stroke-linecap:round;stroke-linejoin:round;}
	.st2{fill:none;}
	.st3{enable-background:new    ;}
	.st4{fill:#FBF4E4;}
</style>
<path class="st0" d="M4,0h146c2.2,0,4,1.8,4,4v41c0,2.2-1.8,4-4,4H4c-2.2,0-4-1.8-4-4V4C0,1.8,1.8,0,4,0z"/>
<path class="st1" d="M42.2,22.5l-4.3,3.4c-0.8,0.6-1.9,0.6-2.7,0l-4.3-3.4"/>
<path class="st1" d="M31.8,16.9h9.4c1.4,0,2.7,0.6,3.6,1.6c0.9,1,1.4,2.3,1.3,3.7v6.5c0.1,1.4-0.4,2.7-1.3,3.7
	c-0.9,1-2.2,1.6-3.6,1.6h-9.4c-2.9,0-4.9-2.4-4.9-5.3v-6.5C26.9,19.3,28.9,16.9,31.8,16.9z"/>
<path class="st2" d="M4,0.5h146c1.9,0,3.5,1.6,3.5,3.5v41c0,1.9-1.6,3.5-3.5,3.5H4c-1.9,0-3.5-1.6-3.5-3.5V4C0.5,2.1,2.1,0.5,4,0.5z
	"/>
<g>
	<g class="st3">
		<path class="st4" d="M61.8,31.7V18.6h2v6.3h0.2l5.5-6.3h2.5l-5.3,5.9l5.3,7.2h-2.4l-4.2-5.8l-1.5,1.8v4.1H61.8z"/>
		<path class="st4" d="M77.8,31.9c-0.9,0-1.7-0.2-2.4-0.6c-0.7-0.4-1.2-1-1.6-1.8c-0.4-0.8-0.6-1.6-0.6-2.7c0-1,0.2-1.9,0.6-2.7
			c0.4-0.8,0.9-1.4,1.6-1.8c0.7-0.4,1.5-0.6,2.4-0.6c0.9,0,1.7,0.2,2.4,0.6c0.7,0.4,1.2,1,1.6,1.8c0.4,0.8,0.6,1.7,0.6,2.7
			c0,1-0.2,1.9-0.6,2.7c-0.4,0.8-0.9,1.3-1.6,1.8C79.5,31.7,78.7,31.9,77.8,31.9z M77.8,30.3c0.6,0,1.1-0.2,1.5-0.5
			c0.4-0.3,0.7-0.7,0.9-1.3s0.3-1.1,0.3-1.7c0-0.6-0.1-1.2-0.3-1.7s-0.5-0.9-0.9-1.3c-0.4-0.3-0.9-0.5-1.5-0.5
			c-0.6,0-1.1,0.2-1.5,0.5c-0.4,0.3-0.7,0.7-0.9,1.3s-0.3,1.1-0.3,1.7c0,0.6,0.1,1.2,0.3,1.7s0.5,0.9,0.9,1.3S77.2,30.3,77.8,30.3z"
			/>
		<path class="st4" d="M86.4,25.9v5.8h-1.9v-9.8h1.8v1.6h0.1c0.2-0.5,0.6-0.9,1.1-1.3c0.5-0.3,1.1-0.5,1.8-0.5
			c0.7,0,1.3,0.1,1.8,0.4s0.9,0.7,1.2,1.2c0.3,0.5,0.4,1.2,0.4,2v6.2h-1.9v-6c0-0.7-0.2-1.3-0.6-1.7c-0.4-0.4-0.9-0.6-1.5-0.6
			c-0.4,0-0.8,0.1-1.2,0.3c-0.3,0.2-0.6,0.5-0.8,0.8C86.5,24.9,86.4,25.3,86.4,25.9z"/>
		<path class="st4" d="M99.8,21.9v1.5h-5.4v-1.5H99.8z M95.9,19.5h1.9v9.3c0,0.4,0.1,0.6,0.2,0.8c0.1,0.2,0.3,0.3,0.4,0.4
			c0.2,0.1,0.4,0.1,0.6,0.1c0.2,0,0.3,0,0.4,0s0.2,0,0.3-0.1l0.3,1.6c-0.1,0-0.3,0.1-0.5,0.1c-0.2,0-0.5,0.1-0.8,0.1
			c-0.5,0-1-0.1-1.4-0.3c-0.4-0.2-0.8-0.5-1.1-0.9c-0.3-0.4-0.4-0.9-0.4-1.5V19.5z"/>
		<path class="st4" d="M104.8,31.9c-0.6,0-1.2-0.1-1.7-0.3s-0.9-0.6-1.2-1c-0.3-0.4-0.4-1-0.4-1.6c0-0.6,0.1-1,0.3-1.4
			c0.2-0.4,0.5-0.6,0.9-0.9c0.4-0.2,0.8-0.4,1.2-0.5s0.9-0.2,1.4-0.2c0.6-0.1,1.1-0.1,1.4-0.2c0.4,0,0.6-0.1,0.8-0.2
			c0.2-0.1,0.2-0.3,0.2-0.5v0c0-0.6-0.2-1-0.5-1.3c-0.3-0.3-0.8-0.5-1.4-0.5c-0.6,0-1.1,0.1-1.5,0.4c-0.4,0.3-0.6,0.6-0.8,0.9
			l-1.8-0.4c0.2-0.6,0.5-1.1,0.9-1.4c0.4-0.4,0.9-0.6,1.4-0.8c0.5-0.2,1.1-0.3,1.7-0.3c0.4,0,0.8,0,1.2,0.1c0.4,0.1,0.9,0.3,1.2,0.5
			c0.4,0.2,0.7,0.6,0.9,1c0.2,0.5,0.4,1,0.4,1.7v6.5h-1.9v-1.3h-0.1c-0.1,0.2-0.3,0.5-0.6,0.7c-0.2,0.2-0.6,0.4-1,0.6
			C105.8,31.8,105.3,31.9,104.8,31.9z M105.2,30.4c0.5,0,1-0.1,1.4-0.3s0.7-0.5,0.9-0.8s0.3-0.7,0.3-1.1v-1.3
			c-0.1,0.1-0.2,0.1-0.4,0.2c-0.2,0.1-0.4,0.1-0.7,0.1c-0.2,0-0.5,0.1-0.7,0.1c-0.2,0-0.4,0.1-0.6,0.1c-0.4,0-0.7,0.1-1,0.2
			c-0.3,0.1-0.5,0.3-0.7,0.5c-0.2,0.2-0.3,0.5-0.3,0.8c0,0.5,0.2,0.8,0.5,1.1C104.2,30.3,104.6,30.4,105.2,30.4z"/>
		<path class="st4" d="M112.2,31.7V18.6h1.9v13.1H112.2z M113.9,28.4l0-2.3h0.3l3.9-4.2h2.3l-4.5,4.7h-0.3L113.9,28.4z M118.4,31.7
			l-3.5-4.7l1.3-1.3l4.5,6H118.4z"/>
		<path class="st4" d="M126.8,21.9v1.5h-5.4v-1.5H126.8z M122.8,19.5h1.9v9.3c0,0.4,0.1,0.6,0.2,0.8c0.1,0.2,0.3,0.3,0.4,0.4
			c0.2,0.1,0.4,0.1,0.6,0.1c0.2,0,0.3,0,0.4,0s0.2,0,0.3-0.1l0.3,1.6c-0.1,0-0.3,0.1-0.5,0.1c-0.2,0-0.5,0.1-0.8,0.1
			c-0.5,0-1-0.1-1.4-0.3c-0.4-0.2-0.8-0.5-1.1-0.9c-0.3-0.4-0.4-0.9-0.4-1.5V19.5z"/>
	</g>
</g>
<g>
	<g>
	</g>
</g>
</svg>
