<?xml version="1.0" encoding="UTF-8"?>
<svg id="Layer_1" data-name="Layer 1" xmlns="http://www.w3.org/2000/svg" viewBox="0 0 999 241.16">
  <defs>
    <style>
      .cls-1, .cls-2 {
        fill: #faf3e3;
      }

      .cls-3 {
        fill: none;
      }

      .cls-3, .cls-2, .cls-4, .cls-5 {
        stroke-width: 0px;
      }

      .cls-6 {
        fill: #31937d;
      }

      .cls-7 {
        fill: #d76561;
      }

      .cls-8 {
        font-family: Mont-HeavyDEMO, Mont;
        font-size: 125px;
        font-weight: 800;
        letter-spacing: .01em;
      }

      .cls-4 {
        fill: #202637;
      }

      .cls-9 {
        fill: #e48b25;
      }

      .cls-5 {
        fill: #212637;
      }
    </style>
  </defs>
  <text class="cls-8" transform="translate(655.19 163.63)"><tspan class="cls-7" x="0" y="0">c</tspan><tspan class="cls-9" x="81.37" y="0">a</tspan><tspan class="cls-6" x="169.75" y="0">p</tspan><tspan class="cls-1" x="257.12" y="0">e</tspan></text>
  <g>
    <path class="cls-3" d="m645.01,50.82c-.5-1.22-1.2-2.35-2.16-3.25-1.69-1.59-3.98-2.32-6.19-3.01-.41-.13-1.59-.7-1.99-.47-.57.33.03.86-.25,1.32-.54.89.04,1.59.61,2.26,1.01,1.19,1.55,2.61,1.97,4.1.72,2.56.36,5.22.69,7.82.15,1.17-.58,2.04-1.7,2.23-3.91.65-7.68,2.11-11.17,4.15-.96.56-2,.14-2.88-.45-3.98-2.68-8.44-4.34-12.88-6.01-3.66-1.37-7.4-2.46-11.41-2.02-.53.14-.87.53-1.18.93-2.41,3.18-5.67,3.84-9.34,3.04-3.31-.72-6.58-1.59-9.7-3.01-4.42-2.01-4.81-4.96-9.43-6.59-.19-.07,1.25-1.17,1.08-1.3l-.27-1.38c.59-1.88-.09-3.24-2.07-4.03-1.17-.47-2.5-.59-3.4-1.62-1.75-1.08-3.59-1.93-5.6-2.38-4.39-.96-8.79-1.9-13.15-3.01-3.14-.8-6.36-1-9.58-.19-1.14.29-2.19.58-2.36,1.92-.18,1.35.71,2,1.82,2.42,3.71,1.43,7.2,3.34,10.82,4.97,3.45,1.56,1.59.89,3.42,4.39.16.3-1.78-1.02-1.96-.9-.35.24.85.5.68.28-1.18-1.49,3.03,1.64,1.26,1.3-6.77-1.31-12.28.88-16.87,5.95-3.33,3.68-5.83,7.92-8.53,12.02-4.16,8.51-5.12,16.43-.11,24.79,7.05,11.77,19.02,19.65,31,26.35,11.98,6.7,24.59,12.77,34.39,22.37,2.66,2.6,5.14,5.54,6.32,9.06,2.33,6.94-1.11,14.91-6.89,19.4-5.79,4.48-13.42,5.94-20.74,5.77-7.32-.17-14.5-1.83-21.74-2.96,4.76.74,9.33,2.75,14.19,3.41s10.16.85,15.24.48c8.92-.66,16.43-3.98,20.51-12.37,2.16-4.44,2.42-9.22,1.76-13.92-.4-2.86-1.68-5.63-2.43-8.49-.29-1.12-.97-2.16-1.97-2.92-1.1-.83-1.89-1.92-2.7-3.04-4.98-6.91-10.97-12.62-18.41-16.95-9.31-5.43-18.72-10.8-26.66-18.26-.82-.32-1.38-.94-1.97-1.56-3.21-3.39-5.33-7.4-6.34-11.91-.92-4.07-1.82-8.22.19-12.26,2.68-5.41,7.56-7.77,13.05-9.17,2.05-.52,4.16-.69,6.31-.56,5.61.34,11.23-.62,16.78-.43,9.41.32,18.79,1.53,28.18,2.42,1.27.12,2.55.27,3.29,1.58,1.02,1.81,2.61,3.15,4.1,4.52,1.79,1.65,3.8,2.86,6.44,3.57,2.04.55,3.04,1.18,5.51,1.73,1.58.35,3.07.87,4.5.29,1.8-.72,3.74-1.17,5.33-2.39,2.25-1.22,2.84-.98,3.1,1.73.16,1.64.86,2.47,2.39,2.73,1.75.29,2.41-.85,2.83-2.23.76-2.48,1.15-5.04,1.7-7.57.38-1.77.12-3.73,1-5.37s2.96-2,4.02-3.49c.82-1.16.77-2.69.73-4.11-.06-2.3,0-4.61-.39-6.87-.17-.97-.42-1.93-.79-2.84Z"/>
    <path class="cls-4" d="m494.81,67.2l2.71,1.6c2.07,3.03-4.47,4.17-3.3,7.65.12.34.21.78-.06,1.03-.29.27,11.61,3.66,11.27,3.47-2.51-1.34-3.71,2.46-6.05.84,1.12,1.12-5.05-2.51-4.04-1.29.13.15-5.03-3.03-6.07-3.48-.08-.03,3.47,2.45,3.39,2.45-2.01.19-8.79-6.45-9.98-7.8-4.03-4.54-7.79-9.31-11.56-14.07-.51-.65-1.03-1.59-.51-2.23,7.76,4.57,15.6,9.17,24.2,11.84Z"/>
    <path class="cls-3" d="m604.4,47.31c-1.09-3.41-1.48-3.84-3.02-5.58-.58-.66-1.18-1.35-1.83-1.92s-1.17-1.2-1.59-1.95c2.78,1.83,5.43,3.85,7.94,6.04,1.31,1.15,2.68,2.04,4.39,2.46,2.1.51,4.29.32,6.38-.13,2.7-.57,5.27-1.6,7.93-2.3,3.26-.86,6.73-.63,10.12.18.66.16,1.09.87.79,1.48-.21.43.1,1.23,1.06,2.67,4.3,6.44.98,12.24-5,16.07-9.46,6.05-15.16-2.28-22.52-3.94-3.79-.86-7.39-2.52-11.41-1.98-.15-.07-.23-.16-.25-.29-.02-.14-.02-.21.02-.21l.19-.6c.05-.14.12-.28.22-.39.85-.92,1.93-.79,3.1-.63,6.59.91,12.69,3.27,18.39,6.55,3,1.73,5.64,2.45,8.7.3,1.6-1.12,3.6-1.46,5.53-1.87,1.94-.42,2.99-1.55,2.59-3.66-.33-1.76-.05-3.57-.39-5.34-.79-4.14-3.09-5.91-7.23-5.25-3.52.56-6.97,1.55-10.41,2.47-3.22.86-6.49,1.34-9.77,1.86-.88.14-1.79.19-2.46-.55-.08-.08-.14-.18-.18-.29,0,0,0-.02-.01-.03-.27-.67-1.04-2.46-1.26-3.15Z"/>
    <path class="cls-3" d="m626.45,94.32c2.96-3.55,5.71-7.28,6.99-11.76.43-1.5.42-.07,3.3-.29,2.5-.19,1.82-2.64,2.35-4.18.55-1.59.95-3.22,1.41-4.84-.56,8.97-3.65,16.94-10.06,23.27-2.25,2.23-3.26-.33-4-2.2Z"/>
    <path class="cls-4" d="m605.83,49.04c-2.28-6.7-7.99-12.42-14.2-15.56-3.32-1.68-6.92-2.88-10.63-3.19-.48-.04-.96-.07-1.43-.18-.53-.13-1.03-.38-1.51-.64-2.1-1.13-4.06-2.55-5.79-4.19-5.96-5.63-9.56-13.99-17.66-17.05-.28-.1-.56-.2-.84-.29-2.1-.68-2.81-.98-5.52-1.65-1.82-.45.44,4.24,1.35,5.52,4.44,6.19,8.45,12.24,13.01,18.34.38.51.52,1.19.78,1.79-.52.15-1.05.43-1.57.42-7.42-.12-14.34-1.96-20.82-5.67-5.25-3.01-11.05-3.46-17.01-3.32-7.2.18-14.41,1.5-21.61,0-.89-.18-1.8-.28-2.7-.42.7.66,1.31,1.47,2.11,1.96,8.67,5.16,18.53,8.12,26.59,14.41.62.48,1.11,1.21,1.44,1.92.08.18-.63,1.02-1.07,1.1-15.35,2.97-28.67.86-41.66-8.06-8.48-5.81-16.34-12.12-25.42-17.03.81,1.27,1.56,2.57,2.44,3.79,1.58,2.2,3.24,4.35,4.86,6.52,11.96,16.02,24.46,31.33,45.79,35.15.43.08.79.56,1.18.85-.37.4-.67.91-1.11,1.17-6.27,3.59-13,3.48-19.85,2.46-1.67.13-3.05-.87-4.6-1.21-1.73-.37-2.51.4-1.82,2.04.85,2.02.67,4.63,3.14,5.8.33.16.68.72.35,1.08-.38.41-.76-.05-1.04-.33-1.09-1.12-2.4-1.89-3.85-2.43-.75-.28-1.6-.48-2.1.25-.59.86.33,1.38.81,1.88,1.16,1.21,2.98,1.66,3.79,3.29.93,1.31,2.12,2.04,3.65,2.8,1.31.65,2.73.94,3.87,1.92.57.48,1.02,1.08,1.53,1.63,1.93,2.07,4.65,3.3,7.44,3.73,2.79.43,5.66.09,8.4-.63,5.79-1.52,5.59-7.44,7.29-12.13,2.05-5.64,5.22-10.86,9.31-15.26,2.38-2.57,5.26-4.92,8.56-6.18,1.81-.69,8.95-.02,9.74-1.62.39-.78.15-1.52-.43-2.1-.97-.96-2.07-1.8-3.32-2.35-3.8-1.68-7.33-3.9-11.17-5.5-.88-.36-1.85-.71-1.58-1.94.22-1,.91-1.59,1.96-1.73,1.67-.23,3.29-.62,5.04-.38,3.91.56,7.72,1.56,11.58,2.36,3.73.78,7.45,1.74,10.9,3.41,1.62.78,3.95,1.54,5.35,2.62,1.64,1.26.5,3.47-.27,4.86-.46.83-.35,1.45.41,1.96,5.05,3.41,9.99,7,16.14,8.34,5.16,1.12,10.12,1.81,13.56-3.52.19-.18.35-.39.48-.62.58-1.09.45-2.06-.47-2.91-1.45-.89-2.97-1.25-4.57-1.76-1.7-.54-3.36-1.17-5.01-1.84-1.02-.41-2.03-.83-3.02-1.33-1.56-.78-3.03-1.75-4.39-2.83-.23-.19-.47-.38-.65-.61-.09-.11-.17-.24-.17-.38,0-.16.11-.3.21-.43.46-.54.97-1.04,1.53-1.47.27-.21.57-.41.91-.49.26-.06.53-.05.79-.02,3.06.26,5.78,1.54,8.25,3.29,3.19,2.26,7.37,5.18,11.65,5.23.76-.23,1.56-.38,2.07-1.08-.02-.1-.05-.18-.07-.28.34.37.69.7,1.08-.07-.14-.42-.28-.83-.42-1.25Z"/>
    <path class="cls-4" d="m481.36,70.15c.24-.28.47-.57.71-.85.23.21.46.42.68.64-.29.2-.57.4-.86.6-.18-.13-.36-.26-.53-.39Z"/>
    <path class="cls-4" d="m517.21,85.27s-.08.02-.12.03c-1.87.41-3.63,1.25-5.51,1.61-4.03.77-8.15-.77-11.68-2.85-3.39-2-6.47-4.49-9.98-6.31,2.47,2.34,5.25,4.55,8.04,6.53,2.68,1.89,5.66,3.58,8.92,3.88,2.17.2,4.33-.23,6.39-.88.44-.14,4.49-2.58,4.56-2.5-.27-.3-.21.41-.61.49Z"/>
    <path class="cls-3" d="m602.44,50.76c-2,1.2-5.03.98-5.63,4.1-3.34-1.73-6.44-3.22-9.79-4.94,0,0-1.3-.55-1.36-.57-2.89-1.14-6.03-1.44-6.67-4.02.81-2.83,5.84-.99,8.8-.09,4.98,1.52,9.78,3.65,14.65,5.52Z"/>
    <path class="cls-4" d="m605.16,50.24c.35.02.7.03,1.05.05.03,0,.07,0,.1,0,6.72-1.42,13.45-2.75,20.14-4.29,4.6-1.06,9.02-.69,9.92,4.5,1.14,6.76,4.07,11.54-3.78,11.79-.67.02-4.14,1-5.03,1.4-1.34.6-2.07,1.83-3.25,1.92-6.62.49-11.05-6.07-17.93-6.88-2.86-.34-5.68-1.05-8.51-1.6-.13-.03-.24-.12-.29-.25-.25-.65-.5-1.31-.75-1.96,0-.02-.01-.04-.02-.07-.21-.99.32-2.57-.96-4-1.77-1.98-2.69-2.93-4.07-4.12-.9-.78,9.44,3.86,10.56,3.42.93-.18,1.89.29,2.82.11Z"/>
    <path class="cls-4" d="m498.71,83.77c-1.77-1.26-3.55-2.53-5.32-3.79,1.88,1.12,5.65-.43,5.32,3.79Z"/>
    <circle class="cls-2" cx="583.14" cy="113.98" r="10.68"/>
    <g>
      <path class="cls-5" d="m647.12,143.69s-.02-.03-.03-.04c.04.09.09.17.13.25-.03-.07-.06-.14-.1-.21Z"/>
      <path class="cls-2" d="m624.66,204.39c.1.07.25-.17.39-.39-.14.08-.28.17-.41.25.01.05.02.09.03.14Z"/>
      <path class="cls-5" d="m643.45,187.8c1.19-1.65,2.26-3.39,3.18-5.27-.91,1.79-1.97,3.54-3.18,5.27Z"/>
      <path class="cls-5" d="m647.43,144.32c-.07-.14-.14-.28-.21-.42.06.13.12.25.17.37.01.02.03.03.04.05Z"/>
      <path class="cls-5" d="m646.63,182.53c2.61-5.16,3.94-10.66,3.93-16.9-.21,2.49-.53,5.03-.82,6.87-.6,3.75-1.67,7.05-3.11,10.03Z"/>
      <path class="cls-2" d="m625.36,203.71c-.09-.06-.2.11-.32.29,7.07-4.34,13.15-9.34,16.73-13.93.59-.75,1.14-1.51,1.67-2.27-4.58,6.33-11.04,11.12-18.08,15.91Z"/>
    </g>
  </g>
  <g>
    <path class="cls-4" d="m111.03,121.81c0,25.53-18.75,43.82-45.17,43.82H30.44v-87.5h35.41c26.49,0,45.17,18.11,45.17,43.68Zm-24.71,0c0-12.98-8.64-21.6-21.59-21.6h-10.07v43.35h10.07c12.96,0,21.59-8.84,21.59-21.75Z"/>
    <path class="cls-4" d="m167.88,97.81v21.28h-9.03c-8.23,0-11.68,3.61-11.68,12.22v34.33h-23.25v-67.5h15.58l3.63,7.49c4.76-5.51,10.56-7.81,18.59-7.81h6.16Z"/>
    <path class="cls-4" d="m249.28,98.06v67.5h-17.97l-1.99-4.77c-5.53,4.48-12.53,7.06-20.37,7.06-20.64,0-35.39-15.06-35.39-36.04s14.75-35.78,35.39-35.78c7.95,0,15.05,2.66,20.62,7.25l2.38-5.22h17.33Zm-22.11,33.8c0-8.76-6.4-15.34-15.11-15.34s-15.11,6.58-15.11,15.34,6.4,15.4,15.11,15.4,15.11-6.58,15.11-15.4Z"/>
    <path class="cls-4" d="m335.61,98.13v60c0,21.21-13.89,34.35-36.18,34.35-19.16,0-32.56-9.66-35.67-25.65h22.44c1.61,4.51,7.37,6.94,13.02,6.94,7.79,0,14.05-4.95,14.05-12.98v-2.01c-5.07,3.22-11.1,5.07-17.61,5.07-19.35,0-33.73-14.4-33.73-33.93s14.38-33.95,33.73-33.95c8.17,0,15.57,2.93,21.29,7.82l2.95-5.66h15.72Zm-36.1,46.57c8.35,0,14.36-6.19,14.36-14.79s-5.99-14.71-14.36-14.71-14.41,6.19-14.41,14.71,5.99,14.79,14.41,14.79h0Z"/>
  </g>
  <g>
    <path class="cls-4" d="m448.53,139.64c3.58-.14,7.4.04,11.27.46v-10.51c0-8.59,4.17-13.66,11.42-13.66,5.85,0,8.8,3.9,8.8,11.75v16.69c5.28,1.72,10.09,3.87,15.29,6.23,2.8,1.27,5.41,2.52,7.96,3.86v-29.99c0-17.2-10.29-28.34-25.97-28.34-8.73,0-16.22,3.36-21.25,8.96l-3.19-6.96h-16.31v42.7c3.77-.79,7.77-1.02,11.98-1.19Z"/>
    <path class="cls-4" d="m451.82,158.01c-4.92-1.73-10.04-2.86-15.17-3.87-.06-.01-.12.04-.12.1,0,3.76.01,7.53.01,11.29,0,.06.04.1.1.1h23.15c.21,0,0-3.76-.3-4.11-.5-.6-1.24-.93-1.96-1.23-1.35-.57-2.7-1.15-4.07-1.67-.55-.21-1.1-.41-1.65-.6Z"/>
  </g>
  <path class="cls-4" d="m651.45,159.63c-.74-7.63-3.28-15.15-7.21-21.77-9.41-15.83-25.98-23.52-42.67-29.6-6.54-2.38-13.18-4.49-19.78-6.72-4.76-1.61-9.87-2.2-14.42-4.45-4.29-2.12-10.49-8.98-5.78-13.66,1.04-1.03,2.43-1.59,3.81-2.08,5.14-1.81,10.56-2.8,16-2.95.71-.02,1.69.23,1.64.94-.02.26-.18.48-.36.67-.83.86-2.14,1.4-2.41,2.56-.27,1.15.74,2.28,1.88,2.58s2.34-.03,3.47-.39c5.39-1.71,15.53-.13,18.64,5.28,0,.01,0,.03,0,.04-.25,1.52-.62,2.86-.06,4.36.81,2.15,2.66,2.54,4.71,1.65,1.77-.76,3.45-1.83,5.05-2.91,1.41-.96,3.15-1.34,4.84-1.06.07.01.14.03.18.08.03.05.03.11.03.17-.06.74-.16,1.48-.24,2.23-.05.15-.06.31-.05.47-.05.4-.08.8-.13,1.2-.07.54-.71,2.59-.25,3.02.56.53,3.21-1.63,3.69-2.05,1.5-.83,2.81-2.71,4.59-2.86.29-.02.58,0,.85-.07.4-.1.72-.39,1-.7.63-.71,1.09-1.56,1.52-2.41,1.28-2.53,2.39-5.14,3.29-7.83.6-1.82,1.18-4.82.7-6.87-.39-1.66-3.43,2.2-4.3,2.62-.78.38-1.61.66-2.48.88-2.02.39-4.07.52-6.1.39-5.95-.57-12.15-3.63-15.16-8.03-1.58-2.31-2.15-3.52-4.84-3.81-14.63-1.58-29.27-2.64-44-1.92-10.87.53-22.61,4.78-22.19,17.74.16,4.85,2.19,9.51,5.07,13.42,5.01,6.82,11.96,11.11,18.84,15.75,2.35,1.59,4.75,3.11,7.14,4.61,6.63,4.16,13.33,8.34,19.04,13.67,1.14,1.14,2.28,2.3,3.4,3.46,5.04,5.69,8.79,12.66,9.32,20.2.35,4.95-.92,10.1-3.57,14.26-5.76,8.48-16.73,9.21-27.1,8.87-4.11-.26-8.21-.7-12.28-1.35-5.89-1.07-11.72-2.65-17.32-4.33-3.61-1.09-7.16-2.36-10.65-3.79-2.15-.91-4.28-1.86-6.4-2.85-1.54-.74-3.07-1.5-4.58-2.3-15.77-8.31-32-16.91-49.64-20.32-17.87-3.45-36.55-1.17-52.9,6.89-1.61.8-3.2,1.64-4.75,2.55.15,1.71,2.69,1.58,4.31,1.01,17.51-6.15,37.16-1.44,53.68,7,.32.17.65.33.97.5,9.98,5.21,19.38,11.87,28.33,18.68,1.25.95,2.49,1.91,3.72,2.89,3.84,3.04,7.23,6.56,11.11,9.57,3.45,2.68,7.01,5.21,10.62,7.66,1.16.79,2.32,1.56,3.49,2.33,10.94,7.27,23.46,12.17,36.44,14.15,24.92,3.8,51.14-2.24,71.42-17.36,5.98-4.46,11.54-9.79,14.84-16.48,3.62-7.33,4.81-15.46,4.03-23.46Z"/>
  <path class="cls-4" d="m348.24,131.88c0-20.92,15.84-35.96,37.85-35.96s37.84,15.04,37.84,35.96-15.91,35.96-37.84,35.96-37.85-15.11-37.85-35.96Zm37.85,15.08c8.48,0,14.56-6.15,14.56-15.08s-6.08-15.08-14.56-15.08-14.56,6.15-14.56,15.08,6.08,15.07,14.56,15.07h0Z"/>
</svg>