<?xml version="1.0" encoding="utf-8"?>
<!-- Generator: Adobe Illustrator 27.8.1, SVG Export Plug-In . SVG Version: 6.00 Build 0)  -->
<svg version="1.1" id="Layer_1" xmlns="http://www.w3.org/2000/svg" xmlns:xlink="http://www.w3.org/1999/xlink" x="0px" y="0px"
	 viewBox="0 0 965.2 241.2" style="enable-background:new 0 0 965.2 241.2;" xml:space="preserve">
<style type="text/css">
	.st0{fill:#202638;}
	.st1{fill:none;}
	.st2{fill:#FAF3E3;}
	.st3{fill:#212637;}
	.st4{display:none;fill:#FAF3E3;}
	.st5{fill:#E48B25;}
</style>
<g>
	<g>
		<path class="st0" d="M667.5,167.7c-21.6,0-37.3-15.2-37.3-36.1s15.6-35.8,37.3-35.8c19,0,33.2,12,35.7,29.9h-22.6
			c-2-5.5-7.1-9.1-13.2-9.1c-8.2,0-14,6.2-14,15s5.9,15.1,14,15.1c6.2,0,11.3-3.8,13.2-9.8h22.8
			C700.9,155.3,686.5,167.7,667.5,167.7L667.5,167.7z"/>
		<path class="st0" d="M787.3,97.9v67.5h-18l-2-4.8c-5.5,4.5-12.5,7.1-20.4,7.1c-20.6,0-35.4-15.1-35.4-36
			c0-20.9,14.8-35.8,35.4-35.8c8,0,15.1,2.7,20.6,7.3l2.4-5.2H787.3z M765.2,131.7c0-8.8-6.4-15.3-15.1-15.3
			c-8.8,0-15.1,6.6-15.1,15.3c0,8.8,6.4,15.4,15.1,15.4C758.8,147.1,765.2,140.5,765.2,131.7z"/>
		<path class="st0" d="M878.6,131.7c0,21-14.8,36-35.4,36c-6.1,0-11.7-1.6-16.5-4.5v26.6h-23V98h15.8l2.9,5.4
			c5.6-4.8,12.7-7.6,20.7-7.6C863.9,95.7,878.6,110.7,878.6,131.7z M855.2,131.7c0-8.9-6.4-15.4-15.1-15.4s-15.1,6.6-15.1,15.4
			s6.4,15.4,15.1,15.4C848.8,147.1,855.2,140.6,855.2,131.7z"/>
		<path class="st0" d="M960.7,131.1c0,2-0.2,4.1-0.5,6.2h-50.1c1.5,7.7,6.4,11.7,13.8,11.7c5.4,0,10-2.4,12.2-6.3h23.1
			c-4.8,15.4-18.4,25-35.3,25c-21.1,0-36.7-15.4-36.7-36c0-20.7,15.5-35.9,36.7-35.9C945.7,95.7,960.7,111.3,960.7,131.1
			L960.7,131.1z M910.5,124.3h27.3c-2-6.7-6.9-10.4-13.9-10.4C917.1,114,912.4,117.6,910.5,124.3z"/>
	</g>
</g>
<path class="st1" d="M907.3,54.4"/>
<g>
	<path class="st1" d="M616.6,52.6c-0.5-1.2-1.2-2.3-2.2-3.3c-1.7-1.6-4-2.3-6.2-3c-0.4-0.1-1.6-0.7-2-0.5c-0.6,0.3,0,0.9-0.2,1.3
		c-0.5,0.9,0,1.6,0.6,2.3c1,1.2,1.6,2.6,2,4.1c0.7,2.6,0.4,5.2,0.7,7.8c0.2,1.2-0.6,2-1.7,2.2c-3.9,0.6-7.7,2.1-11.2,4.1
		c-1,0.6-2,0.1-2.9-0.5c-4-2.7-8.4-4.3-12.9-6c-3.7-1.4-7.4-2.5-11.4-2c-0.5,0.1-0.9,0.5-1.2,0.9c-2.4,3.2-5.7,3.8-9.3,3
		c-3.3-0.7-6.6-1.6-9.7-3c-4.4-2-4.8-5-9.4-6.6c-0.2-0.1,1.2-1.2,1.1-1.3l-0.3-1.4c0.6-1.9-0.1-3.2-2.1-4c-1.2-0.5-2.5-0.6-3.4-1.6
		c-1.7-1.1-3.6-1.9-5.6-2.4c-4.4-1-8.8-1.9-13.2-3c-3.1-0.8-6.4-1-9.6-0.2c-1.1,0.3-2.2,0.6-2.4,1.9c-0.2,1.3,0.7,2,1.8,2.4
		c3.7,1.4,7.2,3.3,10.8,5c3.5,1.6,1.6,0.9,3.4,4.4c0.2,0.3-1.8-1-2-0.9c-0.4,0.2,0.9,0.5,0.7,0.3c-1.2-1.5,3,1.6,1.3,1.3
		c-6.8-1.3-12.3,0.9-16.9,6c-3.3,3.7-5.8,7.9-8.5,12c-4.2,8.5-5.1,16.4-0.1,24.8c7.1,11.8,19,19.7,31,26.4s24.6,12.8,34.4,22.4
		c2.7,2.6,5.1,5.5,6.3,9.1c2.3,6.9-1.1,14.9-6.9,19.4c-5.8,4.5-13.4,5.9-20.7,5.8c-7.3-0.2-14.5-1.8-21.7-3
		c4.8,0.7,9.3,2.7,14.2,3.4c5,0.7,10.2,0.9,15.2,0.5c8.9-0.7,16.4-4,20.5-12.4c2.2-4.4,2.4-9.2,1.8-13.9c-0.4-2.9-1.7-5.6-2.4-8.5
		c-0.3-1.1-1-2.2-2-2.9c-1.1-0.8-1.9-1.9-2.7-3c-5-6.9-11-12.6-18.4-17c-9.3-5.4-18.7-10.8-26.7-18.3c-0.8-0.3-1.4-0.9-2-1.6
		c-3.2-3.4-5.3-7.4-6.3-11.9c-0.9-4.1-1.8-8.2,0.2-12.3c2.7-5.4,7.6-7.8,13.1-9.2c2.1-0.5,4.2-0.7,6.3-0.6
		c5.6,0.3,11.2-0.6,16.8-0.4c9.4,0.3,18.8,1.5,28.2,2.4c1.3,0.1,2.6,0.3,3.3,1.6c1,1.8,2.6,3.2,4.1,4.5c1.8,1.7,3.8,2.9,6.4,3.6
		c2,0.6,3,1.2,5.5,1.7c1.6,0.4,3.1,0.9,4.5,0.3c1.8-0.7,3.7-1.2,5.3-2.4c2.2-1.2,2.8-1,3.1,1.7c0.2,1.6,0.9,2.5,2.4,2.7
		c1.7,0.3,2.4-0.9,2.8-2.2c0.8-2.5,1.2-5,1.7-7.6c0.4-1.8,0.1-3.7,1-5.4c0.9-1.6,3-2,4-3.5c0.8-1.2,0.8-2.7,0.7-4.1
		c-0.1-2.3,0-4.6-0.4-6.9C617.2,54.5,616.9,53.6,616.6,52.6z"/>
	<path class="st0" d="M466.4,69l2.7,1.6c2.1,3-4.5,4.2-3.3,7.6c0.1,0.3,0.2,0.8-0.1,1c-0.3,0.3,11.6,3.7,11.3,3.5
		c-2.5-1.3-3.7,2.5-6,0.8c1.1,1.1-5-2.5-4-1.3c0.1,0.2-5-3-6.1-3.5c-0.1,0,3.5,2.4,3.4,2.5c-2,0.2-8.8-6.5-10-7.8
		c-4-4.5-7.8-9.3-11.6-14.1c-0.5-0.7-1-1.6-0.5-2.2C449.9,61.7,457.8,66.4,466.4,69z"/>
	<path class="st1" d="M576,49.1c-1.1-3.4-1.5-3.8-3-5.6c-0.6-0.7-1.2-1.3-1.8-1.9c-0.7-0.6-1.2-1.2-1.6-2c2.8,1.8,5.4,3.8,7.9,6
		c1.3,1.1,2.7,2,4.4,2.5c2.1,0.5,4.3,0.3,6.4-0.1c2.7-0.6,5.3-1.6,7.9-2.3c3.3-0.9,6.7-0.6,10.1,0.2c0.7,0.2,1.1,0.9,0.8,1.5
		c-0.2,0.4,0.1,1.2,1.1,2.7c4.3,6.4,1,12.2-5,16.1c-9.5,6.1-15.2-2.3-22.5-3.9c-3.8-0.9-7.4-2.5-11.4-2c-0.1-0.1-0.2-0.2-0.3-0.3
		c0-0.1,0-0.2,0-0.2l0.2-0.6c0-0.1,0.1-0.3,0.2-0.4c0.9-0.9,1.9-0.8,3.1-0.6c6.6,0.9,12.7,3.3,18.4,6.6c3,1.7,5.6,2.5,8.7,0.3
		c1.6-1.1,3.6-1.5,5.5-1.9c1.9-0.4,3-1.6,2.6-3.7c-0.3-1.8-0.1-3.6-0.4-5.3c-0.8-4.1-3.1-5.9-7.2-5.2c-3.5,0.6-7,1.6-10.4,2.5
		c-3.2,0.9-6.5,1.3-9.8,1.9c-0.9,0.1-1.8,0.2-2.5-0.5c-0.1-0.1-0.1-0.2-0.2-0.3c0,0,0,0,0,0C576.9,51.6,576.2,49.8,576,49.1z"/>
	<path class="st1" d="M598,96.2c3-3.5,5.7-7.3,7-11.8c0.4-1.5,0.4-0.1,3.3-0.3c2.5-0.2,1.8-2.6,2.4-4.2c0.6-1.6,0.9-3.2,1.4-4.8
		c-0.6,9-3.6,16.9-10.1,23.3C599.8,100.6,598.7,98,598,96.2z"/>
	<path class="st0" d="M577.4,50.9c-2.3-6.7-8-12.4-14.2-15.6c-3.3-1.7-6.9-2.9-10.6-3.2c-0.5,0-1-0.1-1.4-0.2
		c-0.5-0.1-1-0.4-1.5-0.6c-2.1-1.1-4.1-2.5-5.8-4.2c-6-5.6-9.6-14-17.7-17.1c-0.3-0.1-0.6-0.2-0.8-0.3c-2.1-0.7-2.8-1-5.5-1.6
		c-1.8-0.4,0.4,4.2,1.4,5.5c4.4,6.2,8.5,12.2,13,18.3c0.4,0.5,0.5,1.2,0.8,1.8c-0.5,0.1-1,0.4-1.6,0.4c-7.4-0.1-14.3-2-20.8-5.7
		c-5.3-3-11-3.5-17-3.3c-7.2,0.2-14.4,1.5-21.6,0c-0.9-0.2-1.8-0.3-2.7-0.4c0.7,0.7,1.3,1.5,2.1,2c8.7,5.2,18.5,8.1,26.6,14.4
		c0.6,0.5,1.1,1.2,1.4,1.9c0.1,0.2-0.6,1-1.1,1.1c-15.3,3-28.7,0.9-41.7-8.1c-8.5-5.8-16.3-12.1-25.4-17c0.8,1.3,1.6,2.6,2.4,3.8
		c1.6,2.2,3.2,4.3,4.9,6.5c12,16,24.5,31.3,45.8,35.2c0.4,0.1,0.8,0.6,1.2,0.9c-0.4,0.4-0.7,0.9-1.1,1.2c-6.3,3.6-13,3.5-19.9,2.5
		c-1.7,0.1-3-0.9-4.6-1.2c-1.7-0.4-2.5,0.4-1.8,2c0.8,2,0.7,4.6,3.1,5.8c0.3,0.2,0.7,0.7,0.3,1.1c-0.4,0.4-0.8-0.1-1-0.3
		c-1.1-1.1-2.4-1.9-3.8-2.4c-0.8-0.3-1.6-0.5-2.1,0.3c-0.6,0.9,0.3,1.4,0.8,1.9c1.2,1.2,3,1.7,3.8,3.3c0.9,1.3,2.1,2,3.7,2.8
		c1.3,0.6,2.7,0.9,3.9,1.9c0.6,0.5,1,1.1,1.5,1.6c1.9,2.1,4.6,3.3,7.4,3.7c2.8,0.4,5.7,0.1,8.4-0.6c5.8-1.5,5.6-7.4,7.3-12.1
		c2-5.6,5.2-10.9,9.3-15.3c2.4-2.6,5.3-4.9,8.6-6.2c1.8-0.7,8.9,0,9.7-1.6c0.4-0.8,0.1-1.5-0.4-2.1c-1-1-2.1-1.8-3.3-2.3
		c-3.8-1.7-7.3-3.9-11.2-5.5c-0.9-0.4-1.9-0.7-1.6-1.9c0.2-1,0.9-1.6,2-1.7c1.7-0.2,3.3-0.6,5-0.4c3.9,0.6,7.7,1.6,11.6,2.4
		c3.7,0.8,7.5,1.7,10.9,3.4c1.6,0.8,3.9,1.5,5.3,2.6c1.6,1.3,0.5,3.5-0.3,4.9c-0.5,0.8-0.4,1.5,0.4,2c5.1,3.4,10,7,16.1,8.3
		c5.2,1.1,10.1,1.8,13.6-3.5c0.2-0.2,0.4-0.4,0.5-0.6c0.6-1.1,0.4-2.1-0.5-2.9c-1.4-0.9-3-1.2-4.6-1.8c-1.7-0.5-3.4-1.2-5-1.8
		c-1-0.4-2-0.8-3-1.3c-1.6-0.8-3-1.7-4.4-2.8c-0.2-0.2-0.5-0.4-0.7-0.6c-0.1-0.1-0.2-0.2-0.2-0.4c0-0.2,0.1-0.3,0.2-0.4
		c0.5-0.5,1-1,1.5-1.5c0.3-0.2,0.6-0.4,0.9-0.5c0.3-0.1,0.5,0,0.8,0c3.1,0.3,5.8,1.5,8.3,3.3c3.2,2.3,7.4,5.2,11.7,5.2
		c0.8-0.2,1.6-0.4,2.1-1.1c0-0.1,0-0.2-0.1-0.3c0.3,0.4,0.7,0.7,1.1-0.1C577.7,51.7,577.5,51.3,577.4,50.9z"/>
	<path class="st0" d="M452.9,72c0.2-0.3,0.5-0.6,0.7-0.8c0.2,0.2,0.5,0.4,0.7,0.6c-0.3,0.2-0.6,0.4-0.9,0.6
		C453.3,72.2,453.1,72.1,452.9,72z"/>
	<path class="st0" d="M488.8,87.1c0,0-0.1,0-0.1,0c-1.9,0.4-3.6,1.3-5.5,1.6c-4,0.8-8.2-0.8-11.7-2.8c-3.4-2-6.5-4.5-10-6.3
		c2.5,2.3,5.2,4.6,8,6.5c2.7,1.9,5.7,3.6,8.9,3.9c2.2,0.2,4.3-0.2,6.4-0.9c0.4-0.1,4.5-2.6,4.6-2.5C489.1,86.3,489.2,87,488.8,87.1z
		"/>
	<path class="st1" d="M574,52.6c-2,1.2-5,1-5.6,4.1c-3.3-1.7-6.4-3.2-9.8-4.9c0,0-1.3-0.5-1.4-0.6c-2.9-1.1-6-1.4-6.7-4
		c0.8-2.8,5.8-1,8.8-0.1C564.3,48.6,569.1,50.7,574,52.6z"/>
	<path class="st0" d="M576.7,52.1c0.3,0,0.7,0,1,0c0,0,0.1,0,0.1,0c6.7-1.4,13.5-2.7,20.1-4.3c4.6-1.1,9-0.7,9.9,4.5
		c1.1,6.8,4.1,11.5-3.8,11.8c-0.7,0-4.1,1-5,1.4c-1.3,0.6-2.1,1.8-3.2,1.9c-6.6,0.5-11-6.1-17.9-6.9c-2.9-0.3-5.7-1-8.5-1.6
		c-0.1,0-0.2-0.1-0.3-0.2c-0.2-0.7-0.5-1.3-0.8-2c0,0,0,0,0-0.1c-0.2-1,0.3-2.6-1-4c-1.8-2-2.7-2.9-4.1-4.1
		c-0.9-0.8,9.4,3.9,10.6,3.4C574.8,51.8,575.8,52.2,576.7,52.1z"/>
	<path class="st0" d="M470.3,85.6c-1.8-1.3-3.5-2.5-5.3-3.8C466.8,82.9,470.6,81.4,470.3,85.6z"/>
	<path class="st0" d="M484.8,88.3"/>
	<path class="st0" d="M480.6,89"/>
	<circle class="st2" cx="554.7" cy="115.8" r="10.7"/>
	<g>
		<path class="st3" d="M618.7,145.5C618.7,145.5,618.7,145.5,618.7,145.5c0,0,0.1,0.1,0.1,0.2C618.7,145.7,618.7,145.6,618.7,145.5z
			"/>
		<path class="st2" d="M596.2,206.2c0.1,0.1,0.2-0.2,0.4-0.4c-0.1,0.1-0.3,0.2-0.4,0.3C596.2,206.1,596.2,206.2,596.2,206.2z"/>
		<path class="st3" d="M615,189.6c1.2-1.6,2.3-3.4,3.2-5.3C617.3,186.2,616.2,187.9,615,189.6z"/>
		<path class="st3" d="M619,146.1c-0.1-0.1-0.1-0.3-0.2-0.4C618.8,145.9,618.9,146,619,146.1C619,146.1,619,146.1,619,146.1z"/>
		<path class="st3" d="M618.2,184.4c2.6-5.2,3.9-10.7,3.9-16.9c-0.2,2.5-0.5,5-0.8,6.9C620.7,178.1,619.6,181.4,618.2,184.4z"/>
		<path class="st2" d="M596.9,205.5c-0.1-0.1-0.2,0.1-0.3,0.3c7.1-4.3,13.2-9.3,16.7-13.9c0.6-0.8,1.1-1.5,1.7-2.3
			C610.4,196,604,200.8,596.9,205.5z"/>
	</g>
</g>
<g>
	<path class="st0" d="M82.6,123.6c0,25.5-18.8,43.8-45.2,43.8H2V80h35.4C63.9,80,82.6,98.1,82.6,123.6z M57.9,123.6
		c0-13-8.6-21.6-21.6-21.6H26.2v43.3h10.1C49.2,145.4,57.9,136.5,57.9,123.6z"/>
	<path class="st0" d="M139.4,99.6v21.3h-9c-8.2,0-11.7,3.6-11.7,12.2v34.3H95.5V100h15.6l3.6,7.5c4.8-5.5,10.6-7.8,18.6-7.8H139.4z"
		/>
	<path class="st0" d="M220.8,99.9v67.5h-18l-2-4.8c-5.5,4.5-12.5,7.1-20.4,7.1c-20.6,0-35.4-15.1-35.4-36
		c0-20.9,14.8-35.8,35.4-35.8c8,0,15.1,2.7,20.6,7.3l2.4-5.2L220.8,99.9z M198.7,133.7c0-8.8-6.4-15.3-15.1-15.3
		c-8.8,0-15.1,6.6-15.1,15.3c0,8.8,6.4,15.4,15.1,15.4C192.3,149.1,198.7,142.5,198.7,133.7z"/>
	<path class="st0" d="M307.2,100v60c0,21.2-13.9,34.4-36.2,34.4c-19.2,0-32.6-9.7-35.7-25.7h22.4c1.6,4.5,7.4,6.9,13,6.9
		c7.8,0,14.1-5,14.1-13v-2c-5.1,3.2-11.1,5.1-17.6,5.1c-19.4,0-33.7-14.4-33.7-33.9c0-19.2,14.4-33.9,33.7-33.9
		c8.2,0,15.6,2.9,21.3,7.8l2.9-5.7L307.2,100z M271.1,146.5c8.3,0,14.4-6.2,14.4-14.8c0-8.5-6-14.7-14.4-14.7
		c-8.3,0-14.4,6.2-14.4,14.7C256.7,140.3,262.6,146.5,271.1,146.5L271.1,146.5z"/>
</g>
<g>
	<path class="st0" d="M420.1,141.5c3.6-0.1,7.4,0,11.3,0.5v-10.5c0-8.6,4.2-13.7,11.4-13.7c5.9,0,8.8,3.9,8.8,11.8v16.7
		c5.3,1.7,10.1,3.9,15.3,6.2c2.8,1.3,5.4,2.5,8,3.9v-30c0-17.2-10.3-28.3-26-28.3c-8.7,0-16.2,3.4-21.2,9l-3.2-7h-16.3v42.7
		C411.9,141.9,415.9,141.6,420.1,141.5z"/>
	<path class="st0" d="M423.4,159.8c-4.9-1.7-10-2.9-15.2-3.9c-0.1,0-0.1,0-0.1,0.1c0,3.8,0,7.5,0,11.3c0,0.1,0,0.1,0.1,0.1h23.1
		c0.2,0,0-3.8-0.3-4.1c-0.5-0.6-1.2-0.9-2-1.2c-1.3-0.6-2.7-1.1-4.1-1.7C424.5,160.2,423.9,160,423.4,159.8z"/>
</g>
<path class="st4" d="M417.3,147.3c0,0-0.8,1.4-1.1,1.9s-4.3,5.5-4.3,5.5l-6.4,0.2l1.2-4.3L417.3,147.3z"/>
<path class="st5" d="M423.4,143.2"/>
<path class="st0" d="M623,161.5c-0.7-7.6-3.3-15.2-7.2-21.8c-9.4-15.8-26-23.5-42.7-29.6c-6.5-2.4-13.2-4.5-19.8-6.7
	c-4.8-1.6-9.9-2.2-14.4-4.4c-4.3-2.1-10.5-9-5.8-13.7c1-1,2.4-1.6,3.8-2.1c5.1-1.8,10.6-2.8,16-2.9c0.7,0,1.7,0.2,1.6,0.9
	c0,0.3-0.2,0.5-0.4,0.7c-0.8,0.9-2.1,1.4-2.4,2.6c-0.3,1.1,0.7,2.3,1.9,2.6s2.3,0,3.5-0.4c5.4-1.7,15.5-0.1,18.6,5.3c0,0,0,0,0,0
	c-0.2,1.5-0.6,2.9-0.1,4.4c0.8,2.2,2.7,2.5,4.7,1.6c1.8-0.8,3.5-1.8,5-2.9c1.4-1,3.1-1.3,4.8-1.1c0.1,0,0.1,0,0.2,0.1
	c0,0,0,0.1,0,0.2c-0.1,0.7-0.2,1.5-0.2,2.2c0,0.1-0.1,0.3-0.1,0.5c0,0.4-0.1,0.8-0.1,1.2c-0.1,0.5-0.7,2.6-0.2,3
	c0.6,0.5,3.2-1.6,3.7-2.1c1.5-0.8,2.8-2.7,4.6-2.9c0.3,0,0.6,0,0.9-0.1c0.4-0.1,0.7-0.4,1-0.7c0.6-0.7,1.1-1.6,1.5-2.4
	c1.3-2.5,2.4-5.1,3.3-7.8c0.6-1.8,1.2-4.8,0.7-6.9c-0.4-1.7-3.4,2.2-4.3,2.6c-0.8,0.4-1.6,0.7-2.5,0.9c-2,0.4-4.1,0.5-6.1,0.4
	c-6-0.6-12.1-3.6-15.2-8c-1.6-2.3-2.1-3.5-4.8-3.8c-14.6-1.6-29.3-2.6-44-1.9c-10.9,0.5-22.6,4.8-22.2,17.7
	c0.2,4.9,2.2,9.5,5.1,13.4c5,6.8,12,11.1,18.8,15.8c2.3,1.6,4.7,3.1,7.1,4.6c6.6,4.2,13.3,8.3,19,13.7c1.1,1.1,2.3,2.3,3.4,3.5
	c5,5.7,8.8,12.7,9.3,20.2c0.4,5-0.9,10.1-3.6,14.3c-5.8,8.5-16.7,9.2-27.1,8.9c-4.1-0.3-8.2-0.7-12.3-1.4
	c-5.9-1.1-11.7-2.7-17.3-4.3c-3.6-1.1-7.2-2.4-10.7-3.8c-2.1-0.9-4.3-1.9-6.4-2.8c-1.5-0.7-3.1-1.5-4.6-2.3
	c-15.8-8.3-32-16.9-49.6-20.3c-17.9-3.4-36.6-1.2-52.9,6.9c-1.6,0.8-3.2,1.6-4.8,2.5c0.2,1.7,2.7,1.6,4.3,1
	c17.5-6.2,37.2-1.4,53.7,7c0.3,0.2,0.6,0.3,1,0.5c10,5.2,19.4,11.9,28.3,18.7c1.3,1,2.5,1.9,3.7,2.9c3.8,3,7.2,6.6,11.1,9.6
	c3.4,2.7,7,5.2,10.6,7.7c1.2,0.8,2.3,1.6,3.5,2.3c10.9,7.3,23.5,12.2,36.4,14.1c24.9,3.8,51.1-2.2,71.4-17.4
	c6-4.5,11.5-9.8,14.8-16.5C622.6,177.6,623.8,169.5,623,161.5z"/>
<path class="st0" d="M319.8,133.7c0-20.9,15.8-36,37.8-36c21.9,0,37.8,15,37.8,36c0,20.9-15.9,36-37.8,36
	C335.6,169.7,319.8,154.6,319.8,133.7z M357.6,148.8c8.5,0,14.6-6.2,14.6-15.1c0-8.9-6.1-15.1-14.6-15.1s-14.6,6.2-14.6,15.1
	C343.1,142.6,349.2,148.8,357.6,148.8L357.6,148.8z"/>
</svg>
