<?xml version="1.0" encoding="UTF-8"?>
<svg xmlns="http://www.w3.org/2000/svg" viewBox="0 0 1024 1024">
  <defs>
    <style>
      .cls-1 {
        fill: #202638;
      }

      .cls-1, .cls-2, .cls-3, .cls-4, .cls-5, .cls-6, .cls-7, .cls-8, .cls-9, .cls-10, .cls-11, .cls-12, .cls-13, .cls-14, .cls-15, .cls-16 {
        stroke-width: 0px;
      }

      .cls-2 {
        fill: #2d3244;
      }

      .cls-3 {
        fill: none;
      }

      .cls-4 {
        fill: #8bc3c2;
      }

      .cls-5 {
        fill: #e58b23;
      }

      .cls-6 {
        fill: #222b3c;
      }

      .cls-7 {
        fill: #d76460;
      }

      .cls-8 {
        fill: #fbf3e3;
      }

      .cls-9 {
        fill: #202633;
      }

      .cls-10 {
        fill: #202637;
      }

      .cls-11 {
        fill: #f1a355;
      }

      .cls-12 {
        fill: #a88e7d;
      }

      .cls-13 {
        fill: #32937d;
      }

      .cls-14 {
        fill: #1d253f;
      }

      .cls-15 {
        fill: #1b2637;
      }

      .cls-16 {
        fill: #6b3944;
      }
    </style>
  </defs>
  <g id="Layer_1" data-name="Layer 1">
    <rect class="cls-4" x="289.16" y="561.96" width="70.57" height="55.53"/>
    <circle class="cls-5" cx="643.71" cy="374.61" r="20.9"/>
    <ellipse class="cls-5" cx="628.57" cy="358.52" rx="14.38" ry="11.18"/>
    <rect class="cls-13" x="375.04" y="585.01" width="67.76" height="57.69"/>
    <ellipse class="cls-8" cx="461.51" cy="525.43" rx="48.99" ry="36.53"/>
    <path class="cls-7" d="m771.19,288.3c0,2.96-9.18,5.35-20.51,5.35s-12.77,7.93-20.51-5.35c-1.49-2.56,9.18-5.35,20.51-5.35s20.51,2.4,20.51,5.35Z"/>
    <rect class="cls-15" x="436.01" y="633.77" width="11.29" height="24.79"/>
    <rect class="cls-15" x="469.52" y="642.69" width="1.43" height="7.31"/>
    <ellipse class="cls-15" cx="309.92" cy="799.7" rx="20.76" ry="23.52"/>
    <rect class="cls-15" x="305.56" y="728.06" width="10.69" height=".52"/>
    <path class="cls-3" d="m600.22,418.12c0,1.36-26.73,2.46-59.77,2.46"/>
    <path class="cls-3" d="m540.45,420.57c0-6.3,14.24-11.41,31.84-11.41"/>
    <rect class="cls-15" x="30.39" y="707.31" width="312.26" height="193.94"/>
    <path class="cls-11" d="m478.34,373.27c0,114.1-92.5,206.6-206.6,206.6-25.09,0-49.63-2.88-71.88-11.08-78.92-29.06-134.72-106.52-134.72-195.53,0-114.1,92.5-206.6,206.6-206.6s206.6,92.5,206.6,206.6Z"/>
    <g>
      <path class="cls-7" d="m204.04,567.78c-24.77,21.32-59.84,127.03-93.81,128.48-1.99.09-2.54,2.19-34.83-2.06-.51-.07-16.55-8.27-21.02-9.27-5.95-1.33-15.31,2.44-21.39,1.9-6.36-.57-12.07-.39-18.53.03-2.22.14-15.29,22.69-15.22-2.11v-207.62c2.44-3.38,19.17-5.86,22.94-6.51,27.92-4.81,55.12-2.03,81.71,7.65,4.53,1.65,8.99,3.38,13.19,5.72,22.74,12.51,42.73,28.52,60.57,47.34,6.79,7.16,12.55,15.08,18.15,23.13,2.92,4.2,5.64,17.24,10.7,19.28.88,2.61-1.6-6.73-2.47-5.94Z"/>
      <ellipse class="cls-8" cx="412.92" cy="569.86" rx="110.14" ry="108"/>
      <path class="cls-13" d="m547.89,533.36c.03.12,1.66,11.29,1.69,11.41.47,1.77-2.76,2.86-1.65,4.25.61.76,2.31,1.66,4.22,2.5.58-.21,1.44-.38,1.84-.78.94-2.83-2.65-16.33-6.1-17.38Z"/>
      <path class="cls-8" d="m563.68,605.67c-13.21-21.14-11.24-43.36-14.68-66.76-1.44-6.91-.36-8.55-2.1-12.99-.62-1.58-2.11-18.31-4.12-18.26-2.36.05-1.94,17.73-1.99,19.37-.28,9.29.43,17.65,1.66,26.85.42,3.16,4.5,6.54,1.52,8.89-5.44,4.28-8.12,10.42-11.75,15.91-1.29,1.96-4.29,4.09-2.72,6.39,1.54,2.26,4.63.54,6.91-.17,2.74-.85,3.25.2,3.84,2.89.4,1.81-.36,3.16-.36,4.99,0,10.98.12,22.53.36,33.5.16,7.45-.03,14.66.53,22.1.1,1.34-.08,8.71,1.6,8.91,2.14.25,4.6-7.51,4.8-8.92.47-3.31,2.16-6.29,2.42-9.65.15-1.87,1.78-3.08,3.04-1.75,2.67,2.81,6.42,3.31,9.48,5.25,10.4,6.6,19.44,14.96,29.37,22.16,13.25,8.68,23.29,20.64,33.31,32.62,1.95,2.29,4.19,4.29,6.27,6.44.75.78,1.52,1.17,2.2,1.14-4.86-6.33-8.07-12.61-12.66-19.49-19-28-37.96-51.44-56.96-79.44Z"/>
      <path class="cls-8" d="m740.57,626.63c2.61-3.03,1.26-5.77,3.04-9.3.38-2.1-3.42,6.04-5.62,11.27.04.02.07.04.12.05,1.42.4,1.76-1.19,2.46-2.02Z"/>
      <path class="cls-11" d="m703.69,753.1c-12.38-3.72-24.39-10.82-36.57-15.16-.82-.29-12.67,4.47-13.6,4.47.29.86,5.27-4.88,5.69-4.09,1.06,2.02-.14,2.63.99,4.61-1.81-1.14,4.79,1.2,2.98.06,0,0-.06-.06-.06-.06-2.93-4.38-7.3-7.42-10.64-11.43-9.94-12.27-19.8-24.59-29.81-36.8.74,1.92,2.44,3.09,4.51,3.03,1.57-.04,3.07-.65,4.56-1.14,15.96-5.29,36.1-.74,51.12,5.69,6.11,2.62,11.74,5.97,17.43,9.33s10.67,7.37,15.55,11.61c3.64,3.16,7.18,6.43,10.78,9.63,9.54,8.45,20.01,16.56,32.41,19.52,2.07.49,4.17.84,6.27,1.19s5.4.78,7.51,1.4c-.45.66-3.84.99-4.67,1.26-1.92.62-3.85,1.21-5.82,1.69-6.4,1.58-13.01,2.15-19.59,2.03-11.03-.19-21.99-2.2-32.63-5.03-2.15-.57-4.28-1.18-6.41-1.82Z"/>
      <path class="cls-8" d="m484.73,557.23c4.69-9.49,13.85-16.81,13.83-28.57,4.55,3.02,9,6.22,13.7,9,3.24,1.92,1.3,3.31.11,5.11-3.92,5.91-7.76,11.88-11.63,17.83-4.77,6.93-9.46,13.92-14.38,20.75-.81,1.13-2.6,1.55-3.94,2.3-.39-1.48-1.28-3.02-1.09-4.43.98-7.35,2.24-14.67,3.4-22Z"/>
      <path class="cls-7" d="m653.91,734.24c3.55,3.81,7.1,7.62,10.64,11.43-3.55-3.81-7.1-7.62-10.64-11.43Z"/>
      <path class="cls-8" d="m311.94,385.86c-.02-4.4,3.76-3.79,6.23-4.43,33.75-8.76,69.18-9.22,102.89,0,35.28,9.66,65.18,30.63,97.48,47,10.22,5.18,20.6,10.07,31.18,14.48,24.35,10.15,50.81,17.86,76.9,13.96,4.21-.63,8.93-1.96,10.83-5.77,2.41-4.82-1.08-10.41-4.57-14.52-12.53-14.78-27.28-26.93-43.06-38.07-12.27-8.66-23.69-18.26-34.24-28.94-11.12-11.25-17.54-24.93-21.16-40.08-1.35-5.65-2.5-11.35-3.37-17.12-2.35-15.62,2.5-29.11,11.42-41.55,6.55-7.03,12.75-14.39,20.37-20.4,10.5-8.29,21.85-10.72,34.49-5.99,3.3,1.23,6.3,3.01,8.1,6.28.26.48.3,1.52,1.06,1.18.38-.17-.06-1.22-.27-1.84-2.39-7.35-7.65-12.36-13.81-16.5-6.44-4.34-12.56-9.15-19.25-13.12-1.99-1.18-3.49-2.72-2.71-5.27.77-2.53,2.88-2.76,5.18-2.94,6.48-.51,12.62.93,18.43,3.49,8.06,3.56,16.24,6.8,24.4,10.09,3.74,1.51,7.02,3.76,10.04,6.41,1.4,2.28,3.91,2.96,6.02,4.24,3.57,2.17,4.43,5.01,2.68,8.45-1.74,3.42-4.39,4.33-7.88,2.72-.45-.21-.82-.56-1.22-.86.27.31.56.62.91.81,8.38,4.66,13.92,12.73,21.78,18.04,5.57,3.76,11.58,6.5,17.74,8.97,6.81,2.74,13.32,2.53,19.01-2.83.72-.68,1.51-1.32,2.58-1.42,7.86.46,14.73,3.78,21.35,7.62,8.04,4.66,16.1,9.32,22.9,15.79,1.51,1.43,3.38,2.58,5.41,1.81,7.4-2.8,15.14-4.38,22.9-4.36,2.23,0,3.92-1.43,4.01-3.74.2-5.13,1.76-10.14,1.21-15.32-.32-3-.89-5.92-2.46-8.55-.88-1.48-1.78-3.01-.45-4.57,1.39-1.61,3.04-.68,4.55-.03.9.39,2.03-.05,2.79.8,12.36,6.69,13.33,9.21,14.85,13.15,1.33,3.43,1.06,7.18.78,10.83-1.47,9.04-4.13,16.53-14.86,19.12-2.66.64-3.76,7.73-5.58,11.85-1.8,4.89-3.49,9.83-5.82,14.51-1.26,2.52-2.91,4.51-6.19,3.38-2.87-.99-3.94-2.82-3.72-6.04.37-5.32-.69-5.99-5.42-4.35-3.47,1.82-7.35,2.06-11.07,2.87-2.94.64-5.65-.83-8.59-2.03-4.59-1.87-6.32-3.4-10.07-5.13-4.86-2.24-8.34-5.21-11.26-8.99-2.42-3.12-5.05-6.23-6.43-10.06-1-2.77-3.42-3.48-5.84-4.13-17.82-4.79-35.52-10.17-53.58-13.86-10.66-2.18-21.82-2.15-32.53-4.63-4.11-.95-8.23-1.31-12.36-.97-11.06.9-21.23,3.87-28.17,13.43-5.18,7.14-4.8,15.44-4.35,23.59.5,9.04,3.26,17.46,8.36,25.05.94,1.4,1.82,2.78,3.3,3.66,12.9,16.97,29.29,30.4,45.49,43.91,12.94,10.79,22.65,23.77,30,38.71,1.18,2.41,2.36,4.78,4.21,6.74,1.68,1.78,2.66,4.01,2.86,6.27.5,5.76,2.08,11.51,1.91,17.17-.27,9.29-2.32,18.43-7.93,26.29-8.65,12.11-20.22,17.96-35.32,17.7-11.95-.2-23.31-2.75-34.59-6.18-23.34-7.08-45.74-16.4-66.45-29.35-16.33-10.21-31.42-22.22-46.91-33.63-6.55-4.82-12.68-10.42-19.81-14.19-26.35-13.95-53.25-26.44-83.73-28.68-15.19-1.12-30.24-1.23-45.25,1.48-2.38.43-4.63.91-6.34-1.4Z"/>
      <path class="cls-10" d="m488.86,255.67c12.88,4.19,25.84,6.61,39.1,1.72.95-.35,1.69-1.25,2.53-1.9-.66-.69-1.19-1.74-1.99-2.03-39.92-14.32-59.05-47.93-76.9-82.74-2.42-4.72-4.92-9.4-7.25-14.17-1.29-2.64-2.32-5.4-3.47-8.11,2.84,2.21,5.76,4.32,8.48,6.67,2.51,2.17,4.79,4.6,7.17,6.91.72-.21,2.25,2,2.88,2.4,1.7,1.93,2.06,2.72,4.04,4.38,9.6,10.49,18.43,20.68,29.7,29.49,2.86,2.24,8.61,2.03,9.48,6.54,17.91,12.88,38.49,14.38,59.51,13.88.87-.02,2.53-1.41,2.43-1.77-.41-1.49-1.12-3.05-2.16-4.18-13.5-14.76-31.57-23.68-46.61-36.46-1.4-1.19-2.3-2.96-3.44-4.46,1.69.56,3.41,1.04,5.07,1.69,13.41,5.22,27.75,5.02,41.7,7.03,11.56,1.66,22.59,4.43,31.75,11.94,11.29,9.26,24.05,15.08,38.32,17.72,1,.19,2.1-.19,3.16-.31-.29-1.24-.35-2.6-.92-3.7-6.8-13.26-13.84-26.4-20.39-39.79-1.35-2.76-5.35-6.79-2.05-9.05,3.52-2.41,8.72-1.23,12.64,1.66,13.06,9.62,19.29,24.33,27.55,37.46,4.95,7.87,11.57,13.56,19.37,18.21,7.93,2.09,14.94,6.22,21.79,10.43,9.04,5.56,12.46,15.17,15.64,24.64,1.04,3.11,3.57,6.28,1.02,9.85-1.22,1.2-2.82,1.22-4.35,1.42-8.24-1.5-14.75-6.24-20.99-11.43-5.1-4.24-10.96-6.78-17.46-7.95-.98-.18-2.14-.5-2.66.58-.5,1.05.37,1.93,1.13,2.52,2.77,2.13,5.61,4.16,9.07,5.07.44.2.84.46,1.22.76,5.81,4.88,12.4,8.73,18.13,13.73,1.49,1.94,1.41,3.87-.05,5.77-.33.4-.71.75-1.14,1.04-8.38,9.16-17.72,6.22-27.31,2.37-11.43-4.58-19.79-13.12-28.42-21.34-1.3-1.23-1.3-2.47-.14-3.92,5.05-6.35,4.51-8.82-2.57-12.27-1.05-.51-1.98-1.22-2.94-1.86-2.66-3.06-5.77-5.48-9.59-6.93-11.32-4.29-22.16-9.8-33.73-13.49-3.29-1.05-6.55-.81-9.85-.92-2.07-.06-3.6.84-4.35,2.7-.92,2.29.84,3.27,2.42,4.27,6.89,4.33,12.98,9.76,19.76,14.25,2.22,1.47,4.07,3.44,5.63,5.61.93,1.3,1.16,2.8.15,4.19-.79,1.09-2.07,1.19-3.19.81-16.49-5.56-28.49,2.34-39.56,13.1-.95.93-1.83,1.93-2.92,2.7-1.88.96-3.35,2.38-4.54,4.1-.23.38-.49.75-.78,1.1-.96,1.25-1.96,2.47-2.85,3.78-.49.52-.99,1.02-1.54,1.47-5.18,5.98-8.41,13.05-10.31,20.56-1.26,4.99-4.34,6.98-8.7,8.13-2.27,1.11-4.7.57-7.06.71-2.42,0-4.84,0-7.26,0-4.91.02-9-2.27-13.08-4.61-1.24-1.44-2.48-2.9-4.31-3.65-1.2-.73-2.24-1.63-2.97-2.85-.27-5.42-5.86-5.53-8.54-8.55-2.29-1.97-4.77-3.77-6.14-6.6-1.03-3.4-4.39-4.88-6.24-7.58-.76-1.11-2.36-2.42-.95-3.89,1.2-1.25,2.77-.59,4.13.2,2.63,1.52,4.9,3.42,6.64,5.94.43.63,1.03,1.65,1.89.98.77-.59.28-1.79-.32-2.2-4.39-3.07-3.19-8.03-4.17-12.21-.79-3.38.95-4.62,4.17-3.34,2.89,1.15,5.22,3.52,8.48,3.83Z"/>
      <path class="cls-9" d="m754.57,142.65c-4.44,9.13-13.41,14.06-19.84,21.36-12.93,14.68-13.12,30.94.12,45.48,6.52,7.16,11.89,14.65,12.36,24.81.77,16.66-8.52,25.17-23.98,19.53-6.96-2.54-3.8-12.62-1.01-16.55,6.09-8.58,4.28-15.65.99-24.16-10.76-27.83-6.67-41.38,16.68-59.91,4.26-3.38,7.82-7.63,11.7-11.48.68-.98,1.47-1.92,2.78-1.15.82.48.82,1.31.19,2.06Z"/>
      <path class="cls-7" d="m573.48,341.63c-4.9-5.21-9.11-13.16-11.41-21.03-3.37-11.59-3.01-22.67,1.66-30.38,10.46-17.27,27.52-17.51,45.1-15.42,28.66,3.4,56.56,10.24,84.28,18.04,5.11,1.44,5.8,3.96,8.1,8.93,6.65,14.38,28.45,25.25,43.59,20.79,1.81-.53,8.94-6.98,9.15-3.65.26,4.1-1.83,9.7-3.59,13.02-2.59,4.9-5.6,9.58-8.89,14.03-1.11,1.5-2.26,2.99-3.71,4.15-.63.51-1.36-.05-2.17.01-.56.05-.96.5-1.66.59-3.47.47-7.51,3.33-10.57,4.69-2.63,1.17-2.64.17-4.22-2.85-1.57-3.02-.42-4.97,2.55-5.58,4.41,4.11,2.25,4.48,8.05,1.07,7.38-4.34,12.46-10.85,16.96-17.9.71-1.11,1.55-2.38.52-3.66-.86-1.08-2.15-.58-3.27-.38-1.31.23-2.55.76-3.84,1.07-5.78,1.42-11.19,1.44-15.49-3.64-2.26-2.66-5.36-4.16-8.72-4.34-4.25-.22-7.34-2.22-9.65-5.38-2.91-3.98-6.67-7.42-8.07-12.42-.72-2.57-2.92-3.55-5.22-4.12-9.19-2.28-18.31-4.84-27.6-6.73-3.43-2.57-7.45-3.62-11.54-4.28-18.2-2.93-36.41-5.9-54.73-7.8-7.15-.74-14.67.74-21.35,4.05-10.26,5.07-14.41,15.02-12.49,28.43.58,4.02,2,7.59,4.25,10.9-7.37,7.99,1.49,12.21,4.16,17.86.58.7.64,1.35-.18,1.91Z"/>
      <path class="cls-1" d="m488.53,255.57l-10.39-2.9c3.01,6.52,5.11,13.46,6.24,20.55.11.7.14,1.57-.45,1.96-.65.42,21.22,10.84,20.61,10.37-4.4-3.41-7.96,3.53-11.94-.36,1.79,2.53-8.92-6.49-7.37-3.81.19.33-8.72-7.48-10.58-8.69-.14-.09,5.9,5.85,5.74,5.84-3.95-.28-14.85-15.32-16.72-18.31-6.29-10.08-12.01-20.5-17.71-30.92-.78-1.42-1.48-3.41-.25-4.47,13.48,11.34,27.11,22.78,42.83,30.73Z"/>
      <path class="cls-7" d="m838.32,716.79c33.46-28.07,69.88-47.87,115.68-40.18,26.73,4.48,50.05,16.39,70.56,33.97v128.97c-84.37,30.44-168.6,37.28-252.27-2.22-44.08-20.81-79.35-52.25-107.71-91.67.26-.41-1.9.35-2.03-.06-.53-1.82-9.93-8.54-7.54-10.18,2.11-1.45,14.55,3.25,16.61,4.01,22.45,8.32,45.56,18.03,69.78,19.14,25.23,1.16,49.74-7.76,70.19-22.1,9.47-5.87,17.91-13.01,26.74-19.68Z"/>
      <path class="cls-8" d="m669.48,214.55c-13.36-7.07-19.36-17.76-25.57-29.77-.5-.97-2.34-3.8-2.65-4.87.55.24,3.09,2.01,3.3,2.42,13.39,26.8,42.11,33.97,63.92,49.97,3.06,2.24,6.19,4.39,9.29,6.58,1.38,5.58-.86,11.44,1.54,17.02.76,1.76-.96,3.01-2.84,3.17-2.29.2-4.6.41-6.84-.31-3.87-2.55-4.13-7.07-5.31-10.85-3.69-11.81-10.09-20.89-21.81-26.07-4.4-1.94-7.49-3.61-13.02-7.3Z"/>
      <path class="cls-7" d="m701.16,568.26c-9.47,2.7-14.73-2.14-22.18-.68-3.49.69-8.32-1.85-10.04,3.1-1.71,4.91,2.77,7.31,5.47,10.34,2.96,3.33,6.73,4.57,11.05,5.04,2.54.28,5.28-3.72,7.17.23.17.35-4.26,3.89-6.86,4.4-12.36,2.43-16.28,11.91-20.84,21.89-.99-.57-.61-1.36-.01-2.12,3.52-8.59,11.75-14.81,17.01-19.63,1.99-.82,1.2-2.71-.98-3.39-11.85-3.71-20.63-12.33-30.63-18.98,27.14-11.03,49.77-27.06,61.28-55.39,3.13,2.22,1.83,4.91.7,7.49-5.64,12.85-14.5,23.19-25.25,31.98-1.91,1.56-3.66,3.35-5.81,4.65-.81.49-1.8,1.21-1.4,2.36.39,1.13,1.56,1.03,2.54,1.06,4.08.09,8.26-1.04,12.21.92.56.53.86,1.18.81,1.96,1.93,1.59,3.87,3.18,5.8,4.77Z"/>
      <path class="cls-5" d="m695.36,563.48c-.33-.3-.66-.6-1-.9-.41-4.64,3.59-5.3,6.39-6.44,8.87-3.61,16.86-8.6,24.39-14.4,16.49-12.71,25.75-29.1,26.3-50.27.39-15.01.22-29.87-4.6-44.3-.79-2.37-.35-4.98-1.15-7.38-1.14-2.87-2.82-5.47-4.17-8.23-.94-1.92-1.84-3.87-.25-5.91,2.67-1.17,3.39.9,4.4,2.61,5.17,8.74,8.81,18.2,13.05,27.38,1.47.16,2.94.32,4.4.49-1.72,11.76-1.17,23.38,2.13,34.84-14.39-.91-9.85,11.51-12.13,18.27-9.64,28.62-32.45,42.65-57.77,54.25Z"/>
      <path class="cls-8" d="m502.64,204.81c-16.41-8.58-28.42-22.06-39.99-36.02-1.45-2.26-3.36-4.09-5.32-5.88-.26-.3-.53-.59-.79-.89-1.35-2.63-2.7-5.26-4.05-7.9,2.7,2.61,6.74,9.07,9.39,11.73,18.81,18.88,32.53,37.52,59.92,45.02,9.53,4.11,23.22,5.25,34.22,4.28,1.53-.14,3.42-2.23,4.9-1.58.55.24.72,1.37,1.06,2.09-1.52.36-3.03.95-4.57,1.05-19.38,1.27-37.5-3.37-54.76-11.89Z"/>
      <path class="cls-8" d="m708.66,256.71c17.62,1.89,4.22-12.83,9.09-17.83,11.48,22.85,15.69,15.22,28.77,14.04,8.88-.8,17.88,2.34,25.95,6.86-5.25-1.21-7.31-1.4-4.26,5.4,6.2,13.84-2.1,23.94-14.88,29.37-20.22,8.6-28.51-9.34-42.17-14.94-7.03-2.88-13.44-7.26-21.37-7.55-.26-.18-.39-.39-.39-.64,0-.27.03-.4.1-.4.26-.5.52-1,.77-1.5,2.05-1.87,4.19-1.22,6.53-.49,12.42,3.9,23.42,10.44,33.34,18.63,5.23,4.32,10.08,6.57,16.69,3.42,3.45-1.65,7.43-1.64,11.27-1.82,3.87-.17,6.28-2.02,6.2-6.23-.07-3.51,1.06-6.9.99-10.43-.18-8.25-4.05-12.41-12.24-12.48-6.98-.06-13.95.72-20.89,1.37-6.5.61-12.96.47-19.45.41-1.85-.02-3.7-.23-4.75-2.15-.35-1.15-.27-2.21.7-3.05Z"/>
      <path class="cls-8" d="m733.68,350.8c6.87-5.88,13.38-12.18,17.33-20.41,1.32-2.75.84,0,6.46.51,4.89.45,4.37-4.51,5.9-7.3,1.58-2.88,2.88-5.91,4.31-8.88-4,17.12-12.56,31.49-26.99,41.62-5.07,3.56-6.18-1.71-7-5.55Z"/>
      <path class="cls-8" d="m581.27,182.53c-3.16.15-3.97.33-4.73.2-18.19-3.02-36.38-6.03-54.55-9.2-1.6-.28-3.02-1.63-4.52-2.49,1.6-.24,3.27-.87,4.8-.65,16.56,2.46,33.54,2.54,49.52,8.39,2.44.89,4.84,1.9,9.48,3.73Z"/>
      <path class="cls-8" d="m616.7,149.87c14.29.01,14.44,13.63,21,20.9.17.19,7.72,12.64,7.63,13.06-.56-.29-4.07-1.71-8.34-10.32-7.46-8.09-15.05-20.29-28.3-18.98-.33.03-1.25-1.45-1.09-1.68,2.35-3.46,6.2-2.31,9.11-2.97Z"/>
      <path class="cls-9" d="m754.57,142.65c-.99-.3-1.98-.61-2.97-.91,4.79-11.16,3.87-21.59-3.92-31.2-.56-.69-.37-1.97-.54-2.98.74.15,2.87,2.66,3.47,3.03,3.68,5.35,5.91,7.79,6.89,16.4.6,5.28-.83,10.46-2.94,15.66Z"/>
      <path class="cls-8" d="m708.66,256.71c.14.85.27,1.7.41,2.54-1.12,1.51-1.69.42-2.29-.49-2.73-23.38-17.04-34.58-36.18-43.74.44-.09-.56-1.1-.12-1.19,19.97,7.65,33.3,21.38,38.18,42.87Z"/>
      <path class="cls-10" d="m461.62,256.88c.55-.47,1.09-.94,1.64-1.41.37.48.74.97,1.11,1.45-.62.29-1.23.59-1.85.88-.3-.31-.6-.61-.91-.92Z"/>
      <path class="cls-16" d="m705.44,572.05c-.73-.73-1.46-1.46-2.19-2.19.73.73,1.46,1.46,2.19,2.19Z"/>
      <path class="cls-2" d="m592.65,645.67c-1.58,1.49-2.55-.49-3.74-1.23-11.47-8.13-18.55-18.95-27.61-29.1-1.76-1.97-4.54-5.19-5.88-7.46-2.91-4.93-5.44-7.78-7.77-13.15-.91-2.1-1.29-4.4-1.68-6.66-.56-3.23-1.06-5.81,2.01-8.3,1.43-1.16,2.55-1.75,3.99-1.77,1.72-.02,1.91,1.86,2.49,2.79,3.77,5.86,5.89,11.86,9.73,17.68,2.46,3.74,4.98,7.44,7.37,11.23,1.72,2.65,3.43,5.3,5.15,7.96"/>
      <path class="cls-2" d="m595.68,650.04c-.76-.14-3.14-2.18-3.64-2.45-10.38-8.82-19.2-18.19-28.25-27.89-3.19-3.41-6.23-7.28-8.47-10.87-2.71-4.35-4.95-8.67-7.22-14.35-1.14-2.87-1.53-5-1.96-8.11-.6-4.33,1.19-5.79,3.74-7.31,4.28,0,3.45,1.72,5.74,3.76,5.49,8.85,10.65,17.9,15.93,26.88-5.57-8.54-11.05-17.14-16.77-25.58-1.26-1.86-3.76-4.72-4.97-4.4-3.22.86-4.13,3.84-3.57,7.45,13.13,23.03,22.14,38.05,38.56,53.31,1.98,1.84,4.61,3,6.93,4.48-1.09-2.64-2.57-5.2-3.98-7.65-3.77-6.55-7.13-13.19-11.05-19.65"/>
      <path class="cls-14" d="m743.67,594.76c1.63,4.32,3.27,8.64,4.9,12.96,0,0,0-.04,0-.04-.67,3-4.29,3.67-2.21,8.58-.36.72-.31,2.67-.59,3.8-3.49,4.73-6.27,9-9.78,13.71-.59-4.52,1.86-13.78.52-18.06-1.48-4.74-4.3-5.48-6.48-10,7.34,4.74,7.72,10.45,8.44,18.1.1,1.05-1.45,4.92-1.16,5.96.84-.67,1.77-1.25,2.5-2.02,9.54-10.02,7.49-21.41,3.88-32.99Z"/>
      <path class="cls-5" d="m739.53,421.66c.71,1.33,1.41,2.67,2.12,4,1.91,4.34,3.83,8.67,5.74,13.01-2.61,5.74-2.43,12.03-3.44,18.07-1.3,7.76-3.17,15.33-6.54,22.45-3.52,7.44-9.72,12.65-15.86,17.72-3.11,2.57-6.06.76-6.38-3.34-.08-.99-.04-2,.04-3-3.67-39.78-27.4-67.98-54.43-94.26-9.98-9.7-14.77-22.16-19.02-34.95.43-4,3.1-4.6,6.4-4.17,4.19.55,7.87,2.55,11.45,4.53,7.9,4.38,16.54,7.5,23.43,13.61,5.33,5.44,12.71,7.59,18.97,11.57,14.7,9.35,27.73,20.24,37.53,34.75Z"/>
      <path class="cls-7" d="m715.2,490.57c.79,1.85,1.57,3.71,2.36,5.56,1.79-1.08,3.71-2.01,5.35-3.28,14.59-11.28,17.74-27.63,19.87-44.54.44-3.47-1.18-8.5,4.61-9.64,20.29,38.63,14.16,96.29-45.54,121.75-1.96.88-1.92,1.02-6.49,3.06-6.62-.68-20.53.58-26.95-3.13,0,0,12.93-9.6,19.21-13.82,10.75-10.02,17.82-18.54,23.95-33.47,1.21-7.5,2.42-15,3.63-22.5Z"/>
      <path class="cls-7" d="m569.5,321.85c-11.82-6.18-7.25-17.14-5.62-25.43,3.29-16.78,17.96-20.76,32.01-20.03,23.96,1.26,47.97,3.98,70.86,12.24-1.67,3.35-4.83,2.1-7.44,2.27-2.41.15-2.96.52-1.4,2.77,1.77,2.54,3,5.37,5.86,7.09,1.56.94,2.37,2.78,1.77,4.76-.48,1.58-1.57,2.01-3.07,1.18-9.09-5.56-18.94-3.8-28.62-2.79-5.25.55-10.26,2.11-15.44,3.16-1.79.36-3.53.8-5.39.8-2.73.31-5.69-.35-8.17,1.58-4.86.73-9.05,2.69-12.1,6.71-7.55-7.85-11.83,1.09-17.4,3.39-1.94.8-3.9,1.54-5.85,2.31Z"/>
      <path class="cls-14" d="m701.16,568.26c.7.54,1.4,1.07,2.1,1.61.76.69,1.49,1.42,2.18,2.18,3.93,4.62,5.95,10.37,7.26,16.21.25,1.12,2.1,7.59.98,7.9-.84.23-3.41-1.63-4.15-2.07-1.43-.84-2.81-1.78-4.12-2.8-.17-.13-.34-.27-.42-.47-.09-.24-.02-.5.08-.74.57-1.31,2.02-1.98,3.38-2.39,3.96-1.19,8.17-1.13,12.3-1.11,4.55.02,9.15-.03,13.58,1s8.75,3.28,11.35,7.01c2.32,3.34,3.05,7.54,3.08,11.6.04,4.73-.82,9.52-2.95,13.74-1.3,2.57-3.04,4.88-4.8,7.16-.95,1.23-1.9,2.46-2.86,3.68-.13.16-.28.34-.48.37-.4.06-.62-.44-.71-.83-.89-4.34-.49-8.8-1.56-13.12-.79-3.21-1.97-5.8-3.84-8.52-1.18-1.72-1.59-2.34-2.63-4.04-.97-1.59-3.77-3.42-4.38-5.13-.8-2.24-1.56-1.73-1.89.39-.16,1.03-.25,2.07-.33,3.11-.11,1.53-.1,3.07-.27,4.59-.45,4.11-1.09,8.21-2.21,12.19-1.77,6.28-4.86,12.35-9.75,16.67-1.96,1.73-4.17,3.15-6.37,4.56-1.21.78-4.82,3.05-3.96-.14.43-1.59,1.96-2.9,2.98-4.13,4.33-5.28,6.46-9.48,4.84-16.76-3.26-14.64-19.1-10.13-29.23-7.42-1.79.48-6.24,3.59-7.84,4.53-2.02,1.18-3.74,2.81-5.21,4.62-1.3,1.6-2.12,3.75-3.48,5.24-.43.47-1.08.79-1.69.64-1.44-.36-.82-2.46-.49-3.4.53-1.48,1.06-2.96,1.59-4.45,1.68-4.69,3.36-9.39,5.57-13.84,3.36-6.77,8.32-12.85,15.69-15.31,1.09-.36,2.45-.85,2.24-2.26-.15-1-1.36-1.41-2.35-1.58-5.2-.86-8.83-4.3-12.66-7.48-3.09-2.56-3.91-5.81-2.79-9.42,1.11-3.58,4.2-4.43,7.59-4.43,5.49,0,10.94-.51,16.36-1.26,5.01-.69,3.71-1.31,5.24-.06,1.03.85,3.93,3.23,5.01,4.12Z"/>
      <path class="cls-1" d="m525.03,297.83c10.22-4.83,9.07-21.59,18.74-27.57-13.7,25.66-12.56,58.62,2.9,83.26,14.83,23.65,40.22,38.1,61.72,55.89,10.4,8.6,20.08,18.19,27.85,29.23,3.1,4.4,5.79,10.74,2.19,14.74-1.61,1.79-4.07,2.51-6.42,3.04-14.81,3.33-30.54,2.05-44.75-3.22-15.54-5.76-27.73-17.12-40.69-27.07-.55-.42-1.12-.87-1.46-1.47-.86-1.53.1-3.57,1.6-4.49s3.33-1.02,5.09-1.1c15.94-.68,31.88-1.36,47.82-2.05,1.07-.05,2.38-.25,2.75-1.26.38-1.03-.53-2.05-1.37-2.77-5.46-4.66-11.3-8.87-17.44-12.58-1.65-1-3.42-1.99-5.35-2.06-2.59-.09-4.9,1.48-7.16,2.74-11.64,6.52-26.22,6.03-38.79,1.54-12.57-4.49-23.5-12.57-33.92-20.89s-20.67-17.08-32.49-23.27c23.66,8.15,48.89,11.75,73.88,10.55.79-.04,1.67-.13,2.17-.74.48-.59.41-1.44.3-2.19-.89-6.4-3.98-14.06-10.43-14.46-4.93-.3-9.09,4.06-14.02,4.37-4.22.26-7.98-2.47-11.29-5.1-13.04-10.34-25.66-21.22-37.8-32.61-.89-.83-1.84-1.81-1.88-3.02s1.52-2.38,2.42-1.55c-1.51-.68-1.28-3.13.04-4.14s3.13-1,4.79-.94c11.19.39,22.39.79,33.58,1.18,4.19.15,8.57.25,12.32-1.62s6.51-6.42,4.93-10.3c.07-.03.14-.06.2-.09Z"/>
      <path class="cls-10" d="m525.62,297.74c.08,0,.17,0,.25-.01.79-.03,1.72.05,2.14.72.36.58.17,1.33-.04,1.98-1.32,4.11-3.1,8.62-7.03,10.42-2.24,1.03-4.81.97-7.28.9-14.61-.45-29.23-.9-43.84-1.36,2.4,3.54,4.8,7.08,7.2,10.62-2.86-2.28-5.96-4.26-9.23-5.9,13.27,14.66,28.27,27.75,44.59,38.92-.9-.62-2.87-.59-3.98-1.15-1.29-.66-2.43-1.64-3.6-2.49-2.7-1.97-5.37-3.99-8-6.05-5.4-4.24-10.64-8.68-15.72-13.3-10.15-9.25-19.61-19.25-28.28-29.9-.27-.33-.55-.68-.64-1.1-.2-.98.76-1.88,1.76-1.99s1.95.35,2.83.82c3.07,1.65,5.95,3.66,9.12,5.09,9.51,4.3,20.45,3.07,30.88,3.37,7.34.21,14.71,1.21,22.01.39,2.21-.25,4.84-1.07,5.3-3.24.44-2.07-1.59-3.97-3.68-4.36s-4.21.25-6.31.54c-8.2,1.13-16.32-3.02-22.5-8.53s-10.97-12.39-16.7-18.36c6.52,4.67,11.83,10.81,17.96,15.98,6.14,5.16,13.6,9.47,21.61,9.3,3.75-.08,7.42-1.13,11.16-1.32Z"/>
      <path class="cls-12" d="m420.94,441.94c8.11,5.65,15.02,12.52,20.66,20.65-6.89-6.88-13.77-13.77-20.66-20.65Z"/>
      <path class="cls-12" d="m395.9,422.78c2.84,1.94,5.68,3.87,8.51,5.8-2.84-1.94-5.68-3.87-8.51-5.8Z"/>
      <path class="cls-12" d="m412.92,434.82c2.16,1.91,4.33,3.83,6.49,5.74-2.16-1.91-4.32-3.83-6.49-5.74Z"/>
      <path class="cls-12" d="m408.93,431.9c1.2.87,2.4,1.75,3.59,2.62-1.2-.87-2.4-1.75-3.59-2.62Z"/>
      <path class="cls-7" d="m543.74,271.6c-.04-.63-.08-1.25-.11-1.88.35-.37.7-.73,1.06-1.1,1-1.31,2.05-2.58,3.07-3.87l-.03.04c1.86-1.84,2.79-3.49,4.59-4.98,12.26-11.6,24.98-21.96,43.7-16.39.58.17,1.4-.47,2.11-.73-.55-.95-.88-2.17-1.67-2.83-7.79-6.49-15.73-12.81-23.45-19.39-1.44-1.23-3.34-3.97-2.86-4.96.82-1.69,3.5-3.75,5.16-3.55,19.78,2.31,37.53,9.88,53.58,21.57-.31.59-.72.67-1.23.24-15.55-9.79-32.02-17.36-50.37-20.06-1.64-.24-3.52,1.1-5.29,1.71,1.11,1.44,1.99,3.17,3.37,4.27,13.03,10.35,31.61,15.21,34.74,35.27.21,1.32-.33,2.75-.52,4.13-1.11-.75-2.53-1.28-3.27-2.3-11.46-15.67-27.72-17.57-42.66-4.5-6.95,6.08-13.28,12.85-19.9,19.31Z"/>
      <path class="cls-13" d="m627.63,233.78c.41-.08.82-.16,1.23-.24,6.79,3.6,14.66,6.8,5.95,16.15-.27.29-.13,1.4.21,1.76,12.02,12.45,24.57,24.31,43.25,24.64,3.71.07,7.49-3.29,11.24-5.07.1.35.19.7.29,1.05-13.99,13.07-26.58,3.27-37.81-3.86-10.58-6.72-19.21-16.53-28.61-25.08-.68-.62-.65-2.03-.94-3.07.59-.02,1.26-.23,1.75-.02,3.77,1.61,6.24,10.77,11.03,4.34,5.1-6.85-5.85-6.31-7.59-10.6Z"/>
      <path class="cls-8" d="m701.56,258.92c-4.25,1.65-10.02.26-12.19,6.08-5.89-4.42-11.39-8.31-17.28-12.73,0,0-2.32-1.48-2.44-1.54-5.2-3.14-11.17-4.75-11.57-9.93,2.49-5.2,11.6,0,17,2.69,9.12,4.55,17.68,10.22,26.47,15.43Z"/>
      <path class="cls-7" d="m706.97,258.81c.67.14,1.34.29,2.01.43.06.01.13.02.19.02,13.42-.55,26.85-.92,40.26-1.72,9.22-.55,17.63,1.61,17.67,11.91,0,13.42,4.1,23.59-11.13,21.51-1.31-.18-8.3.58-10.16,1.07-2.78.73-4.6,2.86-6.89,2.64-12.93-1.21-19.34-15.31-32.35-19.13-5.41-1.59-10.61-3.87-15.89-5.87-.25-.09-.43-.31-.48-.57-.27-1.34-.54-2.69-.81-4.03,0-.04-.01-.09-.02-.13-.08-1.97,1.45-4.85-.55-8.02-2.77-4.39-9.06-8.99-6.5-9.27,2.32-.25,16.96,10.53,19.25,10.04,1.86-.05,3.54,1.17,5.4,1.12Z"/>
      <path class="cls-1" d="m490.65,288.81c-3.01-3.02-6.03-6.03-9.04-9.05,3.26,2.77,11.05,1.02,9.04,9.05Z"/>
      <path class="cls-1" d="m517.9,298.8c-2.8,0-5.59,0-8.39-.01,2.8,0,5.59,0,8.39.01Z"/>
      <path class="cls-1" d="m497.62,293.91c-1.39-1.04-2.78-2.07-4.18-3.11,1.39,1.04,2.78,2.07,4.18,3.11Z"/>
      <path class="cls-1" d="m547.75,264.75c-1.02,1.29-2.05,2.58-3.07,3.88,1.02-1.29,2.05-2.58,3.07-3.88Z"/>
      <path class="cls-7" d="m663.57,306.67c1-6.29-7.35-6.34-7.91-12.01-.26-2.63-2.79-5.03-4.29-7.53,2.15.52,4.28,1.31,6.46,1.49,2.96.25,5.95.02,8.93,0,9.84,2.38,19.68,4.76,29.52,7.15,4.14,1.01,3.55,5.16,5.18,7.85,9.08,14.98,28.21,22.56,46.01,18.97,5.83-1.18,3.4,4.62,2.67,5.94-6.29,11.41-14.29,19.25-25.99,26.47-1.68,1.04-5.99,2.98-7.75,3.03.45-1.99,1.68-7.98,2.57-9.94.44-1.27,1.13-2.61,1.04-4.09-2.24-.21-4.01-1.03-6.29-.65s-4.24,1.23-6.25,2.1c-3.89,1.68-8.05,3.9-12.43,2.99-1.87-.39-3.78-1.56-4.22-3.42-.75-3.11,2.78-5.61,3.39-8.75.19-.98.54-2.1.59-3.1.09-1.61-.93-3.71-2.09-5-1.22-1.35-3.44-1.97-4.88-3.09-4.02-3.15-8.73-4.86-13.66-5.73-6.16-1.09-12.25-3.14-18.67-1.81-1.57.33-3-.22-3.86-1.66-.79-1.31-.54-2.85.45-3.69,3.31-2.84,6.47-6.2,11.5-5.53Z"/>
      <path class="cls-8" d="m613.64,306.74c15.49-2.63,29.37-9.55,45.56-4.21,1.72.57,2.93,2.72,4.37,4.14-3.58,2.75-7.16,5.51-10.74,8.26,4.51.42,9.03.86,13.54,1.25,8.67.76,17.13,2.02,24.15,7.94,4.69,3.95,5.74,8.28,2.21,13.47-.48-9.54-22.01-20.8-35.47-18.51-5.1.87-7.61.02-9.12-4.13-.58-1.6.89-3.43,2.44-4.13,1.04-.47,6.8-2.82,4.53-4.66-1.95-1.59-6.04-1.34-8.37-1.42-8.62-.29-17.26.83-25.75,2.23-4.01.66-8.04,1.45-11.79,3.04-.91.38-2.84,1.53-3.76,1.06.79-1.16,3.12-1.89,4.34-2.5s2.56-1.24,3.85-1.83Z"/>
      <g>
        <path class="cls-5" d="m758.73,455.63c-5.7-9.99-11.39-19.98-17.09-29.97-2.14.13-3.27-1.22-4.21-2.85-2.97-9.13-10.52-14.59-16.95-20.91-2.11-2.07-4.43-3.97-6.72-5.86-1.06-.88-2.03-1.79-1.07-3.32.61,0,1.22-.02,1.83-.03,23.63,14.73,36.57,36.97,44.21,62.94Z"/>
        <path class="cls-5" d="m731.52,410.26c-2.84-3.34-5.82-8.21-9.05-11.16-6.48-5.92-9.03-7.16-16.63-12.51-4.37-3.07-10.44-6.92-14.97-9.74-2.44-1.52-4.59-3.05-7.11-4.71-2.72-1.79-6.23-3.9-9-5.61-11.98-7.4-24.38-14.09-36.89-20.55-9.59-4.96-20.52-8.8-27.83-17.08-1.21-1.37-2.33-2.84-3.08-4.51-.02-.05-.05-.11-.07-.16-.9-2.08-1.16-4.39-1.21-6.66-.04-1.79.07-3.65.86-5.26,1.3-2.64,4.78-3.67,6.76-5.47-.31.28-2.59-.48-3.03-.54-2.03-.28-3.93.31-5.92.72-5.27,1.09-10.65,1.78-15.82,3.28-2,.58-1.98.9-5.79,2.1-3,.94-4.64,4.38-2.55,7.11,1.79,2.34,4.75,3.69,7.28,5.05,3.97,2.13,10.12,4.15,12.58,8.2,9.54,15.69,88.68,93.27,99.73,94.82,3.52-2.77-50.77-69.3-46.85-67.17,9.92,5.39,19.84,10.8,29.76,16.21,10.71,5.84,21.25,12.05,31.01,19.39,4.78,3.6,9.37,7.46,13.65,11.65,4.18,4.09,7.57,9.66,11.92,13.36-1.3-3.79-5.14-7.7-7.74-10.76Z"/>
      </g>
      <path class="cls-3" d="m671.62,251.7c-.13-.3-.18-.71-.41-.88-3.98-3.06-7.98-6.09-11.98-9.13.67-.33,1.45-1.07,1.98-.92,8.01,2.22,17.42,2.5,21.2,11.56.77,1.86,6.75,5.49,1.77,6.46-3.57.69-8.28-4.49-12.49-7.04,0,0-.08-.04-.08-.04Z"/>
      <path class="cls-6" d="m763.12,456.12c8.87-2.81,19.09-5.29,28.37-5.49,12.12-.26,38.69,14.41,40.68,24.86,2.28,11.93-.44,23.17-6.36,33.64-.63,1.12-2.13,1.75-3.22,2.61-.14-1.26-.41-2.52-.42-3.78-.08-10.75-2.87-20.72-8.57-29.83-.7-1.12-2.05-1.84-3.09-2.75-.68,1.35-1.82,2.65-1.98,4.07-1.11,9.87-1.95,19.86-11.86,25.52-1.48.84-3.7.39-5.57.54.31-1.63.28-3.44,1-4.87,2.58-5.11,6.27-9.83,7.89-15.2,1.32-4.39-3.07-7.14-6.76-5.88-9.52,3.24-18.68,7.53-27.98,11.41-2.68.27-3.3-1.57-3.75-3.62-1.87-8.45-.76-17.12-1.87-25.63-.34-2.6,1.56-4.19,3.48-5.59Z"/>
      <path class="cls-13" d="m514.18,551.81c-.47,1.63-.33,1.82,1.89-3.11-.87.84-1.54,1.89-1.89,3.11Z"/>
      <path class="cls-13" d="m564.24,553.93c7.11,4.08,14.54,7.5,22.36,10.14,3.8.65-24.44-11.34-22.36-10.14Z"/>
      <path class="cls-13" d="m705.74,448.92c-10.64-20.07-26.52-36.78-42.2-53.21-14.32-15.02-28.65-30.03-42.97-45.05-7.77-8.15-19.12-17.24-24.19-27.37-2.2-4.4-4.1-11.65-10.19-11.54-1.99.04-3.91.74-5.77,1.44-5.32,1.99-10.64,3.98-15.97,5.97-1.41.53-2.34,1.09-2.04,2.55,3.58,17.63,21.01,32.62,33.84,43.81,14.94,13.03,31.23,25.17,42.36,41.87,4.85,7.27,8.69,15.4,15.11,21.33,1.72,1.59,3.68,3.11,4.45,5.31.8,2.28.16,4.78-.26,7.17-1.1,6.26-.55,12.68-1.24,19-1.55,14.23-10.24,28.04-23.44,33.58-8.53,3.58-18.14,3.56-27.33,2.51-38.96-4.45-79.11-24.32-110.01-47.92-10.03-7.66-20.58-14.65-30.6-22.34-5.28-4.06-10.67-7.94-16.19-11.66-1.75-1.18-41.59-24.28-5.67-.4,2.02,1.34-.17,3.69,1.23,5.19.47.49.98.94,1.52,1.35,7.45,5.65,14.61,11.65,21.83,17.59,7.32,6.03,12.69,13.09,12.28,23.14-.32,8.01-2.1,16,.04,24.04.42,1.56.23,3.32-.05,4.97-.13.78.05,1.94-.71,2.22-.75.28-1.48-.62-2.03-1.18-5.15-5.2-11.28-9.23-16.71-14.09-1.68-1.5.3-8.22-2-5.4-1.94,6.46,5.71,12.26,9.35,16.3,5.15,5.71,10.3,11.43,15.45,17.14,5.06,5.61,10.12,11.23,15.19,16.83,4.15,4.6,8.68,8.56,13.87,12.29,1.32.95,2.82,1.8,3.88,3.03,1.06,1.23,1.41,3.18.71,4.65-.34.72-.99,1.49-.64,2.21.39.78.55,1.98.2,2.77-.28.63-.53,1.19-.76,1.7,1.25-1.21,2.93-1.97,4.75-2,4.96-.1,11.94-.77,12.38-1.53,6.78-11.56-3.14-24.72,4.84-35.56,1.57-2.14,3.59-5.16,5.19.12,1.19,5.41,2.54,10.74,3.68,16.2.83,3.98,1.71,12.33,3.43,18.94,3.45,1.05,4.29,2.99,3.35,5.82-.4.4-.95.63-1.53.84,2.52,1.11,5.41,2.13,6.64,2.6,18.57,7.06,26.16,9.69,27.8,9.96-7.82-2.65-15.25-6.06-22.36-10.14-2.08-1.2,26.16,10.79,22.36,10.14,18.48,6.26,39.15,8.22,62.9,4.51.53-.08,1.06-.06,1.59,0,2.88.32,5.45-.74,8.22-1.65,10.27-3.4,17.76-10.9,26.25-16.93,13.97-9.91,27.64-27.81,30.75-44.86,3.5-19.19-1.56-39.22-10.57-56.22Z"/>
      <path class="cls-13" d="m574.29,341.07c-.25-.37-.5-.74-.74-1.11,20.92,27.68,55.09,44.28,71.89,74.63,2.26,4.08,4.33,8.55,8.21,11.13,1.8,1.2,3.93,1.94,5.46,3.46,3.04,3.01,2.78,7.9,2.31,12.15-1.84,16.67-4.4,34.84-16.63,46.32-15.35,14.41-39.69,12.51-59.95,6.75-52.08-14.82-96.62-48.1-139.85-80.72,8.36,14.18,27.51,19.78,34.53,34.67,3.43,7.26,3.36,15.62,3.24,23.65-.07,4.53-.14,9.06-.22,13.59s.53,9.56-.35,13.88c-3.53-1.65-6.94-5.86-9.85-8.51-3.29-3-6.53-6.04-9.76-9.11-6.45-6.14-12.82-12.37-19.23-18.55-12.79-12.33-25.8-24.51-39.98-35.24-.57-.43-1.14-.86-1.71-1.28-29.13-21.67-65.51-37.17-101.3-31.01-3.31.57-8.25-.01-7.98-3.36,36.81-13.78,78.69-13.51,115.33.73,46.48,18.07,82.1,56.41,126.26,79.57,20.55,10.78,42.81,18.17,65.59,22.62,9.44,1.84,19.32,3.17,28.57.55,16-4.54,26.96-20.72,28.55-37.27s-4.86-33.07-14.47-46.64-22.24-24.67-34.65-35.73c-12.08-10.77-24.2-21.79-33.28-35.17Z"/>
      <g>
        <path class="cls-13" d="m307.46,580.8c-24.09-20.21-50.32-34.46-83.29-28.93-38.45,6.45-73.31,35.32-97.12,65.04-13.15,16.42-22.83,36.4-23.29,57.43-.25,11.16,28.09,13.57,30.95,24.37,1.47,5.57-22.77,20.02-18.63,24.03,3.9,3.78,9.37,5.43,14.69,6.54,77.2,16.16,157.2-30.03,224.24-61.69,31.74-14.98,57.13-37.62,77.55-66-.19-.3,1.37.25,1.46-.04.38-1.31,7.15-6.15,5.43-7.33-1.52-1.04-10.48,2.34-11.96,2.88-16.16,5.99-32.81,12.98-50.24,13.78-18.16.83-35.81-5.59-50.53-15.91-6.82-4.23-12.89-9.37-19.25-14.17Z"/>
        <ellipse class="cls-13" cx="213.55" cy="639.62" rx="119.05" ry="95.37"/>
      </g>
      <path class="cls-15" d="m537.18,509.12c1.48-1.84,1.8-2.36,3.95-4.63.13-.14.75-.63.88-.55.92.6.8,5.88,1,8.47-.41,14.35-1.11,26.47,1.96,40.82.57,2.66,1.23,5.94.38,8.38-.62,1.79-2.37,2.8-3.99,4.4-4,3.97-6.84,8.99-9.37,14.04q-2.86,4.63,3.04,4.41c1.89-.07,4.21-1.61,5.12-1.21.4.17.48.98.58,1.78.14,1.15.38,2.93.4,5.36.07,8.99.2,17.98-.03,26.96-.23,8.83,1.51,17.55,1.2,26.38-.06,1.67.14,3.32.38,4.97.08.53.35,6.94.77,6.77.62-.25,1.86-6.4,2.02-6.89.92-2.85,1.4-5.76,2.39-8.59.54-1.53.83-5.32,1.71-5.67s2.35,2.74,3.92,3.36c11.11,4.35,19.37,12.48,29.04,19.01,10.55,7.11,21.03,14.51,29.87,23.73,13.94,14.53,25.73,30.9,38.43,46.49,9.31,11.43,18.62,22.9,28.26,33.98,16.08,18.48,33.07,36.15,53.31,50.2,26.84,18.63,55.74,32.92,87.45,41.5,18.59,5.03,37.44,7.38,56.55,8.9,18.71,1.48,37.17.06,55.73-1.86,17.61-1.82,34.9-5.05,51.99-9.47,11.6-3.01,22.83-7.27,34.3-10.75,1.1-.33,6.14-1.62,6.14-1.56,0,.08,0,.25,0,.31,0,.16,0,.21,0,.41v1.01c0,59.66-.04,119.31.1,178.96,0,3.42.85,6.27-2.57,6.27-338.6-.1-682.82-.1-1021.43,0-3.42,0-1.53-3.41-1.52-6.83.07-64.41-.64-128.36-.66-192.77,0-33.7.73-67.17.72-100.87,0-16.28-.61-33.07-.62-49.37,0-8.9-.25-22.9.02-32.08.12-4.08.64-3.28.64-6.11,0-.8,23.78,8.69,30.19,12.76,30.73,19.49,62.07,39.93,97.76,47.06,35.68,7.13,72.67,6.15,108.57.19,45.61-7.57,89.83-23.25,130.13-45.89,43.79-24.6,74.22-59.8,111.74-92.21,2.2-1.9,4.73-4.15,9.14-5.95.16,3.82-.92,10.96-1.67,14.24-.81,3.56-2.7,10.36-1.9,14.28.02.09,2.4-1.98,2.63-2.3,1.4-1.91,2.33-4.18,3.58-6.21,1.46-2.36,3.06-4.64,4.73-6.86,3.3-4.4,6.85-8.6,10.16-12.99,5.26-6.99,10.52-14.09,15.32-21.39,2.05-3.12,3.98-5.84,6.06-8.55,2.78-3.62,5.81-7,9-10.84"/>
    </g>
  </g>
  <g id="Layer_2" data-name="Layer 2">
    <g>
      <path class="cls-7" d="m855.96,209.31c-7.78,3.05-15.97,1.02-23.93,1.85-16.03,1.66-33.89,12.91-34,29.11-.05,7.97.77,11.93-4.62,18.34-2.04,2.43-5.21,7.89-8.58,8.74-3.15.79-7.56-.91-8.46-3.39-.96-2.64,3.67-7.01,5.26-9.35,1.69-2.48,3.01-5.18,4.2-7.92,2.37-5.48,4.1-11.22,6.67-16.62,3.12-6.55,7.63-12.59,13.69-16.58,10.22-6.73,23.22-6.85,34.99-5.97,4.46.33,9.28-.21,13.72-.6,1.46-.36,1.73-.15,2.09,1.04.23.75-.23,1.25-1.04,1.35Z"/>
      <path class="cls-8" d="m855.49,212.78c-8.98,3.52-18.42,1.18-27.61,2.13-18.49,1.92-29.1,13.14-29.22,31.83-.06,9.2-2.66,14.87-8.89,22.27-10.2,12.12-10.17,14.96-17.32,1.07-3.22-6.25.51-9.91,4.94-7.69,1.68.84,3.55,2.02,4.83,3.42.23.25.67.85.96,1.01.8.44,1.56-1.03,2.12-1.71,1.97-2.41,3.84-4.84,5.05-7.73,1.09-2.59,1.78-5.32,2.39-8.05,1.3-5.87,2.2-11.88,4.69-17.39.46-1.03.98-2.03,1.54-3,7.42-12.64,23.94-19.39,39.47-18.23,2.79.21,5.59.02,8.38-.22,1.34-.12,2.68-.28,4.02-.38,1.45-.11,2.88.02,4.26-.46.57-.2,1.62-.75,1.3.13-.15.41.17,1.02.29,1.44.26.86.32.97-1.2,1.56Z"/>
      <path class="cls-7" d="m855.96,209.31c-.43-.74-.86-1.47-1.29-2.21,9.18-3.78,14.4-10.9,15.06-21.06.05-.73.88-1.4,1.34-2.1.36.5.25,3.21.4,3.77-.76,5.29-.78,8.02-4.99,13.77-2.59,3.53-6.34,5.86-10.53,7.83Z"/>
      <path class="cls-8" d="m855.88,212.63c-.49-.85-1.01-1.88-1.51-2.73.83-.26,1.79-.61,2.47-1.01,8.83-5.16,14.23-12.32,14.93-23.11.05-.84,1.01-1.62,1.55-2.43.42.58.29,3.71.47,4.35-.87,6.11-.89,9.25-5.76,15.89-2.98,4.07-7.32,6.76-12.15,9.04Z"/>
    </g>
  </g>
</svg>