<?xml version="1.0" encoding="utf-8"?>
<!-- Generator: Adobe Illustrator 27.8.1, SVG Export Plug-In . SVG Version: 6.00 Build 0)  -->
<svg version="1.1" xmlns="http://www.w3.org/2000/svg" xmlns:xlink="http://www.w3.org/1999/xlink" x="0px" y="0px"
	 viewBox="0 0 1024 1024" style="enable-background:new 0 0 1024 1024;" xml:space="preserve">
<style type="text/css">
	.st0{fill:#E58B23;}
	.st1{fill:#D76460;}
	.st2{fill:#1B2637;}
	.st3{fill:none;}
	.st4{fill:#F9F4EA;}
	.st5{fill:#32937D;}
	.st6{fill:#FBF3E3;}
	.st7{fill:#F1A355;}
	.st8{fill:#202637;}
	.st9{fill:#6B3944;}
	.st10{fill:#2D3244;}
	.st11{fill:#1D253F;}
	.st12{fill:#BFDDE6;}
	.st13{fill:#A88E7D;}
	.st14{fill:#509C9B;}
	.st15{fill:#202638;}
	.st16{fill:#8BC3C2;}
	.st17{display:none;}
	.st18{display:inline;fill:#D76460;}
	.st19{display:inline;fill:#FBF3E3;}
</style>
<g id="Layer_1">
	<circle class="st0" cx="643.7" cy="374.6" r="20.9"/>
	<ellipse class="st0" cx="628.6" cy="358.5" rx="14.4" ry="11.2"/>
	<path class="st1" d="M771.2,288.3c0,3-9.2,5.4-20.5,5.4s-12.8,7.9-20.5-5.4c-1.5-2.6,9.2-5.4,20.5-5.4S771.2,285.3,771.2,288.3z"/>
	<rect x="436" y="633.8" class="st2" width="11.3" height="24.8"/>
	<rect x="469.5" y="642.7" class="st2" width="1.4" height="7.3"/>
	<ellipse class="st2" cx="309.9" cy="799.7" rx="20.8" ry="23.5"/>
	<rect x="305.6" y="728.1" class="st2" width="10.7" height="0.5"/>
	<path class="st3" d="M600.2,418.1c0,1.4-26.7,2.5-59.8,2.5"/>
	<path class="st3" d="M540.4,420.6c0-6.3,14.2-11.4,31.8-11.4"/>
	<rect x="30.4" y="707.3" class="st2" width="312.3" height="193.9"/>
	<path class="st4" d="M478.3,373.3c0,114.1-92.5,206.6-206.6,206.6c-25.1,0-49.6-2.9-71.9-11.1C120.9,539.7,65.1,462.3,65.1,373.3
		c0-114.1,92.5-206.6,206.6-206.6S478.3,259.2,478.3,373.3z"/>
	<g>
		<path class="st1" d="M204,567.8c-24.8,21.3-59.8,127-93.8,128.5c-2,0.1-2.5,2.2-34.8-2.1c-0.5-0.1-16.6-8.3-21-9.3
			c-6-1.3-15.3,2.4-21.4,1.9c-6.4-0.6-12.1-0.4-18.5,0c-2.2,0.1-15.3,22.7-15.2-2.1V477.1c2.4-3.4,19.2-5.9,22.9-6.5
			c27.9-4.8,55.1-2,81.7,7.6c4.5,1.6,9,3.4,13.2,5.7c22.7,12.5,42.7,28.5,60.6,47.3c6.8,7.2,12.5,15.1,18.2,23.1
			c2.9,4.2,5.6,17.2,10.7,19.3C207.4,576.3,204.9,567,204,567.8z"/>
		<path class="st5" d="M547.9,533.4c0,0.1,1.7,11.3,1.7,11.4c0.5,1.8-2.8,2.9-1.6,4.2c0.6,0.8,2.3,1.7,4.2,2.5
			c0.6-0.2,1.4-0.4,1.8-0.8C554.9,547.9,551.3,534.4,547.9,533.4z"/>
		<path class="st6" d="M563.7,605.7c-13.2-21.1-11.2-43.4-14.7-66.8c-1.4-6.9-0.4-8.6-2.1-13c-0.6-1.6-2.1-18.3-4.1-18.3
			c-2.4,0.1-1.9,17.7-2,19.4c-0.3,9.3,0.4,17.6,1.7,26.9c0.4,3.2,4.5,6.5,1.5,8.9c-5.4,4.3-8.1,10.4-11.7,15.9
			c-1.3,2-4.3,4.1-2.7,6.4c1.5,2.3,4.6,0.5,6.9-0.2c2.7-0.9,3.3,0.2,3.8,2.9c0.4,1.8-0.4,3.2-0.4,5c0,11,0.1,22.5,0.4,33.5
			c0.2,7.4,0,14.7,0.5,22.1c0.1,1.3-0.1,8.7,1.6,8.9c2.1,0.3,4.6-7.5,4.8-8.9c0.5-3.3,2.2-6.3,2.4-9.6c0.2-1.9,1.8-3.1,3-1.8
			c2.7,2.8,6.4,3.3,9.5,5.3c10.4,6.6,19.4,15,29.4,22.2c13.2,8.7,23.3,20.6,33.3,32.6c1.9,2.3,4.2,4.3,6.3,6.4
			c0.8,0.8,1.5,1.2,2.2,1.1c-4.9-6.3-8.1-12.6-12.7-19.5C601.6,657.1,582.7,633.7,563.7,605.7z"/>
		<path class="st6" d="M740.6,626.6c2.6-3,1.3-5.8,3-9.3c0.4-2.1-3.4,6-5.6,11.3c0,0,0.1,0,0.1,0.1
			C739.5,629.1,739.9,627.5,740.6,626.6z"/>
		<path class="st7" d="M703.7,753.1c-12.4-3.7-24.4-10.8-36.6-15.2c-0.8-0.3-12.7,4.5-13.6,4.5c0.3,0.9,5.3-4.9,5.7-4.1
			c1.1,2-0.1,2.6,1,4.6c-1.8-1.1,4.8,1.2,3,0.1c0,0-0.1-0.1-0.1-0.1c-2.9-4.4-7.3-7.4-10.6-11.4c-9.9-12.3-19.8-24.6-29.8-36.8
			c0.7,1.9,2.4,3.1,4.5,3c1.6,0,3.1-0.6,4.6-1.1c16-5.3,36.1-0.7,51.1,5.7c6.1,2.6,11.7,6,17.4,9.3c5.6,3.3,10.7,7.4,15.6,11.6
			c3.6,3.2,7.2,6.4,10.8,9.6c9.5,8.4,20,16.6,32.4,19.5c2.1,0.5,4.2,0.8,6.3,1.2c2.1,0.4,5.4,0.8,7.5,1.4c-0.5,0.7-3.8,1-4.7,1.3
			c-1.9,0.6-3.9,1.2-5.8,1.7c-6.4,1.6-13,2.1-19.6,2c-11-0.2-22-2.2-32.6-5C708,754.3,705.8,753.7,703.7,753.1z"/>
		<path class="st1" d="M653.9,734.2c3.5,3.8,7.1,7.6,10.6,11.4C661,741.9,657.5,738,653.9,734.2z"/>
		<path class="st6" d="M311.9,385.9c0-4.4,3.8-3.8,6.2-4.4c33.8-8.8,69.2-9.2,102.9,0c35.3,9.7,65.2,30.6,97.5,47
			c10.2,5.2,20.6,10.1,31.2,14.5c24.4,10.2,50.8,17.9,76.9,14c4.2-0.6,8.9-2,10.8-5.8c2.4-4.8-1.1-10.4-4.6-14.5
			c-12.5-14.8-27.3-26.9-43.1-38.1c-12.3-8.7-23.7-18.3-34.2-28.9c-11.1-11.2-17.5-24.9-21.2-40.1c-1.3-5.7-2.5-11.3-3.4-17.1
			c-2.3-15.6,2.5-29.1,11.4-41.6c6.6-7,12.7-14.4,20.4-20.4c10.5-8.3,21.9-10.7,34.5-6c3.3,1.2,6.3,3,8.1,6.3
			c0.3,0.5,0.3,1.5,1.1,1.2c0.4-0.2-0.1-1.2-0.3-1.8c-2.4-7.3-7.6-12.4-13.8-16.5c-6.4-4.3-12.6-9.1-19.3-13.1
			c-2-1.2-3.5-2.7-2.7-5.3c0.8-2.5,2.9-2.8,5.2-2.9c6.5-0.5,12.6,0.9,18.4,3.5c8.1,3.6,16.2,6.8,24.4,10.1c3.7,1.5,7,3.8,10,6.4
			c1.4,2.3,3.9,3,6,4.2c3.6,2.2,4.4,5,2.7,8.5c-1.7,3.4-4.4,4.3-7.9,2.7c-0.5-0.2-0.8-0.6-1.2-0.9c0.3,0.3,0.6,0.6,0.9,0.8
			c8.4,4.7,13.9,12.7,21.8,18c5.6,3.8,11.6,6.5,17.7,9c6.8,2.7,13.3,2.5,19-2.8c0.7-0.7,1.5-1.3,2.6-1.4c7.9,0.5,14.7,3.8,21.3,7.6
			c8,4.7,16.1,9.3,22.9,15.8c1.5,1.4,3.4,2.6,5.4,1.8c7.4-2.8,15.1-4.4,22.9-4.4c2.2,0,3.9-1.4,4-3.7c0.2-5.1,1.8-10.1,1.2-15.3
			c-0.3-3-0.9-5.9-2.5-8.5c-0.9-1.5-1.8-3-0.4-4.6c1.4-1.6,3-0.7,4.6,0c0.9,0.4,2,0,2.8,0.8c12.4,6.7,13.3,9.2,14.9,13.1
			c1.3,3.4,1.1,7.2,0.8,10.8c-1.5,9-4.1,16.5-14.9,19.1c-2.7,0.6-3.8,7.7-5.6,11.9c-1.8,4.9-3.5,9.8-5.8,14.5
			c-1.3,2.5-2.9,4.5-6.2,3.4c-2.9-1-3.9-2.8-3.7-6c0.4-5.3-0.7-6-5.4-4.4c-3.5,1.8-7.4,2.1-11.1,2.9c-2.9,0.6-5.6-0.8-8.6-2
			c-4.6-1.9-6.3-3.4-10.1-5.1c-4.9-2.2-8.3-5.2-11.3-9c-2.4-3.1-5-6.2-6.4-10.1c-1-2.8-3.4-3.5-5.8-4.1
			c-17.8-4.8-35.5-10.2-53.6-13.9c-10.7-2.2-21.8-2.2-32.5-4.6c-4.1-1-8.2-1.3-12.4-1c-11.1,0.9-21.2,3.9-28.2,13.4
			c-5.2,7.1-4.8,15.4-4.4,23.6c0.5,9,3.3,17.5,8.4,25.1c0.9,1.4,1.8,2.8,3.3,3.7c12.9,17,29.3,30.4,45.5,43.9
			c12.9,10.8,22.6,23.8,30,38.7c1.2,2.4,2.4,4.8,4.2,6.7c1.7,1.8,2.7,4,2.9,6.3c0.5,5.8,2.1,11.5,1.9,17.2
			c-0.3,9.3-2.3,18.4-7.9,26.3c-8.7,12.1-20.2,18-35.3,17.7c-12-0.2-23.3-2.8-34.6-6.2c-23.3-7.1-45.7-16.4-66.5-29.3
			c-16.3-10.2-31.4-22.2-46.9-33.6c-6.5-4.8-12.7-10.4-19.8-14.2c-26.4-14-53.2-26.4-83.7-28.7c-15.2-1.1-30.2-1.2-45.2,1.5
			C315.9,387.7,313.7,388.2,311.9,385.9z"/>
		<path d="M488.9,255.7c12.9,4.2,25.8,6.6,39.1,1.7c0.9-0.3,1.7-1.3,2.5-1.9c-0.7-0.7-1.2-1.7-2-2c-39.9-14.3-59.1-47.9-76.9-82.7
			c-2.4-4.7-4.9-9.4-7.3-14.2c-1.3-2.6-2.3-5.4-3.5-8.1c2.8,2.2,5.8,4.3,8.5,6.7c2.5,2.2,4.8,4.6,7.2,6.9c0.7-0.2,2.2,2,2.9,2.4
			c1.7,1.9,2.1,2.7,4,4.4c9.6,10.5,18.4,20.7,29.7,29.5c2.9,2.2,8.6,2,9.5,6.5c17.9,12.9,38.5,14.4,59.5,13.9c0.9,0,2.5-1.4,2.4-1.8
			c-0.4-1.5-1.1-3-2.2-4.2c-13.5-14.8-31.6-23.7-46.6-36.5c-1.4-1.2-2.3-3-3.4-4.5c1.7,0.6,3.4,1,5.1,1.7c13.4,5.2,27.8,5,41.7,7
			c11.6,1.7,22.6,4.4,31.7,11.9c11.3,9.3,24,15.1,38.3,17.7c1,0.2,2.1-0.2,3.2-0.3c-0.3-1.2-0.4-2.6-0.9-3.7
			c-6.8-13.3-13.8-26.4-20.4-39.8c-1.4-2.8-5.4-6.8-2-9.1c3.5-2.4,8.7-1.2,12.6,1.7c13.1,9.6,19.3,24.3,27.5,37.5
			c5,7.9,11.6,13.6,19.4,18.2c7.9,2.1,14.9,6.2,21.8,10.4c9,5.6,12.5,15.2,15.6,24.6c1,3.1,3.6,6.3,1,9.9c-1.2,1.2-2.8,1.2-4.4,1.4
			c-8.2-1.5-14.7-6.2-21-11.4c-5.1-4.2-11-6.8-17.5-7.9c-1-0.2-2.1-0.5-2.7,0.6c-0.5,1,0.4,1.9,1.1,2.5c2.8,2.1,5.6,4.2,9.1,5.1
			c0.4,0.2,0.8,0.5,1.2,0.8c5.8,4.9,12.4,8.7,18.1,13.7c1.5,1.9,1.4,3.9-0.1,5.8c-0.3,0.4-0.7,0.7-1.1,1c-8.4,9.2-17.7,6.2-27.3,2.4
			c-11.4-4.6-19.8-13.1-28.4-21.3c-1.3-1.2-1.3-2.5-0.1-3.9c5.1-6.4,4.5-8.8-2.6-12.3c-1.1-0.5-2-1.2-2.9-1.9
			c-2.7-3.1-5.8-5.5-9.6-6.9c-11.3-4.3-22.2-9.8-33.7-13.5c-3.3-1-6.5-0.8-9.8-0.9c-2.1-0.1-3.6,0.8-4.3,2.7
			c-0.9,2.3,0.8,3.3,2.4,4.3c6.9,4.3,13,9.8,19.8,14.2c2.2,1.5,4.1,3.4,5.6,5.6c0.9,1.3,1.2,2.8,0.1,4.2c-0.8,1.1-2.1,1.2-3.2,0.8
			c-16.5-5.6-28.5,2.3-39.6,13.1c-1,0.9-1.8,1.9-2.9,2.7c-1.9,1-3.4,2.4-4.5,4.1c-0.2,0.4-0.5,0.8-0.8,1.1c-1,1.3-2,2.5-2.9,3.8
			c-0.5,0.5-1,1-1.5,1.5c-5.2,6-8.4,13.1-10.3,20.6c-1.3,5-4.3,7-8.7,8.1c-2.3,1.1-4.7,0.6-7.1,0.7c-2.4,0-4.8,0-7.3,0
			c-4.9,0-9-2.3-13.1-4.6c-1.2-1.4-2.5-2.9-4.3-3.7c-1.2-0.7-2.2-1.6-3-2.9c-0.3-5.4-5.9-5.5-8.5-8.5c-2.3-2-4.8-3.8-6.1-6.6
			c-1-3.4-4.4-4.9-6.2-7.6c-0.8-1.1-2.4-2.4-0.9-3.9c1.2-1.2,2.8-0.6,4.1,0.2c2.6,1.5,4.9,3.4,6.6,5.9c0.4,0.6,1,1.6,1.9,1
			c0.8-0.6,0.3-1.8-0.3-2.2c-4.4-3.1-3.2-8-4.2-12.2c-0.8-3.4,0.9-4.6,4.2-3.3C483.3,253,485.6,255.4,488.9,255.7z"/>
		<path d="M754.6,142.7c-4.4,9.1-13.4,14.1-19.8,21.4c-12.9,14.7-13.1,30.9,0.1,45.5c6.5,7.2,11.9,14.6,12.4,24.8
			c0.8,16.7-8.5,25.2-24,19.5c-7-2.5-3.8-12.6-1-16.6c6.1-8.6,4.3-15.6,1-24.2c-10.8-27.8-6.7-41.4,16.7-59.9
			c4.3-3.4,7.8-7.6,11.7-11.5c0.7-1,1.5-1.9,2.8-1.1C755.2,141.1,755.2,141.9,754.6,142.7z"/>
		<path class="st1" d="M573.5,341.6c-4.9-5.2-9.1-13.2-11.4-21c-3.4-11.6-3-22.7,1.7-30.4c10.5-17.3,27.5-17.5,45.1-15.4
			c28.7,3.4,56.6,10.2,84.3,18c5.1,1.4,5.8,4,8.1,8.9c6.6,14.4,28.4,25.2,43.6,20.8c1.8-0.5,8.9-7,9.1-3.7c0.3,4.1-1.8,9.7-3.6,13
			c-2.6,4.9-5.6,9.6-8.9,14c-1.1,1.5-2.3,3-3.7,4.2c-0.6,0.5-1.4-0.1-2.2,0c-0.6,0-1,0.5-1.7,0.6c-3.5,0.5-7.5,3.3-10.6,4.7
			c-2.6,1.2-2.6,0.2-4.2-2.9c-1.6-3-0.4-5,2.6-5.6c4.4,4.1,2.3,4.5,8,1.1c7.4-4.3,12.5-10.8,17-17.9c0.7-1.1,1.5-2.4,0.5-3.7
			c-0.9-1.1-2.1-0.6-3.3-0.4c-1.3,0.2-2.5,0.8-3.8,1.1c-5.8,1.4-11.2,1.4-15.5-3.6c-2.3-2.7-5.4-4.2-8.7-4.3
			c-4.2-0.2-7.3-2.2-9.7-5.4c-2.9-4-6.7-7.4-8.1-12.4c-0.7-2.6-2.9-3.6-5.2-4.1c-9.2-2.3-18.3-4.8-27.6-6.7
			c-3.4-2.6-7.4-3.6-11.5-4.3c-18.2-2.9-36.4-5.9-54.7-7.8c-7.2-0.7-14.7,0.7-21.3,4c-10.3,5.1-14.4,15-12.5,28.4
			c0.6,4,2,7.6,4.2,10.9c-7.4,8,1.5,12.2,4.2,17.9C574.2,340.4,574.3,341.1,573.5,341.6z"/>
		<path d="M488.5,255.6l-10.4-2.9c3,6.5,5.1,13.5,6.2,20.5c0.1,0.7,0.1,1.6-0.5,2c-0.6,0.4,21.2,10.8,20.6,10.4
			c-4.4-3.4-8,3.5-11.9-0.4c1.8,2.5-8.9-6.5-7.4-3.8c0.2,0.3-8.7-7.5-10.6-8.7c-0.1-0.1,5.9,5.9,5.7,5.8
			c-3.9-0.3-14.9-15.3-16.7-18.3c-6.3-10.1-12-20.5-17.7-30.9c-0.8-1.4-1.5-3.4-0.3-4.5C459.2,236.2,472.8,247.6,488.5,255.6z"/>
		<path class="st1" d="M838.3,716.8c33.5-28.1,69.9-47.9,115.7-40.2c26.7,4.5,50.1,16.4,70.6,34c0,43,0,86,0,129
			c-84.4,30.4-168.6,37.3-252.3-2.2c-44.1-20.8-79.4-52.2-107.7-91.7c0.3-0.4-1.9,0.4-2-0.1c-0.5-1.8-9.9-8.5-7.5-10.2
			c2.1-1.4,14.6,3.2,16.6,4c22.4,8.3,45.6,18,69.8,19.1c25.2,1.2,49.7-7.8,70.2-22.1C821,730.6,829.5,723.5,838.3,716.8z"/>
		<path class="st6" d="M669.5,214.6c-13.4-7.1-19.4-17.8-25.6-29.8c-0.5-1-2.3-3.8-2.6-4.9c0.5,0.2,3.1,2,3.3,2.4
			c13.4,26.8,42.1,34,63.9,50c3.1,2.2,6.2,4.4,9.3,6.6c1.4,5.6-0.9,11.4,1.5,17c0.8,1.8-1,3-2.8,3.2c-2.3,0.2-4.6,0.4-6.8-0.3
			c-3.9-2.6-4.1-7.1-5.3-10.8c-3.7-11.8-10.1-20.9-21.8-26.1C678.1,219.9,675,218.2,669.5,214.6z"/>
		<path class="st1" d="M701.2,568.3c-9.5,2.7-14.7-2.1-22.2-0.7c-3.5,0.7-8.3-1.9-10,3.1c-1.7,4.9,2.8,7.3,5.5,10.3
			c3,3.3,6.7,4.6,11,5c2.5,0.3,5.3-3.7,7.2,0.2c0.2,0.3-4.3,3.9-6.9,4.4c-12.4,2.4-16.3,11.9-20.8,21.9c-1-0.6-0.6-1.4,0-2.1
			c3.5-8.6,11.7-14.8,17-19.6c2-0.8,1.2-2.7-1-3.4c-11.9-3.7-20.6-12.3-30.6-19c27.1-11,49.8-27.1,61.3-55.4
			c3.1,2.2,1.8,4.9,0.7,7.5c-5.6,12.8-14.5,23.2-25.3,32c-1.9,1.6-3.7,3.4-5.8,4.6c-0.8,0.5-1.8,1.2-1.4,2.4c0.4,1.1,1.6,1,2.5,1.1
			c4.1,0.1,8.3-1,12.2,0.9c0.6,0.5,0.9,1.2,0.8,2C697.3,565.1,699.2,566.7,701.2,568.3z"/>
		<path class="st7" d="M695.4,563.5c-0.3-0.3-0.7-0.6-1-0.9c-0.4-4.6,3.6-5.3,6.4-6.4c8.9-3.6,16.9-8.6,24.4-14.4
			c16.5-12.7,25.7-29.1,26.3-50.3c0.4-15,0.2-29.9-4.6-44.3c-0.8-2.4-0.4-5-1.1-7.4c-1.1-2.9-2.8-5.5-4.2-8.2
			c-0.9-1.9-1.8-3.9-0.2-5.9c2.7-1.2,3.4,0.9,4.4,2.6c5.2,8.7,8.8,18.2,13.1,27.4c1.5,0.2,2.9,0.3,4.4,0.5
			c-1.7,11.8-1.2,23.4,2.1,34.8c-14.4-0.9-9.9,11.5-12.1,18.3C743.5,537.8,720.7,551.9,695.4,563.5z"/>
		<path class="st6" d="M502.6,204.8c-16.4-8.6-28.4-22.1-40-36c-1.4-2.3-3.4-4.1-5.3-5.9c-0.3-0.3-0.5-0.6-0.8-0.9
			c-1.4-2.6-2.7-5.3-4.1-7.9c2.7,2.6,6.7,9.1,9.4,11.7c18.8,18.9,32.5,37.5,59.9,45c9.5,4.1,23.2,5.3,34.2,4.3
			c1.5-0.1,3.4-2.2,4.9-1.6c0.6,0.2,0.7,1.4,1.1,2.1c-1.5,0.4-3,0.9-4.6,1C538,218,519.9,213.3,502.6,204.8z"/>
		<path class="st6" d="M708.7,256.7c17.6,1.9,4.2-12.8,9.1-17.8c11.5,22.8,15.7,15.2,28.8,14c8.9-0.8,17.9,2.3,26,6.9
			c-5.2-1.2-7.3-1.4-4.3,5.4c6.2,13.8-2.1,23.9-14.9,29.4c-20.2,8.6-28.5-9.3-42.2-14.9c-7-2.9-13.4-7.3-21.4-7.5
			c-0.3-0.2-0.4-0.4-0.4-0.6c0-0.3,0-0.4,0.1-0.4c0.3-0.5,0.5-1,0.8-1.5c2.1-1.9,4.2-1.2,6.5-0.5c12.4,3.9,23.4,10.4,33.3,18.6
			c5.2,4.3,10.1,6.6,16.7,3.4c3.5-1.6,7.4-1.6,11.3-1.8c3.9-0.2,6.3-2,6.2-6.2c-0.1-3.5,1.1-6.9,1-10.4c-0.2-8.2-4-12.4-12.2-12.5
			c-7-0.1-14,0.7-20.9,1.4c-6.5,0.6-13,0.5-19.4,0.4c-1.8,0-3.7-0.2-4.7-2.1C707.6,258.6,707.7,257.6,708.7,256.7z"/>
		<path class="st6" d="M733.7,350.8c6.9-5.9,13.4-12.2,17.3-20.4c1.3-2.7,0.8,0,6.5,0.5c4.9,0.4,4.4-4.5,5.9-7.3
			c1.6-2.9,2.9-5.9,4.3-8.9c-4,17.1-12.6,31.5-27,41.6C735.6,359.9,734.5,354.6,733.7,350.8z"/>
		<path class="st6" d="M581.3,182.5c-3.2,0.2-4,0.3-4.7,0.2c-18.2-3-36.4-6-54.5-9.2c-1.6-0.3-3-1.6-4.5-2.5
			c1.6-0.2,3.3-0.9,4.8-0.6c16.6,2.5,33.5,2.5,49.5,8.4C574.2,179.7,576.6,180.7,581.3,182.5z"/>
		<path class="st6" d="M616.7,149.9c14.3,0,14.4,13.6,21,20.9c0.2,0.2,7.7,12.6,7.6,13.1c-0.6-0.3-4.1-1.7-8.3-10.3
			c-7.5-8.1-15-20.3-28.3-19c-0.3,0-1.2-1.5-1.1-1.7C609.9,149.4,613.8,150.5,616.7,149.9z"/>
		<path d="M754.6,142.7c-1-0.3-2-0.6-3-0.9c4.8-11.2,3.9-21.6-3.9-31.2c-0.6-0.7-0.4-2-0.5-3c0.7,0.1,2.9,2.7,3.5,3
			c3.7,5.3,5.9,7.8,6.9,16.4C758.1,132.3,756.7,137.4,754.6,142.7z"/>
		<path class="st6" d="M708.7,256.7c0.1,0.8,0.3,1.7,0.4,2.5c-1.1,1.5-1.7,0.4-2.3-0.5c-2.7-23.4-17-34.6-36.2-43.7
			c0.4-0.1-0.6-1.1-0.1-1.2C690.5,221.5,703.8,235.2,708.7,256.7z"/>
		<path class="st8" d="M461.6,256.9c0.5-0.5,1.1-0.9,1.6-1.4c0.4,0.5,0.7,1,1.1,1.4c-0.6,0.3-1.2,0.6-1.8,0.9
			C462.2,257.5,461.9,257.2,461.6,256.9z"/>
		<path class="st9" d="M705.4,572.1c-0.7-0.7-1.5-1.5-2.2-2.2C704,570.6,704.7,571.3,705.4,572.1z"/>
		<path class="st10" d="M592.6,645.7c-1.6,1.5-2.5-0.5-3.7-1.2c-11.5-8.1-18.5-19-27.6-29.1c-1.8-2-4.5-5.2-5.9-7.5
			c-2.9-4.9-5.4-7.8-7.8-13.2c-0.9-2.1-1.3-4.4-1.7-6.7c-0.6-3.2-1.1-5.8,2-8.3c1.4-1.2,2.5-1.8,4-1.8c1.7,0,1.9,1.9,2.5,2.8
			c3.8,5.9,5.9,11.9,9.7,17.7c2.5,3.7,5,7.4,7.4,11.2c1.7,2.7,3.4,5.3,5.1,8"/>
		<path class="st10" d="M595.7,650c-0.8-0.1-3.1-2.2-3.6-2.4c-10.4-8.8-19.2-18.2-28.2-27.9c-3.2-3.4-6.2-7.3-8.5-10.9
			c-2.7-4.4-5-8.7-7.2-14.3c-1.1-2.9-1.5-5-2-8.1c-0.6-4.3,1.2-5.8,3.7-7.3c4.3,0,3.4,1.7,5.7,3.8c5.5,8.9,10.7,17.9,15.9,26.9
			c-5.6-8.5-11.1-17.1-16.8-25.6c-1.3-1.9-3.8-4.7-5-4.4c-3.2,0.9-4.1,3.8-3.6,7.4c13.1,23,22.1,38,38.6,53.3c2,1.8,4.6,3,6.9,4.5
			c-1.1-2.6-2.6-5.2-4-7.6c-3.8-6.6-7.1-13.2-11.1-19.7"/>
		<path class="st11" d="M743.7,594.8c1.6,4.3,3.3,8.6,4.9,13c0,0,0,0,0,0c-0.7,3-4.3,3.7-2.2,8.6c-0.4,0.7-0.3,2.7-0.6,3.8
			c-3.5,4.7-6.3,9-9.8,13.7c-0.6-4.5,1.9-13.8,0.5-18.1c-1.5-4.7-4.3-5.5-6.5-10c7.3,4.7,7.7,10.5,8.4,18.1c0.1,1.1-1.5,4.9-1.2,6
			c0.8-0.7,1.8-1.2,2.5-2C749.3,617.7,747.3,606.3,743.7,594.8z"/>
		<path class="st7" d="M739.5,421.7c0.7,1.3,1.4,2.7,2.1,4c1.9,4.3,3.8,8.7,5.7,13c-2.6,5.7-2.4,12-3.4,18.1
			c-1.3,7.8-3.2,15.3-6.5,22.4c-3.5,7.4-9.7,12.6-15.9,17.7c-3.1,2.6-6.1,0.8-6.4-3.3c-0.1-1,0-2,0-3c-3.7-39.8-27.4-68-54.4-94.3
			c-10-9.7-14.8-22.2-19-35c0.4-4,3.1-4.6,6.4-4.2c4.2,0.6,7.9,2.5,11.5,4.5c7.9,4.4,16.5,7.5,23.4,13.6c5.3,5.4,12.7,7.6,19,11.6
			C716.7,396.3,729.7,407.1,739.5,421.7z"/>
		<path class="st1" d="M715.2,490.6c0.8,1.9,1.6,3.7,2.4,5.6c1.8-1.1,3.7-2,5.3-3.3c14.6-11.3,17.7-27.6,19.9-44.5
			c0.4-3.5-1.2-8.5,4.6-9.6c20.3,38.6,14.2,96.3-45.5,121.7c-2,0.9-1.9,1-6.5,3.1c-6.6-0.7-20.5,0.6-27-3.1c0,0,12.9-9.6,19.2-13.8
			c10.7-10,17.8-18.5,24-33.5C712.8,505.6,714,498.1,715.2,490.6z"/>
		<path class="st1" d="M569.5,321.8c-11.8-6.2-7.2-17.1-5.6-25.4c3.3-16.8,18-20.8,32-20c24,1.3,48,4,70.9,12.2
			c-1.7,3.3-4.8,2.1-7.4,2.3c-2.4,0.2-3,0.5-1.4,2.8c1.8,2.5,3,5.4,5.9,7.1c1.6,0.9,2.4,2.8,1.8,4.8c-0.5,1.6-1.6,2-3.1,1.2
			c-9.1-5.6-18.9-3.8-28.6-2.8c-5.2,0.5-10.3,2.1-15.4,3.2c-1.8,0.4-3.5,0.8-5.4,0.8c-2.7,0.3-5.7-0.3-8.2,1.6
			c-4.9,0.7-9.1,2.7-12.1,6.7c-7.6-7.8-11.8,1.1-17.4,3.4C573.4,320.3,571.5,321.1,569.5,321.8z"/>
		<path d="M701.2,568.3c0.7,0.5,1.4,1.1,2.1,1.6c0.8,0.7,1.5,1.4,2.2,2.2c3.9,4.6,5.9,10.4,7.3,16.2c0.3,1.1,2.1,7.6,1,7.9
			c-0.8,0.2-3.4-1.6-4.1-2.1c-1.4-0.8-2.8-1.8-4.1-2.8c-0.2-0.1-0.3-0.3-0.4-0.5c-0.1-0.2,0-0.5,0.1-0.7c0.6-1.3,2-2,3.4-2.4
			c4-1.2,8.2-1.1,12.3-1.1c4.5,0,9.1,0,13.6,1c4.4,1,8.8,3.3,11.3,7c2.3,3.3,3,7.5,3.1,11.6c0,4.7-0.8,9.5-3,13.7
			c-1.3,2.6-3,4.9-4.8,7.2c-0.9,1.2-1.9,2.5-2.9,3.7c-0.1,0.2-0.3,0.3-0.5,0.4c-0.4,0.1-0.6-0.4-0.7-0.8c-0.9-4.3-0.5-8.8-1.6-13.1
			c-0.8-3.2-2-5.8-3.8-8.5c-1.2-1.7-1.6-2.3-2.6-4c-1-1.6-3.8-3.4-4.4-5.1c-0.8-2.2-1.6-1.7-1.9,0.4c-0.2,1-0.3,2.1-0.3,3.1
			c-0.1,1.5-0.1,3.1-0.3,4.6c-0.5,4.1-1.1,8.2-2.2,12.2c-1.8,6.3-4.9,12.4-9.8,16.7c-2,1.7-4.2,3.1-6.4,4.6c-1.2,0.8-4.8,3-4-0.1
			c0.4-1.6,2-2.9,3-4.1c4.3-5.3,6.5-9.5,4.8-16.8c-3.3-14.6-19.1-10.1-29.2-7.4c-1.8,0.5-6.2,3.6-7.8,4.5c-2,1.2-3.7,2.8-5.2,4.6
			c-1.3,1.6-2.1,3.8-3.5,5.2c-0.4,0.5-1.1,0.8-1.7,0.6c-1.4-0.4-0.8-2.5-0.5-3.4c0.5-1.5,1.1-3,1.6-4.4c1.7-4.7,3.4-9.4,5.6-13.8
			c3.4-6.8,8.3-12.9,15.7-15.3c1.1-0.4,2.4-0.9,2.2-2.3c-0.1-1-1.4-1.4-2.3-1.6c-5.2-0.9-8.8-4.3-12.7-7.5c-3.1-2.6-3.9-5.8-2.8-9.4
			c1.1-3.6,4.2-4.4,7.6-4.4c5.5,0,10.9-0.5,16.4-1.3c5-0.7,3.7-1.3,5.2-0.1C697.2,565,700.1,567.4,701.2,568.3z"/>
		<path d="M525,297.8c10.2-4.8,9.1-21.6,18.7-27.6c-13.7,25.7-12.6,58.6,2.9,83.3c14.8,23.6,40.2,38.1,61.7,55.9
			c10.4,8.6,20.1,18.2,27.8,29.2c3.1,4.4,5.8,10.7,2.2,14.7c-1.6,1.8-4.1,2.5-6.4,3c-14.8,3.3-30.5,2-44.8-3.2
			c-15.5-5.8-27.7-17.1-40.7-27.1c-0.6-0.4-1.1-0.9-1.5-1.5c-0.9-1.5,0.1-3.6,1.6-4.5c1.5-0.9,3.3-1,5.1-1.1
			c15.9-0.7,31.9-1.4,47.8-2c1.1,0,2.4-0.3,2.8-1.3c0.4-1-0.5-2.1-1.4-2.8c-5.5-4.7-11.3-8.9-17.4-12.6c-1.7-1-3.4-2-5.4-2.1
			c-2.6-0.1-4.9,1.5-7.2,2.7c-11.6,6.5-26.2,6-38.8,1.5c-12.6-4.5-23.5-12.6-33.9-20.9c-10.4-8.3-20.7-17.1-32.5-23.3
			c23.7,8.2,48.9,11.8,73.9,10.6c0.8,0,1.7-0.1,2.2-0.7c0.5-0.6,0.4-1.4,0.3-2.2c-0.9-6.4-4-14.1-10.4-14.5c-4.9-0.3-9.1,4.1-14,4.4
			c-4.2,0.3-8-2.5-11.3-5.1c-13-10.3-25.7-21.2-37.8-32.6c-0.9-0.8-1.8-1.8-1.9-3s1.5-2.4,2.4-1.6c-1.5-0.7-1.3-3.1,0-4.1
			c1.3-1,3.1-1,4.8-0.9c11.2,0.4,22.4,0.8,33.6,1.2c4.2,0.1,8.6,0.3,12.3-1.6c3.7-1.9,6.5-6.4,4.9-10.3
			C524.9,297.9,525,297.9,525,297.8z"/>
		<path d="M525.6,297.7c0.1,0,0.2,0,0.2,0c0.8,0,1.7,0.1,2.1,0.7c0.4,0.6,0.2,1.3,0,2c-1.3,4.1-3.1,8.6-7,10.4c-2.2,1-4.8,1-7.3,0.9
			c-14.6-0.5-29.2-0.9-43.8-1.4c2.4,3.5,4.8,7.1,7.2,10.6c-2.9-2.3-6-4.3-9.2-5.9c13.3,14.7,28.3,27.8,44.6,38.9
			c-0.9-0.6-2.9-0.6-4-1.2c-1.3-0.7-2.4-1.6-3.6-2.5c-2.7-2-5.4-4-8-6.1c-5.4-4.2-10.6-8.7-15.7-13.3c-10.1-9.3-19.6-19.3-28.3-29.9
			c-0.3-0.3-0.6-0.7-0.6-1.1c-0.2-1,0.8-1.9,1.8-2c1-0.1,1.9,0.4,2.8,0.8c3.1,1.7,5.9,3.7,9.1,5.1c9.5,4.3,20.4,3.1,30.9,3.4
			c7.3,0.2,14.7,1.2,22,0.4c2.2-0.2,4.8-1.1,5.3-3.2c0.4-2.1-1.6-4-3.7-4.4c-2.1-0.4-4.2,0.2-6.3,0.5c-8.2,1.1-16.3-3-22.5-8.5
			s-11-12.4-16.7-18.4c6.5,4.7,11.8,10.8,18,16s13.6,9.5,21.6,9.3C518.2,299,521.9,297.9,525.6,297.7z"/>
		<path class="st13" d="M395.9,422.8c2.8,1.9,5.7,3.9,8.5,5.8C401.6,426.6,398.7,424.7,395.9,422.8z"/>
		<path class="st13" d="M412.9,434.8c2.2,1.9,4.3,3.8,6.5,5.7C417.2,438.6,415.1,436.7,412.9,434.8z"/>
		<path class="st13" d="M408.9,431.9c1.2,0.9,2.4,1.7,3.6,2.6C411.3,433.6,410.1,432.8,408.9,431.9z"/>
		<path class="st1" d="M543.7,271.6c0-0.6-0.1-1.3-0.1-1.9c0.4-0.4,0.7-0.7,1.1-1.1c1-1.3,2.1-2.6,3.1-3.9l0,0
			c1.9-1.8,2.8-3.5,4.6-5c12.3-11.6,25-22,43.7-16.4c0.6,0.2,1.4-0.5,2.1-0.7c-0.5-1-0.9-2.2-1.7-2.8c-7.8-6.5-15.7-12.8-23.5-19.4
			c-1.4-1.2-3.3-4-2.9-5c0.8-1.7,3.5-3.7,5.2-3.6c19.8,2.3,37.5,9.9,53.6,21.6c-0.3,0.6-0.7,0.7-1.2,0.2
			c-15.6-9.8-32-17.4-50.4-20.1c-1.6-0.2-3.5,1.1-5.3,1.7c1.1,1.4,2,3.2,3.4,4.3c13,10.3,31.6,15.2,34.7,35.3
			c0.2,1.3-0.3,2.7-0.5,4.1c-1.1-0.8-2.5-1.3-3.3-2.3c-11.5-15.7-27.7-17.6-42.7-4.5C556.7,258.4,550.3,265.1,543.7,271.6z"/>
		<path class="st5" d="M627.6,233.8c0.4-0.1,0.8-0.2,1.2-0.2c6.8,3.6,14.7,6.8,5.9,16.1c-0.3,0.3-0.1,1.4,0.2,1.8
			c12,12.5,24.6,24.3,43.3,24.6c3.7,0.1,7.5-3.3,11.2-5.1c0.1,0.3,0.2,0.7,0.3,1c-14,13.1-26.6,3.3-37.8-3.9
			c-10.6-6.7-19.2-16.5-28.6-25.1c-0.7-0.6-0.6-2-0.9-3.1c0.6,0,1.3-0.2,1.8,0c3.8,1.6,6.2,10.8,11,4.3
			C640.3,237.5,629.4,238.1,627.6,233.8z"/>
		<path class="st6" d="M701.6,258.9c-4.3,1.7-10,0.3-12.2,6.1c-5.9-4.4-11.4-8.3-17.3-12.7c0,0-2.3-1.5-2.4-1.5
			c-5.2-3.1-11.2-4.8-11.6-9.9c2.5-5.2,11.6,0,17,2.7C684.2,248,692.8,253.7,701.6,258.9z"/>
		<path class="st1" d="M707,258.8c0.7,0.1,1.3,0.3,2,0.4c0.1,0,0.1,0,0.2,0c13.4-0.6,26.9-0.9,40.3-1.7c9.2-0.6,17.6,1.6,17.7,11.9
			c0,13.4,4.1,23.6-11.1,21.5c-1.3-0.2-8.3,0.6-10.2,1.1c-2.8,0.7-4.6,2.9-6.9,2.6c-12.9-1.2-19.3-15.3-32.3-19.1
			c-5.4-1.6-10.6-3.9-15.9-5.9c-0.2-0.1-0.4-0.3-0.5-0.6c-0.3-1.3-0.5-2.7-0.8-4c0,0,0-0.1,0-0.1c-0.1-2,1.5-4.8-0.6-8
			c-2.8-4.4-9.1-9-6.5-9.3c2.3-0.3,17,10.5,19.3,10C703.4,257.6,705.1,258.9,707,258.8z"/>
		<path d="M490.6,288.8c-3-3-6-6-9-9C484.9,282.5,492.7,280.8,490.6,288.8z"/>
		<path class="st15" d="M517.9,298.8c-2.8,0-5.6,0-8.4,0C512.3,298.8,515.1,298.8,517.9,298.8z"/>
		<path class="st15" d="M497.6,293.9c-1.4-1-2.8-2.1-4.2-3.1C494.8,291.8,496.2,292.9,497.6,293.9z"/>
		<path class="st15" d="M547.8,264.8c-1,1.3-2,2.6-3.1,3.9C545.7,267.3,546.7,266,547.8,264.8z"/>
		<path class="st1" d="M663.6,306.7c1-6.3-7.3-6.3-7.9-12c-0.3-2.6-2.8-5-4.3-7.5c2.2,0.5,4.3,1.3,6.5,1.5c3,0.2,5.9,0,8.9,0
			c9.8,2.4,19.7,4.8,29.5,7.2c4.1,1,3.6,5.2,5.2,7.8c9.1,15,28.2,22.6,46,19c5.8-1.2,3.4,4.6,2.7,5.9c-6.3,11.4-14.3,19.2-26,26.5
			c-1.7,1-6,3-7.8,3c0.4-2,1.7-8,2.6-9.9c0.4-1.3,1.1-2.6,1-4.1c-2.2-0.2-4-1-6.3-0.6c-2.2,0.4-4.2,1.2-6.3,2.1
			c-3.9,1.7-8.1,3.9-12.4,3c-1.9-0.4-3.8-1.6-4.2-3.4c-0.7-3.1,2.8-5.6,3.4-8.8c0.2-1,0.5-2.1,0.6-3.1c0.1-1.6-0.9-3.7-2.1-5
			c-1.2-1.4-3.4-2-4.9-3.1c-4-3.1-8.7-4.9-13.7-5.7c-6.2-1.1-12.3-3.1-18.7-1.8c-1.6,0.3-3-0.2-3.9-1.7c-0.8-1.3-0.5-2.8,0.4-3.7
			C655.4,309.4,658.5,306,663.6,306.7z"/>
		<path class="st6" d="M613.6,306.7c15.5-2.6,29.4-9.6,45.6-4.2c1.7,0.6,2.9,2.7,4.4,4.1c-3.6,2.8-7.2,5.5-10.7,8.3
			c4.5,0.4,9,0.9,13.5,1.3c8.7,0.8,17.1,2,24.2,7.9c4.7,4,5.7,8.3,2.2,13.5c-0.5-9.5-22-20.8-35.5-18.5c-5.1,0.9-7.6,0-9.1-4.1
			c-0.6-1.6,0.9-3.4,2.4-4.1c1-0.5,6.8-2.8,4.5-4.7c-2-1.6-6-1.3-8.4-1.4c-8.6-0.3-17.3,0.8-25.7,2.2c-4,0.7-8,1.5-11.8,3
			c-0.9,0.4-2.8,1.5-3.8,1.1c0.8-1.2,3.1-1.9,4.3-2.5C611.1,307.9,612.3,307.3,613.6,306.7z"/>
		<g>
			<path class="st7" d="M758.7,455.6c-5.7-10-11.4-20-17.1-30c-2.1,0.1-3.3-1.2-4.2-2.8c-3-9.1-10.5-14.6-17-20.9
				c-2.1-2.1-4.4-4-6.7-5.9c-1.1-0.9-2-1.8-1.1-3.3c0.6,0,1.2,0,1.8,0C738.2,407.4,751.1,429.7,758.7,455.6z"/>
			<path class="st7" d="M731.5,410.3c-2.8-3.3-5.8-8.2-9.1-11.2c-6.5-5.9-9-7.2-16.6-12.5c-4.4-3.1-10.4-6.9-15-9.7
				c-2.4-1.5-4.6-3.1-7.1-4.7c-2.7-1.8-6.2-3.9-9-5.6c-12-7.4-24.4-14.1-36.9-20.5c-9.6-5-20.5-8.8-27.8-17.1
				c-1.2-1.4-2.3-2.8-3.1-4.5c0-0.1,0-0.1-0.1-0.2c-0.9-2.1-1.2-4.4-1.2-6.7c0-1.8,0.1-3.7,0.9-5.3c1.3-2.6,4.8-3.7,6.8-5.5
				c-0.3,0.3-2.6-0.5-3-0.5c-2-0.3-3.9,0.3-5.9,0.7c-5.3,1.1-10.7,1.8-15.8,3.3c-2,0.6-2,0.9-5.8,2.1c-3,0.9-4.6,4.4-2.5,7.1
				c1.8,2.3,4.7,3.7,7.3,5c4,2.1,10.1,4.1,12.6,8.2c9.5,15.7,88.7,93.3,99.7,94.8c3.5-2.8-50.8-69.3-46.8-67.2
				c9.9,5.4,19.8,10.8,29.8,16.2c10.7,5.8,21.3,12.1,31,19.4c4.8,3.6,9.4,7.5,13.6,11.7c4.2,4.1,7.6,9.7,11.9,13.4
				C738,417.2,734.1,413.3,731.5,410.3z"/>
		</g>
		<path class="st3" d="M671.6,251.7c-0.1-0.3-0.2-0.7-0.4-0.9c-4-3.1-8-6.1-12-9.1c0.7-0.3,1.4-1.1,2-0.9c8,2.2,17.4,2.5,21.2,11.6
			c0.8,1.9,6.8,5.5,1.8,6.5C680.6,259.5,675.9,254.3,671.6,251.7C671.7,251.7,671.6,251.7,671.6,251.7z"/>
		<path d="M763.1,456.1c8.9-2.8,19.1-5.3,28.4-5.5c12.1-0.3,38.7,14.4,40.7,24.9c2.3,11.9-0.4,23.2-6.4,33.6
			c-0.6,1.1-2.1,1.8-3.2,2.6c-0.1-1.3-0.4-2.5-0.4-3.8c-0.1-10.7-2.9-20.7-8.6-29.8c-0.7-1.1-2-1.8-3.1-2.7c-0.7,1.4-1.8,2.7-2,4.1
			c-1.1,9.9-1.9,19.9-11.9,25.5c-1.5,0.8-3.7,0.4-5.6,0.5c0.3-1.6,0.3-3.4,1-4.9c2.6-5.1,6.3-9.8,7.9-15.2c1.3-4.4-3.1-7.1-6.8-5.9
			c-9.5,3.2-18.7,7.5-28,11.4c-2.7,0.3-3.3-1.6-3.7-3.6c-1.9-8.5-0.8-17.1-1.9-25.6C759.3,459.1,761.2,457.5,763.1,456.1z"/>
		<path class="st5" d="M514.2,551.8c-0.5,1.6-0.3,1.8,1.9-3.1C515.2,549.5,514.5,550.6,514.2,551.8z"/>
		<path class="st5" d="M564.2,553.9c7.1,4.1,14.5,7.5,22.4,10.1C590.4,564.7,562.2,552.7,564.2,553.9z"/>
		<path class="st5" d="M705.7,448.9c-10.6-20.1-26.5-36.8-42.2-53.2c-14.3-15-28.6-30-43-45c-7.8-8.1-19.1-17.2-24.2-27.4
			c-2.2-4.4-4.1-11.7-10.2-11.5c-2,0-3.9,0.7-5.8,1.4c-5.3,2-10.6,4-16,6c-1.4,0.5-2.3,1.1-2,2.5c3.6,17.6,21,32.6,33.8,43.8
			c14.9,13,31.2,25.2,42.4,41.9c4.8,7.3,8.7,15.4,15.1,21.3c1.7,1.6,3.7,3.1,4.5,5.3c0.8,2.3,0.2,4.8-0.3,7.2
			c-1.1,6.3-0.6,12.7-1.2,19c-1.6,14.2-10.2,28-23.4,33.6c-8.5,3.6-18.1,3.6-27.3,2.5c-39-4.5-79.1-24.3-110-47.9
			c-10-7.7-20.6-14.6-30.6-22.3c-5.3-4.1-10.7-7.9-16.2-11.7c-1.8-1.2-41.6-24.3-5.7-0.4c2,1.3-0.2,3.7,1.2,5.2
			c0.5,0.5,1,0.9,1.5,1.4c7.4,5.7,14.6,11.7,21.8,17.6c7.3,6,12.7,13.1,12.3,23.1c-0.3,8-2.1,16,0,24c0.4,1.6,0.2,3.3,0,5
			c-0.1,0.8,0.1,1.9-0.7,2.2c-0.8,0.3-1.5-0.6-2-1.2c-5.2-5.2-11.3-9.2-16.7-14.1c-1.7-1.5-0.3-8.8-2.6-6
			c-16.7-8.9,6.3,12.8,9.9,16.9c5.2,5.7,10.3,11.4,15.5,17.1c5.1,5.6,10.1,11.2,15.2,16.8c4.2,4.6,8.7,8.6,13.9,12.3
			c1.3,0.9,2.8,1.8,3.9,3c1.1,1.2,1.4,3.2,0.7,4.6c-0.3,0.7-1,1.5-0.6,2.2c0.4,0.8,0.5,2,0.2,2.8c-0.3,0.6-0.5,1.2-0.8,1.7
			c1.3-1.2,2.9-2,4.7-2c5-0.1,11.9-0.8,12.4-1.5c6.8-11.6-3.1-24.7,4.8-35.6c1.6-2.1,3.6-5.2,5.2,0.1c1.2,5.4,2.5,10.7,3.7,16.2
			c0.8,4,1.7,12.3,3.4,18.9c3.5,1.1,4.3,3,3.3,5.8c-0.4,0.4-0.9,0.6-1.5,0.8c2.5,1.1,5.4,2.1,6.6,2.6c18.6,7.1,26.2,9.7,27.8,10
			c-7.8-2.6-15.3-6.1-22.4-10.1c-2.1-1.2,26.2,10.8,22.4,10.1c18.5,6.3,39.1,8.2,62.9,4.5c0.5-0.1,1.1-0.1,1.6,0
			c2.9,0.3,5.5-0.7,8.2-1.7c10.3-3.4,17.8-10.9,26.3-16.9c14-9.9,27.6-27.8,30.7-44.9C719.8,486,714.7,465.9,705.7,448.9z"/>
		<path class="st5" d="M574.3,341.1c-0.2-0.4-0.5-0.7-0.7-1.1c20.9,27.7,55.1,44.3,71.9,74.6c2.3,4.1,4.3,8.5,8.2,11.1
			c1.8,1.2,3.9,1.9,5.5,3.5c3,3,2.8,7.9,2.3,12.1c-1.8,16.7-4.4,34.8-16.6,46.3c-15.4,14.4-39.7,12.5-59.9,6.8
			c-52.1-14.8-96.6-48.1-139.8-80.7c8.4,14.2,27.5,19.8,34.5,34.7c3.4,7.3,3.4,15.6,3.2,23.7c-0.1,4.5-0.1,9.1-0.2,13.6
			c-0.1,4.4,0.5,9.6-0.4,13.9c-3.5-1.6-6.9-5.9-9.9-8.5c-3.3-3-6.5-6-9.8-9.1c-6.5-6.1-12.8-12.4-19.2-18.5
			c-12.8-12.3-25.8-24.5-40-35.2c-0.6-0.4-1.1-0.9-1.7-1.3c-29.1-21.7-65.5-37.2-101.3-31c-3.3,0.6-8.2,0-8-3.4
			c36.8-13.8,78.7-13.5,115.3,0.7c46.5,18.1,82.1,56.4,126.3,79.6c20.6,10.8,42.8,18.2,65.6,22.6c9.4,1.8,19.3,3.2,28.6,0.5
			c16-4.5,27-20.7,28.6-37.3c1.6-16.6-4.9-33.1-14.5-46.6c-9.6-13.6-22.2-24.7-34.6-35.7C595.5,365.5,583.4,354.5,574.3,341.1z"/>
		<g>
			<path class="st5" d="M307.5,580.8c-24.1-20.2-50.3-34.5-83.3-28.9c-38.5,6.5-73.3,35.3-97.1,65c-13.1,16.4-22.8,36.4-23.3,57.4
				c-0.2,11.2,28.1,13.6,30.9,24.4c1.5,5.6-22.8,20-18.6,24c3.9,3.8,9.4,5.4,14.7,6.5c77.2,16.2,157.2-30,224.2-61.7
				c31.7-15,57.1-37.6,77.5-66c-0.2-0.3,1.4,0.3,1.5,0c0.4-1.3,7.1-6.2,5.4-7.3c-1.5-1-10.5,2.3-12,2.9c-16.2,6-32.8,13-50.2,13.8
				c-18.2,0.8-35.8-5.6-50.5-15.9C319.9,590.7,313.8,585.6,307.5,580.8z"/>
			<ellipse class="st5" cx="213.6" cy="639.6" rx="119" ry="95.4"/>
		</g>
		<path class="st2" d="M537.2,509.1c1.5-1.8,1.8-2.4,4-4.6c0.1-0.1,0.8-0.6,0.9-0.5c0.9,0.6,0.8,5.9,1,8.5
			c-0.4,14.4-1.1,26.5,2,40.8c0.6,2.7,1.2,5.9,0.4,8.4c-0.6,1.8-2.4,2.8-4,4.4c-4,4-6.8,9-9.4,14c-2.9,4.6-2.9,4.6,3,4.4
			c1.9-0.1,4.2-1.6,5.1-1.2c0.4,0.2,0.5,1,0.6,1.8c0.1,1.1,0.4,2.9,0.4,5.4c0.1,9,0.2,18,0,27c-0.2,8.8,1.5,17.6,1.2,26.4
			c-0.1,1.7,0.1,3.3,0.4,5c0.1,0.5,0.3,6.9,0.8,6.8c0.6-0.2,1.9-6.4,2-6.9c0.9-2.8,1.4-5.8,2.4-8.6c0.5-1.5,0.8-5.3,1.7-5.7
			s2.3,2.7,3.9,3.4c11.1,4.4,19.4,12.5,29,19c10.5,7.1,21,14.5,29.9,23.7c13.9,14.5,25.7,30.9,38.4,46.5c9.3,11.4,18.6,22.9,28.3,34
			c16.1,18.5,33.1,36.2,53.3,50.2c26.8,18.6,55.7,32.9,87.5,41.5c18.6,5,37.4,7.4,56.6,8.9c18.7,1.5,37.2,0.1,55.7-1.9
			c17.6-1.8,34.9-5,52-9.5c11.6-3,22.8-7.3,34.3-10.7c1.1-0.3,6.1-1.6,6.1-1.6c0,0.1,0,0.2,0,0.3c0,0.2,0,0.2,0,0.4c0,0.5,0,0.8,0,1
			c0,59.7,0,119.3,0.1,179c0,3.4,0.8,6.3-2.6,6.3c-338.6-0.1-682.8-0.1-1021.4,0c-3.4,0-1.5-3.4-1.5-6.8
			c0.1-64.4-0.6-128.4-0.7-192.8c0-33.7,0.7-67.2,0.7-100.9c0-16.3-0.6-33.1-0.6-49.4c0-8.9-0.2-22.9,0-32.1
			c0.1-4.1,0.6-3.3,0.6-6.1c0-0.8,23.8,8.7,30.2,12.8c30.7,19.5,62.1,39.9,97.8,47.1s72.7,6.1,108.6,0.2
			c45.6-7.6,89.8-23.2,130.1-45.9c43.8-24.6,74.2-59.8,111.7-92.2c2.2-1.9,4.7-4.1,9.1-6c0.2,3.8-0.9,11-1.7,14.2
			c-0.8,3.6-2.7,10.4-1.9,14.3c0,0.1,2.4-2,2.6-2.3c1.4-1.9,2.3-4.2,3.6-6.2c1.5-2.4,3.1-4.6,4.7-6.9c3.3-4.4,6.8-8.6,10.2-13
			c5.3-7,10.5-14.1,15.3-21.4c2-3.1,4-5.8,6.1-8.6c2.8-3.6,5.8-7,9-10.8"/>
	</g>
</g>
<g id="Layer_2">
	<g class="st17">
		<path class="st18" d="M835.8,189.6c-2.6,7.9-0.1,16-0.5,24c-0.8,16.1-11,34.6-27.1,35.6c-8,0.5-12-0.1-18,5.6
			c-2.3,2.2-7.6,5.6-8.2,9.1c-0.6,3.2,1.3,7.5,3.9,8.3c2.7,0.8,6.8-4.1,9-5.8c2.4-1.8,5-3.3,7.7-4.6c5.3-2.7,11-4.7,16.2-7.6
			c6.4-3.5,12.1-8.3,15.8-14.6c6.1-10.6,5.5-23.6,4-35.3c-0.6-4.4-0.3-9.3-0.2-13.7c0.3-1.5,0.1-1.7-1.2-2
			C836.4,188.3,835.9,188.8,835.8,189.6z"/>
		<path class="st19" d="M832.4,190.3c-3,9.2-0.1,18.5-0.6,27.7c-0.9,18.6-11.5,29.8-30.1,31c-9.2,0.6-14.7,3.5-21.7,10.1
			c-11.5,10.9-14.4,11-0.1,17.4c6.4,2.9,8.5-0.7,6.8-5.3c-0.6-1.8-1.6-3.5-3.1-4.7c-0.3-0.2-0.9-0.5-1.1-0.8c-0.5-0.8,1-1.8,1.6-2.3
			c2.3-2.1,4.6-4.1,7.4-5.5c2.5-1.2,5.2-2.1,7.9-2.8c5.8-1.6,11.7-2.9,17.1-5.7c1-0.5,2-1.1,2.9-1.7c12.2-8.1,18-25,16-40.4
			c-0.4-2.8-0.3-5.6-0.3-8.4c0-1.3,0.1-2.7,0.1-4c0-1.4-0.2-2.9,0.2-4.3c0.2-0.6,0.7-1.7-0.2-1.3c-0.4,0.2-1-0.1-1.5-0.2
			C833,188.8,832.9,188.7,832.4,190.3z"/>
		<path class="st18" d="M835.8,189.6c0.8,0.4,1.5,0.8,2.3,1.2c3.3-9.4,10.1-15,20.2-16.2c0.7-0.1,1.4-1,2-1.5
			c-0.5-0.3-3.2-0.1-3.8-0.2c-5.2,1.1-8,1.2-13.5,5.8C839.7,181.5,837.6,185.3,835.8,189.6z"/>
		<path class="st19" d="M832.5,189.9c0.9,0.4,1.9,0.9,2.8,1.3c0.2-0.8,0.5-1.8,0.9-2.5c4.7-9.1,11.5-14.9,22.2-16.2
			c0.8-0.1,1.6-1.1,2.3-1.7c-0.6-0.4-3.7-0.1-4.4-0.2c-6,1.2-9.2,1.4-15.5,6.6C837,180.5,834.5,184.9,832.5,189.9z"/>
	</g>
	<g>
		<path class="st1" d="M856,209.3c-7.8,3-16,1-23.9,1.8c-16,1.7-33.9,12.9-34,29.1c-0.1,8,0.8,11.9-4.6,18.3c-2,2.4-5.2,7.9-8.6,8.7
			c-3.1,0.8-7.6-0.9-8.5-3.4c-1-2.6,3.7-7,5.3-9.4c1.7-2.5,3-5.2,4.2-7.9c2.4-5.5,4.1-11.2,6.7-16.6c3.1-6.6,7.6-12.6,13.7-16.6
			c10.2-6.7,23.2-6.9,35-6c4.5,0.3,9.3-0.2,13.7-0.6c1.5-0.4,1.7-0.2,2.1,1C857.2,208.7,856.8,209.2,856,209.3z"/>
		<path class="st6" d="M855.5,212.8c-9,3.5-18.4,1.2-27.6,2.1c-18.5,1.9-29.1,13.1-29.2,31.8c-0.1,9.2-2.7,14.9-8.9,22.3
			c-10.2,12.1-10.2,15-17.3,1.1c-3.2-6.3,0.5-9.9,4.9-7.7c1.7,0.8,3.5,2,4.8,3.4c0.2,0.3,0.7,0.8,1,1c0.8,0.4,1.6-1,2.1-1.7
			c2-2.4,3.8-4.8,5.1-7.7c1.1-2.6,1.8-5.3,2.4-8.1c1.3-5.9,2.2-11.9,4.7-17.4c0.5-1,1-2,1.5-3c7.4-12.6,23.9-19.4,39.5-18.2
			c2.8,0.2,5.6,0,8.4-0.2c1.3-0.1,2.7-0.3,4-0.4c1.4-0.1,2.9,0,4.3-0.5c0.6-0.2,1.6-0.8,1.3,0.1c-0.2,0.4,0.2,1,0.3,1.4
			C856.9,212.1,857,212.2,855.5,212.8z"/>
		<path class="st1" d="M856,209.3c-0.4-0.7-0.9-1.5-1.3-2.2c9.2-3.8,14.4-10.9,15.1-21.1c0-0.7,0.9-1.4,1.3-2.1
			c0.4,0.5,0.2,3.2,0.4,3.8c-0.8,5.3-0.8,8-5,13.8C863.9,205,860.1,207.3,856,209.3z"/>
		<path class="st6" d="M855.9,212.6c-0.5-0.8-1-1.9-1.5-2.7c0.8-0.3,1.8-0.6,2.5-1c8.8-5.2,14.2-12.3,14.9-23.1
			c0.1-0.8,1-1.6,1.5-2.4c0.4,0.6,0.3,3.7,0.5,4.4c-0.9,6.1-0.9,9.2-5.8,15.9C865,207.7,860.7,210.4,855.9,212.6z"/>
	</g>
</g>
</svg>
