<svg viewBox="0 0 512 512" fill="none" xmlns="http://www.w3.org/2000/svg" xmlns:anim="http://www.w3.org/2000/anim" anim="" anim:transform-origin="50% 50%" anim:duration="0.1" anim:ease="power1.inOut">
  <g id="7efdbb4a" clip-path="url(#2a9580df)">
    <g id="7428f92f" filter="url(#dd0a1fa4)">
      <circle cx="256.177" cy="255.823" r="233.489" fill="#E6BD40"></circle>
    </g>
    <g id="9a0c3a48">
      <g id="10c944ca">
        <path id="e685aa9b" d="M465.545 64.2134L449.104 47.7725L86.6436 410.082L103.084 426.523L465.545 64.2134Z" fill="#A7D2D7"></path>
        <path id="a3dda788" d="M465.544 64.2123L457.323 55.9913L94.8621 418.299L103.083 426.52L465.544 64.2123Z" fill="#7BA0B0"></path>
        <path id="ab2db5b8" d="M446.329 11.6147L500.833 66.1191L433.931 133.021L379.427 78.5167L446.329 11.6147Z" fill="#C7E2E5"></path>
        <path id="84e9f189" d="M407.335 106.57L474.237 39.6685L500.819 66.2506L433.917 133.153L407.335 106.57Z" fill="#A7D2D7"></path>
      </g>
      <g id="84abcb2b">
        <path id="1744e33a" d="M24.2518 489.231C2.78909 467.768 4.06124 432.597 27.0196 412.742L147.734 313.924L199.559 365.749L100.74 486.464C80.8846 509.422 45.7145 510.695 24.2518 489.231Z" fill="#F2D747"></path>
        <path id="e7425be3" d="M24.2507 489.23L24.2517 489.231C45.7143 510.694 80.8854 509.422 100.741 486.463L225.722 339.586L199.808 313.672L24.2507 489.23Z" fill="#F2C94C"></path>
        <path id="b8a897f2" d="M82.8245 450.165L35.3147 497.685C31.3594 495.44 27.634 492.616 24.249 489.231C20.864 485.846 18.0493 482.121 15.7957 478.175L63.3147 430.656C68.705 425.265 77.4435 425.265 82.8245 430.656C88.2148 436.046 88.2148 444.784 82.8245 450.165Z" fill="#F2C94C"></path>
        <path id="5a9bdcbc" d="M170.743 400.954L151.564 424.382L89.1069 361.925L112.535 342.746L170.743 400.954Z" fill="#F2C94C"></path>
        <path id="59997a23" d="M24.249 489.231C27.634 492.616 31.3594 495.44 35.3147 497.685L82.8246 450.165C88.2148 444.784 88.2148 436.046 82.8246 430.656L24.249 489.231Z" fill="#E4BA37"></path>
        <path id="73b96534" d="M120.331 393.149L151.564 424.382L170.743 400.954L141.635 371.845L120.331 393.149Z" fill="#E4BA37"></path>
      </g>
    </g>
    <g id="7ec7dc63">
      <path id="da6f63c7" d="M454.761 504.011L399.171 448.191L448.805 398.35L504.396 454.171C519.13 419.61 512.452 378.025 484.354 349.811C462.853 328.22 436.384 322.057 410.742 328.014C402.179 330.003 382.91 337.64 376.694 331.398L180.232 134.12C174.117 127.98 181.704 108.815 183.519 100.326C188.935 75.0012 182.649 48.9738 161.523 27.7605C133.425 -0.453779 92.0128 -7.15905 57.5934 7.63533L113.184 63.4561L63.5495 113.296L7.95799 57.4763C-6.7764 92.0372 -1.35052 132.181 26.7484 160.397C48.2499 181.987 75.9702 189.59 101.611 183.633C110.174 181.644 119.151 184.342 125.367 190.583L321.831 387.861C327.945 394.001 330.651 402.831 328.835 411.32C323.42 436.645 329.705 462.672 350.832 483.885C378.93 512.1 420.342 518.806 454.761 504.011Z" fill="#E4EBEF"></path>
      <path id="1f7cb2f2" d="M423.24 424.021L88.9301 87.8095L113.183 63.4564L57.5923 7.63562C92.0116 -7.1598 133.424 -0.454527 161.521 27.7597C182.647 48.9741 188.934 75.0015 183.518 100.326C181.702 108.815 184.408 117.645 190.523 123.785L386.987 321.063C393.202 327.304 402.178 330.002 410.742 328.013C436.383 322.056 462.852 328.22 484.354 349.81C512.452 378.026 519.131 419.609 504.395 454.17L448.805 398.349L423.24 424.021Z" fill="#C7E2E5"></path>
    </g>
    <g id="b3234b4b">
      <g id="b28130ef" filter="url(#24ff0a74)" anim="" anim:opacity="0|1" anim:delay="0" anim:duration="0.5">
        <mask id="03122865" style="mask-type:alpha" maskUnits="userSpaceOnUse" x="22" y="22" width="468" height="468">
          <circle id="c3556680" cx="256.177" cy="255.823" r="233.489" fill="#7C6E42"></circle>
        </mask>
        <g mask="url(#03122865)">
          <path id="9d9411ca" d="M477.484 183.455V328.191C477.484 335.324 471.435 341.097 463.982 341.097H30.0992C22.6458 341.097 16.5967 335.324 16.5967 328.191V183.455C16.5967 176.322 22.6458 170.549 30.0992 170.549H463.982C471.435 170.549 477.484 176.322 477.484 183.455Z" fill="#EBC03C"></path>
          <path id="ba3fcb0c" d="M499.818 183.455V328.191C499.818 335.324 493.445 341.097 485.592 341.097H256.177V170.549H485.592C493.445 170.549 499.818 176.322 499.818 183.455Z" fill="#F2C94C"></path>
        </g>
      </g>
      <path id="97d3f725" d="M148.284 279.937C141.108 279.937 135.29 285.755 135.29 292.931C135.29 300.107 141.108 305.925 148.284 305.925H190.868C198.044 305.925 203.862 300.107 203.862 292.931V255.918C203.862 248.742 198.044 242.924 190.868 242.924H161.279V231.9H190.868C198.044 231.9 203.862 226.082 203.862 218.906C203.862 211.729 198.044 205.912 190.868 205.912H148.284C141.108 205.912 135.29 211.729 135.29 218.906V255.918C135.29 263.095 141.108 268.913 148.284 268.913H177.874V279.937H148.284Z" fill="white" anim="" anim:y="-50|0" anim:opacity="0|1" anim:delay="0.2" anim:duration="0.5"></path>
      <path id="55e295e2" d="M289.624 218.902V263.299C289.624 283.925 274.897 301.181 255.406 305.097C252.686 305.643 249.879 305.929 247.003 305.929H234.043C226.871 305.929 221.049 300.107 221.049 292.934V218.902C221.049 211.729 226.871 205.908 234.043 205.908C241.225 205.908 247.038 211.729 247.038 218.902V279.94C250.096 279.932 252.946 279.1 255.406 277.653C260.326 274.76 263.636 269.406 263.636 263.299V218.902C263.636 211.729 269.457 205.908 276.63 205.908C283.803 205.908 289.624 211.729 289.624 218.902Z" fill="white" anim="" anim:y="-50|0" anim:opacity="0|1" anim:delay="0.4" anim:duration="0.5"></path>
      <path id="d8cd7fe1" d="M347.266 305.925H362.528C369.704 305.925 375.522 300.107 375.522 292.931V264.581C375.522 257.405 369.704 251.587 362.528 251.587C355.351 251.587 349.533 257.405 349.533 264.581V279.937H347.266C339.366 279.937 332.938 273.51 332.938 265.609V231.9H362.528C369.704 231.9 375.522 226.082 375.522 218.906C375.522 211.729 369.704 205.912 362.528 205.912H319.944C312.768 205.912 306.95 211.729 306.95 218.906V265.609C306.95 287.839 325.036 305.925 347.266 305.925Z" fill="white" anim="" anim:y="-50|0" anim:opacity="0|1" anim:delay="0.6" anim:duration="0.5"></path>
    </g>
  </g>
  <defs>
    <filter id="dd0a1fa4" x="18.6877" y="22.3338" width="474.979" height="474.979" filterUnits="userSpaceOnUse" color-interpolation-filters="sRGB">
      <feFlood flood-opacity="0" result="BackgroundImageFix"></feFlood>
      <feColorMatrix in="SourceAlpha" type="matrix" values="0 0 0 0 0 0 0 0 0 0 0 0 0 0 0 0 0 0 127 0" result="hardAlpha"></feColorMatrix>
      <feOffset dy="4"></feOffset>
      <feGaussianBlur stdDeviation="2"></feGaussianBlur>
      <feColorMatrix type="matrix" values="0 0 0 0 0 0 0 0 0 0 0 0 0 0 0 0 0 0 0.15 0"></feColorMatrix>
      <feBlend mode="normal" in2="BackgroundImageFix" result="effect1_dropShadow_20_573"></feBlend>
      <feBlend mode="normal" in="SourceGraphic" in2="effect1_dropShadow_20_573" result="shape"></feBlend>
    </filter>
    <filter id="24ff0a74" x="-1.31226" y="150.549" width="514.979" height="218.549" filterUnits="userSpaceOnUse" color-interpolation-filters="sRGB">
      <feFlood flood-opacity="0" result="BackgroundImageFix"></feFlood>
      <feColorMatrix in="SourceAlpha" type="matrix" values="0 0 0 0 0 0 0 0 0 0 0 0 0 0 0 0 0 0 127 0" result="hardAlpha"></feColorMatrix>
      <feOffset dy="4"></feOffset>
      <feGaussianBlur stdDeviation="12"></feGaussianBlur>
      <feColorMatrix type="matrix" values="0 0 0 0 0 0 0 0 0 0 0 0 0 0 0 0 0 0 0.1 0"></feColorMatrix>
      <feBlend mode="normal" in2="BackgroundImageFix" result="effect1_dropShadow_20_573"></feBlend>
      <feBlend mode="normal" in="SourceGraphic" in2="effect1_dropShadow_20_573" result="shape"></feBlend>
    </filter>
    <clipPath id="2a9580df">
      <rect width="512" height="512" fill="white"></rect>
    </clipPath>
  </defs>
</svg>