<?xml version="1.0" encoding="UTF-8"?>
<svg id="Layer_1" data-name="Layer 1" xmlns="http://www.w3.org/2000/svg" viewBox="0 0 3840 2160">
  <defs>
    <style>
      .cls-1 {
        fill: none;
      }

      .cls-1, .cls-2, .cls-3, .cls-4 {
        stroke-width: 0px;
      }

      .cls-2 {
        fill: #8bc3c2;
      }

      .cls-3 {
        fill: #fbf3e3;
      }

      .cls-4 {
        fill: #fbf4e4;
      }
    </style>
  </defs>
  <rect class="cls-2" x="-468.54" y="-90.12" width="4918.81" height="1186.22"/>
  <rect class="cls-3" x="-450.01" y="1051.9" width="4901.7" height="1201.9"/>
  <path class="cls-3" d="m1752.83,1008.9c-8.1,0-15.66,2.32-22.05,6.33,1.53-3.77,2.37-7.9,2.37-12.22,0-17.97-9.49-24.53-27.45-24.53-7.14,0-28.51,33.15-23.88,13.19.3-1.28-.94-9.6-1.07-11.41-3.49-25.21-25.61-47.25-51.78-47.25-28.62,0-51.81,23.2-51.81,51.81,0,1.44.05,2.87.18,4.28-2.71-.57-5.54-.87-8.43-.87-21.06,0-38.4,15.89-40.7,36.33-1-.4-2.03-.76-3.07-1.07-6.09-7.41-15.32-12.14-25.66-12.14s-19.64,4.76-25.72,12.21c-4.76-23.64-25.63-41.43-50.68-41.43-10.52,0-20.32,3.14-28.48,8.55.11-.89.16-1.8.16-2.73,0-12.92-10.47-23.41-23.39-23.41-3.23,0-6.32.65-9.14,1.85-1.04-17.75-15.77-31.83-33.78-31.83-12.05,0-22.63,6.31-28.63,15.82-6.29-2.93-13.31-4.55-20.71-4.55-13.98,0-26.59,5.82-35.56,15.15-10.63-22.91-33.82-38.81-60.74-38.81-22.48,0-42.36,11.1-54.5,28.1-5.15-3.71-11.45-5.92-18.28-5.92-14.65,0-26.95,10.06-30.38,23.64-5.76-15.2-20.46-25.98-37.68-25.98-9.42,0-18.09,3.23-24.95,8.64-2.66,2.08-5.04,4.48-7.07,7.17-1.95-3.38-4.21-6.56-6.76-9.47-11.02-12.63-27.26-20.59-45.32-20.59-27.96,0-51.43,19.04-58.2,44.87-.3,1.08-.55,2.2-.8,3.31-2.38-.7-4.91-1.08-7.54-1.08-14.86,0-26.91,12.05-26.91,26.91,0,2.56.35,5.01,1,7.34-1.45-.15-2.96-.23-4.46-.23-3.51,0-6.94.35-10.22,1.05-9.38,1.93-17.81,6.47-24.5,12.81-5.15-20.71-23.87-36.06-46.17-36.06-3.32,0-6.56.34-9.69.99-.32-34.2-28.15-61.83-62.43-61.83s-59.63,25.23-62.22,57.32c-3.88-2.04-8.31-3.2-13.01-3.2-15.46,0-27.99,12.53-27.99,27.99,0,2.65.37,5.22,1.06,7.66-.35,0-.71-.01-1.06-.01-20.82,0-37.7,16.88-37.7,37.7s16.88,37.7,37.7,37.7h507.01c.65-.34,1.28-.72,1.91-1.09,8.09,21.66,28.95,37.09,53.43,37.09,19.79,0,37.22-10.08,47.45-25.38,4.8,2.99,10.45,4.74,16.52,4.74,11.47,0,21.49-6.17,26.95-15.37h248.89c2.66.65,5.44,1,8.3,1h237.62c22.94,0,41.54-18.61,41.54-41.54s-18.61-41.54-41.54-41.54Z"/>
  <path class="cls-3" d="m1766.31,1017.68c0,25.49-22.09,43.84-47.58,43.84s-48.3-18.71-48.3-44.2,22.8-48.12,48.3-48.12,47.58,22.98,47.58,48.48Z"/>
  <circle class="cls-3" cx="2145.79" cy="1069.01" r="83.41"/>
  <ellipse class="cls-3" cx="1900.17" cy="1050.57" rx="19.01" ry="14.18"/>
  <path class="cls-3" d="m2076.94,1095.47c-11.52,17.47-21.55,19.91-35.14,30.3-14.24,10.89-30.23-12.25-30.23-30.3s14.63-32.69,32.69-32.69,42.62,17.62,32.69,32.69Z"/>
  <path class="cls-1" d="m1954,1008.93c0,.53-10.38.95-23.2.95"/>
  <path class="cls-1" d="m1930.8,1009.88c0-2.45,5.53-4.43,12.36-4.43"/>
  <ellipse class="cls-3" cx="1965.38" cy="1101.57" rx="45.77" ry="42.14"/>
  <path class="cls-4" d="m1762.19,1035.58c-13.11-6.18-27.31-7.75-41.47-3.91l.16-62.48c10.37.24,18.98,4.01,26.37,10.35.16.14,2.91,2.89,3.11,2.83s-.78.23-.77.91c.02,1.34.62,1.94.73,3.04.43,4.43-.72,6.13,0,10.51,1.08,6.59,5.57,17.22,8.12,23.38,2.28,5.52-1.6,10.01,1.52,15.06.48.77,7.69.9,7.09,1.67-.75.96-1.52.17-2.23-.15-.88-.38-1.72-.88-2.63-1.21Z"/>
  <path class="cls-3" d="m759.42,1007.71c-8.1,0-15.66,2.32-22.05,6.33,1.53-3.77,2.37-7.9,2.37-12.22,0-17.97-14.56-32.52-32.52-32.52-7.7,0-14.78,2.68-20.35,7.15-3.49-25.21-25.13-44.63-51.3-44.63-28.62,0-51.81,23.2-51.81,51.81,0,1.44.05,2.87.18,4.28-2.71-.57-5.54-.87-8.43-.87-21.06,0-38.4,15.89-40.7,36.33-1-.4-2.03-.76-3.07-1.07-6.09-7.41-15.32-12.14-25.66-12.14s-19.64,4.76-25.72,12.21c-4.76-23.64-25.63-41.43-50.68-41.43-10.52,0-20.32,3.14-28.48,8.55.11-.89.16-1.8.16-2.73,0-12.92-10.47-23.41-23.39-23.41-3.23,0-6.32.65-9.14,1.85-1.04-17.75-15.77-31.83-33.78-31.83-12.05,0-22.63,6.31-28.63,15.82-6.29-2.93-13.31-4.55-20.71-4.55-13.98,0-26.59,5.82-35.56,15.15-10.63-22.91-33.82-38.81-60.74-38.81-22.48,0-42.36,11.1-54.5,28.1-5.15-3.71-11.45-5.92-18.28-5.92-14.65,0-26.95,10.06-30.38,23.64-5.76-15.2-20.46-25.98-37.68-25.98-9.42,0-18.09,3.23-24.95,8.64-2.66,2.08-5.04,4.48-7.07,7.17-1.95-3.38-4.21-6.56-6.76-9.47-11.02-12.63-27.26-20.59-45.32-20.59-27.96,0-51.43,19.04-58.2,44.87-.3,1.08-.55,2.2-.8,3.31-2.38-.7-4.91-1.08-7.54-1.08-14.86,0-26.91,12.05-26.91,26.91,0,2.56.35,5.01,1,7.34-1.45-.15-2.96-.23-4.46-.23-3.51,0-6.94.35-10.22,1.05-9.38,1.93-17.81,6.47-24.5,12.81-5.15-20.71-23.87-36.06-46.17-36.06-3.32,0-6.56.34-9.69.99-.32-34.2-28.15-61.83-62.43-61.83s-59.63,25.23-62.22,57.32c-3.88-2.04-8.31-3.2-13.01-3.2-15.46,0-27.99,12.53-27.99,27.99,0,2.65.37,5.22,1.06,7.66-.35,0-.71-.01-1.06-.01-20.82,0-37.7,16.88-37.7,37.7s16.88,37.7,37.7,37.7H118.35c.65-.34,1.28-.72,1.91-1.09,8.09,21.66,28.95,37.09,53.43,37.09,19.79,0,37.22-10.08,47.45-25.38,4.8,2.99,10.45,4.74,16.52,4.74,11.47,0,21.49-6.17,26.95-15.37h248.89c2.66.65,5.44,1,8.3,1h237.62c22.94,0,41.54-18.61,41.54-41.54s-18.61-41.54-41.54-41.54Z"/>
  <path class="cls-3" d="m3291.65,1030.4c-8.1,0-15.66,2.32-22.05,6.33,1.53-3.77,2.37-7.9,2.37-12.22,0-17.97-14.56-32.52-32.52-32.52-7.7,0-14.78,2.68-20.35,7.15-3.49-25.21-25.13-44.63-51.3-44.63-28.62,0-51.81,23.2-51.81,51.81,0,1.44.05,2.87.18,4.28-2.71-.57-5.54-.87-8.43-.87-21.06,0-38.4,15.89-40.7,36.33-1-.4-2.03-.76-3.07-1.07-6.09-7.41-15.32-12.14-25.66-12.14s-19.64,4.76-25.72,12.21c-4.76-23.64-25.63-41.43-50.68-41.43-10.52,0-20.32,3.14-28.48,8.55.11-.89.16-1.8.16-2.73,0-12.92-10.47-23.41-23.39-23.41-3.23,0-6.32.65-9.14,1.85-1.04-17.75-15.77-31.83-33.78-31.83-12.05,0-22.63,6.31-28.63,15.82-6.29-2.93-13.31-4.55-20.71-4.55-13.98,0-26.59,5.82-35.56,15.15-10.63-22.91-33.82-38.81-60.74-38.81-22.48,0-42.36,11.1-54.5,28.1-5.15-3.71-11.45-5.92-18.28-5.92-14.65,0-26.95,10.06-30.38,23.64-5.76-15.2-20.46-25.98-37.68-25.98-9.42,0-18.09,3.23-24.95,8.64-2.66,2.08-5.04,4.48-7.07,7.17-1.95-3.38-4.21-6.56-6.76-9.47-11.02-12.63-27.26-20.59-45.32-20.59-27.96,0-51.43,19.04-58.2,44.87-.3,1.08-.55,2.2-.8,3.31-2.38-.7-4.91-1.08-7.54-1.08-14.86,0-26.91,12.05-26.91,26.91,0,2.56.35,5.01,1,7.34-1.45-.15-2.96-.23-4.46-.23-3.51,0-6.94.35-10.22,1.05-9.38,1.93-17.81,6.47-24.5,12.81-5.15-20.71-23.87-36.06-46.17-36.06-3.32,0-6.56.34-9.69.99-.32-34.2-28.15-61.83-62.43-61.83s-59.63,25.23-62.22,57.32c-3.88-2.04-8.31-3.2-13.01-3.2-15.46,0-27.99,12.53-27.99,27.99,0,2.65.37,5.22,1.06,7.66-.35,0-.71-.01-1.06-.01-20.82,0-37.7,16.88-37.7,37.7s16.88,37.7,37.7,37.7h507.01c.65-.34,1.28-.72,1.91-1.09,8.09,21.66,28.95,37.09,53.43,37.09,19.79,0,37.22-10.08,47.45-25.38,4.8,2.99,10.45,4.74,16.52,4.74,11.47,0,21.49-6.17,26.95-15.37h248.89c2.66.65,5.44,1,8.3,1h237.62c22.94,0,41.54-18.61,41.54-41.54s-18.61-41.54-41.54-41.54Z"/>
  <path class="cls-3" d="m4325.56,1030.46c-8.1,0-15.66,2.32-22.05,6.33,1.53-3.77,2.37-7.9,2.37-12.22,0-17.97-14.56-32.52-32.52-32.52-7.7,0-14.78,2.68-20.35,7.15-3.49-25.21-25.13-44.63-51.3-44.63-28.62,0-51.81,23.2-51.81,51.81,0,1.44.05,2.87.18,4.28-2.71-.57-5.54-.87-8.43-.87-21.06,0-38.4,15.89-40.7,36.33-1-.4-2.03-.76-3.07-1.07-6.09-7.41-15.32-12.14-25.66-12.14s-19.64,4.76-25.72,12.21c-4.76-23.64-25.63-41.43-50.68-41.43-10.52,0-20.32,3.14-28.48,8.55.11-.89.16-1.8.16-2.73,0-12.92-10.47-23.41-23.39-23.41-3.23,0-6.32.65-9.14,1.85-1.04-17.75-15.77-31.83-33.78-31.83-12.05,0-22.63,6.31-28.63,15.82-6.29-2.93-13.31-4.55-20.71-4.55-13.98,0-26.59,5.82-35.56,15.15-10.63-22.91-33.82-38.81-60.74-38.81-22.48,0-42.36,11.1-54.5,28.1-5.15-3.71-11.45-5.92-18.28-5.92-14.65,0-26.95,10.06-30.38,23.64-5.76-15.2-20.46-25.98-37.68-25.98-9.42,0-18.09,3.23-24.95,8.64-2.66,2.08-5.04,4.48-7.07,7.17-1.95-3.38-4.21-6.56-6.76-9.47-11.02-12.63-27.26-20.59-45.32-20.59-27.96,0-51.43,19.04-58.2,44.87-.3,1.08-.55,2.2-.8,3.31-2.38-.7-4.91-1.08-7.54-1.08-14.86,0-26.91,12.05-26.91,26.91,0,2.56.35,5.01,1,7.34-1.45-.15-2.96-.23-4.46-.23-3.51,0-6.94.35-10.22,1.05-9.38,1.93-17.81,6.47-24.5,12.81-5.15-20.71-23.87-36.06-46.17-36.06-3.32,0-6.56.34-9.69.99-.32-34.2-28.15-61.83-62.43-61.83s-59.63,25.23-62.22,57.32c-3.88-2.04-8.31-3.2-13.01-3.2-15.46,0-27.99,12.53-27.99,27.99,0,2.65.37,5.22,1.06,7.66-.35,0-.71-.01-1.06-.01-20.82,0-37.7,16.88-37.7,37.7s16.88,37.7,37.7,37.7h507.01c.65-.34,1.28-.72,1.91-1.09,8.09,21.66,28.95,37.09,53.43,37.09,19.79,0,37.22-10.08,47.45-25.38,4.8,2.99,10.45,4.74,16.52,4.74,11.47,0,21.49-6.17,26.95-15.37h248.89c2.66.65,5.44,1,8.3,1h237.62c22.94,0,41.54-18.61,41.54-41.54s-18.61-41.54-41.54-41.54Z"/>
  <circle class="cls-3" cx="1808.37" cy="1054.04" r="60.59"/>
  <circle class="cls-3" cx="1899.26" cy="1046.55" r="63.09"/>
  <circle class="cls-3" cx="2026.44" cy="1073.48" r="70.57"/>
</svg>