<?xml version="1.0" encoding="utf-8"?>
<!-- Generator: Adobe Illustrator 27.8.1, SVG Export Plug-In . SVG Version: 6.00 Build 0)  -->
<svg version="1.1" xmlns="http://www.w3.org/2000/svg" xmlns:xlink="http://www.w3.org/1999/xlink" x="0px" y="0px"
	 viewBox="0 0 3840 2160" style="enable-background:new 0 0 3840 2160;" xml:space="preserve">
<style type="text/css">
	.st0{fill:#8BC3C2;}
	.st1{fill:#FBF3E3;}
	.st2{fill:#1B2637;}
	.st3{fill:none;}
	.st4{fill:#FBF4E4;}
	.st5{display:none;}
	.st6{display:inline;fill:#D76460;}
	.st7{display:inline;fill:#FBF3E3;}
</style>
<g id="Layer_1">
	<rect x="-468.5" y="-90.1" class="st0" width="4918.8" height="1186.2"/>
	<rect x="-471.4" y="765.3" class="st1" width="4901.7" height="1475.5"/>
	<path class="st1" d="M1731.4,722.3c-8.1,0-15.7,2.3-22,6.3c1.5-3.8,2.4-7.9,2.4-12.2c0-18-9.5-24.5-27.4-24.5
		c-7.1,0-28.5,33.1-23.9,13.2c0.3-1.3-0.9-9.6-1.1-11.4c-3.5-25.2-25.6-47.2-51.8-47.2c-28.6,0-51.8,23.2-51.8,51.8
		c0,1.4,0.1,2.9,0.2,4.3c-2.7-0.6-5.5-0.9-8.4-0.9c-21.1,0-38.4,15.9-40.7,36.3c-1-0.4-2-0.8-3.1-1.1c-6.1-7.4-15.3-12.1-25.7-12.1
		c-10.4,0-19.6,4.8-25.7,12.2c-4.8-23.6-25.6-41.4-50.7-41.4c-10.5,0-20.3,3.1-28.5,8.6c0.1-0.9,0.2-1.8,0.2-2.7
		c0-12.9-10.5-23.4-23.4-23.4c-3.2,0-6.3,0.7-9.1,1.9c-1-17.8-15.8-31.8-33.8-31.8c-12,0-22.6,6.3-28.6,15.8
		c-6.3-2.9-13.3-4.6-20.7-4.6c-14,0-26.6,5.8-35.6,15.2c-10.6-22.9-33.8-38.8-60.7-38.8c-22.5,0-42.4,11.1-54.5,28.1
		c-5.1-3.7-11.4-5.9-18.3-5.9c-14.7,0-27,10.1-30.4,23.6c-5.8-15.2-20.5-26-37.7-26c-9.4,0-18.1,3.2-25,8.6c-2.7,2.1-5,4.5-7.1,7.2
		c-2-3.4-4.2-6.6-6.8-9.5c-11-12.6-27.3-20.6-45.3-20.6c-28,0-51.4,19-58.2,44.9c-0.3,1.1-0.6,2.2-0.8,3.3c-2.4-0.7-4.9-1.1-7.5-1.1
		c-14.9,0-26.9,12.1-26.9,26.9c0,2.6,0.4,5,1,7.3c-1.5-0.2-3-0.2-4.5-0.2c-3.5,0-6.9,0.4-10.2,1.1c-9.4,1.9-17.8,6.5-24.5,12.8
		c-5.2-20.7-23.9-36.1-46.2-36.1c-3.3,0-6.6,0.3-9.7,1c-0.3-34.2-28.2-61.8-62.4-61.8c-32.8,0-59.6,25.2-62.2,57.3
		c-3.9-2-8.3-3.2-13-3.2c-15.5,0-28,12.5-28,28c0,2.7,0.4,5.2,1.1,7.7c-0.4,0-0.7,0-1.1,0c-20.8,0-37.7,16.9-37.7,37.7
		c0,20.8,16.9,37.7,37.7,37.7h217h22.8h267.2c0.6-0.3,1.3-0.7,1.9-1.1c8.1,21.7,28.9,37.1,53.4,37.1c19.8,0,37.2-10.1,47.4-25.4
		c4.8,3,10.4,4.7,16.5,4.7c11.5,0,21.5-6.2,27-15.4h248.9c2.7,0.6,5.4,1,8.3,1h237.6c22.9,0,41.5-18.6,41.5-41.5
		S1754.4,722.3,1731.4,722.3z"/>
	<path class="st1" d="M1744.9,731.1c0,25.5-22.1,43.8-47.6,43.8s-48.3-18.7-48.3-44.2c0-25.5,22.8-48.1,48.3-48.1
		S1744.9,705.6,1744.9,731.1z"/>
	<circle class="st1" cx="2124.4" cy="782.4" r="83.4"/>
	<ellipse class="st1" cx="1878.8" cy="764" rx="19" ry="14.2"/>
	<path class="st1" d="M2055.6,808.9c-11.5,17.5-21.6,19.9-35.1,30.3c-14.2,10.9-30.2-12.2-30.2-30.3c0-18.1,14.6-32.7,32.7-32.7
		S2065.5,793.8,2055.6,808.9z"/>
	<path class="st3" d="M1932.6,722.4c0,0.5-10.4,1-23.2,1"/>
	<path class="st3" d="M1909.4,723.3c0-2.4,5.5-4.4,12.4-4.4"/>
	<ellipse class="st1" cx="1944" cy="815" rx="45.8" ry="42.1"/>
	<path class="st4" d="M1740.8,749c-13.1-6.2-27.3-7.7-41.5-3.9l0.2-62.5c10.4,0.2,19,4,26.4,10.4c0.2,0.1,2.9,2.9,3.1,2.8
		c0.2-0.1-0.8,0.2-0.8,0.9c0,1.3,0.6,1.9,0.7,3c0.4,4.4-0.7,6.1,0,10.5c1.1,6.6,5.6,17.2,8.1,23.4c2.3,5.5-1.6,10,1.5,15.1
		c0.5,0.8,7.7,0.9,7.1,1.7c-0.7,1-1.5,0.2-2.2-0.1C1742.6,749.8,1741.7,749.3,1740.8,749z"/>
	<path class="st1" d="M738,721.1c-8.1,0-15.7,2.3-22,6.3c1.5-3.8,2.4-7.9,2.4-12.2c0-18-14.6-32.5-32.5-32.5
		c-7.7,0-14.8,2.7-20.4,7.2c-3.5-25.2-25.1-44.6-51.3-44.6c-28.6,0-51.8,23.2-51.8,51.8c0,1.4,0.1,2.9,0.2,4.3
		c-2.7-0.6-5.5-0.9-8.4-0.9c-21.1,0-38.4,15.9-40.7,36.3c-1-0.4-2-0.8-3.1-1.1c-6.1-7.4-15.3-12.1-25.7-12.1
		c-10.4,0-19.6,4.8-25.7,12.2c-4.8-23.6-25.6-41.4-50.7-41.4c-10.5,0-20.3,3.1-28.5,8.6c0.1-0.9,0.2-1.8,0.2-2.7
		c0-12.9-10.5-23.4-23.4-23.4c-3.2,0-6.3,0.7-9.1,1.9c-1-17.8-15.8-31.8-33.8-31.8c-12,0-22.6,6.3-28.6,15.8
		c-6.3-2.9-13.3-4.6-20.7-4.6c-14,0-26.6,5.8-35.6,15.2c-10.6-22.9-33.8-38.8-60.7-38.8c-22.5,0-42.4,11.1-54.5,28.1
		c-5.1-3.7-11.4-5.9-18.3-5.9c-14.7,0-27,10.1-30.4,23.6c-5.8-15.2-20.5-26-37.7-26c-9.4,0-18.1,3.2-25,8.6c-2.7,2.1-5,4.5-7.1,7.2
		c-2-3.4-4.2-6.6-6.8-9.5C-22.6,648-38.9,640-56.9,640c-28,0-51.4,19-58.2,44.9c-0.3,1.1-0.6,2.2-0.8,3.3c-2.4-0.7-4.9-1.1-7.5-1.1
		c-14.9,0-26.9,12.1-26.9,26.9c0,2.6,0.4,5,1,7.3c-1.5-0.2-3-0.2-4.5-0.2c-3.5,0-6.9,0.4-10.2,1.1c-9.4,1.9-17.8,6.5-24.5,12.8
		c-5.2-20.7-23.9-36.1-46.2-36.1c-3.3,0-6.6,0.3-9.7,1c-0.3-34.2-28.2-61.8-62.4-61.8c-32.8,0-59.6,25.2-62.2,57.3
		c-3.9-2-8.3-3.2-13-3.2c-15.5,0-28,12.5-28,28c0,2.7,0.4,5.2,1.1,7.7c-0.4,0-0.7,0-1.1,0c-20.8,0-37.7,16.9-37.7,37.7
		c0,20.8,16.9,37.7,37.7,37.7h217h22.8H97c0.6-0.3,1.3-0.7,1.9-1.1c8.1,21.7,28.9,37.1,53.4,37.1c19.8,0,37.2-10.1,47.4-25.4
		c4.8,3,10.4,4.7,16.5,4.7c11.5,0,21.5-6.2,27-15.4h248.9c2.7,0.6,5.4,1,8.3,1H738c22.9,0,41.5-18.6,41.5-41.5S761,721.1,738,721.1z
		"/>
	<path class="st1" d="M3270.3,743.8c-8.1,0-15.7,2.3-22,6.3c1.5-3.8,2.4-7.9,2.4-12.2c0-18-14.6-32.5-32.5-32.5
		c-7.7,0-14.8,2.7-20.4,7.2c-3.5-25.2-25.1-44.6-51.3-44.6c-28.6,0-51.8,23.2-51.8,51.8c0,1.4,0.1,2.9,0.2,4.3
		c-2.7-0.6-5.5-0.9-8.4-0.9c-21.1,0-38.4,15.9-40.7,36.3c-1-0.4-2-0.8-3.1-1.1c-6.1-7.4-15.3-12.1-25.7-12.1
		c-10.4,0-19.6,4.8-25.7,12.2c-4.8-23.6-25.6-41.4-50.7-41.4c-10.5,0-20.3,3.1-28.5,8.6c0.1-0.9,0.2-1.8,0.2-2.7
		c0-12.9-10.5-23.4-23.4-23.4c-3.2,0-6.3,0.7-9.1,1.9c-1-17.8-15.8-31.8-33.8-31.8c-12,0-22.6,6.3-28.6,15.8
		c-6.3-2.9-13.3-4.6-20.7-4.6c-14,0-26.6,5.8-35.6,15.2c-10.6-22.9-33.8-38.8-60.7-38.8c-22.5,0-42.4,11.1-54.5,28.1
		c-5.1-3.7-11.4-5.9-18.3-5.9c-14.7,0-27,10.1-30.4,23.6c-5.8-15.2-20.5-26-37.7-26c-9.4,0-18.1,3.2-25,8.6c-2.7,2.1-5,4.5-7.1,7.2
		c-2-3.4-4.2-6.6-6.8-9.5c-11-12.6-27.3-20.6-45.3-20.6c-28,0-51.4,19-58.2,44.9c-0.3,1.1-0.6,2.2-0.8,3.3c-2.4-0.7-4.9-1.1-7.5-1.1
		c-14.9,0-26.9,12.1-26.9,26.9c0,2.6,0.4,5,1,7.3c-1.5-0.2-3-0.2-4.5-0.2c-3.5,0-6.9,0.4-10.2,1.1c-9.4,1.9-17.8,6.5-24.5,12.8
		c-5.2-20.7-23.9-36.1-46.2-36.1c-3.3,0-6.6,0.3-9.7,1c-0.3-34.2-28.2-61.8-62.4-61.8c-32.8,0-59.6,25.2-62.2,57.3
		c-3.9-2-8.3-3.2-13-3.2c-15.5,0-28,12.5-28,28c0,2.7,0.4,5.2,1.1,7.7c-0.4,0-0.7,0-1.1,0c-20.8,0-37.7,16.9-37.7,37.7
		c0,20.8,16.9,37.7,37.7,37.7h217h22.8h267.2c0.6-0.3,1.3-0.7,1.9-1.1c8.1,21.7,28.9,37.1,53.4,37.1c19.8,0,37.2-10.1,47.4-25.4
		c4.8,3,10.4,4.7,16.5,4.7c11.5,0,21.5-6.2,27-15.4h248.9c2.7,0.6,5.4,1,8.3,1h237.6c22.9,0,41.5-18.6,41.5-41.5
		S3293.2,743.8,3270.3,743.8z"/>
	<path class="st1" d="M4304.2,743.9c-8.1,0-15.7,2.3-22,6.3c1.5-3.8,2.4-7.9,2.4-12.2c0-18-14.6-32.5-32.5-32.5
		c-7.7,0-14.8,2.7-20.4,7.2c-3.5-25.2-25.1-44.6-51.3-44.6c-28.6,0-51.8,23.2-51.8,51.8c0,1.4,0.1,2.9,0.2,4.3
		c-2.7-0.6-5.5-0.9-8.4-0.9c-21.1,0-38.4,15.9-40.7,36.3c-1-0.4-2-0.8-3.1-1.1c-6.1-7.4-15.3-12.1-25.7-12.1
		c-10.4,0-19.6,4.8-25.7,12.2c-4.8-23.6-25.6-41.4-50.7-41.4c-10.5,0-20.3,3.1-28.5,8.6c0.1-0.9,0.2-1.8,0.2-2.7
		c0-12.9-10.5-23.4-23.4-23.4c-3.2,0-6.3,0.7-9.1,1.9c-1-17.8-15.8-31.8-33.8-31.8c-12,0-22.6,6.3-28.6,15.8
		c-6.3-2.9-13.3-4.6-20.7-4.6c-14,0-26.6,5.8-35.6,15.2c-10.6-22.9-33.8-38.8-60.7-38.8c-22.5,0-42.4,11.1-54.5,28.1
		c-5.1-3.7-11.4-5.9-18.3-5.9c-14.7,0-27,10.1-30.4,23.6c-5.8-15.2-20.5-26-37.7-26c-9.4,0-18.1,3.2-25,8.6c-2.7,2.1-5,4.5-7.1,7.2
		c-2-3.4-4.2-6.6-6.8-9.5c-11-12.6-27.3-20.6-45.3-20.6c-28,0-51.4,19-58.2,44.9c-0.3,1.1-0.6,2.2-0.8,3.3c-2.4-0.7-4.9-1.1-7.5-1.1
		c-14.9,0-26.9,12.1-26.9,26.9c0,2.6,0.4,5,1,7.3c-1.5-0.2-3-0.2-4.5-0.2c-3.5,0-6.9,0.4-10.2,1.1c-9.4,1.9-17.8,6.5-24.5,12.8
		c-5.2-20.7-23.9-36.1-46.2-36.1c-3.3,0-6.6,0.3-9.7,1c-0.3-34.2-28.2-61.8-62.4-61.8c-32.8,0-59.6,25.2-62.2,57.3
		c-3.9-2-8.3-3.2-13-3.2c-15.5,0-28,12.5-28,28c0,2.7,0.4,5.2,1.1,7.7c-0.4,0-0.7,0-1.1,0c-20.8,0-37.7,16.9-37.7,37.7
		c0,20.8,16.9,37.7,37.7,37.7h217h22.8h267.2c0.6-0.3,1.3-0.7,1.9-1.1c8.1,21.7,28.9,37.1,53.4,37.1c19.8,0,37.2-10.1,47.4-25.4
		c4.8,3,10.4,4.7,16.5,4.7c11.5,0,21.5-6.2,27-15.4h248.9c2.7,0.6,5.4,1,8.3,1h237.6c22.9,0,41.5-18.6,41.5-41.5
		S4327.1,743.9,4304.2,743.9z"/>
	<circle class="st1" cx="1787" cy="767.5" r="60.6"/>
	<circle class="st1" cx="1877.9" cy="760" r="63.1"/>
	<circle class="st1" cx="2005" cy="786.9" r="70.6"/>
	<path class="st1" d="M248.9,245.4c0,11.5-9.3,20.8-20.8,20.8h-150c-13,0-23.6-10.6-23.6-23.6s10.6-23.6,23.6-23.6
		c0.2,0,0.4,0,0.7,0c-0.4-1.5-0.7-3.1-0.7-4.8c0-9.7,7.8-17.5,17.5-17.5c2.9,0,5.7,0.7,8.1,2c1.6-20.1,18.4-35.9,38.9-35.9
		c21.4,0,38.8,17.3,39,38.7c2-0.4,4-0.6,6.1-0.6c15.3,0,28,11.6,29.6,26.5c3.1-1.9,6.8-3,10.7-3
		C239.6,224.6,248.9,233.9,248.9,245.4z"/>
	<path class="st1" d="M1184.5,347.6c0.1,14-7.5,26.3-18.9,32.9L968,381.6c-4.1-5.5-6.5-12.3-6.6-19.6c-0.1-18.5,14.8-33.6,33.3-33.7
		c6.7,0,13,1.9,18.3,5.3c4.2-13.3,16.6-23.1,31.4-23.1c-0.2-28.2,22.6-51.1,50.7-51.3c28.2-0.2,51.1,22.6,51.3,50.7
		C1167.3,309.9,1184.4,326.7,1184.5,347.6z"/>
</g>
<g id="Layer_2">
	<g class="st5">
		<path class="st6" d="M2243.8,757.6c-2.6,7.9-0.1,16-0.5,24c-0.8,16.1-11,34.6-27.1,35.6c-8,0.5-12-0.1-18,5.6
			c-2.3,2.2-7.6,5.6-8.2,9.1c-0.6,3.2,1.3,7.5,3.9,8.3c2.7,0.8,6.8-4.1,9-5.8c2.4-1.8,5-3.3,7.7-4.6c5.3-2.7,11-4.7,16.2-7.6
			c6.4-3.5,12.1-8.3,15.8-14.6c6.1-10.6,5.5-23.6,4-35.3c-0.6-4.4-0.3-9.3-0.2-13.7c0.3-1.5,0.1-1.7-1.2-2
			C2244.4,756.3,2243.9,756.8,2243.8,757.6z"/>
		<path class="st7" d="M2240.4,758.3c-3,9.2-0.1,18.5-0.6,27.7c-0.9,18.6-11.5,29.8-30.1,31c-9.2,0.6-14.7,3.5-21.7,10.1
			c-11.5,10.9-14.4,11-0.1,17.4c6.4,2.9,8.5-0.7,6.8-5.3c-0.6-1.8-1.6-3.5-3.1-4.7c-0.3-0.2-0.9-0.5-1.1-0.8c-0.5-0.8,1-1.8,1.6-2.3
			c2.3-2.1,4.6-4.1,7.4-5.5c2.5-1.2,5.2-2.1,7.9-2.8c5.8-1.6,11.7-2.9,17.1-5.7c1-0.5,2-1.1,2.9-1.7c12.2-8.1,18-25,16-40.4
			c-0.4-2.8-0.3-5.6-0.3-8.4c0-1.3,0.1-2.7,0.1-4c0-1.4-0.2-2.9,0.2-4.3c0.2-0.6,0.7-1.7-0.2-1.3c-0.4,0.2-1-0.1-1.5-0.2
			C2241,756.8,2240.9,756.7,2240.4,758.3z"/>
		<path class="st6" d="M2243.8,757.6c0.8,0.4,1.5,0.8,2.3,1.2c3.3-9.4,10.1-15,20.2-16.2c0.7-0.1,1.4-1,2-1.5
			c-0.5-0.3-3.2-0.1-3.8-0.2c-5.2,1.1-8,1.2-13.5,5.8C2247.7,749.5,2245.6,753.3,2243.8,757.6z"/>
		<path class="st7" d="M2240.5,757.9c0.9,0.4,1.9,0.9,2.8,1.3c0.2-0.8,0.5-1.8,0.9-2.5c4.7-9.1,11.5-14.9,22.2-16.2
			c0.8-0.1,1.6-1.1,2.3-1.7c-0.6-0.4-3.7-0.1-4.4-0.2c-6,1.2-9.2,1.4-15.5,6.6C2245,748.5,2242.5,752.9,2240.5,757.9z"/>
	</g>
</g>
</svg>
