<?xml version="1.0" encoding="UTF-8"?>
<svg id="Layer_1" data-name="Layer 1" xmlns="http://www.w3.org/2000/svg" viewBox="0 0 767.99 768">
  <defs>
    <style>
      .cls-1 {
        fill: none;
      }

      .cls-1, .cls-2 {
        stroke-width: 0px;
      }

      .cls-2 {
        fill: #fbf3e3;
      }
    </style>
  </defs>
  <path class="cls-1" d="m384,767.93c-126.85,0-253.7-.01-380.56.07-2.81,0-3.45-.63-3.44-3.44C.08,510.85.08,257.15,0,3.44,0,.63.63,0,3.44,0c253.7.08,507.41.08,761.11,0,2.81,0,3.45.63,3.44,3.44-.08,253.7-.08,507.41,0,761.11,0,2.81-.63,3.45-3.44,3.44-126.85-.08-253.7-.07-380.56-.07h.01Zm-1.11-570.13v-.2h-43.38c-22.21,0-44.42.05-66.62.04-17.23,0-34.45-.11-51.68-.13-17.97-.02-35.94-.06-53.9.08-9.36.07-18.8-.73-28.06.82-19.08,3.19-32.74,20.44-32.32,40.59.43,20.36.21,40.72.22,61.08.03,55.1.01,110.19.02,165.29,0,41.23-.02,82.46.09,123.69,0,3.19-.64,4.6-4.09,4.21-2.71-.3-5.49-.11-8.24-.04-4.69.11-6.59,1.86-6.95,6.51-.36,4.64.03,9.24,1.02,13.78,4.95,22.81,26.92,42.42,51.09,45.67,11.83,1.59,23.71.72,35.56.73,71.72.1,143.45.01,215.17.01,75.97,0,151.94.03,227.91.04,15.28,0,29.07-4.64,40.93-14.2,14.71-11.85,23.07-26.98,22.05-46.42-.23-4.3-2.05-6.07-6.32-6.16-2.87-.06-5.78-.24-8.61.09-3.57.41-4.53-.69-4.52-4.38.11-89.58.07-179.17.07-268.75,0-27.86.38-55.73-.06-83.58-.37-23.08-17.11-38.89-40.16-38.9-24.08,0-48.16.1-72.25.13-23.34.03-46.68,0-70.01,0h-96.96Zm194.11-23.92c4.35,0,7.32-4.58,5.57-8.21-.99-2.04-2.55-3.68-4.19-5.24-13.47-12.89-29.4-14.09-46.38-9.47-9.28,2.52-17.89,6.93-26.76,10.57-9.88,4.06-19.96,6.16-30.68,4.3-7.34-1.27-13.45-5.15-19.65-8.84-15.82-9.41-32.14-9.71-48.78-2.59-7.22,3.09-14.09,7.06-21.44,9.75-16.22,5.94-31.35,4.91-44.13-8.37-3.1-3.23-6.63-6.08-10.16-8.85-7.26-5.69-15.53-8.03-24.81-7.63-9.33.4-17.39,3.99-25.16,8.67-7.37,4.43-14.45,9.37-22.36,12.88-14.26,6.32-25.28,4.43-36.41-6.35-.27-.26-.52-.55-.82-.77-2.19-1.6-4.34-2.06-6.9-.53-2.68,1.61-2.89,3.84-2.28,6.43.43,1.85,1.54,3.4,2.65,4.91,8.73,11.82,20.91,14.53,34.61,12.92,9.88-1.16,18.56-5.51,26.97-10.56,6.09-3.66,11.77-8.02,18.29-10.95,11.05-4.96,21.37-3.96,30.75,3.95,3.53,2.98,6.95,6.09,10.37,9.2,10.07,9.17,21.85,12.98,35.43,12.04,11.87-.82,22.51-5.09,32.88-10.47,6.53-3.38,13.13-6.5,20.68-7.29,11.3-1.19,20.67,3.32,29.86,8.95,14.13,8.65,29.23,9.98,45.07,5.67,10.53-2.87,20.22-7.81,30.28-11.83,7.88-3.15,15.94-4.81,24.51-3.52,7.06,1.06,12.89,4.46,18.37,8.71,1.47,1.14,2.89,2.41,4.61,2.51h.01Zm-98.55-36.8c-.06-.46-.12-1.59-.37-2.68-3.65-16.12-19.29-28.75-40.46-26.87-11.31,1-21.03,5.87-30.64,11.26-5.98,3.36-12,6.67-17.88,10.21-14.88,8.96-30,9.86-45.59,1.9-3.98-2.03-6.82-1.47-8.39,1.04-1.66,2.66-.73,6.3,2.31,8.94,4.43,3.84,9.6,6.27,15.22,7.76,14.25,3.79,27.44.28,40.1-6.15,11.12-5.65,21.43-12.79,32.8-18,14.7-6.73,29.33-3.91,38,7.19,2.1,2.68,3.41,5.8,5.02,8.75,1.34,2.45,3.29,3.77,6.15,3.02,2.91-.76,3.82-2.92,3.72-6.35v-.02Z"/>
  <path class="cls-2" d="m382.89,197.66l225.94.15c13.71,0,27.02-.88,38.55,7.82,9.69,7.31,14.69,18.94,14.89,30.92.44,27.85.06,55.72.06,83.58,0,89.58.04,179.17-.07,268.75,0,3.69.95,4.79,4.52,4.38,2.84-.33,5.74-.15,8.61-.09,4.26.09,6.09,1.86,6.32,6.16,1.02,19.44-7.34,34.57-22.05,46.42-11.86,9.56-25.65,14.2-40.93,14.2-75.97,0-151.94-.04-227.91-.04-71.72,0-143.45.08-215.17-.01-11.85-.02-23.74.86-35.56-.73-24.18-3.25-46.15-22.86-51.09-45.67-.98-4.54-1.38-9.15-1.02-13.78.36-4.65,2.26-6.4,6.95-6.51,2.75-.06,5.53-.26,8.24.04,3.46.39,4.1-1.02,4.09-4.21-.11-41.23-.08-82.46-.09-123.69,0-55.1.01-110.19-.02-165.29-.01-20.36.21-40.72-.22-61.08-.42-20.15,13.24-37.4,32.32-40.59,17.54-2.94,36.69-.88,54.42-.87,19.77,0,39.54.03,59.31.04,39.54.03,79.08.05,118.62.08h11.29v.02Zm173.22,206.97c-4.74-3.01-9.63-5.75-14.78-7.99-4.7-2.05-9.46-3.93-14.74-3.74-2.75.1-3.6,1.21-2.3,3.79,1.26,2.51,3.23,4.42,5.12,6.41,10.81,11.37,19.22,24.18,23.63,39.4.28.98.83,1.94.02,3.3-1.22-1.59-2.16-2.88-3.18-4.11-5.35-6.47-10.9-12.74-18.71-16.38-3-1.4-4.31-.42-3.94,2.89.12,1.09.58,2.15.95,3.21,2.02,5.76,4.23,11.46,6.07,17.28,3.49,11.04,4.91,22.38,4.34,34.02-1.87-4.63-3.92-9.15-6.31-13.5-2.35-4.27-4.88-8.4-8.45-11.84-1.67-1.61-2.26-1.24-3.6.46-2.76,3.5-1.99,7.27-1.67,11.1,1.17,14.12,1.23,28.18-2.59,42-.34,1.24-.32,2.83-2.04,3.22-1.64-10.46-3.17-20.94-8.75-30.38-3.92,2.75-6.2,6.22-7.24,10.72-2.24,9.71-4.84,19.33-8.18,28.74-1.33,3.74-3.14,7.24-5.36,11.26-.38-9.64-.75-18.52-3.23-27.52-15.63,11.62-17.92,29.09-21.99,46.05-3.19-7.88-4.89-15.95-5.91-24.47-6.18,4.01-10.75,8.75-13.04,15.63-3.04,9.14-2.84,18.42-1.98,27.79-.14.14-.27.27-.41.41-5.1-5.5-7.87-12.37-10.97-19.18-10.56,11.82-11.13,26.11-1.82,36.83,1.94,2.23,3.97,3.22,7.03,3.21,63.36-.1,126.71-.08,190.07-.09,6.01,0,8.36-2.35,8.38-8.34.03-10.3.09-20.6.08-30.9-.02-32.09-.11-64.18-.1-96.26,0-24.68.17-49.36.15-74.04-.01-27.21-.13-54.43-.24-81.64-.04-9.7-2.31-11.82-11.93-11.82-48.86.03-97.72.03-146.58.02-.79,0-1.73.45-2.58-.66,2.21-2.75,4.48-5.52,6.68-8.34,5.13-6.58,10.95-12.74,13.87-20.76,2.67-7.32.1-15.32-5.95-19.24-5.59-3.62-12.21-2.32-18.18,3.59-.71.7-1.41,1.41-2.09,2.15-7.18,7.83-14.71,15.32-22.52,22.51-5.13,4.72-10.29,9.45-16.52,12.76l-.68-.6c2.58-3.32,4.28-7.02,4.75-11.23.82-7.3-4.97-13.55-12.28-13.28-4.78.17-8.55,2.46-11.91,5.62-9.38,8.8-18.52,17.85-28.41,26.1-1.23,1.03-2.35,1.5-3.98,1.5-66.86-.07-133.71-.09-200.57-.11-7.62,0-15.25-.06-22.87.05-6.63.1-9.14,2.64-9.53,9.33-.06,1-.09,2-.08,3,.14,13.79.37,27.57.42,41.36.05,14.46-.08,28.91-.1,43.37,0,8.79.08,17.58.05,26.37-.03,12.91-.17,25.83-.17,38.74s.11,26.46.15,39.68c.02,7.43,0,14.86-.02,22.29-.03,15.54-.06,31.08-.11,46.62-.02,7.93-.15,15.86-.11,23.78.03,6.05,2.42,8.4,8.37,8.43,6.75.03,13.5,0,20.24,0,34.86-.01,69.73-.04,104.59-.02,2.12,0,3.55-.03,4.12-2.8,4.88-23.77,17.17-43.46,34.15-60.38,14.92-14.87,32.68-25.78,51.19-35.54,18.1-9.54,36.6-18.34,53.96-29.25,9.45-5.94,18.31-12.6,25.34-21.42,4.7-5.89,7.88-12.4,8.48-20.03.71-9.13-4.49-21.71-17.72-21.3-2.74.08-5.49-.18-8.24-.32-2.83-.14-5.3-1.3-8.43-2.72,4.83-2.41,9.03-4.57,13.27-6.62,15.26-7.41,30.91-13.91,46.77-19.92,2.26-.86,4.59-1.81,4.43-4.81-.16-3.06-2.11-4.65-4.96-5.27-3.29-.71-6.59-1.34-9.87-2.1-2.89-.67-5.96-.65-9.36-2.15,8.09-3.71,15.56-7.13,23.01-10.57,2.31-1.06,3.93-2.61,3.72-5.44-.2-2.75-1.81-4.27-4.25-5.11-.82-.28-1.66-.54-2.52-.7-6.14-1.15-12.32-1.98-18.57-2.21-10.95-.4-21.89-.35-33.74.71,18.35-17.58,40.06-24.69,63.89-26.79-9.96,5.07-19.89,10.09-27.17,20.05,3.83-.5,6.1,2.26,9.46,1.22,12.5-3.9,25.34-4,38.21-2.52,4.36.5,8.79,1.13,12.82,3.26-1.36.27-2.69.17-4,.29-9.11.85-17.56,3.59-24.91,9.17-1.25.95-3.22,1.93-2.25,4.19.83,1.93,2.31,2.53,4.44,2.64,13.51.67,26.37,3.89,38.34,10.3,4.24,2.27,8.46,4.64,12.01,7.99-1.57-.14-2.97-.59-4.41-.92-8.54-1.97-17.13-3.63-25.85-1.32-4.53,1.2-5.05,3.39-1.82,6.82.66.7,1.58,1.23,2.48,1.61,11.04,4.64,20.86,11.22,29.88,19,4.71,4.06,9.08,8.5,12.24,13.97-.15.15-.3.31-.45.47l.05-.03Zm-446.02,221.38c10.41,12.53,23.17,18.82,39.08,18.78,36.84-.08,73.67-.02,110.51-.04,49.96-.03,99.91-.12,149.87-.13,38.34,0,76.69.07,115.03.11,31.59.03,63.17.07,94.76.08,8.71,0,17.17-1.19,24.8-5.83,5.52-3.36,10.71-7.09,14.53-12.96H110.08h0Zm160.91-364.63v-.23c35.83,0,71.67.02,107.5-.02,5.33,0,9.47-3.06,10.72-8.15,1.31-5.39,1.26-10.92-.31-16.26-1.43-4.86-5.57-7.72-10.69-7.9-1.5-.05-3-.06-4.5-.06-52.56,0-105.11-.03-157.67-.02-17.1,0-34.21.02-51.31.11-7,.04-11.82,3.77-12.9,10.08-.68,3.94-.7,8.01-.17,11.95.86,6.41,5.28,10.12,11.79,10.28,5.74.14,11.49.21,17.23.21,30.1.02,60.2,0,90.3,0h.01Zm261.96-18.23c-.24,7.64,5.78,13.84,13.58,13.97,7.27.12,13.32-5.7,13.67-13.13.34-7.29-5.74-13.67-13.26-13.88-7.74-.22-13.75,5.39-14,13.05h.01Zm64.62-13.11c-7.78-.07-14.02,5.98-13.96,13.54s5.95,13.41,13.58,13.52c7.46.1,13.56-5.83,13.75-13.36.18-7.36-5.94-13.63-13.38-13.7h.01Zm-275.83,331.23c-5.23-1.37-10.29-2.7-15.35-4.04-1.27-.34-2.36-.44-3.19.96-3.18,5.36-6.3,10.75-8.65,16.56-.63,1.56-.23,1.89,1.23,2.07,5.2.64,10.39,1.34,15.58,2.08,1.49.21,2.32-.29,2.84-1.68,2.04-5.5,4.91-10.62,7.53-15.95h.01Zm17.77-25.82c-4.11-1.45-7.86-2.74-11.58-4.11-1.09-.4-1.79-.16-2.64.63-4.57,4.24-9.11,8.49-13.06,13.35-1.41,1.74-.83,2.25.89,2.64,4.36,1.01,8.73,1.95,13.06,3.06,1.52.39,1.96-.53,2.64-1.43,3.43-4.57,6.89-9.13,10.69-14.15h0Zm-2.99-12.84c3.91,1.27,6.82,2.23,9.75,3.16.98.31,1.84.3,2.72-.55,6.11-5.96,12.28-11.85,18.44-17.77-11.38,2.11-20.5,8.64-30.91,15.17h0Zm-38.57,70.48v-.2c2.62,0,5.24-.07,7.86.02,2.01.07,2.17-1.56,2.42-2.73.34-1.59-1.26-1.18-2.08-1.32-4.54-.82-9.08-1.57-13.63-2.29-.91-.14-2.08-.61-2.45.86-.42,1.67-1.4,3.55-.97,4.99.42,1.41,2.59.55,3.99.65,1.61.11,3.24.02,4.86.02h0Z"/>
  <path class="cls-2" d="m577,173.88c-1.72-.1-3.14-1.37-4.61-2.51-5.48-4.26-11.31-7.65-18.37-8.71-8.57-1.29-16.63.37-24.51,3.52-10.06,4.02-19.75,8.96-30.28,11.83-15.84,4.31-30.93,2.98-45.07-5.67-9.19-5.63-18.57-10.14-29.86-8.95-7.55.8-14.15,3.91-20.68,7.29-10.38,5.38-21.01,9.65-32.88,10.47-13.58.94-25.36-2.87-35.43-12.04-3.42-3.11-6.84-6.22-10.37-9.2-9.38-7.91-19.7-8.91-30.75-3.95-6.52,2.93-12.2,7.29-18.29,10.95-8.41,5.05-17.09,9.4-26.97,10.56-13.7,1.61-25.88-1.1-34.61-12.92-1.11-1.51-2.22-3.05-2.65-4.91-.61-2.59-.4-4.83,2.28-6.43,2.56-1.53,4.71-1.07,6.9.53.3.22.55.5.82.77,11.14,10.78,22.15,12.67,36.41,6.35,7.91-3.51,14.99-8.44,22.36-12.88,7.77-4.67,15.83-8.27,25.16-8.67,9.28-.4,17.54,1.94,24.81,7.63,3.53,2.77,7.06,5.63,10.16,8.85,12.78,13.28,27.91,14.3,44.13,8.37,7.35-2.69,14.23-6.66,21.44-9.75,16.64-7.12,32.96-6.82,48.78,2.59,6.21,3.69,12.31,7.56,19.65,8.84,10.72,1.86,20.8-.24,30.68-4.3,8.87-3.64,17.48-8.05,26.76-10.57,16.98-4.62,32.91-3.42,46.38,9.47,1.63,1.56,3.2,3.2,4.19,5.24,1.75,3.62-1.23,8.2-5.57,8.21h-.01Z"/>
  <path class="cls-2" d="m478.45,137.08c.1,3.43-.81,5.6-3.72,6.35-2.86.75-4.82-.57-6.15-3.02-1.61-2.95-2.93-6.06-5.02-8.75-8.67-11.1-23.3-13.92-38-7.19-11.37,5.2-21.68,12.35-32.8,18-12.66,6.43-25.85,9.94-40.1,6.15-5.61-1.49-10.79-3.92-15.22-7.76-3.05-2.64-3.98-6.28-2.31-8.94,1.57-2.5,4.41-3.07,8.39-1.04,15.59,7.96,30.71,7.06,45.59-1.9,5.88-3.54,11.9-6.85,17.88-10.21,9.6-5.39,19.33-10.25,30.64-11.26,21.16-1.88,36.81,10.75,40.46,26.87.25,1.09.31,2.22.37,2.68v.02Z"/>
  <path class="cls-1" d="m424.63,282.16c6.23-3.32,11.39-8.04,16.52-12.76,7.82-7.19,15.34-14.68,22.52-22.51.68-.74,1.38-1.45,2.09-2.15,5.97-5.91,12.59-7.21,18.18-3.59,6.05,3.92,8.61,11.92,5.95,19.24-2.93,8.03-8.75,14.18-13.87,20.76-2.2,2.82-4.47,5.58-6.68,8.34.85,1.11,1.78.66,2.58.66,48.86.01,97.72.02,146.58-.02,9.61,0,11.89,2.12,11.93,11.82.11,27.21.23,54.43.24,81.64.01,24.68-.15,49.36-.15,74.04,0,32.09.08,64.18.1,96.26,0,10.3-.05,20.6-.08,30.9-.02,6-2.36,8.34-8.38,8.34-63.36,0-126.71-.01-190.07.09-3.06,0-5.09-.98-7.03-3.21-9.31-10.72-8.75-25.01,1.82-36.83,3.1,6.81,5.87,13.69,10.97,19.18.11.28.15.72.59.45.08-.05-.12-.56-.19-.86-.86-9.37-1.06-18.66,1.98-27.79,2.29-6.87,6.86-11.62,13.04-15.63,1.03,8.53,2.72,16.59,5.91,24.47,4.07-16.95,6.36-34.43,21.99-46.05,2.48,9,2.85,17.88,3.23,27.52,2.22-4.02,4.03-7.52,5.36-11.26,3.34-9.4,5.94-19.03,8.18-28.74,1.04-4.5,3.32-7.97,7.24-10.72,5.58,9.44,7.11,19.92,8.75,30.38,1.72-.39,1.7-1.98,2.04-3.22,3.82-13.81,3.75-27.87,2.59-42-.32-3.83-1.09-7.6,1.67-11.1,1.34-1.7,1.93-2.07,3.6-.46,3.57,3.44,6.1,7.58,8.45,11.84,2.39,4.34,4.44,8.86,6.31,13.5.57-11.63-.86-22.98-4.34-34.02-1.84-5.82-4.05-11.52-6.07-17.28-.37-1.05-.83-2.12-.95-3.21-.37-3.31.94-4.29,3.94-2.89,7.81,3.64,13.36,9.9,18.71,16.38,1.02,1.23,1.96,2.52,3.18,4.11.81-1.36.26-2.32-.02-3.3-4.41-15.21-12.81-28.03-23.63-39.4-1.89-1.99-3.86-3.9-5.12-6.41-1.3-2.58-.45-3.7,2.3-3.79,5.28-.18,10.04,1.69,14.74,3.74,5.15,2.25,10.04,4.98,14.78,7.99.31.2.54.89.98.2.05-.08-.35-.44-.54-.67-3.16-5.46-7.53-9.91-12.24-13.97-9.02-7.78-18.84-14.37-29.88-19-.9-.38-1.82-.91-2.48-1.61-3.23-3.44-2.71-5.63,1.82-6.82,8.73-2.31,17.32-.65,25.85,1.32,1.44.33,2.85.79,4.41.92-3.56-3.36-7.77-5.72-12.01-7.99-11.97-6.41-24.83-9.64-38.34-10.3-2.13-.11-3.62-.71-4.44-2.64-.97-2.27,1-3.24,2.25-4.19,7.35-5.58,15.8-8.31,24.91-9.17,1.31-.12,2.65-.02,4-.29-4.03-2.13-8.45-2.75-12.82-3.26-12.87-1.49-25.71-1.38-38.21,2.52-3.36,1.05-5.64-1.72-9.46-1.22,7.28-9.97,17.21-14.99,27.17-20.05-23.83,2.1-45.53,9.21-63.89,26.79,11.85-1.06,22.79-1.11,33.74-.71,6.26.23,12.43,1.06,18.57,2.21.85.16,1.69.42,2.52.7,2.44.84,4.05,2.36,4.25,5.11.21,2.84-1.41,4.38-3.72,5.44-7.46,3.44-14.92,6.86-23.01,10.57,3.4,1.49,6.47,1.48,9.36,2.15,3.28.76,6.58,1.4,9.87,2.1,2.86.61,4.8,2.21,4.96,5.27.16,3-2.17,3.95-4.43,4.81-15.86,6.01-31.51,12.52-46.77,19.92-4.24,2.06-8.44,4.21-13.27,6.62,3.13,1.42,5.61,2.58,8.43,2.72,2.74.14,5.5.4,8.24.32,13.23-.41,18.43,12.17,17.72,21.3-.59,7.62-3.78,14.14-8.48,20.03-7.03,8.82-15.89,15.48-25.34,21.42-17.36,10.91-35.86,19.71-53.96,29.25-18.51,9.75-36.26,20.66-51.19,35.54-16.98,16.92-29.26,36.61-34.15,60.38-.57,2.77-2,2.8-4.12,2.8-34.86-.02-69.73,0-104.59.02-6.75,0-13.5.03-20.24,0-5.95-.03-8.34-2.38-8.37-8.43-.04-7.93.08-15.86.11-23.78.05-15.54.08-31.08.11-46.62,0-7.43.04-14.86.02-22.29-.04-13.23-.15-26.46-.15-39.68s.14-25.83.17-38.74c.02-8.79-.07-17.58-.05-26.37.02-14.46.16-28.91.1-43.37-.05-13.79-.28-27.57-.42-41.36,0-1,.02-2,.08-3,.39-6.69,2.89-9.23,9.53-9.33,7.62-.11,15.24-.05,22.87-.05,66.86.02,133.71.04,200.57.11,1.63,0,2.75-.48,3.98-1.5,9.89-8.25,19.03-17.3,28.41-26.1,3.36-3.15,7.14-5.45,11.91-5.62,7.31-.26,13.1,5.99,12.28,13.28-.47,4.21-2.17,7.91-4.75,11.23-.24.34-.48.69-.72,1.03.61.33,1.1.25,1.4-.43l-.03.03Zm2.95,139.57c-1.3-2.3-2.89-3.53-4.36-4.85-8.62-7.75-18.7-13.19-29.32-18.23,20.74-10.96,41.64-20.85,64.18-29.49-20.12-2.56-38.76.56-57.42,4.2,19.47-11.96,40.53-20.3,62.59-28.78-8.45-.88-15.88-1.18-23.33-1.17-7.38,0-14.76.04-22.08.98-7.26.94-14.49,2.19-22.19,3.38.75-.65,1.13-.97,1.49-1.29,23.17-20.47,45.27-42.02,65.65-65.29,6.32-7.21,12.79-14.39,17.27-23,1.42-2.72,1.92-5.64-1.01-7.68-2.83-1.97-5.08-.03-6.82,1.96-12.66,14.48-26.62,27.49-42.25,38.77-15.86,11.45-32.15,22.13-49.92,30.39-.97.45-1.96,1.32-3.14.53.89-.81,1.77-1.5,2.52-2.3,12.53-13.42,24.57-27.27,35.44-42.09,1.24-1.7,2.27-3.58,3.2-5.48.74-1.51,1.04-3.2-.67-4.35-1.59-1.08-3.09-.52-4.44.62-.57.48-1.17.94-1.69,1.47-15.95,16.11-33.37,30.47-51.74,43.7-15.69,11.31-31.1,23.04-48.85,31.12-10.75,4.9-13.73,9.99-12.58,21.84.45,4.59-.77,8.3-3.72,11.69-5.92,6.81-12.58,12.83-19.45,18.65-1.24,1.05-2.41.83-3.82.65-8.67-1.11-16.43.57-22.27,7.68-3.95,4.81-4.61,10.63-5.05,16.52-.11,1.39.42,2.87-1.4,3.86-9.56,5.16-19.39,9.14-30.57,8.54-12.81-.68-22.06-11.85-20.22-24.58,2.84-19.63,20.84-36.7,40.84-39.32,12.84-1.68,25.1.76,37.31,4.01,2.9.77,5.74.83,6.67-2.03.89-2.74-2.32-3.42-4.25-4.24-14.02-5.99-28.64-8.15-43.58-5.01-21.25,4.47-36.45,16.79-43.34,37.62-7.76,23.44,6.47,42.4,30.64,41.66,10.16-.31,19.56-3.63,28.54-8.23,1.21-.62,2.08-1.51,3.22.45,4.57,7.85,10.74,14.38,17.52,20.36,2.75,2.42,4.85,5.33,6.57,8.57,4.78,8.96,7.68,18.69,11.7,27.96.91,2.08,1.59,4.31,3.55,6.62.87-12.3.23-23.94.61-36.57,3.77,5.84,7.01,10.85,10.24,15.86.78-4.56.69-8.88.8-13.2.29-11.45,5.61-19.91,15.38-25.75,10.24-6.12,21.25-6.87,32.59-4.56,17.17,3.49,34.27,3.77,51.95-.32-9.25-6.43-18.73-11.68-28.7-17.95,20.26-2.28,38.98-.04,57.73,6.09h-.02Zm-152.19-81.67c-2.11-2.34-4.52-3.03-6.72-4.02-3.29-1.48-6.71-2.7-9.44-5.2-4.45-4.07-4.57-8.75-.22-12.94,2.91-2.8,6.56-3.88,10.46-4.47,2.66-.4,5.54-.17,7.7-2.32.76-.76,2.29-1.2,1.83-2.5-.3-.85-1.61-.97-2.62-1.12-3.99-.59-8-.65-11.91.23-7.19,1.61-13.09,5.12-15.28,12.69-1.8,6.24-.08,11.72,5.17,15.62,6.13,4.55,12.91,6.47,21.02,4.03h.01Zm-55.16-1.2c1.8-.63,4.49-.63,4.85-2.78.36-2.19-2.19-2.62-3.89-3.22-14.97-5.25-33.68,1.66-41.68,15.38-.54.92-1.63,1.87-.49,2.96,1.02.98,2.34.88,3.47.14,1.87-1.22,3.76-2.45,5.48-3.88,5.13-4.3,10.63-7.93,17.35-9.04,4.94-.81,9.93-.7,14.92.45h0Z"/>
  <path class="cls-1" d="m110.08,626.02h548.59c-3.83,5.87-9.01,9.61-14.53,12.96-7.63,4.64-16.09,5.83-24.8,5.83-31.59,0-63.17-.05-94.76-.08-38.34-.04-76.69-.12-115.03-.11-49.96.01-99.91.1-149.87.13-36.84.02-73.67-.04-110.51.04-15.91.04-28.66-6.25-39.08-18.78h-.01Z"/>
  <path class="cls-1" d="m271,261.38c-30.1,0-60.2.01-90.3,0-5.74,0-11.49-.07-17.23-.21-6.51-.15-10.94-3.86-11.79-10.28-.53-3.95-.5-8.01.17-11.95,1.08-6.31,5.89-10.04,12.9-10.08,17.1-.09,34.21-.11,51.31-.11,52.56,0,105.11,0,157.67.02,1.5,0,3,0,4.5.06,5.11.18,9.26,3.04,10.69,7.9,1.57,5.34,1.62,10.87.31,16.26-1.24,5.1-5.38,8.15-10.72,8.15-35.83.04-71.67.02-107.5.02v.23h0Z"/>
  <path class="cls-1" d="m532.95,243.15c.24-7.66,6.26-13.27,14-13.05,7.51.21,13.6,6.59,13.26,13.88-.35,7.44-6.4,13.25-13.67,13.13-7.8-.13-13.82-6.32-13.58-13.97h-.01Z"/>
  <path class="cls-1" d="m597.57,230.04c7.44.07,13.56,6.34,13.38,13.7-.18,7.52-6.29,13.45-13.75,13.36-7.64-.1-13.52-5.96-13.58-13.52s6.17-13.61,13.96-13.54h-.01Z"/>
  <path class="cls-1" d="m321.75,561.28c-2.62,5.33-5.5,10.45-7.53,15.95-.52,1.39-1.35,1.9-2.84,1.68-5.19-.74-10.38-1.44-15.58-2.08-1.46-.18-1.86-.51-1.23-2.07,2.34-5.81,5.46-11.2,8.65-16.56.83-1.4,1.92-1.3,3.19-.96,5.06,1.34,10.12,2.66,15.35,4.04h-.01Z"/>
  <path class="cls-1" d="m339.52,535.46c-3.8,5.02-7.26,9.57-10.69,14.15-.68.9-1.12,1.82-2.64,1.43-4.33-1.11-8.71-2.05-13.06-3.06-1.72-.4-2.31-.9-.89-2.64,3.95-4.87,8.49-9.11,13.06-13.35.85-.79,1.55-1.03,2.64-.63,3.72,1.37,7.47,2.66,11.58,4.11h0Z"/>
  <path class="cls-1" d="m336.53,522.61c10.4-6.52,19.53-13.06,30.91-15.17-6.15,5.92-12.32,11.81-18.44,17.77-.87.85-1.74.86-2.72.55-2.93-.92-5.84-1.89-9.75-3.16h0Z"/>
  <path class="cls-1" d="m297.96,593.09c-1.62,0-3.25.08-4.86-.02-1.4-.09-3.57.76-3.99-.65-.43-1.44.55-3.32.97-4.99.36-1.47,1.54-1,2.45-.86,4.55.72,9.1,1.47,13.63,2.29.83.15,2.42-.27,2.08,1.32-.25,1.17-.41,2.8-2.42,2.73-2.62-.1-5.24-.02-7.86-.02v.2h0Z"/>
  <path class="cls-2" d="m427.58,421.73c-18.75-6.13-37.47-8.37-57.73-6.09,9.97,6.27,19.45,11.52,28.7,17.95-17.68,4.1-34.78,3.82-51.95.32-11.33-2.31-22.34-1.56-32.59,4.56-9.78,5.84-15.09,14.3-15.38,25.75-.11,4.32-.02,8.64-.8,13.2-3.23-5.01-6.47-10.02-10.24-15.86-.38,12.63.26,24.27-.61,36.57-1.97-2.3-2.65-4.53-3.55-6.62-4.03-9.27-6.93-19-11.7-27.96-1.73-3.24-3.83-6.15-6.57-8.57-6.78-5.98-12.96-12.5-17.52-20.36-1.14-1.95-2.01-1.07-3.22-.45-8.98,4.59-18.38,7.92-28.54,8.23-24.17.74-38.39-18.22-30.64-41.66,6.89-20.83,22.09-33.15,43.34-37.62,14.94-3.14,29.56-.98,43.58,5.01,1.93.82,5.14,1.5,4.25,4.24-.93,2.85-3.77,2.8-6.67,2.03-12.21-3.25-24.47-5.69-37.31-4.01-20,2.62-38,19.69-40.84,39.32-1.84,12.73,7.41,23.9,20.22,24.58,11.18.6,21.01-3.38,30.57-8.54,1.83-.99,1.3-2.47,1.4-3.86.45-5.89,1.11-11.72,5.05-16.52,5.84-7.11,13.61-8.79,22.27-7.68,1.41.18,2.58.4,3.82-.65,6.87-5.82,13.52-11.84,19.45-18.65,2.95-3.39,4.17-7.1,3.72-11.69-1.15-11.84,1.83-16.94,12.58-21.84,17.75-8.09,33.16-19.82,48.85-31.12,18.37-13.24,35.79-27.6,51.74-43.7.52-.53,1.12-.99,1.69-1.47,1.35-1.13,2.85-1.69,4.44-.62,1.7,1.15,1.41,2.84.67,4.35-.93,1.89-1.95,3.78-3.2,5.48-10.87,14.82-22.9,28.67-35.44,42.09-.75.8-1.62,1.49-2.52,2.3,1.18.79,2.17-.08,3.14-.53,17.78-8.26,34.07-18.94,49.92-30.39,15.62-11.28,29.59-24.29,42.25-38.77,1.74-1.99,3.99-3.93,6.82-1.96,2.94,2.04,2.43,4.96,1.01,7.68-4.49,8.61-10.96,15.79-17.27,23-20.37,23.27-42.48,44.82-65.65,65.29-.37.32-.74.64-1.49,1.29,7.7-1.19,14.93-2.44,22.19-3.38,7.32-.95,14.7-.98,22.08-.98s14.88.3,23.33,1.17c-22.06,8.48-43.12,16.83-62.59,28.78,18.66-3.63,37.29-6.76,57.42-4.2-22.53,8.63-43.43,18.53-64.18,29.49,10.62,5.03,20.7,10.48,29.32,18.23,1.47,1.32,3.06,2.55,4.36,4.85h.02Zm-87.94-63.33c-3.12.81-5.7,1.71-8.35,2.12-9.47,1.48-14.87,7.25-17.86,16-.75,2.21.06,2.52,1.71,2.84,8.87,1.71,17.51-2.75,21.13-11.14,1.3-3.02,2.15-6.24,3.37-9.83h0Z"/>
  <path class="cls-2" d="m275.39,340.06c-8.11,2.44-14.9.52-21.02-4.03-5.25-3.9-6.97-9.37-5.17-15.62,2.18-7.57,8.09-11.07,15.28-12.69,3.91-.88,7.92-.82,11.91-.23,1.01.15,2.32.27,2.62,1.12.46,1.3-1.07,1.74-1.83,2.5-2.15,2.15-5.04,1.92-7.7,2.32-3.9.59-7.55,1.67-10.46,4.47-4.35,4.18-4.23,8.87.22,12.94,2.73,2.5,6.15,3.72,9.44,5.2,2.2.99,4.6,1.68,6.72,4.02h-.01Z"/>
  <path class="cls-2" d="m220.23,338.86c-4.99-1.15-9.98-1.26-14.92-.45-6.72,1.11-12.22,4.75-17.35,9.04-1.71,1.43-3.6,2.66-5.48,3.88-1.13.74-2.45.83-3.47-.14-1.14-1.09-.05-2.04.49-2.96,8-13.72,26.71-20.63,41.68-15.38,1.71.6,4.25,1.02,3.89,3.22-.35,2.16-3.05,2.15-4.85,2.78h.01Z"/>
  <path class="cls-2" d="m424.63,282.16c-.3.68-.79.75-1.4.43.24-.34.48-.69.72-1.03.23.2.45.4.68.6Z"/>
  <path class="cls-2" d="m556.56,404.16c.19.23.59.59.54.67-.44.69-.67,0-.98-.2.15-.16.29-.32.45-.47h-.01Z"/>
  <path class="cls-2" d="m438.24,571.96c.07.3.27.8.19.86-.44.27-.48-.17-.59-.45.14-.13.27-.27.41-.41h-.01Z"/>
  <path class="cls-1" d="m339.64,358.4c-1.21,3.59-2.06,6.81-3.37,9.83-3.62,8.38-12.26,12.84-21.13,11.14-1.65-.32-2.47-.63-1.71-2.84,2.99-8.75,8.39-14.53,17.86-16,2.65-.41,5.23-1.31,8.35-2.12h0Z"/>
</svg>