<?xml version="1.0" encoding="UTF-8"?><svg id="Layer_1" xmlns="http://www.w3.org/2000/svg" viewBox="0 0 768 768"><defs><style>.cls-1{fill:#3b3839;}.cls-1,.cls-2,.cls-3,.cls-4{stroke-width:0px;}.cls-2{fill:none;}.cls-5{stroke:#202637;stroke-miterlimit:10;stroke-width:.1px;}.cls-5,.cls-4{fill:#202637;}.cls-3{fill:#b5bebc;}</style></defs><path class="cls-2" d="m767.9,384.4c0,126.7,0,253.5,0,380.2,0,2.8-.6,3.4-3.4,3.4-253.7,0-507.4,0-761.1,0-2.8,0-3.4-.6-3.4-3.4C0,510.9,0,257.1,0,3.4,0,.6.6,0,3.4,0c253.7,0,507.4,0,761.1,0,2.8,0,3.4.6,3.4,3.4,0,127,0,254,0,380.9Zm-187.7,80.6c0-13.1,0-26.1,0-39.2,0-9.7.1-19.4.2-29.1,8.7,1.2,13.1,6.5,14.3,15.4,1.6-8.8,5.9-14.5,14.9-16.3-8.8-1.9-13.4-7.4-15.1-16-.7,9.4-6,14.1-14.1,16.2,0-10,0-20,0-30,0-11.1-8.3-19.4-19.3-19.6-3,0-6-.2-9,0-2,.1-3-.1-2.5-2.6.5-2.8.3-5.7-.6-8.5-1.2-3.7-3.4-6.5-7.3-7.3-3.8-.7-7.1.6-9.7,3.5-.8,1-1.6,2-2.4,3.1-2.3-7.3-5.4-10.3-10.8-10-8.8.5-10.5,7.3-12.2,15-.5-2.4-.7-4-1.1-5.5-1-4.9-4.7-8.5-9.1-9.2-4.5-.7-9.3,1.7-11.7,5.8-2.2,3.8-3.4,7.9-2.7,12.2.5,2.9-.3,3.5-3.1,3.5-20.6,0-41.2,0-61.8,0-.6,0-1.3.2-1.8-.8,6-7.3,11.1-15.4,16.6-23.9,1.4,6.6,1.8,12.5,2.3,18.5,11.9-19.2,17.5-40.5,20.8-63.2,4.9,6.5,8.2,13.1,11.4,21,.4-2.2.7-3.3.8-4.4,2-13.7.6-27.1-2.7-40.4-1.8-7.3-4-14.6-7.7-21.2h0c1.6-1.3,2.9.2,4.1.8,5.6,2.6,10.8,5.9,16.1,9.2-7.2-21.3-21.8-36.7-39.9-49.6,6.8-3.3,13.8-4.4,21.3-6-1-.7-1.5-1-2-1.3-10.1-5.2-20.9-8.2-32.1-9.3-2.9-.3-6.1-2-9.1,0-2.8,2-5.6,4.1-8.4,6.2h0c-.7-2.1,1.4-2.3,2.4-3,18.4-13.4,34.3-29,43.9-50.1,6-13.3,8.3-27.2,3.6-41.5-1.2-3.6-2.8-7-5.6-10.2-5.7,34-29.4,56-46.6,65.1,5.5-10,10.1-19.8,11.1-31,1-11.3-.6-21.8-7.8-31.7-.4,1.1-.6,1.4-.6,1.7-3,24.1-14.6,43.1-34.2,57.3-9.8,7.2-21.2,11-32.7,14.4-9.4,2.8-16.3,8.4-20.7,17.1-.7,1.3-1.4,2.1-2.9,2.5-7.9,2.3-15.5,5.6-22.2,10.4-13,9.2-22.6,20.4-21.4,37.7.1,2-1,2.3-2.3,2.6-5.6,1.6-11.3,3.1-16.9,4.7-7.7,2.1-15.6,3.4-22.5,7.9-6.4,4.2-8.4,10.6-5.3,17.6,4.3,9.4,12.5,13.6,22.4,16.9-1.8-3.7-3.2-6.9-2.4-10.9,4.4,5.5,8.9,10.5,15.5,12.8.2.1.4.3.6.4,0-.3,0-.6-.1-.8-2-3.9-2.4-8.1-2-12.8,4,3.8,8,6.7,13.3,8.3-.8-2-1.5-3.3-1.9-4.7-.4-1.7-.3-3.6,1.5-4.7,1.7-1.1,3-.1,4.3,1,1.5,1.3,3.1,2.4,5.1,4.1-.5-2.5-.7-4.3-1.1-6.1-.4-1.8.2-2.8,1.9-3.4,10.5-4.2,20.6-9.5,30.8-14.4,2.6-1.2,5.9-3.2,8-1,2.1,2.2-.6,5.1-1.9,7.3-5.9,10.7-12,21.3-18,31.9-3.8,6.8-2.1,5.3-9.4,4-.4-.2-.8-.4-1.1,0,0,0,.4.4.6.5.2,1.8,2.4,2.5,2.5,4,0,1.9-2,2.6-3.4,3.4-1.1.7-2.3.8-3.6.2-2.3-1-4.7-1.9-7.2-2.8.3,2.9,3.1,4,4.1,6.3-2.2,1.6-4.7.8-7.5.6,4.8,9.7,11.8,15.8,22.8,18.2-2.2-2.9-4.8-4.6-5.4-8.2,7.9,2.6,15.6,2.4,24,1.4-3.2-3.4-7.1-5.2-9.1-9.1,5,.2,9.3-1.3,14.3-2-2.2-2-3.8-3.5-5.5-4.9-1.8-1.5-2.3-2.6.2-4,3.1-1.8,6-3.8,9.4-5.2-.9-1.2-2.1-1.5-3.3-1.9-2.7-.8-3.1-2.2-1.7-4.6,2.1-3.7,4.6-6.8,7.9-9.4,12.4-10.2,26.7-17,41.4-23,6.3-2.6,7.6-1.8,8.8,5,0,.2,0,.5,0,.7,2.2,11.7-2,21.6-8.9,30.7-6.3,8.3-14,15.2-21.5,22.4-15.5,14.8-32.2,28.5-46.1,45-.9,1-1.8,1.5-3.2,1.5-8.2,0-16.5-.1-24.7,0-1.9,0-2.4-.5-2.1-2.3.4-3,.6-5.9,0-8.9-1.1-5.7-5-9.8-9.9-10.3-5.1-.5-8.8,1.7-10.9,6.7-.6,1.4-.9,2.9-1.4,4.7-1.7-6.8-5.2-11.6-12.4-11.8-6.6-.2-9.1,4.8-10.9,10.5-.9-1.3-1.4-2.3-2.1-3.1-3-3.3-6.6-4.9-11-3.6-4.5,1.3-6.7,4.6-7.3,9-.3,2.1-.3,4.3,0,6.3.2,2.1-.4,2.9-2.6,2.8-4-.1-8,0-12,.2-9.9.5-17.1,7.4-18,17.2-.3,3,.1,6,.1,9,0,48,.1,96,.2,143.9-1.3-.7-1.2-2-1.5-3.1-1.2-5.3-2.6-10.6-5.1-15.5-.3-1.9-1.2-3.7-2.3-5.3-1.4-4.3-3.8-8.1-6.7-11.6-13-15.5-28.9-27.7-45-39.6-2-2.3-3.1-2.9-4,1-3.6,15.5-5.5,31.2-3.8,47.1.2,2.2,0,4.4,0,7.7-1.1-2.6-2.2-3.8-3.6-4.9-4.1-3.4-8.2-6.8-12.3-10.3-3.6-3.1-4.8-3.1-8,.3-3,3.3-5.9,6.8-9,10.1-1.7,1.9-1.4,3.1.3,4.9,8.2,8.6,17.5,16,26.5,23.6,9.6,8.1,9.7,8,9.9,20.4,0,1.4,0,2.7,0,4.1-19.3-4.9-38.9-5.5-58.7-3.9-3.6-.6-3.3,1-1.9,3.3,9.2,15.7,20.2,30,34.8,41.2,7.8,6,16.2,10.7,25.4,14-.8,1.8-2.6,2.1-4.1,2.9-6,3.1-12.2,5.9-17.6,9.9-1,.5-1.9,1.1-3,1.6-2.9,1.3-3.4,2.5-.6,4.8,8.9,7.3,17.9,14.4,28.2,19.7,2.2,1.1,2.6,2.1,1.1,4.1-2,2.7-3.6,5.8-3.8,9.2-.2,3-1.8,3.6-4.3,3.6-8.5,0-17,0-25.5.1-1.4,0-3.7-1.1-3.5,2.1.2,3.2,2.4,1.9,3.8,1.9,8.9.2,17.7.1,26.6.2,1,0,2.6-.5,2.8,1.1.9,6.1,4.2,10.7,9.7,15.1-3.6,0-6,0-8.5,0-1.5,0-3-.2-3,2.1,0,2.5,1.8,1.7,2.9,1.7,6.5.1,13,.2,19.5.2,12.5,0,25,0,37.5-.1.9,0,2.2.4,2.8-.6.4-.7.5-1.7.4-2.5-.3-1.4-1.6-.9-2.5-.9-6.6,0-13.3,0-20.5,0,4.9-4.5,8.5-9.1,12.2-13.6,1.2-1.5,2.3-2.2,4.3-2.2,25,0,50,0,75,0,1.1,0,2.2-.3,3.2.6,5.4,5.3,11.4,9.9,18.2,15.3-4.5,0-7.9,0-11.3,0-1.4,0-3.5-.9-3.6,1.9-.1,3,2.2,1.9,3.5,1.9,19.6,0,39.2,0,58.8,0,1.5,0,3.4.5,3.4-2.2,0-2.7-2-1.7-3.2-1.7-6.4-.1-12.9,0-19.9,0,3.9-3.8,6.8-7.6,6.6-12.7,0-2.6.8-3.1,3.1-3.1,15.9,0,31.7,0,47.6-.1,2.4,0,4,.7,5.5,2.8,8.2,10.9,23.5,10.7,31.1-.5,1.2-1.7,2.3-2.2,4.2-2.2,9.8,0,19.7,0,29.9,0-2.4-5.5-5.2-10.7-5.7-16.4-.5-4.9-2.5-10.6,3.9-13.8l.8.6c-1.4,10.3,1.2,19.8,6.4,28.6,8.1,13.7,20.4,22.8,34.5,29.5,20.5,9.7,42.2,12.7,64.6,10.3,18-1.9,34.3-8.6,48.1-20.5,2.7-2.4,5.3-4.9,7.2-8.7-3.1.6-5.4,1.2-7.6,2.4l-17.3,4c-2.1.2-4.2.3-6.3.5-21.6,2.4-42.5-.3-62.3-9.7-3.2-1.5-6-3.7-9.2-7,6.4,0,11.9,0,17.3,0,1.2,0,1.6.8,2.3,1.6,9.3,11.8,22.9,11.9,32.2,0,1.1-1.5,2.2-1.6,3.7-1.6,43.7-.2,87.4-.4,131.1-.5,6.7,0,13.5,0,20.2,0,.8,0,1.9.4,2.2-.8.2-.9.3-2.2-.2-2.9-.6-1.1-2.1-.6-3.1-.6-14.2,0-28.5,0-42.7,0-6.2,0-12.5,0-18.7,0,3.1-2.1,6.3-3.4,9.5-4.8,11.1-4.9,21.5-11,31.3-18.1.8-.6,2.9-1.2.3-2.3-1-.7-1.9-1.5-3-2.2-10.1-6.2-20.4-11.9-31-17.2,1.4-.2,2.7-.5,4.1-.6,35.5-3,60.7-22.4,80.9-50.1-1.1-.6-2.1-1.1-3.3-1-.3-.2-.6-.6-.9-.6-21.4-5.3-42.9-9.4-65.1-8.4,4.9-5.3,9.8-10.5,13.6-16.7,8.9-14.2,13.7-30,18-46.5-1.5.2-2.7.3-3.9.5-11.6,1.1-22.7,4.1-33.9,7-6.5,1.7-12.8,3.8-18.7,7.3-.9.6-1.6.4-2.2-.5-.9-1.5-1.9-2.9-2.8-4.4-8-12.8-18.4-23.1-31.4-30.8-.4-.5-.9-.9-1.3-1.4Zm16.5-184.5c1.5-1.6,2.9-3,4.1-4.6,10.6-13.5,3.8-33.6-13.2-38.8-8.9-2.7-17.6-1.1-26.2.9-7.6,1.8-15.2,4.1-23.2,3.6-6.6-.4-12.9-2-17.3-7.6-3.2-4-3.6-8.9-1.2-12.1,1.1-1.5,3-3,.9-4.7-2.1-1.7-4.3-.8-5.8,1.3-2.4,3.2-2.9,6.9-2.3,10.7,1.6,9.1,9.3,16,19.4,17.7,10,1.7,19.6-.5,29.2-2.7,7.4-1.7,14.8-3.9,22.5-1.9,8,2,13.5,6.8,15.7,14.9,2.2,7.6-1.3,13.4-6.7,18.2-9.5,8.4-20.9,11.3-33.3,10.9-5.4-.2-10.7-1.4-14.2-6.2-3.4-4.6-2-10.4,3.3-12.4,1.7-.7,2.4-1.7,2-3.4-.4-1.8-2-2.3-3.5-2.2-2.1.2-4,1.3-5.5,2.9-6,6-5.2,16.3,1.9,21.8,6.4,5,13.9,5.8,21.6,5.4,7.7-.4,14.9-2.8,22.3-4.5,8.5-1.9,16.8-1.9,24.6,2.8,8.7,5.2,13.1,15.3,10.3,23.9-2.9,8.9-13.2,15.7-22.8,14.8-4.8-.4-9.1-2.3-10.9-7.2-1.6-4.1-.9-7.8,3.1-10.4,1-.6,1.3-1.9.6-3-.8-1.4-2-1.9-3.5-1.6-1.5.3-2.7,1.3-3.7,2.4-4.5,4.9-4.6,12.7-.4,18.3,5.1,6.8,13.9,9.3,23.7,6.8,20.7-5.3,27.6-28.5,13-44.1-6.6-7.1-15.1-9.8-24.6-10Zm-350.9,16.6c7.1-.1,17-2.6,26-8.3,12.7-8.1,23.8-18.1,34.3-28.8,1.5-1.5,1.2-2.1-.4-3.3-1.8-1.2-2.7-.7-4.1.6-9.8,9.1-19.6,18.2-31,25.3-15.7,9.9-32.2,11.3-49.3,3.9-9.8-4.3-18-11.1-25.7-18.5-7.7-7.5-15.2-15.2-24.1-21.4-12.1-8.3-25.3-12.9-40.2-10.3-11,1.9-18.5,8.9-20,18.5-1.3,8.7,6.6,18.5,14.7,18.2,2,0,3.5-.6,3.7-2.8.1-2.1-1-3-3.2-3.2-4.8-.4-7.6-3.4-8.8-7.9-1.4-4.9.7-9.8,5.7-13.1,6.2-4.2,13.3-5.1,20.5-4.1,10.9,1.5,20.3,6.6,28.8,13.4,8.6,6.9,16,15.1,24.2,22.3,13,11.4,27.5,19.4,48.9,19.4Zm-105.7-11.5c-22.2.3-39.2,17.4-39,39.3.2,21.1,17.8,38.3,38.7,38,21.9-.3,39.1-17.8,38.9-39.7-.2-20.8-17.8-37.9-38.6-37.7Zm3.7,146.8q9,3.9,15.1,16.5c.6-9.5,5.3-14.6,14.4-15.9-8.7-1.4-13.1-6.9-15-15.1-1.3,8.6-6,13.1-14.5,14.5Zm-76,223.2s0,0,0,.1c-1.5,0-3,0-4.5,0-1.5,0-1.8.9-1.8,2.2,0,1.2,0,2.2,1.7,2.2,2.8,0,5.7,0,8.5,0,1.6,0,1.7-.9,1.7-2.2,0-1.1,0-2.3-1.6-2.3-1.4,0-2.7,0-4.1,0Zm627.7,4.4h0c1,0,2,0,3,0,1.7,0,2.8-.1,2.8-2.3,0-2.2-1.3-2.1-2.7-2-2.4.1-4.7.3-7.1.3-1.6,0-1.7.8-1.7,2.1,0,1.4.5,2,1.9,1.9,1.2-.1,2.5,0,3.7,0Zm-458.6,20.3c1.6,0,2.3,0,3.1,0,1.5,0,2.2-.5,2.3-2.1,0-2-1.2-1.8-2.5-1.7-1.5,0-3,0-4.5,0-.9,0-1.4.4-1.4,1.3,0,.8-.4,2,.5,2.3,1,.3,2.2.2,2.5.2Z"/><path class="cls-5" d="m627,611.2c1.4-.2,2.7-.5,4.1-.6,35.5-3,60.7-22.4,80.9-50.1-1.1-.6-2.1-1.1-3.3-1,0,1.4-1.1,1.4-2.1,1.5-13.8.4-27.1,3.4-40.4,6.7-1.4.4-2.9,1-4.3-.1-2.7,2.5-5.1,5.2-7.4,8.6,6.9-1.1,13.3-3,20-2.8-21.1,6.2-42.8,10.6-64.4,17.1,6,2.3,11.8,3.5,16.5,7.5-7.2-2-14.4-4-21.9-6.1.7-2.6,3-3.2,5-3.8,10.9-3,21.8-6.1,32.8-8.8,4.1-1,7.7-2.2,10.5-5.7,2.1-2.6,4.7-4.8,7-7.2-.2-2-2-1.8-3.2-1.9-10.4-1.7-20.9-1.7-31.5-.7-1.4.1-3.3,1.1-4.1-.4-.8-1.6,1.2-2.5,2.1-3.5.9-1,2-1.7,3.2-2.8-1.6-.9-2.6.8-4,.5,0-3.6,2.5-4.3,5.1-4.7,5-.8,10-1.5,15-2.3,4.9-5.3,9.8-10.5,13.6-16.7,8.9-14.2,13.7-30,18-46.5-1.5.2-2.7.3-3.9.5-4.1,2.8-8.3,5.5-12.4,8.4-6.1,4.4-12.3,8.7-17.1,14.6-.6.7-1.7.9-2.5,1.4-1,1.9-1.9,3.8-2.9,5.6.2.3.5.6.7.9,1.8-.5,3.2-2.3,6.2-1.7-6.7,4.4-13.5,8.1-17.4,15.6-.3-3,8.6-17.9,12.3-21.4.2-2-.6-2.7-2.7-2.9-4.5-.5-8.1,1.6-11.9,3.5,2.8-5.4,8.2-8.3,13-13.4-5.9,1.5-10.2,3.8-14.5,6-1.1.6-2.3,2.3-3.4,1.6-1.6-1,.4-2.7,0-4.1-.9.6-1.6.4-2.2-.5-.9-1.5-1.9-2.9-2.8-4.4-8-12.8-18.4-23.1-31.4-30.8-.9,0-2.1.4-2.6-.7-.3-.6.7-.6,1.3-.7,0-13.1,0-26.1,0-39.2,0-9.7.1-19.4.2-29.1-.1-.2-.1-.4,0-.7,0-10,0-20,0-30,0-11.1-8.3-19.4-19.3-19.6-3,0-6-.2-9,0-2,.1-3-.1-2.5-2.6.5-2.8.3-5.7-.6-8.5-1.2-3.7-3.4-6.5-7.3-7.3-3.8-.7-7.1.6-9.7,3.5-.8,1-1.6,2-2.4,3.1-2.3-7.3-5.4-10.3-10.8-10-8.8.5-10.5,7.3-12.2,15-.5-2.4-.7-4-1.1-5.5-1-4.9-4.7-8.5-9.1-9.2-4.5-.7-9.3,1.7-11.7,5.8-2.2,3.8-3.4,7.9-2.7,12.2.5,2.9-.3,3.5-3.1,3.5-20.6,0-41.2,0-61.8,0-.6,0-1.3.2-1.8-.8,6-7.3,11.1-15.4,16.6-23.9,1.4,6.6,1.8,12.5,2.3,18.5,11.9-19.2,17.5-40.5,20.8-63.2,4.9,6.5,8.2,13.1,11.4,21,.4-2.2.7-3.3.8-4.4,2-13.7.6-27.1-2.7-40.4-1.8-7.3-4-14.6-7.7-21.2.2-.1.3-.2.5-.3,0,0,.2-.1.2-.2,0,0,0,0,0,0,1.3-.5,2.3.7,3.4,1.1,5.6,2.6,10.8,5.9,16.1,9.2-7.2-21.3-21.8-36.7-39.9-49.6,6.8-3.3,13.8-4.4,21.3-6-1-.7-1.5-1-2-1.3-10.1-5.2-20.9-8.2-32.1-9.3-2.9-.3-6.1-2-9.1,0-2.8,2-5.6,4.1-8.4,6.2,0,0,0,0,0,0,0,0,0,0,0,0-.7,0-1.4,0-2.1,0,0,0,0,0,0,0,0,.5,0,1,0,1.5.2.3.5.5.7.8,2.8.4,5.6.9,9.4,1.5-7.1,2.1-13.4,3.9-19.6,5.8,3.6-3,7.7-5.1,9.6-9.6,0,0,0,0,0,0,.7,0,1.5-.8,2.1,0,0,0,0,0,0,0-.6-2.1,1.4-2.3,2.4-3,18.4-13.4,34.3-29,43.9-50.1,6-13.3,8.3-27.2,3.6-41.5-1.2-3.6-2.8-7-5.6-10.2-5.7,34-29.4,56-46.6,65.1,5.5-10,10.1-19.8,11.1-31,1-11.3-.6-21.8-7.8-31.7-.4,1.1-.6,1.4-.6,1.7-3,24.1-14.6,43.1-34.2,57.3-9.8,7.2-21.2,11-32.7,14.4-9.4,2.8-16.3,8.4-20.7,17.1-.7,1.3-1.4,2.1-2.9,2.5-7.9,2.3-15.5,5.6-22.2,10.4-13,9.2-22.6,20.4-21.4,37.7.1,2-1,2.3-2.3,2.6-5.6,1.6-11.3,3.1-16.9,4.7-7.7,2.1-15.6,3.4-22.5,7.9-6.4,4.2-8.4,10.6-5.3,17.6,4.3,9.4,12.5,13.6,22.4,16.9-1.8-3.7-3.2-6.9-2.4-10.9,4.4,5.5,8.9,10.5,15.5,12.8.2-.2.3-.3.5-.4-2-3.9-2.4-8.1-2-12.8,4,3.8,8,6.7,13.3,8.3-.8-2-1.5-3.3-1.9-4.7-.4-1.7-.3-3.6,1.5-4.7,1.7-1.1,3-.1,4.3,1,1.5,1.3,3.1,2.4,5.1,4.1-.5-2.5-.7-4.3-1.1-6.1-.4-1.8.2-2.8,1.9-3.4,10.5-4.2,20.6-9.5,30.8-14.4,2.6-1.2,5.9-3.2,8-1,2.1,2.2-.6,5.1-1.9,7.3-5.9,10.7-12,21.3-18,31.9-3.8,6.8-2.1,5.3-9.4,4-.2.2-.3.4-.5.6.2,1.8,2.4,2.5,2.5,4,0,1.9-2,2.6-3.4,3.4-1.1.7-2.3.8-3.6.2-2.3-1-4.7-1.9-7.2-2.8.3,2.9,3.1,4,4.1,6.3-2.2,1.6-4.7.8-7.5.6,4.8,9.7,11.8,15.8,22.8,18.2-2.2-2.9-4.8-4.6-5.4-8.2,7.9,2.6,15.6,2.4,24,1.4-3.2-3.4-7.1-5.2-9.1-9.1,5,.2,9.3-1.3,14.3-2-2.2-2-3.8-3.5-5.5-4.9-1.8-1.5-2.3-2.6.2-4,3.1-1.8,6-3.8,9.4-5.2-.9-1.2-2.1-1.5-3.3-1.9-2.7-.8-3.1-2.2-1.7-4.6,2.1-3.7,4.6-6.8,7.9-9.4,12.4-10.2,26.7-17,41.4-23,6.3-2.6,7.6-1.8,8.8,5,0,.2,0,.5,0,.7,2.2,11.7-2,21.6-8.9,30.7-6.3,8.3-14,15.2-21.5,22.4-15.5,14.8-32.2,28.5-46.1,45-.9,1-1.8,1.5-3.2,1.5-8.2,0-16.5-.1-24.7,0-1.9,0-2.4-.5-2.1-2.3.4-3,.6-5.9,0-8.9-1.1-5.7-5-9.8-9.9-10.3-5.1-.5-8.8,1.7-10.9,6.7-.6,1.4-.9,2.9-1.4,4.7-1.7-6.8-5.2-11.6-12.4-11.8-6.6-.2-9.1,4.8-10.9,10.5-.9-1.3-1.4-2.3-2.1-3.1-3-3.3-6.6-4.9-11-3.6-4.5,1.3-6.7,4.6-7.3,9-.3,2.1-.3,4.3,0,6.3.2,2.1-.4,2.9-2.6,2.8-4-.1-8,0-12,.2-9.9.5-17.1,7.4-18,17.2-.3,3,.1,6,.1,9,0,48,.1,96,.2,143.9-2,9.4,1,19-.9,28.6-3.4-3-5.1-6-4.6-11.3,1-10.5,1-21.1-1.5-31.5-.4-1.5-1-3.1.5-4.5-.3-1.9-1.2-3.7-2.3-5.3-1.3,1.3-1.5,3.1-1.5,4.8,0,4.3.1,8.7-1.2,13.1-1.4-7.6-3-15.1-5.5-22.3-.8-2.4-1.9-4.6-3.3-6.7-.4-.6-.7-1.5-1.6-1.3-.8.2-1,1-1.2,1.7-.7,3.3-1.6,6.5-1.6,11-4-7.1-8.3-12.8-14.1-18.6,0,3.7,0,6.6,0,9.5,0,1.2.8,2.9-1.2,3.5,1.6,10.1,5.6,19.6,8.6,29.3.4,1.3,1.4,2.6.5,4.4-2.9-4.6-4.8-9.4-6.1-14.4-1.3-5.1-3.8-8.8-9.1-10.4q2.4-.8,5.4-.2c-1.6-5.7-3.1-11.2-4.7-17.1,3.1,1.1,2.7,4.4,4.4,6.2-.1-8.5-1-16.6-6.8-23.8-4.6-5.7-7.7-12.4-12.3-18.2-.3-.4-.3-1.2-.4-1.8-2-2.3-3.1-2.9-4,1-3.6,15.5-5.5,31.2-3.8,47.1.2,2.2,0,4.4,0,7.7-1.1-2.6-2.2-3.8-3.6-4.9-4.1-3.4-8.2-6.8-12.3-10.3-3.6-3.1-4.8-3.1-8,.3-3,3.3-5.9,6.8-9,10.1-1.7,1.9-1.4,3.1.3,4.9,8.2,8.6,17.5,16,26.5,23.6,9.6,8.1,9.7,8,9.9,20.4,0,1.4,0,2.7,0,4.1,1,1.9.5,2.8-1.7,2.7-3.1,0-6.1,0-9.9,0,2.5,3.4,7.1,4.6,6.1,9.3,2.3,4,4.8,7.9,6.9,12,1.4,2.6,3.3,4.2,5.9,5.3,8.2,3.5,16.3,7.3,24.1,11.7,1.3.7,2.8,1.2,4.2,3.7-19.2-8.7-37.5-17.1-56.2-24.3,7-.2,13,3.7,20,5.4-1.8-4.8-4.3-8.7-6.9-12.5-4.8-.3-8.9-3-13.4-4.4-10.3-3.2-20.6-6.6-30.8-10.1-2.3-.8-5.4.4-7-2.5-3.6-.6-3.3,1-1.9,3.3,9.2,15.7,20.2,30,34.8,41.2,7.8,6,16.2,10.7,25.4,14,1.1,0,2.1-.4,3.1-1.1,6.2-4.2,13.3-6.3,20.6-7,2.8-.3,6,1.6,9.1,2.2,3.2,0,6.4,0,9.6,0,.8,0,2.5-.4,2.4.9,0,1.6-1.7,1.5-2.9,1.3-2.9-.5-5.8-1-8.7-1.6-6.6,1.2-13.3,1.3-19.8,2.9-1,.2-2,.2-2.9,1.2,4.8.8,9.2,2.5,13.8,4.8-3.6,2-7.3,2.4-10.7,3.9-1.5.6-5.1,1.2-.6,3.2.8.3.7,1.3.7,2,2.1-.4,3.4,1.3,4.8,2.2,2.1,1.5,4,3.2,6.4,4.5-6.6,1.8-13.1.4-19.7-.7,4.3-.3,8.6-.6,13.1-.9-1.1-2.3-3.7-3-4.7-5.2-6.2,0-12.4.1-18.6,0-5-.1-9.9.7-14.8,1.1-1,0-1.7.3-2-.9-1,.5-1.9,1.1-3,1.6-2.9,1.3-3.4,2.5-.6,4.8,8.9,7.3,17.9,14.4,28.2,19.7,2.2,1.1,2.6,2.1,1.1,4.1-2,2.7-3.6,5.8-3.8,9.2-.2,3-1.8,3.6-4.3,3.6-8.5,0-17,0-25.5.1-1.4,0-3.7-1.1-3.5,2.1.2,3.2,2.4,1.9,3.8,1.9,8.9.2,17.7.1,26.6.2,1,0,2.6-.5,2.8,1.1.9,6.1,4.2,10.7,9.7,15.1-3.6,0-6,0-8.5,0-1.5,0-3-.2-3,2.1,0,2.5,1.8,1.7,2.9,1.7,6.5.1,13,.2,19.5.2,12.5,0,25,0,37.5-.1.9,0,2.2.4,2.8-.6.4-.7.5-1.7.4-2.5-.3-1.4-1.6-.9-2.5-.9-6.6,0-13.3,0-20.5,0,4.9-4.5,8.5-9.1,12.2-13.6,1.2-1.5,2.3-2.2,4.3-2.2,25,0,50,0,75,0,1.1,0,2.2-.3,3.2.6,5.4,5.3,11.4,9.9,18.2,15.3-4.5,0-7.9,0-11.3,0-1.4,0-3.5-.9-3.6,1.9-.1,3,2.2,1.9,3.5,1.9,19.6,0,39.2,0,58.8,0,1.5,0,3.4.5,3.4-2.2,0-2.7-2-1.7-3.2-1.7-6.4-.1-12.9,0-19.9,0,3.9-3.8,6.8-7.6,6.6-12.7,0-2.6.8-3.1,3.1-3.1,15.9,0,31.7,0,47.6-.1,2.4,0,4,.7,5.5,2.8,8.2,10.9,23.5,10.7,31.1-.5,1.2-1.7,2.3-2.2,4.2-2.2,9.8,0,19.7,0,29.9,0-2.4-5.5-5.2-10.7-5.7-16.4-.5-4.9-2.5-10.6,3.9-13.8.3-.3.5-.7.8-1,.5.5.2,1.1,0,1.6-1.4,10.3,1.2,19.8,6.4,28.6,8.1,13.7,20.4,22.8,34.5,29.5,20.5,9.7,42.2,12.7,64.6,10.3,18-1.9,34.3-8.6,48.1-20.5,2.7-2.4,5.3-4.9,7.2-8.7-3.1.6-5.4,1.2-7.6,2.4-.2.4-.3,1.1-.6,1.3-11.6,5-22.9,11-35.9,11.5-.8,0-1.6,0-2.5-.5,4.4-1.5,8.3-4.3,13.1-4.5,2.9-.1,5.2-2.1,8.1-2.2.7,0,.5-1,.6-1.6-2.1.2-4.2.3-6.3.5-21.6,2.4-42.5-.3-62.3-9.7-3.2-1.5-6-3.7-9.2-7,6.4,0,11.9,0,17.3,0,0,0,.3,0,.6,0-8.6-5.6-14.4-14.2-19.1-24.1-3.9,2.8-7,6.4-9.5,11.1-.8-7.4,2.4-12.1,7.5-15.7-7.5-17.8-12-39-21.4-55-.7-1.3-2.1-1.8-3.4-2.2,1.8,3.4,3.5,6.9,5.6,10.1,1.5,2.4.9,3.7-1,5.4-8,7.4-15.9,14.9-23.9,22.4-14.5,13.5-29.1,27-43.6,40.5-.7.7-1.2,1.2-1.5,2.3-1.5,6.6-7.9,11.3-14.9,11.3-8.3,0-15.7-7.9-15.1-16.2.5-8.6,8.6-15.5,17.3-14.4,2.4.3,3.9-.1,5.6-1.7,22.6-20.6,45.3-41,67.9-61.6.7-.6,1.1-.9,1.5-.9-.8-6.3,3.1-12.1,9.4-13-.9-4.2-3.3-6.7-5.3-10.3s-4.6-8.3-6.8-12.5c-4.5-8.4-8.9-16.8-13.2-25.3-8.6-17-16.7-34.2-24.4-51.6s-.9-2.1-1.4-3.1c-.6-1.4-1.3-2.8-2.6-3.5-1-.5-2.2-.5-3.3-.5-43,0-85.9,0-128.9,0-3.9,0-8,0-11.7-1.5s-6.8-4.9-6.8-8.9c0-3.9,3.2-7.3,6.8-8.7s7.6-1.5,11.6-1.5c73.8,0,147.5,0,221.3,0,4,0,8.4,0,11.6,2.4,5.2,3.7,4.9,12.8-.5,16.2-3.1,1.9-6.9,2-10.5,2-27.1,0-54.3,0-81.4,0-5,0,1,3.6,1.9,5.5,3.6,7.6,7.4,16.4,11.2,24.4,8,16.9,16.1,33.6,24.7,50.4,3.7,7.2,7.8,14.2,12.8,20.6,1,1,8,0,10,3,1,1.1,1.9,2.2,2.8,3.3-1-1.9-2-3.9-2.9-5.8-.9-1.8.4-2.5,1.3-3.4,3.4-3.3,6.9-6.5,10.4-9.7,1.4-1.2,2.1-2.4,2.3-4.4,1.2-9.8,6.5-16.4,16.2-19.3,4.2-1.3,8.3-2.6,12.6-3.3.3,0,.8-.3.9-.2.3.5-.2.5-.5.6-3.8,5-8.8,8.8-13.2,13.1-6,6-5.9,6.6,0,12.7,2.5,2.6,4.3,3,7.3.5,5.7-4.8,11.8-9.2,18.6-12.5.5-.2,1-.8,1.6-.5,0,0,0,0,0,0,0,0,.1-.1.2-.2,0,.1,0,.3,0,.4,0,0,.1,0,.2.2,0,0-.1,0-.2-.1,0,0,0,0,0,0-3.7,6.3-7.3,12.6-11.7,18.4-4.8,6.4-11.6,7.7-19.1,6.7-2.4-.3-4.1.3-5.6,2-4.1,4.6-8.2,9.2-12.2,13.9,1.3,2.2,2.5,4.5,3.6,6.7,4.3-1,8.3-2,12.6-3-1.2,3.8-2.3,7.2-4.3,10.2-1.3,2-2.6,2.8-3.8,2.4.9,2,1.9,4,2.8,6-.2-.9,0-1.7,1-2.4,2.1-1.4,3.2-3.8,5.2-5.3,1.6-3.8,4-7.2,5.2-11.2.3-1,1-1.5,2.1-1.8,5.1-1.4,10.2-3,15.4-4.3,1-.3,2.3-1.3,2.3,2,0,8.9-5.1,11.7-12.4,13.1.1,1.1-.5,1.8-1.4,2.4-4.3,3-8.4,6.2-12.7,9.2-1.1.8-2.3,2-3.7,0,0,0-.1-.2-.2-.3,1.1,2.3,2.3,4.6,3.5,6.9,4.5,7.4,11.5,16,17.4,24.8,15.4-1.9,30.3-6,44.7-11.8,20-8.1,36.9-20.3,48.8-38.7,14.3-22.2,14.4-45.5,4.7-69.4-.2-.5-.5-.9-.6-1.4,0-.5-1.5-1.1,0-1.7.9-.3,1.2.5,1.5,1.1,4.5,7.7,7.8,15.9,9,24.8.5,3.8,1,7.7.9,10.3,0,23.5-9.3,41.6-25.2,56.4-19.6,18.3-43.6,28-69.5,33.5-3.6.8-7.3,1.4-11,2,6.4,10.9,9.9,21.9,3.4,31.7,6.8,0,12.5,0,13.1,0,43.7-.2,87.4-.4,131.1-.5,6.7,0,13.5,0,20.2,0,.8,0,1.9.4,2.2-.8.2-.9.3-2.2-.2-2.9-.6-1.1-2.1-.6-3.1-.6-14.2,0-28.5,0-42.7,0-6.2,0-12.5,0-18.7,0,3.1-2.1,6.3-3.4,9.5-4.8,11.1-4.9,21.5-11,31.3-18.1.8-.6,2.9-1.2.3-2.3-8.2-1-16.5-2.1-24.7-3.1-3.6-.4-7.2-.7-10.7-.8-1.1,0-1.6-.4-1.8-1.4-2.7,1.7-5.4,3.4-8.5,5.3,5,1.3,9.5,1,13.6,3.2-14-.5-27.9-1-42.2-1.5,3.1,4.5,7.9,6.8,10.9,11-4.5-1.9-8.2-4.8-11.5-8.2-2-2-4-2.9-6.9-2.9-4.8,0-9.7-.5-15-.9,2.6-1.3,4.8-1.2,7-1.2,11.6-.3,23.2-.1,34.8.6,3.1.2,5.8-.4,8.5-2.1,2.9-1.9,6-3.4,9-5.1-7.2-3.5-15-4.9-22.6-6.9-1.4-.4-2.9-.6-5.2-1.1,6.6-2.6,12.6-4.9,19.6-6.3-10.6-4.2-20.5-3.6-30.5-1.1,2.8-2.9,5.4-4.9,9.8-5.2,12-.8,22.5,3,32.7,8.5Zm-1.4-76.7c1.2-1.2,2.5-1.1,4.1-.8,1.8.3,3.7,0,5.5,0,0,.3,0,.6,0,.8-2.8.6-5.7,1.3-8.5,2-.6.1-1.3.5-1.7-.2-.4-.8.1-1.3.7-1.9ZM235.4,246c.5-5.4,3.4-8.5,7.8-10.4,9-3.9,18.7-6,27.9-9.7.8-.3,1.6-.3,2.6-.2-11.9,8-26.9,10.2-38.3,20.4Zm282.1,438c4.1-3.6,9.1-1.9,14.5-2.4-4.2,1.7-7.7,3.1-11.5,3.3.1,2-1.1,2.3-2.6,2.1-2.5-.4-5-.6-8-2.1,3-.1,4.9-3,7.6-.8Zm-17.9-5.3c5.2.6,10.4,1.1,15.7,1.7-4.4.2-8.6,1.4-12.8,2,.3.7.5,1.4-.7,1.5-3.4.5-6.2-1-9.1-2.5-.7-.4-.7-1-.5-1.6.3-.7,1-1.1,1.8-1.1,1.9,0,3.7,0,5.6,0Zm-17.1-6.2c4.4,0,7.8,3.2,12.5,3.4-3.2,1.2-6.1,1.2-9,1.1-.4.8-1.1.9-1.9,1-1.9,0-4.2-.2-4.6-2.2-.2-1.1,1-3,2.9-3.2Zm-8.4-6.7c1.7.3,2.9,1.5,4.6,2.9-2.8.2-4.3-.5-4.8-2.7,0-.1-.2-.3-.3-.4.1,0,.3.2.4.3Zm-45.4-189.6c-1.2,0-2.6-.2-2.5-1.6,0-1.4,1.6-.8,2.4-.8,11.5,0,22.9,0,34.4,0h0c10.9-.1,21.7-.1,32.6-.1,1.1,0,2.2,0,3.4.1.6,0,1.3,0,1.4.8,0,.9-.6,1.3-1.4,1.4-.9.1-1.7.1-2.6.1-22.1,0-44.2,0-66.2,0-.5,0-1,0-1.5,0Zm48.7,53.4c-3,0-6,0-9,0h0c-3,0-6,0-9,0-.9,0-1.9-.1-1.9-1.3,0-1.3,1-1.2,1.8-1.3,6,0,11.9,0,17.9,0,.9,0,1.9,0,2,1.2,0,1.2-1,1.3-1.9,1.3Zm20.2-24.1c-16.5,0-32.9,0-49.4-.1-1.2,0-2.6.3-2.8-2.1,6,0,11.9,0,17.9,0,11.5,0,23,0,34.4,0,1,0,2.7-.6,2.8.9.1,1.9-1.8,1.4-2.9,1.4Zm-94.1-272.6c2.3-.7,2.5.4,2.3,1.4-.3,1.8,0,2.8-.7,3.7-4.3,4.9-9.7,8.1-16,9.6-.5.1-1.6,0-1.7-.3-1.3-3.2-2.6-6.4-3.7-9.7-.3-1,.9-.9,1.6-1,6.2-.9,12.3-1.9,18.3-3.7Zm-16.4,20.2c0-1.5.7-1.1,1.7-1.3,6-1,11.7-2.8,15.9-7.6,0,0,0,0,0,0h0s0,0,0,0h0c0,.1,0,0,0,0,0,0,0,0,0,0,1.4,11.8-5.7,19.9-17.5,20.4-1.5,0-1.8-.4-1.5-1.7.8-3.3,1.5-6.6,1.4-9.9Zm57.5-148.9c.3-.7.7-1.3,1-2,.1-.2.3-.4.4-.4,1.2,2.4-.3,4.4-1.1,6.4-6.1,15-17.1,25.9-30.1,35-12.9,9.1-27.4,14.6-41.9,20.2-4.3,1.7-8.1,4.2-13.1,6.6,3.7-5.8,8.3-8.9,13.7-10.9,9.1-3.4,18-7.3,26.8-11.5,19.7-9.5,34.4-24.1,44.4-43.4Zm-99.1,51c8.9-3.7,17.8-7.1,26-12.3,12.9-8,22-19.4,29.1-32.6.8-1.5,1.6-3,2.7-4.8,2,18.8-38.5,52.2-65.7,54.3,2.5-2.3,5.2-3.5,8-4.6Zm-34.9,66.6c-2.1,5.9-8.1,8.4-13.9,6.1-2.8-1.1-3.4-3.1-2.4-5.7,1.2-3,3.3-5.3,6.3-6.6,1.6-.7,3.3-1.2,4.9-1.6,2.4-.6,4.8-1.1,7.8-1.8-1,3.7-1.6,6.7-2.7,9.7Zm-13.4-27.5c-4.5,3.5-8,7.9-11.6,12.2-.6.8-.8,2.2-2.4,2,2.6-10.7,9.2-18.5,18.1-24.5,14.2-9.6,30.1-13.9,47.2-14.4-1.8,5.4-5.9,5.9-10.4,6.7-15.1,2.6-28.8,8.5-40.9,18Zm83.6-19.8c-7.2,8.7-16.7,13.5-27.8,15.4-4.1.7-8.2,2.1-12.8,1.2,1.5-2,4-1.4,5.5-2.7,7-4.9,15.2-7.7,22.5-12,5.9-3.4,11.5-7.2,15.4-13.2,1,1.4.6,2.8.3,4.2,1.1,3.3-1.6,5.3-3.2,7.2Zm3,95.3c.3-.5,1.6-.4,2.4-.6,4.8-.7,9.5-1.9,13.8-4.2.8-.1,1.9-1.3,2.1.7.3,3.5-.5,6.9-.9,10.3-.1,1.1-1.1,1.6-2.1,1.9-2.5.7-4.7,2.2-7.5,2-5.2,2.6-10.8,3.5-17.3,4.3,3.8-4.8,6.8-9.5,9.5-14.4Zm-14.1,19.3c.7-.7,1.8-.6,2.8-.6,4.5,0,8.9-.8,13.1-2.3.9-.2,1.9-.4,2.8-.7,1.7-.6,2.3,0,2.3,1.7,0,4-.4,7.9-4.7,9.5-3.4,1.2-6.6,3.6-10.5,3.3-6.3,3-13,3.4-20.4,3.7,5.1-5.2,9.7-9.9,14.4-14.6Zm-19.6,19c.5-.5,1.1-.5,1.7-.4,5.5.6,10.9-.2,16.4-.7,1.5,0,3-2,4.1-1,1.2,1.1-.4,3-.5,4.5-.2,4.4-2.9,6.2-6.8,7.1-2.6.6-5,2.6-8,1.3-6.7,3-13.9,3-22,3,5.4-5,10.2-9.3,15-13.7Zm-20.1,18.5c1.4-1.2,2.7-.9,4.1-.7,5.5.8,10.9,0,16.3-.7,2.7-.6,5.3-1.2,8-1.8.1,0,.2-.2.3-.3,0,.1-.2.2-.3.3.3,2.7-1.5,5-1.6,7.6,0,.9-.7,1.2-1.4,1.5-5.5,1.6-10.9,3.3-16.4,4.9-.6.2-.8-.3-.9-.9-6.6,2.9-13.5,3.8-21.2,2.8,4.6-4.7,8.7-8.9,13-12.8Zm-1.5,17.1c3.7-1,7.4-2.1,11.1-3,1.3-.3,3.1-1.7,3.8.4.6,1.9-.1,5-1.7,5.1-4.8.5-9.9,1.8-14.6-.7-5.1,2.3-10.2.6-15.4,0,5.4-2.5,11.5-.4,17-1.9Zm-142.3,11c2.5-1.8,5.1-3,8.3-2.9,4.4,0,8.8,0,13.1-.2,2.2-.1,3,.8,3.7,2.6,2.9,6.8,6.5,13.2,13.7,17.5-1.8-6-2.5-11.5-.6-17,.6-1.7.8-4,3.2-4.1,2.7-.2,3,2.1,3.5,4,1.4,5,3.7,9.5,6.6,13.7.6.8,1.1,1.9,2.2,1.8,1.3-.2,1.1-1.6,1.4-2.4,1.3-4.9,2.1-10,4.2-14.7.3-.8,0-3,1.7-2.1,2.2,1.1,5.7-2,6.8,2.5,1.2,5.2,1.7,10.3,1.6,15.6,0,.4,0,.9.2,1.7,4.9-2.6,8.4-6.5,9.8-11.2,2.3-7.5,6.9-8.3,14-8.3,35.5.4,71,.2,106.5.2,31.9,0,63.7,0,95.6,0,1.6,0,2.3.3,2.9,1.9,2.1,5.5,4.9,10.7,9.1,14.9,1.4,1.4,2.8,2.9,5.4,3.2-1.7-6.3-2.1-12.1,0-18,.7-1.9,1.4-2.5,3.9-2.6,5.2-.3,6.6,2.4,7.3,6.5.8,4.2,1.8,8.4,2.7,13,2.1-1.4,2.9-3.2,3.9-4.8,2.3-3.8,4-7.8,5.4-11.9.5-1.4.5-4.1,2-3.8,2.3.5,5.3.7,6.1,4.3,1,4.3,1,8.6,1.2,13,0,1-.4,2.2.8,2.6,1,.3,1.4-.8,2-1.4,4.1-3.8,6.9-8.6,8.7-13.8,1-2.8,2.2-4,5.5-3.5,4,.6,8.2.3,12.3.6,8.6.6,13.8,5.9,14.2,14.4q.4,8.3-7.9,8.3c-127.7,0-255.4,0-383.2,0-3,0-3.7-.8-3.7-3.7,0-6.1-.2-12.1,5.6-16.1Zm387.2,136.2v.2s-.3-.1-.3-.1h.3Zm-1.3-.8c-.4.9-1.3.8-1.9.5-3.9-1.5-7.8-3-11-5.7,4.6-.4,8.7.6,12.1,3.6.5.4,1,.9.8,1.6Zm-125.9-86.4c-4.9,0-7.6-2.5-8.4-7.3-.8-5.2,2-8.9,7.2-9.2,2.4-.2,4.7,0,7.1,0,30.9,0,61.7,0,92.6,0,2.4,0,4.7.1,6.7,1.8,2.7,2.4,3.8,6.3,2.4,9.9-1.3,3.5-3.9,5-7.6,5-15,0-30,0-45,0-1.7,0-3.5,0-5.2,0h0c-16.6,0-33.2,0-49.8-.1Zm-169.5-10.1c0,3.9-3.4,7.5-7.3,7.6-4.1.1-7.7-3.5-7.6-7.6.1-4.2,3.3-7.3,7.4-7.3,3.9,0,7.5,3.5,7.5,7.3Zm-27.8,0c0,3.9-3.7,7.7-7.6,7.7-3.8,0-7.1-3.5-7.3-7.5-.1-4,3.1-7.4,7.1-7.4,4.3,0,7.8,3.1,7.8,7.3Zm-28.4-.1c0,4.2-3.3,7.6-7.4,7.8-3.8.1-7.6-3.9-7.5-7.8.2-3.9,3.6-7.2,7.6-7.2,4.1,0,7.3,3.1,7.3,7.2Zm-22.7,162.1c1.9,0,3.7,3.5,5.8,5.3,6.2,5.5,12.6,10.6,21.4,12.9-2.5,4.2-5.9,7.3-8.5,11-.6.8-1.2,1-2.1.3-7.9-6-15.3-12.4-22.6-19-2.1-1.9-1.4-3.2.3-4.7,2.2-1.9,3.3-5.9,5.9-5.8Zm-49.4,113.2c-5.4,6.3-12.3,7.6-19.6,4.6-7.1-2.9-11.2-9.1-11.3-18.3-.2-5.9,3.8-11.1,8.5-15.9,13.2-13.6,26-27.7,38.5-41.8,1.2-1.4,1.8-1,2.9,0,7.2,6.4,14.4,12.7,21.7,18.9,1.6,1.4,1.7,2.3.3,3.9-13.7,16.2-27.2,32.5-41,48.6Zm51.1-32.4c-.1,1.8-1.2,1.2-2.1.9-3.6-1.4-7.1-2.9-10.7-4.3,2.5-2.9,4.8-5.7,7.3-8.4.8-.9,1.3-3,2.9-2.1,1.5.9,3.2,2.2,3.2,4.3,0,3.2-.4,6.4-.6,9.7Zm6.4,3.4c-1.4-.6-1.3-1.7-1.3-2.8,0-2.4,0-4.7,0-7.8,7.5,5.7,13.7,11.5,20.7,16.4-6.6-1.5-13.1-3.3-19.5-5.8Zm82.4,29.5c-4,5.4-12.9,7.2-18.1,3.3-4.5-3.3-8.7-7.1-12.9-10.8-27.4-25-56-48.6-83.9-73-16.6-14.5-33.7-28.5-50.8-42.5-3.7-3-5.6-6.3-5-11.2.3-2.3,0-4.7,0-7.1,0-4.8-.2-5-4.7-4-.5-.4-.4-.9-.2-1.3.4-1,1.8-1.8.9-3-.9-1.3-2-.2-3,.2-.9.4-1.9.4-2.4-.3-.5-.6,0-1.4.6-2,.5-.4.9-1,.4-1.6-.7-.8-1.3-.1-1.9.3-.7.5-1.4,1.2-2.3.6-1.4-.8-.1-1.7,0-2.6.1-.9.4-1.9-.3-2.5-.9-.7-1.6.2-2.2.7-.7.6-1.6.9-2.4.5-1.2-.7-.5-1.7-.3-2.7.5-2.1,0-3.3-2.3-2.1-.6.3-1.7.4-1.7.3.5-4-2-2.8-4.2-2.6-.5,0-1.4-1,0-1.9,1.3-.8.4-1.8-.2-2.5-.6-.7-1.3-1.2-2.5-.6-2.4,1.2-3.8.7-2.8-2.4.6-1.8.1-2.8-1.9-1.8-1.2.6-1.9,0-2.5-.8-.7-.9-.6-1.8.2-2.7.9-1,1.8-2,2.7-3.1,1.9-2.2,3.4-5.4,7.1-2.5,0-.4.2-.7.6-.4,0,0-.2.5-.3.8-.3,1.1-.8,2.3.5,3,2,1.2,3.1-1,4.7-1.4,1.2,1.9-2.1,3.5-.5,5,1.9,1.9,3.2-1.4,5-1,.9.7,0,1.3-.2,1.9-.3.9-.8,1.9.2,2.7,1.1.9,1.8.3,2.5-.6.4-.5,1-.7,1.6-.3.5.4.3,1,0,1.3-.8,1.2-.8,2.2.4,3.2,1.6,1.2,2.1-.5,3.1-1,.4-.2.8-.4,1.2-.6,1.7,2-1.7,3.6,0,5.3,1.8,1.8,3.2-1.1,4.9-.9.4.8-.2,1.4-.4,2.1-.4,1.1-.5,2.3.8,2.9,1,.5,2.1.8,3-.3.6-.7,1.3-1.4,2.2-.7,1,.8-.1,1.5-.5,2.2-.8,1.2-.5,2,.6,2.9,1.3,1,2.5.7,3.2-.4,1.5-2.3,2.6-1.7,4.3,0,9.4,9.2,19.8,17.1,29.9,25.5,1.3,1.1,2.8,2,3.6,4.1-2,.1-3.7.2-5.6.3,0,2,1.6,2.6,2.7,3.5,29.9,25.5,59.9,50.9,89.9,76.3,12.1,10.3,24.1,20.6,36.2,30.8,5.9,5,7,10.3,3.1,15.5Zm-42.9-58c1.4.2,1.9.3,2.4.3,11.2-1.4,15.8,7,21.6,14.6-2.5.4-4.8.7-6.9-.6-6.1-3.8-11.2-8.8-17.1-14.2Zm48.2,40.4c-5.8-4.8-11.4-9.4-17.1-14-2.9-2.3-5.9-4.5-8-7.6,0-.1-.2-.3-.3-.4.1,0,.3.2.4.3,1.9,0,3.3.9,4.7,2,5.7,4.6,11.9,8.6,18.1,12.5,2.7,1.7,3.4,4,2.2,7.2Zm-15.3-25.4c-.5,0-1.2-.3-1.6-.7-4.1-3.7-7.9-7.8-11.1-12.3,14.6-3.2,25.8,2.9,36.3,12-7.9,1-15.7,1-23.5,1Zm56.7-1.1c-5.5,2.3-11.1,4.4-16.9,5.9-3.5.9-7.3-.7-9-3.6-.8-1.4,1.4-2,.6-3.3-5.2-3.6-10.5-7.2-15.8-10.9,14.4-2.3,28.1-2.2,40.3,6.9.2,0,.5,0,.7,0,1.4.7,3.7.8,3.6,2.6,0,1.4-2.2,1.8-3.6,2.3Zm10.4-7.7c-.4,0-1.1-.2-.8.7,0,0,0,0,0,0,.2,0,.4,0,.6.1,0,0,0,0,0,0,.3-.2.7,0,.3.1,0,0-.2,0-.3-.1,0,0,0,0,0,0,0,0-.5,0-.6-.2-1.1-.2-2.3.2-3.4-.4-5.2-2.7-10.6-5.3-15.9-7.9,14.1-5.2,27.8-6.3,40.6,3.5-6.8,1.4-13.7,2.7-20.5,4.1Zm29.8-6.5c-1.1.3-1.9-.4-2.8-.8-5-2.4-9.9-4.9-15.3-6.7,13.2-6.1,28.7-5.5,41.7,1.7-7.7,3-15.8,3.9-23.6,5.8Zm30.5-10.4c-1.1.9-1.7.7-2.9.2-4.5-1.8-8.9-3.7-13.7-5.1,8.9-2.3,17.8-4.4,27.8-5.2-3.9,4.1-7.6,7.1-11.2,10.1Zm24.2-26.3c-14.3-1.5-28.5-3.1-42.9-3.5-4.4,2-9.2,1.5-13.7,2.2-9.3,1.4-18.4,4.1-27.6,6-.1,0-.2,0-.4,0-2.7.6-6.3,2.5-8.1.8-1.7-1.7,2-4,2.6-6.4.1-.6.4-1.2.6-1.8-23.7,4.7-44.7,14.4-61.3,32.5-1.5,1.7-3,1-5,.9,1.9-3.5,4.2-6.2,6.8-8.7,16.6-16.6,37.1-25.3,59.8-29.4,20.2-3.6,40.5-2.5,60.8-.3,11.9,1.3,23.7,3,35.7,4.6-1.6,3.7-4.4,3.2-7.3,2.8Zm5.8-21.8c-1.1,1.6-2.3,1.2-3.3,1.2-50.6,0-101.2,0-151.8,0-1.4,0-4.1.9-4.1-1,0-2.3,2.8-1.3,4.4-1.3,48.8,0,97.7,0,146.5,0,2.7,0,5.4.1,8.3,1.2Zm-15.3-25.2c1.3,0,3.3-.3,3.2,1.6-.1,1.6-2,.8-3.1.9-.5,0-1-.2-1.4-.3-34.3,0-68.6,0-102.9,0-6.7,0-13.5,0-20.2.1-3.7.6-7.5.1-11.2.1-.8,0-1.9,0-2-1.1,0-1.2.9-1.3,1.8-1.3,3.8.1,7.7-.5,11.5.3,14.8,0,29.6,0,44.5,0,25.2,0,50.3.2,75.5.3,1.1,0,2.2-.2,3.3-.3.3-.1.7-.4,1-.3Zm-144.2-22.2c3.6-2.2,136.6-2.2,139.9,0h-139.9Zm-18.8-31.1c2.7,0,5.5-.1,8.2-.1,46.9,0,93.9-.1,140.8-.1,1.6,0,4.5-.7,4.5,1,0,2.5-3,1.5-4.6,1.5-24.5,0-48.9,0-73.4,0,0,0,0,0,0,0-24.5,0-48.9,0-73.4,0-.7,0-1.5,0-2.2,0-.7,0-1.2-.3-1.3-1.1,0-1,.6-1.3,1.4-1.3Zm16.8,39.7c2.9,13,2.1,25-4.3,36.3-9.3,16.7-27.9,23.9-45.8,17.1-17.2-6.4-29-18.2-31.2-37.1-2.7-21.8,11.4-40.3,33-44.7,5.1-1,10.2-1.1,15.3-.4,1.1.2,2.9-.2,3.3,1,.5,1.3-1.1,2.1-1.9,2.9-6.5,6.8-13,13.5-19.5,20.2-2.8,2.9-5.5,5.8-8.3,8.7-1.3,1.3-1.5,2.2,0,3.6,8.8,7.8,17.5,15.6,26.2,23.4,1.4,1.3,2.1,1.2,3.5-.3,9.7-10.2,19.5-20.3,29.7-30.8Zm269.4,54c-.8,7.3-3.8,13.8-7,20.2-.2.5-1,.9-1.5.9-6,.4-11.9-.1-17.8-.8-1.5-.2-1.1-1-.5-1.8,2.5-3.4,4.5-7.1,7.5-10.1.6-4.4,2.7-8.5,3.1-13,.1-1.1,1.4-1.6,2.4-2.2,4.8-2.7,9.8-5,14.1-8.4,1.3-1,1.9-.8,2.1.9.5,3.3.7,6.7.7,10.1,0,2.4-1.9,3-3.1,4.3Zm6.7-62.8c0-24-.4-48-.2-71.9.1-13.6-1.1-11-11.2-11-96.3,0-192.6,0-289,0-12.7,0-25.5,0-38.2,0-4.4,0-5.5,1-5.5,5.5,0,18.4-.1,36.7-.3,55.1,0,1.5.6,3.4-2,4.3-.1-1.9-.3-3.7-.3-5.5-.1-17.9-.3-35.7-.3-53.6,0-6.7,1.9-8.4,8.5-8.4,110.6,0,221.1,0,331.7,0,7.6,0,9.3,1.5,9.3,9.1,0,19.1,0,38.2-.1,57.3,0,1.4,0,2.7.1,4.1,1,1.1.6,2.4.6,3.6,0,11.9.2,23.7-.7,35.5-.2,2.3-.7,4.5-1.4,6.7-1,0-.9-.6-.9-1-.3-8.7-.5-17.5-.7-26.2,0-1.2-.4-2.5.6-3.6Zm14.9,57.2c0,1-.4,1.9-.5,2.9-1,5.1-1.7,5.7-7,5.2-.4,0-.7,0-1.1,0q-7.1-.2-4.9-7c0-4.6,0-9.2-1.1-13.7-.3-1.2-.3-2.4.8-3.4,3.7-3.5,6.5-7.8,9.2-12.3,3.2,4.3,4.2,9.3,6.1,13.9.5,1.1-.5,1.9-.6,2.8,1.5,4-.9,7.7-.9,11.6Zm7.9-16.7c-.9.8-2.6,2.6-2.4-.8-2.2-5.4-4.4-10.8-6.7-16.2-.5-1.3-.5-2.4.1-3.5,1.8-3.1,3.2-6.4,4.2-10.4,3.2,4.1,4.2,8.6,5.7,12.9,4.5,5.8,4.1,13.2-.9,17.9Zm4.2-24.5c-1.6-1.7-2.3-3.7-2.8-5.7-2.5-3.1-4.5-6.5-7.8-9.4-1.1,2.8-.9,5.9-2.7,9.1-.3-9.1-2.8-17-5.2-25.3,7.4,3.6,11.8,9.6,15.6,16,3.1,1.8,4.3,4.9,5.6,8,1.3,3.2-3.7,4-2.6,7.2Z"/><path class="cls-4" d="m404.7,181.9s0,0,0,0c0,0,0,0,0,0,0,0,0,0,0,0,0,0,0,0,0,0Z"/><path class="cls-4" d="m456.8,232c.2,0,.4-.1.7-.2,0,0,0-.1,0-.2,0,0-.2,0-.2.1-.1,0-.3.2-.4.3Z"/><path class="cls-4" d="m345.2,618.3s0,0,0,0c0,0,0,0,0,0-.2,0-.4-.1-.6-.1.1.1.5.3.6.2Z"/><path class="cls-4" d="m404.7,244.2s0,0,0,0c0,0,0,0,0,0h0Z"/><path class="cls-4" d="m527.4,527.2c0,0-.1,0-.2-.1,0,0,.1,0,.2.1,0,0,0,0,0,0Z"/><polygon class="cls-4" points="125.3 612.7 125.3 612.7 125.3 612.7 125.3 612.7 125.3 612.7"/><path class="cls-4" d="m406.9,182s0,0,0,0c0,0,0,0,0,0,0,0,0,0,0,0,0,0,0,0,0,0Z"/><path class="cls-4" d="m596.7,280.4c9.5.2,18,2.9,24.6,10,14.5,15.5,7.6,38.8-13,44.1-9.8,2.5-18.6,0-23.7-6.8-4.2-5.6-4-13.4.4-18.3,1-1.1,2.2-2.1,3.7-2.4,1.4-.3,2.7.2,3.5,1.6.7,1.2.4,2.4-.6,3-4,2.6-4.7,6.3-3.1,10.4,1.9,4.9,6.1,6.7,10.9,7.2,9.6.9,20-5.9,22.8-14.8,2.8-8.6-1.6-18.8-10.3-23.9-7.8-4.6-16.1-4.7-24.6-2.8-7.4,1.7-14.7,4.1-22.3,4.5-7.8.4-15.2-.3-21.6-5.4-7-5.5-7.9-15.8-1.9-21.8,1.6-1.6,3.4-2.6,5.5-2.9,1.5-.2,3,.3,3.5,2.2.4,1.7-.3,2.7-2,3.4-5.3,2-6.7,7.8-3.3,12.4,3.6,4.9,8.9,6,14.2,6.2,12.3.4,23.8-2.5,33.3-10.9,5.4-4.8,8.8-10.6,6.7-18.2-2.3-8.1-7.7-12.9-15.7-14.9-7.7-1.9-15.1.2-22.5,1.9-9.6,2.2-19.2,4.4-29.2,2.7-10-1.7-17.8-8.6-19.4-17.7-.7-3.8,0-7.5,2.3-10.7,1.5-2,3.7-3,5.8-1.3,2.1,1.7.2,3.2-.9,4.7-2.4,3.2-2,8.1,1.2,12.1,4.4,5.6,10.6,7.2,17.3,7.6,8,.5,15.5-1.7,23.2-3.6,8.7-2.1,17.3-3.7,26.2-.9,17,5.2,23.9,25.3,13.2,38.8-1.2,1.5-2.6,2.9-4.1,4.6Z"/><path class="cls-4" d="m245.8,297c-21.4,0-35.9-8-48.9-19.4-8.3-7.2-15.6-15.5-24.2-22.3-8.5-6.8-17.9-11.9-28.8-13.4-7.2-1-14.3,0-20.5,4.1-5,3.3-7,8.2-5.7,13.1,1.3,4.5,4,7.5,8.8,7.9,2.2.2,3.3,1.1,3.2,3.2-.1,2.2-1.7,2.8-3.7,2.8-8.2.3-16.1-9.5-14.7-18.2,1.4-9.6,8.9-16.6,20-18.5,14.9-2.5,28.1,2,40.2,10.3,8.9,6.1,16.3,13.9,24.1,21.4,7.7,7.4,15.9,14.2,25.7,18.5,17,7.4,33.6,6,49.3-3.9,11.3-7.2,21.2-16.2,31-25.3,1.4-1.3,2.3-1.8,4.1-.6,1.7,1.1,1.9,1.8.4,3.3-10.5,10.7-21.6,20.8-34.3,28.8-9,5.7-18.9,8.2-26,8.3Z"/><path class="cls-4" d="m140.1,285.5c20.8-.2,38.4,16.9,38.6,37.7.2,21.8-16.9,39.3-38.9,39.7-21,.3-38.5-16.9-38.7-38-.2-21.9,16.8-39.1,39-39.3Zm-1.2,71c17.3.5,33.1-14.2,33.6-31.1.5-18-13.4-33.3-30.6-33.7-18.7-.4-34,13.1-34.5,30.6-.6,18.9,13.1,33.7,31.6,34.2Z"/><path class="cls-4" d="m708.7,559.5c0,1.4-1.1,1.4-2.1,1.5-13.8.4-27.1,3.4-40.4,6.7-1.4.4-2.9,1-4.3-.1,0-1,1.7-1.6.8-3-1,.6-1.9,1.2-2.8,1.7-.2-2-2-1.8-3.2-1.9-10.4-1.7-20.9-1.7-31.5-.7-1.4.1-3.3,1.1-4.1-.4-.8-1.6,1.2-2.5,2.1-3.5.9-1,2-1.7,3.2-2.8-1.6-.9-2.6.8-4,.5,0-3.6,2.5-4.3,5.1-4.7,5-.8,10-1.5,15-2.3,22.2-1,43.7,3.1,65.1,8.4.3,0,.6.4.9.6Z"/><path class="cls-4" d="m135.1,485.2c-.1-8.5-1-16.6-6.8-23.8-4.6-5.7-7.7-12.4-12.3-18.2-.3-.4-.3-1.2-.4-1.8,16.1,11.9,32,24.1,45,39.6,2.9,3.4,5.3,7.2,6.7,11.6-1.3,1.3-1.5,3.1-1.5,4.8,0,4.3.1,8.7-1.2,13.1-1.4-7.6-3-15.1-5.5-22.3-.8-2.4-1.9-4.6-3.3-6.7-.4-.6-.7-1.5-1.6-1.3-.8.2-1,1-1.2,1.7-.7,3.3-1.6,6.5-1.6,11-4-7.1-8.3-12.8-14.1-18.6,0,3.7,0,6.6,0,9.5,0,1.2.8,2.9-1.2,3.5-.8-.6-1.1-1.3-1-2.3Z"/><path class="cls-4" d="m623.3,623.3c-7.2-3.5-15-4.9-22.6-6.9-1.4-.4-2.9-.6-5.2-1.1,6.6-2.6,12.6-4.9,19.6-6.3-10.6-4.2-20.5-3.6-30.5-1.1,2.8-2.9,5.4-4.9,9.8-5.2,12-.8,22.5,3,32.7,8.5,10.6,5.2,20.9,11,31,17.2,1,.6,2,1.4,3,2.2-8.2-1-16.5-2.1-24.7-3.1-3.6-.4-7.2-.7-10.7-.8-1.1,0-1.6-.4-1.8-1.4,0-.7,1.4-.9,1-1.7-.1-.2-.9-.1-1.4-.2Z"/><path class="cls-4" d="m111.9,545.5c1,1.9.5,2.8-1.7,2.7-3.1,0-6.1,0-9.9,0,2.5,3.4,7.1,4.6,6.1,9.3-1.1-.4-2.1-.5-2,1.2-4.8-.3-8.9-3-13.4-4.4-10.3-3.2-20.6-6.6-30.8-10.1-2.3-.8-5.4.4-7-2.5,19.7-1.6,39.4-1.1,58.7,3.9Z"/><path class="cls-5" d="m670.5,487.8c-4.1,2.8-8.3,5.5-12.4,8.4-6.1,4.4-10.9,9.1-15.6,15.1-.6.7-3.2.5-4,1-.3-.3-.7-.6-1-1,.2-2-.6-2.7-2.7-2.9-4.5-.5-8.1,1.6-11.9,3.5,2.8-5.4,8.2-8.3,13-13.4-5.9,1.5-10.2,3.8-14.5,6-1.1.6-2.3,2.3-3.4,1.6-1.6-1,.4-2.7,0-4.1,5.8-3.5,12.2-5.6,18.7-7.3,11.2-2.9,22.4-5.9,33.9-7Z"/><path class="cls-4" d="m125.3,612.7c-6.2,0-12.4.1-18.6,0-5-.1-9.9.7-14.8,1.1-1,0-1.7.3-2-.9,5.4-4.1,11.6-6.8,17.6-9.9,1.5-.8,3.3-1.1,4.1-2.9,1.1,0,2.1-.4,3.1-1.1,6.2-4.2,13.3-6.3,20.6-7,2.8-.3,6,1.6,9.1,2.2.2.2.3.4.4.6-6.6,1.2-13.3,1.3-19.8,2.9-1,.2-2,.2-2.9,1.2,4.8.8,9.2,2.5,13.8,4.8-3.6,2-7.3,2.4-10.7,3.9-1.5.6-5.1,1.2-.6,3.2.8.3.7,1.3.7,2h0Z"/><path class="cls-4" d="m580.4,396.6c-.1-.2-.1-.4,0-.7,8.1-2.2,13.4-6.9,14.1-16.2,1.7,8.6,6.3,14.1,15.1,16-9,1.7-13.3,7.5-14.9,16.3-1.2-8.9-5.6-14.2-14.3-15.4Z"/><path class="cls-4" d="m143.8,432.3c8.5-1.4,13.2-5.9,14.5-14.5,1.9,8.2,6.3,13.7,15,15.1-9.1,1.3-13.8,6.5-14.4,15.9q-6.1-12.6-15.1-16.5Z"/><path class="cls-4" d="m176.2,516.6c-2,9.4,1,19-.9,28.6-3.4-3-5.1-6-4.6-11.3,1-10.5,1-21.1-1.5-31.5-.4-1.5-1-3.1.5-4.5,2.5,4.9,3.9,10.2,5.1,15.5.3,1.2.2,2.5,1.5,3.1Z"/><path class="cls-4" d="m570.7,672.7c-.2.4-.3,1.1-.6,1.3-11.6,5-22.9,11-35.9,11.5-.8,0-1.6,0-2.5-.5,4.4-1.5,8.3-4.3,13.1-4.5,2.9-.1,5.2-2.1,8.1-2.2.7,0,.5-1,.6-1.6l17.3-4Z"/><path class="cls-4" d="m67.8,655.6c1.4,0,2.7,0,4.1,0,1.6,0,1.5,1.2,1.6,2.3,0,1.2,0,2.2-1.7,2.2-2.8,0-5.7,0-8.5,0-1.7,0-1.6-1-1.7-2.2,0-1.3.2-2.2,1.8-2.2,1.5,0,3,0,4.5,0,0,0,0,0,0-.1Z"/><path class="cls-4" d="m695.5,660c-1.2,0-2.5,0-3.7,0-1.5.1-1.9-.4-1.9-1.9,0-1.3,0-2.1,1.7-2.1,2.4,0,4.7-.2,7.1-.3,1.4,0,2.7-.2,2.7,2,0,2.2-1.1,2.4-2.8,2.3-1,0-2,0-3,0h0Z"/><path class="cls-4" d="m236.9,680.3c-.3,0-1.5.1-2.5-.2-1-.3-.5-1.5-.5-2.3,0-.9.5-1.3,1.4-1.3,1.5,0,3,0,4.5,0,1.2,0,2.5-.3,2.5,1.7,0,1.6-.7,2.2-2.3,2.1-.7,0-1.5,0-3.1,0Z"/><path class="cls-4" d="m581.5,466.3c-.9,0-2.1.4-2.6-.7-.3-.6.7-.6,1.3-.7.4.5.9.9,1.3,1.4Z"/><path class="cls-4" d="m262.2,271.9c0,.3,0,.6.1.8-.2-.1-.4-.3-.6-.4.2-.2.3-.3.5-.4Z"/><path class="cls-4" d="m292.4,282.1c-.2-.2-.6-.5-.6-.5.3-.5.7-.3,1.1,0-.2.2-.3.4-.5.6Z"/><path class="cls-2" d="m499.3,371.3c-1.7-6.3-2.1-12.1,0-17.9.7-1.9,1.4-2.5,3.9-2.6,5.2-.3,6.6,2.4,7.3,6.5.8,4.2,1.8,8.4,2.7,13,2.1-1.4,2.9-3.2,3.9-4.8,2.3-3.8,4-7.8,5.4-11.9.5-1.4.5-4.1,2-3.8,2.3.5,5.3.7,6.1,4.3,1,4.3,1,8.6,1.2,13,0,1-.4,2.2.8,2.6,1,.3,1.4-.8,2-1.4,4.1-3.8,6.9-8.6,8.7-13.8,1-2.8,2.2-4,5.5-3.5,4,.6,8.2.3,12.3.6,8.6.6,13.8,5.9,14.2,14.4q.4,8.3-7.9,8.3c-127.7,0-255.4,0-383.2,0-3,0-3.7-.8-3.7-3.7,0-6.1-.2-12.1,5.6-16.1,2.5-1.8,5.1-3,8.3-2.9,4.4,0,8.8,0,13.1-.2,2.2-.1,3,.8,3.7,2.6,2.9,6.8,6.5,13.2,13.7,17.5-1.8-6-2.5-11.5-.6-17,.6-1.7.8-4,3.2-4.1,2.7-.2,3,2.1,3.5,4,1.4,5,3.7,9.5,6.6,13.7.6.8,1.1,1.9,2.2,1.8,1.3-.2,1.1-1.6,1.4-2.4,1.3-4.9,2.1-10,4.2-14.7.3-.8,0-3,1.7-2.1,2.2,1.1,5.7-2,6.8,2.5,1.2,5.2,1.7,10.3,1.6,15.6,0,.4,0,.9.2,1.7,4.9-2.6,8.4-6.5,9.8-11.2,2.3-7.5,6.9-8.3,14-8.3,35.5.4,71,.2,106.5.2,31.9,0,63.7,0,95.6,0,1.6,0,2.3.3,2.9,1.9,2.1,5.5,4.9,10.7,9.1,14.9,1.4,1.4,2.8,2.9,5.4,3.2Z"/><path class="cls-2" d="m91.9,487.8c-.3,1.1-.8,2.3.5,3,2,1.2,3.1-1,4.7-1.4,1.2,1.9-2.1,3.5-.5,5,1.9,1.9,3.2-1.4,5-1,.9.7,0,1.3-.2,1.9-.3.9-.8,1.9.2,2.7,1.1.9,1.8.3,2.5-.6.4-.5,1-.7,1.6-.3.5.4.3,1,0,1.3-.8,1.2-.8,2.2.4,3.2,1.6,1.2,2.1-.5,3.1-1,.4-.2.8-.4,1.2-.6,1.7,2-1.7,3.6,0,5.3,1.8,1.8,3.2-1.1,4.9-.9.4.8-.2,1.4-.4,2.1-.4,1.1-.5,2.3.8,2.9,1,.5,2.1.8,3-.3.6-.7,1.3-1.4,2.2-.7,1,.8-.1,1.5-.5,2.2-.8,1.2-.5,2,.6,2.9,1.3,1,2.5.7,3.2-.4,1.5-2.3,2.6-1.7,4.3,0,9.4,9.2,19.8,17.1,29.9,25.5,1.3,1.1,2.8,2,3.6,4.1-2,.1-3.7.2-5.6.3,0,2,1.6,2.6,2.7,3.5,29.9,25.5,59.9,50.9,89.9,76.3,12.1,10.3,24.1,20.6,36.2,30.8,5.9,5,7,10.3,3.1,15.5-4,5.4-12.9,7.2-18.1,3.3-4.5-3.3-8.7-7.1-12.9-10.8-27.4-25-56-48.6-83.9-73-16.6-14.5-33.7-28.5-50.8-42.5-3.7-3-5.6-6.3-5-11.2.3-2.3,0-4.7,0-7.1,0-4.8-.2-5-4.7-4-.5-.4-.4-.9-.2-1.3.4-1,1.8-1.8.9-3-.9-1.3-2-.2-3,.2-.9.4-1.9.4-2.4-.3-.5-.6,0-1.4.6-2,.5-.4.9-1,.4-1.6-.7-.8-1.3-.1-1.9.3-.7.5-1.4,1.2-2.3.6-1.4-.8-.1-1.7,0-2.6.1-.9.4-1.9-.3-2.5-.9-.7-1.6.2-2.2.7-.7.6-1.6.9-2.4.5-1.2-.7-.5-1.7-.3-2.7.5-2.1,0-3.3-2.3-2.1-.6.3-1.7.4-1.7.3.5-4-2-2.8-4.2-2.6-.5,0-1.4-1,0-1.9,1.3-.8.4-1.8-.2-2.5-.6-.7-1.3-1.2-2.5-.6-2.4,1.2-3.8.7-2.8-2.4.6-1.8.1-2.8-1.9-1.8-1.2.6-1.9,0-2.5-.8-.7-.9-.6-1.8.2-2.7.9-1,1.8-2,2.7-3.1,1.9-2.2,3.4-5.4,7.1-2.5.1.1.2.3.4.4Zm163.3,151.7c-.2-1.2-1.2-1.8-2.1-2.5-.8-.7-1.5-.3-2.2.5-1,1.3-2.1,2.5-3.3,3.6-1.3,1.2-1.1,2.1.2,3,.7.5,1.5,1.9,2.4,1,1.8-1.7,3.3-3.7,4.9-5.7Zm-19.8-7.1c.7,0,5.3-5.8,5.2-6.2-.1-.3-.3-.7-.6-.9-.8-.6-1.5-2.2-2.2-1.6-1.9,1.6-3.4,3.5-5,5.5-.8,1,.3,1.5,1,2.1.5.5,1.2.9,1.6,1.2Zm29.2,25.6c1.3-1.4,2.5-3,4-4.3,1.4-1.3,1.7-2.2,0-3.6-1.5-1.2-2.4-1.3-3.4.5-.7,1.2-1.8,2.1-2.7,3.1-.5.6-1.8,1-1.1,2,.7,1,1.7,1.8,3.1,2.3Zm-74-63.3c1.3-1.4,2.4-2.9,3.7-4.1,1.3-1.2,1.8-2.2.1-3.6-1.5-1.3-2.6-1.7-3.7.5-.6,1.1-1.6,1.9-2.4,2.9-.5.7-1.4,1.3-.5,2.2.7.7,1.5,1.2,2.8,2.1Zm-9-19c-.9-.9-1.7-1.7-2.7-2.5-1-.8-1.1.3-1.6.8-1.2,1.4-2.4,2.9-3.6,4.2-.9,1-.3,1.6.3,2.2.7.7,1.4,2.2,2.3,1.4,1.9-1.7,3.4-3.9,5.3-6.2Zm38.8,43.9c1,0,5-5.5,4.8-6.2-.3-1-1.2-1.6-2.1-2-1.1-.6-1.5.4-2,1-.9,1-1.8,2.1-2.6,3.1-.5.6-1.4,1.3-.6,2.2.8.8,1.7,1.4,2.5,1.9Zm-10.2-18.5c-.5-1.2-1.4-2.2-2.8-2.5-.5-.1-5.3,5-5.1,5.5.3,1.5,1.7,2,2.9,2.6.6.3,5-4.7,5-5.6Z"/><path class="cls-2" d="m378.2,452.1c-38.4,0-76.7,0-115.1,0-7.6,0-12.4-4.9-11.8-11.8.4-4.3,3.9-7.9,8.2-8.4,6.1-.8,12.2-.4,18.3-.4,69.3,0,138.7,0,208,0,4.1,0,8.2-.5,12.3.3,4.6.9,7.7,5,7.6,10.2-.1,5.2-3,8.7-7.7,9.5-3.5.6-7,.5-10.5.5-36.5,0-73,0-109.4,0h0Z"/><path class="cls-2" d="m274.2,513.6c2.9,13,2.1,25-4.3,36.3-9.3,16.7-27.9,23.9-45.8,17.1-17.2-6.4-29-18.2-31.2-37.1-2.7-21.8,11.4-40.3,33-44.7,5.1-1,10.2-1.1,15.3-.4,1.1.2,2.9-.2,3.3,1,.5,1.3-1.1,2.1-1.9,2.9-6.5,6.8-13,13.5-19.5,20.2-2.8,2.9-5.5,5.8-8.3,8.7-1.3,1.3-1.5,2.2,0,3.6,8.8,7.8,17.5,15.6,26.2,23.4,1.4,1.3,2.1,1.2,3.5-.3,9.7-10.2,19.5-20.3,29.7-30.8Z"/><path class="cls-2" d="m117.5,655.1c-.2-5.9,3.8-11.1,8.5-15.9,13.2-13.6,26-27.7,38.5-41.8,1.2-1.4,1.8-1,2.9,0,7.2,6.4,14.4,12.7,21.7,18.9,1.6,1.4,1.7,2.3.3,3.9-13.7,16.2-27.2,32.5-41,48.6-5.4,6.3-12.3,7.6-19.6,4.6-7.1-2.9-11.2-9.1-11.3-18.3Zm20.4,11.8c6.3-.2,12.2-6.3,12-12.5-.2-7-6.2-12.7-12.8-12.5-7.1.3-12.7,6.3-12.5,13.3.2,6.2,6.6,11.8,13.3,11.6Z"/><path class="cls-2" d="m368.4,666.7c-8.3,0-15.7-7.9-15.1-16.2.5-8.6,8.6-15.5,17.3-14.4,2.4.3,3.9-.1,5.6-1.7,22.6-20.6,45.3-41,67.9-61.6,1.6-1.5,2-1,2.8.6,2,3.9,3.9,7.8,6.3,11.5,1.5,2.4.9,3.7-1,5.4-8,7.4-15.9,14.9-23.9,22.4-14.5,13.5-29.1,27-43.6,40.5-.7.7-1.2,1.2-1.5,2.3-1.5,6.6-7.9,11.3-14.9,11.3Zm0-25.6c-5.9,0-10.4,4.6-10.5,10.4,0,5.6,5.3,11,10.7,10.9,5.8-.1,10.8-5.4,10.7-11.3,0-5.5-5.1-10-10.9-10Z"/><path class="cls-2" d="m496.1,403.6c-16.6,0-33.2,0-49.8,0-4.9,0-7.6-2.5-8.4-7.3-.8-5.2,2-8.9,7.2-9.2,2.4-.2,4.7,0,7.1,0,30.9,0,61.7,0,92.6,0,2.4,0,4.7.1,6.7,1.8,2.7,2.4,3.8,6.3,2.4,9.9-1.3,3.5-3.9,5-7.6,5-15,0-30,0-45,0-1.7,0-3.5,0-5.2,0,0,0,0,0,0,0Z"/><path class="cls-2" d="m550.4,504.8c0-24-.4-48-.2-71.9.1-13.6-1.1-11-11.2-11-96.3,0-192.6,0-289,0-12.7,0-25.5,0-38.2,0-4.4,0-5.5,1-5.5,5.5,0,18.4-.1,36.7-.3,55.1,0,1.5.6,3.4-2,4.3-.1-1.9-.3-3.7-.3-5.5-.1-17.9-.3-35.7-.3-53.6,0-6.7,1.9-8.4,8.5-8.4,110.6,0,221.1,0,331.7,0,7.6,0,9.3,1.5,9.3,9.1,0,19.1,0,38.2-.1,57.3,0,1.4,0,2.7.1,4.1-.8,4.4-.1,8.8-.6,13.2,0,1,.5,3.3-2,1.8Z"/><path class="cls-2" d="m513.1,513.8c-3.8,5-8.8,8.8-13.2,13.1-6,6-5.9,6.6,0,12.7,2.5,2.6,4.3,3,7.3.5,5.7-4.8,11.8-9.2,18.6-12.5.6-.3,1.2-1.1,1.9-.2h-.1c-3.7,6.2-7.3,12.5-11.7,18.3-4.8,6.4-11.6,7.7-19.1,6.7-2.4-.3-4.1.3-5.6,2-4.2,4.8-8.4,9.5-12.6,14.3-.5-.3-1-.7-1.4-1-2.4-4.8-4.8-9.5-7.2-14.3-.9-1.8.4-2.5,1.3-3.4,3.4-3.3,6.9-6.5,10.4-9.7,1.4-1.2,2.1-2.4,2.3-4.4,1.2-9.8,6.5-16.4,16.2-19.3,4.2-1.3,8.3-2.6,12.6-3.3.1.1.3.3.4.4Z"/><path class="cls-2" d="m620.3,537c0,23.5-9.3,41.6-25.2,56.4-19.6,18.3-43.6,28-69.5,33.5-4.4.9-8.8,1.6-13.2,2.3-2.1.3-4.9-2.2-4.8-4.2,0-1.4,1.2-1,1.9-1.1,16.1-1.8,31.6-6,46.5-12.1,20-8.1,36.9-20.3,48.8-38.7,14.3-22.2,14.4-45.5,4.7-69.4-.2-.5-.5-.9-.6-1.4,0-.5-1.5-1.1,0-1.7.9-.3,1.2.5,1.5,1.1,4.5,7.7,7.8,15.9,9,24.8.5,3.8,1,7.7.9,10.3Z"/><path class="cls-2" d="m340.5,571.7c-23.7,4.7-44.7,14.4-61.3,32.5-1.5,1.7-3,1-5,.9,1.9-3.5,4.2-6.2,6.8-8.7,16.6-16.6,37.1-25.3,59.8-29.4,20.2-3.6,40.5-2.5,60.8-.3,11.9,1.3,23.7,3,35.7,4.6-1.6,3.7-4.4,3.2-7.3,2.8-14.3-1.5-28.5-3.1-42.9-3.5-.8-.8-1.9-.6-2.8-.6-14.6-.6-29.2-.8-43.7,1.6Z"/><path class="cls-2" d="m225,573.7c-2.5,4.2-5.9,7.3-8.5,11-.6.8-1.2,1-2.1.3-7.9-6-15.3-12.4-22.6-19-2.1-1.9-1.4-3.2.3-4.7,2.2-1.9,3.3-5.9,5.9-5.8,1.9,0,3.7,3.5,5.8,5.3,6.2,5.5,12.6,10.6,21.4,12.9Z"/><path class="cls-2" d="m348.4,169.5c-1.8,5.4-5.9,5.9-10.4,6.7-15.1,2.6-28.8,8.5-40.9,18-4.5,3.5-8,7.9-11.6,12.2-.6.8-.8,2.2-2.4,2,2.6-10.7,9.2-18.5,18.1-24.5,14.2-9.6,30.1-13.9,47.2-14.4Z"/><path class="cls-2" d="m359.7,170c3.7-5.8,8.3-8.9,13.7-10.9,9.1-3.4,18-7.3,26.8-11.5,19.7-9.5,34.4-24.1,44.4-43.4.3-.7.7-1.3,1-2,.1-.2.3-.4.4-.4,1.2,2.4-.3,4.4-1.1,6.4-6.1,15-17.1,25.9-30.1,35-12.9,9.1-27.4,14.6-41.9,20.2-4.3,1.7-8.1,4.2-13.1,6.6Z"/><path class="cls-2" d="m333,476.3c-24.5,0-48.9,0-73.4,0-.7,0-1.5,0-2.2,0-.7,0-1.2-.3-1.3-1.1,0-1,.6-1.3,1.4-1.3,2.7,0,5.5-.1,8.2-.1,46.9,0,93.9-.1,140.8-.1,1.6,0,4.5-.7,4.5,1,0,2.5-3,1.5-4.6,1.5-24.5,0-48.9,0-73.4,0,0,0,0,0,0,0Z"/><path class="cls-4" d="m435.7,552.4c-1.1,1.6-2.3,1.2-3.3,1.2-50.6,0-101.2,0-151.8,0-1.4,0-4.1.9-4.1-1,0-2.3,2.8-1.3,4.4-1.3,48.8,0,97.7,0,146.5,0,2.7,0,5.4.1,8.3,1.2Z"/><path class="cls-4" d="m543.6,567.6c-.8,7.3-3.8,13.8-7,20.2-.2.5-1,.9-1.5.9-6,.4-11.9-.1-17.8-.8-1.5-.2-1.1-1-.5-1.8,2.5-3.4,4.5-7.1,7.5-10.1,6.4-2.8,12.9-5.6,19.3-8.4Z"/><path class="cls-2" d="m416.1,504.9h-139.9c3.6-2.2,136.6-2.2,139.9,0Z"/><path class="cls-2" d="m265.6,613.2c14.6-3.2,25.8,2.9,36.3,12-7.9,1-15.7,1-23.5,1-.5,0-1.2-.3-1.6-.7-4.1-3.7-7.9-7.8-11.1-12.3Z"/><path class="cls-2" d="m325.3,609.8c14.1-5.2,27.8-6.3,40.6,3.5-6.8,1.4-13.7,2.7-20.5,4.1-.4,0-1.1-.2-.8.7,0,.2.5.3.6.3.4-.3.8-.1.3,0,0,0-.2-.1-.3-.2-1.3-.5-2.7.2-4-.5-5.2-2.7-10.6-5.3-15.9-7.9Z"/><path class="cls-2" d="m398.9,605c-7.7,3-15.8,3.9-23.6,5.8-1.1.3-1.9-.4-2.8-.8-5-2.4-9.9-4.9-15.3-6.7,13.2-6.1,28.7-5.5,41.7,1.7Z"/><path class="cls-2" d="m309.7,624.1c-5.2-3.6-10.5-7.2-15.8-10.9,14.4-2.3,28.1-2.2,40.3,6.9-8.1,1.7-16.3,2.9-24.5,4Z"/><path class="cls-2" d="m543.6,567.6c-6.4,2.8-12.9,5.6-19.3,8.4.6-4.4,2.7-8.5,3.1-13,.1-1.1,1.4-1.6,2.4-2.2,4.8-2.7,9.8-5,14.1-8.4,1.3-1,1.9-.8,2.1.9.5,3.3.7,6.7.7,10.1,0,2.4-1.9,3-3.1,4.3Z"/><path class="cls-2" d="m660,566.3c.9-.6,1.8-1.1,2.8-1.7.9,1.4-.9,1.9-.8,3-2.7,2.5-5.1,5.2-7.4,8.6,6.9-1.1,13.3-3,20-2.8-21.1,6.2-42.8,10.6-64.4,17.1,6,2.3,11.8,3.5,16.5,7.5-7.2-2-14.4-4-21.9-6.1.7-2.6,3-3.2,5-3.8,10.9-3,21.8-6.1,32.8-8.8,4.1-1,7.7-2.2,10.5-5.7,2.1-2.6,4.7-4.8,7-7.2Z"/><path class="cls-2" d="m403.1,105.5c2,18.8-38.5,52.2-65.7,54.3,2.5-2.3,5.2-3.5,8-4.6,8.9-3.7,17.8-7.1,26-12.3,12.9-8,22-19.4,29.1-32.6.8-1.5,1.6-3,2.7-4.8Z"/><path class="cls-2" d="m296.1,527.4c14.8,0,29.6,0,44.5,0,25.2,0,50.3.2,75.5.3,1.1,0,2.2-.2,3.3-.3-.1.6-.3,1.2-.4,1.8-34.3,0-68.6,0-102.9,0-6.7,0-13.5,0-20.2.1,0-.7,0-1.4.1-2Z"/><path class="cls-2" d="m338.2,336.4c-6.6,2.9-13.5,3.8-21.2,2.8,4.6-4.7,8.7-8.9,13-12.8,1.4-1.2,2.7-.9,4.1-.7,5.5.8,10.9,0,16.3-.7-3.4,4.5-7.7,8.1-12.3,11.4Z"/><path class="cls-2" d="m551.7,563c0-4.6,0-9.2-1.1-13.7-.3-1.2-.3-2.4.8-3.4,3.7-3.5,6.5-7.8,9.2-12.3,3.2,4.3,4.2,9.3,6.1,13.9.5,1.1-.5,1.9-.6,2.8-4.5,4.6-8.7,9.5-14.4,12.7Z"/><path class="cls-2" d="m357,318.8c-6.7,3-13.9,3-22,3,5.4-5,10.2-9.3,15-13.7.5-.5,1.1-.5,1.7-.4,5.5.6,10.9-.2,16.4-.7-2.5,5.1-7.2,8.1-11.1,11.9Z"/><path class="cls-2" d="m375.6,299.9c-6.3,3-13,3.4-20.4,3.7,5.1-5.2,9.7-9.9,14.4-14.6.7-.7,1.8-.6,2.8-.6,4.5,0,8.9-.8,13.1-2.3.4,1.3-.5,2.1-1.1,3-2.4,4.1-5.6,7.6-9,10.8Z"/><path class="cls-2" d="m496,582.8c1.6-3.8,4-7.2,5.2-11.2.3-1,1-1.5,2.1-1.8,5.1-1.4,10.2-3,15.4-4.3,1-.3,2.3-1.3,2.3,2,0,8.9-5.1,11.7-12.4,13.1-4.2.7-8.3,1.5-12.5,2.2Z"/><path class="cls-4" d="m340.5,571.7c14.5-2.4,29.1-2.2,43.7-1.6,1,0,2-.2,2.8.6-4.4,2-9.2,1.5-13.7,2.2-9.3,1.4-18.4,4.1-27.6,6-.1,0-.2,0-.4,0-2.7.6-6.3,2.5-8.1.8-1.7-1.7,2-4,2.6-6.4.1-.6.4-1.2.6-1.8Z"/><path class="cls-2" d="m623.3,623.3c.5,0,1.3,0,1.4.2.4.9-.9,1-1,1.7-2.7,1.7-5.4,3.4-8.5,5.3,5,1.3,9.5,1,13.6,3.2-14-.5-27.9-1-42.2-1.5,3.1,4.5,7.9,6.8,10.9,11-4.5-1.9-8.2-4.8-11.5-8.2-2-2-4-2.9-6.9-2.9-4.8,0-9.7-.5-15-.9,2.6-1.3,4.8-1.2,7-1.2,11.6-.3,23.2-.1,34.8.6,3.1.2,5.8-.4,8.5-2.1,2.9-1.9,6-3.4,9-5.1Z"/><path class="cls-2" d="m404.7,244.2c1.4,11.8-5.7,20-17.5,20.5-1.5,0-1.8-.4-1.5-1.7.8-3.3,1.5-6.6,1.4-9.9,0-1.5.7-1.1,1.7-1.3,6-1,11.8-2.8,16-7.7h0Z"/><path class="cls-2" d="m391.6,279.8c-5.2,2.6-10.8,3.5-17.3,4.3,3.8-4.8,6.8-9.5,9.5-14.4.3-.5,1.6-.4,2.4-.6,4.8-.7,9.5-1.9,13.8-4.2-1.5,5.7-4.5,10.5-8.4,14.9Z"/><path class="cls-2" d="m313.2,212.1c-1,3.7-1.6,6.7-2.7,9.7-2.1,5.9-8.1,8.4-13.9,6.1-2.8-1.1-3.4-3.1-2.4-5.7,1.2-3,3.3-5.3,6.3-6.6,1.6-.7,3.3-1.2,4.9-1.6,2.4-.6,4.8-1.1,7.8-1.8Z"/><path class="cls-2" d="m405.7,234.2c-.3,1.8,0,2.8-.7,3.7-4.3,4.9-9.7,8.1-16,9.6-.5.1-1.6,0-1.7-.3-1.3-3.2-2.6-6.4-3.7-9.7-.3-1,.9-.9,1.6-1,6.2-.9,12.3-1.9,18.3-3.7,2.3-.7,2.5.4,2.3,1.4Z"/><path class="cls-2" d="m104.4,558.7c-.1-1.7.8-1.6,2-1.2,2.3,4,4.8,7.9,6.9,12,1.4,2.6,3.3,4.2,5.9,5.3,8.2,3.5,16.3,7.3,24.1,11.7,1.3.7,2.8,1.2,4.2,3.7-19.2-8.7-37.5-17.1-56.2-24.3,7-.2,13,3.7,20,5.4-1.8-4.8-4.3-8.7-6.9-12.5Z"/><path class="cls-4" d="m309.7,624.1c8.2-1.1,16.4-2.3,24.5-4,.2,0,.5,0,.7,0,1.4.7,3.7.8,3.6,2.6,0,1.4-2.2,1.8-3.6,2.3-5.5,2.3-11.1,4.4-16.9,5.9-3.5.9-7.3-.7-9-3.6-.8-1.4,1.4-2,.6-3.3Z"/><path class="cls-4" d="m551.7,563c5.7-3.2,9.9-8.1,14.4-12.7,1.5,4-.9,7.7-.9,11.6,0,1-.4,1.9-.5,2.9-1,5.1-1.7,5.7-7,5.2-.4,0-.7,0-1.1,0q-7.1-.2-4.9-7Z"/><path class="cls-2" d="m574.5,515c-2.5-3.1-4.5-6.5-7.8-9.4-1.1,2.8-.9,5.9-2.7,9.1-.3-9.1-2.8-17-5.2-25.3,7.4,3.6,11.8,9.6,15.6,16-1.6,3.2.9,6.4.1,9.5Z"/><path class="cls-2" d="m570.7,544.4c-2.2-5.4-4.4-10.8-6.7-16.2-.5-1.3-.5-2.4.1-3.5,1.8-3.1,3.2-6.4,4.2-10.4,3.2,4.1,4.2,8.6,5.7,12.9-1.4,1.3-.9,3-1,4.5-.4,4.3-.8,8.6-2.3,12.6Z"/><path class="cls-2" d="m463,473.7c10.9,0,21.7,0,32.6,0,1.1,0,2.2,0,3.4.1.6,0,1.3,0,1.4.8,0,.9-.6,1.3-1.4,1.4-.9.1-1.7.1-2.6.1-22.1,0-44.2,0-66.2,0-.5,0-1,0-1.5,0-1.2,0-2.6-.2-2.5-1.6,0-1.4,1.6-.8,2.4-.8,11.5,0,22.9,0,34.4,0,0,0,0,0,0-.1Z"/><path class="cls-4" d="m383.9,167.3c1.1,3.3-1.6,5.3-3.2,7.2-7.2,8.7-16.7,13.5-27.8,15.4-4.1.7-8.2,2.1-12.8,1.2,1.5-2,4-1.4,5.5-2.7,1.4,0,2.7.1,4.1-.3,12.9-4.4,25.3-9.7,34.2-20.7Z"/><path class="cls-2" d="m416.9,590.4c-3.9,4.1-7.6,7.1-11.2,10.1-1.1.9-1.7.7-2.9.2-4.5-1.8-8.9-3.7-13.7-5.1,8.9-2.3,17.8-4.4,27.8-5.2Z"/><path class="cls-2" d="m235.4,246c.5-5.4,3.4-8.5,7.8-10.4,9-3.9,18.7-6,27.9-9.7.8-.3,1.6-.3,2.6-.2-11.9,8-26.9,10.2-38.3,20.4Z"/><path class="cls-2" d="m245.4,611.2c1.4.2,1.9.3,2.4.3,11.2-1.4,15.8,7,21.6,14.6-2.5.4-4.8.7-6.9-.6-6.1-3.8-11.2-8.8-17.1-14.2Z"/><path class="cls-2" d="m383.9,167.3c-8.9,11-21.3,16.3-34.2,20.7-1.4.5-2.7.3-4.1.3,7-4.9,15.2-7.7,22.5-12,5.9-3.4,11.5-7.2,15.4-13.2,1,1.4.6,2.8.3,4.2Z"/><path class="cls-2" d="m186.7,632.9c2.5-2.9,4.8-5.7,7.3-8.4.8-.9,1.3-3,2.9-2.1,1.5.9,3.2,2.2,3.2,4.3,0,3.2-.4,6.4-.6,9.7-.1,1.8-1.2,1.2-2.1.9-3.6-1.4-7.1-2.9-10.7-4.3Z"/><path class="cls-2" d="m445.3,503.3c6,0,11.9,0,17.9,0,11.5,0,23,0,34.4,0,1,0,2.7-.6,2.8.9.1,1.9-1.8,1.4-2.9,1.4-16.5,0-32.9,0-49.4-.1-1.2,0-2.6.3-2.8-2.1Z"/><path class="cls-2" d="m135.1,485.2c0,1,.3,1.7,1,2.3,1.6,10.1,5.6,19.6,8.6,29.3.4,1.3,1.4,2.6.5,4.4-2.9-4.6-4.8-9.4-6.1-14.4-1.3-5.1-3.8-8.8-9.1-10.4q2.4-.8,5.4-.2c-1.6-5.7-3.1-11.2-4.7-17.1,3.1,1.1,2.7,4.4,4.4,6.2Z"/><path class="cls-2" d="m204.6,629.1c7.5,5.7,13.7,11.5,20.7,16.4-6.6-1.5-13.1-3.3-19.5-5.8-1.4-.6-1.3-1.7-1.3-2.8,0-2.4,0-4.7,0-7.8Z"/><path class="cls-4" d="m338.2,336.4c4.6-3.3,8.9-6.9,12.3-11.4,2.7-.6,5.3-1.2,8-1.8h0c.3,2.8-1.5,5-1.6,7.7,0,.9-.7,1.2-1.4,1.5-5.5,1.6-10.9,3.3-16.4,4.9-.6.2-.8-.3-.9-.9Z"/><path class="cls-2" d="m241.2,386.2c4.3,0,7.8,3.1,7.8,7.3,0,3.9-3.7,7.7-7.6,7.7-3.8,0-7.1-3.5-7.3-7.5-.1-4,3.1-7.4,7.1-7.4Zm-4.2,7.6c.4,2.5,1.6,4.2,4.3,4.4,2.4.1,4.9-2.3,4.9-4.6,0-2.6-2.1-4.5-4.9-4.4-3,.1-3.9,2.2-4.3,4.7Z"/><path class="cls-2" d="m269.3,386.1c3.9,0,7.5,3.5,7.5,7.3,0,3.9-3.4,7.5-7.3,7.6-4.1.1-7.7-3.5-7.6-7.6.1-4.2,3.3-7.3,7.4-7.3Zm-4.6,7.4c.1,3.1,2,4.4,4.6,4.6,2.8.2,4.3-1.6,4.6-4.3.3-2.5-1.9-4.6-4.7-4.6-3,0-3.9,2.1-4.5,4.3Z"/><path class="cls-2" d="m220.6,393.4c0,4.2-3.3,7.6-7.4,7.8-3.8.1-7.6-3.9-7.5-7.8.2-3.9,3.6-7.2,7.6-7.2,4.1,0,7.3,3.1,7.3,7.2Zm-2.8,0c-.2-2.5-1.7-4.1-4.5-4.2-2.9-.1-4.5,1.7-4.6,4.3-.2,2.6,1.4,4.5,4.2,4.7,2.5.2,4.8-2,4.9-4.8Z"/><path class="cls-4" d="m550.4,504.8c2.5,1.5,1.9-.8,2-1.8.4-4.4-.2-8.8.6-13.2,1,1.1.6,2.4.6,3.6,0,11.9.2,23.7-.7,35.5-.2,2.3-.7,4.5-1.4,6.7-1,0-.9-.6-.9-1-.3-8.7-.5-17.5-.7-26.2,0-1.2-.4-2.5.6-3.6Z"/><path class="cls-2" d="m481,575.4c4.9-1.2,9.3-2.2,14.1-3.4-1.2,3.8-2.3,7.2-4.3,10.2-2.2,3.3-4.2,3.3-6.2,0-1.2-2-2.2-4.1-3.6-6.7Z"/><path class="cls-4" d="m496,582.8c4.2-.7,8.3-1.5,12.5-2.2.1,1.1-.5,1.8-1.4,2.4-4.3,3-8.4,6.2-12.7,9.2-1.1.8-2.3,2-3.7,0-1.2-1.6-1.5-3.1.1-4.2,2.1-1.4,3.2-3.8,5.2-5.3Z"/><path class="cls-4" d="m268.6,629.9c1.9,0,3.3.9,4.7,2,5.7,4.6,11.9,8.6,18.1,12.5,2.7,1.7,3.4,4,2.2,7.2-5.8-4.8-11.4-9.4-17.1-14-2.9-2.3-5.9-4.5-8-7.6h.1Z"/><path class="cls-4" d="m375.6,299.9c3.4-3.2,6.6-6.7,9-10.8.6-.9,1.5-1.8,1.1-3,.9-.2,1.9-.4,2.8-.7,1.7-.6,2.3,0,2.3,1.7,0,4-.4,7.9-4.7,9.5-3.4,1.2-6.6,3.6-10.5,3.3Z"/><path class="cls-4" d="m357,318.8c3.9-3.8,8.6-6.8,11.1-11.9,1.5,0,3-2,4.1-1,1.2,1.1-.4,3-.5,4.5-.2,4.4-2.9,6.2-6.8,7.1-2.6.6-5,2.6-8,1.3Z"/><path class="cls-2" d="m465,647.6c-.9-8.3,3.2-13.1,9.2-16.8.8-.5,2-1.8,2.7,0,.4,1.3,2.2,2.8,0,4.1-5,2.9-8.9,7-11.8,12.6Z"/><path class="cls-2" d="m637.4,511.3c.3.3.7.6,1,1-1,1.9-1.9,3.8-2.9,5.6-.3.3-.8.6-.3,1.1.4.5.7,0,1.1-.3,1.8-.5,3.2-2.3,6.2-1.7-6.7,4.4-13.5,8.1-17.4,15.6-.3-3,8.6-17.9,12.3-21.4Z"/><path class="cls-4" d="m328.5,343.5c3.7-1,7.4-2.1,11.1-3,1.3-.3,3.1-1.7,3.8.4.6,1.9-.1,5-1.7,5.1-4.8.5-9.9,1.8-14.6-.7.3-.8,1.6-.8,1.6-1.8Z"/><path class="cls-4" d="m570.7,544.4c1.5-4.1,2-8.3,2.3-12.6.1-1.5-.4-3.2,1-4.5,4.5,5.8,4.1,13.2-.9,17.9-.9.8-2.6,2.6-2.4-.8Z"/><path class="cls-4" d="m391.6,279.8c3.9-4.3,6.8-9.2,8.4-14.9.8-.1,1.9-1.3,2.1.7.3,3.5-.5,6.9-.9,10.3-.1,1.1-1.1,1.6-2.1,1.9-2.5.7-4.7,2.2-7.5,2Z"/><path class="cls-2" d="m125.3,612.7c2.1-.4,3.4,1.3,4.8,2.2,2.1,1.5,4,3.2,6.4,4.5-6.6,1.8-13.1.4-19.7-.7,4.3-.3,8.6-.6,13.1-.9-1.1-2.3-3.7-3-4.6-5.2h0Z"/><path class="cls-2" d="m405.4,184.2c2.8.4,5.6.9,9.4,1.5-7.1,2.1-13.4,3.9-19.6,5.8,3.6-3,7.7-5.1,9.6-9.6,0,0,0,0,0,0,0,.5,0,1,0,1.5-.1.2-.5.6-.4.7.3.4.7.3,1.1,0Z"/><path class="cls-4" d="m574.5,515c.8-3.2-1.7-6.3-.1-9.5,3.1,1.8,4.3,4.9,5.6,8,1.3,3.2-3.7,4-2.6,7.2-1.6-1.7-2.3-3.7-2.8-5.7Z"/><path class="cls-4" d="m468.4,529.7c-3,0-6,0-9,0-.9,0-1.9-.1-1.9-1.3,0-1.3,1-1.2,1.8-1.3,6,0,11.9,0,17.9,0,.9,0,1.9,0,2,1.2,0,1.2-1,1.3-1.9,1.3-3,0-6,0-9,0h0Z"/><path class="cls-2" d="m328.5,343.5c0,1.1-1.2,1.1-1.6,1.8-5.1,2.3-10.2.6-15.4,0,5.4-2.5,11.5-.4,17-1.9Z"/><path class="cls-4" d="m502.5,682.5c.3.7.5,1.4-.7,1.5-3.4.5-6.2-1-9.1-2.5-.7-.4-.7-1-.5-1.6.3-.7,1-1.1,1.8-1.1,1.9,0,3.7,0,5.6,0,0,2,1.8,2.6,2.9,3.7Z"/><path class="cls-4" d="m559.2,484.8c4.6-.4,8.7.6,12.1,3.6.5.4,1,.9.8,1.6-.4.9-1.3.8-1.9.5-3.9-1.5-7.8-3-11-5.7Z"/><path class="cls-2" d="m502.5,682.5c-1.1-1.1-2.9-1.7-2.9-3.7,5.2.6,10.4,1.1,15.7,1.7-4.4.2-8.6,1.4-12.8,2Z"/><path class="cls-4" d="m296.1,527.4c0,.7,0,1.4-.1,2-3.7.6-7.5.1-11.2.1-.8,0-1.9,0-2-1.1,0-1.2.9-1.3,1.8-1.3,3.8.1,7.7-.5,11.5.3Z"/><path class="cls-2" d="m482.5,672.6c4.4,0,7.8,3.2,12.5,3.4-3.2,1.2-6.1,1.2-9,1.1-1.5-1.3-2.9-2.6-3.5-4.5Z"/><path class="cls-2" d="m517.5,684c4.1-3.6,9.1-1.9,14.5-2.4-4.2,1.7-7.7,3.1-11.5,3.3-1-.3-2-.6-3-.9Z"/><path class="cls-2" d="m144.8,594.8c-.1-.2-.3-.4-.4-.6,3.2,0,6.4,0,9.6,0,.8,0,2.5-.4,2.4.9,0,1.6-1.7,1.5-2.9,1.3-2.9-.5-5.8-1-8.7-1.6Z"/><path class="cls-4" d="m517.5,684c1,.3,2,.6,3,.9.1,2-1.1,2.3-2.6,2.1-2.5-.4-5-.6-8-2.1,3-.1,4.9-3,7.6-.8Z"/><path class="cls-4" d="m482.5,672.6c.7,1.9,2.1,3.2,3.5,4.5-.4.8-1.1.9-1.9,1-1.9,0-4.2-.2-4.6-2.2-.2-1.1,1-3,2.9-3.2Z"/><path class="cls-4" d="m635.1,534.6c-2.8.6-5.7,1.3-8.5,2-.6.1-1.3.5-1.6-.2-.4-.8.1-1.3.7-1.9,1.2-1.2,2.5-1.1,4.1-.8,1.8.3,3.7,0,5.5,0,0,.3,0,.6,0,.8Z"/><path class="cls-4" d="m419,529.3c.1-.6.3-1.2.4-1.8.3-.1.7-.4,1-.3,1.3,0,3.3-.3,3.2,1.6-.1,1.6-2,.8-3.1.9-.5,0-1-.2-1.4-.3Z"/><path class="cls-4" d="m474.1,665.8c1.7.3,2.9,1.5,4.6,2.9-2.8.2-4.3-.5-4.8-2.7l.2-.2Z"/><path class="cls-2" d="m406.9,182c-.7,0-1.5,0-2.2,0,0,0,0,0,0,0,.7.1,1.5-.8,2.2.1,0,0,0,0,0,0Z"/><path class="cls-2" d="m416.7,630.5c.3-.3.5-.7.8-1,.5.5.2,1.1,0,1.6-.3-.2-.5-.4-.8-.6Z"/><path class="cls-4" d="m268.4,630c0-.1-.2-.3-.3-.4.1,0,.3.2.4.3,0,0-.1.1-.1.1Z"/><path class="cls-4" d="m473.9,666c0-.1-.2-.3-.3-.4.1,0,.3.2.4.3,0,0-.2.2-.2.2Z"/><polygon class="cls-2" points="404.8 244.1 404.8 244.3 404.7 244.2 404.8 244.1"/><path class="cls-2" d="m527.6,527.4c-.1-.1-.3-.2-.4-.4,0,0,.1-.1.2-.2,0,.2,0,.4.1.6,0,0,.1,0,.1,0Z"/><path class="cls-2" d="m456.8,232c.2-.1.5-.3.7-.4,0,0,0,.2,0,.2-.2,0-.5.1-.7.2,0,0,0,0,0,0Z"/><path class="cls-4" d="m358.5,323.2c.1,0,.2-.2.3-.3,0,.1-.2.2-.3.3,0,0,0,0,0,0Z"/><path class="cls-2" d="m91.5,487.4c0-.4.2-.7.6-.4,0,0-.2.5-.2.8-.1-.1-.3-.3-.4-.4Z"/><polygon class="cls-4" points="573.1 490.8 573.4 490.7 573.4 491 573.1 490.8"/><path class="cls-2" d="m512.7,513.4c.3,0,.8-.3.9-.2.3.5-.2.5-.5.6-.1-.1-.3-.3-.4-.4Z"/><path class="cls-2" d="m138.9,356.5c-18.5-.5-32.1-15.3-31.6-34.2.5-17.5,15.8-31,34.5-30.6,17.2.4,31.1,15.7,30.6,33.7-.5,16.9-16.3,31.5-33.6,31.1Z"/><path class="cls-4" d="m255.2,639.5c-1.6,1.9-3.1,4-4.9,5.7-.9.9-1.7-.5-2.4-1-1.3-.9-1.5-1.8-.2-3,1.2-1.1,2.3-2.3,3.3-3.6.7-.8,1.3-1.2,2.2-.5.8.7,1.8,1.3,2.1,2.5Z"/><path class="cls-4" d="m235.4,632.4c-.4-.3-1.1-.7-1.6-1.2-.6-.5-1.7-1.1-1-2.1,1.5-1.9,3.1-3.9,5-5.5.7-.6,1.4,1,2.2,1.6.3.2.5.5.6.9.1.4-4.5,6.2-5.2,6.2Z"/><path class="cls-4" d="m264.5,657.9c-1.5-.5-2.5-1.2-3.1-2.3-.7-1,.6-1.4,1.1-2,.9-1,2-2,2.7-3.1,1-1.8,1.9-1.7,3.4-.5,1.6,1.4,1.3,2.3,0,3.6-1.5,1.3-2.7,2.9-4,4.3Z"/><path class="cls-4" d="m190.6,594.6c-1.2-.9-2.1-1.4-2.8-2.1-.9-.9,0-1.6.5-2.2.8-1,1.8-1.8,2.4-2.9,1.1-2.1,2.2-1.7,3.7-.5,1.7,1.4,1.2,2.3-.1,3.6-1.3,1.2-2.5,2.7-3.7,4.1Z"/><path class="cls-4" d="m181.6,575.6c-1.9,2.2-3.4,4.4-5.3,6.2-.8.8-1.6-.8-2.3-1.4-.6-.6-1.2-1.2-.3-2.2,1.3-1.4,2.4-2.8,3.6-4.2.4-.5.6-1.6,1.6-.8.9.8,1.7,1.6,2.7,2.5Z"/><path class="cls-4" d="m220.4,619.4c-.7-.6-1.7-1.2-2.5-1.9-.9-.9,0-1.5.6-2.2.9-1,1.8-2.1,2.6-3.1.5-.6.9-1.6,2-1,.9.5,1.7,1,2.1,2,.2.7-3.8,6.2-4.8,6.2Z"/><path class="cls-4" d="m210.2,601c0,.9-4.5,5.9-5,5.6-1.2-.6-2.5-1.1-2.9-2.6-.1-.5,4.6-5.7,5.1-5.5,1.4.3,2.2,1.3,2.8,2.5Z"/><path class="cls-4" d="m138,666.9c-6.6.2-13.1-5.4-13.3-11.6-.2-7,5.4-13,12.5-13.3,6.6-.3,12.6,5.5,12.8,12.5.2,6.1-5.7,12.3-12,12.5Zm-.8-6c3.5,0,6.3-2.8,6.4-6.4,0-3.5-2.9-6.5-6.7-6.5-2.9,0-6.1,3.3-6.2,6.4,0,3.3,3.2,6.5,6.4,6.5Z"/><path class="cls-4" d="m368.4,641.1c5.9,0,10.9,4.5,10.9,10,0,5.9-4.9,11.2-10.7,11.3-5.4.1-10.7-5.3-10.7-10.9,0-5.8,4.6-10.4,10.5-10.4Z"/><path class="cls-4" d="m237,393.8c.4-2.5,1.3-4.6,4.3-4.7,2.8-.1,4.9,1.8,4.9,4.4,0,2.3-2.5,4.8-4.9,4.6-2.7-.1-3.9-1.9-4.3-4.4Z"/><path class="cls-4" d="m264.7,393.5c.6-2.3,1.5-4.3,4.5-4.3,2.7,0,5,2.1,4.7,4.6-.3,2.7-1.9,4.5-4.6,4.3-2.5-.1-4.4-1.5-4.6-4.6Z"/><path class="cls-4" d="m217.8,393.3c0,2.8-2.4,5.1-4.9,4.8-2.8-.2-4.3-2.1-4.2-4.7.2-2.6,1.7-4.4,4.6-4.3,2.8.1,4.2,1.7,4.5,4.2Z"/><path class="cls-4" d="m636.3,518.7c-.3.2-.6.8-1.1.3-.4-.5,0-.8.3-1.1.2.3.5.6.7.9Z"/><path class="cls-4" d="m405.4,184.2c-.4.2-.8.4-1.1,0,0,0,.3-.5.4-.7.2.3.5.5.7.8Z"/><path class="cls-2" d="m137.2,660.9c-3.3,0-6.4-3.2-6.4-6.5,0-3,3.2-6.4,6.2-6.4,3.8,0,6.8,2.9,6.7,6.5,0,3.6-3,6.4-6.4,6.4Z"/><line class="cls-2" x1="276.1" y1="454.5" x2="476.6" y2="354.9"/><path class="cls-4" d="m449.4,569.5c0-.3,0-.6,0-.8,0-.1.1-.2,0-.3,0-1.3,0-2.6-.2-3.9,0-.9.2-1.4.9-1.9.9-.6,2-1,2.8-1.7.6-.3,1.2-.5,1.7-.8.8-.4.8-.4.4-1.2-.9-1.8-1.9-3.7-2.8-5.5-1-1.9-1.9-3.8-2.8-5.8-.8-1.8-1.5-3.7-2.4-5.5-3.8-7.4-7.3-14.9-11.2-22.2-1.2-2.3-2.2-4.6-3.4-6.9-2.3-4.5-4.6-9.1-6.8-13.7-4.1-8.2-8.3-16.4-12.5-24.6-3.9-7.6-7.6-15.3-11.6-22.9-.1-.2-.1-.7-.5-.6-.8.3-.9-.3-1.1-.7-1.2-2.6-2.8-5-4.2-7.5-.6-1.5-.3-3.1-.4-4.7,0-.6.5-.9.9-1.2,1-.8,1.8-.7,2.9,0,1.7,1,3,2.4,3.6,4.3.1.4.3.7.5,1,.3,1,.5,1.9,1.1,2.8.5.8.9,1.7,1.4,2.6.3.6.2.9-.5,1.2-.4.1-.8.2-1.2.3,0,0-.1,0-.2,0-.4-.8-.8-1.6-1.2-2.4-.9-1.9-1.7-3.7-3.3-5.1-.3.7-.2,1.5.2,2.1.9,1.4,1.6,2.9,2.4,4.4.3.5.7,1,.7,1.6-.7.6-.1,1.1.1,1.6,1.4,2.7,2.8,5.3,4.1,8,3,5.8,5.9,11.7,8.9,17.5,1.7,3.2,3.3,6.5,4.9,9.7,2.9,5.6,5.7,11.2,8.6,16.8,4.3,8.3,8.5,16.7,12.7,25,2.2,4.3,4.3,8.6,6.4,12.9,2.7,5.5,5.5,10.9,8.2,16.4.2.4.4.8.9.6.4.1.6,0,.7-.4.6-.4.3-.9,0-1.4-1.1-2.2-2.2-4.3-3.3-6.5.1-.1.2-.3.1-.5-.7-1.5-1.4-3-2.1-4.5-.6-1.1-1.2-2.3-1.7-3.4-.7-1.8-1.8-3.3-2.6-5-.8-1.7-1.7-3.4-2.4-5.2-.7-1.6-1.4-3.2-2.3-4.6-.8-1.1-1.2-2.4-1.8-3.6-.5-1-.8-2-1.4-2.9-.4-.6-.8-1.2-.9-1.9,0-.3-.2-.6-.4-.9-1-1.4-1.6-2.9-2.3-4.4-.2-.4-.5-1,0-1.2.5-.2.5.5.7.9,2.3,4.5,4.5,9.1,6.8,13.6,1.9,3.9,3.9,7.7,5.8,11.6,2,3.9,4.4,7.7,6.2,11.6,1,2.1,2,4.1,3.1,6.2.2.4.4,1,1.1.7,1.2-.4,2.3-1.1,3.5-1.6.3,0,.6,0,.8-.3.9-.5,1.7-.2,2.4.5,1.1,1.1,2.3,2,3.5,3,1.2,1,1.9,2.1,2.4,3.6.5,1.8,1.2,3.5,1.7,5.2,2.1,6.1,5.2,11.6,9.5,16.5.4.4.6.9.9,1.4,1,1.9,1.8,3.9,2.9,5.7.2.3.4.7.7.9.6.4,1.3.7,1.1,1.7,0,.2.1.4.4.4.2,0,.3.1.5.2.5.4.4,1.1.7,1.5.2.4,1.1.5,1.1,1.2,0,.5.2.7.6.9.2,0,.4.2.4.3.2,1.3,1.7,1.6,2,2.7,0,.1.1.3.2.3,1.1.5,1.5,1.7,2.4,2.4.7.6,1.3,1.4,1.8,2.1,2.3,3.1,4,6.5,5.9,9.9.9,1.7,1.5,3.5,2.6,5.1,0,1.1,1.2,1.7,1.1,2.9,0,.3.2.6.5.7.2.1.4.3.4.6-.2,1.3,1.2,3,1.6,4.2.7,1.7,1.3,3.5,2,5.3.3.9.6,1.8.9,2.7.8,2.6,3.9,10.3,1.7,12.8-.8.9-1.9,1.6-3,2.2-1.9,1.2-4,2.1-6,3.2-3.3,1.8-8.6,6.1-12.5,4.4s-2.8-1.9-4-3.2c-8.6-9.3-15.3-20.5-19.4-32.5-.4-1.1-.7-2.1-1-3.2-.1-.5-.3-.9-.4-1.4-.3-1-.7-2.1-1-3.1,0-2-1.5-4.8-2.2-6.8s-1.6-4.8-2.3-7.2c-1.3-4.3-3.6-8.3-4.9-12.7-.7-2.3-1.7-4.5-2.9-6.5-1.9-3.1-4-6.1-6-9.1-.5-.7-.7-1.6-1.4-2.1-.2-.5-.6-1-.7-1.6,0-.1,0-.2,0-.4Zm29,42.8c.4.7.7,1.5,1.2,2.1,1.9,2.1,5.6,2.1,7.4,0,1.6-1.8,1.9-3.9.9-6.1-.7-1.4-1.3-2.9-2.1-4.3-1.2-2.4-2.2-5-3.6-7.3-.7-1.2-1.8-2.1-3.1-2.5-2.4-.7-4.7.4-5.7,2.5-.8,1.5-.7,3.3,0,5,1.7,3.5,3.4,7.1,5,10.7Zm8,15.1c1,1.9,2,3.7,3,5.6,2.4,4.4,4.9,8.8,7.3,13.2.3.6.7,1.3,1.3,1.7,1.9,1.4,5.6-.4,6.8-2.1,1.3-1.9,1.6-3.9.5-5.9-.5-1.1-1.1-2.1-1.7-3.2-2-3.3-3.9-6.6-5.7-10-.8-1.6-1.5-3.4-2.7-4.8-3.7-4.5-11.9-.6-9.1,5.1,0,.1.1.3.2.4Zm-18.1-48.6c-.1-.2-.2-.4-.4-.5-.4-.6-1.2-1.2-1.8-1.5s-.8-.1-1.2.1c-.6.4-.4,1.3-.5,2,0,.9-.6,1.7-.7,2.6-.1,1.2,1.1,3.7,2.1,4.4,0,0,.2,0,.2,0,.3,0,.6,0,.8,0,.3,0,.6,0,.8-.2.2-.1.4-.4.5-.6.4-.6.8-1.3,1.1-1.9.2-.3.3-.6.4-.9,0-.3,0-.7-.2-1-.3-.9-.8-1.7-1.3-2.5Z"/><path class="cls-4" d="m471.3,616.1c.6,0,.6.6.7.9,1,2.7,2.1,5.4,3.4,8,.3.5.5,1.1.4,1.7,0,.5.1.8.6,1.1.1,0,.3,0,.3.2.5.4-.2,1.1.4,1.5.4.3.9.5.9,1.1,0,0,0,.2,0,.3,0,.8.9.8,1.1,1.3.1.5-.1,1.2.7,1.5.8.3.3,1.1.6,1.6.3.4,1.1.3,1,1.2,0,.5.1.9.6,1,.5.2.7.5.6,1-.1.6.1.9.7,1,.4,0,.5.4.5.8,0,.6.2.9.7,1.1.5.1.7.5.6,1,0,.5.2.9.6,1,.5.2.6.5.8,1,.4.9,1.1,1.8,1.8,2.5.4.4,1,.9,1.4,1.4,1.1,1.4,2.2,2.9,3.2,4.3.4.5.7.9,1.3,1,.9.2,1.6.7,2.3,1.3.7.6,1.3.8,2.3.4,3.5-1.4,6.8-3.2,10.1-5,2-1.1,4.1-2,6-3.2,1.1-.6,2.1-1.3,3-2.2.9,1,.6,2.3.5,3.4-.3,2.2-.9,4.2-2.4,6.1-1.1,1.4-2.4,2.5-3.6,3.6-.8.8-2,1.5-3.3,1.9-1.2.3-2.4,1-3.6,1.1-1.9.3-3.8.7-5.7.1-2.1-.6-4.1-1.6-5.5-3.4-1.8-2.2-3.7-4.3-5.8-6.2-1-.9-1.6-2.1-2.4-3.1-1.1-1.6-2.2-3.3-3.3-5-.5-.8-1.1-1.6-1.6-2.5-.5-1.1-1.2-2.1-1.9-3-.2-.2-.3-.4-.4-.7-.3-1.2-.8-2.3-1.7-3.3-.4-.5-.4-1.2-.6-1.8-.2-.7-.5-1.3-.7-1.9-1-2.3-2.1-4.6-2.9-6.9-.4-1.1-1-2.1-1.3-3.2-.2-.6-.4-1.2-.3-1.8,0-.5-.2-.9-.4-1.3-.2-.4-.1-.7.3-.8Z"/><path class="cls-2" d="m394.7,440.8c1.3,2.5,3,4.9,4.2,7.5.2.4.3,1,1.1.7.4-.2.4.3.5.6,4,7.6,7.7,15.3,11.6,22.9,4.2,8.2,8.4,16.4,12.5,24.6,2.3,4.5,4.5,9.1,6.8,13.7,1.2,2.3,2.2,4.6,3.4,6.9,3.9,7.3,7.4,14.8,11.2,22.2.9,1.8,1.6,3.7,2.4,5.5.9,1.9,1.8,3.9,2.8,5.8,1,1.8,1.9,3.6,2.8,5.5.4.8.4.8-.4,1.2-.6.3-1.2.5-1.7.8.1-.5-.1-.9-.3-1.3-1.1-2.2-2.3-4.3-3.2-6.5-.9-2.2-2.1-4.3-3-6.5-1.2-3.1-2.7-6.1-4.4-9-.3-.5-.5-1.2-.7-1.8-2-4-4-8.1-6-12.1-.7-1.4-1.2-2.8-2-4.1-.7-1.2-1.2-2.6-1.7-3.9,0,0,0-.2-.1-.2-1.5-1.8-1.7-4.3-3.2-6.1-.3-.4-.4-1-.6-1.5-7.3-14.6-14.6-29.3-21.8-43.9-.3-.6-.6-1.3-1.1-1.9-.3-.4-.5-.9-.7-1.4,0-.2,0-.5-.2-.7-1-1.6-1.5-3.5-2.7-5-.2-.2-.3-.4-.4-.7-1.6-3.3-3.3-6.6-4.9-9.9-.2-.4-.7-.8-.1-1.3Z"/><path class="cls-2" d="m460,554.5c-.7.3-.9-.3-1.1-.7-1-2.1-2.1-4.1-3.1-6.2-1.9-4-4.2-7.7-6.2-11.6-2-3.8-3.9-7.7-5.8-11.6-2.3-4.5-4.5-9.1-6.8-13.6-.2-.3-.3-1.1-.7-.9-.5.2-.2.8,0,1.2.7,1.5,1.3,3.1,2.3,4.4.2.3.4.6.4.9.1.7.5,1.3.9,1.9.6.9,1,1.9,1.4,2.9.6,1.2,1,2.5,1.8,3.6,1,1.4,1.7,3,2.3,4.6.7,1.8,1.6,3.5,2.4,5.2.8,1.7,1.9,3.2,2.6,5,.4,1.2,1.1,2.3,1.7,3.4.7,1.5,1.5,3,2.1,4.5,0,.2,0,.3-.1.5-.5-.4-.6-.9-.9-1.4-3.7-7.5-7.5-15-11.2-22.5-5.7-11.4-11.4-22.8-17-34.2-.8-1.7-1.8-3.3-2.6-5-.4-1-1.2-1.8-1.6-2.8-.6-1.6-1.4-3.2-2.3-4.7-.9-1.8-1.8-3.6-2.7-5.4-4.1-7.9-8-15.9-12-23.9-.2-.4-.5-.8-1-.9.4,0,.8-.2,1.2-.3.7-.2.8-.5.5-1.2-.4-.9-.8-1.8-1.4-2.6-.6-.9-.8-1.8-1.1-2.8.5.2.6.7.8,1.1,2,4.1,4,8.2,6.1,12.3,5.2,9.8,9.9,19.8,15,29.6,6.6,12.6,12.6,25.5,19.2,38.2,5.4,10.3,10.4,20.7,15.6,31.1.3.6.6,1.3.9,2Zm-24.1-45c.1-1-.3-1.5-.7-2.1-.4-.5-.6-1.1-.9-1.7-.3-.5-.4-1.2-1.2-1.8.4,1.4,1.9,4.6,2.7,5.5Zm-2.9-6c0,0,0-.2,0-.2,0,0-.2,0-.2,0,0,0,0,.2,0,.2,0,0,.1,0,.2,0Z"/><path class="cls-2" d="m449.1,569.3c.7.5,1,1.4,1.4,2.1,2,3,4.1,6,6,9.1,1.3,2,2.2,4.2,2.9,6.5,1.2,3.9,2.6,7.6,4.5,11.2.6,1.1.7,2.3,1,3.5.2,1,.8,2,1.1,3,.2.4.6.8.4,1.3,0,.2,0,.5.1.6.5.5.7,1,.5,1.7,0,.2.1.4.3.6.5.5.7,1,.4,1.7-.2.4.1.6.4.9.3.4.7.9,0,1.4-.5,0-.5-.4-.6-.8-.5-1.6-1.1-3.3-1.7-4.9-.4-1-.5-2.1-.8-3.1-.5-1.2-1-2.4-1.6-3.6-1-2-2-4-2.6-6.2-.4-1.4-1-2.7-1.6-4-.5-1.4-1.2-2.7-1.8-4.1-1-2-2.4-3.7-3.5-5.6-1-1.6-2.3-3-3.1-4.8-.4-1-1.1-1.7-1.5-2.8-.4-1.2-.2-2.4-.3-3.6Z"/><path class="cls-3" d="m468.4,613.6c.8.5.9.8.4,1.6-.2-.5-.8-.9-.4-1.6Z"/><path class="cls-3" d="m464.3,552.5c-.2.2-.5.4-.8.3.2-.3.4-.4.8-.3Z"/><path class="cls-3" d="m448.3,566.2c.1,0,.1.2,0,.3-.1,0-.1-.2,0-.3Z"/><path class="cls-3" d="m448.4,567.4c.1.1.1.2,0,.4-.1-.1-.1-.2,0-.4Z"/><path class="cls-2" d="m403,447.1c.5.1.7.5,1,.9,4,8,7.9,16,12,23.9.9,1.8,1.8,3.6,2.7,5.4.8,1.5,1.6,3.1,2.3,4.7.4,1,1.1,1.8,1.6,2.8.7,1.7,1.7,3.3,2.6,5,5.7,11.4,11.4,22.8,17,34.2,3.7,7.5,7.5,15,11.2,22.5.2.5.4,1,.9,1.4,1.1,2.2,2.2,4.3,3.3,6.5.2.5.5.9,0,1.4-.3,0-.5.2-.7.4-.6.2-.7-.2-.9-.6-2.7-5.5-5.5-10.9-8.2-16.4-2.1-4.3-4.3-8.6-6.4-12.9-4.2-8.4-8.4-16.7-12.7-25-2.9-5.6-5.7-11.2-8.6-16.8-1.7-3.2-3.3-6.5-5-9.7-3-5.8-5.9-11.6-8.9-17.5-1.4-2.7-2.8-5.3-4.1-8-.3-.5-.8-1-.1-1.6.4-.2.8-.4,1.2-.6,0,0,.1,0,.2,0Z"/><path class="cls-2" d="m477.4,610.2c-1.5-3.6-3.3-7.1-5-10.7-.8-1.7-.8-3.4,0-5,1-2.1,3.3-3.2,5.7-2.5,1.4.4,2.4,1.2,3.1,2.5,1.4,2.4,2.4,4.9,3.6,7.3.7,1.4,1.4,2.8,2.1,4.3,1,2.2.7,4.2-.8,6.1-1.9,2.2-5.5,2.2-7.4,0-.6-.6-.8-1.4-1.2-2.1Z"/><path class="cls-2" d="m485.7,623.6c-.3,0-.4.2-.5.4,0,.2-.2.3-.4.2-.2,0-.3-.2-.3-.4,0-1,0-2.1.4-3,1.7-3.7,6.7-4.2,9.3-1,1.2,1.4,1.8,3.2,2.7,4.8,1.8,3.4,3.7,6.8,5.7,10,.6,1,1.2,2.1,1.7,3.2,1,2.1.7,4.1-.5,5.9-1.3,2-3.3,2.6-5.6,2.3-.8,0-1.5-.3-2.2-.7-.3-.2-.5-.5-.2-.8.4-.3.2-.6,0-.8-1.5-1.5-2.3-3.4-3.3-5.3-.2-.4-.4-.8-.8-1.2-.2-.1-.3-.3-.3-.5-.2-1.2-1-2-1.5-3-.3-.6-.6-1.2-.4-2.1.2-.9-.6-1.6-.9-2.3-.1-.2-.5-.4-.4-.6.3-1.1-.5-1.3-1.2-1.6-.6-.3-.9-.6-.4-1.2.2-.3.2-.7,0-1-.3-.4-.4-.9-.7-1.2Zm15.9,13.3c-.6-1.4-1.5-2.7-2.3-4-1-1.8-3.4-2.4-5.1-1.4-1.5.8-2.6,3.1-1.5,5,1.1,1.8,2,3.8,3.1,5.6,1.1,1.8,3.2,2.4,5.1,1.4,1.9-1,2.5-3,1.5-4.9-.3-.5-.5-1.1-.8-1.6Z"/><path class="cls-2" d="m467.4,576.6c.4,1.1,1,2,1.5,3,.2.4,0,.6-.2.9-.5,1-1.3,1.7-1.5,2.8,0,.2-.2.3-.4.3-.6,0-1.2,0-1.7.2-.3.1-.5-.2-.4-.5.1-.4,0-.7-.3-.8-.2,0-.3-.2-.3-.3-.2-1-.8-1.8-1.2-2.7-.3-.6-.3-1.1.3-1.6.6-.5.8-1,.2-1.7-.4-.6.4-1,.7-1.4.3-.4,1.7-.2,2,.3.2.3.3.6.7.8.3.2.5.4.7.8Z"/><path class="cls-2" d="m402.8,447.1c-.4.2-.8.4-1.2.6,0-.6-.4-1.1-.7-1.6-.8-1.5-1.5-3-2.4-4.4-.4-.7-.5-1.4-.2-2.1,1.6,1.4,2.4,3.2,3.3,5.1.4.8.8,1.6,1.2,2.4Z"/><path class="cls-3" d="m456.6,556.2c.2-.2.5-.3.7-.4-.1.4-.4.5-.7.4Z"/><path class="cls-1" d="m435.9,509.5c-.8-.9-2.4-4.1-2.7-5.5.7.6.8,1.2,1.2,1.8.3.6.6,1.1.9,1.7.4.5.8,1.1.7,2.1Z"/><path class="cls-1" d="m433,503.5c0,0-.2,0-.2,0,0,0,0-.2,0-.2,0,0,.1,0,.2,0,0,0,0,.1,0,.2Z"/></svg>