<?xml version="1.0" encoding="UTF-8"?>
<svg id="Layer_1" data-name="Layer 1" xmlns="http://www.w3.org/2000/svg" viewBox="0 0 498.42 550.57">
  <defs>
    <style>
      .cls-1 {
        fill: #fbf5e5;
      }

      .cls-1, .cls-2, .cls-3 {
        stroke-width: 0px;
      }

      .cls-2 {
        fill: none;
      }

      .cls-4 {
        stroke: #202637;
        stroke-miterlimit: 10;
        stroke-width: .1px;
      }

      .cls-4, .cls-3 {
        fill: #202637;
      }
    </style>
  </defs>
  <g>
    <path class="cls-2" d="m295.72,104.99s-.01-.04-.02-.07c0,0,0,0,0,0l.02.06Z"/>
    <path class="cls-2" d="m14.89,195.93c1.96-.06,3.54-.63,3.69-2.83.14-2.12-.98-3.02-3.17-3.2-4.81-.41-7.59-3.4-8.84-7.88-1.36-4.87.68-9.77,5.66-13.11,6.22-4.18,13.26-5.08,20.47-4.08,10.93,1.5,20.26,6.62,28.8,13.42,8.61,6.87,15.95,15.1,24.22,22.34,13.02,11.4,27.48,19.41,48.89,19.4,7.06-.11,16.98-2.57,25.98-8.26,12.74-8.06,23.78-18.14,34.31-28.84,1.48-1.5,1.24-2.14-.41-3.29-1.78-1.24-2.72-.73-4.12.57-9.8,9.08-19.63,18.16-30.97,25.31-15.68,9.89-32.24,11.33-49.29,3.9-9.84-4.29-18.03-11.05-25.7-18.48-7.71-7.46-15.15-15.25-24.06-21.36-12.14-8.33-25.29-12.9-40.22-10.35-11.02,1.88-18.52,8.91-19.97,18.49-1.32,8.74,6.59,18.5,14.75,18.24Z"/>
    <path class="cls-2" d="m469.22,319.58c8.67,1.23,13.12,6.51,14.28,15.39,1.58-8.77,5.91-14.55,14.92-16.28-8.8-1.91-13.38-7.38-15.07-15.97-.71,9.36-5.96,14.06-14.09,16.21-.02-9.99,0-19.98-.08-29.97-.09-11.09-8.27-19.37-19.33-19.64-3-.07-6-.16-8.99,0-2.02.11-2.96-.12-2.54-2.56.5-2.83.31-5.74-.6-8.52-1.2-3.66-3.45-6.52-7.33-7.28-3.78-.75-7.13.58-9.73,3.5-.85.95-1.57,2.03-2.4,3.12-2.34-7.33-5.39-10.32-10.76-10.04-8.83.46-10.52,7.31-12.19,14.96-.46-2.4-.73-3.98-1.07-5.54-1.04-4.9-4.66-8.52-9.15-9.19-4.5-.67-9.27,1.67-11.72,5.81-2.22,3.76-3.45,7.85-2.65,12.17.54,2.94-.27,3.53-3.11,3.52-20.61-.08-41.22,0-61.83.03-.58,0-1.26.21-1.82-.84,6.01-7.26,11.13-15.36,16.63-23.9,1.41,6.59,1.81,12.5,2.29,18.54,11.89-19.21,17.51-40.48,20.84-63.16,4.92,6.46,8.16,13.13,11.39,21,.43-2.24.67-3.32.83-4.41,2.03-13.67.63-27.12-2.69-40.42-1.83-7.32-3.97-14.56-7.68-21.21h0c1.62-1.26,2.85.19,4.06.76,5.59,2.64,10.83,5.9,16.15,9.23-7.18-21.33-21.82-36.69-39.86-49.61,6.78-3.29,13.82-4.43,21.28-6-1.02-.65-1.5-1.02-2.03-1.29-10.09-5.21-20.88-8.18-32.1-9.31-2.92-.3-6.11-2.03-9.06.06-2.82,2.01-5.57,4.13-8.35,6.2,0,.02,0,.04.02.07l-.02-.06s0,0,0,0c-.64-2.08,1.4-2.31,2.38-3.02,18.43-13.39,34.34-29.05,43.87-50.12,6.01-13.29,8.25-27.16,3.64-41.48-1.16-3.59-2.78-6.99-5.56-10.19-5.69,33.97-29.38,55.95-46.65,65.11,5.5-9.98,10.08-19.84,11.06-31.03.99-11.29-.57-21.81-7.75-31.71-.39,1.06-.58,1.36-.61,1.68-2.98,24.14-14.65,43.08-34.22,57.31-9.84,7.16-21.17,10.97-32.67,14.37-9.35,2.77-16.3,8.42-20.71,17.11-.68,1.34-1.41,2.08-2.9,2.51-7.95,2.31-15.47,5.65-22.23,10.44-13.01,9.21-22.65,20.44-21.37,37.75.15,1.99-1.01,2.28-2.32,2.64-5.63,1.58-11.27,3.14-16.92,4.67-7.68,2.08-15.64,3.39-22.48,7.86-6.41,4.19-8.41,10.6-5.27,17.56,4.25,9.41,12.5,13.62,22.42,16.92-1.81-3.75-3.22-6.86-2.37-10.85,4.42,5.53,8.9,10.47,15.46,12.81.2.13.39.26.59.39-.04-.28-.07-.56-.11-.83-2.03-3.94-2.39-8.11-1.98-12.8,4.01,3.77,7.96,6.71,13.26,8.34-.8-1.95-1.55-3.28-1.87-4.7-.4-1.74-.32-3.56,1.46-4.66,1.71-1.06,3.04-.12,4.34.97,1.5,1.26,3.07,2.44,5.15,4.08-.46-2.5-.73-4.31-1.14-6.09-.4-1.78.23-2.75,1.92-3.43,10.53-4.24,20.58-9.5,30.81-14.4,2.58-1.23,5.9-3.18,8.01-.98,2.12,2.21-.63,5.05-1.9,7.34-5.93,10.68-12.02,21.27-17.97,31.94-3.77,6.76-2.1,5.28-9.41,4-.39-.19-.79-.39-1.09.09-.02.04.39.36.6.54.19,1.77,2.41,2.53,2.46,4.03.06,1.91-2.02,2.56-3.45,3.44-1.12.69-2.28.8-3.57.24-2.32-1-4.7-1.87-7.17-2.84.35,2.88,3.12,3.95,4.08,6.31-2.24,1.6-4.71.84-7.49.64,4.78,9.73,11.82,15.8,22.8,18.22-2.17-2.88-4.81-4.59-5.44-8.17,7.94,2.59,15.63,2.43,23.96,1.38-3.16-3.41-7.07-5.17-9.11-9.13,4.96.21,9.27-1.33,14.31-2.02-2.19-1.97-3.81-3.5-5.51-4.94-1.77-1.5-2.33-2.57.24-4.04,3.08-1.76,5.99-3.82,9.41-5.22-.93-1.21-2.12-1.54-3.29-1.87-2.73-.77-3.09-2.16-1.7-4.63,2.05-3.66,4.64-6.79,7.86-9.43,12.39-10.17,26.66-16.99,41.37-22.99,6.34-2.59,7.56-1.82,8.8,5.02.04.25.05.5.09.74,2.17,11.7-1.95,21.61-8.85,30.65-6.31,8.27-14.02,15.23-21.52,22.38-15.53,14.81-32.17,28.49-46.08,44.96-.88,1.05-1.82,1.48-3.2,1.46-8.25-.08-16.49-.12-24.74-.05-1.87.02-2.4-.53-2.14-2.34.43-2.97.64-5.95.05-8.94-1.13-5.68-5.05-9.81-9.9-10.31-5.13-.53-8.83,1.71-10.86,6.68-.56,1.37-.88,2.85-1.44,4.7-1.72-6.79-5.21-11.61-12.41-11.78-6.61-.15-9.14,4.79-10.91,10.55-.87-1.28-1.38-2.27-2.11-3.06-2.98-3.28-6.56-4.93-11.05-3.65-4.51,1.29-6.67,4.63-7.32,9-.31,2.08-.26,4.25-.06,6.35.2,2.1-.36,2.88-2.57,2.83-3.99-.1-8-.06-11.99.17-9.94.55-17.13,7.4-17.96,17.21-.25,2.97.11,5.99.12,8.98.05,36.44.08,72.87.12,109.31h2.8c1,1,1,3,2,4,3,3,7,4,11,7s11,4,16,4c16,1,32-3,48-3,52,0,104,4,156,0,33-3,66,4,99,2,13-1,27-5,39-10,10-4,14-14,20-23,2.65-4.86,6.09-8.35,10.22-10.74,0-8.84.01-17.68.04-26.52.03-9.7.11-19.4.17-29.1Z"/>
    <path class="cls-4" d="m114.68,408.16c5.08-1.03,10.17-1.13,15.26-.38,1.13.17,2.87-.23,3.32.99.47,1.27,1.08,2.23.79,1.08-4.43-17.68-30.43-9.15-45.67,9.2,1.45.32,2.93.54,4.37.68,5.67-5.7,13.18-9.79,21.94-11.57Z"/>
    <path class="cls-4" d="m290.06,375.56c-.98-.53-2.16-.55-3.28-.55-.06,0-.13,0-.19,0-39.46.14-9.22,2.37,6.09,4.17-.01-.03-.03-.06-.04-.09-.6-1.36-1.28-2.82-2.58-3.53Z"/>
    <path class="cls-3" d="m293.46,104.87s0,0,0-.01c.02,0,.03,0,.05,0-.02,0-.03,0-.05,0,0,0,0,0,0,.01Z"/>
    <path class="cls-3" d="m345.63,154.89c.22-.06.44-.12.66-.2.03,0,.02-.1.02-.18-.08.03-.16.06-.24.1-.15.09-.29.19-.44.28Z"/>
    <path class="cls-3" d="m293.45,167.14s0,.02,0,.03c0,0,.01-.01.02-.02h-.02Z"/>
    <path class="cls-3" d="m295.66,104.93s.03.03.05.05c0-.02,0-.03-.01-.05,0,0,0,0,0,0-.01,0-.02,0-.03,0Z"/>
    <path class="cls-3" d="m134.6,219.98c-21.41,0-35.87-8-48.89-19.4-8.27-7.24-15.61-15.47-24.22-22.34-8.53-6.81-17.86-11.92-28.8-13.42-7.21-.99-14.25-.1-20.47,4.08-4.98,3.35-7.02,8.24-5.66,13.11,1.25,4.48,4.03,7.47,8.84,7.88,2.2.19,3.32,1.08,3.17,3.2-.15,2.2-1.73,2.77-3.69,2.83-8.16.26-16.07-9.5-14.75-18.24,1.45-9.58,8.95-16.61,19.97-18.49,14.93-2.55,28.08,2.01,40.22,10.35,8.91,6.11,16.35,13.89,24.06,21.36,7.67,7.42,15.86,14.18,25.7,18.48,17.05,7.43,33.61,5.99,49.29-3.9,11.34-7.15,21.17-16.24,30.97-25.31,1.4-1.3,2.34-1.8,4.12-.57,1.65,1.15,1.89,1.78.41,3.29-10.53,10.7-21.57,20.78-34.31,28.84-9,5.69-18.92,8.16-25.98,8.26Z"/>
    <path class="cls-3" d="m150.99,194.84c.04.28.07.56.11.83-.2-.13-.39-.26-.59-.39.15-.16.31-.31.49-.44Z"/>
    <path class="cls-3" d="m181.19,205.08c-.21-.19-.63-.5-.6-.54.3-.48.71-.28,1.09-.09-.16.21-.33.42-.49.63Z"/>
    <path class="cls-2" d="m388.06,294.28c-1.73-6.26-2.07-12.11.05-17.95.69-1.9,1.43-2.45,3.85-2.6,5.18-.31,6.58,2.35,7.35,6.5.78,4.23,1.76,8.43,2.74,13.05,2.06-1.36,2.88-3.21,3.85-4.83,2.26-3.75,3.95-7.77,5.42-11.9.49-1.39.51-4.12,2.01-3.78,2.32.53,5.3.67,6.13,4.33.98,4.33,1.04,8.63,1.19,12.97.03.96-.37,2.22.8,2.63.97.34,1.41-.85,2.02-1.42,4.09-3.85,6.85-8.59,8.71-13.81,1-2.82,2.23-3.99,5.49-3.5,4.05.62,8.23.32,12.34.58,8.56.56,13.76,5.89,14.16,14.37q.39,8.32-7.92,8.31c-127.72,0-255.44-.02-383.16.05-2.97,0-3.66-.79-3.67-3.68-.03-6.11-.22-12.08,5.6-16.13,2.53-1.75,5.14-2.96,8.3-2.93,4.37.04,8.76.09,13.11-.18,2.2-.14,2.98.77,3.75,2.6,2.88,6.85,6.54,13.15,13.71,17.48-1.76-5.98-2.5-11.48-.63-16.98.57-1.68.84-3.95,3.19-4.1,2.67-.17,2.97,2.07,3.52,4.02,1.39,4.97,3.66,9.54,6.65,13.74.56.78,1.1,1.89,2.24,1.75,1.28-.15,1.15-1.56,1.36-2.39,1.28-4.95,2.14-10.02,4.21-14.72.34-.78.02-3,1.72-2.1,2.17,1.15,5.69-1.97,6.77,2.49,1.25,5.15,1.73,10.33,1.61,15.59-.01.45.09.89.18,1.73,4.94-2.64,8.4-6.49,9.83-11.17,2.31-7.54,6.93-8.35,14.03-8.26,35.48.43,70.97.16,106.46.17,31.86,0,63.73.08,95.59.04,1.64,0,2.32.31,2.93,1.93,2.08,5.53,4.86,10.69,9.13,14.89,1.41,1.39,2.77,2.9,5.37,3.19Z"/>
    <path class="cls-2" d="m151.9,375.01c38.35.03,76.7.01,115.05.01v.02c36.48,0,72.96,0,109.43-.02,3.49,0,6.99.15,10.46-.5,4.78-.89,7.64-4.37,7.74-9.55.1-5.16-2.96-9.22-7.55-10.16-4.1-.84-8.22-.34-12.33-.34-69.33-.03-138.66-.04-208-.02-6.11,0-12.24-.41-18.34.37-4.33.55-7.78,4.08-8.22,8.41-.69,6.83,4.15,11.76,11.75,11.77Z"/>
    <path class="cls-2" d="m131.35,411.72c.82-.86,2.37-1.68,1.91-2.95-.45-1.22-2.19-.82-3.32-.99-5.09-.75-10.18-.65-15.26.38-8.76,1.77-16.28,5.87-21.94,11.57,1.43.14,2.81.2,4.06.2,11.44.71,22.87-1.12,34.31-2.23-.97-2.52-1.02-4.67.24-5.99Z"/>
    <path class="cls-2" d="m131.11,417.71c-11.44,1.11-22.87,2.94-34.31,2.23-1.25,0-2.63-.06-4.06-.2"/>
    <path class="cls-2" d="m384.9,326.56c-16.61,0-33.23.05-49.84-.03-4.94-.02-7.63-2.54-8.38-7.27-.82-5.16,2-8.85,7.19-9.22,2.36-.17,4.74-.06,7.12-.06,30.86-.02,61.72-.04,92.57-.08,2.41,0,4.74.11,6.69,1.79,2.74,2.36,3.77,6.34,2.43,9.91-1.3,3.47-3.93,4.97-7.56,4.98-14.99,0-29.98.03-44.97.05-1.75,0-3.5,0-5.25,0,0-.02,0-.05,0-.08Z"/>
    <path class="cls-2" d="m237.21,92.48c-1.78,5.37-5.94,5.9-10.39,6.69-15.07,2.65-28.82,8.49-40.92,18.01-4.45,3.5-7.97,7.87-11.56,12.18-.64.77-.79,2.24-2.42,2.04,2.58-10.75,9.2-18.52,18.08-24.48,14.24-9.55,30.14-13.86,47.21-14.44Z"/>
    <path class="cls-2" d="m248.54,92.92c3.65-5.84,8.31-8.87,13.67-10.9,9.09-3.45,17.99-7.32,26.75-11.54,19.72-9.48,34.36-24.05,44.38-43.4.34-.66.67-1.33,1.03-1.98.12-.21.32-.37.39-.44,1.25,2.37-.27,4.37-1.1,6.41-6.14,14.98-17.11,25.85-30.06,34.97-12.86,9.05-27.42,14.64-41.94,20.25-4.3,1.66-8.1,4.23-13.11,6.63Z"/>
    <path class="cls-2" d="m146.13,399.18c.74.06,1.5.04,2.25.04,24.47,0,48.94,0,73.41,0,0-.03,0-.07,0-.1,24.47,0,48.94.03,73.41-.06,1.64,0,4.59,1.01,4.6-1.52,0-1.74-2.92-1.02-4.5-1.02-46.94,0-93.88.06-140.82.12-2.75,0-5.49.06-8.24.14-.8.02-1.5.37-1.41,1.34.06.74.66,1.02,1.31,1.07Z"/>
    <path class="cls-2" d="m291.94,28.39c2.03,18.8-38.54,52.18-65.71,54.32,2.49-2.34,5.24-3.51,7.98-4.65,8.86-3.68,17.81-7.14,26-12.27,12.87-8.05,22.03-19.36,29.07-32.58.8-1.49,1.63-2.97,2.65-4.83Z"/>
    <path class="cls-2" d="m226.99,259.34c-6.61,2.87-13.45,3.82-21.25,2.82,4.63-4.72,8.66-8.91,13.04-12.77,1.41-1.24,2.73-.94,4.15-.73,5.5.84,10.91.09,16.33-.72-3.4,4.55-7.71,8.11-12.27,11.4Z"/>
    <path class="cls-2" d="m245.8,241.69c-6.74,3.03-13.88,3.01-22,2.98,5.44-4.96,10.25-9.34,15.04-13.73.52-.48,1.1-.52,1.73-.44,5.5.65,10.92-.21,16.37-.74-2.51,5.1-7.23,8.14-11.14,11.94Z"/>
    <path class="cls-2" d="m264.37,222.85c-6.29,2.99-13.03,3.35-20.35,3.66,5.09-5.16,9.74-9.9,14.44-14.58.73-.73,1.83-.63,2.84-.63,4.51.01,8.89-.78,13.13-2.3.4,1.27-.5,2.1-1.06,3.04-2.42,4.09-5.56,7.58-9,10.82Z"/>
    <path class="cls-2" d="m293.46,167.13c1.37,11.77-5.69,19.97-17.52,20.47-1.47.06-1.8-.4-1.48-1.65.84-3.26,1.48-6.55,1.36-9.93-.05-1.51.68-1.09,1.74-1.27,6.02-1.04,11.77-2.82,15.99-7.68l-.09.07Z"/>
    <path class="cls-2" d="m280.36,202.74c-5.19,2.58-10.79,3.54-17.32,4.27,3.77-4.82,6.83-9.46,9.49-14.36.26-.49,1.59-.44,2.44-.56,4.81-.73,9.48-1.88,13.78-4.25-1.55,5.67-4.5,10.55-8.39,14.9Z"/>
    <path class="cls-2" d="m202,134.99c-1.01,3.7-1.64,6.74-2.67,9.65-2.1,5.91-8.08,8.42-13.9,6.06-2.75-1.12-3.41-3.13-2.39-5.71,1.18-3,3.25-5.28,6.25-6.56,1.59-.67,3.26-1.17,4.94-1.61,2.36-.63,4.75-1.13,7.77-1.83Z"/>
    <path class="cls-2" d="m294.53,157.18c-.26,1.78,0,2.84-.73,3.67-4.34,4.88-9.69,8.11-16.04,9.62-.55.13-1.61.03-1.73-.26-1.34-3.2-2.65-6.42-3.73-9.72-.32-.97.94-.88,1.6-.98,6.17-.94,12.34-1.89,18.31-3.73,2.35-.72,2.5.43,2.31,1.39Z"/>
    <path class="cls-2" d="m317.49,399.18c.5,0,1,0,1.5,0,22.08,0,44.15,0,66.23,0,.87,0,1.75-.01,2.61-.14.76-.11,1.45-.5,1.36-1.43-.09-.82-.85-.8-1.43-.85-1.12-.09-2.24-.11-3.36-.11-10.85,0-21.7,0-32.55,0v.11c-11.47,0-22.95-.02-34.42.04-.83,0-2.33-.63-2.41.81-.08,1.41,1.31,1.56,2.48,1.58Z"/>
    <path class="cls-3" d="m272.7,90.21c1.12,3.32-1.57,5.28-3.16,7.18-7.24,8.67-16.74,13.5-27.83,15.4-4.14.71-8.19,2.13-12.8,1.19,1.5-1.97,4.04-1.37,5.54-2.74,1.36-.04,2.69.13,4.06-.33,12.94-4.36,25.26-9.73,34.2-20.7Z"/>
    <path class="cls-2" d="m124.24,168.96c.53-5.42,3.43-8.49,7.83-10.41,9.05-3.94,18.73-6.04,27.87-9.72.76-.31,1.63-.35,2.56-.24-11.91,8.02-26.89,10.2-38.26,20.37Z"/>
    <path class="cls-2" d="m272.7,90.21c-8.94,10.97-21.26,16.34-34.2,20.7-1.37.46-2.7.29-4.06.33,7.03-4.9,15.15-7.75,22.51-12.04,5.91-3.45,11.49-7.23,15.43-13.17.95,1.38.64,2.78.31,4.18Z"/>
    <path class="cls-3" d="m226.99,259.34c4.56-3.29,8.87-6.85,12.27-11.4,2.67-.59,5.35-1.18,8.02-1.77l.04.04c.32,2.71-1.52,4.97-1.58,7.61-.02.88-.67,1.24-1.44,1.47-5.47,1.63-10.92,3.29-16.39,4.91-.63.18-.83-.35-.92-.87Z"/>
    <path class="cls-2" d="m130.02,309.18c4.33-.07,7.75,3.13,7.76,7.27,0,3.89-3.75,7.65-7.65,7.66-3.77.01-7.14-3.47-7.26-7.48-.12-4.03,3.1-7.38,7.15-7.44Zm-4.21,7.59c.42,2.49,1.61,4.22,4.29,4.36,2.41.13,4.9-2.31,4.91-4.64.01-2.63-2.09-4.54-4.92-4.41-2.99.14-3.92,2.16-4.28,4.7Z"/>
    <path class="cls-2" d="m158.09,309.07c3.88.01,7.47,3.55,7.46,7.34-.02,3.94-3.41,7.45-7.3,7.56-4.08.11-7.68-3.52-7.56-7.62.12-4.16,3.31-7.29,7.4-7.28Zm-4.56,7.38c.14,3.08,2.03,4.42,4.55,4.57,2.76.16,4.33-1.62,4.62-4.3.28-2.52-1.94-4.59-4.68-4.6-3.01,0-3.9,2.07-4.49,4.33Z"/>
    <path class="cls-2" d="m109.37,316.3c-.02,4.18-3.34,7.65-7.45,7.75-3.81.1-7.63-3.87-7.48-7.76.15-3.9,3.59-7.16,7.61-7.21,4.15-.05,7.34,3.09,7.33,7.21Zm-2.76-.02c-.23-2.48-1.68-4.09-4.47-4.2-2.89-.11-4.48,1.74-4.63,4.3-.15,2.61,1.36,4.49,4.19,4.73,2.5.21,4.83-2.03,4.91-4.84Z"/>
    <path class="cls-3" d="m264.37,222.85c3.44-3.24,6.58-6.73,9-10.82.55-.94,1.45-1.76,1.06-3.04.94-.23,1.91-.38,2.83-.7,1.68-.57,2.3.09,2.3,1.73,0,3.97-.38,7.93-4.72,9.51-3.42,1.25-6.55,3.56-10.46,3.31Z"/>
    <path class="cls-3" d="m245.8,241.69c3.9-3.8,8.62-6.84,11.14-11.94,1.51.06,2.99-2.02,4.06-1,1.2,1.14-.42,2.96-.47,4.52-.15,4.36-2.94,6.25-6.76,7.1-2.63.59-5.03,2.6-7.96,1.31Z"/>
    <path class="cls-3" d="m217.28,266.46c3.68-1.01,7.36-2.06,11.06-3.03,1.3-.34,3.09-1.7,3.76.37.62,1.89-.11,4.99-1.73,5.15-4.84.47-9.89,1.85-14.64-.65.35-.75,1.6-.75,1.55-1.84Z"/>
    <path class="cls-3" d="m280.36,202.74c3.89-4.35,6.84-9.23,8.39-14.9.8-.12,1.93-1.31,2.08.67.27,3.49-.46,6.89-.93,10.31-.15,1.1-1.14,1.64-2.09,1.92-2.46.74-4.73,2.21-7.45,2Z"/>
    <path class="cls-2" d="m294.16,107.16c2.82.45,5.64.9,9.39,1.49-7.1,2.09-13.37,3.93-19.65,5.77,3.61-2.96,7.67-5.1,9.56-9.55,0,0,0,0,0,0,0,.51,0,1.03,0,1.54-.15.24-.48.61-.42.7.31.43.73.29,1.12.05Z"/>
    <path class="cls-2" d="m217.28,266.46c.04,1.09-1.2,1.08-1.55,1.84-5.06,2.29-10.24.61-15.45.06,5.43-2.46,11.45-.4,17-1.9Z"/>
    <path class="cls-2" d="m295.69,104.93c-.74-.02-1.49-.05-2.23-.07,0,0,0,0,0,0,.74.13,1.53-.83,2.24.12,0,.01-.02-.05-.02-.05Z"/>
    <polygon class="cls-2" points="293.55 167.06 293.57 167.19 293.46 167.13 293.55 167.06"/>
    <path class="cls-2" d="m345.62,154.9c.23-.15.46-.29.69-.44,0,.08.01.22-.02.23-.22.08-.45.14-.68.21,0,0,0,0,0,0Z"/>
    <path class="cls-3" d="m247.28,246.17c.11-.1.22-.2.33-.3-.1.11-.2.23-.29.34,0,0-.04-.04-.04-.04Z"/>
    <path class="cls-3" d="m294.16,107.16c-.39.24-.82.37-1.12-.05-.06-.09.27-.46.42-.7.24.25.47.5.71.75Z"/>
  </g>
  <line class="cls-2" x1="164.9" y1="382.67" x2="365.44" y2="283.03"/>
  <path class="cls-2" d="m289.3,377.79c-.13-.24-.14-.71-.55-.56-.76.28-.87-.29-1.07-.73-1.19-2.61-2.81-4.98-4.15-7.51-.52.48-.04.88.14,1.25,1.62,3.3,3.27,6.6,4.91,9.89.11.23.22.47.37.67,1.18,1.53,1.65,3.44,2.69,5.05.13.2.11.5.21.73.2.47.36.99.68,1.37.47.58.79,1.22,1.11,1.87,5.27,10.59,10.53,21.17,15.79,31.76.69-.03,1.39-.05,2.08-.08-3.51-6.96-7.04-13.91-10.6-20.84-3.91-7.61-7.64-15.31-11.6-22.9Z"/>
  <path class="cls-2" d="m318.07,421.41c-.85,0-1.7,0-2.55.02"/>
  <path class="cls-2" d="m297.95,381.84c-2.14-4.05-4.08-8.2-6.13-12.29-.2-.4-.28-.92-.78-1.12.25.97.51,1.93,1.08,2.79.54.81.94,1.72,1.37,2.6.31.64.2.93-.45,1.16-.39.14-.82.2-1.23.29.49.14.73.49.95.93,3.96,7.97,7.9,15.95,11.95,23.88.91,1.78,1.75,3.59,2.7,5.35.81,1.52,1.63,3.07,2.26,4.69.39,1,1.13,1.82,1.55,2.8.75,1.73,1.72,3.33,2.55,5.01.58,1.17,1.16,2.33,1.74,3.5.85-.01,1.7-.02,2.55-.02-1.67-3.33-3.35-6.64-5.09-9.94-5.15-9.8-9.85-19.84-15.03-29.63Z"/>
  <path class="cls-2" d="m311.23,412.93c-.42-.97-1.17-1.79-1.55-2.8-.63-1.63-1.45-3.18-2.26-4.69-.95-1.76-1.79-3.57-2.7-5.35-4.05-7.92-7.99-15.91-11.95-23.88-.22-.44-.46-.8-.95-.93-.07-.02-.15-.01-.22,0l-1.16.62c-.69.58-.13,1.09.12,1.58,1.37,2.66,2.78,5.3,4.14,7.96,2.98,5.82,5.87,11.69,8.92,17.47,1.7,3.22,3.27,6.49,4.95,9.71,1.53,2.94,3.02,5.89,4.51,8.85.82-.02,1.64-.03,2.45-.04-.58-1.17-1.16-2.33-1.74-3.5-.83-1.68-1.8-3.28-2.55-5.01Z"/>
  <path class="cls-2" d="m289.7,374.29c.29.52.69.98.72,1.61l1.16-.62c-.41-.8-.84-1.58-1.21-2.39-.86-1.85-1.7-3.71-3.29-5.08-.31.72-.23,1.47.2,2.13.93,1.39,1.61,2.9,2.41,4.35Z"/>
  <path class="cls-2" d="m318.07,421.41c-.85,0-1.7,0-2.55.02"/>
  <path class="cls-2" d="m297.95,381.84c-2.14-4.05-4.08-8.2-6.13-12.29-.2-.4-.28-.92-.78-1.12.25.97.51,1.93,1.08,2.79.54.81.94,1.72,1.37,2.6.31.64.2.93-.45,1.16-.39.14-.82.2-1.23.29.49.14.73.49.95.93,3.96,7.97,7.9,15.95,11.95,23.88.91,1.78,1.75,3.59,2.7,5.35.81,1.52,1.63,3.07,2.26,4.69.39,1,1.13,1.82,1.55,2.8.75,1.73,1.72,3.33,2.55,5.01.58,1.17,1.16,2.33,1.74,3.5.85-.01,1.7-.02,2.55-.02-1.67-3.33-3.35-6.64-5.09-9.94-5.15-9.8-9.85-19.84-15.03-29.63Z"/>
  <path class="cls-2" d="m311.23,412.93c-.42-.97-1.17-1.79-1.55-2.8-.63-1.63-1.45-3.18-2.26-4.69-.95-1.76-1.79-3.57-2.7-5.35-4.05-7.92-7.99-15.91-11.95-23.88-.22-.44-.46-.8-.95-.93-.07-.02-.15-.01-.22,0l-1.16.62c-.69.58-.13,1.09.12,1.58,1.37,2.66,2.78,5.3,4.14,7.96,2.98,5.82,5.87,11.69,8.92,17.47,1.7,3.22,3.27,6.49,4.95,9.71,1.53,2.94,3.02,5.89,4.51,8.85.82-.02,1.64-.03,2.45-.04-.58-1.17-1.16-2.33-1.74-3.5-.83-1.68-1.8-3.28-2.55-5.01Z"/>
  <path class="cls-2" d="m289.7,374.29c.29.52.69.98.72,1.61l1.16-.62c-.41-.8-.84-1.58-1.21-2.39-.86-1.85-1.7-3.71-3.29-5.08-.31.72-.23,1.47.2,2.13.93,1.39,1.61,2.9,2.41,4.35Z"/>
  <g>
    <path class="cls-2" d="m340.02,523.97c.88-1.05,1.82-1.48,3.2-1.46,8.25.08,16.49.12,24.74.05,1.87-.02,2.4.53,2.14,2.34"/>
    <path class="cls-4" d="m418.72,435.66c-5.08,1.03-10.17,1.13-15.26.38-1.13-.17-2.87.23-3.32-.99-.47-1.27-1.08-2.23-.79-1.08,4.43,17.68,30.43,9.15,45.67-9.2-1.45-.32-2.93-.54-4.37-.68-5.67,5.7-13.18,9.79-21.94,11.57Z"/>
    <path class="cls-4" d="m318.07,523.33c-.24,0-.49,0-.73,0,.11.05.22.1.33.16.13-.06.27-.11.4-.16Z"/>
    <path class="cls-4" d="m243.34,468.27c.98.53,2.16.55,3.28.55.06,0,.13,0,.19,0,39.46-.14,9.22-2.37-6.09-4.17.01.03.03.06.04.09.6,1.36,1.28,2.82,2.58,3.53Z"/>
    <path class="cls-2" d="m381.5,468.82c-38.35-.03-76.7-.01-115.05-.01v-.02c-36.48,0-72.96,0-109.43.02-3.49,0-6.99-.15-10.46.5-4.78.89-7.64,4.37-7.74,9.55-.1,5.16,2.96-42.82,7.55-41.88,4.1.84,8.22.34,12.33.34,69.33.03,138.66.04,208,.02,6.11,0,12.24.41,18.34-.37,4.33-.55,7.78,47.96,8.22,43.63.69-6.83-4.15-11.76-11.75-11.77Z"/>
    <path class="cls-2" d="m402.05,432.11c-.82.86-2.37,1.68-1.91,2.95.45,1.22,2.19.82,3.32.99,5.09.75,10.18.65,15.26-.38,8.76-1.77,16.28-5.87,21.94-11.57-1.43-.14-2.81-.2-4.06-.2-11.44-.71-22.87,1.12-34.31,2.23.97,2.52,1.02,4.67-.24,5.99Z"/>
    <path class="cls-2" d="m386.7,416.56l3.8,4.75s1.9,2.85,1.43,4.28-2.38,4.75-2.38,4.75c0,0-1.43,2.38-2.85,3.8s-1.67,2.81-1.67,2.81c0,0,2.14,5.74,7.37,1.46s8.08-5.23,8.08-7.13,3.15-.84,1.81-5.17c11.44-1.11,22.87-2.94,34.31-2.23,1.25,0,2.63.06,4.06.2"/>
    <path class="cls-2" d="m387.27,444.65c-.74-.06-1.5-.04-2.25-.04-24.47,0-48.94,0-73.41,0,0,.03,0,.07,0,.1-24.47,0-48.94-.03-73.41.06-1.64,0-4.59-1.01-4.6,1.52,0,1.74,2.92,1.02,4.5,1.02,46.94,0,93.88-.06,140.82-.12,2.75,0,5.49-.06,8.24-.14.8-.02,1.5-.37,1.41-1.34-.06-.74-.66-1.02-1.31-1.07Z"/>
    <path class="cls-2" d="m215.91,444.64c-.5,0-1,0-1.5,0-22.08,0-44.15,0-66.23,0-.87,0-1.75.01-2.61.14-.76.11-1.45.5-1.36,1.43.09.82.85.8,1.43.85,1.12.09,2.24.11,3.36.11,10.85,0,21.7,0,32.55,0v-.11c11.47,0,22.95.02,34.42-.04.83,0,2.33.63,2.41-.81.08-1.41-1.31-1.56-2.48-1.58Z"/>
    <path class="cls-2" d="m316.12,525.33c-.04-1.09,1.2-1.08,1.55-1.84,5.06-2.29,10.24-.61,15.45-.06-5.43,2.46-11.45.4-17,1.9Z"/>
  </g>
  <path class="cls-4" d="m230.4,434.68c-1.6-3.03-1.96-3.74-1.96-3.74,0,0-14.79-4.28-13.54,2.32s6.77,14.44,7.13,15.5,1.6,11.41,3.03,14.79,4.28,7.31,8.73,7.66,12.3,2.32,12.65-.71-.89-5.35-3.39-8.2-6.06-6.24-7.84-8.38-1.96-1.43-2.67-6.59-.36-4.63-1.25-8.2-.89-4.46-.89-4.46Z"/>
  <path class="cls-4" d="m291.11,379.13c1.6,3.74,8.91,15.68,9.62,18.71s-1.96,8.02,2.32,9.45,6.95,6.06,9.27,1.43,4.1-.89,1.25-6.77-1.6-5.52-4.81-11.41-2.85-7.84-5.7-10.51,2.32-3.74-4.99-2.85-6.95,1.96-6.95,1.96Z"/>
  <polygon class="cls-4" points="232.84 443.11 230.52 447.21 234.26 449.17 232.84 443.11"/>
  <path class="cls-4" d="m439.07,408.81s-.09.62.32.91,1.07.59,1.43.3.77-1.66.77-1.66l.06-.71s2.14-3.03,2.26-3.27,2.79-3.5,3.92-4.99,3.15-6.59,3.98-7.25,1.07-1.07,1.78-.77,2.5.71,2.97,4.34.59,4.57-.18,7.66-.83,3.03-1.37,8.61-.77,5.23-.59,8.79-.36,2.32,1.66,4.93,6.48,1.19,2.73,4.4-3.45,3.8-7.37,3.5-6.48-1.37-11.23-1.78-7.96,1.07-8.97-2.44-.3-3.27.18-7.37.42-5.7,1.37-7.43,1.84-2.91,2.61-4.4,1.43-1.9,2.02-1.96,1.64.57,1.64.57Z"/>
  <path class="cls-4" d="m469.01,375.2l-.62,63.69-7.32,4.52-9.03-19.25s-4.28-22.81-3.56-26.61.95-17.35,4.75-20.2,15.78-2.15,15.78-2.15Z"/>
  <path class="cls-4" d="m65,404.94l-.62,63.69,3.69,1.66s5.17-3.56,5.79-7.22,1.07-17.47,2.14-24.15,1.07-13.9.98-22.63-2.05-13.63-2.05-13.63l-7.84-1.87-2.09,4.15Z"/>
  <path class="cls-4" d="m468.37,517.16c-12.94.51-25.89.6-38.83.2-121.84-.98-243.69-1.95-365.53-1.04,0,4.72.02,9.43.06,14.15.08,9.44,5.96,15.56,14.77,18,5.91,1.64,12.15,1.68,18.24,1.79,6.88.12,13.77-.01,20.65-.4-8.09-.06-16.18-.12-24.27-.19,29.49,0,58.99.41,88.48.78,28.83.37,57.92-.96,86.76-.99,58.6-.04,117.01,1.21,175.59-.14,2.07-.05,4.15-.15,6.22-.15,9.81-.25,17.12-6.2,17.99-16.39.25-2.97-.11-5.99-.12-8.98,0-2.21,0-4.43,0-6.64Zm-10.14,24.77c-2.53,1.75-5.14,2.96-8.3,2.93-4.37-.04-8.76-.09-13.11.18-2.2.14-2.98-.77-3.75-2.6-2.88-6.85-6.54-13.15-13.71-17.48,1.76,5.98,2.5,11.48.63,16.98-.57,1.68-.84,3.95-3.19,4.1-2.67.17-2.97-2.07-3.52-4.02-1.39-4.97-3.66-9.54-6.65-13.74-.56-.78-1.1-1.89-2.24-1.75-1.28.15-1.15,1.56-1.36,2.39-1.28,4.95-2.15,10.02-4.21,14.72-.34.78-.02,3-1.72,2.1-2.17-1.15-5.69,1.97-6.77-2.49-1.25-5.15-1.73-10.33-1.61-15.59.01-.45-.09-.89-.18-1.73-4.94,2.64-8.4,6.49-9.83,11.17-2.31,7.54-6.93,8.35-14.03,8.26-35.48-.43-70.97-.16-106.46-.17-31.86,0-63.73-.08-95.59-.04-1.64,0-2.32-.31-2.93-1.93-2.08-5.53-4.86-10.69-9.13-14.89-1.41-1.39-2.77-2.9-5.37-3.2,1.73,6.26,2.07,12.11-.05,17.95-.69,1.9-1.43,2.45-3.85,2.6-5.18.31-6.58-2.35-7.35-6.5-.78-4.23-1.76-8.43-2.74-13.05-2.06,1.36-2.88,3.21-3.85,4.83-2.26,3.75-3.95,7.77-5.42,11.9-.49,1.39-.51,4.12-2.01,3.78-2.32-.53-5.3-.67-6.13-4.33-.98-4.33-1.04-8.63-1.19-12.97-.03-.96.37-2.22-.8-2.63-.97-.34-1.41.85-2.02,1.42-4.09,3.85-6.85,8.59-8.71,13.81-1,2.82-2.23,3.99-5.49,3.5-4.05-.62-8.23-.32-12.34-.58-8.56-.56-13.76-5.89-14.16-14.37q-.39-8.32,7.92-8.31c127.72,0,255.44.02,383.16-.05,2.97,0,3.66.79,3.67,3.68.03,6.11.22,12.08-5.6,16.13Z"/>
  <path class="cls-4" d="m232.12,458.98l-19.6,9.27s-42.06,2.85-51.33,3.21-35.29,8.55-37.07,11.76-3.92,17.82-2.14,18.53,27.8,5.7,36.36,5.7h64.87c19.6,0,67.01.71,86.97.71s74.85-1.78,83.05-3.21,20.32-4.28,16.75-10.69-7.13-15.68-24.95-17.11-37.78-4.28-59.17-4.28-68.44-2.5-74.85-2.85-13.26-8.45-13.26-8.45l-5.63-2.6Z"/>
  <path class="cls-4" d="m257.05,443.42l-26.35-1.9s14.61-4.28,18.89-3.92c1.42.12,4.45.83,8.22,1.74-.21-.84-.38-1.67-.38-2.1,0-1.07-2.85-3.56-4.28-6.06-1.43-2.5-9.98-.71-17.11,0-7.13.71-11.05,6.77-9.62,8.91,1.43,2.14,8.91,6.42,12.83,7.84,1.46.53,5.2.82,9.62.98,2.44-.75,4.28-1.34,4.28-1.34l3.89-4.15Z"/>
  <path class="cls-4" d="m230.7,441.51l26.35,1.9,1.45-1.55s-.38-1.28-.69-2.54c-3.77-.92-6.8-1.62-8.22-1.74-4.28-.36-18.89,3.92-18.89,3.92Z"/>
  <path class="cls-4" d="m391.09,442.22c.36-1.43-24.95-8.2-39.56-5.7-14.61,2.5-58.81,8.55-68.79,7.84-5.56-.4-13.89-2.34-20.91-4.05-.92,1.8-1.54,3.34-1.54,3.34l-3.23-.23-3.89,4.15s-1.85.58-4.28,1.34c7.42.28,16.75.22,20.32.45,5.7.36,44.2.71,52.75.36s31.01-1.07,36.71-1.43c5.01-.31,25.45-2.83,32.74-4.16-.26-.91-.38-1.6-.3-1.9Z"/>
  <path class="cls-4" d="m91.82,436.26l-.36,14.26-6.91,17.37-9.98,11.76-8.55,4.28-2-1.04.36-14.26s9.12-21.77,10.55-23.91,12.48-9.98,12.48-9.98l4.41,1.52Z"/>
  <path class="cls-4" d="m469.27,318.93c-.02-9.99,0-19.98-.08-29.97-.09-11.09-8.27-19.37-19.33-19.64-3-.07-6-.16-8.99,0-2.02.11-2.96-.12-2.54-2.56.5-2.83.31-5.74-.6-8.52-1.2-3.66-3.45-6.52-7.33-7.28-3.78-.75-7.13.58-9.73,3.5-.85.95-1.57,2.03-2.4,3.12-2.34-7.33-5.39-10.32-10.76-10.04-8.83.46-10.52,7.31-12.19,14.96-.46-2.4-.73-3.98-1.07-5.54-1.04-4.9-4.66-8.52-9.15-9.19-4.5-.67-9.27,1.67-11.72,5.81-2.22,3.76-3.45,7.85-2.65,12.17.54,2.94-.27,3.53-3.11,3.52-20.61-.08-41.22,0-61.83.03-.58,0-1.26.21-1.82-.84,6.01-7.26,11.13-15.36,16.63-23.9,1.41,6.59,1.81,12.5,2.29,18.54,11.89-19.21,17.51-40.48,20.84-63.16,4.92,6.46,8.16,13.13,11.39,21,.43-2.24.67-3.32.83-4.41,2.03-13.67.63-27.12-2.69-40.42-1.83-7.32-3.97-14.56-7.69-21.21.16-.12.31-.21.46-.29.08-.05.16-.1.24-.15,0,.01,0,.03,0,.05,1.29-.45,2.33.66,3.36,1.15,5.59,2.64,10.83,5.9,16.15,9.23-7.18-21.33-21.82-36.69-39.86-49.61,6.78-3.29,13.82-4.43,21.28-6-1.02-.65-1.5-1.02-2.03-1.29-10.09-5.21-20.88-8.18-32.1-9.31-2.92-.3-6.11-2.03-9.06.06-2.83,2.01-5.57,4.13-8.35,6.2,0,.02,0,.03.01.05-.02-.02-.03-.03-.05-.05-.72-.02-1.43-.05-2.15-.07-.02,0-.03,0-.05.01,0,.51,0,1.02,0,1.53.24.25.47.5.71.75,2.82.45,5.64.9,9.39,1.49-7.1,2.09-13.37,3.93-19.65,5.77,3.6-2.95,7.66-5.09,9.56-9.55.02,0,.03,0,.05,0,.71.08,1.46-.75,2.15.07.01,0,.02,0,.04,0-.64-2.08,1.4-2.31,2.38-3.02,18.43-13.39,34.34-29.05,43.87-50.12,6.01-13.29,8.25-27.16,3.64-41.48-1.16-3.59-2.78-6.99-5.56-10.19-5.69,33.97-29.38,55.95-46.65,65.11,5.5-9.98,10.08-19.84,11.06-31.03.99-11.29-.57-21.81-7.75-31.71-.39,1.06-.58,1.36-.61,1.68-2.98,24.14-14.65,43.08-34.22,57.31-9.84,7.16-21.17,10.97-32.67,14.37-9.35,2.77-16.3,8.42-20.71,17.11-.68,1.34-1.41,2.08-2.9,2.51-7.95,2.31-15.47,5.65-22.23,10.44-13.01,9.21-22.65,20.44-21.37,37.75.15,1.99-1.01,2.28-2.32,2.64-5.63,1.58-11.27,3.14-16.92,4.67-7.68,2.08-15.64,3.39-22.48,7.86-6.41,4.19-8.41,10.6-5.27,17.56,4.25,9.41,12.5,13.62,22.42,16.92-1.81-3.75-3.22-6.86-2.37-10.85,4.42,5.53,8.9,10.47,15.46,12.81.15-.16.31-.31.49-.44-2.03-3.94-2.39-8.11-1.98-12.8,4.01,3.77,7.96,6.71,13.26,8.34-.8-1.95-1.55-3.28-1.87-4.7-.4-1.74-.32-3.56,1.46-4.66,1.71-1.06,3.04-.12,4.34.97,1.5,1.26,3.07,2.44,5.15,4.08-.46-2.5-.73-4.31-1.14-6.09-.4-1.78.23-2.75,1.92-3.43,10.53-4.24,20.58-9.5,30.81-14.4,2.58-1.23,5.9-3.18,8.01-.98,2.12,2.21-.63,5.05-1.9,7.34-5.93,10.68-12.02,21.27-17.97,31.94-3.77,6.76-2.1,5.28-9.41,4-.16.21-.33.42-.49.63.19,1.77,2.41,2.53,2.46,4.03.06,1.91-2.02,2.56-3.45,3.44-1.12.69-2.28.8-3.57.24-2.32-1-4.7-1.87-7.17-2.84.35,2.88,3.12,3.95,4.08,6.31-2.24,1.6-4.71.84-7.49.64,4.78,9.73,11.82,15.8,22.8,18.22-2.17-2.88-4.81-4.59-5.44-8.17,7.94,2.59,15.63,2.43,23.96,1.38-3.16-3.41-7.07-5.17-9.11-9.13,4.96.21,9.27-1.33,14.31-2.02-2.19-1.97-3.81-3.5-5.51-4.94-1.77-1.5-2.33-2.57.24-4.04,3.08-1.76,5.99-3.82,9.41-5.22-.93-1.21-2.12-1.54-3.29-1.87-2.73-.77-3.09-2.16-1.7-4.63,2.05-3.66,4.64-6.79,7.86-9.43,12.39-10.17,26.66-16.99,41.37-22.99,6.34-2.59,7.56-1.82,8.8,5.02.04.25.05.5.09.74,2.17,11.7-1.95,21.61-8.85,30.65-6.31,8.27-14.02,15.23-21.52,22.38-15.53,14.81-32.17,28.49-46.08,44.96-.88,1.05-1.82,1.48-3.2,1.46-8.25-.08-16.49-.12-24.74-.05-1.87.02-2.4-.53-2.14-2.34.43-2.97.64-5.95.05-8.94-1.13-5.68-5.05-9.81-9.9-10.31-5.13-.53-8.83,1.71-10.86,6.68-.56,1.37-.88,2.85-1.44,4.7-1.72-6.79-5.21-11.61-12.41-11.78-6.61-.15-9.14,4.79-10.91,10.55-.87-1.28-1.38-2.27-2.11-3.06-2.98-3.28-6.56-4.93-11.05-3.65-4.51,1.29-6.67,4.63-7.32,9-.31,2.08-.26,4.25-.06,6.35.2,2.1-.36,2.88-2.57,2.83-3.99-.1-8-.06-11.99.17-9.94.55-17.13,7.4-17.96,17.21-.25,2.97.11,5.99.12,8.98.05,36.44.08,72.87.12,109.31h2.8c1,1,1,3,2,4,1.32,1.32,2.83,2.24,4.45,3.13l-5.72,26.24s.45,29.94.45,30.21,5.52-4.1,5.61-4.37c.09-.27,12.3-16.66,12.3-16.66l4.95-9.8s-.13-2.5-.13-3.12.36-.62.98-.98.8,0,1.6.62c.21.16.33.38.39.61-.04.04-.06.07-.06.07l-.36,14.26c-.09.04-.18.08-.27.12.11,17.69.23,35.38.09,53.07-.11,13.64,1.15,11.03,11.21,11.04,96.32.04,192.64.05,288.97.07,12.74,0,25.49-.03,38.23-.06,4.44-.01,5.46-1.04,5.49-5.54.09-18.36.14-36.73.26-55.09,0-1.5-.65-3.38,1.96-4.32.11,1.92.28,3.74.3,5.55.12,17.86.25,35.73.3,53.59.02,6.65-1.86,8.4-8.45,8.4-110.57,0-221.13,0-331.7,0-7.63,0-9.27-1.54-9.27-9.15.02-18.77.08-37.54.12-56.32-8.02,4.61-11.81,13.52-17.22,21.63-2.65,4.86-6.09,8.35-10.22,10.74,0,8.84-.01,17.68-.04,26.52-.01,4.9-.04,9.8-.07,14.7,1.21.1,2.42.19,3.63.29l.25,13.35,8.55,7.84,24.59,2.14h341.82l18.53-4.63,4.99-12.83-1.07-9.98-.1-.02c.99,0,1.99,0,2.98,0-.02-22.37-.05-44.74-.07-67.11l.36-14.26s-9.58-11.99-12.31-13.18-4.75-4.16-10.1-7.01c-5.35-2.85-9.62-.71-18.53-2.14-2.5-.4-5.22-.77-7.91-1.09,6.67-1.76,13.22-4.02,19.26-6.53.09-.04.18-.08.27-.12-.11-17.69-.23-35.38-.09-53.07.11-13.64-1.15-11.03-11.21-11.04-96.32-.04-192.64-.05-288.97-.07-12.74,0-25.49.03-38.23.06-4.44.01-5.46,1.04-5.49,5.54-.09,18.36-.14,36.73-.26,55.09,0,1.5.65,3.38-1.96,4.32-.11-1.92-.28-3.74-.3-5.55-.12-17.86-.25-35.73-.3-53.59-.02-6.65,1.86-8.4,8.45-8.4,110.57,0,221.13,0,331.7,0,7.63,0,9.27,1.54,9.27,9.15-.02,18.77-.08,37.54-.12,56.32,8.02-4.61,11.81-13.52,17.22-21.63,2.65-4.86,6.09-8.35,10.22-10.74,0-8.84.01-17.68.04-26.52.03-9.7.11-19.4.17-29.1-.12-.23-.11-.45.05-.65ZM124.24,168.96c.53-5.42,3.43-8.49,7.83-10.41,9.05-3.94,18.73-6.04,27.87-9.72.76-.31,1.63-.35,2.56-.24-11.91,8.02-26.89,10.2-38.26,20.37Zm167.98-13.17c2.35-.72,2.5.43,2.31,1.39-.26,1.78,0,2.84-.73,3.67-4.34,4.88-9.69,8.11-16.04,9.62-.55.13-1.61.03-1.73-.26-1.34-3.2-2.65-6.42-3.73-9.72-.32-.97.94-.88,1.6-.98,6.17-.94,12.34-1.89,18.31-3.73Zm-16.4,20.23c-.05-1.51.68-1.09,1.74-1.27,5.97-1.03,11.68-2.8,15.9-7.58,0,0,0-.02,0-.03h.02s.05-.04.07-.07l.02.12-.1-.04s-.01.01-.02.02c1.36,11.75-5.7,19.94-17.52,20.43-1.47.06-1.8-.4-1.48-1.65.84-3.26,1.48-6.55,1.36-9.93Zm57.53-148.93c.34-.66.67-1.33,1.03-1.98.12-.21.32-.37.39-.44,1.25,2.37-.27,4.37-1.1,6.41-6.14,14.98-17.11,25.85-30.06,34.97-12.86,9.05-27.42,14.64-41.94,20.25-4.3,1.66-8.1,4.23-13.11,6.63,3.65-5.84,8.31-8.87,13.67-10.9,9.09-3.45,17.99-7.32,26.75-11.54,19.72-9.48,34.36-24.05,44.38-43.4Zm-99.14,50.98c8.86-3.68,17.81-7.14,26-12.27,12.87-8.05,22.03-19.36,29.07-32.58.8-1.49,1.63-2.97,2.65-4.83,2.03,18.8-38.54,52.18-65.71,54.32,2.49-2.34,5.24-3.51,7.98-4.65Zm-34.88,66.57c-2.1,5.91-8.08,8.42-13.9,6.06-2.75-1.12-3.41-3.13-2.39-5.71,1.18-3,3.25-5.28,6.25-6.56,1.59-.67,3.26-1.17,4.94-1.61,2.36-.63,4.75-1.13,7.77-1.83-1.01,3.7-1.64,6.74-2.67,9.65Zm-13.43-27.46c-4.45,3.5-7.97,7.87-11.56,12.18-.64.77-.79,2.24-2.42,2.04,2.58-10.75,9.2-18.52,18.08-24.48,14.24-9.55,30.14-13.86,47.21-14.44-1.78,5.37-5.94,5.9-10.39,6.69-15.07,2.65-28.82,8.49-40.92,18.01Zm83.64-19.79c-7.24,8.67-16.74,13.5-27.83,15.4-4.14.71-8.19,2.13-12.8,1.19,1.5-1.97,4.04-1.37,5.54-2.74,7.03-4.9,15.15-7.75,22.51-12.04,5.91-3.45,11.49-7.23,15.43-13.17.95,1.38.64,2.78.31,4.18,1.12,3.32-1.57,5.28-3.16,7.18Zm2.99,95.26c.26-.49,1.59-.44,2.44-.56,4.81-.73,9.48-1.88,13.78-4.25.8-.12,1.93-1.31,2.08.67.27,3.49-.46,6.89-.93,10.31-.15,1.1-1.14,1.64-2.09,1.92-2.46.74-4.73,2.21-7.45,2-5.19,2.58-10.79,3.54-17.32,4.27,3.77-4.82,6.83-9.46,9.49-14.36Zm-14.07,19.28c.73-.73,1.83-.63,2.84-.63,4.51.01,8.89-.78,13.13-2.3.94-.23,1.91-.38,2.83-.7,1.68-.57,2.3.09,2.3,1.73,0,3.97-.38,7.93-4.72,9.51-3.42,1.25-6.55,3.56-10.46,3.31-6.29,2.99-13.03,3.35-20.35,3.66,5.09-5.16,9.74-9.9,14.44-14.58Zm-19.61,19c.52-.48,1.1-.52,1.73-.44,5.5.65,10.92-.21,16.37-.74,1.51.06,2.99-2.02,4.06-1,1.2,1.14-.42,2.96-.47,4.52-.15,4.36-2.94,6.25-6.76,7.1-2.63.59-5.03,2.6-7.96,1.31-6.74,3.03-13.88,3.01-22,2.98,5.44-4.96,10.25-9.34,15.04-13.73Zm-20.06,18.45c1.41-1.24,2.73-.94,4.15-.73,5.5.84,10.91.09,16.33-.72,2.67-.59,5.35-1.18,8.02-1.77.11-.1.22-.2.33-.3-.1.11-.2.23-.29.34.32,2.71-1.51,4.97-1.58,7.61-.02.88-.67,1.24-1.44,1.47-5.47,1.63-10.92,3.29-16.39,4.91-.62.18-.83-.35-.92-.87-6.61,2.87-13.45,3.82-21.25,2.82,4.63-4.72,8.66-8.91,13.04-12.77Zm-1.5,17.07c3.68-1.01,7.36-2.06,11.06-3.03,1.3-.34,3.09-1.7,3.76.37.62,1.89-.11,4.99-1.73,5.15-4.84.47-9.89,1.85-14.64-.65-5.06,2.29-10.24.61-15.45.06,5.43-2.46,11.45-.4,17-1.9Zm169.47,235.7c-3.62,1.49-7.64,1.51-11.55,1.51-73.77-.01-147.53-.03-221.3-.04-4.03,0-8.35-.09-11.63-2.43-5.19-3.71-4.89-12.83.53-16.19,3.06-1.9,6.88-1.96,10.49-1.96,27.14,0,54.29-.1,81.43.02,4.46.02,8.35.02,11.73.01-.06,0-.13,0-.19,0-1.12,0-2.29-.01-3.28-.55-1.31-.71-1.99-2.17-2.58-3.53-.01-.03-.03-.06-.04-.09-4.22-.5-7.31-.96-7.49-1.34-2.81-5.96-5.73-12.58-8.69-19.02l2.24-7.06s.6.07,1.52.17c3.79,8.02,7.49,16.09,11.08,24.2.45,1.01.89,2.03,1.34,3.04,15.31,1.8,45.55,4.02,6.09,4.17,42.89-.02,85.78-.03,128.67-.05,3.94,0,8.01.02,11.65,1.53,3.64,1.51,6.79,4.92,6.77,8.86-.03,3.91-3.17,7.25-6.78,8.74Zm-241.54-43.12c.86-.13,1.74-.14,2.61-.14,22.08,0,44.15,0,66.23,0,.5,0,1,0,1.5,0,1.17.02,2.56.17,2.48,1.58-.08,1.44-1.58.8-2.41.81-11.47.05-22.95.04-34.42.04v.11c-10.85,0-21.7,0-32.55,0-1.12,0-2.25-.02-3.36-.11-.58-.04-1.35-.02-1.43-.85-.1-.93.59-1.32,1.36-1.43Zm106.35-19.03c-6.44.27-12.88.64-19.32,1.14-1.48.13-2.96.25-4.43.34-.64-.52-1.12-1-1.39-1.41-1.43-2.14,2.5-8.2,9.62-8.91,2.2-.22,4.53-.54,6.75-.81-1.57.63-2.47,1.16-2.47,1.16l11.24,8.48Zm59.69,18.86c24.47,0,48.94,0,73.41,0,.75,0,1.5-.02,2.24.04.65.05,1.25.33,1.31,1.07.08.97-.61,1.32-1.41,1.34-2.74.08-5.49.13-8.24.14-46.94.06-93.88.12-140.82.12-1.58,0-4.51.72-4.5-1.02,0-2.54,2.95-1.52,4.6-1.52,24.47-.08,48.94-.06,73.41-.06,0-.03,0-.07,0-.1Zm16.5-18.82c9.74-1.32,18.6-2.64,23.77-3.52,12.18-2.08,31.78,2.28,37.76,4.61-.35,0-.7.02-1.05.02-20.16,0-40.32-.6-60.48-1.1Zm66.03-12.88c-13,9-29,4-44,4-42-1-85-4-127-2-29,0-58,7-88,5,1-6,7-7,10-7,83.81-5.99,166.62-4.01,249.43-3.01-.76-1.91-2.89-3.99-6.43-3.99,3.53,0,5.67,2.08,6.43,3.99.19,0,.38,0,.57,0-.19,0-.38,0-.57,0,.53,1.34.4,2.6-.43,3.01Zm-8.58-27.98c-22.08,0-44.15,0-66.23,0-.5,0-1,0-1.5,0-1.17-.02-2.56-.17-2.48-1.58.08-1.44,1.58-.8,2.41-.81,11.47-.05,22.95-.04,34.42-.04v-.11c10.85,0,21.7,0,32.55,0,1.12,0,2.25.02,3.36.11.58.04,1.35.02,1.43.85.1.93-.59,1.32-1.36,1.43-.86.13-1.74.14-2.61.14Zm-163.44.03c-24.47,0-48.94,0-73.41,0-.75,0-1.5.02-2.25-.04-.65-.05-1.25-.33-1.31-1.07-.08-.97.61-1.32,1.41-1.34,2.74-.08,5.49-.13,8.24-.14,46.94-.06,93.88-.12,140.82-.12,1.58,0-4.41-.76-4.41.98,0,2.54,5.96,1.56,4.32,1.57-24.47.08-48.94.06-73.41.06,0,.03,0,.07,0,.1Zm79.01,17.72c3.02-.27,6.03-.46,9.04-.58-5.46-11.29-10.75-22.66-15.82-34.13-.45-1.01-.89-2.03-1.34-3.04-15.31-1.8-45.55-4.02-6.09-4.17-42.89.02-85.78.03-128.67.05-3.94,0-8.01-.02-11.65-1.53s-6.79-4.92-6.77-8.86c.03-3.91,3.17-7.25,6.78-8.74,3.62-1.49,7.64-1.51,11.55-1.51,73.77.01,147.53.03,221.3.04,4.03,0,8.35.09,11.63,2.43,5.19,3.71,4.89,12.83-.53,16.19-3.06,1.9-6.88,1.96-10.49,1.96-27.14,0-54.29.1-81.43-.02-4.46-.02-8.35-.02-11.73-.01.06,0,.13,0,.19,0,1.12,0,2.29.01,3.28.55,1.31.71,1.99,2.17,2.58,3.53.01.03.03.06.04.09,4.22.5,7.31.96,7.49,1.34,3.6,7.65,7.38,16.37,11.2,24.4,1.79,3.77,3.59,7.52,5.39,11.27,14.64-.12,29.28,1.12,43.93,2.07-15.43,1.19-46.58,2.22-66.9,2.22-23.88,0-34.22.71-58.1-.36-23.88-1.07-37.78-.71-51.68-1.07-13.9-.36-42.06.71-51.33,1.07-5.88.23-14.76.88-20.75,1.51-.51-.54-1.38-1.19-2.36-1.8,11.74-.75,23.49-2.9,35.23-2.9,52,0,104,4,156,0Zm-166.75-7.09c.29,1.15-.32.19-.79-1.08-.45-1.22-2.19-.82-3.32-.99-5.09-.75-10.18-.65-15.26.38-6.76,1.37-12.78,4.14-17.78,7.95-1.81-.29-3.63-.58-5.13-.81,15.43-15.68,38.15-21.88,42.27-5.45Zm-32.13-85.79c-3.81.1-7.63-3.87-7.48-7.76.15-3.9,3.59-7.16,7.61-7.21,4.15-.05,7.34,3.09,7.33,7.21-.02,4.18-3.34,7.65-7.45,7.75Zm28.21.05c-3.77.01-7.14-3.47-7.26-7.48-.12-4.03,3.1-7.38,7.15-7.44,4.33-.07,7.75,3.13,7.76,7.27,0,3.89-3.75,7.65-7.65,7.66Zm28.12-.15c-4.08.11-7.68-3.52-7.56-7.62.12-4.16,3.31-7.29,7.4-7.28,3.88.01,7.47,3.55,7.46,7.34-.02,3.94-3.41,7.45-7.3,7.56Zm284.44-2.36c-1.3,3.47-3.93,4.97-7.56,4.98-14.99,0-29.98.03-44.97.05-1.75,0-3.5,0-5.25,0v-.08c-16.61,0-33.23.05-49.84-.03-4.94-.02-7.63-2.54-8.38-7.27-.82-5.16,2-8.85,7.19-9.22,2.36-.17,4.74-.06,7.12-.06,30.86-.02,61.72-.04,92.57-.08,2.41,0,4.74.11,6.69,1.79,2.74,2.36,3.77,6.34,2.43,9.91Zm13.57-24.36c-127.72,0-255.44-.02-383.16.05-2.97,0-3.66-.79-3.67-3.68-.03-6.11-.22-12.08,5.6-16.13,2.53-1.75,5.14-2.96,8.3-2.93,4.37.04,8.76.09,13.11-.18,2.2-.14,2.98.77,3.75,2.6,2.88,6.85,6.54,13.15,13.71,17.48-1.76-5.98-2.5-11.48-.63-16.98.57-1.68.84-3.95,3.19-4.1,2.67-.17,2.97,2.07,3.52,4.02,1.39,4.97,3.66,9.54,6.65,13.74.56.78,1.1,1.89,2.24,1.75,1.28-.15,1.15-1.56,1.36-2.39,1.28-4.95,2.15-10.02,4.21-14.72.34-.78.02-3,1.72-2.1,2.17,1.15,5.69-1.97,6.77,2.49,1.25,5.15,1.73,10.33,1.61,15.59-.01.45.09.89.18,1.73,4.94-2.64,8.4-6.49,9.83-11.17,2.31-7.54,6.93-8.35,14.03-8.26,35.48.43,70.97.16,106.46.17,31.86,0,63.73.08,95.59.04,1.64,0,2.32.31,2.93,1.93,2.08,5.53,4.86,10.69,9.13,14.89,1.41,1.39,2.77,2.9,5.37,3.2-1.73-6.26-2.07-12.11.05-17.95.69-1.9,1.43-2.45,3.85-2.6,5.18-.31,6.58,2.35,7.35,6.5.78,4.23,1.76,8.43,2.74,13.05,2.06-1.36,2.88-3.21,3.85-4.83,2.26-3.75,3.95-7.77,5.42-11.9.49-1.39.51-4.12,2.01-3.78,2.32.53,5.3.67,6.13,4.33.98,4.33,1.04,8.63,1.19,12.97.03.96-.37,2.22.8,2.63.97.34,1.41-.85,2.02-1.42,4.09-3.85,6.85-8.59,8.71-13.81,1-2.82,2.23-3.99,5.49-3.5,4.05.62,8.23.32,12.34.58,8.56.56,13.76,5.89,14.16,14.37q.39,8.32-7.92,8.31Z"/>
  <path class="cls-4" d="m431.43,422.03c4.69-6.42,4.69-15.92,4.69-15.92l-15.68-3.33s-8.55,7.13-7.6,9.5,18.59,9.74,18.59,9.74Z"/>
  <path class="cls-4" d="m76.84,414.66l14.26,9.98s9.5-.48,11.41-3.33,2.85-6.65,8.08-7.6,19.49-.95,23.29-2.38,8.55-1.9,5.7-7.13-8.08-7.6-11.88-9.5-8.55-2.38-13.31-2.38-9.5,2.38-11.41,4.28-4.75,10.46-4.75,10.46c0,0-.95,2.85-2.85,3.8s-6.18,1.43-8.08.95-.95,0-3.8-.95-2.85-4.28-5.23-.95-1.43,4.75-1.43,4.75Z"/>
  <path class="cls-4" d="m110.1,425.59s21.39-.95,24.24-1.43,20.44-.48,23.76-.48,50.38-2.38,50.38-2.38l27.09.48,32.32.48h55.13l38.5-1.43s15.68-7.13,1.43-9.98-28.51-5.7-39.92-5.7-10.93-.48-38.02,0-36.12,2.85-64.63,2.38-51.33-.48-64.16-.48-29.47-1.43-36.59.48-16.16,2.38-16.63,6.18,7.13,11.88,7.13,11.88Z"/>
  <path class="cls-4" d="m152.4,422.98l-5.7,3.8s-1.9,2.38-1.9,4.28,0,4.28,1.9,5.7,11.41,2.38,7.13,4.28-3.8,4.75-10.93,3.33-8.55.95-10.46-4.75-.95-9.98,1.9-12.83,13.78-9.7,16.16-9.13,1.9,5.33,1.9,5.33Z"/>
  <path class="cls-2" d="m398.58,417.51c-4.75-3.8-6.18-5.7-9.03-5.23s.95,9.03.95,9.03l1.43,9.03s-2.38,3.8-3.33,5.23-3.8,3.33-1.9,4.28,7.6,5.7,9.5,2.85,6.65-8.55,6.18-12.36-3.8-12.83-3.8-12.83Z"/>
  <path class="cls-3" d="m381.35,417.57l3.89,7.6-2.78,8.08,1.81,8.55s12.1-2.85,12.66-6.18-3.89-18.53-3.89-18.53l-11.68.48Z"/>
  <path class="cls-1" d="m263.45,451.41c-35.53,0-71.05,0-106.58,0-7.04,0-11.52-2.78-10.88-6.62.4-2.44,3.6-4.42,7.61-4.73,5.65-.44,11.33-.2,16.99-.21,64.23-.01,128.45,0,192.68,0,3.81,0,7.63-.28,11.42.19,4.25.53,7.09,2.82,6.99,5.72-.09,2.91-2.74,4.87-7.17,5.37-3.22.36-6.46.28-9.69.28-33.79.01-67.58,0-101.38,0h0Z"/>
  <path class="cls-1" d="m310.3,478.93c-21.59,0-43.18,0-64.77,0-4.28,0-7-2.78-6.61-6.62.24-2.44,2.19-4.42,4.63-4.73,3.43-.44,6.88-.2,10.33-.21,39.03-.01,78.06,0,117.09,0,2.31,0,4.64-.28,6.94.19,2.59.53,4.31,2.82,4.25,5.72-.06,2.91-1.66,4.87-4.36,5.37-1.95.36-3.93.28-5.89.28-20.53.01-41.07,0-61.6,0h0Z"/>
  <path class="cls-1" d="m188.23,478.76c-12.63,0-25.25,0-37.88,0-2.5,0-4.09-2.78-3.87-6.62.14-2.44,1.28-4.42,2.71-4.73,2.01-.44,4.03-.2,6.04-.21,22.83-.01,45.65,0,68.48,0,1.35,0,2.71-.28,4.06.19,1.51.53,2.52,2.82,2.49,5.72-.03,2.91-.97,4.87-2.55,5.37-1.14.36-2.3.28-3.44.28-12.01.01-24.02,0-36.03,0h0Z"/>
  <path class="cls-4" d="m151.45,389.95l-14.73,6.65,15.68,6.65s60.36-.95,62.73-.95,100.28-.48,100.28-.48l86.97,1.9s11.41-13.31-3.8-13.78-127.84-4.75-164.91-3.8-82.22,3.8-82.22,3.8Z"/>
  <polygon class="cls-4" points="144.86 422.8 132.03 430.4 137.73 435.15 238.01 432.3 334.48 432.78 396.4 434.17 384.86 420.9 235.15 421.85 144.86 422.8"/>
  <polygon class="cls-4" points="144.8 452.68 137.19 458.86 139.57 462.66 225.05 463.55 217.51 454.1 144.8 452.68"/>
  <polygon class="cls-4" points="235.21 453.93 236.04 462.18 247.93 463.61 400.01 463.13 397.15 453.63 256.01 453.63 235.21 453.93"/>
  <path class="cls-1" d="m340.22,423.27c-12.63,0-25.25,0-37.88,0-2.5,0-4.09-2.78-3.87-6.62.14-2.44,1.28-4.42,2.71-4.73,2.01-.44,4.03-.2,6.04-.21,22.83-.01,45.65,0,68.48,0,1.35,0,2.71-.28,4.06.19,1.51.53,2.52,2.82,2.49,5.72-.03,2.91-.97,4.87-2.55,5.37-1.14.36-2.3.28-3.44.28-12.01.01-24.02,0-36.03,0h0Z"/>
  <path class="cls-1" d="m218.76,423.53c-21.59,0-43.18,0-64.77,0-4.28,0-7-2.78-6.61-6.62.24-2.44,2.19-4.42,4.63-4.73,3.43-.44,6.88-.2,10.33-.21,39.03-.01,78.06,0,117.09,0,2.31,0,4.64-.28,6.94.19,2.59.53,4.31,2.82,4.25,5.72-.06,2.91-1.66,4.87-4.36,5.37-1.95.36-3.93.28-5.89.28-20.53.01-41.07,0-61.6,0h0Z"/>
</svg>