<?xml version="1.0" encoding="utf-8"?>
<!-- Generator: Adobe Illustrator 27.8.1, SVG Export Plug-In . SVG Version: 6.00 Build 0)  -->
<svg version="1.1" id="Layer_1" xmlns="http://www.w3.org/2000/svg" xmlns:xlink="http://www.w3.org/1999/xlink" x="0px" y="0px"
	 viewBox="0 0 154 49" style="enable-background:new 0 0 154 49;" xml:space="preserve">
<style type="text/css">
	.st0{fill:#0366D6;}
	.st1{fill:none;stroke:#FFFFFF;stroke-width:2;stroke-linecap:round;stroke-linejoin:round;}
	.st2{fill:none;stroke:#D1D5DA;stroke-opacity:0.3;}
	.st3{fill:#FFFFFF;}
	.st4{font-family:'Inter';}
	.st5{font-size:15px;}
</style>
<path class="st0" d="M4,0h146c2.2,0,4,1.8,4,4v41c0,2.2-1.8,4-4,4H4c-2.2,0-4-1.8-4-4V4C0,1.8,1.8,0,4,0z"/>
<path class="st1" d="M33.3,21.6L29,25c-0.8,0.6-1.9,0.6-2.7,0L22,21.6"/>
<path class="st1" d="M22.9,16h9.4c1.4,0,2.7,0.6,3.6,1.6c0.9,1,1.4,2.3,1.3,3.7v6.5c0.1,1.4-0.4,2.7-1.3,3.7c-0.9,1-2.2,1.6-3.6,1.6
	h-9.4c-2.9,0-4.9-2.4-4.9-5.3v-6.5C18,18.4,20,16,22.9,16z"/>
<path class="st2" d="M4,0.5h146c1.9,0,3.5,1.6,3.5,3.5v41c0,1.9-1.6,3.5-3.5,3.5H4c-1.9,0-3.5-1.6-3.5-3.5V4C0.5,2.1,2.1,0.5,4,0.5z
	"/>
<text transform="matrix(1 0 0 1 48.971 30.6211)" class="st3 st4 st5">Contact Us !</text>
</svg>
