<?xml version="1.0" encoding="utf-8"?>
<!-- Generator: Adobe Illustrator 27.8.1, SVG Export Plug-In . SVG Version: 6.00 Build 0)  -->
<svg version="1.1" id="Layer_1" xmlns="http://www.w3.org/2000/svg" xmlns:xlink="http://www.w3.org/1999/xlink" x="0px" y="0px"
	 viewBox="0 0 607 341.9" style="enable-background:new 0 0 607 341.9;" xml:space="preserve">
<style type="text/css">
	.st0{fill:#689AA9;}
	.st1{fill:#FAFBFB;}
	.st2{fill:#032025;}
</style>
<rect x="-7.6" y="-5.3" class="st0" width="621.1" height="349.3"/>
<g>
	<path class="st0" d="M40.6,162.6c0-85.1,0-170.1,0-255.2c0-1.9,0.4-2.3,2.4-2.3c175.1,0.1,350.2,0.1,525.2,0c1.9,0,2.4,0.4,2.4,2.3
		c-0.1,170.1-0.1,340.3,0,510.4c0,1.9-0.4,2.3-2.4,2.3c-175.1-0.1-350.2-0.1-525.2,0c-1.9,0-2.4-0.4-2.4-2.3
		C40.6,332.7,40.6,247.6,40.6,162.6z M222.2,91.8c2.1,0.2,8.3,8.3,9.3,12.3c-0.3-2.4,1.8,3.4-0.5,3.4c-19.9,0.1-39.8,0.1-59.8,0.1
		c-11.1,0-22.2,0.1-33.4,0c-1.9,0-2.5,0.5-2.4,2.4c0.1,2.3-0.1,4.7-0.1,7c0,29.1,0,58.2,0,87.2c0,3,0,2.9-3,2.3
		c-8.9-1.6-16.8,0.2-23.4,6.4c-5.8,5.4-8.4,11.9-7.8,19.7c0.1,1.8,0.2,2.9-2.5,2.4c-4-0.7-8,1.7-9.4,4.8c-1.4,3.1-0.7,4.1,2.7,4.1
		c13.5,0,27.1,0.1,40.6-0.1c2.6,0,3.2,0.8,3,3.1c-0.5,11.6-0.3,23.1-0.2,34.7c0.1,10,7,20.6,18.9,23c2.6,0.5,5.1,0.6,7.7,0.6
		c96.2,0,192.5,0,288.7,0c2.3,0,4.7,0,6.9-0.6c11.5-2.8,18.2-11.3,18.7-21.6c0.1-1.7-0.5-2.3-2.3-2.3c-5.4,0.1-10.9,0-16.3,0
		c-2.1,0-4.1,0-6.2,0c-1.2,0-2.1-0.6-2.2-1.7c-0.1-1.2,0.8-1.8,1.9-2.1c0.6-0.2,1.4-0.1,2.1-0.1c6.9,0,13.8,0,20.7,0.1
		c1.8,0,2.5-0.5,2.4-2.3c-0.2-1.7-0.2-3.5-0.2-5.3c0-3.2,0.3-3.4,3.5-3.4c14.8,0,29.7,0,44.5,0c1.3,0,2.7,0.1,3.2-1.4
		c0.5-1.4-0.1-2.6-1.1-3.7c-1.8-1.8-4.1-2.1-6.4-2c-1.9,0.1-2.1-0.4-1.9-2.2c2-13.4-10.5-22.2-20.5-20.4c-8.2,1.4-14.6,8-15.3,16.6
		c-0.1,0.6,0.3,1.8-0.4,1.8c-1.5,0-3.1-0.4-4.5-0.9c-0.8-0.3-0.5-1.3-0.5-2.1c-0.5-8-0.2-15.9-0.2-23.9c0-2.5-0.6-3.3-3.3-3.3
		c-12.2,0.1-24.5,0.1-36.7,0c-3,0-4.6-1.3-4.5-3.6c0-2.3,1.7-3.6,4.6-3.6c4.7,0,9.5,0,14.2,0.1c1.4,0,2.1-0.3,2.5-1.8
		c2.1-6.5,5.5-12,13.4-12.7c1.4-0.1,1.8-0.7,1.9-2.1c0.7-8.3,7.4-13,14.5-14.1c7.3-1.1,14.8,4.1,17.1,11c0.8,2.5,3,3.8,5.5,2.8
		c2.1-0.8,1-2.8,0.7-4.1c-2.4-12.8-15-19.9-27.7-15.7c-1.9,0.6-2.1,0.1-2.1-1.5c0-7-0.2-14.1-0.3-21.1c-0.1-16.1,0.3-32.2-0.2-48.3
		c-0.1-1.8-0.6-2.3-2.4-2.3c-2.1,0.1-4.3-0.2-6.5-0.2c-29.4,0-58.8-0.1-88.2-0.1c-1.1,0-2.2,0.2-3.3-0.3c0.3-3,1.5-5.6,3.8-7.7
		c12.6,0,25.1-0.1,37.7-0.1c18.9,0,37.7,0,56.6,0c2.1,0,2.9-0.6,2.8-2.7c-0.2-4,0-8-0.3-12c-0.9-10-9.9-19-20.2-19.1
		c-17.3-0.3-34.6-0.1-52-0.1c-0.6-0.2-0.8-0.6-0.8-1.1c0.2-2.8,0.2-5.7,0.6-8.5c2-12.9,7.9-24.1,16.4-34.2c2.7-3.2,5.8-6.1,8.2-9.6
		c0.1,0,0.3,0,0.4,0c0-0.1-0.1-0.2-0.1-0.2c-0.1,0.1-0.2,0.2-0.3,0.3c-2.2,0.1-4.1,1.2-6.1,1.7c-2.5,0.6-4.7,2.2-7.4,2.3
		c0,0,0,0.2,0,0.2c-2.5,1.1-4.9,2.3-7.4,3.4c-0.2,0.1-0.5,0-0.8,0.1c-1.5-1.3-2.8,0-4,0.4C388.4,25.5,375,33,362.4,42
		c-8.8,6.3-16.6,13.5-24.5,20.8c-1.4,1.3-2.8,2.5-5.1,2.6c-19.7,0.4-39.5-0.2-59.2,0c-1.2,0-2.1-0.3-3-1.2c-1.1-1.2-2.3-2.2-3.5-3.4
		c-16.1-15.8-34.5-28.1-55.7-36.4c-0.9-0.3-1.8-1.2-2.7-0.1c-3.7-1.6-7.3-3.2-11-4.8c-3.4-1.5-7-2.7-11-3.9c2.9,3.4,5.6,6.3,8,9.5
		c4.8,6.2,8.7,12.9,10.8,20.6c0.6,4.6,1.3,9.3,1.3,14c0,6.1,0,6-6.2,5.9c-14.7-0.2-29.3-0.4-44,0.1c-11.8,0.4-21,9.7-21.3,21.2
		c-0.1,3.3,0.2,6.6-0.1,9.8c-0.2,2.5,0.8,3,3.2,3c30,0,60,0,90,0c0.5,0,1,0.2,1.5-0.3C228.1,96.1,224.8,94.3,222.2,91.8z
		 M305.1,327.5c57.3,0,114.7,0,172,0c1,0,2.1,0,3.1,0c0.9,0,1.5-0.4,1.6-1.3c0-0.9-0.6-1.5-1.4-1.6c-1.1-0.2-2.2-0.1-3.4-0.1
		c-29.8,0-59.5,0-89.3,0c-84.8,0-169.5,0-254.3,0c-0.9,0-1.9,0-2.8,0.1c-1.1,0.1-1.7,0.7-1.6,1.9c0.1,1.1,0.9,1,1.7,1
		c0.9,0,1.9,0,2.8,0C190.8,327.5,247.9,327.5,305.1,327.5z M508.5,202.1c8.3,1.4,14.9,4.1,14.9,13.7c0,1.2,0.8,1,1.6,0.6
		c1.8-0.9,2.7-2.4,3.1-4.4c0.9-4.4-1.4-8.9-5.9-11.6C518.2,198.1,512.5,198.7,508.5,202.1z M491.8,93.5c1.2-1.8,1.2-3.9,2.5-5.5
		c1.3-1.6,3.7-1.3,5.3-2.9c-1.9-1-4-1.2-5.4-2.7c-1.4-1.4-1.2-3.5-2.7-5.4c0,5.3-3.5,7.1-8,8.2C489.6,87.6,489.6,87.6,491.8,93.5z
		 M286.2,48.8C286.2,48.8,286.2,48.8,286.2,48.8c2,0,4,0,5.9,0c0.7,0,1.4-0.1,1.4-1c0-0.9-0.6-1.1-1.4-1.1c-4,0-7.9,0-11.9,0
		c-0.7,0-1.4,0.1-1.5,1c0,0.9,0.7,1.1,1.4,1.1C282.2,48.8,284.2,48.8,286.2,48.8z M110.4,97.6c-0.1-1.1-0.7-1.4-1.6-1.4
		c-1,0.1-1.6,0.7-1.5,1.7c0.1,0.9,0.7,1.3,1.6,1.3C109.9,99.1,110.2,98.4,110.4,97.6z"/>
	<path class="st1" d="M375.8,107.3c1.1,0.5,2.2,0.3,3.3,0.3c29.4,0,58.8,0.1,88.2,0.1c2.2,0,4.3,0.3,6.5,0.2
		c1.8-0.1,2.3,0.5,2.4,2.3c0.5,16.1,0.1,32.2,0.2,48.3c0.1,7,0.2,14.1,0.3,21.1c0,1.6,0.1,2.1,2.1,1.5c12.8-4.2,25.3,2.9,27.7,15.7
		c0.3,1.4,1.4,3.3-0.7,4.1c-2.5,1-4.7-0.3-5.5-2.8c-2.2-7-9.8-12.1-17.1-11c-7.2,1.1-13.9,5.8-14.5,14.1c-0.1,1.4-0.6,2-1.9,2.1
		c-8,0.8-11.3,6.2-13.4,12.7c-0.5,1.5-1.2,1.8-2.5,1.8c-4.7-0.1-9.5-0.1-14.2-0.1c-2.9,0-4.6,1.4-4.6,3.6c0,2.3,1.5,3.6,4.5,3.6
		c12.2,0,24.5,0.1,36.7,0c2.7,0,3.3,0.8,3.3,3.3c0,8-0.3,15.9,0.2,23.9c0,0.7-0.3,1.8,0.5,2.1c1.4,0.5,3,0.9,4.5,0.9
		c0.7,0,0.3-1.2,0.4-1.8c0.8-8.7,7.1-15.2,15.3-16.6c10-1.8,22.5,7,20.5,20.4c-0.3,1.8,0,2.3,1.9,2.2c2.3-0.1,4.7,0.2,6.4,2
		c1,1,1.6,2.2,1.1,3.7c-0.5,1.5-1.9,1.4-3.2,1.4c-14.8,0-29.7,0-44.5,0c-3.2,0-3.5,0.3-3.5,3.4c0,1.8,0,3.5,0.2,5.3
		c0.2,1.8-0.6,2.3-2.4,2.3c-6.9-0.1-13.8-0.1-20.7-0.1c-0.7,0-1.4,0-2.1,0.1c-1.1,0.3-2,0.9-1.9,2.1c0.1,1.2,1,1.7,2.2,1.7
		c2.1,0,4.1,0,6.2,0c5.4,0,10.9,0.1,16.3,0c1.8,0,2.4,0.6,2.3,2.3c-0.4,10.3-7.2,18.7-18.7,21.6c-2.3,0.6-4.6,0.6-6.9,0.6
		c-96.2,0-192.5,0-288.7,0c-2.6,0-5.1-0.1-7.7-0.6c-11.9-2.4-18.9-13-18.9-23c-0.1-11.6-0.3-23.1,0.2-34.7c0.1-2.4-0.4-3.2-3-3.1
		c-13.5,0.1-27.1,0.1-40.6,0.1c-3.4,0-4-1.1-2.7-4.1c1.4-3.1,5.4-5.5,9.4-4.8c2.6,0.4,2.6-0.6,2.5-2.4c-0.5-7.7,2.1-14.3,7.8-19.7
		c6.6-6.2,14.5-8,23.4-6.4c3,0.5,3,0.6,3-2.3c0-29.1,0-58.2,0-87.2c0-2.3,0.3-4.7,0.1-7c-0.1-1.9,0.5-2.4,2.4-2.4
		c11.1,0.1,22.2,0,33.4,0c19.9,0,39.8,0,59.8-0.1c2.3,0,3.4,0.5,3.7,2.9c0.4,3.5,0.6,7,0,10.5c-0.9,2.3-2.6,3.9-4.8,5.5
		c0.8,0,1.2,0.1,1.6,0c5.8-1.3,11.7-1.6,17.6-2.2c7.3-0.7,14.4,1.2,20.7,5c1,0.6,1.8,1.5,3.2,1.4c3.7-0.4,7.6-5.1,7.1-8.7
		c-1-6.8-1.2-13.7-0.9-20.5c0.3-6,0.4-12.1,3.7-17.5c1.9-3.1,0.6-4.8-1.8-6.6c-1.4-1.1-2.6-2.4-3.9-3.7
		c-19.9-20.3-42.4-37.1-68.5-49.2c1-1.1,1.9-0.2,2.7,0.1c21.2,8.3,39.7,20.6,55.7,36.4c1.1,1.1,2.4,2.2,3.5,3.4
		c0.8,0.9,1.8,1.2,3,1.2c19.7-0.2,39.5,0.4,59.2,0c2.3,0,3.6-1.2,5.1-2.6c7.8-7.3,15.7-14.5,24.5-20.8c12.5-9,25.9-16.5,40.6-21.8
		c1.2-0.4,2.5-1.7,4-0.4c-1.4,0.6-2.8,1.3-4.1,1.9c-15.4,7-29.7,15.5-43,25.7c-11.3,8.6-21.6,18.4-31.9,28.2c-3.2,3-5.4,5.7-2.6,9.9
		c0,0.1,0,0.2,0.1,0.2c4.7,17,4.4,33.9-0.4,50.8c-0.8,2.9-2.3,4.1-5.1,5c-8.7,2.9-17.6,5.4-25.3,10.4c-2.1,1.4-3.7,0.5-5.5-0.3
		c6.3-8.6,6.3-8.6,5.9-10.3c-7.2,3.5-13.4,10.2-23.1,7c1.2-1.8,2.1-3.5,3.6-5c2.3,0.4,4.6,2,6.9,0.2c1.3-0.3,3.7,0.3,3-2.1
		c-1-3.7-2.5-7.3-3.8-11c-1,3.9-3.7,6.5-5.9,9.5c-3.4,2.8-8,3.7-11.3,6.3c-3.1,2.4-6.2,1.8-9.7,2.5c2.1-2.9,4.4-4.7,7.3-5.9
		c5-2.2,10-4.5,13.2-9.2c0.1-0.2,0.2-0.4,0.4-0.6c0.1-0.2,0.3-0.4,0.3-0.5c-0.3-0.3-0.5-0.1-0.8,0.2c-0.2,0-0.3,0.1-0.3,0.3
		c-4.8,1.8-9.5,3.8-14.3,5.3c-7.3,2.3-12.9,6.4-16.9,12.6c-1,1.5-2,1.8-3.5,1.2c-1-2.6-2.3-5.1-2.5-8c-2.9,3.5-4.8,7.3-6,11.5
		c-1.7,1.6-3.9,3.2-4.3,5.5c-0.8,4.2-3.8,6.1-7.1,7.8c-1.1,0.6-2.2,1.3-3.3,1.9c-0.8,0.4-1.1,0.9-0.7,1.8c1.4,3,2.4,6.2,4.1,8.5
		c4.9-2.6,9.8-4.5,15-5.9c-1.8,2.7-3.1,5.5-6.5,6.9c1.8,1.9,3.5,3.7,5.1,5.4c7.1-5,13.4-10.6,20.1-15.9c9.4-7.4,25.7-2.6,29.7,8.6
		c0.5,1.5,0.4,2.8-1.3,3.1c-3.3,0.6-4.8,3.1-6.6,5.3c-2.8,0-5.5,0-8.3-0.1c-2-0.1-2.5,0.6-2.5,2.5c0.3,7.2,1.1,14.3,2.9,21.3
		c0.4,1.7,1.1,2.1,2.8,1.6c6.4-1.8,12.9-3,19.5-3.3c3.2-0.2,6.3-0.5,9.5-0.7c0.6,0.2,1.3,0.8,1.4-0.5c0.1-1.1,0.2-2.3,0.5-3.4
		c0.7-2.6,1.5-5.4,5-5.6c0.1,2.7,0.2,5.5,0.3,8.2c0,1.1,0.3,1.7,1.6,1.7c4.6,0.1,9.3,0.2,13.9,0.4c2.1,0.3,4.3,0.6,6.4,0.9
		c3.1,0.7,6.2,1.4,9.2,2.1c0.9,0.2,1.5,0.3,2-0.8c2.4-5.4-0.8-14.4-6.4-17.2c-1.5-3.2-1.6-3.9-1.4-6.3c7.4,4.4,11.8,11,14.3,18.9
		c2.2,7,2,14.2,2.5,21.4c0.6,7.7,3.2,14.6,8.6,20.3c10.4,11.2,29.1,14.6,44.3,7.6c10.5-4.8,17.9-12.4,19.3-24.1
		c0.5-3.9-0.1-7.9-2.5-11.3c-0.2,1-0.3,2-0.2,3c0.8,13.4-7.3,21.2-17.1,25.6c-7.6,3.4-15.6,3.1-23.4,0.3c-6.8-2.4-11.3-7-13.4-13.8
		c-1.7-5.4-1.5-10.9-0.9-16.4c1.4,0.6,1.5,1.9,2.1,3c0.8,1.6,1.1,3.4,2.4,5.1c0.4-0.5,0.5-0.6,0.7-0.8c7.5-11.6,11.1-24.4,12-38
		c0.1-1.5-0.5-1.6-1.7-1.6c-4.9,0-9.8,0-14.7,0c-0.6,0-1.3-0.3-1.6,0.4c-0.4,0.8,0.4,1.2,0.9,1.6c1.8,1.7,3.6,3.4,5,5.4
		c0.6,0.9,1.9,1.8,1.2,3.2c-2.4-2.3-5-4.4-7.8-6.1c-4.6-2.7-9.1-5.4-10.3-11c1-0.2,2.2-0.5,3.5-0.7c-0.1,0.4,0.1,0.7,0.5,0.6
		c7.8-0.5,15.7,0.3,23.5,0.1c1.5,0,1.6-0.8,1.6-1.9c-0.3-6-1.1-12-2.7-17.8c-2.5-9.2-6.2-17.9-12-25.6c-0.9-1.2-1.6-1.5-3.1-0.5
		c-6.1,4.2-12.3,8.3-18.5,12.3c-1.2,0.8-1.5,1.4-0.9,2.8c2.3,5.7,4.2,11.5,5,17.6c0.2,1.5,0.8,2.2,2.1,2.8c3.1,1.3,6.1,2.8,8.8,4.7
		c1.1,0.8,2.8,1.4,2.5,3.2c-4.3-2.7-9.3-3.3-14.2-4.1c-2-0.3-4-0.5-5.8-1.8c1.6-0.9,3-1.5,5.2-2.1c-7.2-3-14.7-3.1-20.9-7.3
		c3.2-2.1,6.7-3,10.3-4.3c-1-0.6-1.6-0.9-2.5-1.1c-5.6-1.5-11.1-1.4-16.5,0.5c-0.3-0.8-0.9-1.3-1.8-1.5c-2.4-0.7-4.8-1.6-7.2-2.5
		c0.5-1.2,1.1-2.3,2.2-3.1c2.4,0.1,4.8,0.8,7,1.6c2.3,0.8,4.4,0.6,6.4-0.7c2.5-1.5,5-3,7.5-4.5c3.1-1.9,3.1-2,1-5
		c-0.3-0.4-0.5-0.9-1.1-1c0.5-2.6,2.4-4.3,4.1-6.1c1.2,2,2.4,4,3.6,6.1c0.5,0.8,0.9,1.1,1.8,0.5c5.9-4,11.8-8,17.8-12
		c1.5-1,1.1-1.7,0.1-2.8c-0.9-1-2.6-1.5-2.5-3.2c7.7-0.5,15.5-0.6,23.8,1.4C373,121,373.3,114.3,375.8,107.3z M242.7,188.7
		C242.7,188.7,242.7,188.7,242.7,188.7c-4.6,0-9.1,0.1-13.7,0c-1.9,0-2.3,0.5-2.2,2.3c0.2,3,0.6,6,1.2,9c1.7,10,5.4,19.4,10.8,28
		c0.5,0.9,0.9,2.1,2.5,0.9c6.3-4.4,13-8.2,20.1-11.3c1.1-0.5,1.3-1,0.9-2.1c-2.7-8.1-3.4-16.5-3.6-25c0-1.4-0.5-1.9-1.9-1.8
		C252,188.7,247.4,188.7,242.7,188.7z M306.6,239.3C306.7,239.3,306.7,239.3,306.6,239.3c0,6.1,0,12.2,0,18.3c0,4.9,0,4.9,5,4.5
		c0.8,0,1.6-0.1,2.3-0.1c1-0.1,1.7-0.6,2.3-1.4c8.4-11.8,15.5-24.3,20.4-37.9c0.8-2.1,0.5-2.9-1.8-3.4c-8.7-1.7-17.5-2.5-26.4-2.6
		c-1.8,0-1.9,0.8-1.9,2.2C306.7,225.7,306.6,232.5,306.6,239.3z M300.8,239.5C300.7,239.5,300.7,239.5,300.8,239.5
		c0-6.9-0.1-13.7,0-20.6c0-1.6-0.3-2.2-2.1-2.2c-8.5,0.3-17,1.1-25.3,3c-3.1,0.7-3.2,0.8-2,3.8c4.5,11.7,10,22.9,17.4,33.2
		c2.3,3.2,4.6,5.6,9.2,5.6c2.4,0,2.9-0.4,2.9-2.5C300.7,253.1,300.8,246.3,300.8,239.5z M282.8,260c-0.3-0.8-0.4-1.2-0.7-1.5
		c-7.3-10.5-12.8-21.9-17.1-33.9c-0.6-1.7-1.4-1.2-2.5-0.7c-4.9,2.5-9.9,5.1-14.5,8.1c-4.6,3-4.5,3-0.7,6.9
		C257,249,268.8,255.6,282.8,260z M324.4,260.2c9.4-2.8,17.6-6.3,24.9-11.6c1.1-0.8,1.1-1.5,0.4-2.6c-1.9-3-3-6.3-3.8-9.8
		c-0.8-3.7-0.9-7.5-1-11.2c0-0.8,0-1.8-1.2-1.9c-1.1-0.1-1.1,1-1.3,1.6c-1.6,5.4-3.9,10.5-6.3,15.6
		C332.9,246.9,328.9,253.2,324.4,260.2z M304.1,107.6C304.1,107.6,304.1,107.6,304.1,107.6c5.2,0,10.3,0,15.5,0c5.5,0,5.4,0,5.4-5.3
		c0-2.2-0.7-2.9-2.9-2.8c-11,0.1-22,0-33.1,0c-6,0-5.9,0.1-5.9,5.9c0,1.8,0.7,2.2,2.4,2.2C291.7,107.6,297.9,107.6,304.1,107.6z
		 M307,142.3c4.3-1.4,8.4-2.7,12.5-4c0.8-0.3,1.7-0.4,1.9-1.5c0.8-3.7,2.4-7.5-1.2-10.7c-0.2-0.2-0.4-0.5-0.5-0.9
		c-1.8-5.3-5.9-6.3-10.9-5.6c-0.1,0-0.2,0-0.3,0c-1.4-0.1-1.8,0.5-1.8,1.8C306.9,128.3,306.4,135.2,307,142.3z M300.7,132.2
		c0,0-0.1,0-0.1,0c0-3.6,0-7.2,0-10.8c0-1.1-0.3-1.7-1.6-1.7c-2.3,0.1-4.6,0-7,0c-0.7,0-1.4-0.1-1.8,0.7c-2.3,4.8-5.5,9.3-2.9,15.3
		c2.4,5.3,2,5.5,6.9,2.4c0.3-0.2,0.6-0.4,0.9-0.6c1.1-0.7,1.6-0.6,1.6,0.9c0,1.9-0.2,3.8-0.5,5.7c-0.1,0.6-0.6,1.6,0.7,1.8
		c1.7,0.3,3.7-1.4,3.8-3.2C300.7,139.2,300.7,135.7,300.7,132.2z M256.8,135.9c2.6-0.6,5.4-1.9,8.2-3c0.6-0.2,1.5-0.2,1.5-1.1
		c0-0.8-0.8-1-1.4-1.3c-3.6-1.9-7.6-2.5-11.5-3.4c-2.9-0.7-4.1,1.3-5.1,2.8c-0.8,1.2,1.4,1.7,2.2,2.5c1.1,1.1,2.6,1.9,3.9,2.9
		C255.2,135.7,255.7,136,256.8,135.9z M272.3,182.2C272.3,182.2,272.3,182.2,272.3,182.2c2-0.1,3.9,0,5.9-0.1c1,0,1.8-0.3,1-1.5
		c-2.6-3.9-6.1-6.7-10.7-8.2c-1.1-0.4-1.7-0.2-1.9,1.1c-0.3,2.4-0.8,4.8-1.3,7.1c-0.3,1.3,0.4,1.6,1.6,1.6
		C268.7,182.2,270.5,182.2,272.3,182.2z M260.4,172.5c-5.6,2-8.9,6.6-13.5,9.4c3.6,0.3,7,0.3,10.5,0.3c0.8,0,1.6-0.1,1.6-1.1
		C258.8,178.2,260,175.5,260.4,172.5z M341.3,167c-0.5-3.6-1.4-6.6-2.4-9.6c-1.9-5.4-2.3-5.4-6.5-1.4c-0.1,0.1-0.1,0.2-0.1,0.4
		c2.2,1.2,4.5,2.4,7.1,3.8c-2.5,1.4-4.8,2.6-7.6,4.2C335.2,165.3,338.1,166.1,341.3,167z M243.3,144.9c1.3-1.6,2.6-3.2,4.2-4.4
		c1-0.7,0.8-1.3,0-2c-0.6-0.5-1.3-1.1-1.8-1.8c-1.2-1.4-2.1-0.9-3.1,0.2C240.5,139.4,240.5,140.6,243.3,144.9z"/>
	<path class="st2" d="M275.6,188.8c1.8-2.2,3.3-4.7,6.6-5.3c1.7-0.3,1.9-1.6,1.3-3.1c-4-11.2-20.4-16.1-29.7-8.6
		c-6.7,5.3-13,10.9-20.1,15.9c-1.6-1.7-3.3-3.5-5.1-5.4c3.4-1.4,4.7-4.2,6.5-6.9c-5.3,1.3-10.1,3.3-15,5.9c-1.8-2.3-2.7-5.5-4.1-8.5
		c-0.4-0.9-0.1-1.4,0.7-1.8c1.1-0.6,2.2-1.3,3.3-1.9c3.4-1.7,6.4-3.6,7.1-7.8c0.4-2.3,2.6-3.9,4.3-5.5c2.7-1.5,5.4-2.8,8.5-3.4
		c1.5,0.6,2.6,0.3,3.5-1.2c4-6.2,9.6-10.4,16.9-12.6c4.9-1.5,9.6-3.5,14.3-5.3c0.2,0.2,0.3,0.5,0.5,0.7c-3.2,4.6-8.2,7-13.2,9.2
		c-2.9,1.3-5.3,3-7.3,5.9c3.5-0.7,6.6-0.1,9.7-2.5c3.4-2.6,7.9-3.5,11.3-6.3c0.2,0.2,0.3,0.4,0.5,0.6c-0.3,0.9-0.5,1.9-0.8,2.8
		c-1.5,1.4-2.4,3.2-3.6,5c9.7,3.2,15.9-3.5,23.1-7c0.3,1.7,0.3,1.7-5.9,10.3c1.8,0.8,3.4,1.7,5.5,0.3c7.7-5.1,16.6-7.5,25.3-10.4
		c2.7-0.9,4.2-2.1,5.1-5c4.8-16.9,5.1-33.8,0.4-50.8c0-0.1,0-0.2-0.1-0.2c-2.8-4.2-0.6-6.9,2.6-9.9c10.3-9.8,20.6-19.5,31.9-28.2
		c13.3-10.2,27.7-18.7,43-25.7c1.4-0.6,2.8-1.3,4.1-1.9c0.3,0,0.5,0,0.8-0.1c2.5-1.1,4.9-2.2,7.4-3.4c0,0,0-0.2,0-0.2
		c2.7-0.1,4.9-1.7,7.4-2.3c2.1-0.5,4-1.6,6.1-1.7l0,0c-2.4,3.5-5.5,6.4-8.2,9.6c-8.5,10-14.4,21.2-16.4,34.2
		c-0.4,2.8-0.5,5.7-0.6,8.5c0,0.5,0.2,1,0.8,1.1c0,1,0.1,1.9,0.1,2.9c-0.3,0.6-0.3,1.2,0.3,1.7c0.1,0.9,0.3,1.9,0.4,2.8
		c-0.4,0.4-0.3,0.8,0.2,1.1c0.1,0.3,0.1,0.6,0.2,0.9c-0.3,3.6,1.4,6.6,3.1,9.6c0.2,0.3,0.3,0.7,0.5,1c0.1,0.5,0.2,1.1,0.4,1.7
		c-1.3-0.1-1.9-1.4-3.2-1.4c-6.8,0.2-13,2.2-18.5,6.1c-3,2.2-6.2,4.2-8.1,7.5c-2.3,2.1-3.5,4.7-3.8,7.7c-2.5,7.1-2.9,13.7,4.4,19.6
		c-8.4-2.1-16.1-1.9-23.8-1.4c-0.7-0.3-1.3,0-2,0.1c-7.9,1.2-13.9,5.5-18.8,11.3c-1.7,1.8-3.6,3.5-4.1,6.1
		c-4.2,1.5-8.5,2.9-12.7,4.5c-3,1.2-6,2.5-8.1,5c-1.1,0.7-1.7,1.9-2.2,3.1c-0.4,0.8-1.7,1.8,0.1,2.2c3,0.7,5.8,2,8.9,1.8
		c5.4-2,10.9-2.1,16.5-0.5c0.8,0.2,1.5,0.5,2.5,1.1c-3.6,1.3-7.1,2.2-10.3,4.3c6.2,4.2,13.7,4.2,20.9,7.3c-2.3,0.6-3.7,1.1-5.2,2.1
		c1.9,1.3,3.9,1.5,5.8,1.8c4.9,0.9,9.9,1.5,14.2,4.1c0,1.3-1.1,0.7-1.7,0.8c-1.7,0.2-3.5-0.3-5.1,0.9c-1.3,0.3-2.5,0.5-3.5,0.7
		c1.2,5.7,5.7,8.4,10.3,11c2.9,1.7,5.5,3.7,7.8,6.1c-0.4,0.9-1.2,0.5-1.8,0.3c-1.9-0.4-3.8-0.2-5.7-0.2c-1,0-1.8,0.1-1.1,1.4
		c0.5,2.2,0,4.7,1.9,6.6c3.2,3.1,5.8,6.7,8.7,10c0.2,0.8,0,1-0.8,0.8c-1.5-0.4-3.1-0.1-4.6-0.2c-2.4-0.2-3.3,0.9-2.7,3.1
		c-0.6,5.5-0.8,11,0.9,16.4c2.1,6.8,6.6,11.4,13.4,13.8c7.8,2.7,15.8,3.1,23.4-0.3c9.8-4.4,17.9-12.2,17.1-25.6c-0.1-1,0-2,0.2-3
		c2.4,3.4,3,7.3,2.5,11.3c-1.4,11.8-8.8,19.3-19.3,24.1c-15.1,7-33.9,3.6-44.3-7.6c-5.4-5.8-8-12.7-8.6-20.3
		c-0.5-7.2-0.3-14.4-2.5-21.4c-2.5-8-6.9-14.5-14.3-18.9c-0.3,2.4-0.1,3.1,1.4,6.3c0.5,2.9-1,4.2-3.7,4.9c-0.6,0.1-1.1,0.5-1.6,0.7
		c-2.1,1.1-2.7,2.6-2.3,5c0.4,2.1,2,3.5,2.6,5.3c-2.1-0.3-4.3-0.6-6.4-0.9c-2.5-2.2-4.1-4.7-3.7-8.1c0.4-3.5,3.4-5.2,6-7.5
		c-2.9-0.7-5.4-1.2-7.9-2.2c0,1.6-0.1,3,0,4.4c0.2,1.5-0.4,2-1.9,2.2c-2.7,0.4-5.5,0.2-8.2,1c-3.6,0.3-4.3,3-5,5.6
		c-0.3,1.1-0.4,2.3-0.5,3.4c-0.1,1.3-0.8,0.7-1.4,0.5c-5.5-5.3-4.2-12.8,1.4-16.2c1.4-0.2,2.7,0.4,4.1,0.5c0.7,0,1.7,1.1,2.1-0.3
		c0.3-1.1,0.3-2.2-1.3-2.7c-2.2-0.6-4.3-1.6-6.1-3.1c-2-1.6-3.9-3.3-6-5.2c0.2,2.6-1.9,3.6-3.1,5.2c-1.5,0.6-3,1.1-4.5,1.7
		c-3.5,1.5-4.2,3-3.4,6.7c0.2,0.8,0.4,1.6,0.8,2.4c0.7,1.3,0.3,1.7-1.1,1.7c-4.1,0-7.1-2.8-7.3-6.8
		C274.9,192.2,275.3,190.5,275.6,188.8z M350.5,73.3c13.7,1.9,27.5,3.8,41.2,5.7C378.3,75.5,364.5,73.8,350.5,73.3z M235,165.6
		c0,1.7,1.6,3.3,3.2,3.3c2,0,3.5-1.6,3.4-3.6c-0.1-2-1.3-3.1-3.3-3.2C236.4,162,234.9,163.7,235,165.6z"/>
	<path class="st2" d="M208.8,24.3c26.1,12.1,48.6,28.9,68.5,49.2c1.2,1.3,2.4,2.7,3.9,3.7c2.4,1.8,3.6,3.5,1.8,6.6
		c-3.2,5.4-3.4,11.5-3.7,17.5c-0.4,6.9-0.2,13.7,0.9,20.5c0.5,3.6-3.3,8.3-7.1,8.7c-1.4,0.2-2.2-0.8-3.2-1.4
		c-6.4-3.8-13.4-5.7-20.7-5c-5.9,0.5-11.8,0.9-17.6,2.2c-0.4,0.1-0.9,0-1.6,0c0.7,0,2.3-2,2.8-2.5c0.8-1,1.6-2.1,2-3.3
		c1-2.7,0.4-5.7-0.2-8.5c-1-5.1-1.9-10.3-4.9-14.5c-2.1-3-5.2-5.2-8.4-6.8c-2.2-1.1-4.4-1.9-6.7-2.7c-2.2-0.7-4.3-1.6-6.6-1.9
		c-0.7-0.1-1.5-0.1-2.2,0c-0.2,0-2.3,0.8-2.2,0.9c-0.1-0.1-0.2-0.3-0.3-0.4c0.1-0.2,0.1-0.5,0.2-0.7c8.2-13,6.9-26.6,2.3-40.3
		c-2-7.6-6-14.3-10.8-20.6c-2.4-3.1-5.1-6-8-9.5c4.1,1.2,7.6,2.3,11,3.9C201.5,21.1,205.2,22.7,208.8,24.3z M215.8,79.3
		c14-2.1,28-3.6,42-6.1C243.6,74.1,229.6,75.8,215.8,79.3z"/>
	<path class="st1" d="M205.5,45.6c4.6,13.7,5.9,27.2-2.3,40.3c-0.1,0.2-0.1,0.5-0.2,0.7c-0.1,0.1-0.4,0.4-0.3,0.4
		c0.2,0.4,0.5,0.1,0.7,0c2.5-1.7,5.2-0.8,7.7-0.1c4,1,8.1,2,11.5,4.3c2,1,6.1,4.8,8,8c-0.5,0.6-1.6,0.5-2.1,0.5c-30,0-60-0.1-90,0
		c-2.4,0-3.4-0.5-3.2-3c0.3-3.3,0-6.5,0.1-9.8c0.3-11.5,9.4-20.8,21.3-21.2c14.7-0.5,29.3-0.2,44-0.1c6.3,0.1,6.2,0.2,6.2-5.9
		C206.8,54.9,206.1,50.2,205.5,45.6z M158.5,76.1c-4.4,0-7.7,3.4-7.7,7.8c0,4.3,3.3,7.6,7.5,7.6c4,0,7.9-3.7,7.9-7.5
		C166.2,79.8,162.5,76.1,158.5,76.1z M193.3,83.9c0.1-4.4-3.3-7.9-7.6-7.9c-4.2,0-7.6,3.5-7.7,7.8c-0.1,4.1,3.2,7.4,7.4,7.5
		C189.8,91.5,193.3,88.2,193.3,83.9z"/>
	<path class="st1" d="M404.4,68.5c0-1-0.1-1.9-0.1-2.9c17.3,0,34.6-0.2,52,0.1c10.3,0.2,19.3,9.1,20.2,19.1c0.4,4,0.1,8,0.3,12
		c0.1,2.1-0.6,2.7-2.8,2.7c-18.9-0.1-37.7,0-56.6,0c-12.6,0-25.1,0-37.7,0.1c1.9-3.3,5-5.4,8.1-7.5c16.6-0.1,33.1-0.1,49.7-0.2
		c6,0,11.9,0.1,17.9,0c3,0,5.8-0.6,7.7-3.3c2.2-3.1,1.9-6.1,0.1-9.2c-1.6-2.8-4.2-4.2-7.4-4.2c-15.6,0-31.2,0-46.8,0.1
		c-1.1,0-2.2,0.1-3.3-0.2c-0.1-0.3-0.1-0.6-0.2-0.9c0.2-0.4,0.3-0.8-0.2-1.1c-0.1-0.9-0.3-1.9-0.4-2.8C405,69.6,405,69,404.4,68.5z"
		/>
	<path class="st2" d="M305.1,327.5c-57.2,0-114.3,0-171.5,0c-0.9,0-1.9,0-2.8,0c-0.7,0-1.6,0.1-1.7-1c-0.1-1.1,0.5-1.7,1.6-1.9
		c0.9-0.1,1.9-0.1,2.8-0.1c84.8,0,169.5,0,254.3,0c29.8,0,59.5,0,89.3,0c1.1,0,2.3,0,3.4,0.1c0.8,0.1,1.4,0.7,1.4,1.6
		c0,0.9-0.6,1.3-1.6,1.3c-1,0-2.1,0-3.1,0C419.8,327.5,362.5,327.5,305.1,327.5z"/>
	<path class="st1" d="M508.5,202.1c4.1-3.4,9.8-4,13.7-1.6c4.5,2.6,6.8,7.2,5.9,11.6c-0.4,1.9-1.4,3.4-3.1,4.4
		c-0.8,0.4-1.6,0.6-1.6-0.6C523.4,206.2,516.8,203.5,508.5,202.1z"/>
	<path class="st1" d="M491.8,93.5c-2.2-5.9-2.2-5.9-8.4-8.2c4.4-1.2,8-2.9,8-8.2c1.6,1.9,1.3,4,2.7,5.4c1.5,1.4,3.5,1.7,5.4,2.7
		c-1.6,1.5-4,1.2-5.3,2.9C493.1,89.6,493.1,91.7,491.8,93.5z"/>
	<path class="st1" d="M286.2,48.8c-2,0-4,0-5.9,0c-0.7,0-1.4-0.1-1.4-1.1c0-0.9,0.8-1,1.5-1c4,0,7.9,0,11.9,0c0.8,0,1.4,0.2,1.4,1.1
		c0,0.9-0.7,1-1.4,1C290.1,48.8,288.1,48.8,286.2,48.8C286.2,48.8,286.2,48.8,286.2,48.8z"/>
	<path class="st1" d="M110.4,97.6c-0.1,0.8-0.4,1.5-1.5,1.6c-0.9,0-1.6-0.4-1.6-1.3c-0.1-0.9,0.5-1.6,1.5-1.7
		C109.7,96.2,110.3,96.5,110.4,97.6z"/>
	<path class="st2" d="M428.7,12.2c0.1-0.1,0.2-0.2,0.3-0.3c0,0.1,0.1,0.2,0.1,0.2C429,12.2,428.8,12.2,428.7,12.2
		C428.7,12.2,428.7,12.2,428.7,12.2z"/>
	<path class="st0" d="M355.1,181.4c1.5-1.2,3.4-0.6,5.1-0.9c0.6-0.1,1.6,0.5,1.7-0.8c0.3-1.9-1.3-2.5-2.5-3.2
		c-2.8-1.9-5.7-3.4-8.8-4.7c-1.3-0.6-1.9-1.3-2.1-2.8c-0.8-6.1-2.7-11.9-5-17.6c-0.5-1.4-0.3-2,0.9-2.8c6.2-4,12.4-8.1,18.5-12.3
		c1.5-1,2.1-0.7,3.1,0.5c5.8,7.7,9.5,16.4,12,25.6c1.6,5.8,2.4,11.8,2.7,17.8c0.1,1.1,0,1.9-1.6,1.9c-7.8,0.2-15.7-0.6-23.5-0.1
		C355.2,182.1,355,181.8,355.1,181.4z"/>
	<path class="st0" d="M242.7,188.7c4.7,0,9.3,0,14,0c1.4,0,1.9,0.4,1.9,1.8c0.2,8.5,1,16.9,3.6,25c0.4,1.1,0.2,1.6-0.9,2.1
		c-7.1,3.1-13.8,6.9-20.1,11.3c-1.6,1.1-1.9-0.1-2.5-0.9c-5.4-8.7-9-18-10.8-28c-0.5-3-1-5.9-1.2-9c-0.1-1.8,0.4-2.4,2.2-2.3
		C233.6,188.8,238.1,188.7,242.7,188.7C242.7,188.7,242.7,188.7,242.7,188.7z"/>
	<path class="st0" d="M306.6,239.3c0-6.8,0-13.6,0-20.4c0-1.3,0.1-2.2,1.9-2.2c8.9,0.1,17.7,0.9,26.4,2.6c2.3,0.4,2.6,1.2,1.8,3.4
		c-4.9,13.6-11.9,26.1-20.4,37.9c-0.6,0.8-1.3,1.3-2.3,1.4c-0.8,0.1-1.5,0.1-2.3,0.1c-5,0.3-5,0.3-5-4.5
		C306.7,251.5,306.7,245.4,306.6,239.3C306.7,239.3,306.7,239.3,306.6,239.3z"/>
	<path class="st0" d="M300.8,239.5c0,6.8-0.1,13.6,0,20.4c0,2.2-0.5,2.5-2.9,2.5c-4.6,0-6.9-2.4-9.2-5.6
		c-7.4-10.3-12.9-21.6-17.4-33.2c-1.2-3-1.1-3,2-3.8c8.3-2,16.8-2.8,25.3-3c1.8-0.1,2.2,0.6,2.1,2.2
		C300.7,225.8,300.7,232.6,300.8,239.5C300.7,239.5,300.7,239.5,300.8,239.5z"/>
	<path class="st0" d="M275.6,188.8c-0.2,1.7-0.7,3.4-0.6,5.2c0.2,4,3.2,6.8,7.3,6.8c1.5,0,1.9-0.4,1.1-1.7c-0.4-0.7-0.6-1.6-0.8-2.4
		c-0.9-3.7-0.1-5.2,3.4-6.7c1.5-0.6,3-1.2,4.5-1.7c0.8-0.2,1.5-0.2,2.2,0.3c2.7,1.8,5.5,3.5,8.2,5.3c-5.6,3.4-6.8,10.9-1.4,16.2
		c-3.2,0.2-6.3,0.5-9.5,0.7c-6.6,0.3-13.1,1.5-19.5,3.3c-1.8,0.5-2.4,0.1-2.8-1.6c-1.8-7-2.7-14.1-2.9-21.3
		c-0.1-1.8,0.5-2.6,2.5-2.5C270.1,188.8,272.8,188.8,275.6,188.8z"/>
	<path class="st0" d="M282.8,260c-13.9-4.4-25.8-11-35.5-21c-3.8-3.9-3.8-3.9,0.7-6.9c4.7-3,9.6-5.6,14.5-8.1c1.1-0.6,1.9-1,2.5,0.7
		c4.3,12,9.8,23.3,17.1,33.9C282.3,258.8,282.4,259.2,282.8,260z"/>
	<path class="st0" d="M361.1,200.8c-0.7-1.3,0-1.4,1.1-1.4c1.9,0,3.8-0.2,5.7,0.2c0.6,0.1,1.4,0.6,1.8-0.3c0.7-1.4-0.6-2.3-1.2-3.2
		c-1.4-2-3.1-3.8-5-5.4c-0.5-0.4-1.2-0.9-0.9-1.6c0.3-0.6,1.1-0.4,1.6-0.4c4.9,0,9.8,0,14.7,0c1.2,0,1.8,0.1,1.7,1.6
		c-0.9,13.6-4.5,26.4-12,38c-0.1,0.2-0.3,0.4-0.7,0.8c-1.3-1.6-1.6-3.5-2.4-5.1c-0.6-1.1-0.7-2.5-2.1-3c-0.6-2.2,0.3-3.3,2.7-3.1
		c1.5,0.1,3.1-0.2,4.6,0.2c0.9,0.3,1.1,0,0.8-0.8c-0.4-4.2-2.7-7.8-4.7-11.4C365.7,203.7,364.1,201.5,361.1,200.8z"/>
	<path class="st0" d="M324.4,260.2c4.5-6.9,8.6-13.2,11.8-20c2.4-5.1,4.7-10.2,6.3-15.6c0.2-0.6,0.1-1.7,1.3-1.6
		c1.2,0.1,1.2,1.1,1.2,1.9c0,3.8,0.2,7.5,1,11.2c0.8,3.5,1.9,6.8,3.8,9.8c0.7,1.2,0.7,1.8-0.4,2.6
		C341.9,253.8,333.8,257.4,324.4,260.2z"/>
	<path class="st0" d="M304.1,107.6c-6.2,0-12.4,0-18.6,0c-1.7,0-2.4-0.4-2.4-2.2c0-5.8-0.1-5.9,5.9-5.9c11,0,22,0.1,33.1,0
		c2.2,0,2.9,0.6,2.9,2.8c0,5.3,0.1,5.3-5.4,5.3C314.4,107.6,309.3,107.6,304.1,107.6C304.1,107.6,304.1,107.6,304.1,107.6z"/>
	<path class="st0" d="M307,142.3c-0.6-7.1-0.2-13.9-0.4-20.8c0-1.2,0.4-1.9,1.8-1.8c0.1,0,0.2,0,0.3,0c5.1-0.8,9.2,0.2,10.9,5.6
		c0.1,0.3,0.3,0.6,0.5,0.9c3.6,3.2,2,7,1.2,10.7c-0.2,1-1.1,1.2-1.9,1.5C315.4,139.6,311.4,140.9,307,142.3z"/>
	<path class="st0" d="M300.7,132.2c0,3.5,0,7,0,10.5c0,1.8-2,3.5-3.8,3.2c-1.3-0.2-0.8-1.2-0.7-1.8c0.3-1.9,0.5-3.8,0.5-5.7
		c0-1.5-0.5-1.6-1.6-0.9c-0.3,0.2-0.6,0.4-0.9,0.6c-4.9,3.1-4.6,2.9-6.9-2.4c-2.6-5.9,0.6-10.4,2.9-15.3c0.4-0.8,1.1-0.7,1.8-0.7
		c2.3,0,4.6,0,7,0c1.3,0,1.6,0.6,1.6,1.7c-0.1,3.6,0,7.2,0,10.8C300.6,132.2,300.6,132.2,300.7,132.2z"/>
	<path class="st0" d="M335.6,136.8c5-5.8,10.9-10.1,18.8-11.3c0.7-0.1,1.3-0.3,2-0.1c-0.1,1.7,1.6,2.2,2.5,3.2c1,1,1.3,1.8-0.1,2.8
		c-6,3.9-11.9,7.9-17.8,12c-0.9,0.6-1.3,0.4-1.8-0.5C338,140.9,336.8,138.9,335.6,136.8z"/>
	<path class="st0" d="M328.7,211.6c-0.6-1.9-2.2-3.3-2.6-5.3c-0.5-2.4,0.2-3.9,2.3-5c0.5-0.3,1.1-0.6,1.6-0.7c2.6-0.6,4.2-2,3.7-4.9
		c5.5,2.8,8.8,11.8,6.4,17.2c-0.5,1.1-1.1,1-2,0.8C334.8,213,331.7,212.3,328.7,211.6z"/>
	<path class="st0" d="M306.5,200.5c2.7-0.8,5.5-0.6,8.2-1c1.5-0.2,2.1-0.7,1.9-2.2c-0.1-1.4,0-2.8,0-4.4c2.5,1,5,1.6,7.9,2.2
		c-2.6,2.4-5.6,4-6,7.5c-0.4,3.4,1.2,5.9,3.7,8.1c-4.6-0.1-9.3-0.3-13.9-0.4c-1.3,0-1.6-0.6-1.6-1.7
		C306.7,206,306.6,203.2,306.5,200.5z"/>
	<path class="st0" d="M310.7,152.5c2.1-2.5,5.1-3.8,8.1-5c4.2-1.6,8.5-3,12.7-4.5c0.6,0.1,0.8,0.6,1.1,1c2.1,3,2.1,3.1-1,5
		c-2.5,1.5-5,3-7.5,4.5c-2,1.3-4.1,1.5-6.4,0.7C315.4,153.3,313.1,152.6,310.7,152.5z"/>
	<path class="st0" d="M256.8,135.9c-1.1,0.1-1.6-0.2-2.1-0.5c-1.3-0.9-2.7-1.8-3.9-2.9c-0.8-0.8-3-1.2-2.2-2.5
		c1-1.6,2.2-3.5,5.1-2.8c3.9,0.9,7.9,1.5,11.5,3.4c0.6,0.3,1.4,0.6,1.4,1.3c0,0.9-0.9,0.8-1.5,1.1
		C262.2,134,259.4,135.3,256.8,135.9z"/>
	<path class="st0" d="M272.3,182.2c-1.8,0-3.6,0-5.4,0c-1.1,0-1.8-0.3-1.6-1.6c0.5-2.4,0.9-4.7,1.3-7.1c0.2-1.3,0.8-1.4,1.9-1.1
		c4.6,1.5,8.1,4.2,10.7,8.2c0.8,1.2,0,1.5-1,1.5C276.3,182.2,274.3,182.1,272.3,182.2C272.3,182.2,272.3,182.2,272.3,182.2z"/>
	<path class="st0" d="M260.4,172.5c-0.4,3.1-1.5,5.8-1.4,8.6c0,1-0.8,1.1-1.6,1.1c-3.4,0-6.9,0-10.5-0.3
		C251.5,179.1,254.7,174.5,260.4,172.5z"/>
	<path class="st0" d="M341.3,167c-3.2-0.9-6.2-1.7-9.6-2.7c2.8-1.5,5-2.8,7.6-4.2c-2.6-1.4-4.8-2.6-7.1-3.8c0.1-0.2,0.1-0.3,0.1-0.4
		c4.3-4,4.7-4,6.5,1.4C340,160.4,340.8,163.4,341.3,167z"/>
	<path class="st2" d="M275.7,140c2.1-3,4.9-5.6,5.9-9.5c1.3,3.7,2.8,7.3,3.8,11c0.7,2.4-1.7,1.8-3,2.1c-1.8-1.5-3.6-2.9-6.1-3
		C276.1,140.4,275.9,140.2,275.7,140z"/>
	<path class="st0" d="M240,152.1c-3,0.7-5.8,2-8.5,3.4c1.2-4.2,3.1-8,6-11.5C237.7,147,239,149.5,240,152.1z"/>
	<path class="st0" d="M243.3,144.9c-2.7-4.3-2.8-5.4-0.7-7.8c1-1.2,1.9-1.6,3.1-0.2c0.6,0.6,1.2,1.2,1.8,1.8c0.8,0.7,1,1.3,0,2
		C245.8,141.7,244.6,143.3,243.3,144.9z"/>
	<path class="st0" d="M317.5,159.6c-3.1,0.2-6-1.2-8.9-1.8c-1.8-0.4-0.5-1.4-0.1-2.2c2.4,0.8,4.8,1.8,7.2,2.5
		C316.6,158.3,317.1,158.8,317.5,159.6z"/>
	<path class="st0" d="M276.2,140.6c2.5,0.1,4.3,1.5,6.1,3c-2.4,1.8-4.6,0.2-6.9-0.2C275.7,142.5,276,141.5,276.2,140.6z"/>
	<path class="st2" d="M275.1,132.6c0.2-0.2,0.5-0.5,0.8-0.2c0,0-0.2,0.3-0.3,0.5C275.5,132.9,275.3,132.8,275.1,132.6z"/>
	<path class="st2" d="M274.8,133c0-0.2,0.2-0.3,0.3-0.3c0.2,0.1,0.3,0.2,0.5,0.3c-0.1,0.2-0.2,0.4-0.4,0.6
		C275.1,133.4,275,133.2,274.8,133z"/>
	<path class="st0" d="M405.4,75.1c1.1,0.4,2.2,0.2,3.3,0.2c15.6,0,31.2-0.1,46.8-0.1c3.2,0,5.8,1.4,7.4,4.2c1.8,3.1,2,6.2-0.1,9.2
		c-1.9,2.7-4.7,3.2-7.7,3.3c-5.9,0.1-11.9,0-17.9,0c-16.6,0-33.1,0.1-49.7,0.2c5.5-3.9,11.7-5.9,18.5-6.1c1.3,0,1.9,1.3,3.2,1.4
		c-0.1-0.6-0.2-1.1-0.4-1.7c0.9,0.1,1.9,0.2,2.8,0.2c10.2,0,20.5,0,30.7,0c1.2,0,2.3,0,3.3,0.9c1.2,1.1,2.8,1.1,4.1,0.2
		c1.3-0.9,1.5-2.4,1-3.9c-0.5-1.6-1.9-1.6-3.4-1.6c-12,0-23.9,0-35.9,0.1c-3.2,0-3.3,0.1-3.2,3.2C406.9,81.6,405.2,78.6,405.4,75.1z
		"/>
	<path class="st1" d="M408.5,84.6c-0.1-3.1,0-3.2,3.2-3.2c6.1,0,12.2,0,18.3,0c3,0,6.1,0,9.1,0c2.9,0,5.7,0,8.6,0c1,0,2,0,2.7,0.7
		c0.4,0.4,0.6,0.9,0.8,1.4c0.1,0.3,0.2,0.5,0.1,0.8c-0.1,0.3-0.3,0.5-0.5,0.7c-0.5,0.4-1.2,0.6-1.9,0.7c-1.8,0.3-3.7,0.2-5.5,0.2
		c-1.8,0-3.5,0-5.3,0c-3,0-6.1,0-9.1,0c-5.7,0-11.4,0-17.1,0c-0.9,0-1.9-0.1-2.8-0.2C408.9,85.3,408.7,85,408.5,84.6z"/>
	<path class="st1" d="M301,193.8c-2.7-1.8-5.5-3.6-8.2-5.3c-0.7-0.4-1.4-0.5-2.2-0.3c1.1-1.6,3.2-2.6,3.1-5.2c2.2,1.9,4,3.6,6,5.2
		c1.8,1.5,3.9,2.5,6.1,3.1c1.7,0.5,1.6,1.5,1.3,2.7c-0.4,1.4-1.4,0.3-2.1,0.3C303.7,194.2,302.4,193.6,301,193.8z"/>
	<path class="st0" d="M350.5,73.3c14,0.5,27.7,2.2,41.2,5.7C378,77.1,364.3,75.2,350.5,73.3z"/>
	<path class="st1" d="M361.1,200.8c2.9,0.7,4.6,2.9,5.9,5.2c2,3.6,4.3,7.2,4.7,11.4c-2.9-3.3-5.6-6.9-8.7-10
		C361.2,205.5,361.7,203,361.1,200.8z"/>
	<path class="st1" d="M235,165.6c0-1.9,1.5-3.5,3.3-3.5c2,0.1,3.1,1.2,3.3,3.2c0.1,2-1.4,3.6-3.4,3.6
		C236.5,168.9,235,167.3,235,165.6z"/>
	<path class="st0" d="M404.4,68.5c0.6,0.5,0.6,1.1,0.3,1.7C404.1,69.7,404.1,69.1,404.4,68.5z"/>
	<path class="st0" d="M405.1,73c0.4,0.3,0.4,0.7,0.2,1.1C404.8,73.8,404.7,73.5,405.1,73z"/>
	<path class="st0" d="M215.8,79.3c13.7-3.5,27.8-5.2,42-6.1C243.8,75.7,229.8,77.2,215.8,79.3z"/>
	<path class="st2" d="M158.5,76.1c4,0,7.7,3.8,7.7,7.9c0,3.8-3.9,7.5-7.9,7.5c-4.3,0-7.5-3.3-7.5-7.6
		C150.8,79.5,154.1,76.1,158.5,76.1z"/>
	<path class="st2" d="M193.3,83.9c-0.1,4.3-3.6,7.6-7.9,7.5c-4.2-0.1-7.4-3.4-7.4-7.5c0.1-4.4,3.5-7.8,7.7-7.8
		C190,76.1,193.4,79.6,193.3,83.9z"/>
	<path class="st2" d="M203.4,86.9c-0.2,0.1-0.5,0.5-0.7,0c0-0.1,0.2-0.3,0.3-0.4C203.1,86.7,203.2,86.8,203.4,86.9z"/>
</g>
</svg>
